ISO-10303-21;
HEADER;
FILE_DESCRIPTION (( 'STEP AP214' ),
    '1' );
FILE_NAME ('Arm_Base_Plate.STEP',
    '2026-08-19T03:45:53',
    ( '' ),
    ( '' ),
    'SwSTEP 2.0',
    'SolidWorks 2025',
    '' );
FILE_SCHEMA (( 'AUTOMOTIVE_DESIGN' ));
ENDSEC;

DATA;
#1 = CIRCLE ( 'NONE', #1007, 2.100000000000004530 ) ;
#2 = DIRECTION ( 'NONE',  ( -0.000000000000000000, 1.000000000000000000, -0.000000000000000000 ) ) ;
#3 = AXIS2_PLACEMENT_3D ( 'NONE', #982, #188, #462 ) ;
#4 = EDGE_LOOP ( 'NONE', ( #607, #1099 ) ) ;
#5 = DIRECTION ( 'NONE',  ( 0.000000000000000000, 0.000000000000000000, 1.000000000000000000 ) ) ;
#6 = AXIS2_PLACEMENT_3D ( 'NONE', #799, #86, #96 ) ;
#7 = DIRECTION ( 'NONE',  ( -0.000000000000000000, 1.000000000000000000, -0.000000000000000000 ) ) ;
#8 = ORIENTED_EDGE ( 'NONE', *, *, #401, .F. ) ;
#9 = FACE_OUTER_BOUND ( 'NONE', #1091, .T. ) ;
#10 = CARTESIAN_POINT ( 'NONE',  ( 167.2200000000000273, 3.979999999999999982, 0.000000000000000000 ) ) ;
#11 = DIRECTION ( 'NONE',  ( 0.000000000000000000, 0.000000000000000000, 1.000000000000000000 ) ) ;
#12 = EDGE_CURVE ( 'NONE', #868, #1010, #507, .T. ) ;
#13 = VERTEX_POINT ( 'NONE', #424 ) ;
#14 = CARTESIAN_POINT ( 'NONE',  ( 12.70000000000029416, 0.000000000000000000, -83.68125000000409841 ) ) ;
#15 = ORIENTED_EDGE ( 'NONE', *, *, #513, .F. ) ;
#16 = CARTESIAN_POINT ( 'NONE',  ( 62.70750000000030155, 0.000000000000000000, -130.2250000000040870 ) ) ;
#17 = ORIENTED_EDGE ( 'NONE', *, *, #1147, .T. ) ;
#18 = CARTESIAN_POINT ( 'NONE',  ( 38.33990290695018643, -6.020000000000000462, -36.63601181410236762 ) ) ;
#19 = VECTOR ( 'NONE', #977, 1000.000000000000000 ) ;
#20 = EDGE_LOOP ( 'NONE', ( #1013, #801, #72, #1034 ) ) ;
#21 = CARTESIAN_POINT ( 'NONE',  ( 104.5125000000003013, 3.979999999999999982, -125.1250000000040927 ) ) ;
#22 = CIRCLE ( 'NONE', #894, 2.549999999999996714 ) ;
#23 = AXIS2_PLACEMENT_3D ( 'NONE', #348, #2, #460 ) ;
#24 = LINE ( 'NONE', #294, #337 ) ;
#25 = PRODUCT_DEFINITION_FORMATION_WITH_SPECIFIED_SOURCE ( 'ANY', '', #740, .NOT_KNOWN. ) ;
#26 = ORIENTED_EDGE ( 'NONE', *, *, #458, .F. ) ;
#27 = ADVANCED_FACE ( 'NONE', ( #795 ), #1054, .F. ) ;
#28 = ORIENTED_EDGE ( 'NONE', *, *, #1096, .F. ) ;
#29 = CARTESIAN_POINT ( 'NONE',  ( 0.000000000000000000, 0.000000000000000000, 0.000000000000000000 ) ) ;
#30 = FACE_OUTER_BOUND ( 'NONE', #553, .T. ) ;
#31 = EDGE_LOOP ( 'NONE', ( #998, #120 ) ) ;
#32 = FILL_AREA_STYLE ('',( #226 ) ) ;
#33 = EDGE_CURVE ( 'NONE', #742, #568, #486, .T. ) ;
#34 = ORIENTED_EDGE ( 'NONE', *, *, #293, .F. ) ;
#35 = LINE ( 'NONE', #496, #935 ) ;
#36 = EDGE_CURVE ( 'NONE', #57, #757, #713, .T. ) ;
#37 = ORIENTED_EDGE ( 'NONE', *, *, #571, .T. ) ;
#38 = DIRECTION ( 'NONE',  ( 1.000000000000000000, 0.000000000000000000, 0.000000000000000000 ) ) ;
#39 = ORIENTED_EDGE ( 'NONE', *, *, #736, .T. ) ;
#40 = DIRECTION ( 'NONE',  ( -0.000000000000000000, 1.000000000000000000, -0.000000000000000000 ) ) ;
#41 = FACE_BOUND ( 'NONE', #277, .T. ) ;
#42 = VECTOR ( 'NONE', #626, 1000.000000000000000 ) ;
#43 = CIRCLE ( 'NONE', #696, 2.549999999999996714 ) ;
#44 = ORIENTED_EDGE ( 'NONE', *, *, #243, .T. ) ;
#45 = AXIS2_PLACEMENT_3D ( 'NONE', #885, #808, #364 ) ;
#46 = CARTESIAN_POINT ( 'NONE',  ( 38.33990290695018643, 3.979999999999999982, -36.63601181410236762 ) ) ;
#47 = ORIENTED_EDGE ( 'NONE', *, *, #946, .T. ) ;
#48 = FACE_BOUND ( 'NONE', #469, .T. ) ;
#49 = FACE_BOUND ( 'NONE', #517, .T. ) ;
#50 = EDGE_CURVE ( 'NONE', #505, #986, #798, .T. ) ;
#51 = CARTESIAN_POINT ( 'NONE',  ( 64.85851181411017308, 3.979999999999999982, -12.21740290694236286 ) ) ;
#52 = DIRECTION ( 'NONE',  ( 0.000000000000000000, 0.000000000000000000, 1.000000000000000000 ) ) ;
#53 = VERTEX_POINT ( 'NONE', #261 ) ;
#54 = CYLINDRICAL_SURFACE ( 'NONE', #804, 2.100000000000004530 ) ;
#55 = FACE_BOUND ( 'NONE', #1123, .T. ) ;
#56 = ORIENTED_EDGE ( 'NONE', *, *, #1147, .F. ) ;
#57 = VERTEX_POINT ( 'NONE', #1143 ) ;
#58 = CARTESIAN_POINT ( 'NONE',  ( 62.70750000000030155, 3.979999999999999982, -125.1250000000040927 ) ) ;
#59 = VERTEX_POINT ( 'NONE', #71 ) ;
#60 = AXIS2_PLACEMENT_3D ( 'NONE', #886, #366, #892 ) ;
#61 = AXIS2_PLACEMENT_3D ( 'NONE', #890, #533, #715 ) ;
#62 = CARTESIAN_POINT ( 'NONE',  ( 0.000000000000000000, 0.000000000000000000, 0.000000000000000000 ) ) ;
#63 = EDGE_LOOP ( 'NONE', ( #391, #1019 ) ) ;
#64 = EDGE_CURVE ( 'NONE', #721, #246, #1, .T. ) ;
#65 = CARTESIAN_POINT ( 'NONE',  ( 38.33990290695018643, 0.000000000000000000, -74.13898818588236850 ) ) ;
#66 = DIRECTION ( 'NONE',  ( -0.000000000000000000, 1.000000000000000000, -0.000000000000000000 ) ) ;
#67 = DIRECTION ( 'NONE',  ( 0.000000000000000000, 1.000000000000000000, 0.000000000000000000 ) ) ;
#68 = ORIENTED_EDGE ( 'NONE', *, *, #853, .F. ) ;
#69 = CARTESIAN_POINT ( 'NONE',  ( 0.000000000000000000, 3.979999999999999982, 0.000000000000000000 ) ) ;
#70 = EDGE_CURVE ( 'NONE', #1117, #378, #840, .T. ) ;
#71 = CARTESIAN_POINT ( 'NONE',  ( 102.3614881858901953, 0.000000000000000000, -10.11740290694235966 ) ) ;
#72 = ORIENTED_EDGE ( 'NONE', *, *, #837, .T. ) ;
#73 = DIRECTION ( 'NONE',  ( 0.000000000000000000, -1.000000000000000000, 0.000000000000000000 ) ) ;
#74 = APPLICATION_CONTEXT ( 'automotive_design' ) ;
#75 = CARTESIAN_POINT ( 'NONE',  ( 167.2200000000000273, 0.000000000000000000, 0.000000000000000000 ) ) ;
#76 = DIRECTION ( 'NONE',  ( -0.000000000000000000, 1.000000000000000000, -0.000000000000000000 ) ) ;
#77 = AXIS2_PLACEMENT_3D ( 'NONE', #477, #1122, #764 ) ;
#78 = CIRCLE ( 'NONE', #413, 2.100000000000004530 ) ;
#79 = PRESENTATION_LAYER_ASSIGNMENT (  '', '', ( #730 ) ) ;
#80 = CARTESIAN_POINT ( 'NONE',  ( 64.85851181411017308, -6.020000000000000462, -12.21740290694236286 ) ) ;
#81 = AXIS2_PLACEMENT_3D ( 'NONE', #1020, #748, #576 ) ;
#82 = VECTOR ( 'NONE', #38, 1000.000000000000000 ) ;
#83 = DIRECTION ( 'NONE',  ( 0.000000000000000000, 0.000000000000000000, 1.000000000000000000 ) ) ;
#84 = ADVANCED_FACE ( 'NONE', ( #1140 ), #338, .F. ) ;
#85 = EDGE_CURVE ( 'NONE', #57, #53, #229, .T. ) ;
#86 = DIRECTION ( 'NONE',  ( 0.000000000000000000, 1.000000000000000000, 0.000000000000000000 ) ) ;
#87 = ORIENTED_EDGE ( 'NONE', *, *, #423, .T. ) ;
#88 = DIRECTION ( 'NONE',  ( 0.000000000000000000, 0.000000000000000000, 1.000000000000000000 ) ) ;
#89 = DIRECTION ( 'NONE',  ( -0.000000000000000000, -1.000000000000000000, -0.000000000000000000 ) ) ;
#90 = CARTESIAN_POINT ( 'NONE',  ( 104.5125000000003013, 0.000000000000000000, -130.2250000000040870 ) ) ;
#91 = ORIENTED_EDGE ( 'NONE', *, *, #863, .F. ) ;
#92 = CARTESIAN_POINT ( 'NONE',  ( 102.3614881858901953, -6.020000000000000462, -10.11740290694235966 ) ) ;
#93 = DIRECTION ( 'NONE',  ( -0.000000000000000000, 1.000000000000000000, -0.000000000000000000 ) ) ;
#94 = VERTEX_POINT ( 'NONE', #519 ) ;
#95 = AXIS2_PLACEMENT_3D ( 'NONE', #631, #560, #101 ) ;
#96 = DIRECTION ( 'NONE',  ( 0.000000000000000000, 0.000000000000000000, 1.000000000000000000 ) ) ;
#97 = AXIS2_PLACEMENT_3D ( 'NONE', #399, #944, #930 ) ;
#98 = EDGE_CURVE ( 'NONE', #568, #742, #676, .T. ) ;
#99 = DIRECTION ( 'NONE',  ( -0.000000000000000000, 1.000000000000000000, -0.000000000000000000 ) ) ;
#100 = AXIS2_PLACEMENT_3D ( 'NONE', #777, #881, #685 ) ;
#101 = DIRECTION ( 'NONE',  ( 0.000000000000000000, 0.000000000000000000, 1.000000000000000000 ) ) ;
#102 = ORIENTED_EDGE ( 'NONE', *, *, #561, .F. ) ;
#103 = DIRECTION ( 'NONE',  ( 0.000000000000000000, 1.000000000000000000, 0.000000000000000000 ) ) ;
#104 = ORIENTED_EDGE ( 'NONE', *, *, #362, .T. ) ;
#105 = LINE ( 'NONE', #809, #841 ) ;
#106 = FACE_OUTER_BOUND ( 'NONE', #807, .T. ) ;
#107 = EDGE_LOOP ( 'NONE', ( #629, #933 ) ) ;
#108 = FACE_OUTER_BOUND ( 'NONE', #650, .T. ) ;
#109 = EDGE_LOOP ( 'NONE', ( #307, #139, #206, #180 ) ) ;
#110 = DIRECTION ( 'NONE',  ( -0.000000000000000000, -1.000000000000000000, -0.000000000000000000 ) ) ;
#111 = ADVANCED_FACE ( 'NONE', ( #1049 ), #958, .F. ) ;
#112 = ORIENTED_EDGE ( 'NONE', *, *, #531, .F. ) ;
#113 = PRESENTATION_STYLE_ASSIGNMENT (( #743 ) ) ;
#114 = CIRCLE ( 'NONE', #95, 2.099999999999990763 ) ;
#115 = ORIENTED_EDGE ( 'NONE', *, *, #823, .T. ) ;
#116 = DIRECTION ( 'NONE',  ( 0.000000000000000000, 0.000000000000000000, 1.000000000000000000 ) ) ;
#117 = AXIS2_PLACEMENT_3D ( 'NONE', #635, #994, #5 ) ;
#118 = UNCERTAINTY_MEASURE_WITH_UNIT (LENGTH_MEASURE( 1.000000000000000082E-05 ), #953, 'distance_accuracy_value', 'NONE');
#119 = CARTESIAN_POINT ( 'NONE',  ( 154.5200000000002944, 0.000000000000000000, -86.23125000000412399 ) ) ;
#120 = ORIENTED_EDGE ( 'NONE', *, *, #837, .F. ) ;
#121 = EDGE_CURVE ( 'NONE', #834, #671, #1039, .T. ) ;
#122 = FACE_OUTER_BOUND ( 'NONE', #600, .T. ) ;
#123 = EDGE_CURVE ( 'NONE', #495, #456, #168, .T. ) ;
#124 = VERTEX_POINT ( 'NONE', #176 ) ;
#125 = CARTESIAN_POINT ( 'NONE',  ( -91.76702700217876441, -6.020000000000000462, -140.3375000000000057 ) ) ;
#126 = EDGE_LOOP ( 'NONE', ( #388, #487 ) ) ;
#127 = SURFACE_STYLE_FILL_AREA ( #32 ) ;
#128 = VERTEX_POINT ( 'NONE', #781 ) ;
#129 = FACE_OUTER_BOUND ( 'NONE', #383, .T. ) ;
#130 = FACE_BOUND ( 'NONE', #826, .T. ) ;
#131 = ORIENTED_EDGE ( 'NONE', *, *, #561, .T. ) ;
#132 = CARTESIAN_POINT ( 'NONE',  ( 64.85851181411017308, 0.000000000000000000, -102.7575970930423637 ) ) ;
#133 = EDGE_LOOP ( 'NONE', ( #632, #1112, #191, #227 ) ) ;
#134 = DIRECTION ( 'NONE',  ( -1.000000000000000000, 0.000000000000000000, 0.000000000000000000 ) ) ;
#135 = EDGE_CURVE ( 'NONE', #13, #871, #1097, .T. ) ;
#136 = FACE_OUTER_BOUND ( 'NONE', #1066, .T. ) ;
#137 = CIRCLE ( 'NONE', #411, 2.099999999999997868 ) ;
#138 = CIRCLE ( 'NONE', #117, 2.100000000000004530 ) ;
#139 = ORIENTED_EDGE ( 'NONE', *, *, #245, .F. ) ;
#140 = DIRECTION ( 'NONE',  ( 0.000000000000000000, 1.000000000000000000, 0.000000000000000000 ) ) ;
#141 = ORIENTED_EDGE ( 'NONE', *, *, #569, .F. ) ;
#142 = DIRECTION ( 'NONE',  ( -0.000000000000000000, 0.000000000000000000, 1.000000000000000000 ) ) ;
#143 = FACE_BOUND ( 'NONE', #644, .T. ) ;
#144 = ORIENTED_EDGE ( 'NONE', *, *, #993, .F. ) ;
#145 = ORIENTED_EDGE ( 'NONE', *, *, #1040, .F. ) ;
#146 = PLANE ( 'NONE',  #448 ) ;
#147 = FACE_BOUND ( 'NONE', #1021, .T. ) ;
#148 = VERTEX_POINT ( 'NONE', #1064 ) ;
#149 = EDGE_CURVE ( 'NONE', #1028, #721, #420, .T. ) ;
#150 = DIRECTION ( 'NONE',  ( 0.000000000000000000, -1.000000000000000000, -0.000000000000000000 ) ) ;
#151 = EDGE_LOOP ( 'NONE', ( #929, #235, #451, #1002 ) ) ;
#152 = DIRECTION ( 'NONE',  ( 0.000000000000000000, 0.000000000000000000, 1.000000000000000000 ) ) ;
#153 = LINE ( 'NONE', #866, #508 ) ;
#154 = EDGE_LOOP ( 'NONE', ( #755, #566, #572, #947 ) ) ;
#155 = AXIS2_PLACEMENT_3D ( 'NONE', #452, #559, #291 ) ;
#156 = VECTOR ( 'NONE', #265, 1000.000000000000000 ) ;
#157 = ADVANCED_FACE ( 'NONE', ( #536 ), #1129, .F. ) ;
#158 = VERTEX_POINT ( 'NONE', #690 ) ;
#159 = DIRECTION ( 'NONE',  ( 0.000000000000000000, -1.000000000000000000, -0.000000000000000000 ) ) ;
#160 = EDGE_CURVE ( 'NONE', #290, #1010, #605, .T. ) ;
#161 = DIRECTION ( 'NONE',  ( 0.000000000000000000, 0.000000000000000000, 1.000000000000000000 ) ) ;
#162 =( NAMED_UNIT ( * ) PLANE_ANGLE_UNIT ( ) SI_UNIT ( $, .RADIAN. ) );
#163 = ORIENTED_EDGE ( 'NONE', *, *, #569, .T. ) ;
#164 = CARTESIAN_POINT ( 'NONE',  ( -91.76702700217876441, 3.979999999999999982, -140.3375000000000057 ) ) ;
#165 = CARTESIAN_POINT ( 'NONE',  ( 102.3614881858901953, -6.020000000000000462, -100.6575970930423551 ) ) ;
#166 = DIRECTION ( 'NONE',  ( 0.000000000000000000, 0.000000000000000000, -1.000000000000000000 ) ) ;
#167 = ADVANCED_FACE ( 'NONE', ( #106 ), #641, .F. ) ;
#168 = LINE ( 'NONE', #873, #656 ) ;
#169 = CIRCLE ( 'NONE', #638, 2.099999999999990763 ) ;
#170 = AXIS2_PLACEMENT_3D ( 'NONE', #731, #1084, #557 ) ;
#171 = FACE_OUTER_BOUND ( 'NONE', #396, .T. ) ;
#172 = CARTESIAN_POINT ( 'NONE',  ( 154.5200000000002944, 3.979999999999999982, -86.23125000000412399 ) ) ;
#173 = CARTESIAN_POINT ( 'NONE',  ( 167.2199999999999704, 3.979999999999999982, -140.3375000000000057 ) ) ;
#174 = ORIENTED_EDGE ( 'NONE', *, *, #373, .F. ) ;
#175 = DIRECTION ( 'NONE',  ( 0.000000000000000000, 1.000000000000000000, 0.000000000000000000 ) ) ;
#176 = CARTESIAN_POINT ( 'NONE',  ( 167.2200000000000273, 3.979999999999999982, 0.000000000000000000 ) ) ;
#177 = VERTEX_POINT ( 'NONE', #912 ) ;
#178 = EDGE_CURVE ( 'NONE', #350, #197, #803, .T. ) ;
#179 = CARTESIAN_POINT ( 'NONE',  ( 64.85851181411017308, 3.979999999999999982, -10.11740290694235966 ) ) ;
#180 = ORIENTED_EDGE ( 'NONE', *, *, #33, .T. ) ;
#181 = CARTESIAN_POINT ( 'NONE',  ( 128.8800970930501819, 0.000000000000000000, -74.13898818588238271 ) ) ;
#182 = CARTESIAN_POINT ( 'NONE',  ( -2.775557561562891351E-14, 3.979999999999999982, -140.3375000000000057 ) ) ;
#183 = ORIENTED_EDGE ( 'NONE', *, *, #547, .T. ) ;
#184 = AXIS2_PLACEMENT_3D ( 'NONE', #833, #920, #681 ) ;
#185 = DIRECTION ( 'NONE',  ( 0.000000000000000000, 0.000000000000000000, 1.000000000000000000 ) ) ;
#186 = AXIS2_PLACEMENT_3D ( 'NONE', #1061, #284, #630 ) ;
#187 = ORIENTED_EDGE ( 'NONE', *, *, #245, .T. ) ;
#188 = DIRECTION ( 'NONE',  ( -0.000000000000000000, 1.000000000000000000, -0.000000000000000000 ) ) ;
#189 = VECTOR ( 'NONE', #708, 1000.000000000000000 ) ;
#190 = CYLINDRICAL_SURFACE ( 'NONE', #618, 2.549999999999996714 ) ;
#191 = ORIENTED_EDGE ( 'NONE', *, *, #401, .T. ) ;
#192 = CARTESIAN_POINT ( 'NONE',  ( 83.61000000000007049, 0.000000000000000000, -17.48750000000409699 ) ) ;
#193 = VERTEX_POINT ( 'NONE', #371 ) ;
#194 = DIRECTION ( 'NONE',  ( -0.000000000000000000, 1.000000000000000000, -0.000000000000000000 ) ) ;
#195 = EDGE_CURVE ( 'NONE', #128, #148, #995, .T. ) ;
#196 = DIRECTION ( 'NONE',  ( -0.000000000000000000, 1.000000000000000000, -0.000000000000000000 ) ) ;
#197 = VERTEX_POINT ( 'NONE', #445 ) ;
#198 = DIRECTION ( 'NONE',  ( 0.000000000000000000, -1.000000000000000000, -0.000000000000000000 ) ) ;
#199 = ORIENTED_EDGE ( 'NONE', *, *, #780, .T. ) ;
#200 = CARTESIAN_POINT ( 'NONE',  ( 102.3614881858901953, 0.000000000000000000, -12.21740290694236286 ) ) ;
#201 = EDGE_CURVE ( 'NONE', #13, #193, #463, .T. ) ;
#202 = EDGE_LOOP ( 'NONE', ( #318, #1036 ) ) ;
#203 = EDGE_CURVE ( 'NONE', #385, #510, #726, .T. ) ;
#204 = LINE ( 'NONE', #675, #659 ) ;
#205 = AXIS2_PLACEMENT_3D ( 'NONE', #1114, #673, #329 ) ;
#206 = ORIENTED_EDGE ( 'NONE', *, *, #435, .T. ) ;
#207 = FACE_OUTER_BOUND ( 'NONE', #905, .T. ) ;
#208 = AXIS2_PLACEMENT_3D ( 'NONE', #1088, #1017, #386 ) ;
#209 = PRODUCT_DEFINITION_SHAPE ( 'NONE', 'NONE',  #289 ) ;
#210 = AXIS2_PLACEMENT_3D ( 'NONE', #643, #545, #455 ) ;
#211 = CARTESIAN_POINT ( 'NONE',  ( 104.5125000000003013, 0.000000000000000000, -127.6750000000040899 ) ) ;
#212 = AXIS2_PLACEMENT_3D ( 'NONE', #589, #785, #1130 ) ;
#213 = EDGE_LOOP ( 'NONE', ( #34, #309 ) ) ;
#214 = PRODUCT_RELATED_PRODUCT_CATEGORY ( 'part', '', ( #740 ) ) ;
#215 = CARTESIAN_POINT ( 'NONE',  ( 128.8800970930501819, 0.000000000000000000, -76.23898818588237702 ) ) ;
#216 = VERTEX_POINT ( 'NONE', #652 ) ;
#217 = DIRECTION ( 'NONE',  ( -0.000000000000000000, 1.000000000000000000, -0.000000000000000000 ) ) ;
#218 = LINE ( 'NONE', #230, #788 ) ;
#219 = ORIENTED_EDGE ( 'NONE', *, *, #513, .T. ) ;
#220 = DIRECTION ( 'NONE',  ( 0.000000000000000000, 1.000000000000000000, 0.000000000000000000 ) ) ;
#221 = EDGE_CURVE ( 'NONE', #871, #597, #24, .T. ) ;
#222 = ORIENTED_EDGE ( 'NONE', *, *, #891, .F. ) ;
#223 = DIRECTION ( 'NONE',  ( -0.000000000000000000, 1.000000000000000000, -0.000000000000000000 ) ) ;
#224 = DIRECTION ( 'NONE',  ( 0.000000000000000000, -1.000000000000000000, 0.000000000000000000 ) ) ;
#225 = ORIENTED_EDGE ( 'NONE', *, *, #686, .F. ) ;
#226 = FILL_AREA_STYLE_COLOUR ( '', #1138 ) ;
#227 = ORIENTED_EDGE ( 'NONE', *, *, #36, .F. ) ;
#228 = FACE_BOUND ( 'NONE', #562, .T. ) ;
#229 = CIRCLE ( 'NONE', #1078, 2.100000000000004530 ) ;
#230 = CARTESIAN_POINT ( 'NONE',  ( 167.2200000000000273, 3.979999999999999982, 0.000000000000000000 ) ) ;
#231 = CIRCLE ( 'NONE', #155, 2.099999999999990763 ) ;
#232 = EDGE_LOOP ( 'NONE', ( #816, #473, #493, #28 ) ) ;
#233 = AXIS2_PLACEMENT_3D ( 'NONE', #1134, #500, #416 ) ;
#234 = DIRECTION ( 'NONE',  ( 0.000000000000000000, 0.000000000000000000, 1.000000000000000000 ) ) ;
#235 = ORIENTED_EDGE ( 'NONE', *, *, #373, .T. ) ;
#236 = DIRECTION ( 'NONE',  ( 0.000000000000000000, 0.000000000000000000, 1.000000000000000000 ) ) ;
#237 = DIRECTION ( 'NONE',  ( 0.000000000000000000, 1.000000000000000000, 0.000000000000000000 ) ) ;
#238 = ADVANCED_FACE ( 'NONE', ( #1001 ), #190, .F. ) ;
#239 = ORIENTED_EDGE ( 'NONE', *, *, #1032, .F. ) ;
#240 = VERTEX_POINT ( 'NONE', #182 ) ;
#241 = CARTESIAN_POINT ( 'NONE',  ( 12.70000000000029416, 0.000000000000000000, -86.23125000000409557 ) ) ;
#242 = CARTESIAN_POINT ( 'NONE',  ( 12.70000000000029416, 0.000000000000000000, -86.23125000000409557 ) ) ;
#243 = EDGE_CURVE ( 'NONE', #193, #597, #114, .T. ) ;
#244 = ORIENTED_EDGE ( 'NONE', *, *, #940, .T. ) ;
#245 = EDGE_CURVE ( 'NONE', #253, #300, #582, .T. ) ;
#246 = VERTEX_POINT ( 'NONE', #453 ) ;
#247 = DIRECTION ( 'NONE',  ( 0.000000000000000000, 0.000000000000000000, 1.000000000000000000 ) ) ;
#248 = AXIS2_PLACEMENT_3D ( 'NONE', #895, #741, #1090 ) ;
#249 = DIRECTION ( 'NONE',  ( 0.000000000000000000, 1.000000000000000000, 0.000000000000000000 ) ) ;
#250 = VECTOR ( 'NONE', #771, 1000.000000000000000 ) ;
#251 = CIRCLE ( 'NONE', #61, 2.100000000000004530 ) ;
#252 = VECTOR ( 'NONE', #479, 1000.000000000000000 ) ;
#253 = VERTEX_POINT ( 'NONE', #828 ) ;
#254 = CARTESIAN_POINT ( 'NONE',  ( 167.2199999999999704, 0.000000000000000000, -140.3375000000000057 ) ) ;
#255 = DIRECTION ( 'NONE',  ( 0.000000000000000000, -1.000000000000000000, -0.000000000000000000 ) ) ;
#256 = ADVANCED_FACE ( 'NONE', ( #30 ), #382, .F. ) ;
#257 = CARTESIAN_POINT ( 'NONE',  ( 38.33990290695018643, -6.020000000000000462, -40.83601181410236336 ) ) ;
#258 = CARTESIAN_POINT ( 'NONE',  ( 102.3614881858901953, -6.020000000000000462, -102.7575970930423637 ) ) ;
#259 = DIRECTION ( 'NONE',  ( 0.000000000000000000, 1.000000000000000000, 0.000000000000000000 ) ) ;
#260 = FACE_OUTER_BOUND ( 'NONE', #1087, .T. ) ;
#261 = CARTESIAN_POINT ( 'NONE',  ( 102.3614881858901953, 0.000000000000000000, -104.8575970930423580 ) ) ;
#262 = CIRCLE ( 'NONE', #913, 2.549999999999996714 ) ;
#263 = VECTOR ( 'NONE', #346, 1000.000000000000000 ) ;
#264 = CIRCLE ( 'NONE', #1082, 2.549999999999996714 ) ;
#265 = DIRECTION ( 'NONE',  ( -0.000000000000000000, 1.000000000000000000, -0.000000000000000000 ) ) ;
#266 = CARTESIAN_POINT ( 'NONE',  ( 12.70000000000029416, 0.000000000000000000, -88.78125000000409273 ) ) ;
#267 = CARTESIAN_POINT ( 'NONE',  ( 38.33990290695018643, -6.020000000000000462, -78.33898818588237134 ) ) ;
#268 = EDGE_CURVE ( 'NONE', #937, #495, #262, .T. ) ;
#269 = EDGE_LOOP ( 'NONE', ( #141, #454, #104, #47 ) ) ;
#270 = CARTESIAN_POINT ( 'NONE',  ( 62.70750000000030155, 0.000000000000000000, -127.6750000000040899 ) ) ;
#271 = ORIENTED_EDGE ( 'NONE', *, *, #64, .F. ) ;
#272 = DIRECTION ( 'NONE',  ( 0.000000000000000000, 0.000000000000000000, -1.000000000000000000 ) ) ;
#273 = CARTESIAN_POINT ( 'NONE',  ( 128.8800970930501819, -6.020000000000000462, -40.83601181410235625 ) ) ;
#274 = ORIENTED_EDGE ( 'NONE', *, *, #195, .T. ) ;
#275 = EDGE_CURVE ( 'NONE', #378, #1117, #137, .T. ) ;
#276 = CARTESIAN_POINT ( 'NONE',  ( 83.61000000000007049, 0.000000000000000000, -57.48750000000410409 ) ) ;
#277 = EDGE_LOOP ( 'NONE', ( #145, #1075 ) ) ;
#278 = DIRECTION ( 'NONE',  ( 0.000000000000000000, -1.000000000000000000, -0.000000000000000000 ) ) ;
#279 = ORIENTED_EDGE ( 'NONE', *, *, #1030, .F. ) ;
#280 = AXIS2_PLACEMENT_3D ( 'NONE', #702, #255, #966 ) ;
#281 = DIRECTION ( 'NONE',  ( -0.000000000000000000, 1.000000000000000000, -0.000000000000000000 ) ) ;
#282 = ADVANCED_FACE ( 'NONE', ( #136 ), #667, .F. ) ;
#283 = AXIS2_PLACEMENT_3D ( 'NONE', #125, #142, #298 ) ;
#284 = DIRECTION ( 'NONE',  ( 0.000000000000000000, 1.000000000000000000, 0.000000000000000000 ) ) ;
#285 = CIRCLE ( 'NONE', #6, 2.099999999999997868 ) ;
#286 = AXIS2_PLACEMENT_3D ( 'NONE', #824, #909, #658 ) ;
#287 = VERTEX_POINT ( 'NONE', #592 ) ;
#288 = LINE ( 'NONE', #18, #340 ) ;
#289 = PRODUCT_DEFINITION ( 'UNKNOWN', '', #25, #292 ) ;
#290 = VERTEX_POINT ( 'NONE', #579 ) ;
#291 = DIRECTION ( 'NONE',  ( 0.000000000000000000, 0.000000000000000000, -1.000000000000000000 ) ) ;
#292 = PRODUCT_DEFINITION_CONTEXT ( 'detailed design', #753, 'design' ) ;
#293 = EDGE_CURVE ( 'NONE', #59, #128, #711, .T. ) ;
#294 = CARTESIAN_POINT ( 'NONE',  ( 128.8800970930501819, -6.020000000000000462, -36.63601181410237473 ) ) ;
#295 = ORIENTED_EDGE ( 'NONE', *, *, #907, .F. ) ;
#296 = DIRECTION ( 'NONE',  ( 0.000000000000000000, 0.000000000000000000, 1.000000000000000000 ) ) ;
#297 = EDGE_LOOP ( 'NONE', ( #365, #857, #627, #484 ) ) ;
#298 = DIRECTION ( 'NONE',  ( 1.000000000000000000, 0.000000000000000000, 0.000000000000000000 ) ) ;
#299 = DIRECTION ( 'NONE',  ( -0.000000000000000000, 1.000000000000000000, -0.000000000000000000 ) ) ;
#300 = VERTEX_POINT ( 'NONE', #1031 ) ;
#301 = VECTOR ( 'NONE', #196, 1000.000000000000000 ) ;
#302 = ORIENTED_EDGE ( 'NONE', *, *, #1089, .T. ) ;
#303 = DIRECTION ( 'NONE',  ( 0.000000000000000000, 0.000000000000000000, 1.000000000000000000 ) ) ;
#304 = AXIS2_PLACEMENT_3D ( 'NONE', #832, #392, #303 ) ;
#305 = AXIS2_PLACEMENT_3D ( 'NONE', #215, #664, #917 ) ;
#306 = EDGE_CURVE ( 'NONE', #246, #721, #859, .T. ) ;
#307 = ORIENTED_EDGE ( 'NONE', *, *, #889, .F. ) ;
#308 = CYLINDRICAL_SURFACE ( 'NONE', #286, 2.100000000000004530 ) ;
#309 = ORIENTED_EDGE ( 'NONE', *, *, #443, .F. ) ;
#310 = FACE_BOUND ( 'NONE', #941, .T. ) ;
#311 = CARTESIAN_POINT ( 'NONE',  ( 0.000000000000000000, 3.979999999999999982, 0.000000000000000000 ) ) ;
#312 = ORIENTED_EDGE ( 'NONE', *, *, #633, .T. ) ;
#313 = EDGE_LOOP ( 'NONE', ( #1120, #56 ) ) ;
#314 = FACE_OUTER_BOUND ( 'NONE', #528, .T. ) ;
#315 = CARTESIAN_POINT ( 'NONE',  ( 38.33990290695018643, 3.979999999999999982, -76.23898818588237702 ) ) ;
#316 = ORIENTED_EDGE ( 'NONE', *, *, #907, .T. ) ;
#317 = CARTESIAN_POINT ( 'NONE',  ( 38.33990290695018643, 0.000000000000000000, -78.33898818588237134 ) ) ;
#318 = ORIENTED_EDGE ( 'NONE', *, *, #980, .T. ) ;
#319 = ADVANCED_FACE ( 'NONE', ( #321 ), #1018, .F. ) ;
#320 = DIRECTION ( 'NONE',  ( 0.000000000000000000, -1.000000000000000000, -0.000000000000000000 ) ) ;
#321 = FACE_OUTER_BOUND ( 'NONE', #154, .T. ) ;
#322 = AXIS2_PLACEMENT_3D ( 'NONE', #999, #911, #116 ) ;
#323 = AXIS2_PLACEMENT_3D ( 'NONE', #80, #968, #247 ) ;
#324 = ORIENTED_EDGE ( 'NONE', *, *, #586, .F. ) ;
#325 = PRODUCT_CONTEXT ( 'NONE', #74, 'mechanical' ) ;
#326 = ORIENTED_EDGE ( 'NONE', *, *, #1009, .T. ) ;
#327 = CARTESIAN_POINT ( 'NONE',  ( 167.2200000000000273, 3.979999999999999982, -140.3375000000000057 ) ) ;
#328 = EDGE_CURVE ( 'NONE', #984, #464, #988, .T. ) ;
#329 = DIRECTION ( 'NONE',  ( 0.000000000000000000, 0.000000000000000000, -1.000000000000000000 ) ) ;
#330 = EDGE_CURVE ( 'NONE', #124, #775, #218, .T. ) ;
#331 = ORIENTED_EDGE ( 'NONE', *, *, #691, .F. ) ;
#332 = ORIENTED_EDGE ( 'NONE', *, *, #825, .T. ) ;
#333 = PLANE ( 'NONE',  #393 ) ;
#334 = DIRECTION ( 'NONE',  ( -0.000000000000000000, 1.000000000000000000, -0.000000000000000000 ) ) ;
#335 = ORIENTED_EDGE ( 'NONE', *, *, #440, .F. ) ;
#336 = LINE ( 'NONE', #164, #250 ) ;
#337 = VECTOR ( 'NONE', #647, 1000.000000000000000 ) ;
#338 = CYLINDRICAL_SURFACE ( 'NONE', #932, 40.00000000000000711 ) ;
#339 = EDGE_CURVE ( 'NONE', #728, #687, #429, .T. ) ;
#340 = VECTOR ( 'NONE', #997, 1000.000000000000000 ) ;
#341 = DIRECTION ( 'NONE',  ( 0.000000000000000000, 0.000000000000000000, -1.000000000000000000 ) ) ;
#342 = DIRECTION ( 'NONE',  ( 0.000000000000000000, 0.000000000000000000, 1.000000000000000000 ) ) ;
#343 = DIRECTION ( 'NONE',  ( 0.000000000000000000, -1.000000000000000000, -0.000000000000000000 ) ) ;
#344 = CYLINDRICAL_SURFACE ( 'NONE', #212, 2.099999999999990763 ) ;
#345 = CARTESIAN_POINT ( 'NONE',  ( 102.3614881858901953, 3.979999999999999982, -100.6575970930423551 ) ) ;
#346 = DIRECTION ( 'NONE',  ( -3.242237058115372486E-16, 0.000000000000000000, -1.000000000000000000 ) ) ;
#347 = DIRECTION ( 'NONE',  ( 0.000000000000000000, 0.000000000000000000, -1.000000000000000000 ) ) ;
#348 = CARTESIAN_POINT ( 'NONE',  ( 128.8800970930501819, -6.020000000000000462, -76.23898818588237702 ) ) ;
#349 = ADVANCED_FACE ( 'NONE', ( #55, #143, #412, #147, #851, #130, #483, #49, #503, #838, #41, #856, #774, #395 ), #752, .F. ) ;
#350 = VERTEX_POINT ( 'NONE', #695 ) ;
#351 = LINE ( 'NONE', #75, #263 ) ;
#352 = DIRECTION ( 'NONE',  ( -0.000000000000000000, 1.000000000000000000, -0.000000000000000000 ) ) ;
#353 = VECTOR ( 'NONE', #89, 1000.000000000000000 ) ;
#354 = EDGE_LOOP ( 'NONE', ( #575, #782, #1044, #239 ) ) ;
#355 = AXIS2_PLACEMENT_3D ( 'NONE', #850, #476, #236 ) ;
#356 = CIRCLE ( 'NONE', #100, 2.100000000000004530 ) ;
#357 = FACE_OUTER_BOUND ( 'NONE', #151, .T. ) ;
#358 =( GEOMETRIC_REPRESENTATION_CONTEXT ( 3 ) GLOBAL_UNCERTAINTY_ASSIGNED_CONTEXT ( ( #118 ) ) GLOBAL_UNIT_ASSIGNED_CONTEXT ( ( #953, #162, #942 ) ) REPRESENTATION_CONTEXT ( 'NONE', 'WORKASPACE' ) );
#359 = CARTESIAN_POINT ( 'NONE',  ( 102.3614881858901953, 0.000000000000000000, -102.7575970930423637 ) ) ;
#360 = EDGE_CURVE ( 'NONE', #177, #765, #351, .T. ) ;
#361 = CARTESIAN_POINT ( 'NONE',  ( 102.3614881858901953, -6.020000000000000462, -14.31740290694236784 ) ) ;
#362 = EDGE_CURVE ( 'NONE', #197, #1033, #701, .T. ) ;
#363 = ORIENTED_EDGE ( 'NONE', *, *, #98, .T. ) ;
#364 = DIRECTION ( 'NONE',  ( 0.000000000000000000, 0.000000000000000000, 1.000000000000000000 ) ) ;
#365 = ORIENTED_EDGE ( 'NONE', *, *, #633, .F. ) ;
#366 = DIRECTION ( 'NONE',  ( -0.000000000000000000, 1.000000000000000000, -0.000000000000000000 ) ) ;
#367 = ORIENTED_EDGE ( 'NONE', *, *, #1030, .T. ) ;
#368 = CARTESIAN_POINT ( 'NONE',  ( 128.8800970930501819, 0.000000000000000000, -76.23898818588237702 ) ) ;
#369 = VERTEX_POINT ( 'NONE', #521 ) ;
#370 = CYLINDRICAL_SURFACE ( 'NONE', #3, 2.100000000000004530 ) ;
#371 = CARTESIAN_POINT ( 'NONE',  ( 128.8800970930501819, 3.979999999999999982, -40.83601181410235625 ) ) ;
#372 = ORIENTED_EDGE ( 'NONE', *, *, #1141, .F. ) ;
#373 = EDGE_CURVE ( 'NONE', #688, #94, #614, .T. ) ;
#374 = VECTOR ( 'NONE', #217, 1000.000000000000000 ) ;
#375 = CARTESIAN_POINT ( 'NONE',  ( 128.8800970930501819, 3.979999999999999982, -74.13898818588238271 ) ) ;
#376 = ORIENTED_EDGE ( 'NONE', *, *, #123, .T. ) ;
#377 = LINE ( 'NONE', #1080, #1008 ) ;
#378 = VERTEX_POINT ( 'NONE', #515 ) ;
#379 = CARTESIAN_POINT ( 'NONE',  ( 62.70750000000030155, 0.000000000000000000, -125.1250000000040927 ) ) ;
#380 = ORIENTED_EDGE ( 'NONE', *, *, #275, .T. ) ;
#381 = DIRECTION ( 'NONE',  ( 1.621118529057686243E-16, -0.000000000000000000, 1.000000000000000000 ) ) ;
#382 = CYLINDRICAL_SURFACE ( 'NONE', #248, 2.549999999999996714 ) ;
#383 = EDGE_LOOP ( 'NONE', ( #660, #501, #760, #849 ) ) ;
#384 = DIRECTION ( 'NONE',  ( 0.000000000000000000, 0.000000000000000000, 1.000000000000000000 ) ) ;
#385 = VERTEX_POINT ( 'NONE', #1048 ) ;
#386 = DIRECTION ( 'NONE',  ( -1.621118529057686243E-16, 0.000000000000000000, -1.000000000000000000 ) ) ;
#387 = EDGE_CURVE ( 'NONE', #671, #177, #794, .T. ) ;
#388 = ORIENTED_EDGE ( 'NONE', *, *, #275, .F. ) ;
#389 = DIRECTION ( 'NONE',  ( 0.000000000000000000, -1.000000000000000000, 0.000000000000000000 ) ) ;
#390 = AXIS2_PLACEMENT_3D ( 'NONE', #880, #343, #1057 ) ;
#391 = ORIENTED_EDGE ( 'NONE', *, *, #1056, .F. ) ;
#392 = DIRECTION ( 'NONE',  ( 0.000000000000000000, 1.000000000000000000, 0.000000000000000000 ) ) ;
#393 = AXIS2_PLACEMENT_3D ( 'NONE', #409, #783, #689 ) ;
#394 = CIRCLE ( 'NONE', #806, 2.549999999999996714 ) ;
#395 = FACE_OUTER_BOUND ( 'NONE', #1068, .T. ) ;
#396 = EDGE_LOOP ( 'NONE', ( #642, #682, #1015, #37 ) ) ;
#397 = CARTESIAN_POINT ( 'NONE',  ( 104.5125000000003013, 3.979999999999999982, -127.6750000000040899 ) ) ;
#398 = ORIENTED_EDGE ( 'NONE', *, *, #980, .F. ) ;
#399 = CARTESIAN_POINT ( 'NONE',  ( 64.85851181411017308, -6.020000000000000462, -12.21740290694236286 ) ) ;
#400 = DIRECTION ( 'NONE',  ( 0.000000000000000000, 1.000000000000000000, 0.000000000000000000 ) ) ;
#401 = EDGE_CURVE ( 'NONE', #405, #757, #78, .T. ) ;
#402 = CARTESIAN_POINT ( 'NONE',  ( 38.33990290695018643, 0.000000000000000000, -40.83601181410236336 ) ) ;
#403 = ORIENTED_EDGE ( 'NONE', *, *, #1076, .F. ) ;
#404 = CARTESIAN_POINT ( 'NONE',  ( 83.61000000000007049, 0.000000000000000000, -97.48750000000411831 ) ) ;
#405 = VERTEX_POINT ( 'NONE', #962 ) ;
#406 = DIRECTION ( 'NONE',  ( 1.000000000000000000, 0.000000000000000000, 0.000000000000000000 ) ) ;
#407 = EDGE_CURVE ( 'NONE', #577, #461, #43, .T. ) ;
#408 = ORIENTED_EDGE ( 'NONE', *, *, #499, .T. ) ;
#409 = CARTESIAN_POINT ( 'NONE',  ( 167.2200000000000273, 3.979999999999999982, 0.000000000000000000 ) ) ;
#410 = ADVANCED_FACE ( 'NONE', ( #260 ), #617, .F. ) ;
#411 = AXIS2_PLACEMENT_3D ( 'NONE', #550, #759, #931 ) ;
#412 = FACE_BOUND ( 'NONE', #31, .T. ) ;
#413 = AXIS2_PLACEMENT_3D ( 'NONE', #797, #433, #779 ) ;
#414 = CIRCLE ( 'NONE', #749, 40.00000000000000711 ) ;
#415 = ORIENTED_EDGE ( 'NONE', *, *, #482, .T. ) ;
#416 = DIRECTION ( 'NONE',  ( 0.000000000000000000, 0.000000000000000000, 1.000000000000000000 ) ) ;
#417 = ORIENTED_EDGE ( 'NONE', *, *, #891, .T. ) ;
#418 = CARTESIAN_POINT ( 'NONE',  ( 102.3614881858901953, 3.979999999999999982, -10.11740290694235966 ) ) ;
#419 = CARTESIAN_POINT ( 'NONE',  ( 64.85851181411017308, 3.979999999999999982, -104.8575970930423580 ) ) ;
#420 = LINE ( 'NONE', #267, #42 ) ;
#421 = VERTEX_POINT ( 'NONE', #438 ) ;
#422 = DIRECTION ( 'NONE',  ( 0.000000000000000000, 0.000000000000000000, -1.000000000000000000 ) ) ;
#423 = EDGE_CURVE ( 'NONE', #937, #216, #1127, .T. ) ;
#424 = CARTESIAN_POINT ( 'NONE',  ( 128.8800970930501819, 0.000000000000000000, -40.83601181410235625 ) ) ;
#425 = ORIENTED_EDGE ( 'NONE', *, *, #362, .F. ) ;
#426 = LINE ( 'NONE', #876, #523 ) ;
#427 = CARTESIAN_POINT ( 'NONE',  ( 64.85851181411017308, -6.020000000000000462, -100.6575970930423551 ) ) ;
#428 = AXIS2_PLACEMENT_3D ( 'NONE', #945, #939, #1095 ) ;
#429 = CIRCLE ( 'NONE', #428, 2.549999999999996714 ) ;
#430 = DIRECTION ( 'NONE',  ( 0.000000000000000000, 0.000000000000000000, 1.000000000000000000 ) ) ;
#431 = VECTOR ( 'NONE', #970, 1000.000000000000000 ) ;
#432 = DIRECTION ( 'NONE',  ( 0.000000000000000000, 1.000000000000000000, 0.000000000000000000 ) ) ;
#433 = DIRECTION ( 'NONE',  ( 0.000000000000000000, 1.000000000000000000, 0.000000000000000000 ) ) ;
#434 = DIRECTION ( 'NONE',  ( 0.000000000000000000, 0.000000000000000000, 1.000000000000000000 ) ) ;
#435 = EDGE_CURVE ( 'NONE', #253, #742, #153, .T. ) ;
#436 = LINE ( 'NONE', #441, #1026 ) ;
#437 = VERTEX_POINT ( 'NONE', #419 ) ;
#438 = CARTESIAN_POINT ( 'NONE',  ( 38.33990290695018643, 3.979999999999999982, -40.83601181410236336 ) ) ;
#439 = CARTESIAN_POINT ( 'NONE',  ( 0.000000000000000000, 3.979999999999999982, 0.000000000000000000 ) ) ;
#440 = EDGE_CURVE ( 'NONE', #456, #216, #914, .T. ) ;
#441 = CARTESIAN_POINT ( 'NONE',  ( 154.5200000000002944, 0.000000000000000000, -88.78125000000410694 ) ) ;
#442 = ORIENTED_EDGE ( 'NONE', *, *, #440, .T. ) ;
#443 = EDGE_CURVE ( 'NONE', #128, #59, #677, .T. ) ;
#444 = CARTESIAN_POINT ( 'NONE',  ( 128.8800970930501819, 3.979999999999999982, -36.63601181410237473 ) ) ;
#445 = CARTESIAN_POINT ( 'NONE',  ( 64.85851181411017308, 0.000000000000000000, -100.6575970930423551 ) ) ;
#446 = VECTOR ( 'NONE', #299, 1000.000000000000000 ) ;
#447 = ORIENTED_EDGE ( 'NONE', *, *, #1009, .F. ) ;
#448 = AXIS2_PLACEMENT_3D ( 'NONE', #585, #73, #422 ) ;
#449 = DIRECTION ( 'NONE',  ( 0.000000000000000000, 0.000000000000000000, 1.000000000000000000 ) ) ;
#450 = VECTOR ( 'NONE', #389, 1000.000000000000000 ) ;
#451 = ORIENTED_EDGE ( 'NONE', *, *, #686, .T. ) ;
#452 = CARTESIAN_POINT ( 'NONE',  ( 128.8800970930501819, 0.000000000000000000, -38.73601181410236194 ) ) ;
#453 = CARTESIAN_POINT ( 'NONE',  ( 38.33990290695018643, 3.979999999999999982, -74.13898818588236850 ) ) ;
#454 = ORIENTED_EDGE ( 'NONE', *, *, #178, .T. ) ;
#455 = DIRECTION ( 'NONE',  ( 0.000000000000000000, 0.000000000000000000, 1.000000000000000000 ) ) ;
#456 = VERTEX_POINT ( 'NONE', #21 ) ;
#457 = CARTESIAN_POINT ( 'NONE',  ( 154.5200000000002944, 3.979999999999999982, -88.78125000000410694 ) ) ;
#458 = EDGE_CURVE ( 'NONE', #461, #728, #105, .T. ) ;
#459 = ORIENTED_EDGE ( 'NONE', *, *, #50, .F. ) ;
#460 = DIRECTION ( 'NONE',  ( 0.000000000000000000, 0.000000000000000000, 1.000000000000000000 ) ) ;
#461 = VERTEX_POINT ( 'NONE', #16 ) ;
#462 = DIRECTION ( 'NONE',  ( 0.000000000000000000, 0.000000000000000000, 1.000000000000000000 ) ) ;
#463 = LINE ( 'NONE', #273, #694 ) ;
#464 = VERTEX_POINT ( 'NONE', #266 ) ;
#465 = AXIS2_PLACEMENT_3D ( 'NONE', #555, #815, #805 ) ;
#466 = VECTOR ( 'NONE', #529, 1000.000000000000000 ) ;
#467 = DIRECTION ( 'NONE',  ( -0.000000000000000000, 1.000000000000000000, -0.000000000000000000 ) ) ;
#468 = CIRCLE ( 'NONE', #729, 2.100000000000004530 ) ;
#469 = EDGE_LOOP ( 'NONE', ( #943, #372 ) ) ;
#470 = CARTESIAN_POINT ( 'NONE',  ( 62.70750000000030155, 0.000000000000000000, -125.1250000000040927 ) ) ;
#471 = AXIS2_PLACEMENT_3D ( 'NONE', #132, #485, #842 ) ;
#472 = DIRECTION ( 'NONE',  ( 0.000000000000000000, 0.000000000000000000, 1.000000000000000000 ) ) ;
#473 = ORIENTED_EDGE ( 'NONE', *, *, #974, .F. ) ;
#474 = CYLINDRICAL_SURFACE ( 'NONE', #81, 2.099999999999990763 ) ;
#475 = ORIENTED_EDGE ( 'NONE', *, *, #330, .T. ) ;
#476 = DIRECTION ( 'NONE',  ( 0.000000000000000000, 1.000000000000000000, 0.000000000000000000 ) ) ;
#477 = CARTESIAN_POINT ( 'NONE',  ( 62.70750000000030155, 0.000000000000000000, -127.6750000000040899 ) ) ;
#478 = ORIENTED_EDGE ( 'NONE', *, *, #268, .F. ) ;
#479 = DIRECTION ( 'NONE',  ( -0.000000000000000000, 1.000000000000000000, -0.000000000000000000 ) ) ;
#480 = ORIENTED_EDGE ( 'NONE', *, *, #443, .T. ) ;
#481 = DIRECTION ( 'NONE',  ( 0.000000000000000000, 0.000000000000000000, 1.000000000000000000 ) ) ;
#482 = EDGE_CURVE ( 'NONE', #53, #57, #563, .T. ) ;
#483 = FACE_BOUND ( 'NONE', #594, .T. ) ;
#484 = ORIENTED_EDGE ( 'NONE', *, *, #121, .F. ) ;
#485 = DIRECTION ( 'NONE',  ( 0.000000000000000000, -1.000000000000000000, -0.000000000000000000 ) ) ;
#486 = CIRCLE ( 'NONE', #602, 2.549999999999996714 ) ;
#487 = ORIENTED_EDGE ( 'NONE', *, *, #70, .F. ) ;
#488 = DIRECTION ( 'NONE',  ( 0.000000000000000000, 0.000000000000000000, -1.000000000000000000 ) ) ;
#489 = VECTOR ( 'NONE', #1139, 1000.000000000000000 ) ;
#490 = AXIS2_PLACEMENT_3D ( 'NONE', #623, #904, #1145 ) ;
#491 = CARTESIAN_POINT ( 'NONE',  ( 12.70000000000029416, 0.000000000000000000, -86.23125000000409557 ) ) ;
#492 = EDGE_CURVE ( 'NONE', #437, #1033, #138, .T. ) ;
#493 = ORIENTED_EDGE ( 'NONE', *, *, #598, .T. ) ;
#494 = CARTESIAN_POINT ( 'NONE',  ( 0.000000000000000000, 3.979999999999999982, 0.000000000000000000 ) ) ;
#495 = VERTEX_POINT ( 'NONE', #976 ) ;
#496 = CARTESIAN_POINT ( 'NONE',  ( 0.000000000000000000, 3.979999999999999982, 0.000000000000000000 ) ) ;
#497 = ADVANCED_FACE ( 'NONE', ( #717 ), #370, .F. ) ;
#498 = ORIENTED_EDGE ( 'NONE', *, *, #195, .F. ) ;
#499 = EDGE_CURVE ( 'NONE', #124, #177, #625, .T. ) ;
#500 = DIRECTION ( 'NONE',  ( -0.000000000000000000, 1.000000000000000000, -0.000000000000000000 ) ) ;
#501 = ORIENTED_EDGE ( 'NONE', *, *, #135, .T. ) ;
#502 = CARTESIAN_POINT ( 'NONE',  ( 0.000000000000000000, -0.000000000000000000, -140.3375000000000057 ) ) ;
#503 = FACE_BOUND ( 'NONE', #744, .T. ) ;
#504 = EDGE_LOOP ( 'NONE', ( #668, #274, #1093, #723 ) ) ;
#505 = VERTEX_POINT ( 'NONE', #181 ) ;
#506 = CARTESIAN_POINT ( 'NONE',  ( 38.33990290695018643, 3.979999999999999982, -78.33898818588237134 ) ) ;
#507 = CIRCLE ( 'NONE', #1058, 2.100000000000004530 ) ;
#508 = VECTOR ( 'NONE', #66, 1000.000000000000000 ) ;
#509 = CIRCLE ( 'NONE', #604, 40.00000000000000711 ) ;
#510 = VERTEX_POINT ( 'NONE', #725 ) ;
#511 = AXIS2_PLACEMENT_3D ( 'NONE', #397, #848, #52 ) ;
#512 = ORIENTED_EDGE ( 'NONE', *, *, #736, .F. ) ;
#513 = EDGE_CURVE ( 'NONE', #986, #510, #169, .T. ) ;
#514 = DIRECTION ( 'NONE',  ( -0.000000000000000000, 1.000000000000000000, -0.000000000000000000 ) ) ;
#515 = CARTESIAN_POINT ( 'NONE',  ( 38.33990290695018643, 0.000000000000000000, -36.63601181410236762 ) ) ;
#516 = CARTESIAN_POINT ( 'NONE',  ( 64.85851181411017308, -6.020000000000000462, -14.31740290694236784 ) ) ;
#517 = EDGE_LOOP ( 'NONE', ( #908, #844 ) ) ;
#518 = FACE_OUTER_BOUND ( 'NONE', #590, .T. ) ;
#519 = CARTESIAN_POINT ( 'NONE',  ( 83.61000000000007049, 3.979999999999999982, -97.48750000000411831 ) ) ;
#520 = DIRECTION ( 'NONE',  ( 0.000000000000000000, 0.000000000000000000, 1.000000000000000000 ) ) ;
#521 = CARTESIAN_POINT ( 'NONE',  ( 12.70000000000029416, 3.979999999999999982, -88.78125000000409273 ) ) ;
#522 = VECTOR ( 'NONE', #352, 1000.000000000000000 ) ;
#523 = VECTOR ( 'NONE', #514, 1000.000000000000000 ) ;
#524 = CARTESIAN_POINT ( 'NONE',  ( 128.8800970930501819, -6.020000000000000462, -74.13898818588238271 ) ) ;
#525 = ADVANCED_FACE ( 'NONE', ( #549 ), #539, .F. ) ;
#526 = AXIS2_PLACEMENT_3D ( 'NONE', #241, #608, #152 ) ;
#527 = CARTESIAN_POINT ( 'NONE',  ( 83.61000000000007049, 0.000000000000000000, -57.48750000000410409 ) ) ;
#528 = EDGE_LOOP ( 'NONE', ( #684, #955, #1086, #324 ) ) ;
#529 = DIRECTION ( 'NONE',  ( -0.000000000000000000, 1.000000000000000000, -0.000000000000000000 ) ) ;
#530 = DIRECTION ( 'NONE',  ( -0.000000000000000000, 1.000000000000000000, -0.000000000000000000 ) ) ;
#531 = EDGE_CURVE ( 'NONE', #811, #246, #377, .T. ) ;
#532 = EDGE_CURVE ( 'NONE', #464, #984, #747, .T. ) ;
#533 = DIRECTION ( 'NONE',  ( 0.000000000000000000, 1.000000000000000000, 0.000000000000000000 ) ) ;
#534 = ORIENTED_EDGE ( 'NONE', *, *, #571, .F. ) ;
#535 = DIRECTION ( 'NONE',  ( 0.000000000000000000, 0.000000000000000000, 1.000000000000000000 ) ) ;
#536 = FACE_OUTER_BOUND ( 'NONE', #133, .T. ) ;
#537 = ORIENTED_EDGE ( 'NONE', *, *, #149, .T. ) ;
#538 = CARTESIAN_POINT ( 'NONE',  ( 128.8800970930501819, 0.000000000000000000, -36.63601181410237473 ) ) ;
#539 = CYLINDRICAL_SURFACE ( 'NONE', #60, 2.549999999999996714 ) ;
#540 = CARTESIAN_POINT ( 'NONE',  ( 154.5200000000002944, 0.000000000000000000, -86.23125000000412399 ) ) ;
#541 = AXIS2_PLACEMENT_3D ( 'NONE', #610, #67, #707 ) ;
#542 = ORIENTED_EDGE ( 'NONE', *, *, #328, .F. ) ;
#543 = VECTOR ( 'NONE', #1069, 1000.000000000000000 ) ;
#544 = AXIS2_PLACEMENT_3D ( 'NONE', #1077, #817, #985 ) ;
#545 = DIRECTION ( 'NONE',  ( -0.000000000000000000, 1.000000000000000000, -0.000000000000000000 ) ) ;
#546 = AXIS2_PLACEMENT_3D ( 'NONE', #683, #874, #341 ) ;
#547 = EDGE_CURVE ( 'NONE', #59, #852, #900, .T. ) ;
#548 = VERTEX_POINT ( 'NONE', #640 ) ;
#549 = FACE_OUTER_BOUND ( 'NONE', #835, .T. ) ;
#550 = CARTESIAN_POINT ( 'NONE',  ( 38.33990290695018643, 0.000000000000000000, -38.73601181410236194 ) ) ;
#551 = ORIENTED_EDGE ( 'NONE', *, *, #531, .T. ) ;
#552 = CYLINDRICAL_SURFACE ( 'NONE', #1118, 2.549999999999996714 ) ;
#553 = EDGE_LOOP ( 'NONE', ( #648, #398, #376, #442 ) ) ;
#554 = CARTESIAN_POINT ( 'NONE',  ( 64.85851181411017308, -6.020000000000000462, -104.8575970930423580 ) ) ;
#555 = CARTESIAN_POINT ( 'NONE',  ( 64.85851181411017308, 0.000000000000000000, -102.7575970930423637 ) ) ;
#556 = VERTEX_POINT ( 'NONE', #1085 ) ;
#557 = DIRECTION ( 'NONE',  ( 0.000000000000000000, 0.000000000000000000, 1.000000000000000000 ) ) ;
#558 = ORIENTED_EDGE ( 'NONE', *, *, #858, .F. ) ;
#559 = DIRECTION ( 'NONE',  ( 0.000000000000000000, -1.000000000000000000, -0.000000000000000000 ) ) ;
#560 = DIRECTION ( 'NONE',  ( 0.000000000000000000, 1.000000000000000000, 0.000000000000000000 ) ) ;
#561 = EDGE_CURVE ( 'NONE', #871, #13, #231, .T. ) ;
#562 = EDGE_LOOP ( 'NONE', ( #187, #897 ) ) ;
#563 = CIRCLE ( 'NONE', #1043, 2.100000000000004530 ) ;
#564 = DIRECTION ( 'NONE',  ( 0.000000000000000000, 1.000000000000000000, 0.000000000000000000 ) ) ;
#565 = MECHANICAL_DESIGN_GEOMETRIC_PRESENTATION_REPRESENTATION (  '', ( #730 ), #822 ) ;
#566 = ORIENTED_EDGE ( 'NONE', *, *, #499, .F. ) ;
#567 = CARTESIAN_POINT ( 'NONE',  ( 102.3614881858901953, -6.020000000000000462, -104.8575970930423580 ) ) ;
#568 = VERTEX_POINT ( 'NONE', #457 ) ;
#569 = EDGE_CURVE ( 'NONE', #350, #437, #814, .T. ) ;
#570 = CARTESIAN_POINT ( 'NONE',  ( 62.70750000000030155, 3.979999999999999982, -127.6750000000040899 ) ) ;
#571 = EDGE_CURVE ( 'NONE', #1103, #421, #789, .T. ) ;
#572 = ORIENTED_EDGE ( 'NONE', *, *, #1089, .F. ) ;
#573 = PLANE ( 'NONE',  #208 ) ;
#574 = DIRECTION ( 'NONE',  ( 0.000000000000000000, 1.000000000000000000, 0.000000000000000000 ) ) ;
#575 = ORIENTED_EDGE ( 'NONE', *, *, #532, .F. ) ;
#576 = DIRECTION ( 'NONE',  ( 0.000000000000000000, 0.000000000000000000, 1.000000000000000000 ) ) ;
#577 = VERTEX_POINT ( 'NONE', #470 ) ;
#578 = FACE_BOUND ( 'NONE', #903, .T. ) ;
#579 = CARTESIAN_POINT ( 'NONE',  ( 64.85851181411017308, 0.000000000000000000, -14.31740290694236784 ) ) ;
#580 = ORIENTED_EDGE ( 'NONE', *, *, #670, .T. ) ;
#581 = CARTESIAN_POINT ( 'NONE',  ( 128.8800970930501819, 3.979999999999999982, -38.73601181410236194 ) ) ;
#582 = CIRCLE ( 'NONE', #767, 2.549999999999996714 ) ;
#583 = CIRCLE ( 'NONE', #355, 2.549999999999996714 ) ;
#584 = ORIENTED_EDGE ( 'NONE', *, *, #149, .F. ) ;
#585 = CARTESIAN_POINT ( 'NONE',  ( 0.000000000000000000, 0.000000000000000000, 0.000000000000000000 ) ) ;
#586 = EDGE_CURVE ( 'NONE', #287, #671, #827, .T. ) ;
#587 = AXIS2_PLACEMENT_3D ( 'NONE', #700, #1052, #704 ) ;
#588 = ORIENTED_EDGE ( 'NONE', *, *, #492, .T. ) ;
#589 = CARTESIAN_POINT ( 'NONE',  ( 128.8800970930501819, -6.020000000000000462, -38.73601181410236194 ) ) ;
#590 = EDGE_LOOP ( 'NONE', ( #1025, #888, #624, #408 ) ) ;
#591 = FACE_OUTER_BOUND ( 'NONE', #232, .T. ) ;
#592 = CARTESIAN_POINT ( 'NONE',  ( -2.775557561562891351E-14, 0.000000000000000000, -140.3375000000000057 ) ) ;
#593 = ORIENTED_EDGE ( 'NONE', *, *, #655, .T. ) ;
#594 = EDGE_LOOP ( 'NONE', ( #222, #8 ) ) ;
#595 = CARTESIAN_POINT ( 'NONE',  ( 154.5200000000002944, 3.979999999999999982, -83.68125000000412683 ) ) ;
#596 = CARTESIAN_POINT ( 'NONE',  ( 104.5125000000003013, 0.000000000000000000, -130.2250000000040870 ) ) ;
#597 = VERTEX_POINT ( 'NONE', #444 ) ;
#598 = EDGE_CURVE ( 'NONE', #765, #287, #802, .T. ) ;
#599 = FACE_OUTER_BOUND ( 'NONE', #719, .T. ) ;
#600 = EDGE_LOOP ( 'NONE', ( #854, #367, #915, #219 ) ) ;
#601 = CYLINDRICAL_SURFACE ( 'NONE', #526, 2.549999999999996714 ) ;
#602 = AXIS2_PLACEMENT_3D ( 'NONE', #172, #784, #83 ) ;
#603 = AXIS2_PLACEMENT_3D ( 'NONE', #242, #882, #88 ) ;
#604 = AXIS2_PLACEMENT_3D ( 'NONE', #869, #1121, #520 ) ;
#605 = LINE ( 'NONE', #516, #446 ) ;
#606 = CIRCLE ( 'NONE', #865, 2.100000000000004530 ) ;
#607 = ORIENTED_EDGE ( 'NONE', *, *, #328, .T. ) ;
#608 = DIRECTION ( 'NONE',  ( -0.000000000000000000, 1.000000000000000000, -0.000000000000000000 ) ) ;
#609 = CARTESIAN_POINT ( 'NONE',  ( 0.000000000000000000, 0.000000000000000000, 0.000000000000000000 ) ) ;
#610 = CARTESIAN_POINT ( 'NONE',  ( 154.5200000000002944, 3.979999999999999982, -86.23125000000412399 ) ) ;
#611 = DIRECTION ( 'NONE',  ( 0.000000000000000000, 0.000000000000000000, 1.000000000000000000 ) ) ;
#612 = CYLINDRICAL_SURFACE ( 'NONE', #323, 2.100000000000004530 ) ;
#613 = ADVANCED_FACE ( 'NONE', ( #591 ), #745, .F. ) ;
#614 = LINE ( 'NONE', #878, #466 ) ;
#615 = CARTESIAN_POINT ( 'NONE',  ( 38.33990290695018643, -6.020000000000000462, -76.23898818588237702 ) ) ;
#616 = DIRECTION ( 'NONE',  ( 0.000000000000000000, 0.000000000000000000, 1.000000000000000000 ) ) ;
#617 = CYLINDRICAL_SURFACE ( 'NONE', #603, 2.549999999999996714 ) ;
#618 = AXIS2_PLACEMENT_3D ( 'NONE', #540, #810, #983 ) ;
#619 = VECTOR ( 'NONE', #951, 1000.000000000000000 ) ;
#620 = DIRECTION ( 'NONE',  ( 0.000000000000000000, 0.000000000000000000, 1.000000000000000000 ) ) ;
#621 = ADVANCED_FACE ( 'NONE', ( #1094 ), #573, .F. ) ;
#622 = CIRCLE ( 'NONE', #490, 2.100000000000004530 ) ;
#623 = CARTESIAN_POINT ( 'NONE',  ( 64.85851181411017308, 3.979999999999999982, -102.7575970930423637 ) ) ;
#624 = ORIENTED_EDGE ( 'NONE', *, *, #330, .F. ) ;
#625 = LINE ( 'NONE', #10, #768 ) ;
#626 = DIRECTION ( 'NONE',  ( -0.000000000000000000, 1.000000000000000000, -0.000000000000000000 ) ) ;
#627 = ORIENTED_EDGE ( 'NONE', *, *, #586, .T. ) ;
#628 = FACE_OUTER_BOUND ( 'NONE', #750, .T. ) ;
#629 = ORIENTED_EDGE ( 'NONE', *, *, #33, .F. ) ;
#630 = DIRECTION ( 'NONE',  ( 0.000000000000000000, 0.000000000000000000, 1.000000000000000000 ) ) ;
#631 = CARTESIAN_POINT ( 'NONE',  ( 128.8800970930501819, 3.979999999999999982, -38.73601181410236194 ) ) ;
#632 = ORIENTED_EDGE ( 'NONE', *, *, #85, .T. ) ;
#633 = EDGE_CURVE ( 'NONE', #240, #834, #35, .T. ) ;
#634 = CYLINDRICAL_SURFACE ( 'NONE', #210, 2.100000000000004530 ) ;
#635 = CARTESIAN_POINT ( 'NONE',  ( 64.85851181411017308, 3.979999999999999982, -102.7575970930423637 ) ) ;
#636 = AXIS2_PLACEMENT_3D ( 'NONE', #491, #237, #1024 ) ;
#637 = ORIENTED_EDGE ( 'NONE', *, *, #884, .F. ) ;
#638 = AXIS2_PLACEMENT_3D ( 'NONE', #906, #175, #535 ) ;
#639 = CYLINDRICAL_SURFACE ( 'NONE', #879, 40.00000000000000711 ) ;
#640 = CARTESIAN_POINT ( 'NONE',  ( 64.85851181411017308, 0.000000000000000000, -10.11740290694235966 ) ) ;
#641 = CYLINDRICAL_SURFACE ( 'NONE', #934, 2.549999999999996714 ) ;
#642 = ORIENTED_EDGE ( 'NONE', *, *, #780, .F. ) ;
#643 = CARTESIAN_POINT ( 'NONE',  ( 38.33990290695018643, -6.020000000000000462, -76.23898818588237702 ) ) ;
#644 = EDGE_LOOP ( 'NONE', ( #534, #558 ) ) ;
#645 = DIRECTION ( 'NONE',  ( -0.000000000000000000, 1.000000000000000000, -0.000000000000000000 ) ) ;
#646 = ADVANCED_FACE ( 'NONE', ( #207 ), #1014, .F. ) ;
#647 = DIRECTION ( 'NONE',  ( -0.000000000000000000, 1.000000000000000000, -0.000000000000000000 ) ) ;
#648 = ORIENTED_EDGE ( 'NONE', *, *, #423, .F. ) ;
#649 = CARTESIAN_POINT ( 'NONE',  ( 12.70000000000029416, 3.979999999999999982, -86.23125000000409557 ) ) ;
#650 = EDGE_LOOP ( 'NONE', ( #829, #949, #326, #459 ) ) ;
#651 = DIRECTION ( 'NONE',  ( -0.000000000000000000, 1.000000000000000000, -0.000000000000000000 ) ) ;
#652 = CARTESIAN_POINT ( 'NONE',  ( 104.5125000000003013, 3.979999999999999982, -130.2250000000040870 ) ) ;
#653 = ADVANCED_FACE ( 'NONE', ( #1113 ), #54, .F. ) ;
#654 = ORIENTED_EDGE ( 'NONE', *, *, #1111, .F. ) ;
#655 = EDGE_CURVE ( 'NONE', #811, #1028, #1081, .T. ) ;
#656 = VECTOR ( 'NONE', #963, 1000.000000000000000 ) ;
#657 = AXIS2_PLACEMENT_3D ( 'NONE', #722, #734, #1074 ) ;
#658 = DIRECTION ( 'NONE',  ( 0.000000000000000000, 0.000000000000000000, 1.000000000000000000 ) ) ;
#659 = VECTOR ( 'NONE', #467, 1000.000000000000000 ) ;
#660 = ORIENTED_EDGE ( 'NONE', *, *, #201, .F. ) ;
#661 = LINE ( 'NONE', #567, #877 ) ;
#662 = AXIS2_PLACEMENT_3D ( 'NONE', #62, #611, #406 ) ;
#663 = ORIENTED_EDGE ( 'NONE', *, *, #178, .F. ) ;
#664 = DIRECTION ( 'NONE',  ( 0.000000000000000000, -1.000000000000000000, -0.000000000000000000 ) ) ;
#665 = EDGE_LOOP ( 'NONE', ( #380, #199, #733, #91 ) ) ;
#666 = FACE_BOUND ( 'NONE', #861, .T. ) ;
#667 = CYLINDRICAL_SURFACE ( 'NONE', #77, 2.549999999999996714 ) ;
#668 = ORIENTED_EDGE ( 'NONE', *, *, #293, .T. ) ;
#669 = CARTESIAN_POINT ( 'NONE',  ( 64.85851181411017308, 3.979999999999999982, -14.31740290694236784 ) ) ;
#670 = EDGE_CURVE ( 'NONE', #776, #369, #583, .T. ) ;
#671 = VERTEX_POINT ( 'NONE', #1107 ) ;
#672 = FACE_BOUND ( 'NONE', #4, .T. ) ;
#673 = DIRECTION ( 'NONE',  ( 0.000000000000000000, -1.000000000000000000, -0.000000000000000000 ) ) ;
#674 = DIRECTION ( 'NONE',  ( 0.000000000000000000, 0.000000000000000000, 1.000000000000000000 ) ) ;
#675 = CARTESIAN_POINT ( 'NONE',  ( 12.70000000000029416, 0.000000000000000000, -83.68125000000409841 ) ) ;
#676 = CIRCLE ( 'NONE', #541, 2.549999999999996714 ) ;
#677 = CIRCLE ( 'NONE', #1136, 2.100000000000004530 ) ;
#678 = ORIENTED_EDGE ( 'NONE', *, *, #135, .F. ) ;
#679 = CARTESIAN_POINT ( 'NONE',  ( 128.8800970930501819, -6.020000000000000462, -38.73601181410236194 ) ) ;
#680 = CIRCLE ( 'NONE', #170, 2.099999999999990763 ) ;
#681 = DIRECTION ( 'NONE',  ( -1.000000000000000000, 0.000000000000000000, -0.000000000000000000 ) ) ;
#682 = ORIENTED_EDGE ( 'NONE', *, *, #70, .T. ) ;
#683 = CARTESIAN_POINT ( 'NONE',  ( 64.85851181411017308, 0.000000000000000000, -12.21740290694236286 ) ) ;
#684 = ORIENTED_EDGE ( 'NONE', *, *, #598, .F. ) ;
#685 = DIRECTION ( 'NONE',  ( 0.000000000000000000, 0.000000000000000000, 1.000000000000000000 ) ) ;
#686 = EDGE_CURVE ( 'NONE', #94, #158, #727, .T. ) ;
#687 = VERTEX_POINT ( 'NONE', #58 ) ;
#688 = VERTEX_POINT ( 'NONE', #404 ) ;
#689 = DIRECTION ( 'NONE',  ( 3.242237058115372486E-16, 0.000000000000000000, 1.000000000000000000 ) ) ;
#690 = CARTESIAN_POINT ( 'NONE',  ( 83.61000000000007049, 3.979999999999999982, -17.48750000000409699 ) ) ;
#691 = EDGE_CURVE ( 'NONE', #53, #405, #661, .T. ) ;
#692 = ORIENTED_EDGE ( 'NONE', *, *, #64, .T. ) ;
#693 = FACE_OUTER_BOUND ( 'NONE', #20, .T. ) ;
#694 = VECTOR ( 'NONE', #7, 1000.000000000000000 ) ;
#695 = CARTESIAN_POINT ( 'NONE',  ( 64.85851181411017308, 0.000000000000000000, -104.8575970930423580 ) ) ;
#696 = AXIS2_PLACEMENT_3D ( 'NONE', #1053, #706, #710 ) ;
#697 = VECTOR ( 'NONE', #956, 1000.000000000000000 ) ;
#698 = CARTESIAN_POINT ( 'NONE',  ( 83.61000000000007049, 0.000000000000000000, -57.48750000000410409 ) ) ;
#699 = EDGE_CURVE ( 'NONE', #464, #369, #919, .T. ) ;
#700 = CARTESIAN_POINT ( 'NONE',  ( 38.33990290695018643, -6.020000000000000462, -38.73601181410236194 ) ) ;
#701 = LINE ( 'NONE', #427, #489 ) ;
#702 = CARTESIAN_POINT ( 'NONE',  ( 38.33990290695018643, 0.000000000000000000, -38.73601181410236194 ) ) ;
#703 = ADVANCED_FACE ( 'NONE', ( #129 ), #763, .F. ) ;
#704 = DIRECTION ( 'NONE',  ( 0.000000000000000000, 0.000000000000000000, 1.000000000000000000 ) ) ;
#705 = ADVANCED_FACE ( 'NONE', ( #836, #845, #48, #1029, #751, #1104, #578, #758, #314, #310, #672, #666, #1023, #228 ), #146, .T. ) ;
#706 = DIRECTION ( 'NONE',  ( 0.000000000000000000, 1.000000000000000000, 0.000000000000000000 ) ) ;
#707 = DIRECTION ( 'NONE',  ( 0.000000000000000000, 0.000000000000000000, 1.000000000000000000 ) ) ;
#708 = DIRECTION ( 'NONE',  ( 0.000000000000000000, 1.000000000000000000, 0.000000000000000000 ) ) ;
#709 = EDGE_LOOP ( 'NONE', ( #335, #654 ) ) ;
#710 = DIRECTION ( 'NONE',  ( 0.000000000000000000, 0.000000000000000000, 1.000000000000000000 ) ) ;
#711 = CIRCLE ( 'NONE', #205, 2.100000000000004530 ) ;
#712 = VECTOR ( 'NONE', #645, 1000.000000000000000 ) ;
#713 = LINE ( 'NONE', #165, #522 ) ;
#714 = ORIENTED_EDGE ( 'NONE', *, *, #1141, .T. ) ;
#715 = DIRECTION ( 'NONE',  ( 0.000000000000000000, 0.000000000000000000, 1.000000000000000000 ) ) ;
#716 = ORIENTED_EDGE ( 'NONE', *, *, #407, .F. ) ;
#717 = FACE_OUTER_BOUND ( 'NONE', #979, .T. ) ;
#718 = EDGE_CURVE ( 'NONE', #548, #868, #426, .T. ) ;
#719 = EDGE_LOOP ( 'NONE', ( #131, #1037, #44, #821 ) ) ;
#720 = DIRECTION ( 'NONE',  ( 0.000000000000000000, 0.000000000000000000, 1.000000000000000000 ) ) ;
#721 = VERTEX_POINT ( 'NONE', #506 ) ;
#722 = CARTESIAN_POINT ( 'NONE',  ( 12.70000000000029416, 0.000000000000000000, -86.23125000000409557 ) ) ;
#723 = ORIENTED_EDGE ( 'NONE', *, *, #547, .F. ) ;
#724 = DIRECTION ( 'NONE',  ( 0.000000000000000000, 0.000000000000000000, -1.000000000000000000 ) ) ;
#725 = CARTESIAN_POINT ( 'NONE',  ( 128.8800970930501819, 3.979999999999999982, -78.33898818588235713 ) ) ;
#726 = LINE ( 'NONE', #820, #1116 ) ;
#727 = CIRCLE ( 'NONE', #304, 40.00000000000000711 ) ;
#728 = VERTEX_POINT ( 'NONE', #1035 ) ;
#729 = AXIS2_PLACEMENT_3D ( 'NONE', #1142, #259, #616 ) ;
#730 = STYLED_ITEM ( 'NONE', ( #113 ), #1051 ) ;
#731 = CARTESIAN_POINT ( 'NONE',  ( 128.8800970930501819, 3.979999999999999982, -76.23898818588237702 ) ) ;
#732 = EDGE_CURVE ( 'NONE', #240, #775, #336, .T. ) ;
#733 = ORIENTED_EDGE ( 'NONE', *, *, #858, .T. ) ;
#734 = DIRECTION ( 'NONE',  ( 0.000000000000000000, 1.000000000000000000, 0.000000000000000000 ) ) ;
#735 = ORIENTED_EDGE ( 'NONE', *, *, #699, .F. ) ;
#736 = EDGE_CURVE ( 'NONE', #461, #577, #22, .T. ) ;
#737 = ORIENTED_EDGE ( 'NONE', *, *, #339, .T. ) ;
#738 = DIRECTION ( 'NONE',  ( 1.621118529057686243E-16, -0.000000000000000000, 1.000000000000000000 ) ) ;
#739 = ADVANCED_FACE ( 'NONE', ( #518 ), #333, .F. ) ;
#740 = PRODUCT ( 'Arm_Base_Plate', 'Arm_Base_Plate', '', ( #325 ) ) ;
#741 = DIRECTION ( 'NONE',  ( -0.000000000000000000, 1.000000000000000000, -0.000000000000000000 ) ) ;
#742 = VERTEX_POINT ( 'NONE', #595 ) ;
#743 = SURFACE_STYLE_USAGE ( .BOTH. , #928 ) ;
#744 = EDGE_LOOP ( 'NONE', ( #295, #225 ) ) ;
#745 = PLANE ( 'NONE',  #283 ) ;
#746 = EDGE_LOOP ( 'NONE', ( #331, #415, #1073, #417 ) ) ;
#747 = CIRCLE ( 'NONE', #657, 2.549999999999996714 ) ;
#748 = DIRECTION ( 'NONE',  ( -0.000000000000000000, 1.000000000000000000, -0.000000000000000000 ) ) ;
#749 = AXIS2_PLACEMENT_3D ( 'NONE', #527, #432, #793 ) ;
#750 = EDGE_LOOP ( 'NONE', ( #584, #17, #551, #818 ) ) ;
#751 = FACE_BOUND ( 'NONE', #1106, .T. ) ;
#752 = PLANE ( 'NONE',  #1060 ) ;
#753 = APPLICATION_CONTEXT ( 'automotive_design' ) ;
#754 = ADVANCED_FACE ( 'NONE', ( #1045 ), #950, .F. ) ;
#755 = ORIENTED_EDGE ( 'NONE', *, *, #387, .T. ) ;
#756 =( LENGTH_UNIT ( ) NAMED_UNIT ( * ) SI_UNIT ( .MILLI., .METRE. ) );
#757 = VERTEX_POINT ( 'NONE', #345 ) ;
#758 = FACE_BOUND ( 'NONE', #839, .T. ) ;
#759 = DIRECTION ( 'NONE',  ( 0.000000000000000000, -1.000000000000000000, -0.000000000000000000 ) ) ;
#760 = ORIENTED_EDGE ( 'NONE', *, *, #221, .T. ) ;
#761 = FACE_OUTER_BOUND ( 'NONE', #504, .T. ) ;
#762 = ORIENTED_EDGE ( 'NONE', *, *, #825, .F. ) ;
#763 = CYLINDRICAL_SURFACE ( 'NONE', #1098, 2.099999999999990763 ) ;
#764 = DIRECTION ( 'NONE',  ( 0.000000000000000000, 0.000000000000000000, 1.000000000000000000 ) ) ;
#765 = VERTEX_POINT ( 'NONE', #254 ) ;
#766 = CYLINDRICAL_SURFACE ( 'NONE', #233, 2.100000000000004530 ) ;
#767 = AXIS2_PLACEMENT_3D ( 'NONE', #119, #1006, #472 ) ;
#768 = VECTOR ( 'NONE', #110, 1000.000000000000000 ) ;
#769 = ORIENTED_EDGE ( 'NONE', *, *, #732, .F. ) ;
#770 = ADVANCED_FACE ( 'NONE', ( #862 ), #601, .F. ) ;
#771 = DIRECTION ( 'NONE',  ( 1.000000000000000000, 0.000000000000000000, 0.000000000000000000 ) ) ;
#772 = AXIS2_PLACEMENT_3D ( 'NONE', #787, #159, #166 ) ;
#773 = CIRCLE ( 'NONE', #511, 2.549999999999996714 ) ;
#774 = FACE_BOUND ( 'NONE', #107, .T. ) ;
#775 = VERTEX_POINT ( 'NONE', #327 ) ;
#776 = VERTEX_POINT ( 'NONE', #1038 ) ;
#777 = CARTESIAN_POINT ( 'NONE',  ( 102.3614881858901953, 3.979999999999999982, -12.21740290694236286 ) ) ;
#778 = ADVANCED_FACE ( 'NONE', ( #693 ), #612, .F. ) ;
#779 = DIRECTION ( 'NONE',  ( 0.000000000000000000, 0.000000000000000000, 1.000000000000000000 ) ) ;
#780 = EDGE_CURVE ( 'NONE', #1117, #421, #965, .T. ) ;
#781 = CARTESIAN_POINT ( 'NONE',  ( 102.3614881858901953, 0.000000000000000000, -14.31740290694236784 ) ) ;
#782 = ORIENTED_EDGE ( 'NONE', *, *, #699, .T. ) ;
#783 = DIRECTION ( 'NONE',  ( -1.000000000000000000, 0.000000000000000000, 3.242237058115372486E-16 ) ) ;
#784 = DIRECTION ( 'NONE',  ( 0.000000000000000000, 1.000000000000000000, 0.000000000000000000 ) ) ;
#785 = DIRECTION ( 'NONE',  ( -0.000000000000000000, 1.000000000000000000, -0.000000000000000000 ) ) ;
#786 = ORIENTED_EDGE ( 'NONE', *, *, #889, .T. ) ;
#787 = CARTESIAN_POINT ( 'NONE',  ( 64.85851181411017308, 0.000000000000000000, -12.21740290694236286 ) ) ;
#788 = VECTOR ( 'NONE', #926, 1000.000000000000000 ) ;
#789 = CIRCLE ( 'NONE', #322, 2.099999999999997868 ) ;
#790 = CIRCLE ( 'NONE', #972, 2.099999999999990763 ) ;
#791 = CARTESIAN_POINT ( 'NONE',  ( 102.3614881858901953, 0.000000000000000000, -102.7575970930423637 ) ) ;
#792 = EDGE_CURVE ( 'NONE', #548, #290, #843, .T. ) ;
#793 = DIRECTION ( 'NONE',  ( 0.000000000000000000, 0.000000000000000000, 1.000000000000000000 ) ) ;
#794 = LINE ( 'NONE', #609, #431 ) ;
#795 = FACE_OUTER_BOUND ( 'NONE', #1004, .T. ) ;
#796 = DIRECTION ( 'NONE',  ( -0.000000000000000000, 1.000000000000000000, -0.000000000000000000 ) ) ;
#797 = CARTESIAN_POINT ( 'NONE',  ( 102.3614881858901953, 3.979999999999999982, -102.7575970930423637 ) ) ;
#798 = LINE ( 'NONE', #524, #19 ) ;
#799 = CARTESIAN_POINT ( 'NONE',  ( 38.33990290695018643, 3.979999999999999982, -38.73601181410236194 ) ) ;
#800 = ADVANCED_FACE ( 'NONE', ( #171 ), #1137, .F. ) ;
#801 = ORIENTED_EDGE ( 'NONE', *, *, #160, .T. ) ;
#802 = LINE ( 'NONE', #502, #954 ) ;
#803 = CIRCLE ( 'NONE', #465, 2.100000000000004530 ) ;
#804 = AXIS2_PLACEMENT_3D ( 'NONE', #855, #651, #938 ) ;
#805 = DIRECTION ( 'NONE',  ( 0.000000000000000000, 0.000000000000000000, -1.000000000000000000 ) ) ;
#806 = AXIS2_PLACEMENT_3D ( 'NONE', #570, #564, #384 ) ;
#807 = EDGE_LOOP ( 'NONE', ( #478, #87, #813, #918 ) ) ;
#808 = DIRECTION ( 'NONE',  ( 0.000000000000000000, 1.000000000000000000, 0.000000000000000000 ) ) ;
#809 = CARTESIAN_POINT ( 'NONE',  ( 62.70750000000030155, 0.000000000000000000, -130.2250000000040870 ) ) ;
#810 = DIRECTION ( 'NONE',  ( -0.000000000000000000, 1.000000000000000000, -0.000000000000000000 ) ) ;
#811 = VERTEX_POINT ( 'NONE', #65 ) ;
#812 = DIRECTION ( 'NONE',  ( 0.000000000000000000, 0.000000000000000000, 1.000000000000000000 ) ) ;
#813 = ORIENTED_EDGE ( 'NONE', *, *, #1111, .T. ) ;
#814 = LINE ( 'NONE', #554, #712 ) ;
#815 = DIRECTION ( 'NONE',  ( 0.000000000000000000, -1.000000000000000000, -0.000000000000000000 ) ) ;
#816 = ORIENTED_EDGE ( 'NONE', *, *, #732, .T. ) ;
#817 = DIRECTION ( 'NONE',  ( 0.000000000000000000, 1.000000000000000000, 0.000000000000000000 ) ) ;
#818 = ORIENTED_EDGE ( 'NONE', *, *, #306, .T. ) ;
#819 = DIRECTION ( 'NONE',  ( 0.000000000000000000, -1.000000000000000000, -0.000000000000000000 ) ) ;
#820 = CARTESIAN_POINT ( 'NONE',  ( 128.8800970930501819, -6.020000000000000462, -78.33898818588235713 ) ) ;
#821 = ORIENTED_EDGE ( 'NONE', *, *, #221, .F. ) ;
#822 =( GEOMETRIC_REPRESENTATION_CONTEXT ( 3 ) GLOBAL_UNCERTAINTY_ASSIGNED_CONTEXT ( ( #1000 ) ) GLOBAL_UNIT_ASSIGNED_CONTEXT ( ( #756, #1092, #1027 ) ) REPRESENTATION_CONTEXT ( 'NONE', 'WORKASPACE' ) );
#823 = EDGE_CURVE ( 'NONE', #688, #556, #509, .T. ) ;
#824 = CARTESIAN_POINT ( 'NONE',  ( 64.85851181411017308, -6.020000000000000462, -102.7575970930423637 ) ) ;
#825 = EDGE_CURVE ( 'NONE', #556, #688, #414, .T. ) ;
#826 = EDGE_LOOP ( 'NONE', ( #15, #447 ) ) ;
#827 = LINE ( 'NONE', #29, #969 ) ;
#828 = CARTESIAN_POINT ( 'NONE',  ( 154.5200000000002944, 0.000000000000000000, -83.68125000000412683 ) ) ;
#829 = ORIENTED_EDGE ( 'NONE', *, *, #993, .T. ) ;
#830 = CARTESIAN_POINT ( 'NONE',  ( 64.85851181411017308, 3.979999999999999982, -100.6575970930423551 ) ) ;
#831 = ORIENTED_EDGE ( 'NONE', *, *, #85, .F. ) ;
#832 = CARTESIAN_POINT ( 'NONE',  ( 83.61000000000007049, 3.979999999999999982, -57.48750000000410409 ) ) ;
#833 = CARTESIAN_POINT ( 'NONE',  ( 0.000000000000000000, 3.979999999999999982, 0.000000000000000000 ) ) ;
#834 = VERTEX_POINT ( 'NONE', #69 ) ;
#835 = EDGE_LOOP ( 'NONE', ( #1109, #786, #363, #1131 ) ) ;
#836 = FACE_BOUND ( 'NONE', #313, .T. ) ;
#837 = EDGE_CURVE ( 'NONE', #1010, #868, #468, .T. ) ;
#838 = FACE_BOUND ( 'NONE', #921, .T. ) ;
#839 = EDGE_LOOP ( 'NONE', ( #867, #663 ) ) ;
#840 = CIRCLE ( 'NONE', #280, 2.099999999999997868 ) ;
#841 = VECTOR ( 'NONE', #194, 1000.000000000000000 ) ;
#842 = DIRECTION ( 'NONE',  ( 0.000000000000000000, 0.000000000000000000, -1.000000000000000000 ) ) ;
#843 = CIRCLE ( 'NONE', #772, 2.100000000000004530 ) ;
#844 = ORIENTED_EDGE ( 'NONE', *, *, #492, .F. ) ;
#845 = FACE_BOUND ( 'NONE', #126, .T. ) ;
#846 = DIRECTION ( 'NONE',  ( 0.000000000000000000, 0.000000000000000000, -1.000000000000000000 ) ) ;
#847 = ORIENTED_EDGE ( 'NONE', *, *, #1100, .T. ) ;
#848 = DIRECTION ( 'NONE',  ( 0.000000000000000000, 1.000000000000000000, 0.000000000000000000 ) ) ;
#849 = ORIENTED_EDGE ( 'NONE', *, *, #1056, .T. ) ;
#850 = CARTESIAN_POINT ( 'NONE',  ( 12.70000000000029416, 3.979999999999999982, -86.23125000000409557 ) ) ;
#851 = FACE_BOUND ( 'NONE', #63, .T. ) ;
#852 = VERTEX_POINT ( 'NONE', #418 ) ;
#853 = EDGE_CURVE ( 'NONE', #852, #148, #356, .T. ) ;
#854 = ORIENTED_EDGE ( 'NONE', *, *, #203, .F. ) ;
#855 = CARTESIAN_POINT ( 'NONE',  ( 64.85851181411017308, -6.020000000000000462, -102.7575970930423637 ) ) ;
#856 = FACE_BOUND ( 'NONE', #709, .T. ) ;
#857 = ORIENTED_EDGE ( 'NONE', *, *, #1096, .T. ) ;
#858 = EDGE_CURVE ( 'NONE', #421, #1103, #285, .T. ) ;
#859 = CIRCLE ( 'NONE', #893, 2.100000000000004530 ) ;
#860 = AXIS2_PLACEMENT_3D ( 'NONE', #1005, #320, #488 ) ;
#861 = EDGE_LOOP ( 'NONE', ( #899, #39 ) ) ;
#862 = FACE_OUTER_BOUND ( 'NONE', #354, .T. ) ;
#863 = EDGE_CURVE ( 'NONE', #378, #1103, #288, .T. ) ;
#864 = AXIS2_PLACEMENT_3D ( 'NONE', #1072, #103, #449 ) ;
#865 = AXIS2_PLACEMENT_3D ( 'NONE', #1041, #150, #1119 ) ;
#866 = CARTESIAN_POINT ( 'NONE',  ( 154.5200000000002944, 0.000000000000000000, -83.68125000000412683 ) ) ;
#867 = ORIENTED_EDGE ( 'NONE', *, *, #1100, .F. ) ;
#868 = VERTEX_POINT ( 'NONE', #179 ) ;
#869 = CARTESIAN_POINT ( 'NONE',  ( 83.61000000000007049, 0.000000000000000000, -57.48750000000410409 ) ) ;
#870 = CARTESIAN_POINT ( 'NONE',  ( 102.3614881858901953, -6.020000000000000462, -102.7575970930423637 ) ) ;
#871 = VERTEX_POINT ( 'NONE', #538 ) ;
#872 = DIRECTION ( 'NONE',  ( 0.000000000000000000, 1.000000000000000000, 0.000000000000000000 ) ) ;
#873 = CARTESIAN_POINT ( 'NONE',  ( 104.5125000000003013, 0.000000000000000000, -125.1250000000040927 ) ) ;
#874 = DIRECTION ( 'NONE',  ( 0.000000000000000000, -1.000000000000000000, -0.000000000000000000 ) ) ;
#875 = AXIS2_PLACEMENT_3D ( 'NONE', #615, #973, #430 ) ;
#876 = CARTESIAN_POINT ( 'NONE',  ( 64.85851181411017308, -6.020000000000000462, -10.11740290694235966 ) ) ;
#877 = VECTOR ( 'NONE', #223, 1000.000000000000000 ) ;
#878 = CARTESIAN_POINT ( 'NONE',  ( 83.61000000000007049, 0.000000000000000000, -97.48750000000411831 ) ) ;
#879 = AXIS2_PLACEMENT_3D ( 'NONE', #276, #281, #185 ) ;
#880 = CARTESIAN_POINT ( 'NONE',  ( 128.8800970930501819, 0.000000000000000000, -38.73601181410236194 ) ) ;
#881 = DIRECTION ( 'NONE',  ( 0.000000000000000000, 1.000000000000000000, 0.000000000000000000 ) ) ;
#882 = DIRECTION ( 'NONE',  ( -0.000000000000000000, 1.000000000000000000, -0.000000000000000000 ) ) ;
#883 = DIRECTION ( 'NONE',  ( 0.000000000000000000, 0.000000000000000000, 1.000000000000000000 ) ) ;
#884 = EDGE_CURVE ( 'NONE', #148, #852, #971, .T. ) ;
#885 = CARTESIAN_POINT ( 'NONE',  ( 83.61000000000007049, 3.979999999999999982, -57.48750000000410409 ) ) ;
#886 = CARTESIAN_POINT ( 'NONE',  ( 154.5200000000002944, 0.000000000000000000, -86.23125000000412399 ) ) ;
#887 = DIRECTION ( 'NONE',  ( 0.000000000000000000, 1.000000000000000000, 0.000000000000000000 ) ) ;
#888 = ORIENTED_EDGE ( 'NONE', *, *, #974, .T. ) ;
#889 = EDGE_CURVE ( 'NONE', #300, #568, #436, .T. ) ;
#890 = CARTESIAN_POINT ( 'NONE',  ( 102.3614881858901953, 3.979999999999999982, -102.7575970930423637 ) ) ;
#891 = EDGE_CURVE ( 'NONE', #757, #405, #251, .T. ) ;
#892 = DIRECTION ( 'NONE',  ( 0.000000000000000000, 0.000000000000000000, 1.000000000000000000 ) ) ;
#893 = AXIS2_PLACEMENT_3D ( 'NONE', #315, #574, #1108 ) ;
#894 = AXIS2_PLACEMENT_3D ( 'NONE', #961, #872, #1126 ) ;
#895 = CARTESIAN_POINT ( 'NONE',  ( 104.5125000000003013, 0.000000000000000000, -127.6750000000040899 ) ) ;
#896 = CIRCLE ( 'NONE', #305, 2.099999999999990763 ) ;
#897 = ORIENTED_EDGE ( 'NONE', *, *, #960, .T. ) ;
#898 = LINE ( 'NONE', #173, #189 ) ;
#899 = ORIENTED_EDGE ( 'NONE', *, *, #407, .T. ) ;
#900 = LINE ( 'NONE', #92, #543 ) ;
#901 = ADVANCED_FACE ( 'NONE', ( #9 ), #552, .F. ) ;
#902 = DIRECTION ( 'NONE',  ( -0.000000000000000000, 1.000000000000000000, -0.000000000000000000 ) ) ;
#903 = EDGE_LOOP ( 'NONE', ( #831, #910 ) ) ;
#904 = DIRECTION ( 'NONE',  ( 0.000000000000000000, 1.000000000000000000, 0.000000000000000000 ) ) ;
#905 = EDGE_LOOP ( 'NONE', ( #1125, #714, #1149, #927 ) ) ;
#906 = CARTESIAN_POINT ( 'NONE',  ( 128.8800970930501819, 3.979999999999999982, -76.23898818588237702 ) ) ;
#907 = EDGE_CURVE ( 'NONE', #158, #94, #1062, .T. ) ;
#908 = ORIENTED_EDGE ( 'NONE', *, *, #946, .F. ) ;
#909 = DIRECTION ( 'NONE',  ( -0.000000000000000000, 1.000000000000000000, -0.000000000000000000 ) ) ;
#910 = ORIENTED_EDGE ( 'NONE', *, *, #482, .F. ) ;
#911 = DIRECTION ( 'NONE',  ( 0.000000000000000000, 1.000000000000000000, 0.000000000000000000 ) ) ;
#912 = CARTESIAN_POINT ( 'NONE',  ( 167.2200000000000273, 0.000000000000000000, 0.000000000000000000 ) ) ;
#913 = AXIS2_PLACEMENT_3D ( 'NONE', #211, #887, #11 ) ;
#914 = CIRCLE ( 'NONE', #186, 2.549999999999996714 ) ;
#915 = ORIENTED_EDGE ( 'NONE', *, *, #50, .T. ) ;
#916 = AXIS2_PLACEMENT_3D ( 'NONE', #649, #140, #296 ) ;
#917 = DIRECTION ( 'NONE',  ( 0.000000000000000000, 0.000000000000000000, -1.000000000000000000 ) ) ;
#918 = ORIENTED_EDGE ( 'NONE', *, *, #123, .F. ) ;
#919 = LINE ( 'NONE', #925, #374 ) ;
#920 = DIRECTION ( 'NONE',  ( 0.000000000000000000, 0.000000000000000000, -1.000000000000000000 ) ) ;
#921 = EDGE_LOOP ( 'NONE', ( #1083, #403 ) ) ;
#922 = CARTESIAN_POINT ( 'NONE',  ( -2.275037215716330366E-14, 3.979999999999999982, -140.3375000000000057 ) ) ;
#923 = ADVANCED_FACE ( 'NONE', ( #357 ), #639, .F. ) ;
#924 = EDGE_LOOP ( 'NONE', ( #174, #762, #244, #316 ) ) ;
#925 = CARTESIAN_POINT ( 'NONE',  ( 12.70000000000029416, 0.000000000000000000, -88.78125000000409273 ) ) ;
#926 = DIRECTION ( 'NONE',  ( -3.242237058115372486E-16, 0.000000000000000000, -1.000000000000000000 ) ) ;
#927 = ORIENTED_EDGE ( 'NONE', *, *, #12, .T. ) ;
#928 = SURFACE_SIDE_STYLE ('',( #127 ) ) ;
#929 = ORIENTED_EDGE ( 'NONE', *, *, #823, .F. ) ;
#930 = DIRECTION ( 'NONE',  ( 0.000000000000000000, 0.000000000000000000, 1.000000000000000000 ) ) ;
#931 = DIRECTION ( 'NONE',  ( 0.000000000000000000, 0.000000000000000000, -1.000000000000000000 ) ) ;
#932 = AXIS2_PLACEMENT_3D ( 'NONE', #698, #530, #434 ) ;
#933 = ORIENTED_EDGE ( 'NONE', *, *, #98, .F. ) ;
#934 = AXIS2_PLACEMENT_3D ( 'NONE', #1070, #902, #989 ) ;
#935 = VECTOR ( 'NONE', #738, 1000.000000000000000 ) ;
#936 = AXIS2_PLACEMENT_3D ( 'NONE', #1055, #1132, #342 ) ;
#937 = VERTEX_POINT ( 'NONE', #90 ) ;
#938 = DIRECTION ( 'NONE',  ( 0.000000000000000000, 0.000000000000000000, 1.000000000000000000 ) ) ;
#939 = DIRECTION ( 'NONE',  ( 0.000000000000000000, 1.000000000000000000, 0.000000000000000000 ) ) ;
#940 = EDGE_CURVE ( 'NONE', #556, #158, #992, .T. ) ;
#941 = EDGE_LOOP ( 'NONE', ( #332, #115 ) ) ;
#942 =( NAMED_UNIT ( * ) SI_UNIT ( $, .STERADIAN. ) SOLID_ANGLE_UNIT ( ) );
#943 = ORIENTED_EDGE ( 'NONE', *, *, #792, .F. ) ;
#944 = DIRECTION ( 'NONE',  ( -0.000000000000000000, 1.000000000000000000, -0.000000000000000000 ) ) ;
#945 = CARTESIAN_POINT ( 'NONE',  ( 62.70750000000030155, 3.979999999999999982, -127.6750000000040899 ) ) ;
#946 = EDGE_CURVE ( 'NONE', #1033, #437, #622, .T. ) ;
#947 = ORIENTED_EDGE ( 'NONE', *, *, #121, .T. ) ;
#948 = ADVANCED_FACE ( 'NONE', ( #108 ), #975, .F. ) ;
#949 = ORIENTED_EDGE ( 'NONE', *, *, #203, .T. ) ;
#950 = CYLINDRICAL_SURFACE ( 'NONE', #936, 2.099999999999997868 ) ;
#951 = DIRECTION ( 'NONE',  ( -0.000000000000000000, 1.000000000000000000, -0.000000000000000000 ) ) ;
#952 = EDGE_LOOP ( 'NONE', ( #847, #163, #588, #425 ) ) ;
#953 =( LENGTH_UNIT ( ) NAMED_UNIT ( * ) SI_UNIT ( .MILLI., .METRE. ) );
#954 = VECTOR ( 'NONE', #134, 1000.000000000000000 ) ;
#955 = ORIENTED_EDGE ( 'NONE', *, *, #360, .F. ) ;
#956 = DIRECTION ( 'NONE',  ( -0.000000000000000000, 1.000000000000000000, -0.000000000000000000 ) ) ;
#957 = CIRCLE ( 'NONE', #916, 2.549999999999996714 ) ;
#958 = CYLINDRICAL_SURFACE ( 'NONE', #1135, 2.100000000000004530 ) ;
#959 = ORIENTED_EDGE ( 'NONE', *, *, #1065, .T. ) ;
#960 = EDGE_CURVE ( 'NONE', #300, #253, #1046, .T. ) ;
#961 = CARTESIAN_POINT ( 'NONE',  ( 62.70750000000030155, 0.000000000000000000, -127.6750000000040899 ) ) ;
#962 = CARTESIAN_POINT ( 'NONE',  ( 102.3614881858901953, 3.979999999999999982, -104.8575970930423580 ) ) ;
#963 = DIRECTION ( 'NONE',  ( -0.000000000000000000, 1.000000000000000000, -0.000000000000000000 ) ) ;
#964 = APPLICATION_PROTOCOL_DEFINITION ( 'draft international standard', 'automotive_design', 1998, #753 ) ;
#965 = LINE ( 'NONE', #257, #697 ) ;
#966 = DIRECTION ( 'NONE',  ( 0.000000000000000000, 0.000000000000000000, -1.000000000000000000 ) ) ;
#967 = AXIS2_PLACEMENT_3D ( 'NONE', #870, #334, #161 ) ;
#968 = DIRECTION ( 'NONE',  ( -0.000000000000000000, 1.000000000000000000, -0.000000000000000000 ) ) ;
#969 = VECTOR ( 'NONE', #381, 1000.000000000000000 ) ;
#970 = DIRECTION ( 'NONE',  ( 1.000000000000000000, 0.000000000000000000, 0.000000000000000000 ) ) ;
#971 = CIRCLE ( 'NONE', #864, 2.100000000000004530 ) ;
#972 = AXIS2_PLACEMENT_3D ( 'NONE', #581, #220, #234 ) ;
#973 = DIRECTION ( 'NONE',  ( -0.000000000000000000, 1.000000000000000000, -0.000000000000000000 ) ) ;
#974 = EDGE_CURVE ( 'NONE', #765, #775, #898, .T. ) ;
#975 = CYLINDRICAL_SURFACE ( 'NONE', #23, 2.099999999999990763 ) ;
#976 = CARTESIAN_POINT ( 'NONE',  ( 104.5125000000003013, 0.000000000000000000, -125.1250000000040927 ) ) ;
#977 = DIRECTION ( 'NONE',  ( -0.000000000000000000, 1.000000000000000000, -0.000000000000000000 ) ) ;
#978 = ADVANCED_FACE ( 'NONE', ( #628 ), #634, .F. ) ;
#979 = EDGE_LOOP ( 'NONE', ( #498, #480, #183, #1146 ) ) ;
#980 = EDGE_CURVE ( 'NONE', #495, #937, #264, .T. ) ;
#981 = DIRECTION ( 'NONE',  ( 0.000000000000000000, 1.000000000000000000, 0.000000000000000000 ) ) ;
#982 = CARTESIAN_POINT ( 'NONE',  ( 102.3614881858901953, -6.020000000000000462, -12.21740290694236286 ) ) ;
#983 = DIRECTION ( 'NONE',  ( 0.000000000000000000, 0.000000000000000000, 1.000000000000000000 ) ) ;
#984 = VERTEX_POINT ( 'NONE', #14 ) ;
#985 = DIRECTION ( 'NONE',  ( 0.000000000000000000, 0.000000000000000000, 1.000000000000000000 ) ) ;
#986 = VERTEX_POINT ( 'NONE', #375 ) ;
#987 = DIRECTION ( 'NONE',  ( 0.000000000000000000, 0.000000000000000000, -1.000000000000000000 ) ) ;
#988 = CIRCLE ( 'NONE', #636, 2.549999999999996714 ) ;
#989 = DIRECTION ( 'NONE',  ( 0.000000000000000000, 0.000000000000000000, 1.000000000000000000 ) ) ;
#990 = CIRCLE ( 'NONE', #1011, 2.099999999999990763 ) ;
#991 = ORIENTED_EDGE ( 'NONE', *, *, #1040, .T. ) ;
#992 = LINE ( 'NONE', #192, #156 ) ;
#993 = EDGE_CURVE ( 'NONE', #505, #385, #990, .T. ) ;
#994 = DIRECTION ( 'NONE',  ( 0.000000000000000000, 1.000000000000000000, 0.000000000000000000 ) ) ;
#995 = LINE ( 'NONE', #361, #301 ) ;
#996 = ORIENTED_EDGE ( 'NONE', *, *, #458, .T. ) ;
#997 = DIRECTION ( 'NONE',  ( -0.000000000000000000, 1.000000000000000000, -0.000000000000000000 ) ) ;
#998 = ORIENTED_EDGE ( 'NONE', *, *, #12, .F. ) ;
#999 = CARTESIAN_POINT ( 'NONE',  ( 38.33990290695018643, 3.979999999999999982, -38.73601181410236194 ) ) ;
#1000 = UNCERTAINTY_MEASURE_WITH_UNIT (LENGTH_MEASURE( 1.000000000000000082E-05 ), #756, 'distance_accuracy_value', 'NONE');
#1001 = FACE_OUTER_BOUND ( 'NONE', #109, .T. ) ;
#1002 = ORIENTED_EDGE ( 'NONE', *, *, #940, .F. ) ;
#1003 = LINE ( 'NONE', #922, #450 ) ;
#1004 = EDGE_LOOP ( 'NONE', ( #593, #537, #692, #112 ) ) ;
#1005 = CARTESIAN_POINT ( 'NONE',  ( 38.33990290695018643, 0.000000000000000000, -76.23898818588237702 ) ) ;
#1006 = DIRECTION ( 'NONE',  ( 0.000000000000000000, 1.000000000000000000, 0.000000000000000000 ) ) ;
#1007 = AXIS2_PLACEMENT_3D ( 'NONE', #1133, #249, #620 ) ;
#1008 = VECTOR ( 'NONE', #99, 1000.000000000000000 ) ;
#1009 = EDGE_CURVE ( 'NONE', #510, #986, #680, .T. ) ;
#1010 = VERTEX_POINT ( 'NONE', #669 ) ;
#1011 = AXIS2_PLACEMENT_3D ( 'NONE', #368, #198, #724 ) ;
#1012 = LINE ( 'NONE', #494, #82 ) ;
#1013 = ORIENTED_EDGE ( 'NONE', *, *, #792, .T. ) ;
#1014 = CYLINDRICAL_SURFACE ( 'NONE', #97, 2.100000000000004530 ) ;
#1015 = ORIENTED_EDGE ( 'NONE', *, *, #863, .T. ) ;
#1016 = ORIENTED_EDGE ( 'NONE', *, *, #1065, .F. ) ;
#1017 = DIRECTION ( 'NONE',  ( 1.000000000000000000, 0.000000000000000000, -1.621118529057686243E-16 ) ) ;
#1018 = PLANE ( 'NONE',  #184 ) ;
#1019 = ORIENTED_EDGE ( 'NONE', *, *, #243, .F. ) ;
#1020 = CARTESIAN_POINT ( 'NONE',  ( 128.8800970930501819, -6.020000000000000462, -76.23898818588237702 ) ) ;
#1021 = EDGE_LOOP ( 'NONE', ( #68, #637 ) ) ;
#1022 = ADVANCED_FACE ( 'NONE', ( #122 ), #474, .F. ) ;
#1023 = FACE_BOUND ( 'NONE', #202, .T. ) ;
#1024 = DIRECTION ( 'NONE',  ( 0.000000000000000000, 0.000000000000000000, 1.000000000000000000 ) ) ;
#1025 = ORIENTED_EDGE ( 'NONE', *, *, #360, .T. ) ;
#1026 = VECTOR ( 'NONE', #796, 1000.000000000000000 ) ;
#1027 =( NAMED_UNIT ( * ) SI_UNIT ( $, .STERADIAN. ) SOLID_ANGLE_UNIT ( ) );
#1028 = VERTEX_POINT ( 'NONE', #317 ) ;
#1029 = FACE_BOUND ( 'NONE', #213, .T. ) ;
#1030 = EDGE_CURVE ( 'NONE', #385, #505, #896, .T. ) ;
#1031 = CARTESIAN_POINT ( 'NONE',  ( 154.5200000000002944, 0.000000000000000000, -88.78125000000410694 ) ) ;
#1032 = EDGE_CURVE ( 'NONE', #984, #776, #204, .T. ) ;
#1033 = VERTEX_POINT ( 'NONE', #830 ) ;
#1034 = ORIENTED_EDGE ( 'NONE', *, *, #718, .F. ) ;
#1035 = CARTESIAN_POINT ( 'NONE',  ( 62.70750000000030155, 3.979999999999999982, -130.2250000000040870 ) ) ;
#1036 = ORIENTED_EDGE ( 'NONE', *, *, #268, .T. ) ;
#1037 = ORIENTED_EDGE ( 'NONE', *, *, #201, .T. ) ;
#1038 = CARTESIAN_POINT ( 'NONE',  ( 12.70000000000029416, 3.979999999999999982, -83.68125000000409841 ) ) ;
#1039 = LINE ( 'NONE', #439, #353 ) ;
#1040 = EDGE_CURVE ( 'NONE', #687, #728, #394, .T. ) ;
#1041 = CARTESIAN_POINT ( 'NONE',  ( 38.33990290695018643, 0.000000000000000000, -76.23898818588237702 ) ) ;
#1042 = CLOSED_SHELL ( 'NONE', ( #27, #754, #778, #1128, #1144, #948, #157, #1063, #923, #770, #282, #167, #525, #621, #319, #739, #349, #705, #238, #256, #901, #410, #84, #613, #653, #111, #1022, #703, #497, #646, #800, #978 ) ) ;
#1043 = AXIS2_PLACEMENT_3D ( 'NONE', #359, #278, #987 ) ;
#1044 = ORIENTED_EDGE ( 'NONE', *, *, #1076, .T. ) ;
#1045 = FACE_OUTER_BOUND ( 'NONE', #665, .T. ) ;
#1046 = CIRCLE ( 'NONE', #544, 2.549999999999996714 ) ;
#1047 = CIRCLE ( 'NONE', #546, 2.100000000000004530 ) ;
#1048 = CARTESIAN_POINT ( 'NONE',  ( 128.8800970930501819, 0.000000000000000000, -78.33898818588235713 ) ) ;
#1049 = FACE_OUTER_BOUND ( 'NONE', #746, .T. ) ;
#1050 = SHAPE_DEFINITION_REPRESENTATION ( #209, #1115 ) ;
#1051 = MANIFOLD_SOLID_BREP ( 'Cut-Extrude4', #1042 ) ;
#1052 = DIRECTION ( 'NONE',  ( -0.000000000000000000, 1.000000000000000000, -0.000000000000000000 ) ) ;
#1053 = CARTESIAN_POINT ( 'NONE',  ( 62.70750000000030155, 0.000000000000000000, -127.6750000000040899 ) ) ;
#1054 = CYLINDRICAL_SURFACE ( 'NONE', #875, 2.100000000000004530 ) ;
#1055 = CARTESIAN_POINT ( 'NONE',  ( 38.33990290695018643, -6.020000000000000462, -38.73601181410236194 ) ) ;
#1056 = EDGE_CURVE ( 'NONE', #597, #193, #790, .T. ) ;
#1057 = DIRECTION ( 'NONE',  ( 0.000000000000000000, 0.000000000000000000, -1.000000000000000000 ) ) ;
#1058 = AXIS2_PLACEMENT_3D ( 'NONE', #51, #400, #674 ) ;
#1059 = DIRECTION ( 'NONE',  ( -0.000000000000000000, 1.000000000000000000, -0.000000000000000000 ) ) ;
#1060 = AXIS2_PLACEMENT_3D ( 'NONE', #311, #224, #846 ) ;
#1061 = CARTESIAN_POINT ( 'NONE',  ( 104.5125000000003013, 3.979999999999999982, -127.6750000000040899 ) ) ;
#1062 = CIRCLE ( 'NONE', #45, 40.00000000000000711 ) ;
#1063 = ADVANCED_FACE ( 'NONE', ( #1110 ), #308, .F. ) ;
#1064 = CARTESIAN_POINT ( 'NONE',  ( 102.3614881858901953, 3.979999999999999982, -14.31740290694236784 ) ) ;
#1065 = EDGE_CURVE ( 'NONE', #577, #687, #1102, .T. ) ;
#1066 = EDGE_LOOP ( 'NONE', ( #512, #996, #737, #1016 ) ) ;
#1067 = CARTESIAN_POINT ( 'NONE',  ( 104.5125000000003013, 0.000000000000000000, -127.6750000000040899 ) ) ;
#1068 = EDGE_LOOP ( 'NONE', ( #475, #769, #312, #302 ) ) ;
#1069 = DIRECTION ( 'NONE',  ( -0.000000000000000000, 1.000000000000000000, -0.000000000000000000 ) ) ;
#1070 = CARTESIAN_POINT ( 'NONE',  ( 104.5125000000003013, 0.000000000000000000, -127.6750000000040899 ) ) ;
#1071 = EDGE_LOOP ( 'NONE', ( #144, #279 ) ) ;
#1072 = CARTESIAN_POINT ( 'NONE',  ( 102.3614881858901953, 3.979999999999999982, -12.21740290694236286 ) ) ;
#1073 = ORIENTED_EDGE ( 'NONE', *, *, #36, .T. ) ;
#1074 = DIRECTION ( 'NONE',  ( 0.000000000000000000, 0.000000000000000000, 1.000000000000000000 ) ) ;
#1075 = ORIENTED_EDGE ( 'NONE', *, *, #339, .F. ) ;
#1076 = EDGE_CURVE ( 'NONE', #369, #776, #957, .T. ) ;
#1077 = CARTESIAN_POINT ( 'NONE',  ( 154.5200000000002944, 0.000000000000000000, -86.23125000000412399 ) ) ;
#1078 = AXIS2_PLACEMENT_3D ( 'NONE', #791, #1148, #347 ) ;
#1079 = ORIENTED_EDGE ( 'NONE', *, *, #1032, .T. ) ;
#1080 = CARTESIAN_POINT ( 'NONE',  ( 38.33990290695018643, -6.020000000000000462, -74.13898818588236850 ) ) ;
#1081 = CIRCLE ( 'NONE', #860, 2.100000000000004530 ) ;
#1082 = AXIS2_PLACEMENT_3D ( 'NONE', #1067, #981, #812 ) ;
#1083 = ORIENTED_EDGE ( 'NONE', *, *, #670, .F. ) ;
#1084 = DIRECTION ( 'NONE',  ( 0.000000000000000000, 1.000000000000000000, 0.000000000000000000 ) ) ;
#1085 = CARTESIAN_POINT ( 'NONE',  ( 83.61000000000007049, 0.000000000000000000, -17.48750000000409699 ) ) ;
#1086 = ORIENTED_EDGE ( 'NONE', *, *, #387, .F. ) ;
#1087 = EDGE_LOOP ( 'NONE', ( #735, #542, #1079, #580 ) ) ;
#1088 = CARTESIAN_POINT ( 'NONE',  ( 0.000000000000000000, 3.979999999999999982, 0.000000000000000000 ) ) ;
#1089 = EDGE_CURVE ( 'NONE', #834, #124, #1012, .T. ) ;
#1090 = DIRECTION ( 'NONE',  ( 0.000000000000000000, 0.000000000000000000, 1.000000000000000000 ) ) ;
#1091 = EDGE_LOOP ( 'NONE', ( #26, #716, #959, #991 ) ) ;
#1092 =( NAMED_UNIT ( * ) PLANE_ANGLE_UNIT ( ) SI_UNIT ( $, .RADIAN. ) );
#1093 = ORIENTED_EDGE ( 'NONE', *, *, #884, .T. ) ;
#1094 = FACE_OUTER_BOUND ( 'NONE', #297, .T. ) ;
#1095 = DIRECTION ( 'NONE',  ( 0.000000000000000000, 0.000000000000000000, 1.000000000000000000 ) ) ;
#1096 = EDGE_CURVE ( 'NONE', #240, #287, #1003, .T. ) ;
#1097 = CIRCLE ( 'NONE', #390, 2.099999999999990763 ) ;
#1098 = AXIS2_PLACEMENT_3D ( 'NONE', #679, #40, #481 ) ;
#1099 = ORIENTED_EDGE ( 'NONE', *, *, #532, .T. ) ;
#1100 = EDGE_CURVE ( 'NONE', #197, #350, #1101, .T. ) ;
#1101 = CIRCLE ( 'NONE', #471, 2.100000000000004530 ) ;
#1102 = LINE ( 'NONE', #379, #252 ) ;
#1103 = VERTEX_POINT ( 'NONE', #46 ) ;
#1104 = FACE_BOUND ( 'NONE', #1071, .T. ) ;
#1105 = ORIENTED_EDGE ( 'NONE', *, *, #306, .F. ) ;
#1106 = EDGE_LOOP ( 'NONE', ( #102, #678 ) ) ;
#1107 = CARTESIAN_POINT ( 'NONE',  ( 0.000000000000000000, 0.000000000000000000, 0.000000000000000000 ) ) ;
#1108 = DIRECTION ( 'NONE',  ( 0.000000000000000000, 0.000000000000000000, 1.000000000000000000 ) ) ;
#1109 = ORIENTED_EDGE ( 'NONE', *, *, #960, .F. ) ;
#1110 = FACE_OUTER_BOUND ( 'NONE', #952, .T. ) ;
#1111 = EDGE_CURVE ( 'NONE', #216, #456, #773, .T. ) ;
#1112 = ORIENTED_EDGE ( 'NONE', *, *, #691, .T. ) ;
#1113 = FACE_OUTER_BOUND ( 'NONE', #269, .T. ) ;
#1114 = CARTESIAN_POINT ( 'NONE',  ( 102.3614881858901953, 0.000000000000000000, -12.21740290694236286 ) ) ;
#1115 = ADVANCED_BREP_SHAPE_REPRESENTATION ( 'Arm_Base_Plate', ( #1051, #662 ), #358 ) ;
#1116 = VECTOR ( 'NONE', #93, 1000.000000000000000 ) ;
#1117 = VERTEX_POINT ( 'NONE', #402 ) ;
#1118 = AXIS2_PLACEMENT_3D ( 'NONE', #270, #1059, #720 ) ;
#1119 = DIRECTION ( 'NONE',  ( 0.000000000000000000, 0.000000000000000000, -1.000000000000000000 ) ) ;
#1120 = ORIENTED_EDGE ( 'NONE', *, *, #655, .F. ) ;
#1121 = DIRECTION ( 'NONE',  ( 0.000000000000000000, 1.000000000000000000, 0.000000000000000000 ) ) ;
#1122 = DIRECTION ( 'NONE',  ( -0.000000000000000000, 1.000000000000000000, -0.000000000000000000 ) ) ;
#1123 = EDGE_LOOP ( 'NONE', ( #1105, #271 ) ) ;
#1124 = APPLICATION_PROTOCOL_DEFINITION ( 'draft international standard', 'automotive_design', 1998, #74 ) ;
#1125 = ORIENTED_EDGE ( 'NONE', *, *, #160, .F. ) ;
#1126 = DIRECTION ( 'NONE',  ( 0.000000000000000000, 0.000000000000000000, 1.000000000000000000 ) ) ;
#1127 = LINE ( 'NONE', #596, #619 ) ;
#1128 = ADVANCED_FACE ( 'NONE', ( #761 ), #766, .F. ) ;
#1129 = CYLINDRICAL_SURFACE ( 'NONE', #967, 2.100000000000004530 ) ;
#1130 = DIRECTION ( 'NONE',  ( 0.000000000000000000, 0.000000000000000000, 1.000000000000000000 ) ) ;
#1131 = ORIENTED_EDGE ( 'NONE', *, *, #435, .F. ) ;
#1132 = DIRECTION ( 'NONE',  ( -0.000000000000000000, 1.000000000000000000, -0.000000000000000000 ) ) ;
#1133 = CARTESIAN_POINT ( 'NONE',  ( 38.33990290695018643, 3.979999999999999982, -76.23898818588237702 ) ) ;
#1134 = CARTESIAN_POINT ( 'NONE',  ( 102.3614881858901953, -6.020000000000000462, -12.21740290694236286 ) ) ;
#1135 = AXIS2_PLACEMENT_3D ( 'NONE', #258, #76, #883 ) ;
#1136 = AXIS2_PLACEMENT_3D ( 'NONE', #200, #819, #272 ) ;
#1137 = CYLINDRICAL_SURFACE ( 'NONE', #587, 2.099999999999997868 ) ;
#1138 = COLOUR_RGB ( '',0.7921568627450980005, 0.8196078431372548767, 0.9333333333333333481 ) ;
#1139 = DIRECTION ( 'NONE',  ( -0.000000000000000000, 1.000000000000000000, -0.000000000000000000 ) ) ;
#1140 = FACE_OUTER_BOUND ( 'NONE', #924, .T. ) ;
#1141 = EDGE_CURVE ( 'NONE', #290, #548, #1047, .T. ) ;
#1142 = CARTESIAN_POINT ( 'NONE',  ( 64.85851181411017308, 3.979999999999999982, -12.21740290694236286 ) ) ;
#1143 = CARTESIAN_POINT ( 'NONE',  ( 102.3614881858901953, 0.000000000000000000, -100.6575970930423551 ) ) ;
#1144 = ADVANCED_FACE ( 'NONE', ( #599 ), #344, .F. ) ;
#1145 = DIRECTION ( 'NONE',  ( 0.000000000000000000, 0.000000000000000000, 1.000000000000000000 ) ) ;
#1146 = ORIENTED_EDGE ( 'NONE', *, *, #853, .T. ) ;
#1147 = EDGE_CURVE ( 'NONE', #1028, #811, #606, .T. ) ;
#1148 = DIRECTION ( 'NONE',  ( 0.000000000000000000, -1.000000000000000000, -0.000000000000000000 ) ) ;
#1149 = ORIENTED_EDGE ( 'NONE', *, *, #718, .T. ) ;
ENDSEC;
END-ISO-10303-21;
