ISO-10303-21;
HEADER;
FILE_DESCRIPTION (( 'STEP AP214' ),
    '1' );
FILE_NAME ('Chassis_Top_Panel.STEP',
    '2026-07-12T06:24:18',
    ( '' ),
    ( '' ),
    'SwSTEP 2.0',
    'SolidWorks 2025',
    '' );
FILE_SCHEMA (( 'AUTOMOTIVE_DESIGN' ));
ENDSEC;

DATA;
#1 = DIRECTION ( 'NONE',  ( 0.000000000000000000, 0.000000000000000000, -1.000000000000000000 ) ) ;
#2 = CARTESIAN_POINT ( 'NONE',  ( -204.7749200000061478, 2.000000000000000000, -94.39899999999856561 ) ) ;
#3 = VERTEX_POINT ( 'NONE', #784 ) ;
#4 = CARTESIAN_POINT ( 'NONE',  ( -204.7749200000061478, 2.000000000000000000, -94.39899999999856561 ) ) ;
#5 = AXIS2_PLACEMENT_3D ( 'NONE', #896, #151, #974 ) ;
#6 = ORIENTED_EDGE ( 'NONE', *, *, #879, .F. ) ;
#7 = VECTOR ( 'NONE', #937, 1000.000000000000000 ) ;
#8 = EDGE_CURVE ( 'NONE', #1030, #142, #117, .T. ) ;
#9 = DIRECTION ( 'NONE',  ( -1.000000000000000000, 0.000000000000000000, -2.023185466287188356E-15 ) ) ;
#10 = CYLINDRICAL_SURFACE ( 'NONE', #729, 2.599999999999991207 ) ;
#11 = VERTEX_POINT ( 'NONE', #610 ) ;
#12 = CARTESIAN_POINT ( 'NONE',  ( -204.7749200000058352, 2.000000000000000000, 92.89900000000028513 ) ) ;
#13 = CARTESIAN_POINT ( 'NONE',  ( 195.0605339059306118, 2.000000000000000000, -111.2080339059314014 ) ) ;
#14 = ORIENTED_EDGE ( 'NONE', *, *, #924, .F. ) ;
#15 = EDGE_LOOP ( 'NONE', ( #630, #98, #735, #581 ) ) ;
#16 = ORIENTED_EDGE ( 'NONE', *, *, #733, .T. ) ;
#17 = PLANE ( 'NONE',  #637 ) ;
#18 = DIRECTION ( 'NONE',  ( 0.000000000000000000, 0.000000000000000000, 1.000000000000000000 ) ) ;
#19 = EDGE_LOOP ( 'NONE', ( #752, #162 ) ) ;
#20 = EDGE_CURVE ( 'NONE', #400, #213, #514, .T. ) ;
#21 = CARTESIAN_POINT ( 'NONE',  ( 215.0605339059305834, 2.000000000000000000, -156.1499999999993236 ) ) ;
#22 = EDGE_LOOP ( 'NONE', ( #172, #385, #903, #594 ) ) ;
#23 = ORIENTED_EDGE ( 'NONE', *, *, #733, .F. ) ;
#24 = CARTESIAN_POINT ( 'NONE',  ( 204.7749200000058636, 0.000000000000000000, 92.89900000000029934 ) ) ;
#25 = CYLINDRICAL_SURFACE ( 'NONE', #880, 2.599999999999727418 ) ;
#26 = EDGE_CURVE ( 'NONE', #757, #787, #712, .T. ) ;
#27 = CARTESIAN_POINT ( 'NONE',  ( 204.7749200000058636, 2.000000000000000000, 92.89900000000029934 ) ) ;
#28 = ORIENTED_EDGE ( 'NONE', *, *, #977, .T. ) ;
#29 = AXIS2_PLACEMENT_3D ( 'NONE', #296, #629, #850 ) ;
#30 = CARTESIAN_POINT ( 'NONE',  ( -215.7650000000020611, 2.000000000000000000, -153.6499999999999488 ) ) ;
#31 = DIRECTION ( 'NONE',  ( 0.000000000000000000, 1.000000000000000000, -0.000000000000000000 ) ) ;
#32 = AXIS2_PLACEMENT_3D ( 'NONE', #512, #1010, #1094 ) ;
#33 = EDGE_LOOP ( 'NONE', ( #1012, #893, #873, #186 ) ) ;
#34 = DIRECTION ( 'NONE',  ( -0.000000000000000000, -1.000000000000000000, -0.000000000000000000 ) ) ;
#35 = DIRECTION ( 'NONE',  ( 0.000000000000000000, 0.000000000000000000, 1.000000000000000000 ) ) ;
#36 = ORIENTED_EDGE ( 'NONE', *, *, #955, .T. ) ;
#37 = DIRECTION ( 'NONE',  ( -0.000000000000000000, -0.000000000000000000, -1.000000000000000000 ) ) ;
#38 = DIRECTION ( 'NONE',  ( 0.000000000000000000, 1.000000000000000000, 0.000000000000000000 ) ) ;
#39 = CARTESIAN_POINT ( 'NONE',  ( 175.0605339059306402, 2.000000000000000000, -153.6499999999993804 ) ) ;
#40 = ADVANCED_FACE ( 'NONE', ( #202 ), #529, .F. ) ;
#41 = DIRECTION ( 'NONE',  ( 0.000000000000000000, 0.000000000000000000, 1.000000000000000000 ) ) ;
#42 = DIRECTION ( 'NONE',  ( -1.443723048927382240E-15, 0.000000000000000000, 1.000000000000000000 ) ) ;
#43 = DIRECTION ( 'NONE',  ( 0.000000000000000000, 1.000000000000000000, -0.000000000000000000 ) ) ;
#44 = ORIENTED_EDGE ( 'NONE', *, *, #1064, .F. ) ;
#45 = AXIS2_PLACEMENT_3D ( 'NONE', #681, #103, #114 ) ;
#46 = EDGE_CURVE ( 'NONE', #127, #476, #872, .T. ) ;
#47 = PRODUCT_DEFINITION_FORMATION_WITH_SPECIFIED_SOURCE ( 'ANY', '', #999, .NOT_KNOWN. ) ;
#48 = VECTOR ( 'NONE', #253, 1000.000000000000000 ) ;
#49 = CARTESIAN_POINT ( 'NONE',  ( -223.0000000000000000, 2.000000000000000000, -156.1499999999999488 ) ) ;
#50 = CIRCLE ( 'NONE', #233, 2.599999999999991207 ) ;
#51 = CIRCLE ( 'NONE', #675, 2.500000000000002220 ) ;
#52 = ORIENTED_EDGE ( 'NONE', *, *, #469, .F. ) ;
#53 = CARTESIAN_POINT ( 'NONE',  ( 223.0000000000000000, 2.000000000000000000, -153.1500000000000057 ) ) ;
#54 = PLANE ( 'NONE',  #751 ) ;
#55 = FACE_BOUND ( 'NONE', #661, .T. ) ;
#56 = LINE ( 'NONE', #901, #968 ) ;
#57 = EDGE_LOOP ( 'NONE', ( #406, #464, #1016, #69 ) ) ;
#58 = EDGE_CURVE ( 'NONE', #441, #146, #686, .T. ) ;
#59 = ORIENTED_EDGE ( 'NONE', *, *, #839, .T. ) ;
#60 = EDGE_CURVE ( 'NONE', #106, #400, #1062, .T. ) ;
#61 = ORIENTED_EDGE ( 'NONE', *, *, #91, .T. ) ;
#62 = FACE_OUTER_BOUND ( 'NONE', #208, .T. ) ;
#63 = DIRECTION ( 'NONE',  ( 0.000000000000000000, 0.000000000000000000, 1.000000000000000000 ) ) ;
#64 = ORIENTED_EDGE ( 'NONE', *, *, #60, .T. ) ;
#65 = EDGE_LOOP ( 'NONE', ( #921, #534, #533, #111 ) ) ;
#66 = VECTOR ( 'NONE', #1043, 1000.000000000000000 ) ;
#67 = CARTESIAN_POINT ( 'NONE',  ( 223.0000000000000568, 0.000000000000000000, 153.1499999999999773 ) ) ;
#68 = AXIS2_PLACEMENT_3D ( 'NONE', #67, #417, #632 ) ;
#69 = ORIENTED_EDGE ( 'NONE', *, *, #557, .F. ) ;
#70 = EDGE_CURVE ( 'NONE', #127, #1023, #604, .T. ) ;
#71 = CARTESIAN_POINT ( 'NONE',  ( 204.7749200000058920, 2.000000000000000000, -94.39899999999862246 ) ) ;
#72 = DIRECTION ( 'NONE',  ( -0.000000000000000000, 0.000000000000000000, 1.000000000000000000 ) ) ;
#73 = EDGE_LOOP ( 'NONE', ( #942, #36 ) ) ;
#74 = CYLINDRICAL_SURFACE ( 'NONE', #181, 2.599999999999991207 ) ;
#75 = CARTESIAN_POINT ( 'NONE',  ( -213.2650000000020611, 0.000000000000000000, -153.6499999999999488 ) ) ;
#76 = DIRECTION ( 'NONE',  ( -0.000000000000000000, 1.000000000000000000, -0.000000000000000000 ) ) ;
#77 = ADVANCED_FACE ( 'NONE', ( #797 ), #965, .F. ) ;
#78 = DIRECTION ( 'NONE',  ( -0.000000000000000000, 1.000000000000000000, -0.000000000000000000 ) ) ;
#79 = EDGE_LOOP ( 'NONE', ( #354, #413, #61, #824 ) ) ;
#80 = FACE_OUTER_BOUND ( 'NONE', #854, .T. ) ;
#81 = DIRECTION ( 'NONE',  ( 2.023185466287188356E-15, 0.000000000000000000, -1.000000000000000000 ) ) ;
#82 = EDGE_CURVE ( 'NONE', #584, #1081, #215, .T. ) ;
#83 = DIRECTION ( 'NONE',  ( 0.000000000000000000, 0.000000000000000000, 1.000000000000000000 ) ) ;
#84 = DIRECTION ( 'NONE',  ( 0.000000000000000000, 1.000000000000000000, -0.000000000000000000 ) ) ;
#85 = VERTEX_POINT ( 'NONE', #193 ) ;
#86 = DIRECTION ( 'NONE',  ( 1.000000000000000000, 0.000000000000000000, 0.000000000000000000 ) ) ;
#87 = AXIS2_PLACEMENT_3D ( 'NONE', #39, #235, #563 ) ;
#88 = DIRECTION ( 'NONE',  ( -0.000000000000000000, -1.000000000000000000, -0.000000000000000000 ) ) ;
#89 = ORIENTED_EDGE ( 'NONE', *, *, #1085, .T. ) ;
#90 = EDGE_LOOP ( 'NONE', ( #846, #779, #1033, #688 ) ) ;
#91 = EDGE_CURVE ( 'NONE', #460, #815, #609, .T. ) ;
#92 = CARTESIAN_POINT ( 'NONE',  ( -213.2650000000021180, 0.000000000000000000, -128.7124999999984141 ) ) ;
#93 = PLANE ( 'NONE',  #1031 ) ;
#94 = CARTESIAN_POINT ( 'NONE',  ( -198.5650000000021009, 0.000000000000000000, -128.7124999999984141 ) ) ;
#95 = ORIENTED_EDGE ( 'NONE', *, *, #469, .T. ) ;
#96 = ADVANCED_FACE ( 'NONE', ( #1047 ), #17, .F. ) ;
#97 = LINE ( 'NONE', #1089, #671 ) ;
#98 = ORIENTED_EDGE ( 'NONE', *, *, #810, .F. ) ;
#99 = VECTOR ( 'NONE', #317, 1000.000000000000000 ) ;
#100 = PRODUCT_RELATED_PRODUCT_CATEGORY ( 'part', '', ( #999 ) ) ;
#101 = AXIS2_PLACEMENT_3D ( 'NONE', #423, #595, #180 ) ;
#102 = AXIS2_PLACEMENT_3D ( 'NONE', #370, #515, #83 ) ;
#103 = DIRECTION ( 'NONE',  ( 0.000000000000000000, 1.000000000000000000, -0.000000000000000000 ) ) ;
#104 = EDGE_CURVE ( 'NONE', #306, #795, #696, .T. ) ;
#105 = ORIENTED_EDGE ( 'NONE', *, *, #889, .F. ) ;
#106 = VERTEX_POINT ( 'NONE', #116 ) ;
#107 = CARTESIAN_POINT ( 'NONE',  ( 215.0605339059305834, 2.000000000000000000, -153.6499999999993236 ) ) ;
#108 = ORIENTED_EDGE ( 'NONE', *, *, #165, .F. ) ;
#109 = EDGE_CURVE ( 'NONE', #153, #127, #878, .T. ) ;
#110 = DIRECTION ( 'NONE',  ( 0.000000000000000000, 0.000000000000000000, 1.000000000000000000 ) ) ;
#111 = ORIENTED_EDGE ( 'NONE', *, *, #177, .T. ) ;
#112 = DIRECTION ( 'NONE',  ( -0.000000000000000000, 1.000000000000000000, -0.000000000000000000 ) ) ;
#113 = DIRECTION ( 'NONE',  ( 0.000000000000000000, 0.000000000000000000, 1.000000000000000000 ) ) ;
#114 = DIRECTION ( 'NONE',  ( 0.000000000000000000, 0.000000000000000000, 1.000000000000000000 ) ) ;
#115 = DIRECTION ( 'NONE',  ( 0.000000000000000000, 0.000000000000000000, 1.000000000000000000 ) ) ;
#116 = CARTESIAN_POINT ( 'NONE',  ( -213.2650000000021180, 0.000000000000000000, -128.7124999999984141 ) ) ;
#117 = LINE ( 'NONE', #1038, #728 ) ;
#118 = PLANE ( 'NONE',  #985 ) ;
#119 = CARTESIAN_POINT ( 'NONE',  ( -215.7650000000020611, 2.000000000000000000, -156.1499999999993804 ) ) ;
#120 = CIRCLE ( 'NONE', #966, 2.599999999999991207 ) ;
#121 = CIRCLE ( 'NONE', #160, 3.000000000000002665 ) ;
#122 = DIRECTION ( 'NONE',  ( -0.000000000000000000, 1.000000000000000000, -0.000000000000000000 ) ) ;
#123 = AXIS2_PLACEMENT_3D ( 'NONE', #523, #720, #301 ) ;
#124 = CARTESIAN_POINT ( 'NONE',  ( 195.0605339059306118, 0.000000000000000000, -128.7080339059313872 ) ) ;
#125 = EDGE_CURVE ( 'NONE', #11, #558, #890, .T. ) ;
#126 = FACE_OUTER_BOUND ( 'NONE', #660, .T. ) ;
#127 = VERTEX_POINT ( 'NONE', #145 ) ;
#128 = FACE_OUTER_BOUND ( 'NONE', #420, .T. ) ;
#129 = LINE ( 'NONE', #796, #816 ) ;
#130 = ADVANCED_BREP_SHAPE_REPRESENTATION ( 'Chassis_Top_Panel', ( #939, #248 ), #560 ) ;
#131 = EDGE_CURVE ( 'NONE', #245, #85, #56, .T. ) ;
#132 = VERTEX_POINT ( 'NONE', #644 ) ;
#133 = EDGE_LOOP ( 'NONE', ( #792, #152, #192, #582 ) ) ;
#134 = CARTESIAN_POINT ( 'NONE',  ( -223.0000000000000000, 2.000000000000000000, 153.1500000000000341 ) ) ;
#135 = AXIS2_PLACEMENT_3D ( 'NONE', #467, #31, #384 ) ;
#136 = AXIS2_PLACEMENT_3D ( 'NONE', #1048, #284, #294 ) ;
#137 = CIRCLE ( 'NONE', #472, 2.599999999999991207 ) ;
#138 = CYLINDRICAL_SURFACE ( 'NONE', #1004, 2.599999999999727418 ) ;
#139 = CIRCLE ( 'NONE', #101, 2.599999999999991207 ) ;
#140 = AXIS2_PLACEMENT_3D ( 'NONE', #1029, #602, #524 ) ;
#141 = FACE_OUTER_BOUND ( 'NONE', #445, .T. ) ;
#142 = VERTEX_POINT ( 'NONE', #737 ) ;
#143 = ORIENTED_EDGE ( 'NONE', *, *, #219, .F. ) ;
#144 = CARTESIAN_POINT ( 'NONE',  ( -183.8650000000020839, 2.000000000000000000, -128.7124999999984141 ) ) ;
#145 = CARTESIAN_POINT ( 'NONE',  ( -225.9999999999999716, 2.000000000000000000, -153.1499999999999488 ) ) ;
#146 = VERTEX_POINT ( 'NONE', #230 ) ;
#147 = EDGE_CURVE ( 'NONE', #213, #973, #883, .T. ) ;
#148 = DIRECTION ( 'NONE',  ( 0.000000000000000000, 0.000000000000000000, -1.000000000000000000 ) ) ;
#149 = LINE ( 'NONE', #714, #302 ) ;
#150 = EDGE_LOOP ( 'NONE', ( #542, #664, #680, #982 ) ) ;
#151 = DIRECTION ( 'NONE',  ( 0.000000000000000000, 1.000000000000000000, 0.000000000000000000 ) ) ;
#152 = ORIENTED_EDGE ( 'NONE', *, *, #60, .F. ) ;
#153 = VERTEX_POINT ( 'NONE', #269 ) ;
#154 = VERTEX_POINT ( 'NONE', #522 ) ;
#155 = ORIENTED_EDGE ( 'NONE', *, *, #147, .F. ) ;
#156 = PLANE ( 'NONE',  #397 ) ;
#157 = VECTOR ( 'NONE', #275, 1000.000000000000000 ) ;
#158 = DIRECTION ( 'NONE',  ( -0.000000000000000000, 1.000000000000000000, -0.000000000000000000 ) ) ;
#159 = AXIS2_PLACEMENT_3D ( 'NONE', #718, #371, #1061 ) ;
#160 = AXIS2_PLACEMENT_3D ( 'NONE', #53, #1058, #1101 ) ;
#161 = ORIENTED_EDGE ( 'NONE', *, *, #977, .F. ) ;
#162 = ORIENTED_EDGE ( 'NONE', *, *, #462, .F. ) ;
#163 = CIRCLE ( 'NONE', #783, 2.599999999999991207 ) ;
#164 = VECTOR ( 'NONE', #1092, 1000.000000000000000 ) ;
#165 = EDGE_CURVE ( 'NONE', #220, #787, #1024, .T. ) ;
#166 = ORIENTED_EDGE ( 'NONE', *, *, #343, .T. ) ;
#167 = DIRECTION ( 'NONE',  ( -1.000000000000000000, -0.000000000000000000, -1.443723048927382240E-15 ) ) ;
#168 = DIRECTION ( 'NONE',  ( -0.000000000000000000, -0.000000000000000000, 1.000000000000000000 ) ) ;
#169 = ORIENTED_EDGE ( 'NONE', *, *, #879, .T. ) ;
#170 = VERTEX_POINT ( 'NONE', #556 ) ;
#171 = CARTESIAN_POINT ( 'NONE',  ( -226.0000000000000000, 2.000000000000000000, 153.1500000000000341 ) ) ;
#172 = ORIENTED_EDGE ( 'NONE', *, *, #273, .F. ) ;
#173 = CARTESIAN_POINT ( 'NONE',  ( -223.0000000000000000, 0.000000000000000000, -156.1499999999999488 ) ) ;
#174 = LINE ( 'NONE', #75, #198 ) ;
#175 = DIRECTION ( 'NONE',  ( -1.000000000000000000, -0.000000000000000000, -1.443723048927382240E-15 ) ) ;
#176 = CARTESIAN_POINT ( 'NONE',  ( -183.8650000000020270, 0.000000000000000000, -153.6499999999998920 ) ) ;
#177 = EDGE_CURVE ( 'NONE', #550, #786, #497, .T. ) ;
#178 = DIRECTION ( 'NONE',  ( 0.000000000000000000, 0.000000000000000000, -1.000000000000000000 ) ) ;
#179 = ORIENTED_EDGE ( 'NONE', *, *, #725, .F. ) ;
#180 = DIRECTION ( 'NONE',  ( 0.000000000000000000, 0.000000000000000000, -1.000000000000000000 ) ) ;
#181 = AXIS2_PLACEMENT_3D ( 'NONE', #422, #346, #352 ) ;
#182 = ORIENTED_EDGE ( 'NONE', *, *, #692, .T. ) ;
#183 = DIRECTION ( 'NONE',  ( 0.000000000000000000, 1.000000000000000000, -0.000000000000000000 ) ) ;
#184 = FACE_BOUND ( 'NONE', #73, .T. ) ;
#185 = EDGE_CURVE ( 'NONE', #550, #699, #626, .T. ) ;
#186 = ORIENTED_EDGE ( 'NONE', *, *, #210, .F. ) ;
#187 = CYLINDRICAL_SURFACE ( 'NONE', #123, 3.000000000000002665 ) ;
#188 = ORIENTED_EDGE ( 'NONE', *, *, #1002, .F. ) ;
#189 = ORIENTED_EDGE ( 'NONE', *, *, #717, .T. ) ;
#190 = CARTESIAN_POINT ( 'NONE',  ( 204.7749200000058920, 2.000000000000000000, -96.99899999999861677 ) ) ;
#191 = EDGE_CURVE ( 'NONE', #795, #1044, #1074, .T. ) ;
#192 = ORIENTED_EDGE ( 'NONE', *, *, #762, .T. ) ;
#193 = CARTESIAN_POINT ( 'NONE',  ( -215.7650000000020611, 0.000000000000000000, -156.1499999999999488 ) ) ;
#194 = CARTESIAN_POINT ( 'NONE',  ( -225.9999999999999716, 2.000000000000000000, -153.1499999999999488 ) ) ;
#195 = CARTESIAN_POINT ( 'NONE',  ( -223.0000000000000000, 2.000000000000000000, 156.1500000000000341 ) ) ;
#196 = VECTOR ( 'NONE', #954, 1000.000000000000000 ) ;
#197 = ORIENTED_EDGE ( 'NONE', *, *, #899, .T. ) ;
#198 = VECTOR ( 'NONE', #347, 1000.000000000000000 ) ;
#199 = ADVANCED_FACE ( 'NONE', ( #217 ), #1036, .F. ) ;
#200 = DIRECTION ( 'NONE',  ( -0.000000000000000000, -1.000000000000000000, 0.000000000000000000 ) ) ;
#201 = AXIS2_PLACEMENT_3D ( 'NONE', #961, #647, #474 ) ;
#202 = FACE_OUTER_BOUND ( 'NONE', #133, .T. ) ;
#203 = DIRECTION ( 'NONE',  ( 0.000000000000000000, 0.000000000000000000, 1.000000000000000000 ) ) ;
#204 = FACE_OUTER_BOUND ( 'NONE', #996, .T. ) ;
#205 = CYLINDRICAL_SURFACE ( 'NONE', #473, 2.599999999999991207 ) ;
#206 = DIRECTION ( 'NONE',  ( 0.000000000000000000, 1.000000000000000000, 0.000000000000000000 ) ) ;
#207 = VERTEX_POINT ( 'NONE', #574 ) ;
#208 = EDGE_LOOP ( 'NONE', ( #355, #288, #951, #628 ) ) ;
#209 = CARTESIAN_POINT ( 'NONE',  ( -223.0000000000000000, 0.000000000000000000, 156.1500000000000341 ) ) ;
#210 = EDGE_CURVE ( 'NONE', #221, #11, #488, .T. ) ;
#211 = CARTESIAN_POINT ( 'NONE',  ( 212.5605339059306118, 0.000000000000000000, -128.7080339059313872 ) ) ;
#212 = AXIS2_PLACEMENT_3D ( 'NONE', #855, #378, #148 ) ;
#213 = VERTEX_POINT ( 'NONE', #915 ) ;
#214 = DIRECTION ( 'NONE',  ( 0.000000000000000000, 0.000000000000000000, -1.000000000000000000 ) ) ;
#215 = LINE ( 'NONE', #549, #615 ) ;
#216 = AXIS2_PLACEMENT_3D ( 'NONE', #107, #183, #388 ) ;
#217 = FACE_OUTER_BOUND ( 'NONE', #223, .T. ) ;
#218 = AXIS2_PLACEMENT_3D ( 'NONE', #134, #875, #721 ) ;
#219 = EDGE_CURVE ( 'NONE', #786, #690, #672, .T. ) ;
#220 = VERTEX_POINT ( 'NONE', #437 ) ;
#221 = VERTEX_POINT ( 'NONE', #262 ) ;
#222 = SHAPE_DEFINITION_REPRESENTATION ( #781, #130 ) ;
#223 = EDGE_LOOP ( 'NONE', ( #6, #958, #1082, #1084 ) ) ;
#224 = ADVANCED_FACE ( 'NONE', ( #678 ), #1096, .T. ) ;
#225 = EDGE_LOOP ( 'NONE', ( #338, #922, #934, #478 ) ) ;
#226 = CYLINDRICAL_SURFACE ( 'NONE', #970, 3.000000000000002665 ) ;
#227 = CARTESIAN_POINT ( 'NONE',  ( -223.0000000000000000, 2.000000000000000000, -156.1499999999999488 ) ) ;
#228 = CYLINDRICAL_SURFACE ( 'NONE', #948, 2.500000000000002220 ) ;
#229 = EDGE_CURVE ( 'NONE', #85, #132, #395, .T. ) ;
#230 = CARTESIAN_POINT ( 'NONE',  ( -204.7749200000061478, 2.000000000000000000, -96.99899999999828992 ) ) ;
#231 = VECTOR ( 'NONE', #78, 1000.000000000000000 ) ;
#232 = VECTOR ( 'NONE', #112, 1000.000000000000000 ) ;
#233 = AXIS2_PLACEMENT_3D ( 'NONE', #71, #43, #668 ) ;
#234 = ORIENTED_EDGE ( 'NONE', *, *, #109, .T. ) ;
#235 = DIRECTION ( 'NONE',  ( 0.000000000000000000, 1.000000000000000000, -0.000000000000000000 ) ) ;
#236 = VERTEX_POINT ( 'NONE', #625 ) ;
#237 = LINE ( 'NONE', #419, #986 ) ;
#238 = ORIENTED_EDGE ( 'NONE', *, *, #567, .T. ) ;
#239 = DIRECTION ( 'NONE',  ( 0.000000000000000000, 0.000000000000000000, 1.000000000000000000 ) ) ;
#240 = DIRECTION ( 'NONE',  ( 0.000000000000000000, 1.000000000000000000, 0.000000000000000000 ) ) ;
#241 = CARTESIAN_POINT ( 'NONE',  ( -204.7749200000061478, 0.000000000000000000, -91.79899999999884130 ) ) ;
#242 = EDGE_CURVE ( 'NONE', #357, #659, #866, .T. ) ;
#243 = ORIENTED_EDGE ( 'NONE', *, *, #131, .T. ) ;
#244 = ORIENTED_EDGE ( 'NONE', *, *, #571, .F. ) ;
#245 = VERTEX_POINT ( 'NONE', #119 ) ;
#246 = FACE_OUTER_BOUND ( 'NONE', #22, .T. ) ;
#247 = DIRECTION ( 'NONE',  ( -1.000000000000000000, 0.000000000000000000, -0.000000000000000000 ) ) ;
#248 = AXIS2_PLACEMENT_3D ( 'NONE', #1022, #377, #798 ) ;
#249 = EDGE_CURVE ( 'NONE', #690, #1017, #969, .T. ) ;
#250 = AXIS2_PLACEMENT_3D ( 'NONE', #124, #456, #18 ) ;
#251 = VERTEX_POINT ( 'NONE', #882 ) ;
#252 = ORIENTED_EDGE ( 'NONE', *, *, #272, .T. ) ;
#253 = DIRECTION ( 'NONE',  ( -0.000000000000000000, 1.000000000000000000, -0.000000000000000000 ) ) ;
#254 = ORIENTED_EDGE ( 'NONE', *, *, #989, .F. ) ;
#255 = ORIENTED_EDGE ( 'NONE', *, *, #229, .T. ) ;
#256 = CARTESIAN_POINT ( 'NONE',  ( 223.0000000000000000, 2.000000000000000000, -156.1500000000000057 ) ) ;
#257 = CARTESIAN_POINT ( 'NONE',  ( 177.5605339059306402, 0.000000000000000000, -153.6499999999993804 ) ) ;
#258 = ADVANCED_FACE ( 'NONE', ( #743 ), #228, .T. ) ;
#259 = FACE_OUTER_BOUND ( 'NONE', #408, .T. ) ;
#260 = LINE ( 'NONE', #622, #1001 ) ;
#261 = EDGE_CURVE ( 'NONE', #154, #306, #561, .T. ) ;
#262 = CARTESIAN_POINT ( 'NONE',  ( 177.5605339059306402, 0.000000000000000000, -128.7080339059313872 ) ) ;
#263 = FACE_BOUND ( 'NONE', #376, .T. ) ;
#264 = ORIENTED_EDGE ( 'NONE', *, *, #331, .F. ) ;
#265 = CARTESIAN_POINT ( 'NONE',  ( -198.5650000000021009, 2.000000000000000000, -114.0124999999984112 ) ) ;
#266 = ORIENTED_EDGE ( 'NONE', *, *, #165, .T. ) ;
#267 = CIRCLE ( 'NONE', #216, 2.500000000000002220 ) ;
#268 = ORIENTED_EDGE ( 'NONE', *, *, #300, .T. ) ;
#269 = CARTESIAN_POINT ( 'NONE',  ( -223.0000000000000000, 2.000000000000000000, -156.1499999999999488 ) ) ;
#270 = CARTESIAN_POINT ( 'NONE',  ( 204.7749200000058636, 0.000000000000000000, 92.89900000000029934 ) ) ;
#271 = VECTOR ( 'NONE', #715, 1000.000000000000000 ) ;
#272 = EDGE_CURVE ( 'NONE', #831, #1100, #579, .T. ) ;
#273 = EDGE_CURVE ( 'NONE', #741, #558, #823, .T. ) ;
#274 = EDGE_LOOP ( 'NONE', ( #14, #822, #95, #808 ) ) ;
#275 = DIRECTION ( 'NONE',  ( 2.023185466287188356E-15, 0.000000000000000000, -1.000000000000000000 ) ) ;
#276 = LINE ( 'NONE', #428, #546 ) ;
#277 = DIRECTION ( 'NONE',  ( -0.000000000000000000, -1.000000000000000000, -0.000000000000000000 ) ) ;
#278 = CARTESIAN_POINT ( 'NONE',  ( 195.0605339059306118, 0.000000000000000000, -111.2080339059314014 ) ) ;
#279 = EDGE_CURVE ( 'NONE', #236, #476, #342, .T. ) ;
#280 = CARTESIAN_POINT ( 'NONE',  ( 223.0000000000000568, 0.000000000000000000, 156.1499999999999773 ) ) ;
#281 = ORIENTED_EDGE ( 'NONE', *, *, #623, .F. ) ;
#282 = DIRECTION ( 'NONE',  ( -1.443723048927378098E-15, -0.000000000000000000, 1.000000000000000000 ) ) ;
#283 = CARTESIAN_POINT ( 'NONE',  ( 204.7749200000058636, 2.000000000000000000, 92.89900000000029934 ) ) ;
#284 = DIRECTION ( 'NONE',  ( 0.000000000000000000, 1.000000000000000000, 0.000000000000000000 ) ) ;
#285 = DIRECTION ( 'NONE',  ( -0.000000000000000000, 1.000000000000000000, -0.000000000000000000 ) ) ;
#286 = DIRECTION ( 'NONE',  ( 0.000000000000000000, 1.000000000000000000, -0.000000000000000000 ) ) ;
#287 = AXIS2_PLACEMENT_3D ( 'NONE', #369, #9, #455 ) ;
#288 = ORIENTED_EDGE ( 'NONE', *, *, #46, .F. ) ;
#289 = VECTOR ( 'NONE', #1028, 1000.000000000000000 ) ;
#290 = CARTESIAN_POINT ( 'NONE',  ( -223.0000000000000000, 2.000000000000000000, -153.1499999999999488 ) ) ;
#291 = CARTESIAN_POINT ( 'NONE',  ( -198.5650000000021009, 2.000000000000000000, -128.7124999999984141 ) ) ;
#292 = DIRECTION ( 'NONE',  ( -0.000000000000000000, -1.000000000000000000, -0.000000000000000000 ) ) ;
#293 = ORIENTED_EDGE ( 'NONE', *, *, #782, .F. ) ;
#294 = DIRECTION ( 'NONE',  ( 0.000000000000000000, 0.000000000000000000, 1.000000000000000000 ) ) ;
#295 = ORIENTED_EDGE ( 'NONE', *, *, #177, .F. ) ;
#296 = CARTESIAN_POINT ( 'NONE',  ( -198.5650000000021009, 0.000000000000000000, -128.7124999999984141 ) ) ;
#297 = CARTESIAN_POINT ( 'NONE',  ( 177.5605339059306402, 0.000000000000000000, -128.7080339059313872 ) ) ;
#298 = DIRECTION ( 'NONE',  ( 0.000000000000000000, 0.000000000000000000, 1.000000000000000000 ) ) ;
#299 = CARTESIAN_POINT ( 'NONE',  ( -223.0000000000000000, 2.000000000000000000, -153.1499999999999488 ) ) ;
#300 = EDGE_CURVE ( 'NONE', #1100, #831, #137, .T. ) ;
#301 = DIRECTION ( 'NONE',  ( 0.000000000000000000, 0.000000000000000000, -1.000000000000000000 ) ) ;
#302 = VECTOR ( 'NONE', #963, 1000.000000000000000 ) ;
#303 = CARTESIAN_POINT ( 'NONE',  ( -226.0000000000000000, 0.000000000000000000, 153.1500000000000341 ) ) ;
#304 = AXIS2_PLACEMENT_3D ( 'NONE', #290, #373, #864 ) ;
#305 = CARTESIAN_POINT ( 'NONE',  ( -204.7749200000061478, 0.000000000000000000, -91.79899999999884130 ) ) ;
#306 = VERTEX_POINT ( 'NONE', #987 ) ;
#307 = CIRCLE ( 'NONE', #363, 17.49999999999998934 ) ;
#308 = VECTOR ( 'NONE', #328, 1000.000000000000000 ) ;
#309 = ORIENTED_EDGE ( 'NONE', *, *, #350, .F. ) ;
#310 = ADVANCED_FACE ( 'NONE', ( #62 ), #411, .T. ) ;
#311 = EDGE_LOOP ( 'NONE', ( #330, #281, #707, #1045 ) ) ;
#312 = DIRECTION ( 'NONE',  ( 0.000000000000000000, 1.000000000000000000, -0.000000000000000000 ) ) ;
#313 = LINE ( 'NONE', #569, #689 ) ;
#314 = EDGE_LOOP ( 'NONE', ( #161, #727, #446, #746 ) ) ;
#315 = EDGE_CURVE ( 'NONE', #245, #153, #335, .T. ) ;
#316 = ORIENTED_EDGE ( 'NONE', *, *, #315, .T. ) ;
#317 = DIRECTION ( 'NONE',  ( -0.000000000000000000, -1.000000000000000000, -0.000000000000000000 ) ) ;
#318 = CARTESIAN_POINT ( 'NONE',  ( -223.0000000000000000, 0.000000000000000000, -153.1499999999999488 ) ) ;
#319 = VECTOR ( 'NONE', #37, 1000.000000000000000 ) ;
#320 = CARTESIAN_POINT ( 'NONE',  ( 204.7749200000058636, 0.000000000000000000, 92.89900000000029934 ) ) ;
#321 = FACE_OUTER_BOUND ( 'NONE', #635, .T. ) ;
#322 = AXIS2_PLACEMENT_3D ( 'NONE', #505, #86, #767 ) ;
#323 = DIRECTION ( 'NONE',  ( 1.000000000000000000, 0.000000000000000000, 1.443723048927382240E-15 ) ) ;
#324 = AXIS2_PLACEMENT_3D ( 'NONE', #438, #358, #916 ) ;
#325 = EDGE_LOOP ( 'NONE', ( #1039, #105, #309, #747 ) ) ;
#326 = ORIENTED_EDGE ( 'NONE', *, *, #410, .F. ) ;
#327 = LINE ( 'NONE', #339, #908 ) ;
#328 = DIRECTION ( 'NONE',  ( 0.000000000000000000, 1.000000000000000000, -0.000000000000000000 ) ) ;
#329 = VERTEX_POINT ( 'NONE', #591 ) ;
#330 = ORIENTED_EDGE ( 'NONE', *, *, #845, .T. ) ;
#331 = EDGE_CURVE ( 'NONE', #85, #236, #433, .T. ) ;
#332 = DIRECTION ( 'NONE',  ( -0.000000000000000000, 1.000000000000000000, -0.000000000000000000 ) ) ;
#333 = LINE ( 'NONE', #748, #308 ) ;
#334 =( NAMED_UNIT ( * ) PLANE_ANGLE_UNIT ( ) SI_UNIT ( $, .RADIAN. ) );
#335 = LINE ( 'NONE', #256, #1026 ) ;
#336 = DIRECTION ( 'NONE',  ( 0.000000000000000000, 1.000000000000000000, 0.000000000000000000 ) ) ;
#337 = EDGE_CURVE ( 'NONE', #1044, #154, #260, .T. ) ;
#338 = ORIENTED_EDGE ( 'NONE', *, *, #229, .F. ) ;
#339 = CARTESIAN_POINT ( 'NONE',  ( 204.7749200000058636, 0.000000000000000000, 90.29900000000030502 ) ) ;
#340 = DIRECTION ( 'NONE',  ( 0.000000000000000000, 0.000000000000000000, 1.000000000000000000 ) ) ;
#341 = DIRECTION ( 'NONE',  ( 0.000000000000000000, 0.000000000000000000, 1.000000000000000000 ) ) ;
#342 = CIRCLE ( 'NONE', #619, 3.000000000000002665 ) ;
#343 = EDGE_CURVE ( 'NONE', #251, #220, #600, .T. ) ;
#344 = ORIENTED_EDGE ( 'NONE', *, *, #845, .F. ) ;
#345 = ADVANCED_FACE ( 'NONE', ( #204 ), #774, .T. ) ;
#346 = DIRECTION ( 'NONE',  ( -0.000000000000000000, 1.000000000000000000, -0.000000000000000000 ) ) ;
#347 = DIRECTION ( 'NONE',  ( 0.000000000000000000, 1.000000000000000000, 0.000000000000000000 ) ) ;
#348 = CARTESIAN_POINT ( 'NONE',  ( 212.5605339059306118, 0.000000000000000000, -153.6499999999993236 ) ) ;
#349 = DIRECTION ( 'NONE',  ( 2.023185466287188356E-15, 0.000000000000000000, -1.000000000000000000 ) ) ;
#350 = EDGE_CURVE ( 'NONE', #699, #329, #121, .T. ) ;
#351 = ORIENTED_EDGE ( 'NONE', *, *, #20, .T. ) ;
#352 = DIRECTION ( 'NONE',  ( 0.000000000000000000, 0.000000000000000000, 1.000000000000000000 ) ) ;
#353 = VERTEX_POINT ( 'NONE', #570 ) ;
#354 = ORIENTED_EDGE ( 'NONE', *, *, #1032, .F. ) ;
#355 = ORIENTED_EDGE ( 'NONE', *, *, #279, .T. ) ;
#356 = CARTESIAN_POINT ( 'NONE',  ( -183.8650000000020270, 2.000000000000000000, -153.6499999999998920 ) ) ;
#357 = VERTEX_POINT ( 'NONE', #1075 ) ;
#358 = DIRECTION ( 'NONE',  ( -0.000000000000000000, -1.000000000000000000, 0.000000000000000000 ) ) ;
#359 = DIRECTION ( 'NONE',  ( 0.000000000000000000, -1.000000000000000000, 0.000000000000000000 ) ) ;
#360 = ORIENTED_EDGE ( 'NONE', *, *, #449, .F. ) ;
#361 = VECTOR ( 'NONE', #704, 1000.000000000000000 ) ;
#362 = ORIENTED_EDGE ( 'NONE', *, *, #104, .T. ) ;
#363 = AXIS2_PLACEMENT_3D ( 'NONE', #703, #382, #694 ) ;
#364 = CARTESIAN_POINT ( 'NONE',  ( -204.7749200000058352, 0.000000000000000000, 95.49900000000027944 ) ) ;
#365 = STYLED_ITEM ( 'NONE', ( #843 ), #939 ) ;
#366 = PLANE ( 'NONE',  #687 ) ;
#367 = DIRECTION ( 'NONE',  ( 0.000000000000000000, 0.000000000000000000, -1.000000000000000000 ) ) ;
#368 = DIRECTION ( 'NONE',  ( -0.000000000000000000, -1.000000000000000000, -0.000000000000000000 ) ) ;
#369 = CARTESIAN_POINT ( 'NONE',  ( -213.2650000000021180, 0.000000000000000000, -128.7124999999984141 ) ) ;
#370 = CARTESIAN_POINT ( 'NONE',  ( -198.5650000000021009, 0.000000000000000000, -128.7124999999984141 ) ) ;
#371 = DIRECTION ( 'NONE',  ( -0.000000000000000000, -1.000000000000000000, 0.000000000000000000 ) ) ;
#372 = CARTESIAN_POINT ( 'NONE',  ( -223.0000000000000000, 0.000000000000000000, -156.1499999999999488 ) ) ;
#373 = DIRECTION ( 'NONE',  ( 0.000000000000000000, -1.000000000000000000, 0.000000000000000000 ) ) ;
#374 = DIRECTION ( 'NONE',  ( 1.443723048927378098E-15, 0.000000000000000000, 1.000000000000000000 ) ) ;
#375 = ORIENTED_EDGE ( 'NONE', *, *, #652, .F. ) ;
#376 = EDGE_LOOP ( 'NONE', ( #493, #16 ) ) ;
#377 = DIRECTION ( 'NONE',  ( 0.000000000000000000, 0.000000000000000000, 1.000000000000000000 ) ) ;
#378 = DIRECTION ( 'NONE',  ( 0.000000000000000000, 1.000000000000000000, -0.000000000000000000 ) ) ;
#379 = ORIENTED_EDGE ( 'NONE', *, *, #557, .T. ) ;
#380 = CIRCLE ( 'NONE', #858, 14.70000000000001883 ) ;
#381 = ADVANCED_FACE ( 'NONE', ( #55, #750, #759, #836, #80 ), #521, .F. ) ;
#382 = DIRECTION ( 'NONE',  ( 0.000000000000000000, 1.000000000000000000, -0.000000000000000000 ) ) ;
#383 = CIRCLE ( 'NONE', #68, 3.000000000000002665 ) ;
#384 = DIRECTION ( 'NONE',  ( 0.000000000000000000, 0.000000000000000000, -1.000000000000000000 ) ) ;
#385 = ORIENTED_EDGE ( 'NONE', *, *, #1071, .F. ) ;
#386 = ORIENTED_EDGE ( 'NONE', *, *, #26, .T. ) ;
#387 = EDGE_CURVE ( 'NONE', #439, #146, #149, .T. ) ;
#388 = DIRECTION ( 'NONE',  ( 0.000000000000000000, 0.000000000000000000, -1.000000000000000000 ) ) ;
#389 = CARTESIAN_POINT ( 'NONE',  ( 223.0000000000000568, 2.000000000000000000, 156.1499999999999773 ) ) ;
#390 = EDGE_LOOP ( 'NONE', ( #666, #870, #744, #884 ) ) ;
#391 = CARTESIAN_POINT ( 'NONE',  ( -226.0000000000000000, 2.000000000000000000, -133.9249999999998977 ) ) ;
#392 = CARTESIAN_POINT ( 'NONE',  ( -226.0000000000000000, 2.000000000000000000, 153.1500000000000341 ) ) ;
#393 = EDGE_CURVE ( 'NONE', #900, #683, #327, .T. ) ;
#394 = VERTEX_POINT ( 'NONE', #587 ) ;
#395 = CIRCLE ( 'NONE', #669, 2.500000000000002220 ) ;
#396 = VECTOR ( 'NONE', #167, 1000.000000000000000 ) ;
#397 = AXIS2_PLACEMENT_3D ( 'NONE', #821, #247, #72 ) ;
#398 = AXIS2_PLACEMENT_3D ( 'NONE', #461, #468, #799 ) ;
#399 = ADVANCED_FACE ( 'NONE', ( #895 ), #740, .F. ) ;
#400 = VERTEX_POINT ( 'NONE', #1013 ) ;
#401 = DIRECTION ( 'NONE',  ( -1.443723048927382240E-15, 0.000000000000000000, 1.000000000000000000 ) ) ;
#402 = DIRECTION ( 'NONE',  ( 0.000000000000000000, 0.000000000000000000, 1.000000000000000000 ) ) ;
#403 = DIRECTION ( 'NONE',  ( -0.000000000000000000, -1.000000000000000000, -0.000000000000000000 ) ) ;
#404 = CARTESIAN_POINT ( 'NONE',  ( -215.7650000000020611, 0.000000000000000000, -153.6499999999999488 ) ) ;
#405 = FACE_OUTER_BOUND ( 'NONE', #57, .T. ) ;
#406 = ORIENTED_EDGE ( 'NONE', *, *, #20, .F. ) ;
#407 = ORIENTED_EDGE ( 'NONE', *, *, #191, .T. ) ;
#408 = EDGE_LOOP ( 'NONE', ( #992, #802, #89, #52 ) ) ;
#409 = ORIENTED_EDGE ( 'NONE', *, *, #820, .T. ) ;
#410 = EDGE_CURVE ( 'NONE', #573, #562, #980, .T. ) ;
#411 = CYLINDRICAL_SURFACE ( 'NONE', #598, 3.000000000000002665 ) ;
#412 = VECTOR ( 'NONE', #292, 1000.000000000000000 ) ;
#413 = ORIENTED_EDGE ( 'NONE', *, *, #509, .T. ) ;
#414 = CIRCLE ( 'NONE', #32, 3.000000000000002665 ) ;
#415 = EDGE_LOOP ( 'NONE', ( #1015, #188, #645, #778 ) ) ;
#416 = CARTESIAN_POINT ( 'NONE',  ( 225.9999999999999716, 2.000000000000000000, -153.1500000000000057 ) ) ;
#417 = DIRECTION ( 'NONE',  ( 0.000000000000000000, 1.000000000000000000, -0.000000000000000000 ) ) ;
#418 = ADVANCED_FACE ( 'NONE', ( #650 ), #156, .F. ) ;
#419 = CARTESIAN_POINT ( 'NONE',  ( -204.7749200000058352, 0.000000000000000000, 90.29900000000029081 ) ) ;
#420 = EDGE_LOOP ( 'NONE', ( #697, #243, #923, #179 ) ) ;
#421 = ORIENTED_EDGE ( 'NONE', *, *, #805, .F. ) ;
#422 = CARTESIAN_POINT ( 'NONE',  ( -204.7749200000058352, 0.000000000000000000, 92.89900000000028513 ) ) ;
#423 = CARTESIAN_POINT ( 'NONE',  ( 204.7749200000058920, 0.000000000000000000, -94.39899999999862246 ) ) ;
#424 = CARTESIAN_POINT ( 'NONE',  ( 204.7749200000058920, 0.000000000000000000, -94.39899999999862246 ) ) ;
#425 = VERTEX_POINT ( 'NONE', #241 ) ;
#426 = ADVANCED_FACE ( 'NONE', ( #321 ), #226, .T. ) ;
#427 = CARTESIAN_POINT ( 'NONE',  ( 223.0000000000000000, 2.000000000000000000, -156.1500000000000057 ) ) ;
#428 = CARTESIAN_POINT ( 'NONE',  ( 212.5605339059306118, 2.000000000000000000, -128.7080339059313872 ) ) ;
#429 = VECTOR ( 'NONE', #1090, 1000.000000000000000 ) ;
#430 = CIRCLE ( 'NONE', #564, 2.599999999999727418 ) ;
#431 = ADVANCED_FACE ( 'NONE', ( #897 ), #138, .F. ) ;
#432 = CIRCLE ( 'NONE', #1049, 2.500000000000002220 ) ;
#433 = LINE ( 'NONE', #173, #396 ) ;
#434 = FACE_OUTER_BOUND ( 'NONE', #311, .T. ) ;
#435 = ORIENTED_EDGE ( 'NONE', *, *, #940, .T. ) ;
#436 = EDGE_LOOP ( 'NONE', ( #545, #407, #933, #588, #409, #706, #593, #375, #794, #143, #1055, #244, #538, #344, #565, #264, #255, #1056, #64, #351, #862, #28 ) ) ;
#437 = CARTESIAN_POINT ( 'NONE',  ( 204.7749200000058920, 2.000000000000000000, -91.79899999999862814 ) ) ;
#438 = CARTESIAN_POINT ( 'NONE',  ( 215.0605339059305834, 0.000000000000000000, -153.6499999999993236 ) ) ;
#439 = VERTEX_POINT ( 'NONE', #575 ) ;
#440 = LINE ( 'NONE', #364, #48 ) ;
#441 = VERTEX_POINT ( 'NONE', #834 ) ;
#442 = DIRECTION ( 'NONE',  ( 0.000000000000000000, 0.000000000000000000, 1.000000000000000000 ) ) ;
#443 = CARTESIAN_POINT ( 'NONE',  ( -223.0000000000000000, 0.000000000000000000, -153.1499999999999488 ) ) ;
#444 = DIRECTION ( 'NONE',  ( 0.000000000000000000, 0.000000000000000000, 1.000000000000000000 ) ) ;
#445 = EDGE_LOOP ( 'NONE', ( #624, #952, #484, #452 ) ) ;
#446 = ORIENTED_EDGE ( 'NONE', *, *, #685, .F. ) ;
#447 = FACE_OUTER_BOUND ( 'NONE', #274, .T. ) ;
#448 = DIRECTION ( 'NONE',  ( -0.000000000000000000, -1.000000000000000000, -0.000000000000000000 ) ) ;
#449 = EDGE_CURVE ( 'NONE', #1030, #900, #620, .T. ) ;
#450 = CARTESIAN_POINT ( 'NONE',  ( 225.9999999999999716, 2.000000000000000000, -153.1500000000000057 ) ) ;
#451 = VECTOR ( 'NONE', #34, 1000.000000000000000 ) ;
#452 = ORIENTED_EDGE ( 'NONE', *, *, #500, .T. ) ;
#453 = CIRCLE ( 'NONE', #324, 2.500000000000002220 ) ;
#454 = EDGE_CURVE ( 'NONE', #991, #508, #814, .T. ) ;
#455 = DIRECTION ( 'NONE',  ( -2.023185466287188356E-15, 0.000000000000000000, 1.000000000000000000 ) ) ;
#456 = DIRECTION ( 'NONE',  ( 0.000000000000000000, 1.000000000000000000, -0.000000000000000000 ) ) ;
#457 = ORIENTED_EDGE ( 'NONE', *, *, #571, .T. ) ;
#458 = ORIENTED_EDGE ( 'NONE', *, *, #70, .T. ) ;
#459 = FACE_OUTER_BOUND ( 'NONE', #1095, .T. ) ;
#460 = VERTEX_POINT ( 'NONE', #679 ) ;
#461 = CARTESIAN_POINT ( 'NONE',  ( 195.0605339059306118, 0.000000000000000000, -128.7080339059313872 ) ) ;
#462 = EDGE_CURVE ( 'NONE', #146, #441, #430, .T. ) ;
#463 = DIRECTION ( 'NONE',  ( -0.000000000000000000, 1.000000000000000000, -0.000000000000000000 ) ) ;
#464 = ORIENTED_EDGE ( 'NONE', *, *, #1037, .T. ) ;
#465 = LINE ( 'NONE', #92, #289 ) ;
#466 = DIRECTION ( 'NONE',  ( -0.000000000000000000, 1.000000000000000000, -0.000000000000000000 ) ) ;
#467 = CARTESIAN_POINT ( 'NONE',  ( -223.0000000000000000, 2.000000000000000000, -153.1499999999999488 ) ) ;
#468 = DIRECTION ( 'NONE',  ( 0.000000000000000000, 1.000000000000000000, -0.000000000000000000 ) ) ;
#469 = EDGE_CURVE ( 'NONE', #831, #207, #440, .T. ) ;
#470 = AXIS2_PLACEMENT_3D ( 'NONE', #2, #868, #1050 ) ;
#471 = CIRCLE ( 'NONE', #863, 3.000000000000002665 ) ;
#472 = AXIS2_PLACEMENT_3D ( 'NONE', #736, #649, #888 ) ;
#473 = AXIS2_PLACEMENT_3D ( 'NONE', #24, #466, #113 ) ;
#474 = DIRECTION ( 'NONE',  ( -1.000000000000000000, 0.000000000000000000, 4.331169146782128970E-15 ) ) ;
#475 = DIRECTION ( 'NONE',  ( -0.000000000000000000, -1.000000000000000000, 0.000000000000000000 ) ) ;
#476 = VERTEX_POINT ( 'NONE', #1025 ) ;
#477 = DIRECTION ( 'NONE',  ( 0.000000000000000000, 0.000000000000000000, 1.000000000000000000 ) ) ;
#478 = ORIENTED_EDGE ( 'NONE', *, *, #509, .F. ) ;
#479 = DIRECTION ( 'NONE',  ( 0.000000000000000000, 0.000000000000000000, -1.000000000000000000 ) ) ;
#480 = CARTESIAN_POINT ( 'NONE',  ( -204.7749200000061478, 0.000000000000000000, -94.39899999999856561 ) ) ;
#481 = PLANE ( 'NONE',  #730 ) ;
#482 = EDGE_CURVE ( 'NONE', #154, #11, #918, .T. ) ;
#483 = DIRECTION ( 'NONE',  ( 0.000000000000000000, 0.000000000000000000, 1.000000000000000000 ) ) ;
#484 = ORIENTED_EDGE ( 'NONE', *, *, #82, .F. ) ;
#485 = AXIS2_PLACEMENT_3D ( 'NONE', #94, #543, #444 ) ;
#486 =( GEOMETRIC_REPRESENTATION_CONTEXT ( 3 ) GLOBAL_UNCERTAINTY_ASSIGNED_CONTEXT ( ( #978 ) ) GLOBAL_UNIT_ASSIGNED_CONTEXT ( ( #1006, #586, #838 ) ) REPRESENTATION_CONTEXT ( 'NONE', 'WORKASPACE' ) );
#487 = CARTESIAN_POINT ( 'NONE',  ( -204.7749200000061478, 0.000000000000000000, -94.39899999999856561 ) ) ;
#488 = LINE ( 'NONE', #830, #231 ) ;
#489 = FILL_AREA_STYLE_COLOUR ( '', #829 ) ;
#490 = ORIENTED_EDGE ( 'NONE', *, *, #1083, .T. ) ;
#491 = EDGE_CURVE ( 'NONE', #394, #170, #276, .T. ) ;
#492 = DIRECTION ( 'NONE',  ( -0.000000000000000000, 1.000000000000000000, -0.000000000000000000 ) ) ;
#493 = ORIENTED_EDGE ( 'NONE', *, *, #525, .T. ) ;
#494 = DIRECTION ( 'NONE',  ( -0.000000000000000000, 1.000000000000000000, -0.000000000000000000 ) ) ;
#495 = CARTESIAN_POINT ( 'NONE',  ( -223.0000000000000000, 2.000000000000000000, 156.1500000000000341 ) ) ;
#496 = LINE ( 'NONE', #176, #1091 ) ;
#497 = LINE ( 'NONE', #1042, #577 ) ;
#498 = ORIENTED_EDGE ( 'NONE', *, *, #261, .T. ) ;
#499 = VERTEX_POINT ( 'NONE', #606 ) ;
#500 = EDGE_CURVE ( 'NONE', #584, #394, #97, .T. ) ;
#501 = APPLICATION_PROTOCOL_DEFINITION ( 'draft international standard', 'automotive_design', 1998, #541 ) ;
#502 = CIRCLE ( 'NONE', #250, 17.49999999999998934 ) ;
#503 = CIRCLE ( 'NONE', #929, 2.500000000000002220 ) ;
#504 = ORIENTED_EDGE ( 'NONE', *, *, #26, .F. ) ;
#505 = CARTESIAN_POINT ( 'NONE',  ( 212.5605339059306118, 0.000000000000000000, -128.7080339059313872 ) ) ;
#506 = CARTESIAN_POINT ( 'NONE',  ( 195.0605339059306118, 0.000000000000000000, -128.7080339059313872 ) ) ;
#507 = ORIENTED_EDGE ( 'NONE', *, *, #623, .T. ) ;
#508 = VERTEX_POINT ( 'NONE', #356 ) ;
#509 = EDGE_CURVE ( 'NONE', #132, #460, #174, .T. ) ;
#510 = DIRECTION ( 'NONE',  ( -0.000000000000000000, 1.000000000000000000, -0.000000000000000000 ) ) ;
#511 = PLANE ( 'NONE',  #322 ) ;
#512 = CARTESIAN_POINT ( 'NONE',  ( -223.0000000000000000, 0.000000000000000000, 153.1500000000000341 ) ) ;
#513 = DIRECTION ( 'NONE',  ( -1.443723048927378098E-15, 0.000000000000000000, -1.000000000000000000 ) ) ;
#514 = CIRCLE ( 'NONE', #29, 14.70000000000001883 ) ;
#515 = DIRECTION ( 'NONE',  ( -0.000000000000000000, 1.000000000000000000, -0.000000000000000000 ) ) ;
#516 = ORIENTED_EDGE ( 'NONE', *, *, #940, .F. ) ;
#517 = PRESENTATION_LAYER_ASSIGNMENT (  '', '', ( #365 ) ) ;
#518 = EDGE_LOOP ( 'NONE', ( #825, #169 ) ) ;
#519 = ORIENTED_EDGE ( 'NONE', *, *, #343, .F. ) ;
#520 = EDGE_CURVE ( 'NONE', #3, #562, #414, .T. ) ;
#521 = PLANE ( 'NONE',  #304 ) ;
#522 = CARTESIAN_POINT ( 'NONE',  ( 177.5605339059306402, 2.000000000000000000, -153.6499999999993804 ) ) ;
#523 = CARTESIAN_POINT ( 'NONE',  ( 223.0000000000000000, 2.000000000000000000, -153.1500000000000057 ) ) ;
#524 = DIRECTION ( 'NONE',  ( 0.000000000000000000, 0.000000000000000000, 1.000000000000000000 ) ) ;
#525 = EDGE_CURVE ( 'NONE', #251, #757, #139, .T. ) ;
#526 = PRODUCT_DEFINITION_CONTEXT ( 'detailed design', #541, 'design' ) ;
#527 = CARTESIAN_POINT ( 'NONE',  ( 226.0000000000000000, 2.000000000000000000, -133.9249999999999545 ) ) ;
#528 = AXIS2_PLACEMENT_3D ( 'NONE', #320, #494, #63 ) ;
#529 = CYLINDRICAL_SURFACE ( 'NONE', #485, 14.70000000000001883 ) ;
#530 = VECTOR ( 'NONE', #81, 1000.000000000000000 ) ;
#531 = LINE ( 'NONE', #297, #66 ) ;
#532 = AXIS2_PLACEMENT_3D ( 'NONE', #49, #1070, #323 ) ;
#533 = ORIENTED_EDGE ( 'NONE', *, *, #185, .F. ) ;
#534 = ORIENTED_EDGE ( 'NONE', *, *, #959, .F. ) ;
#535 = CARTESIAN_POINT ( 'NONE',  ( -223.0000000000000000, 2.000000000000000000, -156.1499999999999488 ) ) ;
#536 = ADVANCED_FACE ( 'NONE', ( #1098 ), #187, .T. ) ;
#537 = DIRECTION ( 'NONE',  ( 0.000000000000000000, 0.000000000000000000, -1.000000000000000000 ) ) ;
#538 = ORIENTED_EDGE ( 'NONE', *, *, #520, .F. ) ;
#539 = EDGE_CURVE ( 'NONE', #558, #394, #307, .T. ) ;
#540 = CARTESIAN_POINT ( 'NONE',  ( 175.0605339059306402, 0.000000000000000000, -156.1499999999993804 ) ) ;
#541 = APPLICATION_CONTEXT ( 'automotive_design' ) ;
#542 = ORIENTED_EDGE ( 'NONE', *, *, #820, .F. ) ;
#543 = DIRECTION ( 'NONE',  ( -0.000000000000000000, 1.000000000000000000, -0.000000000000000000 ) ) ;
#544 = CARTESIAN_POINT ( 'NONE',  ( 204.7749200000058920, 0.000000000000000000, -91.79899999999862814 ) ) ;
#545 = ORIENTED_EDGE ( 'NONE', *, *, #701, .F. ) ;
#546 = VECTOR ( 'NONE', #847, 1000.000000000000000 ) ;
#547 = CIRCLE ( 'NONE', #1067, 14.70000000000001883 ) ;
#548 = DIRECTION ( 'NONE',  ( 0.000000000000000000, 0.000000000000000000, 1.000000000000000000 ) ) ;
#549 = CARTESIAN_POINT ( 'NONE',  ( 212.5605339059306118, 0.000000000000000000, -128.7080339059313872 ) ) ;
#550 = VERTEX_POINT ( 'NONE', #874 ) ;
#551 = ADVANCED_FACE ( 'NONE', ( #881 ), #54, .F. ) ;
#552 = CARTESIAN_POINT ( 'NONE',  ( -183.8650000000020839, 0.000000000000000000, -128.7124999999984141 ) ) ;
#553 = LINE ( 'NONE', #535, #7 ) ;
#554 = CARTESIAN_POINT ( 'NONE',  ( 195.0605339059306118, 0.000000000000000000, -111.2080339059314014 ) ) ;
#555 = CYLINDRICAL_SURFACE ( 'NONE', #1005, 2.500000000000002220 ) ;
#556 = CARTESIAN_POINT ( 'NONE',  ( 212.5605339059306118, 2.000000000000000000, -153.6499999999993236 ) ) ;
#557 = EDGE_CURVE ( 'NONE', #213, #991, #1078, .T. ) ;
#558 = VERTEX_POINT ( 'NONE', #13 ) ;
#559 = SURFACE_STYLE_FILL_AREA ( #997 ) ;
#560 =( GEOMETRIC_REPRESENTATION_CONTEXT ( 3 ) GLOBAL_UNCERTAINTY_ASSIGNED_CONTEXT ( ( #811 ) ) GLOBAL_UNIT_ASSIGNED_CONTEXT ( ( #910, #334, #1020 ) ) REPRESENTATION_CONTEXT ( 'NONE', 'WORKASPACE' ) );
#561 = CIRCLE ( 'NONE', #87, 2.500000000000002220 ) ;
#562 = VERTEX_POINT ( 'NONE', #209 ) ;
#563 = DIRECTION ( 'NONE',  ( 0.000000000000000000, 0.000000000000000000, -1.000000000000000000 ) ) ;
#564 = AXIS2_PLACEMENT_3D ( 'NONE', #4, #670, #340 ) ;
#565 = ORIENTED_EDGE ( 'NONE', *, *, #279, .F. ) ;
#566 = AXIS2_PLACEMENT_3D ( 'NONE', #506, #837, #1088 ) ;
#567 = EDGE_CURVE ( 'NONE', #142, #683, #764, .T. ) ;
#568 = DIRECTION ( 'NONE',  ( 0.000000000000000000, 0.000000000000000000, 1.000000000000000000 ) ) ;
#569 = CARTESIAN_POINT ( 'NONE',  ( 223.0000000000000000, 2.000000000000000000, -156.1500000000000057 ) ) ;
#570 = CARTESIAN_POINT ( 'NONE',  ( 215.0605339059305834, 0.000000000000000000, -156.1499999999993236 ) ) ;
#571 = EDGE_CURVE ( 'NONE', #562, #659, #1051, .T. ) ;
#572 = CYLINDRICAL_SURFACE ( 'NONE', #102, 14.70000000000001883 ) ;
#573 = VERTEX_POINT ( 'NONE', #195 ) ;
#574 = CARTESIAN_POINT ( 'NONE',  ( -204.7749200000058352, 2.000000000000000000, 95.49900000000027944 ) ) ;
#575 = CARTESIAN_POINT ( 'NONE',  ( -204.7749200000061478, 0.000000000000000000, -96.99899999999828992 ) ) ;
#576 = EDGE_CURVE ( 'NONE', #1044, #221, #531, .T. ) ;
#577 = VECTOR ( 'NONE', #616, 1000.000000000000000 ) ;
#578 = DIRECTION ( 'NONE',  ( 0.000000000000000000, 0.000000000000000000, -1.000000000000000000 ) ) ;
#579 = CIRCLE ( 'NONE', #5, 2.599999999999991207 ) ;
#580 = CIRCLE ( 'NONE', #950, 2.599999999999991207 ) ;
#581 = ORIENTED_EDGE ( 'NONE', *, *, #58, .T. ) ;
#582 = ORIENTED_EDGE ( 'NONE', *, *, #782, .T. ) ;
#583 = EDGE_CURVE ( 'NONE', #353, #1076, #791, .T. ) ;
#584 = VERTEX_POINT ( 'NONE', #211 ) ;
#585 = DIRECTION ( 'NONE',  ( -0.000000000000000000, -1.000000000000000000, -0.000000000000000000 ) ) ;
#586 =( NAMED_UNIT ( * ) PLANE_ANGLE_UNIT ( ) SI_UNIT ( $, .RADIAN. ) );
#587 = CARTESIAN_POINT ( 'NONE',  ( 212.5605339059306118, 2.000000000000000000, -128.7080339059313872 ) ) ;
#588 = ORIENTED_EDGE ( 'NONE', *, *, #1071, .T. ) ;
#589 = ORIENTED_EDGE ( 'NONE', *, *, #652, .T. ) ;
#590 = EDGE_LOOP ( 'NONE', ( #975, #758, #155, #379 ) ) ;
#591 = CARTESIAN_POINT ( 'NONE',  ( 223.0000000000000000, 2.000000000000000000, -156.1500000000000057 ) ) ;
#592 = CARTESIAN_POINT ( 'NONE',  ( -223.0000000000000000, 0.000000000000000000, -156.1499999999999488 ) ) ;
#593 = ORIENTED_EDGE ( 'NONE', *, *, #788, .T. ) ;
#594 = ORIENTED_EDGE ( 'NONE', *, *, #125, .T. ) ;
#595 = DIRECTION ( 'NONE',  ( 0.000000000000000000, 1.000000000000000000, -0.000000000000000000 ) ) ;
#596 = ORIENTED_EDGE ( 'NONE', *, *, #755, .T. ) ;
#597 = CIRCLE ( 'NONE', #638, 2.599999999999991207 ) ;
#598 = AXIS2_PLACEMENT_3D ( 'NONE', #299, #828, #754 ) ;
#599 = AXIS2_PLACEMENT_3D ( 'NONE', #983, #336, #568 ) ;
#600 = LINE ( 'NONE', #544, #232 ) ;
#601 = LINE ( 'NONE', #852, #429 ) ;
#602 = DIRECTION ( 'NONE',  ( 0.000000000000000000, 1.000000000000000000, 0.000000000000000000 ) ) ;
#603 = ADVANCED_FACE ( 'NONE', ( #128 ), #481, .F. ) ;
#604 = LINE ( 'NONE', #391, #1086 ) ;
#605 = DIRECTION ( 'NONE',  ( 0.000000000000000000, 1.000000000000000000, 0.000000000000000000 ) ) ;
#606 = CARTESIAN_POINT ( 'NONE',  ( -181.3650000000020270, 2.000000000000000000, -156.1499999999994373 ) ) ;
#607 = FACE_OUTER_BOUND ( 'NONE', #957, .T. ) ;
#608 = SURFACE_STYLE_USAGE ( .BOTH. , #673 ) ;
#609 = LINE ( 'NONE', #943, #361 ) ;
#610 = CARTESIAN_POINT ( 'NONE',  ( 177.5605339059306402, 2.000000000000000000, -128.7080339059313872 ) ) ;
#611 = ADVANCED_FACE ( 'NONE', ( #141 ), #511, .F. ) ;
#612 = CARTESIAN_POINT ( 'NONE',  ( 223.0000000000000568, 0.000000000000000000, 156.1499999999999773 ) ) ;
#613 = CARTESIAN_POINT ( 'NONE',  ( -215.7650000000020611, 0.000000000000000000, -153.6499999999999488 ) ) ;
#614 = DIRECTION ( 'NONE',  ( 0.000000000000000000, 0.000000000000000000, 1.000000000000000000 ) ) ;
#615 = VECTOR ( 'NONE', #537, 1000.000000000000000 ) ;
#616 = DIRECTION ( 'NONE',  ( -0.000000000000000000, -1.000000000000000000, -0.000000000000000000 ) ) ;
#617 = PLANE ( 'NONE',  #201 ) ;
#618 = AXIS2_PLACEMENT_3D ( 'NONE', #424, #76, #298 ) ;
#619 = AXIS2_PLACEMENT_3D ( 'NONE', #318, #312, #887 ) ;
#620 = CIRCLE ( 'NONE', #599, 2.599999999999991207 ) ;
#621 = CIRCLE ( 'NONE', #140, 2.599999999999727418 ) ;
#622 = CARTESIAN_POINT ( 'NONE',  ( 177.5605339059306402, 0.000000000000000000, -153.6499999999993804 ) ) ;
#623 = EDGE_CURVE ( 'NONE', #1023, #3, #772, .T. ) ;
#624 = ORIENTED_EDGE ( 'NONE', *, *, #491, .T. ) ;
#625 = CARTESIAN_POINT ( 'NONE',  ( -223.0000000000000000, 0.000000000000000000, -156.1499999999999488 ) ) ;
#626 = LINE ( 'NONE', #1057, #319 ) ;
#627 = CARTESIAN_POINT ( 'NONE',  ( -204.7749200000058352, 2.000000000000000000, 92.89900000000028513 ) ) ;
#628 = ORIENTED_EDGE ( 'NONE', *, *, #725, .T. ) ;
#629 = DIRECTION ( 'NONE',  ( 0.000000000000000000, 1.000000000000000000, 0.000000000000000000 ) ) ;
#630 = ORIENTED_EDGE ( 'NONE', *, *, #387, .F. ) ;
#631 = FACE_OUTER_BOUND ( 'NONE', #225, .T. ) ;
#632 = DIRECTION ( 'NONE',  ( 0.000000000000000000, 0.000000000000000000, -1.000000000000000000 ) ) ;
#633 = VERTEX_POINT ( 'NONE', #936 ) ;
#634 = CARTESIAN_POINT ( 'NONE',  ( 223.0000000000000000, 0.000000000000000000, -156.1500000000000057 ) ) ;
#635 = EDGE_LOOP ( 'NONE', ( #876, #326, #927, #507 ) ) ;
#636 = DIRECTION ( 'NONE',  ( 0.000000000000000000, 1.000000000000000000, -0.000000000000000000 ) ) ;
#637 = AXIS2_PLACEMENT_3D ( 'NONE', #527, #860, #374 ) ;
#638 = AXIS2_PLACEMENT_3D ( 'NONE', #627, #956, #801 ) ;
#639 = AXIS2_PLACEMENT_3D ( 'NONE', #790, #803, #110 ) ;
#640 = AXIS2_PLACEMENT_3D ( 'NONE', #1097, #448, #891 ) ;
#641 = PRODUCT_CONTEXT ( 'NONE', #902, 'mechanical' ) ;
#642 = VECTOR ( 'NONE', #885, 1000.000000000000000 ) ;
#643 = AXIS2_PLACEMENT_3D ( 'NONE', #270, #935, #851 ) ;
#644 = CARTESIAN_POINT ( 'NONE',  ( -213.2650000000020611, 0.000000000000000000, -153.6499999999999488 ) ) ;
#645 = ORIENTED_EDGE ( 'NONE', *, *, #717, .F. ) ;
#646 = ADVANCED_FACE ( 'NONE', ( #780 ), #366, .F. ) ;
#647 = DIRECTION ( 'NONE',  ( -4.331169146782128970E-15, 0.000000000000000000, -1.000000000000000000 ) ) ;
#648 = VERTEX_POINT ( 'NONE', #677 ) ;
#649 = DIRECTION ( 'NONE',  ( 0.000000000000000000, 1.000000000000000000, 0.000000000000000000 ) ) ;
#650 = FACE_OUTER_BOUND ( 'NONE', #33, .T. ) ;
#651 = DIRECTION ( 'NONE',  ( 0.000000000000000000, 1.000000000000000000, -0.000000000000000000 ) ) ;
#652 = EDGE_CURVE ( 'NONE', #1017, #353, #1011, .T. ) ;
#653 = CARTESIAN_POINT ( 'NONE',  ( 204.7749200000058920, 0.000000000000000000, -94.39899999999862246 ) ) ;
#654 = VECTOR ( 'NONE', #513, 1000.000000000000000 ) ;
#655 = VECTOR ( 'NONE', #277, 1000.000000000000000 ) ;
#656 = VECTOR ( 'NONE', #286, 1000.000000000000000 ) ;
#657 = ADVANCED_FACE ( 'NONE', ( #434 ), #118, .F. ) ;
#658 = CIRCLE ( 'NONE', #218, 3.000000000000002665 ) ;
#659 = VERTEX_POINT ( 'NONE', #612 ) ;
#660 = EDGE_LOOP ( 'NONE', ( #589, #709, #516, #898 ) ) ;
#661 = EDGE_LOOP ( 'NONE', ( #44, #789 ) ) ;
#662 = APPLICATION_PROTOCOL_DEFINITION ( 'draft international standard', 'automotive_design', 1998, #902 ) ;
#663 = DIRECTION ( 'NONE',  ( 0.000000000000000000, 0.000000000000000000, 1.000000000000000000 ) ) ;
#664 = ORIENTED_EDGE ( 'NONE', *, *, #273, .T. ) ;
#665 = DIRECTION ( 'NONE',  ( 0.000000000000000000, 0.000000000000000000, -1.000000000000000000 ) ) ;
#666 = ORIENTED_EDGE ( 'NONE', *, *, #955, .F. ) ;
#667 = ADVANCED_FACE ( 'NONE', ( #459 ), #205, .F. ) ;
#668 = DIRECTION ( 'NONE',  ( 0.000000000000000000, 0.000000000000000000, -1.000000000000000000 ) ) ;
#669 = AXIS2_PLACEMENT_3D ( 'NONE', #613, #200, #367 ) ;
#670 = DIRECTION ( 'NONE',  ( 0.000000000000000000, 1.000000000000000000, 0.000000000000000000 ) ) ;
#671 = VECTOR ( 'NONE', #775, 1000.000000000000000 ) ;
#672 = LINE ( 'NONE', #920, #654 ) ;
#673 = SURFACE_SIDE_STYLE ('',( #559 ) ) ;
#674 = CARTESIAN_POINT ( 'NONE',  ( 204.7749200000058920, 0.000000000000000000, -94.39899999999862246 ) ) ;
#675 = AXIS2_PLACEMENT_3D ( 'NONE', #30, #636, #214 ) ;
#676 = DIRECTION ( 'NONE',  ( -1.000000000000000000, 0.000000000000000000, 1.443723048927382240E-15 ) ) ;
#677 = CARTESIAN_POINT ( 'NONE',  ( -181.3650000000020270, 0.000000000000000000, -156.1499999999998920 ) ) ;
#678 = FACE_OUTER_BOUND ( 'NONE', #415, .T. ) ;
#679 = CARTESIAN_POINT ( 'NONE',  ( -213.2650000000020611, 2.000000000000000000, -153.6499999999999488 ) ) ;
#680 = ORIENTED_EDGE ( 'NONE', *, *, #539, .T. ) ;
#681 = CARTESIAN_POINT ( 'NONE',  ( 215.0605339059305834, 2.000000000000000000, -153.6499999999993236 ) ) ;
#682 = FACE_BOUND ( 'NONE', #738, .T. ) ;
#683 = VERTEX_POINT ( 'NONE', #1059 ) ;
#684 = EDGE_LOOP ( 'NONE', ( #504, #962, #166, #266 ) ) ;
#685 = EDGE_CURVE ( 'NONE', #499, #508, #503, .T. ) ;
#686 = CIRCLE ( 'NONE', #470, 2.599999999999727418 ) ;
#687 = AXIS2_PLACEMENT_3D ( 'NONE', #1035, #763, #349 ) ;
#688 = ORIENTED_EDGE ( 'NONE', *, *, #337, .F. ) ;
#689 = VECTOR ( 'NONE', #904, 1000.000000000000000 ) ;
#690 = VERTEX_POINT ( 'NONE', #770 ) ;
#691 = DIRECTION ( 'NONE',  ( 0.000000000000000000, 1.000000000000000000, 0.000000000000000000 ) ) ;
#692 = EDGE_CURVE ( 'NONE', #573, #357, #129, .T. ) ;
#693 = EDGE_LOOP ( 'NONE', ( #700, #421 ) ) ;
#694 = DIRECTION ( 'NONE',  ( 0.000000000000000000, 0.000000000000000000, 1.000000000000000000 ) ) ;
#695 = DIRECTION ( 'NONE',  ( 0.000000000000000000, 0.000000000000000000, -1.000000000000000000 ) ) ;
#696 = LINE ( 'NONE', #1041, #412 ) ;
#697 = ORIENTED_EDGE ( 'NONE', *, *, #315, .F. ) ;
#698 = CARTESIAN_POINT ( 'NONE',  ( 215.0605339059305834, 2.000000000000000000, -156.1500000000000057 ) ) ;
#699 = VERTEX_POINT ( 'NONE', #416 ) ;
#700 = ORIENTED_EDGE ( 'NONE', *, *, #567, .F. ) ;
#701 = EDGE_CURVE ( 'NONE', #795, #648, #1034, .T. ) ;
#702 = DIRECTION ( 'NONE',  ( 0.000000000000000000, 1.000000000000000000, 0.000000000000000000 ) ) ;
#703 = CARTESIAN_POINT ( 'NONE',  ( 195.0605339059306118, 2.000000000000000000, -128.7080339059313872 ) ) ;
#704 = DIRECTION ( 'NONE',  ( -2.023185466287188356E-15, -0.000000000000000000, 1.000000000000000000 ) ) ;
#705 = DIRECTION ( 'NONE',  ( -0.000000000000000000, 1.000000000000000000, -0.000000000000000000 ) ) ;
#706 = ORIENTED_EDGE ( 'NONE', *, *, #82, .T. ) ;
#707 = ORIENTED_EDGE ( 'NONE', *, *, #70, .F. ) ;
#708 = CARTESIAN_POINT ( 'NONE',  ( 195.0605339059306118, 2.000000000000000000, -128.7080339059313872 ) ) ;
#709 = ORIENTED_EDGE ( 'NONE', *, *, #583, .T. ) ;
#710 = CARTESIAN_POINT ( 'NONE',  ( -204.7749200000058352, 0.000000000000000000, 95.49900000000027944 ) ) ;
#711 = FACE_OUTER_BOUND ( 'NONE', #716, .T. ) ;
#712 = LINE ( 'NONE', #945, #800 ) ;
#713 = DIRECTION ( 'NONE',  ( 1.000000000000000000, -0.000000000000000000, -4.331169146782128181E-15 ) ) ;
#714 = CARTESIAN_POINT ( 'NONE',  ( -204.7749200000061478, 0.000000000000000000, -96.99899999999828992 ) ) ;
#715 = DIRECTION ( 'NONE',  ( -0.000000000000000000, 1.000000000000000000, -0.000000000000000000 ) ) ;
#716 = EDGE_LOOP ( 'NONE', ( #457, #785, #734, #745 ) ) ;
#717 = EDGE_CURVE ( 'NONE', #1076, #170, #267, .T. ) ;
#718 = CARTESIAN_POINT ( 'NONE',  ( 175.0605339059306402, 0.000000000000000000, -153.6499999999993804 ) ) ;
#719 = CYLINDRICAL_SURFACE ( 'NONE', #136, 2.500000000000002220 ) ;
#720 = DIRECTION ( 'NONE',  ( -0.000000000000000000, -1.000000000000000000, -0.000000000000000000 ) ) ;
#721 = DIRECTION ( 'NONE',  ( 0.000000000000000000, 0.000000000000000000, -1.000000000000000000 ) ) ;
#722 = LINE ( 'NONE', #303, #844 ) ;
#723 = CARTESIAN_POINT ( 'NONE',  ( -181.3650000000020270, 2.000000000000000000, -153.6499999999998920 ) ) ;
#724 = ORIENTED_EDGE ( 'NONE', *, *, #8, .T. ) ;
#725 = EDGE_CURVE ( 'NONE', #153, #236, #553, .T. ) ;
#726 = CARTESIAN_POINT ( 'NONE',  ( -183.8650000000020839, 0.000000000000000000, -128.7124999999984141 ) ) ;
#727 = ORIENTED_EDGE ( 'NONE', *, *, #946, .F. ) ;
#728 = VECTOR ( 'NONE', #463, 1000.000000000000000 ) ;
#729 = AXIS2_PLACEMENT_3D ( 'NONE', #760, #492, #203 ) ;
#730 = AXIS2_PLACEMENT_3D ( 'NONE', #227, #42, #1066 ) ;
#731 = CIRCLE ( 'NONE', #398, 17.49999999999998934 ) ;
#732 = CARTESIAN_POINT ( 'NONE',  ( -181.3650000000020270, 2.000000000000000000, -153.6499999999998920 ) ) ;
#733 = EDGE_CURVE ( 'NONE', #757, #251, #163, .T. ) ;
#734 = ORIENTED_EDGE ( 'NONE', *, *, #692, .F. ) ;
#735 = ORIENTED_EDGE ( 'NONE', *, *, #971, .T. ) ;
#736 = CARTESIAN_POINT ( 'NONE',  ( -204.7749200000058352, 0.000000000000000000, 92.89900000000028513 ) ) ;
#737 = CARTESIAN_POINT ( 'NONE',  ( 204.7749200000058636, 2.000000000000000000, 95.49900000000029365 ) ) ;
#738 = EDGE_LOOP ( 'NONE', ( #252, #268 ) ) ;
#739 = DIRECTION ( 'NONE',  ( -0.000000000000000000, -1.000000000000000000, -0.000000000000000000 ) ) ;
#740 = CYLINDRICAL_SURFACE ( 'NONE', #1087, 17.49999999999998934 ) ;
#741 = VERTEX_POINT ( 'NONE', #278 ) ;
#742 = ADVANCED_FACE ( 'NONE', ( #926, #682, #263, #932, #184 ), #93, .T. ) ;
#743 = FACE_OUTER_BOUND ( 'NONE', #314, .T. ) ;
#744 = ORIENTED_EDGE ( 'NONE', *, *, #462, .T. ) ;
#745 = ORIENTED_EDGE ( 'NONE', *, *, #410, .T. ) ;
#746 = ORIENTED_EDGE ( 'NONE', *, *, #886, .F. ) ;
#747 = ORIENTED_EDGE ( 'NONE', *, *, #959, .T. ) ;
#748 = CARTESIAN_POINT ( 'NONE',  ( -181.3650000000020270, 2.000000000000000000, -156.1499999999998920 ) ) ;
#749 = DIRECTION ( 'NONE',  ( 1.000000000000000000, 0.000000000000000000, 1.443723048927382240E-15 ) ) ;
#750 = FACE_BOUND ( 'NONE', #776, .T. ) ;
#751 = AXIS2_PLACEMENT_3D ( 'NONE', #813, #401, #749 ) ;
#752 = ORIENTED_EDGE ( 'NONE', *, *, #58, .F. ) ;
#753 = DIRECTION ( 'NONE',  ( 0.000000000000000000, -0.000000000000000000, -1.000000000000000000 ) ) ;
#754 = DIRECTION ( 'NONE',  ( 0.000000000000000000, 0.000000000000000000, -1.000000000000000000 ) ) ;
#755 = EDGE_CURVE ( 'NONE', #1023, #573, #658, .T. ) ;
#756 = DIRECTION ( 'NONE',  ( -0.000000000000000000, 1.000000000000000000, -0.000000000000000000 ) ) ;
#757 = VERTEX_POINT ( 'NONE', #856 ) ;
#758 = ORIENTED_EDGE ( 'NONE', *, *, #946, .T. ) ;
#759 = FACE_BOUND ( 'NONE', #693, .T. ) ;
#760 = CARTESIAN_POINT ( 'NONE',  ( -204.7749200000058352, 0.000000000000000000, 92.89900000000028513 ) ) ;
#761 = CARTESIAN_POINT ( 'NONE',  ( -223.0000000000000000, 2.000000000000000000, 153.1500000000000341 ) ) ;
#762 = EDGE_CURVE ( 'NONE', #106, #815, #947, .T. ) ;
#763 = DIRECTION ( 'NONE',  ( 1.000000000000000000, 0.000000000000000000, 2.023185466287188356E-15 ) ) ;
#764 = CIRCLE ( 'NONE', #949, 2.599999999999991207 ) ;
#765 = LINE ( 'NONE', #925, #164 ) ;
#766 = VECTOR ( 'NONE', #368, 1000.000000000000000 ) ;
#767 = DIRECTION ( 'NONE',  ( 0.000000000000000000, 0.000000000000000000, -1.000000000000000000 ) ) ;
#768 = DIRECTION ( 'NONE',  ( -1.000000000000000000, -0.000000000000000000, -1.443723048927382240E-15 ) ) ;
#769 = ADVANCED_FACE ( 'NONE', ( #126 ), #964, .F. ) ;
#770 = CARTESIAN_POINT ( 'NONE',  ( 225.9999999999999716, 0.000000000000000000, -153.1500000000000057 ) ) ;
#771 = ORIENTED_EDGE ( 'NONE', *, *, #539, .F. ) ;
#772 = LINE ( 'NONE', #171, #842 ) ;
#773 = ADVANCED_FACE ( 'NONE', ( #405 ), #572, .F. ) ;
#774 = CYLINDRICAL_SURFACE ( 'NONE', #640, 3.000000000000002665 ) ;
#775 = DIRECTION ( 'NONE',  ( -0.000000000000000000, 1.000000000000000000, -0.000000000000000000 ) ) ;
#776 = EDGE_LOOP ( 'NONE', ( #108, #1054 ) ) ;
#777 = DIRECTION ( 'NONE',  ( -0.000000000000000000, -1.000000000000000000, -0.000000000000000000 ) ) ;
#778 = ORIENTED_EDGE ( 'NONE', *, *, #583, .F. ) ;
#779 = ORIENTED_EDGE ( 'NONE', *, *, #104, .F. ) ;
#780 = FACE_OUTER_BOUND ( 'NONE', #590, .T. ) ;
#781 = PRODUCT_DEFINITION_SHAPE ( 'NONE', 'NONE',  #931 ) ;
#782 = EDGE_CURVE ( 'NONE', #815, #894, #547, .T. ) ;
#783 = AXIS2_PLACEMENT_3D ( 'NONE', #674, #84, #1 ) ;
#784 = CARTESIAN_POINT ( 'NONE',  ( -226.0000000000000000, 0.000000000000000000, 153.1500000000000341 ) ) ;
#785 = ORIENTED_EDGE ( 'NONE', *, *, #242, .F. ) ;
#786 = VERTEX_POINT ( 'NONE', #938 ) ;
#787 = VERTEX_POINT ( 'NONE', #190 ) ;
#788 = EDGE_CURVE ( 'NONE', #1081, #353, #453, .T. ) ;
#789 = ORIENTED_EDGE ( 'NONE', *, *, #1085, .F. ) ;
#790 = CARTESIAN_POINT ( 'NONE',  ( -198.5650000000021009, 0.000000000000000000, -128.7124999999984141 ) ) ;
#791 = LINE ( 'NONE', #21, #656 ) ;
#792 = ORIENTED_EDGE ( 'NONE', *, *, #1037, .F. ) ;
#793 = CARTESIAN_POINT ( 'NONE',  ( -213.2650000000021180, 0.000000000000000000, -128.7124999999984141 ) ) ;
#794 = ORIENTED_EDGE ( 'NONE', *, *, #249, .F. ) ;
#795 = VERTEX_POINT ( 'NONE', #540 ) ;
#796 = CARTESIAN_POINT ( 'NONE',  ( -203.7749999999999204, 2.000000000000000000, 156.1500000000001194 ) ) ;
#797 = FACE_OUTER_BOUND ( 'NONE', #79, .T. ) ;
#798 = DIRECTION ( 'NONE',  ( 1.000000000000000000, 0.000000000000000000, 0.000000000000000000 ) ) ;
#799 = DIRECTION ( 'NONE',  ( 0.000000000000000000, 0.000000000000000000, 1.000000000000000000 ) ) ;
#800 = VECTOR ( 'NONE', #285, 1000.000000000000000 ) ;
#801 = DIRECTION ( 'NONE',  ( 0.000000000000000000, 0.000000000000000000, 1.000000000000000000 ) ) ;
#802 = ORIENTED_EDGE ( 'NONE', *, *, #924, .T. ) ;
#803 = DIRECTION ( 'NONE',  ( 0.000000000000000000, 1.000000000000000000, 0.000000000000000000 ) ) ;
#804 = CIRCLE ( 'NONE', #1065, 2.599999999999727418 ) ;
#805 = EDGE_CURVE ( 'NONE', #683, #142, #580, .T. ) ;
#806 = DIRECTION ( 'NONE',  ( 1.000000000000000000, -0.000000000000000000, 0.000000000000000000 ) ) ;
#807 = CARTESIAN_POINT ( 'NONE',  ( 223.0000000000000000, 0.000000000000000000, -153.1500000000000057 ) ) ;
#808 = ORIENTED_EDGE ( 'NONE', *, *, #1064, .T. ) ;
#809 = DIRECTION ( 'NONE',  ( 0.000000000000000000, 1.000000000000000000, 0.000000000000000000 ) ) ;
#810 = EDGE_CURVE ( 'NONE', #425, #439, #804, .T. ) ;
#811 = UNCERTAINTY_MEASURE_WITH_UNIT (LENGTH_MEASURE( 1.000000000000000082E-05 ), #910, 'distance_accuracy_value', 'NONE');
#812 = CARTESIAN_POINT ( 'NONE',  ( -183.8650000000020839, 2.000000000000000000, -128.7124999999984141 ) ) ;
#813 = CARTESIAN_POINT ( 'NONE',  ( -223.0000000000000000, 2.000000000000000000, -156.1499999999999488 ) ) ;
#814 = LINE ( 'NONE', #144, #530 ) ;
#815 = VERTEX_POINT ( 'NONE', #869 ) ;
#816 = VECTOR ( 'NONE', #1068, 1000.000000000000000 ) ;
#817 = AXIS2_PLACEMENT_3D ( 'NONE', #653, #158, #341 ) ;
#818 = DIRECTION ( 'NONE',  ( 0.000000000000000000, 1.000000000000000000, -0.000000000000000000 ) ) ;
#819 = ORIENTED_EDGE ( 'NONE', *, *, #350, .T. ) ;
#820 = EDGE_CURVE ( 'NONE', #741, #584, #731, .T. ) ;
#821 = CARTESIAN_POINT ( 'NONE',  ( 177.5605339059306402, 0.000000000000000000, -128.7080339059313872 ) ) ;
#822 = ORIENTED_EDGE ( 'NONE', *, *, #272, .F. ) ;
#823 = LINE ( 'NONE', #554, #859 ) ;
#824 = ORIENTED_EDGE ( 'NONE', *, *, #762, .F. ) ;
#825 = ORIENTED_EDGE ( 'NONE', *, *, #449, .T. ) ;
#826 = AXIS2_PLACEMENT_3D ( 'NONE', #807, #691, #548 ) ;
#827 = ADVANCED_FACE ( 'NONE', ( #877 ), #25, .F. ) ;
#828 = DIRECTION ( 'NONE',  ( -0.000000000000000000, -1.000000000000000000, -0.000000000000000000 ) ) ;
#829 = COLOUR_RGB ( '',0.7921568627450980005, 0.8196078431372548767, 0.9333333333333333481 ) ;
#830 = CARTESIAN_POINT ( 'NONE',  ( 177.5605339059306402, 0.000000000000000000, -128.7080339059313872 ) ) ;
#831 = VERTEX_POINT ( 'NONE', #710 ) ;
#832 = ORIENTED_EDGE ( 'NONE', *, *, #491, .F. ) ;
#833 = ADVANCED_FACE ( 'NONE', ( #631 ), #555, .T. ) ;
#834 = CARTESIAN_POINT ( 'NONE',  ( -204.7749200000061478, 2.000000000000000000, -91.79899999999884130 ) ) ;
#835 = ORIENTED_EDGE ( 'NONE', *, *, #1083, .F. ) ;
#836 = FACE_BOUND ( 'NONE', #19, .T. ) ;
#837 = DIRECTION ( 'NONE',  ( -0.000000000000000000, 1.000000000000000000, -0.000000000000000000 ) ) ;
#838 =( NAMED_UNIT ( * ) SI_UNIT ( $, .STERADIAN. ) SOLID_ANGLE_UNIT ( ) );
#839 = EDGE_CURVE ( 'NONE', #787, #220, #50, .T. ) ;
#840 = ORIENTED_EDGE ( 'NONE', *, *, #907, .F. ) ;
#841 = FACE_OUTER_BOUND ( 'NONE', #90, .T. ) ;
#842 = VECTOR ( 'NONE', #585, 1000.000000000000000 ) ;
#843 = PRESENTATION_STYLE_ASSIGNMENT (( #608 ) ) ;
#844 = VECTOR ( 'NONE', #990, 1000.000000000000000 ) ;
#845 = EDGE_CURVE ( 'NONE', #476, #3, #722, .T. ) ;
#846 = ORIENTED_EDGE ( 'NONE', *, *, #191, .F. ) ;
#847 = DIRECTION ( 'NONE',  ( 0.000000000000000000, 0.000000000000000000, -1.000000000000000000 ) ) ;
#848 = ORIENTED_EDGE ( 'NONE', *, *, #185, .T. ) ;
#849 = CARTESIAN_POINT ( 'NONE',  ( -198.5650000000021009, 2.000000000000000000, -128.7124999999984141 ) ) ;
#850 = DIRECTION ( 'NONE',  ( 0.000000000000000000, 0.000000000000000000, 1.000000000000000000 ) ) ;
#851 = DIRECTION ( 'NONE',  ( 0.000000000000000000, 0.000000000000000000, 1.000000000000000000 ) ) ;
#852 = CARTESIAN_POINT ( 'NONE',  ( -198.5650000000021009, 0.000000000000000000, -114.0124999999984112 ) ) ;
#853 = LINE ( 'NONE', #450, #766 ) ;
#854 = EDGE_LOOP ( 'NONE', ( #1021, #498, #1080, #906, #905, #254, #293, #1072, #917, #316, #234, #458, #596, #182, #490, #848, #819, #435, #189, #832, #771, #1019 ) ) ;
#855 = CARTESIAN_POINT ( 'NONE',  ( 204.7749200000058920, 2.000000000000000000, -94.39899999999862246 ) ) ;
#856 = CARTESIAN_POINT ( 'NONE',  ( 204.7749200000058920, 0.000000000000000000, -96.99899999999861677 ) ) ;
#857 = ADVANCED_FACE ( 'NONE', ( #246 ), #914, .F. ) ;
#858 = AXIS2_PLACEMENT_3D ( 'NONE', #291, #206, #115 ) ;
#859 = VECTOR ( 'NONE', #1069, 1000.000000000000000 ) ;
#860 = DIRECTION ( 'NONE',  ( -1.000000000000000000, 0.000000000000000000, 1.443723048927378098E-15 ) ) ;
#861 = DIRECTION ( 'NONE',  ( 0.000000000000000000, 0.000000000000000000, 1.000000000000000000 ) ) ;
#862 = ORIENTED_EDGE ( 'NONE', *, *, #147, .T. ) ;
#863 = AXIS2_PLACEMENT_3D ( 'NONE', #1009, #651, #178 ) ;
#864 = DIRECTION ( 'NONE',  ( 0.000000000000000000, -0.000000000000000000, -1.000000000000000000 ) ) ;
#865 = ORIENTED_EDGE ( 'NONE', *, *, #886, .T. ) ;
#866 = LINE ( 'NONE', #389, #196 ) ;
#867 = CARTESIAN_POINT ( 'NONE',  ( -183.8650000000020270, 0.000000000000000000, -153.6499999999998920 ) ) ;
#868 = DIRECTION ( 'NONE',  ( 0.000000000000000000, 1.000000000000000000, 0.000000000000000000 ) ) ;
#869 = CARTESIAN_POINT ( 'NONE',  ( -213.2650000000021180, 2.000000000000000000, -128.7124999999984141 ) ) ;
#870 = ORIENTED_EDGE ( 'NONE', *, *, #387, .T. ) ;
#871 = ADVANCED_FACE ( 'NONE', ( #447 ), #74, .F. ) ;
#872 = LINE ( 'NONE', #194, #451 ) ;
#873 = ORIENTED_EDGE ( 'NONE', *, *, #482, .T. ) ;
#874 = CARTESIAN_POINT ( 'NONE',  ( 226.0000000000000568, 2.000000000000000000, 153.1499999999999773 ) ) ;
#875 = DIRECTION ( 'NONE',  ( 0.000000000000000000, 1.000000000000000000, -0.000000000000000000 ) ) ;
#876 = ORIENTED_EDGE ( 'NONE', *, *, #520, .T. ) ;
#877 = FACE_OUTER_BOUND ( 'NONE', #15, .T. ) ;
#878 = CIRCLE ( 'NONE', #135, 3.000000000000002665 ) ;
#879 = EDGE_CURVE ( 'NONE', #900, #1030, #930, .T. ) ;
#880 = AXIS2_PLACEMENT_3D ( 'NONE', #967, #705, #41 ) ;
#881 = FACE_OUTER_BOUND ( 'NONE', #909, .T. ) ;
#882 = CARTESIAN_POINT ( 'NONE',  ( 204.7749200000058920, 0.000000000000000000, -91.79899999999862814 ) ) ;
#883 = LINE ( 'NONE', #726, #157 ) ;
#884 = ORIENTED_EDGE ( 'NONE', *, *, #971, .F. ) ;
#885 = DIRECTION ( 'NONE',  ( -0.000000000000000000, 1.000000000000000000, -0.000000000000000000 ) ) ;
#886 = EDGE_CURVE ( 'NONE', #648, #499, #333, .T. ) ;
#887 = DIRECTION ( 'NONE',  ( 0.000000000000000000, 0.000000000000000000, -1.000000000000000000 ) ) ;
#888 = DIRECTION ( 'NONE',  ( 0.000000000000000000, 0.000000000000000000, 1.000000000000000000 ) ) ;
#889 = EDGE_CURVE ( 'NONE', #329, #1017, #1003, .T. ) ;
#890 = CIRCLE ( 'NONE', #1046, 17.49999999999998934 ) ;
#891 = DIRECTION ( 'NONE',  ( 0.000000000000000000, 0.000000000000000000, -1.000000000000000000 ) ) ;
#892 = VECTOR ( 'NONE', #122, 1000.000000000000000 ) ;
#893 = ORIENTED_EDGE ( 'NONE', *, *, #337, .T. ) ;
#894 = VERTEX_POINT ( 'NONE', #265 ) ;
#895 = FACE_OUTER_BOUND ( 'NONE', #150, .T. ) ;
#896 = CARTESIAN_POINT ( 'NONE',  ( -204.7749200000058352, 0.000000000000000000, 92.89900000000028513 ) ) ;
#897 = FACE_OUTER_BOUND ( 'NONE', #390, .T. ) ;
#898 = ORIENTED_EDGE ( 'NONE', *, *, #889, .T. ) ;
#899 = EDGE_CURVE ( 'NONE', #659, #786, #383, .T. ) ;
#900 = VERTEX_POINT ( 'NONE', #976 ) ;
#901 = CARTESIAN_POINT ( 'NONE',  ( -215.7650000000020611, 2.000000000000000000, -156.1499999999999488 ) ) ;
#902 = APPLICATION_CONTEXT ( 'automotive_design' ) ;
#903 = ORIENTED_EDGE ( 'NONE', *, *, #210, .T. ) ;
#904 = DIRECTION ( 'NONE',  ( -1.000000000000000000, 0.000000000000000000, 1.443723048927382240E-15 ) ) ;
#905 = ORIENTED_EDGE ( 'NONE', *, *, #454, .F. ) ;
#906 = ORIENTED_EDGE ( 'NONE', *, *, #685, .T. ) ;
#907 = EDGE_CURVE ( 'NONE', #306, #499, #313, .T. ) ;
#908 = VECTOR ( 'NONE', #1007, 1000.000000000000000 ) ;
#909 = EDGE_LOOP ( 'NONE', ( #840, #362, #988, #865 ) ) ;
#910 =( LENGTH_UNIT ( ) NAMED_UNIT ( * ) SI_UNIT ( .MILLI., .METRE. ) );
#911 = VECTOR ( 'NONE', #175, 1000.000000000000000 ) ;
#912 = ORIENTED_EDGE ( 'NONE', *, *, #393, .F. ) ;
#913 = VECTOR ( 'NONE', #88, 1000.000000000000000 ) ;
#914 = CYLINDRICAL_SURFACE ( 'NONE', #566, 17.49999999999998934 ) ;
#915 = CARTESIAN_POINT ( 'NONE',  ( -183.8650000000020839, 0.000000000000000000, -128.7124999999984141 ) ) ;
#916 = DIRECTION ( 'NONE',  ( 0.000000000000000000, 0.000000000000000000, -1.000000000000000000 ) ) ;
#917 = ORIENTED_EDGE ( 'NONE', *, *, #995, .T. ) ;
#918 = LINE ( 'NONE', #1018, #1027 ) ;
#919 = ADVANCED_FACE ( 'NONE', ( #994 ), #984, .F. ) ;
#920 = CARTESIAN_POINT ( 'NONE',  ( 226.0000000000000000, 0.000000000000000000, -133.9249999999999545 ) ) ;
#921 = ORIENTED_EDGE ( 'NONE', *, *, #219, .T. ) ;
#922 = ORIENTED_EDGE ( 'NONE', *, *, #131, .F. ) ;
#923 = ORIENTED_EDGE ( 'NONE', *, *, #331, .T. ) ;
#924 = EDGE_CURVE ( 'NONE', #1100, #633, #237, .T. ) ;
#925 = CARTESIAN_POINT ( 'NONE',  ( 223.0000000000000000, 2.000000000000000000, -156.1500000000000057 ) ) ;
#926 = FACE_OUTER_BOUND ( 'NONE', #436, .T. ) ;
#927 = ORIENTED_EDGE ( 'NONE', *, *, #755, .F. ) ;
#928 = LINE ( 'NONE', #348, #655 ) ;
#929 = AXIS2_PLACEMENT_3D ( 'NONE', #732, #818, #578 ) ;
#930 = CIRCLE ( 'NONE', #643, 2.599999999999991207 ) ;
#931 = PRODUCT_DEFINITION ( 'UNKNOWN', '', #47, #526 ) ;
#932 = FACE_BOUND ( 'NONE', #518, .T. ) ;
#933 = ORIENTED_EDGE ( 'NONE', *, *, #576, .T. ) ;
#934 = ORIENTED_EDGE ( 'NONE', *, *, #995, .F. ) ;
#935 = DIRECTION ( 'NONE',  ( 0.000000000000000000, 1.000000000000000000, 0.000000000000000000 ) ) ;
#936 = CARTESIAN_POINT ( 'NONE',  ( -204.7749200000058352, 2.000000000000000000, 90.29900000000029081 ) ) ;
#937 = DIRECTION ( 'NONE',  ( -0.000000000000000000, -1.000000000000000000, -0.000000000000000000 ) ) ;
#938 = CARTESIAN_POINT ( 'NONE',  ( 226.0000000000000568, 0.000000000000000000, 153.1499999999999773 ) ) ;
#939 = MANIFOLD_SOLID_BREP ( 'Fillet2', #1000 ) ;
#940 = EDGE_CURVE ( 'NONE', #329, #1076, #765, .T. ) ;
#941 = CYLINDRICAL_SURFACE ( 'NONE', #618, 2.599999999999991207 ) ;
#942 = ORIENTED_EDGE ( 'NONE', *, *, #810, .T. ) ;
#943 = CARTESIAN_POINT ( 'NONE',  ( -213.2650000000021180, 2.000000000000000000, -128.7124999999984141 ) ) ;
#944 = CARTESIAN_POINT ( 'NONE',  ( 195.0605339059306118, 0.000000000000000000, -128.7080339059313872 ) ) ;
#945 = CARTESIAN_POINT ( 'NONE',  ( 204.7749200000058920, 0.000000000000000000, -96.99899999999861677 ) ) ;
#946 = EDGE_CURVE ( 'NONE', #508, #973, #496, .T. ) ;
#947 = LINE ( 'NONE', #793, #271 ) ;
#948 = AXIS2_PLACEMENT_3D ( 'NONE', #723, #1073, #402 ) ;
#949 = AXIS2_PLACEMENT_3D ( 'NONE', #27, #605, #35 ) ;
#950 = AXIS2_PLACEMENT_3D ( 'NONE', #283, #960, #861 ) ;
#951 = ORIENTED_EDGE ( 'NONE', *, *, #109, .F. ) ;
#952 = ORIENTED_EDGE ( 'NONE', *, *, #1002, .T. ) ;
#953 = CARTESIAN_POINT ( 'NONE',  ( 204.7749200000058636, 0.000000000000000000, 95.49900000000029365 ) ) ;
#954 = DIRECTION ( 'NONE',  ( -0.000000000000000000, -1.000000000000000000, -0.000000000000000000 ) ) ;
#955 = EDGE_CURVE ( 'NONE', #439, #425, #621, .T. ) ;
#956 = DIRECTION ( 'NONE',  ( 0.000000000000000000, 1.000000000000000000, 0.000000000000000000 ) ) ;
#957 = EDGE_LOOP ( 'NONE', ( #23, #386, #59, #519 ) ) ;
#958 = ORIENTED_EDGE ( 'NONE', *, *, #393, .T. ) ;
#959 = EDGE_CURVE ( 'NONE', #699, #690, #853, .T. ) ;
#960 = DIRECTION ( 'NONE',  ( 0.000000000000000000, 1.000000000000000000, 0.000000000000000000 ) ) ;
#961 = CARTESIAN_POINT ( 'NONE',  ( 223.0000000000000568, 2.000000000000000000, 156.1499999999999773 ) ) ;
#962 = ORIENTED_EDGE ( 'NONE', *, *, #525, .F. ) ;
#963 = DIRECTION ( 'NONE',  ( -0.000000000000000000, 1.000000000000000000, -0.000000000000000000 ) ) ;
#964 = PLANE ( 'NONE',  #532 ) ;
#965 = PLANE ( 'NONE',  #287 ) ;
#966 = AXIS2_PLACEMENT_3D ( 'NONE', #12, #38, #477 ) ;
#967 = CARTESIAN_POINT ( 'NONE',  ( -204.7749200000061478, 0.000000000000000000, -94.39899999999856561 ) ) ;
#968 = VECTOR ( 'NONE', #403, 1000.000000000000000 ) ;
#969 = CIRCLE ( 'NONE', #826, 3.000000000000002665 ) ;
#970 = AXIS2_PLACEMENT_3D ( 'NONE', #761, #739, #665 ) ;
#971 = EDGE_CURVE ( 'NONE', #425, #441, #1040, .T. ) ;
#972 = MECHANICAL_DESIGN_GEOMETRIC_PRESENTATION_REPRESENTATION (  '', ( #365 ), #486 ) ;
#973 = VERTEX_POINT ( 'NONE', #867 ) ;
#974 = DIRECTION ( 'NONE',  ( 0.000000000000000000, 0.000000000000000000, 1.000000000000000000 ) ) ;
#975 = ORIENTED_EDGE ( 'NONE', *, *, #454, .T. ) ;
#976 = CARTESIAN_POINT ( 'NONE',  ( 204.7749200000058636, 0.000000000000000000, 90.29900000000030502 ) ) ;
#977 = EDGE_CURVE ( 'NONE', #973, #648, #432, .T. ) ;
#978 = UNCERTAINTY_MEASURE_WITH_UNIT (LENGTH_MEASURE( 1.000000000000000082E-05 ), #1006, 'distance_accuracy_value', 'NONE');
#979 = DIRECTION ( 'NONE',  ( 0.000000000000000000, 1.000000000000000000, -0.000000000000000000 ) ) ;
#980 = LINE ( 'NONE', #495, #99 ) ;
#981 = CARTESIAN_POINT ( 'NONE',  ( 212.5605339059306118, 0.000000000000000000, -153.6499999999993236 ) ) ;
#982 = ORIENTED_EDGE ( 'NONE', *, *, #500, .F. ) ;
#983 = CARTESIAN_POINT ( 'NONE',  ( 204.7749200000058636, 0.000000000000000000, 92.89900000000029934 ) ) ;
#984 = CYLINDRICAL_SURFACE ( 'NONE', #817, 2.599999999999991207 ) ;
#985 = AXIS2_PLACEMENT_3D ( 'NONE', #1052, #806, #695 ) ;
#986 = VECTOR ( 'NONE', #756, 1000.000000000000000 ) ;
#987 = CARTESIAN_POINT ( 'NONE',  ( 175.0605339059306402, 2.000000000000000000, -156.1499999999999488 ) ) ;
#988 = ORIENTED_EDGE ( 'NONE', *, *, #701, .T. ) ;
#989 = EDGE_CURVE ( 'NONE', #894, #991, #380, .T. ) ;
#990 = DIRECTION ( 'NONE',  ( -0.000000000000000000, -0.000000000000000000, 1.000000000000000000 ) ) ;
#991 = VERTEX_POINT ( 'NONE', #812 ) ;
#992 = ORIENTED_EDGE ( 'NONE', *, *, #300, .F. ) ;
#993 = CARTESIAN_POINT ( 'NONE',  ( -204.7749200000058352, 0.000000000000000000, 90.29900000000029081 ) ) ;
#994 = FACE_OUTER_BOUND ( 'NONE', #684, .T. ) ;
#995 = EDGE_CURVE ( 'NONE', #460, #245, #51, .T. ) ;
#996 = EDGE_LOOP ( 'NONE', ( #197, #295, #835, #998 ) ) ;
#997 = FILL_AREA_STYLE ('',( #489 ) ) ;
#998 = ORIENTED_EDGE ( 'NONE', *, *, #242, .T. ) ;
#999 = PRODUCT ( 'Chassis_Top_Panel', 'Chassis_Top_Panel', '', ( #641 ) ) ;
#1000 = CLOSED_SHELL ( 'NONE', ( #773, #1099, #1008, #199, #431, #399, #551, #857, #603, #310, #657, #426, #1079, #345, #96, #536, #769, #381, #742, #827, #667, #919, #871, #40, #77, #646, #833, #258, #611, #418, #1053, #224 ) ) ;
#1001 = VECTOR ( 'NONE', #702, 1000.000000000000000 ) ;
#1002 = EDGE_CURVE ( 'NONE', #170, #1081, #928, .T. ) ;
#1003 = LINE ( 'NONE', #427, #913 ) ;
#1004 = AXIS2_PLACEMENT_3D ( 'NONE', #487, #332, #663 ) ;
#1005 = AXIS2_PLACEMENT_3D ( 'NONE', #404, #240, #483 ) ;
#1006 =( LENGTH_UNIT ( ) NAMED_UNIT ( * ) SI_UNIT ( .MILLI., .METRE. ) );
#1007 = DIRECTION ( 'NONE',  ( -0.000000000000000000, 1.000000000000000000, -0.000000000000000000 ) ) ;
#1008 = ADVANCED_FACE ( 'NONE', ( #607 ), #941, .F. ) ;
#1009 = CARTESIAN_POINT ( 'NONE',  ( 223.0000000000000568, 2.000000000000000000, 153.1499999999999773 ) ) ;
#1010 = DIRECTION ( 'NONE',  ( 0.000000000000000000, 1.000000000000000000, -0.000000000000000000 ) ) ;
#1011 = LINE ( 'NONE', #592, #911 ) ;
#1012 = ORIENTED_EDGE ( 'NONE', *, *, #576, .F. ) ;
#1013 = CARTESIAN_POINT ( 'NONE',  ( -198.5650000000021009, 0.000000000000000000, -114.0124999999984112 ) ) ;
#1014 = DIRECTION ( 'NONE',  ( 0.000000000000000000, 1.000000000000000000, 0.000000000000000000 ) ) ;
#1015 = ORIENTED_EDGE ( 'NONE', *, *, #788, .F. ) ;
#1016 = ORIENTED_EDGE ( 'NONE', *, *, #989, .T. ) ;
#1017 = VERTEX_POINT ( 'NONE', #634 ) ;
#1018 = CARTESIAN_POINT ( 'NONE',  ( 177.5605339059306402, 2.000000000000000000, -128.7080339059313872 ) ) ;
#1019 = ORIENTED_EDGE ( 'NONE', *, *, #125, .F. ) ;
#1020 =( NAMED_UNIT ( * ) SI_UNIT ( $, .STERADIAN. ) SOLID_ANGLE_UNIT ( ) );
#1021 = ORIENTED_EDGE ( 'NONE', *, *, #482, .F. ) ;
#1022 = CARTESIAN_POINT ( 'NONE',  ( 0.000000000000000000, 0.000000000000000000, 0.000000000000000000 ) ) ;
#1023 = VERTEX_POINT ( 'NONE', #392 ) ;
#1024 = CIRCLE ( 'NONE', #212, 2.599999999999991207 ) ;
#1025 = CARTESIAN_POINT ( 'NONE',  ( -225.9999999999999716, 0.000000000000000000, -153.1499999999999488 ) ) ;
#1026 = VECTOR ( 'NONE', #676, 1000.000000000000000 ) ;
#1027 = VECTOR ( 'NONE', #168, 1000.000000000000000 ) ;
#1028 = DIRECTION ( 'NONE',  ( -2.023185466287188356E-15, -0.000000000000000000, 1.000000000000000000 ) ) ;
#1029 = CARTESIAN_POINT ( 'NONE',  ( -204.7749200000061478, 0.000000000000000000, -94.39899999999856561 ) ) ;
#1030 = VERTEX_POINT ( 'NONE', #953 ) ;
#1031 = AXIS2_PLACEMENT_3D ( 'NONE', #443, #359, #753 ) ;
#1032 = EDGE_CURVE ( 'NONE', #132, #106, #465, .T. ) ;
#1033 = ORIENTED_EDGE ( 'NONE', *, *, #261, .F. ) ;
#1034 = LINE ( 'NONE', #372, #1077 ) ;
#1035 = CARTESIAN_POINT ( 'NONE',  ( -183.8650000000020839, 0.000000000000000000, -128.7124999999984141 ) ) ;
#1036 = CYLINDRICAL_SURFACE ( 'NONE', #528, 2.599999999999991207 ) ;
#1037 = EDGE_CURVE ( 'NONE', #400, #894, #601, .T. ) ;
#1038 = CARTESIAN_POINT ( 'NONE',  ( 204.7749200000058636, 0.000000000000000000, 95.49900000000029365 ) ) ;
#1039 = ORIENTED_EDGE ( 'NONE', *, *, #249, .T. ) ;
#1040 = LINE ( 'NONE', #305, #892 ) ;
#1041 = CARTESIAN_POINT ( 'NONE',  ( 175.0605339059306402, 2.000000000000000000, -156.1499999999993804 ) ) ;
#1042 = CARTESIAN_POINT ( 'NONE',  ( 226.0000000000000568, 2.000000000000000000, 153.1499999999999773 ) ) ;
#1043 = DIRECTION ( 'NONE',  ( -0.000000000000000000, -0.000000000000000000, 1.000000000000000000 ) ) ;
#1044 = VERTEX_POINT ( 'NONE', #257 ) ;
#1045 = ORIENTED_EDGE ( 'NONE', *, *, #46, .T. ) ;
#1046 = AXIS2_PLACEMENT_3D ( 'NONE', #708, #979, #239 ) ;
#1047 = FACE_OUTER_BOUND ( 'NONE', #65, .T. ) ;
#1048 = CARTESIAN_POINT ( 'NONE',  ( 175.0605339059306402, 0.000000000000000000, -153.6499999999993804 ) ) ;
#1049 = AXIS2_PLACEMENT_3D ( 'NONE', #1060, #475, #479 ) ;
#1050 = DIRECTION ( 'NONE',  ( 0.000000000000000000, 0.000000000000000000, 1.000000000000000000 ) ) ;
#1051 = LINE ( 'NONE', #280, #1063 ) ;
#1052 = CARTESIAN_POINT ( 'NONE',  ( -226.0000000000000000, 2.000000000000000000, 153.1500000000000341 ) ) ;
#1053 = ADVANCED_FACE ( 'NONE', ( #841 ), #719, .T. ) ;
#1054 = ORIENTED_EDGE ( 'NONE', *, *, #839, .F. ) ;
#1055 = ORIENTED_EDGE ( 'NONE', *, *, #899, .F. ) ;
#1056 = ORIENTED_EDGE ( 'NONE', *, *, #1032, .T. ) ;
#1057 = CARTESIAN_POINT ( 'NONE',  ( 226.0000000000000568, 2.000000000000000000, 133.9249999999999829 ) ) ;
#1058 = DIRECTION ( 'NONE',  ( 0.000000000000000000, 1.000000000000000000, 0.000000000000000000 ) ) ;
#1059 = CARTESIAN_POINT ( 'NONE',  ( 204.7749200000058636, 2.000000000000000000, 90.29900000000030502 ) ) ;
#1060 = CARTESIAN_POINT ( 'NONE',  ( -181.3650000000020270, 0.000000000000000000, -153.6499999999998920 ) ) ;
#1061 = DIRECTION ( 'NONE',  ( 0.000000000000000000, 0.000000000000000000, -1.000000000000000000 ) ) ;
#1062 = CIRCLE ( 'NONE', #639, 14.70000000000001883 ) ;
#1063 = VECTOR ( 'NONE', #713, 1000.000000000000000 ) ;
#1064 = EDGE_CURVE ( 'NONE', #207, #633, #597, .T. ) ;
#1065 = AXIS2_PLACEMENT_3D ( 'NONE', #480, #809, #614 ) ;
#1066 = DIRECTION ( 'NONE',  ( 1.000000000000000000, 0.000000000000000000, 1.443723048927382240E-15 ) ) ;
#1067 = AXIS2_PLACEMENT_3D ( 'NONE', #849, #1014, #442 ) ;
#1068 = DIRECTION ( 'NONE',  ( 1.000000000000000000, -0.000000000000000000, 4.331169146782128181E-15 ) ) ;
#1069 = DIRECTION ( 'NONE',  ( -0.000000000000000000, 1.000000000000000000, -0.000000000000000000 ) ) ;
#1070 = DIRECTION ( 'NONE',  ( -1.443723048927382240E-15, 0.000000000000000000, 1.000000000000000000 ) ) ;
#1071 = EDGE_CURVE ( 'NONE', #221, #741, #502, .T. ) ;
#1072 = ORIENTED_EDGE ( 'NONE', *, *, #91, .F. ) ;
#1073 = DIRECTION ( 'NONE',  ( 0.000000000000000000, 1.000000000000000000, -0.000000000000000000 ) ) ;
#1074 = CIRCLE ( 'NONE', #159, 2.500000000000002220 ) ;
#1075 = CARTESIAN_POINT ( 'NONE',  ( 223.0000000000000568, 2.000000000000000000, 156.1499999999999773 ) ) ;
#1076 = VERTEX_POINT ( 'NONE', #698 ) ;
#1077 = VECTOR ( 'NONE', #768, 1000.000000000000000 ) ;
#1078 = LINE ( 'NONE', #552, #642 ) ;
#1079 = ADVANCED_FACE ( 'NONE', ( #711 ), #617, .F. ) ;
#1080 = ORIENTED_EDGE ( 'NONE', *, *, #907, .T. ) ;
#1081 = VERTEX_POINT ( 'NONE', #981 ) ;
#1082 = ORIENTED_EDGE ( 'NONE', *, *, #805, .T. ) ;
#1083 = EDGE_CURVE ( 'NONE', #357, #550, #471, .T. ) ;
#1084 = ORIENTED_EDGE ( 'NONE', *, *, #8, .F. ) ;
#1085 = EDGE_CURVE ( 'NONE', #633, #207, #120, .T. ) ;
#1086 = VECTOR ( 'NONE', #282, 1000.000000000000000 ) ;
#1087 = AXIS2_PLACEMENT_3D ( 'NONE', #944, #510, #1093 ) ;
#1088 = DIRECTION ( 'NONE',  ( 0.000000000000000000, 0.000000000000000000, 1.000000000000000000 ) ) ;
#1089 = CARTESIAN_POINT ( 'NONE',  ( 212.5605339059306118, 0.000000000000000000, -128.7080339059313872 ) ) ;
#1090 = DIRECTION ( 'NONE',  ( -0.000000000000000000, 1.000000000000000000, -0.000000000000000000 ) ) ;
#1091 = VECTOR ( 'NONE', #777, 1000.000000000000000 ) ;
#1092 = DIRECTION ( 'NONE',  ( -1.000000000000000000, 0.000000000000000000, 1.443723048927382240E-15 ) ) ;
#1093 = DIRECTION ( 'NONE',  ( 0.000000000000000000, 0.000000000000000000, 1.000000000000000000 ) ) ;
#1094 = DIRECTION ( 'NONE',  ( 0.000000000000000000, 0.000000000000000000, -1.000000000000000000 ) ) ;
#1095 = EDGE_LOOP ( 'NONE', ( #912, #360, #724, #238 ) ) ;
#1096 = CYLINDRICAL_SURFACE ( 'NONE', #45, 2.500000000000002220 ) ;
#1097 = CARTESIAN_POINT ( 'NONE',  ( 223.0000000000000568, 2.000000000000000000, 153.1499999999999773 ) ) ;
#1098 = FACE_OUTER_BOUND ( 'NONE', #325, .T. ) ;
#1099 = ADVANCED_FACE ( 'NONE', ( #259 ), #10, .F. ) ;
#1100 = VERTEX_POINT ( 'NONE', #993 ) ;
#1101 = DIRECTION ( 'NONE',  ( 0.000000000000000000, 0.000000000000000000, 1.000000000000000000 ) ) ;
ENDSEC;
END-ISO-10303-21;
