ISO-10303-21;
HEADER;
FILE_DESCRIPTION (( 'STEP AP214' ),
    '1' );
FILE_NAME ('Flange_Ring_Copy.STEP',
    '2026-08-19T03:41:46',
    ( '' ),
    ( '' ),
    'SwSTEP 2.0',
    'SolidWorks 2025',
    '' );
FILE_SCHEMA (( 'AUTOMOTIVE_DESIGN' ));
ENDSEC;

DATA;
#1 = ADVANCED_FACE ( 'NONE', ( #656 ), #961, .F. ) ;
#2 = CARTESIAN_POINT ( 'NONE',  ( 41.49999999999996447, 12.69999999999999929, -6.383782391594650107E-13 ) ) ;
#3 = VERTEX_POINT ( 'NONE', #132 ) ;
#4 = DIRECTION ( 'NONE',  ( 0.000000000000000000, 0.000000000000000000, -1.000000000000000000 ) ) ;
#5 = CARTESIAN_POINT ( 'NONE',  ( -7.147060721024445229E-13, 12.69999999999999929, -41.49999999999989342 ) ) ;
#6 = PRESENTATION_STYLE_ASSIGNMENT (( #301 ) ) ;
#7 = ORIENTED_EDGE ( 'NONE', *, *, #984, .T. ) ;
#8 = CYLINDRICAL_SURFACE ( 'NONE', #706, 2.250000000000001776 ) ;
#9 = DIRECTION ( 'NONE',  ( 0.000000000000000000, -1.000000000000000000, 0.000000000000000000 ) ) ;
#10 = LINE ( 'NONE', #321, #799 ) ;
#11 = ORIENTED_EDGE ( 'NONE', *, *, #948, .T. ) ;
#12 = DIRECTION ( 'NONE',  ( 0.000000000000000000, 0.000000000000000000, -1.000000000000000000 ) ) ;
#13 = CIRCLE ( 'NONE', #574, 2.250000000000001776 ) ;
#14 = DIRECTION ( 'NONE',  ( 0.000000000000000000, 1.000000000000000000, 0.000000000000000000 ) ) ;
#15 = AXIS2_PLACEMENT_3D ( 'NONE', #274, #18, #797 ) ;
#16 = DIRECTION ( 'NONE',  ( 0.000000000000000000, -1.000000000000000000, 0.000000000000000000 ) ) ;
#17 = ORIENTED_EDGE ( 'NONE', *, *, #732, .F. ) ;
#18 = DIRECTION ( 'NONE',  ( 0.000000000000000000, -1.000000000000000000, 0.000000000000000000 ) ) ;
#19 = EDGE_CURVE ( 'NONE', #435, #475, #751, .T. ) ;
#20 = CARTESIAN_POINT ( 'NONE',  ( 0.000000000000000000, 12.69999999999999929, 0.000000000000000000 ) ) ;
#21 = VERTEX_POINT ( 'NONE', #990 ) ;
#22 = CARTESIAN_POINT ( 'NONE',  ( -29.34493141924223281, 12.69999999999999929, -31.59493141924114212 ) ) ;
#23 = CARTESIAN_POINT ( 'NONE',  ( 7.147060721024445229E-13, 12.69999999999999929, 39.25000000000004263 ) ) ;
#24 = LINE ( 'NONE', #640, #928 ) ;
#25 = ORIENTED_EDGE ( 'NONE', *, *, #171, .F. ) ;
#26 = VECTOR ( 'NONE', #254, 1000.000000000000000 ) ;
#27 = CARTESIAN_POINT ( 'NONE',  ( 0.000000000000000000, 0.000000000000000000, -48.75000000000000000 ) ) ;
#28 = VECTOR ( 'NONE', #805, 1000.000000000000000 ) ;
#29 = CIRCLE ( 'NONE', #357, 2.250000000000001776 ) ;
#30 = DIRECTION ( 'NONE',  ( 0.000000000000000000, 1.000000000000000000, 0.000000000000000000 ) ) ;
#31 = EDGE_CURVE ( 'NONE', #54, #651, #375, .T. ) ;
#32 = EDGE_LOOP ( 'NONE', ( #332, #976 ) ) ;
#33 = VERTEX_POINT ( 'NONE', #219 ) ;
#34 = CYLINDRICAL_SURFACE ( 'NONE', #130, 2.249999999999998668 ) ;
#35 = DIRECTION ( 'NONE',  ( 0.000000000000000000, 0.000000000000000000, -1.000000000000000000 ) ) ;
#36 = VERTEX_POINT ( 'NONE', #985 ) ;
#37 = APPLICATION_PROTOCOL_DEFINITION ( 'draft international standard', 'automotive_design', 1998, #367 ) ;
#38 = DIRECTION ( 'NONE',  ( -0.000000000000000000, -1.000000000000000000, -0.000000000000000000 ) ) ;
#39 = CARTESIAN_POINT ( 'NONE',  ( -44.15527671666621501, 12.69999999999999929, 20.66093023255814032 ) ) ;
#40 = ORIENTED_EDGE ( 'NONE', *, *, #728, .T. ) ;
#41 = FACE_BOUND ( 'NONE', #932, .T. ) ;
#42 = AXIS2_PLACEMENT_3D ( 'NONE', #632, #186, #931 ) ;
#43 = AXIS2_PLACEMENT_3D ( 'NONE', #20, #30, #398 ) ;
#44 = AXIS2_PLACEMENT_3D ( 'NONE', #244, #783, #82 ) ;
#45 = FACE_BOUND ( 'NONE', #966, .T. ) ;
#46 = VECTOR ( 'NONE', #717, 1000.000000000000000 ) ;
#47 = VECTOR ( 'NONE', #498, 1000.000000000000000 ) ;
#48 = ORIENTED_EDGE ( 'NONE', *, *, #631, .T. ) ;
#49 = EDGE_LOOP ( 'NONE', ( #811, #826 ) ) ;
#50 = CYLINDRICAL_SURFACE ( 'NONE', #676, 2.250000000000002220 ) ;
#51 = EDGE_CURVE ( 'NONE', #651, #708, #880, .T. ) ;
#52 = DIRECTION ( 'NONE',  ( 0.000000000000000000, 0.000000000000000000, -1.000000000000000000 ) ) ;
#53 = CARTESIAN_POINT ( 'NONE',  ( 0.000000000000000000, 0.000000000000000000, 0.000000000000000000 ) ) ;
#54 = VERTEX_POINT ( 'NONE', #750 ) ;
#55 = CARTESIAN_POINT ( 'NONE',  ( -47.46849846846635756, 12.69999999999999929, -17.92999999999999972 ) ) ;
#56 = PRODUCT ( 'Flange_Ring_Copy', 'Flange_Ring_Copy', '', ( #724 ) ) ;
#57 = VERTEX_POINT ( 'NONE', #161 ) ;
#58 = ORIENTED_EDGE ( 'NONE', *, *, #828, .T. ) ;
#59 = FACE_OUTER_BOUND ( 'NONE', #693, .T. ) ;
#60 = AXIS2_PLACEMENT_3D ( 'NONE', #619, #448, #837 ) ;
#61 = AXIS2_PLACEMENT_3D ( 'NONE', #239, #477, #538 ) ;
#62 = DIRECTION ( 'NONE',  ( -0.000000000000000000, -1.000000000000000000, -0.000000000000000000 ) ) ;
#63 = AXIS2_PLACEMENT_3D ( 'NONE', #753, #813, #430 ) ;
#64 = ADVANCED_FACE ( 'NONE', ( #78 ), #465, .F. ) ;
#65 = ORIENTED_EDGE ( 'NONE', *, *, #390, .F. ) ;
#66 = DIRECTION ( 'NONE',  ( -0.000000000000000000, -1.000000000000000000, -0.000000000000000000 ) ) ;
#67 = MANIFOLD_SOLID_BREP ( 'Cut-Extrude23', #527 ) ;
#68 = FACE_OUTER_BOUND ( 'NONE', #956, .T. ) ;
#69 = ORIENTED_EDGE ( 'NONE', *, *, #89, .F. ) ;
#70 = FACE_OUTER_BOUND ( 'NONE', #752, .T. ) ;
#71 = FACE_OUTER_BOUND ( 'NONE', #216, .T. ) ;
#72 = DIRECTION ( 'NONE',  ( 0.000000000000000000, 1.000000000000000000, 0.000000000000000000 ) ) ;
#73 = EDGE_LOOP ( 'NONE', ( #203, #206, #90, #202 ) ) ;
#74 = CARTESIAN_POINT ( 'NONE',  ( 4.225031457058369711E-15, 0.000000000000000000, 34.50000000000000711 ) ) ;
#75 = CARTESIAN_POINT ( 'NONE',  ( -45.24200480260813606, 12.69999999999999929, 0.000000000000000000 ) ) ;
#76 = ADVANCED_FACE ( 'NONE', ( #981 ), #915, .F. ) ;
#77 = CIRCLE ( 'NONE', #427, 2.250000000000002220 ) ;
#78 = FACE_OUTER_BOUND ( 'NONE', #343, .T. ) ;
#79 = AXIS2_PLACEMENT_3D ( 'NONE', #918, #851, #170 ) ;
#80 = ORIENTED_EDGE ( 'NONE', *, *, #549, .T. ) ;
#81 = DIRECTION ( 'NONE',  ( -0.000000000000000000, -1.000000000000000000, -0.000000000000000000 ) ) ;
#82 = DIRECTION ( 'NONE',  ( 0.000000000000000000, 0.000000000000000000, -1.000000000000000000 ) ) ;
#83 = EDGE_CURVE ( 'NONE', #986, #21, #297, .T. ) ;
#84 = DIRECTION ( 'NONE',  ( 0.000000000000000000, -1.000000000000000000, 0.000000000000000000 ) ) ;
#85 = EDGE_LOOP ( 'NONE', ( #902, #503, #803, #561 ) ) ;
#86 = FACE_OUTER_BOUND ( 'NONE', #458, .T. ) ;
#87 = DIRECTION ( 'NONE',  ( -0.000000000000000000, -1.000000000000000000, -0.000000000000000000 ) ) ;
#88 = FACE_OUTER_BOUND ( 'NONE', #819, .T. ) ;
#89 = EDGE_CURVE ( 'NONE', #978, #822, #176, .T. ) ;
#90 = ORIENTED_EDGE ( 'NONE', *, *, #622, .T. ) ;
#91 = CARTESIAN_POINT ( 'NONE',  ( -29.34493141924122028, 12.69999999999999929, 29.34493141924230741 ) ) ;
#92 = DIRECTION ( 'NONE',  ( 0.000000000000000000, -1.000000000000000000, 0.000000000000000000 ) ) ;
#93 = CARTESIAN_POINT ( 'NONE',  ( 29.34493141924122028, 12.69999999999999929, -31.59493141924215465 ) ) ;
#94 = ORIENTED_EDGE ( 'NONE', *, *, #437, .F. ) ;
#95 = EDGE_CURVE ( 'NONE', #54, #812, #848, .T. ) ;
#96 = COLOUR_RGB ( '',0.7921568627450980005, 0.8196078431372548767, 0.9333333333333333481 ) ;
#97 = AXIS2_PLACEMENT_3D ( 'NONE', #167, #777, #550 ) ;
#98 = DIRECTION ( 'NONE',  ( 0.000000000000000000, 0.000000000000000000, -1.000000000000000000 ) ) ;
#99 = CIRCLE ( 'NONE', #835, 2.249999999999998668 ) ;
#100 = PRODUCT_DEFINITION_FORMATION_WITH_SPECIFIED_SOURCE ( 'ANY', '', #56, .NOT_KNOWN. ) ;
#101 = DIRECTION ( 'NONE',  ( 0.000000000000000000, -1.000000000000000000, 0.000000000000000000 ) ) ;
#102 = ORIENTED_EDGE ( 'NONE', *, *, #642, .T. ) ;
#103 = EDGE_LOOP ( 'NONE', ( #395, #916, #313, #261, #40, #121, #540, #633 ) ) ;
#104 = DIRECTION ( 'NONE',  ( 0.000000000000000000, 0.000000000000000000, 1.000000000000000000 ) ) ;
#105 = CARTESIAN_POINT ( 'NONE',  ( -29.34493141924223281, 12.69999999999999929, -27.09493141924114568 ) ) ;
#106 = ORIENTED_EDGE ( 'NONE', *, *, #762, .F. ) ;
#107 = CARTESIAN_POINT ( 'NONE',  ( -7.144305265726363625E-13, 12.69999999999999929, -39.24999999999988631 ) ) ;
#108 = EDGE_CURVE ( 'NONE', #3, #907, #77, .T. ) ;
#109 = DIRECTION ( 'NONE',  ( 0.000000000000000000, 0.000000000000000000, -1.000000000000000000 ) ) ;
#110 = ORIENTED_EDGE ( 'NONE', *, *, #158, .T. ) ;
#111 = CARTESIAN_POINT ( 'NONE',  ( -41.49999999999996447, 12.69999999999999929, 7.910339050454240351E-13 ) ) ;
#112 = AXIS2_PLACEMENT_3D ( 'NONE', #205, #726, #264 ) ;
#113 = AXIS2_PLACEMENT_3D ( 'NONE', #933, #471, #767 ) ;
#114 = FACE_BOUND ( 'NONE', #669, .T. ) ;
#115 = ORIENTED_EDGE ( 'NONE', *, *, #654, .T. ) ;
#116 =( NAMED_UNIT ( * ) PLANE_ANGLE_UNIT ( ) SI_UNIT ( $, .RADIAN. ) );
#117 = DIRECTION ( 'NONE',  ( 0.000000000000000000, 1.000000000000000000, 0.000000000000000000 ) ) ;
#118 = CYLINDRICAL_SURFACE ( 'NONE', #736, 2.250000000000002220 ) ;
#119 = EDGE_LOOP ( 'NONE', ( #317, #369 ) ) ;
#120 = EDGE_CURVE ( 'NONE', #247, #491, #128, .T. ) ;
#121 = ORIENTED_EDGE ( 'NONE', *, *, #95, .T. ) ;
#122 = CARTESIAN_POINT ( 'NONE',  ( 7.147060721024445229E-13, 12.69999999999999929, 41.50000000000004263 ) ) ;
#123 = CARTESIAN_POINT ( 'NONE',  ( 0.000000000000000000, 12.69999999999999929, 0.000000000000000000 ) ) ;
#124 = ORIENTED_EDGE ( 'NONE', *, *, #288, .T. ) ;
#125 = ADVANCED_FACE ( 'NONE', ( #68 ), #524, .F. ) ;
#126 = ORIENTED_EDGE ( 'NONE', *, *, #245, .F. ) ;
#127 = LINE ( 'NONE', #444, #977 ) ;
#128 = CIRCLE ( 'NONE', #495, 2.249999999999998668 ) ;
#129 = AXIS2_PLACEMENT_3D ( 'NONE', #510, #758, #351 ) ;
#130 = AXIS2_PLACEMENT_3D ( 'NONE', #346, #648, #570 ) ;
#131 = PLANE ( 'NONE',  #339 ) ;
#132 = CARTESIAN_POINT ( 'NONE',  ( 41.49999999999996447, 12.69999999999999929, 2.249999999999364064 ) ) ;
#133 = ORIENTED_EDGE ( 'NONE', *, *, #536, .T. ) ;
#134 = CYLINDRICAL_SURFACE ( 'NONE', #63, 5.000000000000000888 ) ;
#135 = EDGE_CURVE ( 'NONE', #475, #651, #624, .T. ) ;
#136 = ORIENTED_EDGE ( 'NONE', *, *, #19, .T. ) ;
#137 = ORIENTED_EDGE ( 'NONE', *, *, #597, .T. ) ;
#138 = DIRECTION ( 'NONE',  ( 0.000000000000000000, 0.000000000000000000, -1.000000000000000000 ) ) ;
#139 = EDGE_CURVE ( 'NONE', #217, #535, #223, .T. ) ;
#140 = DIRECTION ( 'NONE',  ( 0.000000000000000000, 0.000000000000000000, -1.000000000000000000 ) ) ;
#141 = EDGE_LOOP ( 'NONE', ( #723, #843, #454, #136 ) ) ;
#142 = FACE_BOUND ( 'NONE', #401, .T. ) ;
#143 = AXIS2_PLACEMENT_3D ( 'NONE', #235, #906, #872 ) ;
#144 = AXIS2_PLACEMENT_3D ( 'NONE', #468, #775, #393 ) ;
#145 = CARTESIAN_POINT ( 'NONE',  ( -29.34493141924223281, 12.69999999999999929, -31.59493141924114212 ) ) ;
#146 = VECTOR ( 'NONE', #410, 1000.000000000000000 ) ;
#147 = ORIENTED_EDGE ( 'NONE', *, *, #566, .F. ) ;
#148 = DIRECTION ( 'NONE',  ( -1.000000000000000000, 0.000000000000000000, 0.000000000000000000 ) ) ;
#149 = CARTESIAN_POINT ( 'NONE',  ( 0.000000000000000000, 12.69999999999999929, 0.000000000000000000 ) ) ;
#150 = CARTESIAN_POINT ( 'NONE',  ( 29.34493141924223281, 0.000000000000000000, 29.34493141924129489 ) ) ;
#151 = ORIENTED_EDGE ( 'NONE', *, *, #489, .F. ) ;
#152 = EDGE_CURVE ( 'NONE', #551, #677, #353, .T. ) ;
#153 = DIRECTION ( 'NONE',  ( -0.000000000000000000, -1.000000000000000000, -0.000000000000000000 ) ) ;
#154 = CARTESIAN_POINT ( 'NONE',  ( -48.68402304658068402, 12.69999999999999929, -22.78000000000000114 ) ) ;
#155 = CARTESIAN_POINT ( 'NONE',  ( -7.147060721024445229E-13, 12.69999999999999929, -41.49999999999989342 ) ) ;
#156 = ORIENTED_EDGE ( 'NONE', *, *, #948, .F. ) ;
#157 = DIRECTION ( 'NONE',  ( 0.000000000000000000, 0.000000000000000000, -1.000000000000000000 ) ) ;
#158 = EDGE_CURVE ( 'NONE', #197, #517, #989, .T. ) ;
#159 = LINE ( 'NONE', #250, #850 ) ;
#160 = CIRCLE ( 'NONE', #974, 2.249999999999998668 ) ;
#161 = CARTESIAN_POINT ( 'NONE',  ( -45.24200480260813606, 0.000000000000000000, 17.92999999999999972 ) ) ;
#162 = CIRCLE ( 'NONE', #340, 2.249999999999998668 ) ;
#163 = ORIENTED_EDGE ( 'NONE', *, *, #152, .T. ) ;
#164 = DIRECTION ( 'NONE',  ( 0.000000000000000000, 0.000000000000000000, -1.000000000000000000 ) ) ;
#165 = CARTESIAN_POINT ( 'NONE',  ( -29.34493141924122028, 12.69999999999999929, 31.59493141924230741 ) ) ;
#166 = EDGE_CURVE ( 'NONE', #183, #701, #791, .T. ) ;
#167 = CARTESIAN_POINT ( 'NONE',  ( 29.34493141924122028, 12.69999999999999929, -29.34493141924215465 ) ) ;
#168 = EDGE_LOOP ( 'NONE', ( #580, #847 ) ) ;
#169 = CARTESIAN_POINT ( 'NONE',  ( -47.46849846846636467, 0.000000000000000000, -17.92999999999999972 ) ) ;
#170 = DIRECTION ( 'NONE',  ( 0.000000000000000000, 0.000000000000000000, -1.000000000000000000 ) ) ;
#171 = EDGE_CURVE ( 'NONE', #962, #765, #781, .T. ) ;
#172 = DIRECTION ( 'NONE',  ( -0.000000000000000000, -1.000000000000000000, -0.000000000000000000 ) ) ;
#173 = EDGE_LOOP ( 'NONE', ( #69, #414 ) ) ;
#174 = LINE ( 'NONE', #456, #639 ) ;
#175 = CARTESIAN_POINT ( 'NONE',  ( -29.34493141924122028, 12.69999999999999929, 29.34493141924230741 ) ) ;
#176 = CIRCLE ( 'NONE', #60, 2.250000000000001776 ) ;
#177 = ORIENTED_EDGE ( 'NONE', *, *, #89, .T. ) ;
#178 = CIRCLE ( 'NONE', #307, 5.000000000000000888 ) ;
#179 = AXIS2_PLACEMENT_3D ( 'NONE', #330, #193, #712 ) ;
#180 = DIRECTION ( 'NONE',  ( -0.000000000000000000, -1.000000000000000000, -0.000000000000000000 ) ) ;
#181 = AXIS2_PLACEMENT_3D ( 'NONE', #248, #541, #912 ) ;
#182 = LINE ( 'NONE', #862, #589 ) ;
#183 = VERTEX_POINT ( 'NONE', #707 ) ;
#184 = EDGE_CURVE ( 'NONE', #298, #869, #490, .T. ) ;
#185 = CARTESIAN_POINT ( 'NONE',  ( -29.34493141924122028, 0.000000000000000000, 31.59493141924230741 ) ) ;
#186 = DIRECTION ( 'NONE',  ( 0.000000000000000000, -1.000000000000000000, 0.000000000000000000 ) ) ;
#187 = ORIENTED_EDGE ( 'NONE', *, *, #591, .T. ) ;
#188 = SHAPE_DEFINITION_REPRESENTATION ( #649, #210 ) ;
#189 = CARTESIAN_POINT ( 'NONE',  ( -41.49999999999996447, 0.000000000000000000, 2.250000000000793587 ) ) ;
#190 = CARTESIAN_POINT ( 'NONE',  ( -47.46849846846635756, 12.69999999999999929, -17.92999999999999972 ) ) ;
#191 = ORIENTED_EDGE ( 'NONE', *, *, #195, .T. ) ;
#192 = VECTOR ( 'NONE', #759, 1000.000000000000000 ) ;
#193 = DIRECTION ( 'NONE',  ( 0.000000000000000000, -1.000000000000000000, 0.000000000000000000 ) ) ;
#194 = VECTOR ( 'NONE', #592, 1000.000000000000000 ) ;
#195 = EDGE_CURVE ( 'NONE', #822, #978, #603, .T. ) ;
#196 = DIRECTION ( 'NONE',  ( -0.000000000000000000, -1.000000000000000000, -0.000000000000000000 ) ) ;
#197 = VERTEX_POINT ( 'NONE', #480 ) ;
#198 = EDGE_LOOP ( 'NONE', ( #156, #832, #293, #518 ) ) ;
#199 = CARTESIAN_POINT ( 'NONE',  ( -7.147060721024445229E-13, 12.69999999999999929, -43.74999999999989342 ) ) ;
#200 = FACE_OUTER_BOUND ( 'NONE', #141, .T. ) ;
#201 = ADVANCED_FACE ( 'NONE', ( #469 ), #710, .F. ) ;
#202 = ORIENTED_EDGE ( 'NONE', *, *, #83, .F. ) ;
#203 = ORIENTED_EDGE ( 'NONE', *, *, #970, .F. ) ;
#204 = PLANE ( 'NONE',  #415 ) ;
#205 = CARTESIAN_POINT ( 'NONE',  ( -92.99969486097674576, 31.49563306904291338, -17.92999999999999972 ) ) ;
#206 = ORIENTED_EDGE ( 'NONE', *, *, #171, .T. ) ;
#207 = EDGE_LOOP ( 'NONE', ( #671, #680, #147, #755 ) ) ;
#208 = FACE_BOUND ( 'NONE', #376, .T. ) ;
#209 = CIRCLE ( 'NONE', #446, 2.249999999999998668 ) ;
#210 = ADVANCED_BREP_SHAPE_REPRESENTATION ( 'Flange_Ring_Copy', ( #67, #661 ), #577 ) ;
#211 = AXIS2_PLACEMENT_3D ( 'NONE', #637, #567, #634 ) ;
#212 = DIRECTION ( 'NONE',  ( 0.000000000000000000, 0.000000000000000000, 1.000000000000000000 ) ) ;
#213 = ORIENTED_EDGE ( 'NONE', *, *, #554, .T. ) ;
#214 = CARTESIAN_POINT ( 'NONE',  ( -29.34493141924223281, 12.69999999999999929, -29.34493141924114212 ) ) ;
#215 = EDGE_CURVE ( 'NONE', #796, #565, #384, .T. ) ;
#216 = EDGE_LOOP ( 'NONE', ( #743, #515, #925, #792 ) ) ;
#217 = VERTEX_POINT ( 'NONE', #940 ) ;
#218 = CARTESIAN_POINT ( 'NONE',  ( 29.34493141924223281, 12.69999999999999929, 31.59493141924129489 ) ) ;
#219 = CARTESIAN_POINT ( 'NONE',  ( 29.34493141924223281, 12.69999999999999929, 27.09493141924129844 ) ) ;
#220 = ORIENTED_EDGE ( 'NONE', *, *, #224, .T. ) ;
#221 = DIRECTION ( 'NONE',  ( 0.000000000000000000, -1.000000000000000000, 0.000000000000000000 ) ) ;
#222 = FACE_OUTER_BOUND ( 'NONE', #103, .T. ) ;
#223 = CIRCLE ( 'NONE', #143, 2.250000000000002220 ) ;
#224 = EDGE_CURVE ( 'NONE', #496, #33, #337, .T. ) ;
#225 = DIRECTION ( 'NONE',  ( 0.000000000000000000, 0.000000000000000000, -1.000000000000000000 ) ) ;
#226 = CIRCLE ( 'NONE', #608, 48.75000000000000000 ) ;
#227 = ORIENTED_EDGE ( 'NONE', *, *, #120, .T. ) ;
#228 = DIRECTION ( 'NONE',  ( -0.000000000000000000, 0.000000000000000000, -1.000000000000000000 ) ) ;
#229 = DIRECTION ( 'NONE',  ( -0.000000000000000000, -1.000000000000000000, -0.000000000000000000 ) ) ;
#230 = CARTESIAN_POINT ( 'NONE',  ( 0.000000000000000000, 12.69999999999999929, 0.000000000000000000 ) ) ;
#231 = EDGE_CURVE ( 'NONE', #782, #267, #336, .T. ) ;
#232 = EDGE_LOOP ( 'NONE', ( #947, #365 ) ) ;
#233 = DIRECTION ( 'NONE',  ( 0.000000000000000000, -1.000000000000000000, 0.000000000000000000 ) ) ;
#234 = DIRECTION ( 'NONE',  ( 0.000000000000000000, 0.000000000000000000, -1.000000000000000000 ) ) ;
#235 = CARTESIAN_POINT ( 'NONE',  ( 41.49999999999996447, 0.000000000000000000, -6.383782391594650107E-13 ) ) ;
#236 = EDGE_LOOP ( 'NONE', ( #283, #611, #967, #487 ) ) ;
#237 = CARTESIAN_POINT ( 'NONE',  ( -41.49999999999996447, 12.69999999999999929, -2.249999999999211298 ) ) ;
#238 = EDGE_CURVE ( 'NONE', #391, #435, #182, .T. ) ;
#239 = CARTESIAN_POINT ( 'NONE',  ( -41.49999999999996447, 0.000000000000000000, 7.910339050454240351E-13 ) ) ;
#240 = VECTOR ( 'NONE', #383, 1000.000000000000000 ) ;
#241 = CIRCLE ( 'NONE', #802, 34.50000000000000711 ) ;
#242 = ORIENTED_EDGE ( 'NONE', *, *, #51, .F. ) ;
#243 = CARTESIAN_POINT ( 'NONE',  ( 0.000000000000000000, 12.69999999999999929, -17.92999999999999972 ) ) ;
#244 = CARTESIAN_POINT ( 'NONE',  ( -29.34493141924122028, 12.69999999999999929, 29.34493141924230741 ) ) ;
#245 = EDGE_CURVE ( 'NONE', #183, #284, #160, .T. ) ;
#246 = DIRECTION ( 'NONE',  ( -1.000000000000000000, 0.000000000000000000, 0.000000000000000000 ) ) ;
#247 = VERTEX_POINT ( 'NONE', #868 ) ;
#248 = CARTESIAN_POINT ( 'NONE',  ( -7.147060721024445229E-13, 0.000000000000000000, -41.49999999999989342 ) ) ;
#249 = ORIENTED_EDGE ( 'NONE', *, *, #441, .F. ) ;
#250 = CARTESIAN_POINT ( 'NONE',  ( -84.74999999999995737, 0.000000000000000000, 17.92999999999999972 ) ) ;
#251 = CARTESIAN_POINT ( 'NONE',  ( -45.24200480260813606, 31.49563306904291338, -17.93000000000000682 ) ) ;
#252 = ORIENTED_EDGE ( 'NONE', *, *, #493, .T. ) ;
#253 = DIRECTION ( 'NONE',  ( 0.000000000000000000, 1.000000000000000000, 0.000000000000000000 ) ) ;
#254 = DIRECTION ( 'NONE',  ( 0.000000000000000000, 1.000000000000000000, 0.000000000000000000 ) ) ;
#255 = ADVANCED_FACE ( 'NONE', ( #88 ), #486, .T. ) ;
#256 = VERTEX_POINT ( 'NONE', #408 ) ;
#257 = CIRCLE ( 'NONE', #768, 2.249999999999998668 ) ;
#258 = CIRCLE ( 'NONE', #15, 2.249999999999998668 ) ;
#259 = DIRECTION ( 'NONE',  ( -1.387778780781445478E-15, 0.000000000000000000, 1.000000000000000000 ) ) ;
#260 = FACE_OUTER_BOUND ( 'NONE', #470, .T. ) ;
#261 = ORIENTED_EDGE ( 'NONE', *, *, #870, .T. ) ;
#262 = EDGE_CURVE ( 'NONE', #36, #590, #866, .T. ) ;
#263 = DIRECTION ( 'NONE',  ( -0.000000000000000000, -1.000000000000000000, -0.000000000000000000 ) ) ;
#264 = DIRECTION ( 'NONE',  ( 1.000000000000000000, 0.000000000000000000, 0.000000000000000000 ) ) ;
#265 = ORIENTED_EDGE ( 'NONE', *, *, #224, .F. ) ;
#266 = DIRECTION ( 'NONE',  ( 1.000000000000000000, 0.000000000000000000, 0.000000000000000000 ) ) ;
#267 = VERTEX_POINT ( 'NONE', #627 ) ;
#268 = DIRECTION ( 'NONE',  ( 0.000000000000000000, 0.000000000000000000, -1.000000000000000000 ) ) ;
#269 = EDGE_CURVE ( 'NONE', #57, #869, #24, .T. ) ;
#270 = DIRECTION ( 'NONE',  ( -0.000000000000000000, -1.000000000000000000, -0.000000000000000000 ) ) ;
#271 = ORIENTED_EDGE ( 'NONE', *, *, #691, .T. ) ;
#272 = VECTOR ( 'NONE', #936, 1000.000000000000000 ) ;
#273 = ORIENTED_EDGE ( 'NONE', *, *, #437, .T. ) ;
#274 = CARTESIAN_POINT ( 'NONE',  ( -29.34493141924223281, 0.000000000000000000, -29.34493141924114212 ) ) ;
#275 = CIRCLE ( 'NONE', #975, 34.50000000000000711 ) ;
#276 = VECTOR ( 'NONE', #451, 1000.000000000000000 ) ;
#277 = ADVANCED_FACE ( 'NONE', ( #260 ), #853, .F. ) ;
#278 = CARTESIAN_POINT ( 'NONE',  ( -45.24200480260813606, 12.69999999999999929, -17.93000000000000682 ) ) ;
#279 = ORIENTED_EDGE ( 'NONE', *, *, #852, .T. ) ;
#280 = EDGE_LOOP ( 'NONE', ( #265, #58, #115, #727 ) ) ;
#281 = FACE_OUTER_BOUND ( 'NONE', #993, .T. ) ;
#282 = LINE ( 'NONE', #501, #28 ) ;
#283 = ORIENTED_EDGE ( 'NONE', *, *, #95, .F. ) ;
#284 = VERTEX_POINT ( 'NONE', #394 ) ;
#285 = CARTESIAN_POINT ( 'NONE',  ( 0.000000000000000000, 0.000000000000000000, 0.000000000000000000 ) ) ;
#286 = FACE_OUTER_BOUND ( 'NONE', #405, .T. ) ;
#287 = ORIENTED_EDGE ( 'NONE', *, *, #139, .F. ) ;
#288 = EDGE_CURVE ( 'NONE', #33, #247, #10, .T. ) ;
#289 = ORIENTED_EDGE ( 'NONE', *, *, #166, .F. ) ;
#290 = FACE_OUTER_BOUND ( 'NONE', #73, .T. ) ;
#291 = STYLED_ITEM ( 'NONE', ( #6 ), #67 ) ;
#292 = AXIS2_PLACEMENT_3D ( 'NONE', #655, #579, #887 ) ;
#293 = ORIENTED_EDGE ( 'NONE', *, *, #806, .T. ) ;
#294 = ORIENTED_EDGE ( 'NONE', *, *, #262, .F. ) ;
#295 = DIRECTION ( 'NONE',  ( 0.000000000000000000, -0.000000000000000000, 1.000000000000000000 ) ) ;
#296 = UNCERTAINTY_MEASURE_WITH_UNIT (LENGTH_MEASURE( 1.000000000000000082E-05 ), #644, 'distance_accuracy_value', 'NONE');
#297 = LINE ( 'NONE', #145, #512 ) ;
#298 = VERTEX_POINT ( 'NONE', #278 ) ;
#299 = DIRECTION ( 'NONE',  ( 0.000000000000000000, 0.000000000000000000, -1.000000000000000000 ) ) ;
#300 = ADVANCED_FACE ( 'NONE', ( #667 ), #741, .F. ) ;
#301 = SURFACE_STYLE_USAGE ( .BOTH. , #311 ) ;
#302 = ORIENTED_EDGE ( 'NONE', *, *, #771, .T. ) ;
#303 = DIRECTION ( 'NONE',  ( 0.000000000000000000, 0.000000000000000000, -1.000000000000000000 ) ) ;
#304 = DIRECTION ( 'NONE',  ( 0.000000000000000000, -1.000000000000000000, 0.000000000000000000 ) ) ;
#305 = PRESENTATION_LAYER_ASSIGNMENT (  '', '', ( #291 ) ) ;
#306 = ADVANCED_FACE ( 'NONE', ( #735, #425, #114, #969, #45, #815, #896, #528, #836, #222 ), #131, .T. ) ;
#307 = AXIS2_PLACEMENT_3D ( 'NONE', #809, #504, #938 ) ;
#308 = ORIENTED_EDGE ( 'NONE', *, *, #921, .F. ) ;
#309 = DIRECTION ( 'NONE',  ( 0.000000000000000000, 0.000000000000000000, -1.000000000000000000 ) ) ;
#310 = FACE_OUTER_BOUND ( 'NONE', #207, .T. ) ;
#311 = SURFACE_SIDE_STYLE ('',( #846 ) ) ;
#312 = ADVANCED_FACE ( 'NONE', ( #200 ), #730, .T. ) ;
#313 = ORIENTED_EDGE ( 'NONE', *, *, #762, .T. ) ;
#314 = CYLINDRICAL_SURFACE ( 'NONE', #113, 48.75000000000000000 ) ;
#315 = LINE ( 'NONE', #923, #240 ) ;
#316 =( NAMED_UNIT ( * ) PLANE_ANGLE_UNIT ( ) SI_UNIT ( $, .RADIAN. ) );
#317 = ORIENTED_EDGE ( 'NONE', *, *, #245, .T. ) ;
#318 = ADVANCED_FACE ( 'NONE', ( #286 ), #118, .F. ) ;
#319 = CARTESIAN_POINT ( 'NONE',  ( 7.147060721024445229E-13, 0.000000000000000000, 39.25000000000004263 ) ) ;
#320 = CARTESIAN_POINT ( 'NONE',  ( 4.225031457058369711E-15, 12.69999999999999929, 34.50000000000000711 ) ) ;
#321 = CARTESIAN_POINT ( 'NONE',  ( 29.34493141924223281, 12.69999999999999929, 27.09493141924129844 ) ) ;
#322 = AXIS2_PLACEMENT_3D ( 'NONE', #432, #876, #35 ) ;
#323 = AXIS2_PLACEMENT_3D ( 'NONE', #91, #233, #4 ) ;
#324 = ORIENTED_EDGE ( 'NONE', *, *, #489, .T. ) ;
#325 = DIRECTION ( 'NONE',  ( -0.000000000000000000, -1.000000000000000000, -0.000000000000000000 ) ) ;
#326 = DIRECTION ( 'NONE',  ( 0.000000000000000000, 1.000000000000000000, 0.000000000000000000 ) ) ;
#327 = DIRECTION ( 'NONE',  ( 0.000000000000000000, 0.000000000000000000, -1.000000000000000000 ) ) ;
#328 = EDGE_LOOP ( 'NONE', ( #287, #308 ) ) ;
#329 = CARTESIAN_POINT ( 'NONE',  ( 7.147060721024445229E-13, 12.69999999999999929, 39.25000000000004263 ) ) ;
#330 = CARTESIAN_POINT ( 'NONE',  ( -41.49999999999996447, 12.69999999999999929, 7.910339050454240351E-13 ) ) ;
#331 = CARTESIAN_POINT ( 'NONE',  ( 29.34493141924122028, 12.69999999999999929, -29.34493141924215465 ) ) ;
#332 = ORIENTED_EDGE ( 'NONE', *, *, #215, .F. ) ;
#333 = DIRECTION ( 'NONE',  ( 0.000000000000000000, 0.000000000000000000, 1.000000000000000000 ) ) ;
#334 = CARTESIAN_POINT ( 'NONE',  ( -48.68402304658068402, 12.69999999999999929, -22.78000000000000114 ) ) ;
#335 = EDGE_CURVE ( 'NONE', #556, #665, #719, .T. ) ;
#336 = LINE ( 'NONE', #555, #26 ) ;
#337 = CIRCLE ( 'NONE', #462, 2.249999999999998668 ) ;
#338 = ORIENTED_EDGE ( 'NONE', *, *, #335, .F. ) ;
#339 = AXIS2_PLACEMENT_3D ( 'NONE', #149, #494, #363 ) ;
#340 = AXIS2_PLACEMENT_3D ( 'NONE', #355, #221, #740 ) ;
#341 = FACE_OUTER_BOUND ( 'NONE', #434, .T. ) ;
#342 = CARTESIAN_POINT ( 'NONE',  ( -29.34493141924122028, 12.69999999999999929, 29.34493141924230741 ) ) ;
#343 = EDGE_LOOP ( 'NONE', ( #508, #860, #839, #520 ) ) ;
#344 = ADVANCED_FACE ( 'NONE', ( #71 ), #682, .T. ) ;
#345 = ORIENTED_EDGE ( 'NONE', *, *, #474, .F. ) ;
#346 = CARTESIAN_POINT ( 'NONE',  ( 29.34493141924122028, 12.69999999999999929, -29.34493141924215465 ) ) ;
#347 = LINE ( 'NONE', #650, #497 ) ;
#348 = ORIENTED_EDGE ( 'NONE', *, *, #964, .T. ) ;
#349 = EDGE_CURVE ( 'NONE', #907, #217, #965, .T. ) ;
#350 = CYLINDRICAL_SURFACE ( 'NONE', #543, 2.250000000000002220 ) ;
#351 = DIRECTION ( 'NONE',  ( 0.000000000000000000, 0.000000000000000000, -1.000000000000000000 ) ) ;
#352 = ORIENTED_EDGE ( 'NONE', *, *, #135, .F. ) ;
#353 = CIRCLE ( 'NONE', #42, 2.250000000000001776 ) ;
#354 = EDGE_LOOP ( 'NONE', ( #48, #163 ) ) ;
#355 = CARTESIAN_POINT ( 'NONE',  ( 29.34493141924223281, 12.69999999999999929, 29.34493141924129489 ) ) ;
#356 = CIRCLE ( 'NONE', #529, 2.250000000000001776 ) ;
#357 = AXIS2_PLACEMENT_3D ( 'NONE', #122, #653, #485 ) ;
#358 = DIRECTION ( 'NONE',  ( -0.000000000000000000, -1.000000000000000000, -0.000000000000000000 ) ) ;
#359 = DIRECTION ( 'NONE',  ( -0.000000000000000000, -1.000000000000000000, -0.000000000000000000 ) ) ;
#360 = ORIENTED_EDGE ( 'NONE', *, *, #615, .F. ) ;
#361 = DIRECTION ( 'NONE',  ( 0.000000000000000000, 0.000000000000000000, -1.000000000000000000 ) ) ;
#362 = ADVANCED_FACE ( 'NONE', ( #882 ), #568, .F. ) ;
#363 = DIRECTION ( 'NONE',  ( 0.000000000000000000, -0.000000000000000000, 1.000000000000000000 ) ) ;
#364 = EDGE_LOOP ( 'NONE', ( #110, #643 ) ) ;
#365 = ORIENTED_EDGE ( 'NONE', *, *, #970, .T. ) ;
#366 = CARTESIAN_POINT ( 'NONE',  ( -29.34493141924223281, 0.000000000000000000, -27.09493141924114568 ) ) ;
#367 = APPLICATION_CONTEXT ( 'automotive_design' ) ;
#368 = ORIENTED_EDGE ( 'NONE', *, *, #139, .T. ) ;
#369 = ORIENTED_EDGE ( 'NONE', *, *, #615, .T. ) ;
#370 = DIRECTION ( 'NONE',  ( -0.000000000000000000, -1.000000000000000000, -0.000000000000000000 ) ) ;
#371 = CIRCLE ( 'NONE', #930, 2.249999999999998668 ) ;
#372 = ORIENTED_EDGE ( 'NONE', *, *, #120, .F. ) ;
#373 = EDGE_CURVE ( 'NONE', #731, #889, #421, .T. ) ;
#374 = DIRECTION ( 'NONE',  ( 0.000000000000000000, 1.000000000000000000, 0.000000000000000000 ) ) ;
#375 = LINE ( 'NONE', #610, #192 ) ;
#376 = EDGE_LOOP ( 'NONE', ( #249, #716 ) ) ;
#377 = DIRECTION ( 'NONE',  ( 0.000000000000000000, 1.000000000000000000, 0.000000000000000000 ) ) ;
#378 = EDGE_CURVE ( 'NONE', #511, #267, #347, .T. ) ;
#379 = CARTESIAN_POINT ( 'NONE',  ( 41.49999999999996447, 12.69999999999999929, -6.383782391594650107E-13 ) ) ;
#380 =( LENGTH_UNIT ( ) NAMED_UNIT ( * ) SI_UNIT ( .MILLI., .METRE. ) );
#381 = ORIENTED_EDGE ( 'NONE', *, *, #583, .F. ) ;
#382 = CARTESIAN_POINT ( 'NONE',  ( 29.34493141924122028, 0.000000000000000000, -29.34493141924215465 ) ) ;
#383 = DIRECTION ( 'NONE',  ( -1.000000000000000000, -0.000000000000000000, 3.452186021844360465E-15 ) ) ;
#384 = CIRCLE ( 'NONE', #43, 34.50000000000000711 ) ;
#385 = VECTOR ( 'NONE', #14, 1000.000000000000000 ) ;
#386 = DIRECTION ( 'NONE',  ( 0.000000000000000000, 0.000000000000000000, -1.000000000000000000 ) ) ;
#387 = ORIENTED_EDGE ( 'NONE', *, *, #166, .T. ) ;
#388 = DIRECTION ( 'NONE',  ( 0.000000000000000000, -1.000000000000000000, 0.000000000000000000 ) ) ;
#389 = CARTESIAN_POINT ( 'NONE',  ( -7.147060721024445229E-13, 12.69999999999999929, -41.49999999999989342 ) ) ;
#390 = EDGE_CURVE ( 'NONE', #796, #664, #282, .T. ) ;
#391 = VERTEX_POINT ( 'NONE', #39 ) ;
#392 = CARTESIAN_POINT ( 'NONE',  ( -29.34493141924122028, 12.69999999999999929, 31.59493141924230741 ) ) ;
#393 = DIRECTION ( 'NONE',  ( 0.000000000000000000, 0.000000000000000000, -1.000000000000000000 ) ) ;
#394 = CARTESIAN_POINT ( 'NONE',  ( 29.34493141924122028, 12.69999999999999929, -27.09493141924215820 ) ) ;
#395 = ORIENTED_EDGE ( 'NONE', *, *, #461, .T. ) ;
#396 = CARTESIAN_POINT ( 'NONE',  ( 0.000000000000000000, 0.000000000000000000, 0.000000000000000000 ) ) ;
#397 = CARTESIAN_POINT ( 'NONE',  ( 7.149816176322526833E-13, 12.69999999999999929, 43.75000000000004263 ) ) ;
#398 = DIRECTION ( 'NONE',  ( 0.000000000000000000, 0.000000000000000000, 1.000000000000000000 ) ) ;
#399 = CIRCLE ( 'NONE', #292, 2.250000000000002220 ) ;
#400 = AXIS2_PLACEMENT_3D ( 'NONE', #382, #994, #309 ) ;
#401 = EDGE_LOOP ( 'NONE', ( #808, #616 ) ) ;
#402 = EDGE_CURVE ( 'NONE', #941, #506, #399, .T. ) ;
#403 = CARTESIAN_POINT ( 'NONE',  ( 29.34493141924223281, 0.000000000000000000, 31.59493141924129489 ) ) ;
#404 = CARTESIAN_POINT ( 'NONE',  ( 7.147060721024445229E-13, 0.000000000000000000, 41.50000000000004263 ) ) ;
#405 = EDGE_LOOP ( 'NONE', ( #888, #345, #429, #368 ) ) ;
#406 = CARTESIAN_POINT ( 'NONE',  ( 0.000000000000000000, 0.000000000000000000, -34.50000000000000711 ) ) ;
#407 = ADVANCED_FACE ( 'NONE', ( #505 ), #810, .T. ) ;
#408 = CARTESIAN_POINT ( 'NONE',  ( -41.49999999999996447, 0.000000000000000000, -2.249999999999211298 ) ) ;
#409 = ORIENTED_EDGE ( 'NONE', *, *, #583, .T. ) ;
#410 = DIRECTION ( 'NONE',  ( -0.000000000000000000, -1.000000000000000000, -0.000000000000000000 ) ) ;
#411 = EDGE_CURVE ( 'NONE', #889, #708, #816, .T. ) ;
#412 = CARTESIAN_POINT ( 'NONE',  ( -45.24200480260813606, 31.49563306904291338, -17.93000000000000682 ) ) ;
#413 = VECTOR ( 'NONE', #101, 1000.000000000000000 ) ;
#414 = ORIENTED_EDGE ( 'NONE', *, *, #195, .F. ) ;
#415 = AXIS2_PLACEMENT_3D ( 'NONE', #285, #744, #295 ) ;
#416 = CARTESIAN_POINT ( 'NONE',  ( 29.34493141924122028, 0.000000000000000000, -31.59493141924215465 ) ) ;
#417 = DIRECTION ( 'NONE',  ( 0.000000000000000000, 0.000000000000000000, -1.000000000000000000 ) ) ;
#418 = EDGE_CURVE ( 'NONE', #599, #590, #174, .T. ) ;
#419 = EDGE_LOOP ( 'NONE', ( #789, #17, #124, #227 ) ) ;
#420 = DIRECTION ( 'NONE',  ( 0.000000000000000000, 0.000000000000000000, 1.000000000000000000 ) ) ;
#421 = LINE ( 'NONE', #190, #881 ) ;
#422 = ORIENTED_EDGE ( 'NONE', *, *, #893, .T. ) ;
#423 = ORIENTED_EDGE ( 'NONE', *, *, #135, .T. ) ;
#424 = DIRECTION ( 'NONE',  ( -0.000000000000000000, -1.000000000000000000, -0.000000000000000000 ) ) ;
#425 = FACE_BOUND ( 'NONE', #232, .T. ) ;
#426 = EDGE_LOOP ( 'NONE', ( #525, #569, #595, #65 ) ) ;
#427 = AXIS2_PLACEMENT_3D ( 'NONE', #2, #84, #225 ) ;
#428 = AXIS2_PLACEMENT_3D ( 'NONE', #804, #253, #420 ) ;
#429 = ORIENTED_EDGE ( 'NONE', *, *, #349, .T. ) ;
#430 = DIRECTION ( 'NONE',  ( 0.000000000000000000, 0.000000000000000000, -1.000000000000000000 ) ) ;
#431 = AXIS2_PLACEMENT_3D ( 'NONE', #840, #153, #455 ) ;
#432 = CARTESIAN_POINT ( 'NONE',  ( 0.000000000000000000, 12.69999999999999929, 0.000000000000000000 ) ) ;
#433 = APPLICATION_CONTEXT ( 'automotive_design' ) ;
#434 = EDGE_LOOP ( 'NONE', ( #733, #584, #7, #177 ) ) ;
#435 = VERTEX_POINT ( 'NONE', #934 ) ;
#436 = CYLINDRICAL_SURFACE ( 'NONE', #593, 2.249999999999998668 ) ;
#437 = EDGE_CURVE ( 'NONE', #506, #588, #856, .T. ) ;
#438 = ORIENTED_EDGE ( 'NONE', *, *, #411, .T. ) ;
#439 = ORIENTED_EDGE ( 'NONE', *, *, #879, .F. ) ;
#440 = FACE_BOUND ( 'NONE', #328, .T. ) ;
#441 = EDGE_CURVE ( 'NONE', #256, #588, #991, .T. ) ;
#442 = DIRECTION ( 'NONE',  ( -0.000000000000000000, -1.000000000000000000, -0.000000000000000000 ) ) ;
#443 = EDGE_LOOP ( 'NONE', ( #372, #602 ) ) ;
#444 = CARTESIAN_POINT ( 'NONE',  ( -29.34493141924122028, 12.69999999999999929, 27.09493141924231097 ) ) ;
#445 = MECHANICAL_DESIGN_GEOMETRIC_PRESENTATION_REPRESENTATION (  '', ( #291 ), #942 ) ;
#446 = AXIS2_PLACEMENT_3D ( 'NONE', #988, #613, #98 ) ;
#447 = VECTOR ( 'NONE', #81, 1000.000000000000000 ) ;
#448 = DIRECTION ( 'NONE',  ( 0.000000000000000000, -1.000000000000000000, 0.000000000000000000 ) ) ;
#449 = EDGE_CURVE ( 'NONE', #782, #57, #159, .T. ) ;
#450 = EDGE_LOOP ( 'NONE', ( #338, #151 ) ) ;
#451 = DIRECTION ( 'NONE',  ( -0.000000000000000000, -1.000000000000000000, -0.000000000000000000 ) ) ;
#452 = CARTESIAN_POINT ( 'NONE',  ( 29.34493141924223281, 12.69999999999999929, 29.34493141924129489 ) ) ;
#453 = DIRECTION ( 'NONE',  ( 0.000000000000000000, 1.000000000000000000, 0.000000000000000000 ) ) ;
#454 = ORIENTED_EDGE ( 'NONE', *, *, #238, .T. ) ;
#455 = DIRECTION ( 'NONE',  ( 0.000000000000000000, 0.000000000000000000, -1.000000000000000000 ) ) ;
#456 = CARTESIAN_POINT ( 'NONE',  ( -7.147060721024445229E-13, 12.69999999999999929, -43.74999999999989342 ) ) ;
#457 = CARTESIAN_POINT ( 'NONE',  ( 0.000000000000000000, 12.69999999999999929, 0.000000000000000000 ) ) ;
#458 = EDGE_LOOP ( 'NONE', ( #760, #972, #191, #955 ) ) ;
#459 = FACE_OUTER_BOUND ( 'NONE', #85, .T. ) ;
#460 = CARTESIAN_POINT ( 'NONE',  ( 29.34493141924122028, 0.000000000000000000, -27.09493141924215820 ) ) ;
#461 = EDGE_CURVE ( 'NONE', #298, #511, #780, .T. ) ;
#462 = AXIS2_PLACEMENT_3D ( 'NONE', #742, #720, #109 ) ;
#463 = VECTOR ( 'NONE', #954, 1000.000000000000000 ) ;
#464 = AXIS2_PLACEMENT_3D ( 'NONE', #586, #670, #299 ) ;
#465 = CYLINDRICAL_SURFACE ( 'NONE', #798, 2.250000000000001776 ) ;
#466 = ORIENTED_EDGE ( 'NONE', *, *, #269, .T. ) ;
#467 = DIRECTION ( 'NONE',  ( -0.000000000000000000, -1.000000000000000000, -0.000000000000000000 ) ) ;
#468 = CARTESIAN_POINT ( 'NONE',  ( -29.34493141924223281, 0.000000000000000000, -29.34493141924114212 ) ) ;
#469 = FACE_OUTER_BOUND ( 'NONE', #903, .T. ) ;
#470 = EDGE_LOOP ( 'NONE', ( #360, #271, #302, #289 ) ) ;
#471 = DIRECTION ( 'NONE',  ( -0.000000000000000000, -1.000000000000000000, -0.000000000000000000 ) ) ;
#472 = DIRECTION ( 'NONE',  ( 0.000000000000000000, 0.000000000000000000, 1.000000000000000000 ) ) ;
#473 = DIRECTION ( 'NONE',  ( 0.000000000000000000, -1.000000000000000000, 0.000000000000000000 ) ) ;
#474 = EDGE_CURVE ( 'NONE', #907, #3, #688, .T. ) ;
#475 = VERTEX_POINT ( 'NONE', #695 ) ;
#476 = ORIENTED_EDGE ( 'NONE', *, *, #269, .F. ) ;
#477 = DIRECTION ( 'NONE',  ( 0.000000000000000000, -1.000000000000000000, 0.000000000000000000 ) ) ;
#478 = AXIS2_PLACEMENT_3D ( 'NONE', #539, #72, #924 ) ;
#479 = AXIS2_PLACEMENT_3D ( 'NONE', #404, #16, #635 ) ;
#480 = CARTESIAN_POINT ( 'NONE',  ( -29.34493141924122028, 12.69999999999999929, 27.09493141924231097 ) ) ;
#481 = AXIS2_PLACEMENT_3D ( 'NONE', #334, #943, #259 ) ;
#482 = ORIENTED_EDGE ( 'NONE', *, *, #418, .F. ) ;
#483 = ADVANCED_FACE ( 'NONE', ( #861 ), #689, .F. ) ;
#484 = ORIENTED_EDGE ( 'NONE', *, *, #597, .F. ) ;
#485 = DIRECTION ( 'NONE',  ( 0.000000000000000000, 0.000000000000000000, -1.000000000000000000 ) ) ;
#486 = PLANE ( 'NONE',  #718 ) ;
#487 = ORIENTED_EDGE ( 'NONE', *, *, #566, .T. ) ;
#488 = CARTESIAN_POINT ( 'NONE',  ( 29.34493141924122028, 12.69999999999999929, -27.09493141924215820 ) ) ;
#489 = EDGE_CURVE ( 'NONE', #665, #556, #209, .T. ) ;
#490 = LINE ( 'NONE', #251, #413 ) ;
#491 = VERTEX_POINT ( 'NONE', #403 ) ;
#492 = DIRECTION ( 'NONE',  ( 0.000000000000000000, 0.000000000000000000, -1.000000000000000000 ) ) ;
#493 = EDGE_CURVE ( 'NONE', #620, #599, #356, .T. ) ;
#494 = DIRECTION ( 'NONE',  ( 0.000000000000000000, 1.000000000000000000, 0.000000000000000000 ) ) ;
#495 = AXIS2_PLACEMENT_3D ( 'NONE', #150, #825, #140 ) ;
#496 = VERTEX_POINT ( 'NONE', #606 ) ;
#497 = VECTOR ( 'NONE', #959, 1000.000000000000000 ) ;
#498 = DIRECTION ( 'NONE',  ( -0.000000000000000000, -1.000000000000000000, -0.000000000000000000 ) ) ;
#499 = VECTOR ( 'NONE', #467, 1000.000000000000000 ) ;
#500 = CARTESIAN_POINT ( 'NONE',  ( -7.144305265726363625E-13, 12.69999999999999929, -39.24999999999988631 ) ) ;
#501 = CARTESIAN_POINT ( 'NONE',  ( 0.000000000000000000, 12.69999999999999929, -34.50000000000000711 ) ) ;
#502 = ORIENTED_EDGE ( 'NONE', *, *, #691, .F. ) ;
#503 = ORIENTED_EDGE ( 'NONE', *, *, #449, .F. ) ;
#504 = DIRECTION ( 'NONE',  ( 0.000000000000000000, 1.000000000000000000, 0.000000000000000000 ) ) ;
#505 = FACE_OUTER_BOUND ( 'NONE', #236, .T. ) ;
#506 = VERTEX_POINT ( 'NONE', #914 ) ;
#507 = ADVANCED_FACE ( 'NONE', ( #310 ), #841, .F. ) ;
#508 = ORIENTED_EDGE ( 'NONE', *, *, #696, .F. ) ;
#509 = CARTESIAN_POINT ( 'NONE',  ( -44.15527671666620790, 12.69999999999999929, -20.66093023255814032 ) ) ;
#510 = CARTESIAN_POINT ( 'NONE',  ( -29.34493141924122028, 0.000000000000000000, 29.34493141924230741 ) ) ;
#511 = VERTEX_POINT ( 'NONE', #763 ) ;
#512 = VECTOR ( 'NONE', #62, 1000.000000000000000 ) ;
#513 = EDGE_CURVE ( 'NONE', #599, #620, #13, .T. ) ;
#514 = CIRCLE ( 'NONE', #428, 34.50000000000000711 ) ;
#515 = ORIENTED_EDGE ( 'NONE', *, *, #536, .F. ) ;
#516 = DIRECTION ( 'NONE',  ( 0.000000000000000000, 0.000000000000000000, 1.000000000000000000 ) ) ;
#517 = VERTEX_POINT ( 'NONE', #165 ) ;
#518 = ORIENTED_EDGE ( 'NONE', *, *, #335, .T. ) ;
#519 = CARTESIAN_POINT ( 'NONE',  ( 0.000000000000000000, 12.69999999999999929, 0.000000000000000000 ) ) ;
#520 = ORIENTED_EDGE ( 'NONE', *, *, #909, .T. ) ;
#521 = VERTEX_POINT ( 'NONE', #460 ) ;
#522 = CARTESIAN_POINT ( 'NONE',  ( -47.46849846846636467, 0.000000000000000000, 17.92999999999999972 ) ) ;
#523 = PRODUCT_RELATED_PRODUCT_CATEGORY ( 'part', '', ( #56 ) ) ;
#524 = CYLINDRICAL_SURFACE ( 'NONE', #686, 2.250000000000001776 ) ;
#525 = ORIENTED_EDGE ( 'NONE', *, *, #215, .T. ) ;
#526 = CARTESIAN_POINT ( 'NONE',  ( -45.24200480260813606, 31.49563306904291338, 17.92999999999999972 ) ) ;
#527 = CLOSED_SHELL ( 'NONE', ( #578, #756, #125, #277, #300, #935, #952, #201, #76, #838, #407, #306, #800, #507, #776, #312, #362, #483, #318, #702, #1, #713, #64, #788, #794, #939, #255, #344 ) ) ;
#528 = FACE_BOUND ( 'NONE', #364, .T. ) ;
#529 = AXIS2_PLACEMENT_3D ( 'NONE', #5, #304, #534 ) ;
#530 = AXIS2_PLACEMENT_3D ( 'NONE', #774, #228, #148 ) ;
#531 =( NAMED_UNIT ( * ) SI_UNIT ( $, .STERADIAN. ) SOLID_ANGLE_UNIT ( ) );
#532 = ORIENTED_EDGE ( 'NONE', *, *, #441, .T. ) ;
#533 = CARTESIAN_POINT ( 'NONE',  ( -41.49999999999996447, 12.69999999999999929, -2.249999999999211298 ) ) ;
#534 = DIRECTION ( 'NONE',  ( 0.000000000000000000, 0.000000000000000000, -1.000000000000000000 ) ) ;
#535 = VERTEX_POINT ( 'NONE', #618 ) ;
#536 = EDGE_CURVE ( 'NONE', #869, #889, #315, .T. ) ;
#537 = FACE_OUTER_BOUND ( 'NONE', #778, .T. ) ;
#538 = DIRECTION ( 'NONE',  ( 0.000000000000000000, 0.000000000000000000, -1.000000000000000000 ) ) ;
#539 = CARTESIAN_POINT ( 'NONE',  ( 0.000000000000000000, 0.000000000000000000, 0.000000000000000000 ) ) ;
#540 = ORIENTED_EDGE ( 'NONE', *, *, #683, .T. ) ;
#541 = DIRECTION ( 'NONE',  ( 0.000000000000000000, -1.000000000000000000, 0.000000000000000000 ) ) ;
#542 = DIRECTION ( 'NONE',  ( 0.000000000000000000, 0.000000000000000000, -1.000000000000000000 ) ) ;
#543 = AXIS2_PLACEMENT_3D ( 'NONE', #111, #38, #268 ) ;
#544 = AXIS2_PLACEMENT_3D ( 'NONE', #949, #263, #492 ) ;
#545 = CARTESIAN_POINT ( 'NONE',  ( -7.147060721024445229E-13, 0.000000000000000000, -41.49999999999989342 ) ) ;
#546 = ORIENTED_EDGE ( 'NONE', *, *, #402, .F. ) ;
#547 = DIRECTION ( 'NONE',  ( 1.000000000000000000, -0.000000000000000000, 0.000000000000000000 ) ) ;
#548 = DIRECTION ( 'NONE',  ( -0.000000000000000000, -1.000000000000000000, -0.000000000000000000 ) ) ;
#549 = EDGE_CURVE ( 'NONE', #588, #256, #625, .T. ) ;
#550 = DIRECTION ( 'NONE',  ( 0.000000000000000000, 0.000000000000000000, -1.000000000000000000 ) ) ;
#551 = VERTEX_POINT ( 'NONE', #397 ) ;
#552 = PLANE ( 'NONE',  #530 ) ;
#553 = CARTESIAN_POINT ( 'NONE',  ( -48.68402304658068402, 0.000000000000000000, -22.78000000000000114 ) ) ;
#554 = EDGE_CURVE ( 'NONE', #21, #765, #607, .T. ) ;
#555 = CARTESIAN_POINT ( 'NONE',  ( -47.46849846846636467, 12.69999999999999929, 17.92999999999999972 ) ) ;
#556 = VERTEX_POINT ( 'NONE', #699 ) ;
#557 = LINE ( 'NONE', #865, #992 ) ;
#558 = AXIS2_PLACEMENT_3D ( 'NONE', #571, #196, #582 ) ;
#559 = DIRECTION ( 'NONE',  ( 0.000000000000000000, -1.000000000000000000, 0.000000000000000000 ) ) ;
#560 = AXIS2_PLACEMENT_3D ( 'NONE', #983, #890, #361 ) ;
#561 = ORIENTED_EDGE ( 'NONE', *, *, #378, .F. ) ;
#562 = LINE ( 'NONE', #329, #47 ) ;
#563 = CARTESIAN_POINT ( 'NONE',  ( 0.000000000000000000, 0.000000000000000000, 0.000000000000000000 ) ) ;
#564 = DIRECTION ( 'NONE',  ( 0.000000000000000000, 0.000000000000000000, -1.000000000000000000 ) ) ;
#565 = VERTEX_POINT ( 'NONE', #320 ) ;
#566 = EDGE_CURVE ( 'NONE', #708, #812, #704, .T. ) ;
#567 = DIRECTION ( 'NONE',  ( 0.000000000000000000, -1.000000000000000000, 0.000000000000000000 ) ) ;
#568 = CYLINDRICAL_SURFACE ( 'NONE', #322, 34.50000000000000711 ) ;
#569 = ORIENTED_EDGE ( 'NONE', *, *, #821, .T. ) ;
#570 = DIRECTION ( 'NONE',  ( 0.000000000000000000, 0.000000000000000000, -1.000000000000000000 ) ) ;
#571 = CARTESIAN_POINT ( 'NONE',  ( 0.000000000000000000, 12.69999999999999929, 0.000000000000000000 ) ) ;
#572 = AXIS2_PLACEMENT_3D ( 'NONE', #457, #764, #386 ) ;
#573 = EDGE_LOOP ( 'NONE', ( #279, #409 ) ) ;
#574 = AXIS2_PLACEMENT_3D ( 'NONE', #389, #9, #623 ) ;
#575 = ORIENTED_EDGE ( 'NONE', *, *, #449, .T. ) ;
#576 = CARTESIAN_POINT ( 'NONE',  ( 5.970153145843347150E-15, 12.69999999999999929, 48.75000000000000000 ) ) ;
#577 =( GEOMETRIC_REPRESENTATION_CONTEXT ( 3 ) GLOBAL_UNCERTAINTY_ASSIGNED_CONTEXT ( ( #296 ) ) GLOBAL_UNIT_ASSIGNED_CONTEXT ( ( #644, #116, #652 ) ) REPRESENTATION_CONTEXT ( 'NONE', 'WORKASPACE' ) );
#578 = ADVANCED_FACE ( 'NONE', ( #790 ), #350, .F. ) ;
#579 = DIRECTION ( 'NONE',  ( 0.000000000000000000, -1.000000000000000000, 0.000000000000000000 ) ) ;
#580 = ORIENTED_EDGE ( 'NONE', *, *, #474, .T. ) ;
#581 = FACE_BOUND ( 'NONE', #443, .T. ) ;
#582 = DIRECTION ( 'NONE',  ( 0.000000000000000000, 0.000000000000000000, -1.000000000000000000 ) ) ;
#583 = EDGE_CURVE ( 'NONE', #894, #664, #275, .T. ) ;
#584 = ORIENTED_EDGE ( 'NONE', *, *, #631, .F. ) ;
#585 = ORIENTED_EDGE ( 'NONE', *, *, #390, .T. ) ;
#586 = CARTESIAN_POINT ( 'NONE',  ( 29.34493141924122028, 0.000000000000000000, -29.34493141924215465 ) ) ;
#587 = CARTESIAN_POINT ( 'NONE',  ( 41.49999999999996447, 12.69999999999999929, -2.250000000000640821 ) ) ;
#588 = VERTEX_POINT ( 'NONE', #189 ) ;
#589 = VECTOR ( 'NONE', #646, 1000.000000000000000 ) ;
#590 = VERTEX_POINT ( 'NONE', #875 ) ;
#591 = EDGE_CURVE ( 'NONE', #506, #941, #944, .T. ) ;
#592 = DIRECTION ( 'NONE',  ( -0.000000000000000000, -1.000000000000000000, -0.000000000000000000 ) ) ;
#593 = AXIS2_PLACEMENT_3D ( 'NONE', #214, #370, #600 ) ;
#594 = ORIENTED_EDGE ( 'NONE', *, *, #909, .F. ) ;
#595 = ORIENTED_EDGE ( 'NONE', *, *, #852, .F. ) ;
#596 = CARTESIAN_POINT ( 'NONE',  ( 7.149816176322526833E-13, 0.000000000000000000, 43.75000000000004263 ) ) ;
#597 = EDGE_CURVE ( 'NONE', #435, #782, #178, .T. ) ;
#598 = CARTESIAN_POINT ( 'NONE',  ( 0.000000000000000000, 0.000000000000000000, 0.000000000000000000 ) ) ;
#599 = VERTEX_POINT ( 'NONE', #199 ) ;
#600 = DIRECTION ( 'NONE',  ( 0.000000000000000000, 0.000000000000000000, -1.000000000000000000 ) ) ;
#601 = DIRECTION ( 'NONE',  ( -0.000000000000000000, -1.000000000000000000, -0.000000000000000000 ) ) ;
#602 = ORIENTED_EDGE ( 'NONE', *, *, #654, .F. ) ;
#603 = CIRCLE ( 'NONE', #479, 2.250000000000001776 ) ;
#604 = DIRECTION ( 'NONE',  ( 0.000000000000000000, 0.000000000000000000, 1.000000000000000000 ) ) ;
#605 = VECTOR ( 'NONE', #229, 1000.000000000000000 ) ;
#606 = CARTESIAN_POINT ( 'NONE',  ( 29.34493141924223281, 12.69999999999999929, 31.59493141924129489 ) ) ;
#607 = CIRCLE ( 'NONE', #144, 2.249999999999998668 ) ;
#608 = AXIS2_PLACEMENT_3D ( 'NONE', #779, #617, #681 ) ;
#609 = EDGE_CURVE ( 'NONE', #565, #796, #514, .T. ) ;
#610 = CARTESIAN_POINT ( 'NONE',  ( 0.000000000000000000, 12.69999999999999929, -48.75000000000000000 ) ) ;
#611 = ORIENTED_EDGE ( 'NONE', *, *, #31, .T. ) ;
#612 = CARTESIAN_POINT ( 'NONE',  ( -29.34493141924223281, 12.69999999999999929, -29.34493141924114212 ) ) ;
#613 = DIRECTION ( 'NONE',  ( 0.000000000000000000, -1.000000000000000000, 0.000000000000000000 ) ) ;
#614 = DIRECTION ( 'NONE',  ( 0.000000000000000000, 0.000000000000000000, -1.000000000000000000 ) ) ;
#615 = EDGE_CURVE ( 'NONE', #284, #183, #257, .T. ) ;
#616 = ORIENTED_EDGE ( 'NONE', *, *, #622, .F. ) ;
#617 = DIRECTION ( 'NONE',  ( 0.000000000000000000, 1.000000000000000000, 0.000000000000000000 ) ) ;
#618 = CARTESIAN_POINT ( 'NONE',  ( 41.49999999999996447, 0.000000000000000000, 2.249999999999364064 ) ) ;
#619 = CARTESIAN_POINT ( 'NONE',  ( 7.147060721024445229E-13, 0.000000000000000000, 41.50000000000004263 ) ) ;
#620 = VERTEX_POINT ( 'NONE', #500 ) ;
#621 = LINE ( 'NONE', #243, #722 ) ;
#622 = EDGE_CURVE ( 'NONE', #765, #21, #258, .T. ) ;
#623 = DIRECTION ( 'NONE',  ( 0.000000000000000000, 0.000000000000000000, -1.000000000000000000 ) ) ;
#624 = CIRCLE ( 'NONE', #766, 48.75000000000000000 ) ;
#625 = CIRCLE ( 'NONE', #910, 2.250000000000002220 ) ;
#626 = CIRCLE ( 'NONE', #323, 2.249999999999998668 ) ;
#627 = CARTESIAN_POINT ( 'NONE',  ( -47.46849846846636467, 12.69999999999999929, 17.92999999999999972 ) ) ;
#628 = ORIENTED_EDGE ( 'NONE', *, *, #31, .F. ) ;
#629 = DIRECTION ( 'NONE',  ( -0.000000000000000000, -1.000000000000000000, -0.000000000000000000 ) ) ;
#630 = DIRECTION ( 'NONE',  ( 1.000000000000000000, -0.000000000000000000, -0.000000000000000000 ) ) ;
#631 = EDGE_CURVE ( 'NONE', #677, #551, #29, .T. ) ;
#632 = CARTESIAN_POINT ( 'NONE',  ( 7.147060721024445229E-13, 12.69999999999999929, 41.50000000000004263 ) ) ;
#633 = ORIENTED_EDGE ( 'NONE', *, *, #979, .T. ) ;
#634 = DIRECTION ( 'NONE',  ( 0.000000000000000000, 0.000000000000000000, -1.000000000000000000 ) ) ;
#635 = DIRECTION ( 'NONE',  ( 0.000000000000000000, 0.000000000000000000, -1.000000000000000000 ) ) ;
#636 = ORIENTED_EDGE ( 'NONE', *, *, #231, .F. ) ;
#637 = CARTESIAN_POINT ( 'NONE',  ( 29.34493141924223281, 0.000000000000000000, 29.34493141924129489 ) ) ;
#638 = AXIS2_PLACEMENT_3D ( 'NONE', #53, #668, #212 ) ;
#639 = VECTOR ( 'NONE', #548, 1000.000000000000000 ) ;
#640 = CARTESIAN_POINT ( 'NONE',  ( -45.24200480260813606, 0.000000000000000000, -17.93000000000000682 ) ) ;
#641 = VECTOR ( 'NONE', #675, 1000.000000000000000 ) ;
#642 = EDGE_CURVE ( 'NONE', #748, #475, #957, .T. ) ;
#643 = ORIENTED_EDGE ( 'NONE', *, *, #905, .T. ) ;
#644 =( LENGTH_UNIT ( ) NAMED_UNIT ( * ) SI_UNIT ( .MILLI., .METRE. ) );
#645 = CYLINDRICAL_SURFACE ( 'NONE', #544, 2.250000000000001776 ) ;
#646 = DIRECTION ( 'NONE',  ( -0.000000000000000000, -1.000000000000000000, -0.000000000000000000 ) ) ;
#647 = ORIENTED_EDGE ( 'NONE', *, *, #821, .F. ) ;
#648 = DIRECTION ( 'NONE',  ( -0.000000000000000000, -1.000000000000000000, -0.000000000000000000 ) ) ;
#649 = PRODUCT_DEFINITION_SHAPE ( 'NONE', 'NONE',  #672 ) ;
#650 = CARTESIAN_POINT ( 'NONE',  ( 0.000000000000000000, 12.69999999999999929, 17.92999999999999972 ) ) ;
#651 = VERTEX_POINT ( 'NONE', #27 ) ;
#652 =( NAMED_UNIT ( * ) SI_UNIT ( $, .STERADIAN. ) SOLID_ANGLE_UNIT ( ) );
#653 = DIRECTION ( 'NONE',  ( 0.000000000000000000, -1.000000000000000000, 0.000000000000000000 ) ) ;
#654 = EDGE_CURVE ( 'NONE', #491, #247, #818, .T. ) ;
#655 = CARTESIAN_POINT ( 'NONE',  ( -41.49999999999996447, 12.69999999999999929, 7.910339050454240351E-13 ) ) ;
#656 = FACE_OUTER_BOUND ( 'NONE', #419, .T. ) ;
#657 = AXIS2_PLACEMENT_3D ( 'NONE', #154, #87, #542 ) ;
#658 = VECTOR ( 'NONE', #709, 1000.000000000000000 ) ;
#659 = ORIENTED_EDGE ( 'NONE', *, *, #728, .F. ) ;
#660 = FACE_OUTER_BOUND ( 'NONE', #807, .T. ) ;
#661 = AXIS2_PLACEMENT_3D ( 'NONE', #874, #333, #266 ) ;
#662 = EDGE_CURVE ( 'NONE', #3, #535, #557, .T. ) ;
#663 = DIRECTION ( 'NONE',  ( 0.000000000000000000, 0.000000000000000000, -1.000000000000000000 ) ) ;
#664 = VERTEX_POINT ( 'NONE', #406 ) ;
#665 = VERTEX_POINT ( 'NONE', #185 ) ;
#666 = FACE_BOUND ( 'NONE', #173, .T. ) ;
#667 = FACE_OUTER_BOUND ( 'NONE', #280, .T. ) ;
#668 = DIRECTION ( 'NONE',  ( 0.000000000000000000, 1.000000000000000000, 0.000000000000000000 ) ) ;
#669 = EDGE_LOOP ( 'NONE', ( #674, #252 ) ) ;
#670 = DIRECTION ( 'NONE',  ( 0.000000000000000000, -1.000000000000000000, 0.000000000000000000 ) ) ;
#671 = ORIENTED_EDGE ( 'NONE', *, *, #373, .F. ) ;
#672 = PRODUCT_DEFINITION ( 'UNKNOWN', '', #100, #684 ) ;
#673 = VECTOR ( 'NONE', #769, 1000.000000000000000 ) ;
#674 = ORIENTED_EDGE ( 'NONE', *, *, #513, .T. ) ;
#675 = DIRECTION ( 'NONE',  ( 0.000000000000000000, -1.000000000000000000, 0.000000000000000000 ) ) ;
#676 = AXIS2_PLACEMENT_3D ( 'NONE', #833, #424, #138 ) ;
#677 = VERTEX_POINT ( 'NONE', #23 ) ;
#678 = DIRECTION ( 'NONE',  ( -0.000000000000000000, -1.000000000000000000, -0.000000000000000000 ) ) ;
#679 = DIRECTION ( 'NONE',  ( 0.000000000000000000, 0.000000000000000000, 1.000000000000000000 ) ) ;
#680 = ORIENTED_EDGE ( 'NONE', *, *, #683, .F. ) ;
#681 = DIRECTION ( 'NONE',  ( 0.000000000000000000, 0.000000000000000000, 1.000000000000000000 ) ) ;
#682 = PLANE ( 'NONE',  #112 ) ;
#683 = EDGE_CURVE ( 'NONE', #812, #731, #913, .T. ) ;
#684 = PRODUCT_DEFINITION_CONTEXT ( 'detailed design', #367, 'design' ) ;
#685 = ORIENTED_EDGE ( 'NONE', *, *, #591, .F. ) ;
#686 = AXIS2_PLACEMENT_3D ( 'NONE', #754, #442, #614 ) ;
#687 = LINE ( 'NONE', #922, #447 ) ;
#688 = CIRCLE ( 'NONE', #79, 2.250000000000002220 ) ;
#689 = CYLINDRICAL_SURFACE ( 'NONE', #44, 2.249999999999998668 ) ;
#690 = AXIS2_PLACEMENT_3D ( 'NONE', #519, #374, #516 ) ;
#691 = EDGE_CURVE ( 'NONE', #284, #521, #871, .T. ) ;
#692 = DIRECTION ( 'NONE',  ( 0.000000000000000000, 1.000000000000000000, 0.000000000000000000 ) ) ;
#693 = EDGE_LOOP ( 'NONE', ( #575, #466, #133, #438, #242, #352, #884, #137 ) ) ;
#694 = LINE ( 'NONE', #237, #499 ) ;
#695 = CARTESIAN_POINT ( 'NONE',  ( 5.970153145843347150E-15, 0.000000000000000000, 48.75000000000000000 ) ) ;
#696 = EDGE_CURVE ( 'NONE', #620, #36, #793, .T. ) ;
#697 = ORIENTED_EDGE ( 'NONE', *, *, #262, .T. ) ;
#698 = DIRECTION ( 'NONE',  ( 0.000000000000000000, -1.000000000000000000, 0.000000000000000000 ) ) ;
#699 = CARTESIAN_POINT ( 'NONE',  ( -29.34493141924122028, 0.000000000000000000, 27.09493141924231097 ) ) ;
#700 = DIRECTION ( 'NONE',  ( 0.000000000000000000, -1.000000000000000000, 0.000000000000000000 ) ) ;
#701 = VERTEX_POINT ( 'NONE', #416 ) ;
#702 = ADVANCED_FACE ( 'NONE', ( #341 ), #645, .F. ) ;
#703 = CARTESIAN_POINT ( 'NONE',  ( 41.49999999999996447, 0.000000000000000000, -6.383782391594650107E-13 ) ) ;
#704 = LINE ( 'NONE', #929, #385 ) ;
#705 = AXIS2_PLACEMENT_3D ( 'NONE', #175, #700, #327 ) ;
#706 = AXIS2_PLACEMENT_3D ( 'NONE', #849, #629, #164 ) ;
#707 = CARTESIAN_POINT ( 'NONE',  ( 29.34493141924122028, 12.69999999999999929, -31.59493141924215465 ) ) ;
#708 = VERTEX_POINT ( 'NONE', #953 ) ;
#709 = DIRECTION ( 'NONE',  ( -0.000000000000000000, -1.000000000000000000, -0.000000000000000000 ) ) ;
#710 = CYLINDRICAL_SURFACE ( 'NONE', #814, 2.249999999999998668 ) ;
#711 = ORIENTED_EDGE ( 'NONE', *, *, #893, .F. ) ;
#712 = DIRECTION ( 'NONE',  ( 0.000000000000000000, 0.000000000000000000, -1.000000000000000000 ) ) ;
#713 = ADVANCED_FACE ( 'NONE', ( #725 ), #34, .F. ) ;
#714 = DIRECTION ( 'NONE',  ( 0.000000000000000000, 0.000000000000000000, -1.000000000000000000 ) ) ;
#715 = ORIENTED_EDGE ( 'NONE', *, *, #83, .T. ) ;
#716 = ORIENTED_EDGE ( 'NONE', *, *, #549, .F. ) ;
#717 = DIRECTION ( 'NONE',  ( -0.000000000000000000, -1.000000000000000000, -0.000000000000000000 ) ) ;
#718 = AXIS2_PLACEMENT_3D ( 'NONE', #412, #246, #950 ) ;
#719 = CIRCLE ( 'NONE', #129, 2.249999999999998668 ) ;
#720 = DIRECTION ( 'NONE',  ( 0.000000000000000000, -1.000000000000000000, 0.000000000000000000 ) ) ;
#721 = CIRCLE ( 'NONE', #464, 2.249999999999998668 ) ;
#722 = VECTOR ( 'NONE', #547, 1000.000000000000000 ) ;
#723 = ORIENTED_EDGE ( 'NONE', *, *, #642, .F. ) ;
#724 = PRODUCT_CONTEXT ( 'NONE', #433, 'mechanical' ) ;
#725 = FACE_OUTER_BOUND ( 'NONE', #854, .T. ) ;
#726 = DIRECTION ( 'NONE',  ( -0.000000000000000000, 0.000000000000000000, 1.000000000000000000 ) ) ;
#727 = ORIENTED_EDGE ( 'NONE', *, *, #288, .F. ) ;
#728 = EDGE_CURVE ( 'NONE', #748, #54, #770, .T. ) ;
#729 = DIRECTION ( 'NONE',  ( 0.000000000000000000, 0.000000000000000000, -1.000000000000000000 ) ) ;
#730 = CYLINDRICAL_SURFACE ( 'NONE', #558, 48.75000000000000000 ) ;
#731 = VERTEX_POINT ( 'NONE', #55 ) ;
#732 = EDGE_CURVE ( 'NONE', #33, #496, #162, .T. ) ;
#733 = ORIENTED_EDGE ( 'NONE', *, *, #863, .F. ) ;
#734 = CARTESIAN_POINT ( 'NONE',  ( 0.000000000000000000, 12.69999999999999929, -34.50000000000000711 ) ) ;
#735 = FACE_BOUND ( 'NONE', #787, .T. ) ;
#736 = AXIS2_PLACEMENT_3D ( 'NONE', #379, #891, #417 ) ;
#737 = ORIENTED_EDGE ( 'NONE', *, *, #402, .T. ) ;
#738 = VECTOR ( 'NONE', #325, 1000.000000000000000 ) ;
#739 = ORIENTED_EDGE ( 'NONE', *, *, #349, .F. ) ;
#740 = DIRECTION ( 'NONE',  ( 0.000000000000000000, 0.000000000000000000, -1.000000000000000000 ) ) ;
#741 = CYLINDRICAL_SURFACE ( 'NONE', #897, 2.249999999999998668 ) ;
#742 = CARTESIAN_POINT ( 'NONE',  ( 29.34493141924223281, 12.69999999999999929, 29.34493141924129489 ) ) ;
#743 = ORIENTED_EDGE ( 'NONE', *, *, #373, .T. ) ;
#744 = DIRECTION ( 'NONE',  ( 0.000000000000000000, 1.000000000000000000, 0.000000000000000000 ) ) ;
#745 = EDGE_CURVE ( 'NONE', #511, #57, #749, .T. ) ;
#746 = UNCERTAINTY_MEASURE_WITH_UNIT (LENGTH_MEASURE( 1.000000000000000082E-05 ), #380, 'distance_accuracy_value', 'NONE');
#747 = CARTESIAN_POINT ( 'NONE',  ( 29.34493141924223281, 12.69999999999999929, 29.34493141924129489 ) ) ;
#748 = VERTEX_POINT ( 'NONE', #980 ) ;
#749 = LINE ( 'NONE', #526, #641 ) ;
#750 = CARTESIAN_POINT ( 'NONE',  ( 0.000000000000000000, 12.69999999999999929, -48.75000000000000000 ) ) ;
#751 = CIRCLE ( 'NONE', #638, 48.75000000000000000 ) ;
#752 = EDGE_LOOP ( 'NONE', ( #659, #102, #423, #628 ) ) ;
#753 = CARTESIAN_POINT ( 'NONE',  ( -48.68402304658069113, 12.69999999999999929, 22.77999999999999758 ) ) ;
#754 = CARTESIAN_POINT ( 'NONE',  ( -7.147060721024445229E-13, 12.69999999999999929, -41.49999999999989342 ) ) ;
#755 = ORIENTED_EDGE ( 'NONE', *, *, #411, .F. ) ;
#756 = ADVANCED_FACE ( 'NONE', ( #290 ), #901, .F. ) ;
#757 = CYLINDRICAL_SURFACE ( 'NONE', #431, 2.250000000000002220 ) ;
#758 = DIRECTION ( 'NONE',  ( 0.000000000000000000, -1.000000000000000000, 0.000000000000000000 ) ) ;
#759 = DIRECTION ( 'NONE',  ( -0.000000000000000000, -1.000000000000000000, -0.000000000000000000 ) ) ;
#760 = ORIENTED_EDGE ( 'NONE', *, *, #152, .F. ) ;
#761 = CARTESIAN_POINT ( 'NONE',  ( -29.34493141924223281, 12.69999999999999929, -27.09493141924114568 ) ) ;
#762 = EDGE_CURVE ( 'NONE', #267, #391, #899, .T. ) ;
#763 = CARTESIAN_POINT ( 'NONE',  ( -45.24200480260813606, 12.69999999999999929, 17.92999999999999972 ) ) ;
#764 = DIRECTION ( 'NONE',  ( -0.000000000000000000, -1.000000000000000000, -0.000000000000000000 ) ) ;
#765 = VERTEX_POINT ( 'NONE', #366 ) ;
#766 = AXIS2_PLACEMENT_3D ( 'NONE', #598, #453, #919 ) ;
#767 = DIRECTION ( 'NONE',  ( 0.000000000000000000, 0.000000000000000000, -1.000000000000000000 ) ) ;
#768 = AXIS2_PLACEMENT_3D ( 'NONE', #878, #886, #729 ) ;
#769 = DIRECTION ( 'NONE',  ( 0.000000000000000000, -0.000000000000000000, 1.000000000000000000 ) ) ;
#770 = CIRCLE ( 'NONE', #690, 48.75000000000000000 ) ;
#771 = EDGE_CURVE ( 'NONE', #521, #701, #721, .T. ) ;
#772 = FILL_AREA_STYLE ('',( #829 ) ) ;
#773 = ORIENTED_EDGE ( 'NONE', *, *, #905, .F. ) ;
#774 = CARTESIAN_POINT ( 'NONE',  ( -45.24200480260813606, 31.49563306904291338, 17.92999999999999972 ) ) ;
#775 = DIRECTION ( 'NONE',  ( 0.000000000000000000, -1.000000000000000000, 0.000000000000000000 ) ) ;
#776 = ADVANCED_FACE ( 'NONE', ( #281 ), #134, .F. ) ;
#777 = DIRECTION ( 'NONE',  ( -0.000000000000000000, -1.000000000000000000, -0.000000000000000000 ) ) ;
#778 = EDGE_LOOP ( 'NONE', ( #971, #892, #982, #739 ) ) ;
#779 = CARTESIAN_POINT ( 'NONE',  ( 0.000000000000000000, 12.69999999999999929, 0.000000000000000000 ) ) ;
#780 = LINE ( 'NONE', #75, #673 ) ;
#781 = LINE ( 'NONE', #105, #830 ) ;
#782 = VERTEX_POINT ( 'NONE', #522 ) ;
#783 = DIRECTION ( 'NONE',  ( -0.000000000000000000, -1.000000000000000000, -0.000000000000000000 ) ) ;
#784 = AXIS2_PLACEMENT_3D ( 'NONE', #747, #359, #817 ) ;
#785 = AXIS2_PLACEMENT_3D ( 'NONE', #545, #473, #714 ) ;
#786 = DIRECTION ( 'NONE',  ( 0.000000000000000000, 0.000000000000000000, -1.000000000000000000 ) ) ;
#787 = EDGE_LOOP ( 'NONE', ( #737, #187 ) ) ;
#788 = ADVANCED_FACE ( 'NONE', ( #660 ), #436, .F. ) ;
#789 = ORIENTED_EDGE ( 'NONE', *, *, #828, .F. ) ;
#790 = FACE_OUTER_BOUND ( 'NONE', #873, .T. ) ;
#791 = LINE ( 'NONE', #93, #272 ) ;
#792 = ORIENTED_EDGE ( 'NONE', *, *, #979, .F. ) ;
#793 = LINE ( 'NONE', #107, #46 ) ;
#794 = ADVANCED_FACE ( 'NONE', ( #908 ), #50, .F. ) ;
#795 = DIRECTION ( 'NONE',  ( -0.000000000000000000, -1.000000000000000000, -0.000000000000000000 ) ) ;
#796 = VERTEX_POINT ( 'NONE', #734 ) ;
#797 = DIRECTION ( 'NONE',  ( 0.000000000000000000, 0.000000000000000000, -1.000000000000000000 ) ) ;
#798 = AXIS2_PLACEMENT_3D ( 'NONE', #155, #601, #842 ) ;
#799 = VECTOR ( 'NONE', #857, 1000.000000000000000 ) ;
#800 = ADVANCED_FACE ( 'NONE', ( #208, #142, #41, #963, #581, #666, #440, #968, #827, #59 ), #204, .F. ) ;
#801 = DIRECTION ( 'NONE',  ( -0.000000000000000000, -1.000000000000000000, -0.000000000000000000 ) ) ;
#802 = AXIS2_PLACEMENT_3D ( 'NONE', #396, #377, #604 ) ;
#803 = ORIENTED_EDGE ( 'NONE', *, *, #231, .T. ) ;
#804 = CARTESIAN_POINT ( 'NONE',  ( 0.000000000000000000, 12.69999999999999929, 0.000000000000000000 ) ) ;
#805 = DIRECTION ( 'NONE',  ( -0.000000000000000000, -1.000000000000000000, -0.000000000000000000 ) ) ;
#806 = EDGE_CURVE ( 'NONE', #197, #556, #127, .T. ) ;
#807 = EDGE_LOOP ( 'NONE', ( #25, #439, #715, #213 ) ) ;
#808 = ORIENTED_EDGE ( 'NONE', *, *, #554, .F. ) ;
#809 = CARTESIAN_POINT ( 'NONE',  ( -48.68402304658069113, 0.000000000000000000, 22.77999999999999758 ) ) ;
#810 = CYLINDRICAL_SURFACE ( 'NONE', #831, 48.75000000000000000 ) ;
#811 = ORIENTED_EDGE ( 'NONE', *, *, #964, .F. ) ;
#812 = VERTEX_POINT ( 'NONE', #509 ) ;
#813 = DIRECTION ( 'NONE',  ( -0.000000000000000000, -1.000000000000000000, -0.000000000000000000 ) ) ;
#814 = AXIS2_PLACEMENT_3D ( 'NONE', #342, #795, #786 ) ;
#815 = FACE_BOUND ( 'NONE', #354, .T. ) ;
#816 = CIRCLE ( 'NONE', #958, 5.000000000000000888 ) ;
#817 = DIRECTION ( 'NONE',  ( 0.000000000000000000, 0.000000000000000000, -1.000000000000000000 ) ) ;
#818 = CIRCLE ( 'NONE', #211, 2.249999999999998668 ) ;
#819 = EDGE_LOOP ( 'NONE', ( #858, #476, #877, #951 ) ) ;
#820 = DIRECTION ( 'NONE',  ( 0.000000000000000000, 0.000000000000000000, 1.000000000000000000 ) ) ;
#821 = EDGE_CURVE ( 'NONE', #565, #894, #973, .T. ) ;
#822 = VERTEX_POINT ( 'NONE', #596 ) ;
#823 = ORIENTED_EDGE ( 'NONE', *, *, #493, .F. ) ;
#824 = CARTESIAN_POINT ( 'NONE',  ( -48.68402304658069113, 12.69999999999999929, 22.77999999999999758 ) ) ;
#825 = DIRECTION ( 'NONE',  ( 0.000000000000000000, -1.000000000000000000, 0.000000000000000000 ) ) ;
#826 = ORIENTED_EDGE ( 'NONE', *, *, #771, .F. ) ;
#827 = FACE_BOUND ( 'NONE', #573, .T. ) ;
#828 = EDGE_CURVE ( 'NONE', #496, #491, #904, .T. ) ;
#829 = FILL_AREA_STYLE_COLOUR ( '', #96 ) ;
#830 = VECTOR ( 'NONE', #172, 1000.000000000000000 ) ;
#831 = AXIS2_PLACEMENT_3D ( 'NONE', #123, #358, #663 ) ;
#832 = ORIENTED_EDGE ( 'NONE', *, *, #158, .F. ) ;
#833 = CARTESIAN_POINT ( 'NONE',  ( -41.49999999999996447, 12.69999999999999929, 7.910339050454240351E-13 ) ) ;
#834 = CIRCLE ( 'NONE', #400, 2.249999999999998668 ) ;
#835 = AXIS2_PLACEMENT_3D ( 'NONE', #612, #844, #157 ) ;
#836 = FACE_BOUND ( 'NONE', #32, .T. ) ;
#837 = DIRECTION ( 'NONE',  ( 0.000000000000000000, 0.000000000000000000, -1.000000000000000000 ) ) ;
#838 = ADVANCED_FACE ( 'NONE', ( #70 ), #314, .T. ) ;
#839 = ORIENTED_EDGE ( 'NONE', *, *, #418, .T. ) ;
#840 = CARTESIAN_POINT ( 'NONE',  ( 41.49999999999996447, 12.69999999999999929, -6.383782391594650107E-13 ) ) ;
#841 = CYLINDRICAL_SURFACE ( 'NONE', #657, 5.000000000000000888 ) ;
#842 = DIRECTION ( 'NONE',  ( 0.000000000000000000, 0.000000000000000000, -1.000000000000000000 ) ) ;
#843 = ORIENTED_EDGE ( 'NONE', *, *, #870, .F. ) ;
#844 = DIRECTION ( 'NONE',  ( 0.000000000000000000, -1.000000000000000000, 0.000000000000000000 ) ) ;
#845 = CARTESIAN_POINT ( 'NONE',  ( -41.49999999999996447, 12.69999999999999929, 2.250000000000793587 ) ) ;
#846 = SURFACE_STYLE_FILL_AREA ( #772 ) ;
#847 = ORIENTED_EDGE ( 'NONE', *, *, #108, .T. ) ;
#848 = CIRCLE ( 'NONE', #926, 48.75000000000000000 ) ;
#849 = CARTESIAN_POINT ( 'NONE',  ( 7.147060721024445229E-13, 12.69999999999999929, 41.50000000000004263 ) ) ;
#850 = VECTOR ( 'NONE', #630, 1000.000000000000000 ) ;
#851 = DIRECTION ( 'NONE',  ( 0.000000000000000000, -1.000000000000000000, 0.000000000000000000 ) ) ;
#852 = EDGE_CURVE ( 'NONE', #664, #894, #241, .T. ) ;
#853 = CYLINDRICAL_SURFACE ( 'NONE', #97, 2.249999999999998668 ) ;
#854 = EDGE_LOOP ( 'NONE', ( #502, #126, #387, #348 ) ) ;
#855 = CARTESIAN_POINT ( 'NONE',  ( 41.49999999999996447, 12.69999999999999929, -2.250000000000640821 ) ) ;
#856 = LINE ( 'NONE', #845, #605 ) ;
#857 = DIRECTION ( 'NONE',  ( -0.000000000000000000, -1.000000000000000000, -0.000000000000000000 ) ) ;
#858 = ORIENTED_EDGE ( 'NONE', *, *, #184, .T. ) ;
#859 = APPLICATION_PROTOCOL_DEFINITION ( 'draft international standard', 'automotive_design', 1998, #433 ) ;
#860 = ORIENTED_EDGE ( 'NONE', *, *, #513, .F. ) ;
#861 = FACE_OUTER_BOUND ( 'NONE', #198, .T. ) ;
#862 = CARTESIAN_POINT ( 'NONE',  ( -44.15527671666621501, 12.69999999999999929, 20.66093023255814032 ) ) ;
#863 = EDGE_CURVE ( 'NONE', #551, #822, #687, .T. ) ;
#864 = EDGE_LOOP ( 'NONE', ( #94, #546, #422, #532 ) ) ;
#865 = CARTESIAN_POINT ( 'NONE',  ( 41.49999999999996447, 12.69999999999999929, 2.249999999999364064 ) ) ;
#866 = CIRCLE ( 'NONE', #785, 2.250000000000001776 ) ;
#867 = CIRCLE ( 'NONE', #181, 2.250000000000001776 ) ;
#868 = CARTESIAN_POINT ( 'NONE',  ( 29.34493141924223281, 0.000000000000000000, 27.09493141924129844 ) ) ;
#869 = VERTEX_POINT ( 'NONE', #917 ) ;
#870 = EDGE_CURVE ( 'NONE', #391, #748, #226, .T. ) ;
#871 = LINE ( 'NONE', #488, #146 ) ;
#872 = DIRECTION ( 'NONE',  ( 0.000000000000000000, 0.000000000000000000, -1.000000000000000000 ) ) ;
#873 = EDGE_LOOP ( 'NONE', ( #685, #273, #80, #711 ) ) ;
#874 = CARTESIAN_POINT ( 'NONE',  ( 0.000000000000000000, 0.000000000000000000, 0.000000000000000000 ) ) ;
#875 = CARTESIAN_POINT ( 'NONE',  ( -7.147060721024445229E-13, 0.000000000000000000, -43.74999999999989342 ) ) ;
#876 = DIRECTION ( 'NONE',  ( -0.000000000000000000, -1.000000000000000000, -0.000000000000000000 ) ) ;
#877 = ORIENTED_EDGE ( 'NONE', *, *, #745, .F. ) ;
#878 = CARTESIAN_POINT ( 'NONE',  ( 29.34493141924122028, 12.69999999999999929, -29.34493141924215465 ) ) ;
#879 = EDGE_CURVE ( 'NONE', #986, #962, #371, .T. ) ;
#880 = CIRCLE ( 'NONE', #478, 48.75000000000000000 ) ;
#881 = VECTOR ( 'NONE', #270, 1000.000000000000000 ) ;
#882 = FACE_OUTER_BOUND ( 'NONE', #911, .T. ) ;
#883 = CIRCLE ( 'NONE', #960, 2.250000000000002220 ) ;
#884 = ORIENTED_EDGE ( 'NONE', *, *, #19, .F. ) ;
#885 = ORIENTED_EDGE ( 'NONE', *, *, #732, .T. ) ;
#886 = DIRECTION ( 'NONE',  ( 0.000000000000000000, -1.000000000000000000, 0.000000000000000000 ) ) ;
#887 = DIRECTION ( 'NONE',  ( 0.000000000000000000, 0.000000000000000000, -1.000000000000000000 ) ) ;
#888 = ORIENTED_EDGE ( 'NONE', *, *, #662, .F. ) ;
#889 = VERTEX_POINT ( 'NONE', #169 ) ;
#890 = DIRECTION ( 'NONE',  ( -0.000000000000000000, -1.000000000000000000, -0.000000000000000000 ) ) ;
#891 = DIRECTION ( 'NONE',  ( -0.000000000000000000, -1.000000000000000000, -0.000000000000000000 ) ) ;
#892 = ORIENTED_EDGE ( 'NONE', *, *, #662, .T. ) ;
#893 = EDGE_CURVE ( 'NONE', #941, #256, #694, .T. ) ;
#894 = VERTEX_POINT ( 'NONE', #74 ) ;
#895 = CARTESIAN_POINT ( 'NONE',  ( 4.225031457058369711E-15, 12.69999999999999929, 34.50000000000000711 ) ) ;
#896 = FACE_BOUND ( 'NONE', #168, .T. ) ;
#897 = AXIS2_PLACEMENT_3D ( 'NONE', #452, #801, #52 ) ;
#898 = ORIENTED_EDGE ( 'NONE', *, *, #696, .T. ) ;
#899 = CIRCLE ( 'NONE', #945, 5.000000000000000888 ) ;
#900 = ORIENTED_EDGE ( 'NONE', *, *, #609, .T. ) ;
#901 = CYLINDRICAL_SURFACE ( 'NONE', #560, 2.249999999999998668 ) ;
#902 = ORIENTED_EDGE ( 'NONE', *, *, #745, .T. ) ;
#903 = EDGE_LOOP ( 'NONE', ( #773, #11, #324, #937 ) ) ;
#904 = LINE ( 'NONE', #218, #738 ) ;
#905 = EDGE_CURVE ( 'NONE', #517, #197, #626, .T. ) ;
#906 = DIRECTION ( 'NONE',  ( 0.000000000000000000, -1.000000000000000000, 0.000000000000000000 ) ) ;
#907 = VERTEX_POINT ( 'NONE', #855 ) ;
#908 = FACE_OUTER_BOUND ( 'NONE', #864, .T. ) ;
#909 = EDGE_CURVE ( 'NONE', #590, #36, #867, .T. ) ;
#910 = AXIS2_PLACEMENT_3D ( 'NONE', #995, #92, #234 ) ;
#911 = EDGE_LOOP ( 'NONE', ( #647, #900, #585, #381 ) ) ;
#912 = DIRECTION ( 'NONE',  ( 0.000000000000000000, 0.000000000000000000, -1.000000000000000000 ) ) ;
#913 = CIRCLE ( 'NONE', #481, 5.000000000000000888 ) ;
#914 = CARTESIAN_POINT ( 'NONE',  ( -41.49999999999996447, 12.69999999999999929, 2.250000000000793587 ) ) ;
#915 = CYLINDRICAL_SURFACE ( 'NONE', #572, 34.50000000000000711 ) ;
#916 = ORIENTED_EDGE ( 'NONE', *, *, #378, .T. ) ;
#917 = CARTESIAN_POINT ( 'NONE',  ( -45.24200480260813606, 0.000000000000000000, -17.93000000000000682 ) ) ;
#918 = CARTESIAN_POINT ( 'NONE',  ( 41.49999999999996447, 12.69999999999999929, -6.383782391594650107E-13 ) ) ;
#919 = DIRECTION ( 'NONE',  ( 0.000000000000000000, 0.000000000000000000, 1.000000000000000000 ) ) ;
#920 = ORIENTED_EDGE ( 'NONE', *, *, #238, .F. ) ;
#921 = EDGE_CURVE ( 'NONE', #535, #217, #883, .T. ) ;
#922 = CARTESIAN_POINT ( 'NONE',  ( 7.149816176322526833E-13, 12.69999999999999929, 43.75000000000004263 ) ) ;
#923 = CARTESIAN_POINT ( 'NONE',  ( -47.25200480260815539, 0.000000000000000000, -17.92999999999999972 ) ) ;
#924 = DIRECTION ( 'NONE',  ( 0.000000000000000000, 0.000000000000000000, 1.000000000000000000 ) ) ;
#925 = ORIENTED_EDGE ( 'NONE', *, *, #184, .F. ) ;
#926 = AXIS2_PLACEMENT_3D ( 'NONE', #230, #692, #679 ) ;
#927 = LINE ( 'NONE', #392, #276 ) ;
#928 = VECTOR ( 'NONE', #946, 1000.000000000000000 ) ;
#929 = CARTESIAN_POINT ( 'NONE',  ( -44.15527671666621501, 12.69999999999999929, -20.66093023255814387 ) ) ;
#930 = AXIS2_PLACEMENT_3D ( 'NONE', #987, #388, #303 ) ;
#931 = DIRECTION ( 'NONE',  ( 0.000000000000000000, 0.000000000000000000, -1.000000000000000000 ) ) ;
#932 = EDGE_LOOP ( 'NONE', ( #594, #294 ) ) ;
#933 = CARTESIAN_POINT ( 'NONE',  ( 0.000000000000000000, 12.69999999999999929, 0.000000000000000000 ) ) ;
#934 = CARTESIAN_POINT ( 'NONE',  ( -44.15527671666621501, 0.000000000000000000, 20.66093023255814032 ) ) ;
#935 = ADVANCED_FACE ( 'NONE', ( #86 ), #8, .F. ) ;
#936 = DIRECTION ( 'NONE',  ( -0.000000000000000000, -1.000000000000000000, -0.000000000000000000 ) ) ;
#937 = ORIENTED_EDGE ( 'NONE', *, *, #806, .F. ) ;
#938 = DIRECTION ( 'NONE',  ( 0.000000000000000000, 0.000000000000000000, 1.000000000000000000 ) ) ;
#939 = ADVANCED_FACE ( 'NONE', ( #459 ), #552, .T. ) ;
#940 = CARTESIAN_POINT ( 'NONE',  ( 41.49999999999996447, 0.000000000000000000, -2.250000000000640821 ) ) ;
#941 = VERTEX_POINT ( 'NONE', #533 ) ;
#942 =( GEOMETRIC_REPRESENTATION_CONTEXT ( 3 ) GLOBAL_UNCERTAINTY_ASSIGNED_CONTEXT ( ( #746 ) ) GLOBAL_UNIT_ASSIGNED_CONTEXT ( ( #380, #316, #531 ) ) REPRESENTATION_CONTEXT ( 'NONE', 'WORKASPACE' ) );
#943 = DIRECTION ( 'NONE',  ( -0.000000000000000000, -1.000000000000000000, -0.000000000000000000 ) ) ;
#944 = CIRCLE ( 'NONE', #179, 2.250000000000002220 ) ;
#945 = AXIS2_PLACEMENT_3D ( 'NONE', #824, #678, #820 ) ;
#946 = DIRECTION ( 'NONE',  ( -0.000000000000000000, -0.000000000000000000, -1.000000000000000000 ) ) ;
#947 = ORIENTED_EDGE ( 'NONE', *, *, #879, .T. ) ;
#948 = EDGE_CURVE ( 'NONE', #517, #665, #927, .T. ) ;
#949 = CARTESIAN_POINT ( 'NONE',  ( 7.147060721024445229E-13, 12.69999999999999929, 41.50000000000004263 ) ) ;
#950 = DIRECTION ( 'NONE',  ( 0.000000000000000000, 0.000000000000000000, 1.000000000000000000 ) ) ;
#951 = ORIENTED_EDGE ( 'NONE', *, *, #461, .F. ) ;
#952 = ADVANCED_FACE ( 'NONE', ( #537 ), #757, .F. ) ;
#953 = CARTESIAN_POINT ( 'NONE',  ( -44.15527671666620790, 0.000000000000000000, -20.66093023255814032 ) ) ;
#954 = DIRECTION ( 'NONE',  ( -0.000000000000000000, -1.000000000000000000, -0.000000000000000000 ) ) ;
#955 = ORIENTED_EDGE ( 'NONE', *, *, #984, .F. ) ;
#956 = EDGE_LOOP ( 'NONE', ( #823, #898, #697, #482 ) ) ;
#957 = LINE ( 'NONE', #576, #658 ) ;
#958 = AXIS2_PLACEMENT_3D ( 'NONE', #553, #326, #472 ) ;
#959 = DIRECTION ( 'NONE',  ( -1.000000000000000000, 0.000000000000000000, 0.000000000000000000 ) ) ;
#960 = AXIS2_PLACEMENT_3D ( 'NONE', #703, #698, #12 ) ;
#961 = CYLINDRICAL_SURFACE ( 'NONE', #784, 2.249999999999998668 ) ;
#962 = VERTEX_POINT ( 'NONE', #761 ) ;
#963 = FACE_BOUND ( 'NONE', #49, .T. ) ;
#964 = EDGE_CURVE ( 'NONE', #701, #521, #834, .T. ) ;
#965 = LINE ( 'NONE', #587, #463 ) ;
#966 = EDGE_LOOP ( 'NONE', ( #885, #220 ) ) ;
#967 = ORIENTED_EDGE ( 'NONE', *, *, #51, .T. ) ;
#968 = FACE_BOUND ( 'NONE', #450, .T. ) ;
#969 = FACE_BOUND ( 'NONE', #119, .T. ) ;
#970 = EDGE_CURVE ( 'NONE', #962, #986, #99, .T. ) ;
#971 = ORIENTED_EDGE ( 'NONE', *, *, #108, .F. ) ;
#972 = ORIENTED_EDGE ( 'NONE', *, *, #863, .T. ) ;
#973 = LINE ( 'NONE', #895, #194 ) ;
#974 = AXIS2_PLACEMENT_3D ( 'NONE', #331, #559, #564 ) ;
#975 = AXIS2_PLACEMENT_3D ( 'NONE', #563, #117, #104 ) ;
#976 = ORIENTED_EDGE ( 'NONE', *, *, #609, .F. ) ;
#977 = VECTOR ( 'NONE', #66, 1000.000000000000000 ) ;
#978 = VERTEX_POINT ( 'NONE', #319 ) ;
#979 = EDGE_CURVE ( 'NONE', #731, #298, #621, .T. ) ;
#980 = CARTESIAN_POINT ( 'NONE',  ( 5.970153145843347150E-15, 12.69999999999999929, 48.75000000000000000 ) ) ;
#981 = FACE_OUTER_BOUND ( 'NONE', #426, .T. ) ;
#982 = ORIENTED_EDGE ( 'NONE', *, *, #921, .T. ) ;
#983 = CARTESIAN_POINT ( 'NONE',  ( -29.34493141924223281, 12.69999999999999929, -29.34493141924114212 ) ) ;
#984 = EDGE_CURVE ( 'NONE', #677, #978, #562, .T. ) ;
#985 = CARTESIAN_POINT ( 'NONE',  ( -7.144305265726363625E-13, 0.000000000000000000, -39.24999999999988631 ) ) ;
#986 = VERTEX_POINT ( 'NONE', #22 ) ;
#987 = CARTESIAN_POINT ( 'NONE',  ( -29.34493141924223281, 12.69999999999999929, -29.34493141924114212 ) ) ;
#988 = CARTESIAN_POINT ( 'NONE',  ( -29.34493141924122028, 0.000000000000000000, 29.34493141924230741 ) ) ;
#989 = CIRCLE ( 'NONE', #705, 2.249999999999998668 ) ;
#990 = CARTESIAN_POINT ( 'NONE',  ( -29.34493141924223281, 0.000000000000000000, -31.59493141924114212 ) ) ;
#991 = CIRCLE ( 'NONE', #61, 2.250000000000002220 ) ;
#992 = VECTOR ( 'NONE', #180, 1000.000000000000000 ) ;
#993 = EDGE_LOOP ( 'NONE', ( #636, #484, #920, #106 ) ) ;
#994 = DIRECTION ( 'NONE',  ( 0.000000000000000000, -1.000000000000000000, 0.000000000000000000 ) ) ;
#995 = CARTESIAN_POINT ( 'NONE',  ( -41.49999999999996447, 0.000000000000000000, 7.910339050454240351E-13 ) ) ;
ENDSEC;
END-ISO-10303-21;
