ISO-10303-21;
HEADER;
FILE_DESCRIPTION (( 'STEP AP214' ),
    '1' );
FILE_NAME ('Hub_Plate.STEP',
    '2026-06-26T00:31:03',
    ( '' ),
    ( '' ),
    'SwSTEP 2.0',
    'SolidWorks 2025',
    '' );
FILE_SCHEMA (( 'AUTOMOTIVE_DESIGN' ));
ENDSEC;

DATA;
#1 = CARTESIAN_POINT ( 'NONE',  ( 35.00000000000000711, 4.780733988912462111E-15, 0.000000000000000000 ) ) ;
#2 = EDGE_LOOP ( 'NONE', ( #605, #540, #385, #229 ) ) ;
#3 = CYLINDRICAL_SURFACE ( 'NONE', #807, 5.000000000000000000 ) ;
#4 = CARTESIAN_POINT ( 'NONE',  ( -67.98843429916313141, 103.3199999999999932, 12.16675101827103767 ) ) ;
#5 = CARTESIAN_POINT ( 'NONE',  ( 82.28681863974151156, 140.6700000000000443, 14.68794195805443614 ) ) ;
#6 = EDGE_CURVE ( 'NONE', #1084, #660, #632, .T. ) ;
#7 = DIRECTION ( 'NONE',  ( 0.000000000000000000, 0.000000000000000000, 1.000000000000000000 ) ) ;
#8 = ORIENTED_EDGE ( 'NONE', *, *, #101, .F. ) ;
#9 = CARTESIAN_POINT ( 'NONE',  ( -93.00255122567348565, 41.95015890049428009, 16.57741473101114593 ) ) ;
#10 = PLANE ( 'NONE',  #202 ) ;
#11 = ORIENTED_EDGE ( 'NONE', *, *, #6, .T. ) ;
#12 = CARTESIAN_POINT ( 'NONE',  ( 94.08846518073249854, 41.95015890049428009, 10.41889066001588482 ) ) ;
#13 = CIRCLE ( 'NONE', #287, 3.265000000000001013 ) ;
#14 = VECTOR ( 'NONE', #447, 1000.000000000000114 ) ;
#15 = DIRECTION ( 'NONE',  ( -1.000000000000000000, 0.000000000000000000, 0.000000000000000000 ) ) ;
#16 = ORIENTED_EDGE ( 'NONE', *, *, #1053, .F. ) ;
#17 = CARTESIAN_POINT ( 'NONE',  ( 0.000000000000000000, 12.69999999999999929, 6.349999999999999645 ) ) ;
#18 = ORIENTED_EDGE ( 'NONE', *, *, #957, .T. ) ;
#19 = EDGE_CURVE ( 'NONE', #551, #565, #457, .T. ) ;
#20 = DIRECTION ( 'NONE',  ( 0.1736481776669313859, -0.000000000000000000, 0.9848077530122079093 ) ) ;
#21 = ORIENTED_EDGE ( 'NONE', *, *, #1099, .F. ) ;
#22 = DIRECTION ( 'NONE',  ( 0.000000000000000000, -0.000000000000000000, -1.000000000000000000 ) ) ;
#23 = ORIENTED_EDGE ( 'NONE', *, *, #450, .T. ) ;
#24 = CARTESIAN_POINT ( 'NONE',  ( 7.699999999999996625, 3.747419205390897742E-15, 0.000000000000000000 ) ) ;
#25 = ADVANCED_FACE ( 'NONE', ( #680 ), #1011, .T. ) ;
#26 = EDGE_LOOP ( 'NONE', ( #255, #995, #871, #980 ) ) ;
#27 = DIRECTION ( 'NONE',  ( -0.1736481776669323573, 0.000000000000000000, 0.9848077530122075762 ) ) ;
#28 = EDGE_LOOP ( 'NONE', ( #215, #639 ) ) ;
#29 = VECTOR ( 'NONE', #288, 1000.000000000000000 ) ;
#30 = FACE_OUTER_BOUND ( 'NONE', #842, .T. ) ;
#31 = COLOUR_RGB ( '',0.7921568627450980005, 0.8196078431372548767, 0.9333333333333333481 ) ;
#32 = AXIS2_PLACEMENT_3D ( 'NONE', #979, #711, #389 ) ;
#33 = EDGE_CURVE ( 'NONE', #116, #894, #339, .T. ) ;
#34 = VERTEX_POINT ( 'NONE', #849 ) ;
#35 = VECTOR ( 'NONE', #329, 1000.000000000000000 ) ;
#36 = CARTESIAN_POINT ( 'NONE',  ( -94.08846518073249854, 41.95015890049428009, 10.41889066001588482 ) ) ;
#37 = AXIS2_PLACEMENT_3D ( 'NONE', #553, #221, #822 ) ;
#38 = CARTESIAN_POINT ( 'NONE',  ( -85.90861255880692227, 140.6700000000000443, 8.976561944551518124 ) ) ;
#39 = ORIENTED_EDGE ( 'NONE', *, *, #801, .F. ) ;
#40 = EDGE_CURVE ( 'NONE', #565, #111, #914, .T. ) ;
#41 = CARTESIAN_POINT ( 'NONE',  ( 49.07168623724286505, 140.6700000000000443, 8.831217947689909309 ) ) ;
#42 = CYLINDRICAL_SURFACE ( 'NONE', #772, 3.265000000000001013 ) ;
#43 = EDGE_LOOP ( 'NONE', ( #492, #714, #502, #18, #834, #139, #557, #706, #702, #277, #1049, #824 ) ) ;
#44 = DIRECTION ( 'NONE',  ( -0.000000000000000000, -0.000000000000000000, 1.000000000000000000 ) ) ;
#45 = EDGE_LOOP ( 'NONE', ( #130, #569 ) ) ;
#46 = AXIS2_PLACEMENT_3D ( 'NONE', #870, #357, #283 ) ;
#47 = CYLINDRICAL_SURFACE ( 'NONE', #366, 2.574999999999999734 ) ;
#48 = AXIS2_PLACEMENT_3D ( 'NONE', #1013, #852, #409 ) ;
#49 = ORIENTED_EDGE ( 'NONE', *, *, #249, .F. ) ;
#50 = FACE_BOUND ( 'NONE', #1017, .T. ) ;
#51 = ORIENTED_EDGE ( 'NONE', *, *, #854, .T. ) ;
#52 = CARTESIAN_POINT ( 'NONE',  ( 0.000000000000000000, 12.69999999999999929, 0.000000000000000000 ) ) ;
#53 = EDGE_CURVE ( 'NONE', #370, #760, #495, .T. ) ;
#54 = DIRECTION ( 'NONE',  ( -0.1736481776669314414, -0.000000000000000000, 0.9848077530122079093 ) ) ;
#55 = ORIENTED_EDGE ( 'NONE', *, *, #426, .T. ) ;
#56 = FACE_OUTER_BOUND ( 'NONE', #394, .T. ) ;
#57 = ORIENTED_EDGE ( 'NONE', *, *, #700, .T. ) ;
#58 = SURFACE_STYLE_FILL_AREA ( #895 ) ;
#59 = FACE_OUTER_BOUND ( 'NONE', #851, .T. ) ;
#60 = EDGE_CURVE ( 'NONE', #962, #34, #489, .T. ) ;
#61 = ORIENTED_EDGE ( 'NONE', *, *, #996, .F. ) ;
#62 = DIRECTION ( 'NONE',  ( -0.000000000000000000, 0.000000000000000000, 1.000000000000000000 ) ) ;
#63 = VERTEX_POINT ( 'NONE', #841 ) ;
#64 = DIRECTION ( 'NONE',  ( 1.000000000000000000, 0.000000000000000000, 0.000000000000000000 ) ) ;
#65 = DIRECTION ( 'NONE',  ( 0.1736481776669313859, -0.000000000000000000, -0.9848077530122080203 ) ) ;
#66 = AXIS2_PLACEMENT_3D ( 'NONE', #936, #853, #425 ) ;
#67 = ORIENTED_EDGE ( 'NONE', *, *, #153, .F. ) ;
#68 = ADVANCED_FACE ( 'NONE', ( #837 ), #85, .T. ) ;
#69 = VECTOR ( 'NONE', #279, 1000.000000000000000 ) ;
#70 = VECTOR ( 'NONE', #126, 1000.000000000000114 ) ;
#71 = ORIENTED_EDGE ( 'NONE', *, *, #783, .F. ) ;
#72 = CARTESIAN_POINT ( 'NONE',  ( -52.69348015630830417, 140.6700000000000443, 3.119837934186997952 ) ) ;
#73 = AXIS2_PLACEMENT_3D ( 'NONE', #155, #162, #243 ) ;
#74 = FACE_OUTER_BOUND ( 'NONE', #250, .T. ) ;
#75 = CARTESIAN_POINT ( 'NONE',  ( -12.69999999999999751, 5.000000000000000888, 0.000000000000000000 ) ) ;
#76 = EDGE_CURVE ( 'NONE', #768, #150, #334, .T. ) ;
#77 = ORIENTED_EDGE ( 'NONE', *, *, #438, .T. ) ;
#78 = DIRECTION ( 'NONE',  ( -1.000000000000000000, 0.000000000000000000, 0.000000000000000000 ) ) ;
#79 = CARTESIAN_POINT ( 'NONE',  ( -6.429834243512947478E-14, 103.3199999999999790, 0.000000000000000000 ) ) ;
#80 = CARTESIAN_POINT ( 'NONE',  ( -35.00000000000001421, 154.1200000000000045, 0.000000000000000000 ) ) ;
#81 = ORIENTED_EDGE ( 'NONE', *, *, #1091, .F. ) ;
#82 = PLANE ( 'NONE',  #790 ) ;
#83 = EDGE_CURVE ( 'NONE', #442, #779, #92, .T. ) ;
#84 = DIRECTION ( 'NONE',  ( 1.365923996832131116E-16, -1.000000000000000000, 0.000000000000000000 ) ) ;
#85 = PLANE ( 'NONE',  #990 ) ;
#86 = VERTEX_POINT ( 'NONE', #80 ) ;
#87 = VECTOR ( 'NONE', #633, 1000.000000000000114 ) ;
#88 = FACE_OUTER_BOUND ( 'NONE', #1063, .T. ) ;
#89 = DIRECTION ( 'NONE',  ( -1.000000000000000000, 0.000000000000000000, 0.000000000000000000 ) ) ;
#90 = EDGE_CURVE ( 'NONE', #972, #993, #176, .T. ) ;
#91 = CIRCLE ( 'NONE', #1100, 17.40000000000001279 ) ;
#92 = LINE ( 'NONE', #591, #650 ) ;
#93 = CARTESIAN_POINT ( 'NONE',  ( 84.17213078213761435, 140.6700000000000443, 18.82463947467359588 ) ) ;
#94 = VERTEX_POINT ( 'NONE', #75 ) ;
#95 = FACE_BOUND ( 'NONE', #1078, .T. ) ;
#96 = DIRECTION ( 'NONE',  ( -0.000000000000000000, 0.000000000000000000, 1.000000000000000000 ) ) ;
#97 = ORIENTED_EDGE ( 'NONE', *, *, #1053, .T. ) ;
#98 = DIRECTION ( 'NONE',  ( -0.9848077530122077983, 0.000000000000000000, -0.1736481776669314414 ) ) ;
#99 = DIRECTION ( 'NONE',  ( 0.1736481776669323573, 0.000000000000000000, 0.9848077530122075762 ) ) ;
#100 = ORIENTED_EDGE ( 'NONE', *, *, #40, .F. ) ;
#101 = EDGE_CURVE ( 'NONE', #660, #150, #563, .T. ) ;
#102 = DIRECTION ( 'NONE',  ( -3.693758853222004749E-16, 1.000000000000000000, 0.000000000000000000 ) ) ;
#103 = AXIS2_PLACEMENT_3D ( 'NONE', #902, #1054, #981 ) ;
#104 = CIRCLE ( 'NONE', #559, 3.265000000000001013 ) ;
#105 = CARTESIAN_POINT ( 'NONE',  ( 17.69999999999996021, 103.3199999999999932, 0.000000000000000000 ) ) ;
#106 = ORIENTED_EDGE ( 'NONE', *, *, #347, .F. ) ;
#107 = EDGE_CURVE ( 'NONE', #1000, #722, #91, .T. ) ;
#108 = LINE ( 'NONE', #602, #204 ) ;
#109 = ORIENTED_EDGE ( 'NONE', *, *, #854, .F. ) ;
#110 = PLANE ( 'NONE',  #46 ) ;
#111 = VERTEX_POINT ( 'NONE', #670 ) ;
#112 = DIRECTION ( 'NONE',  ( -0.9848077530122077983, 0.000000000000000000, -0.1736481776669314414 ) ) ;
#113 = DIRECTION ( 'NONE',  ( 1.000000000000000000, 0.000000000000000000, 0.000000000000000000 ) ) ;
#114 = ORIENTED_EDGE ( 'NONE', *, *, #450, .F. ) ;
#115 = LINE ( 'NONE', #1043, #69 ) ;
#116 = VERTEX_POINT ( 'NONE', #5 ) ;
#117 = AXIS2_PLACEMENT_3D ( 'NONE', #689, #924, #89 ) ;
#118 = DIRECTION ( 'NONE',  ( 1.000000000000000000, 0.000000000000000000, 0.000000000000000000 ) ) ;
#119 = AXIS2_PLACEMENT_3D ( 'NONE', #514, #337, #918 ) ;
#120 = ADVANCED_FACE ( 'NONE', ( #405 ), #170, .F. ) ;
#121 = ORIENTED_EDGE ( 'NONE', *, *, #572, .F. ) ;
#122 = CARTESIAN_POINT ( 'NONE',  ( 35.00000000000001421, 41.95015890049428009, 0.000000000000000000 ) ) ;
#123 = ORIENTED_EDGE ( 'NONE', *, *, #957, .F. ) ;
#124 = DIRECTION ( 'NONE',  ( 1.000000000000000000, 0.000000000000000000, 0.000000000000000000 ) ) ;
#125 = DIRECTION ( 'NONE',  ( -0.000000000000000000, -0.000000000000000000, 1.000000000000000000 ) ) ;
#126 = DIRECTION ( 'NONE',  ( 0.6963642403200226427, 0.7071067811865435759, 0.1227878039689742767 ) ) ;
#127 = EDGE_LOOP ( 'NONE', ( #259, #791, #109, #1051 ) ) ;
#128 = LINE ( 'NONE', #912, #577 ) ;
#129 = DIRECTION ( 'NONE',  ( -0.1736481776669313581, -0.000000000000000000, -0.9848077530122079093 ) ) ;
#130 = ORIENTED_EDGE ( 'NONE', *, *, #588, .T. ) ;
#131 = DIRECTION ( 'NONE',  ( 1.000000000000000000, 0.000000000000000000, 0.000000000000000000 ) ) ;
#132 = ORIENTED_EDGE ( 'NONE', *, *, #873, .T. ) ;
#133 = DIRECTION ( 'NONE',  ( 0.1736481776669313859, -0.000000000000000000, 0.9848077530122079093 ) ) ;
#134 = CIRCLE ( 'NONE', #685, 2.574999999999985523 ) ;
#135 = CARTESIAN_POINT ( 'NONE',  ( 17.40000000000001279, 128.7199999999999989, 0.000000000000000000 ) ) ;
#136 = CIRCLE ( 'NONE', #398, 2.574999999999999734 ) ;
#137 = VERTEX_POINT ( 'NONE', #581 ) ;
#138 = DIRECTION ( 'NONE',  ( -0.7124982932086736387, 0.7016738431598593673, 0.000000000000000000 ) ) ;
#139 = ORIENTED_EDGE ( 'NONE', *, *, #490, .T. ) ;
#140 = EDGE_CURVE ( 'NONE', #455, #882, #992, .T. ) ;
#141 = DIRECTION ( 'NONE',  ( 1.000000000000000000, 0.000000000000000000, 0.000000000000000000 ) ) ;
#142 = AXIS2_PLACEMENT_3D ( 'NONE', #832, #764, #236 ) ;
#143 = CARTESIAN_POINT ( 'NONE',  ( -12.69999999999999751, 98.31999999999999318, 6.349999999999999645 ) ) ;
#144 = EDGE_LOOP ( 'NONE', ( #922, #984 ) ) ;
#145 = DIRECTION ( 'NONE',  ( -0.000000000000000000, 0.000000000000000000, 1.000000000000000000 ) ) ;
#146 = ORIENTED_EDGE ( 'NONE', *, *, #262, .F. ) ;
#147 = CYLINDRICAL_SURFACE ( 'NONE', #177, 17.40000000000001279 ) ;
#148 = ADVANCED_FACE ( 'NONE', ( #920 ), #47, .F. ) ;
#149 = ORIENTED_EDGE ( 'NONE', *, *, #270, .T. ) ;
#150 = VERTEX_POINT ( 'NONE', #143 ) ;
#151 = FACE_BOUND ( 'NONE', #498, .T. ) ;
#152 = DIRECTION ( 'NONE',  ( 0.000000000000000000, -0.000000000000000000, 1.000000000000000000 ) ) ;
#153 = EDGE_CURVE ( 'NONE', #267, #710, #397, .T. ) ;
#154 = AXIS2_PLACEMENT_3D ( 'NONE', #193, #280, #449 ) ;
#155 = CARTESIAN_POINT ( 'NONE',  ( -6.429834243512947478E-14, 103.3199999999999790, 6.349999999999999645 ) ) ;
#156 = AXIS2_PLACEMENT_3D ( 'NONE', #1047, #282, #112 ) ;
#157 = CARTESIAN_POINT ( 'NONE',  ( 34.99999999999999289, 154.1200000000000045, 0.000000000000000000 ) ) ;
#158 = VECTOR ( 'NONE', #628, 1000.000000000000000 ) ;
#159 = ORIENTED_EDGE ( 'NONE', *, *, #326, .F. ) ;
#160 = CARTESIAN_POINT ( 'NONE',  ( -34.99999999999999289, -4.780733988912458956E-15, 0.000000000000000000 ) ) ;
#161 = DIRECTION ( 'NONE',  ( -0.9848077530122077983, 0.000000000000000000, -0.1736481776669314414 ) ) ;
#162 = DIRECTION ( 'NONE',  ( 6.223223232203782128E-16, -1.000000000000000000, 0.000000000000000000 ) ) ;
#163 = VERTEX_POINT ( 'NONE', #890 ) ;
#164 = DIRECTION ( 'NONE',  ( 0.000000000000000000, 1.000000000000000000, 0.000000000000000000 ) ) ;
#165 = CARTESIAN_POINT ( 'NONE',  ( -34.99999999999999289, -4.780733988912458956E-15, 6.349999999999999645 ) ) ;
#166 = DIRECTION ( 'NONE',  ( -1.000000000000000000, 0.000000000000000000, 0.000000000000000000 ) ) ;
#167 = ORIENTED_EDGE ( 'NONE', *, *, #776, .F. ) ;
#168 = DIRECTION ( 'NONE',  ( -0.9848077530122079093, 0.000000000000000000, 0.1736481776669311639 ) ) ;
#169 = DIRECTION ( 'NONE',  ( 0.9848077530122079093, 0.000000000000000000, 0.1736481776669313859 ) ) ;
#170 = CYLINDRICAL_SURFACE ( 'NONE', #452, 3.265000000000001013 ) ;
#171 = VECTOR ( 'NONE', #830, 1000.000000000000000 ) ;
#172 = ORIENTED_EDGE ( 'NONE', *, *, #262, .T. ) ;
#173 = CIRCLE ( 'NONE', #524, 2.574999999999985523 ) ;
#174 = LINE ( 'NONE', #320, #466 ) ;
#175 = CARTESIAN_POINT ( 'NONE',  ( -53.49287834364542249, 140.6700000000000443, 13.41505952180142458 ) ) ;
#176 = CIRCLE ( 'NONE', #419, 2.574999999999999734 ) ;
#177 = AXIS2_PLACEMENT_3D ( 'NONE', #1080, #721, #308 ) ;
#178 = ORIENTED_EDGE ( 'NONE', *, *, #580, .T. ) ;
#179 = CARTESIAN_POINT ( 'NONE',  ( 0.000000000000000000, 103.3199999999999932, 0.000000000000000000 ) ) ;
#180 = CARTESIAN_POINT ( 'NONE',  ( 0.000000000000000000, 12.69999999999999929, 0.000000000000000000 ) ) ;
#181 = EDGE_CURVE ( 'NONE', #355, #63, #1062, .T. ) ;
#182 = ORIENTED_EDGE ( 'NONE', *, *, #543, .T. ) ;
#183 = DIRECTION ( 'NONE',  ( 1.000000000000000000, 0.000000000000000000, 0.000000000000000000 ) ) ;
#184 = FACE_BOUND ( 'NONE', #317, .T. ) ;
#185 = ADVANCED_FACE ( 'NONE', ( #476 ), #571, .F. ) ;
#186 = ORIENTED_EDGE ( 'NONE', *, *, #675, .F. ) ;
#187 = VECTOR ( 'NONE', #1020, 1000.000000000000114 ) ;
#188 = PLANE ( 'NONE',  #488 ) ;
#189 = CARTESIAN_POINT ( 'NONE',  ( 93.00255122567348565, 41.95015890049428009, 16.57741473101114593 ) ) ;
#190 = ORIENTED_EDGE ( 'NONE', *, *, #580, .F. ) ;
#191 = FACE_OUTER_BOUND ( 'NONE', #302, .T. ) ;
#192 = ADVANCED_FACE ( 'NONE', ( #59 ), #228, .T. ) ;
#193 = CARTESIAN_POINT ( 'NONE',  ( 52.69348015630830417, 140.6700000000000443, 3.119837934186997952 ) ) ;
#194 = PRODUCT_DEFINITION_CONTEXT ( 'detailed design', #615, 'design' ) ;
#195 = ORIENTED_EDGE ( 'NONE', *, *, #783, .T. ) ;
#196 = CARTESIAN_POINT ( 'NONE',  ( -49.07168623724286505, 140.6700000000000443, 8.831217947689909309 ) ) ;
#197 = EDGE_CURVE ( 'NONE', #868, #1071, #635, .T. ) ;
#198 = DIRECTION ( 'NONE',  ( -0.000000000000000000, 0.000000000000000000, 1.000000000000000000 ) ) ;
#199 = ORIENTED_EDGE ( 'NONE', *, *, #278, .F. ) ;
#200 = LINE ( 'NONE', #538, #222 ) ;
#201 = VERTEX_POINT ( 'NONE', #913 ) ;
#202 = AXIS2_PLACEMENT_3D ( 'NONE', #679, #756, #1098 ) ;
#203 = DIRECTION ( 'NONE',  ( -0.000000000000000000, 0.000000000000000000, 1.000000000000000000 ) ) ;
#204 = VECTOR ( 'NONE', #1036, 1000.000000000000114 ) ;
#205 = VERTEX_POINT ( 'NONE', #739 ) ;
#206 = CYLINDRICAL_SURFACE ( 'NONE', #879, 2.574999999999985079 ) ;
#207 = ORIENTED_EDGE ( 'NONE', *, *, #249, .T. ) ;
#208 = DIRECTION ( 'NONE',  ( -0.000000000000000000, 0.000000000000000000, 1.000000000000000000 ) ) ;
#209 = ADVANCED_FACE ( 'NONE', ( #74 ), #147, .F. ) ;
#210 = LINE ( 'NONE', #903, #415 ) ;
#211 = DIRECTION ( 'NONE',  ( 0.9848077530122079093, 0.000000000000000000, 0.1736481776669313859 ) ) ;
#212 = VERTEX_POINT ( 'NONE', #462 ) ;
#213 = CARTESIAN_POINT ( 'NONE',  ( -17.69999999999999574, 103.3199999999999932, 6.349999999999999645 ) ) ;
#214 = DIRECTION ( 'NONE',  ( 1.000000000000000000, 1.836970198721029194E-16, 0.000000000000000000 ) ) ;
#215 = ORIENTED_EDGE ( 'NONE', *, *, #720, .T. ) ;
#216 = EDGE_CURVE ( 'NONE', #355, #435, #1044, .T. ) ;
#217 = DIRECTION ( 'NONE',  ( -0.1736481776669314692, 0.000000000000000000, -0.9848077530122079093 ) ) ;
#218 = ORIENTED_EDGE ( 'NONE', *, *, #60, .F. ) ;
#219 = FACE_OUTER_BOUND ( 'NONE', #898, .T. ) ;
#220 = VECTOR ( 'NONE', #584, 1000.000000000000000 ) ;
#221 = DIRECTION ( 'NONE',  ( 0.1736481776669313859, -0.000000000000000000, -0.9848077530122080203 ) ) ;
#222 = VECTOR ( 'NONE', #696, 1000.000000000000114 ) ;
#223 = ORIENTED_EDGE ( 'NONE', *, *, #278, .T. ) ;
#224 = CARTESIAN_POINT ( 'NONE',  ( 7.699999999999995737, 5.000000000000004441, 6.349999999999999645 ) ) ;
#225 = ORIENTED_EDGE ( 'NONE', *, *, #604, .T. ) ;
#226 = ADVANCED_FACE ( 'NONE', ( #1073 ), #726, .T. ) ;
#227 = DIRECTION ( 'NONE',  ( 1.000000000000000000, 0.000000000000000000, 0.000000000000000000 ) ) ;
#228 = PLANE ( 'NONE',  #510 ) ;
#229 = ORIENTED_EDGE ( 'NONE', *, *, #593, .F. ) ;
#230 = CARTESIAN_POINT ( 'NONE',  ( -17.40000000000001279, 128.7199999999999989, 0.000000000000000000 ) ) ;
#231 = ORIENTED_EDGE ( 'NONE', *, *, #978, .T. ) ;
#232 = CARTESIAN_POINT ( 'NONE',  ( 85.90861255880692227, 140.6700000000000443, 8.976561944551518124 ) ) ;
#233 = ADVANCED_FACE ( 'NONE', ( #649, #991, #321 ), #1002, .T. ) ;
#234 = ADVANCED_BREP_SHAPE_REPRESENTATION ( 'Hub_Plate', ( #659, #950 ), #274 ) ;
#235 = DIRECTION ( 'NONE',  ( 1.000000000000000000, 0.000000000000000000, 0.000000000000000000 ) ) ;
#236 = DIRECTION ( 'NONE',  ( 1.000000000000000000, 0.000000000000000000, 0.000000000000000000 ) ) ;
#237 =( NAMED_UNIT ( * ) PLANE_ANGLE_UNIT ( ) SI_UNIT ( $, .RADIAN. ) );
#238 = ORIENTED_EDGE ( 'NONE', *, *, #934, .T. ) ;
#239 = DIRECTION ( 'NONE',  ( -1.000000000000000000, 0.000000000000000000, 0.000000000000000000 ) ) ;
#240 = LINE ( 'NONE', #79, #699 ) ;
#241 = CIRCLE ( 'NONE', #66, 2.574999999999999734 ) ;
#242 = CIRCLE ( 'NONE', #861, 2.574999999999985523 ) ;
#243 = DIRECTION ( 'NONE',  ( 1.000000000000000000, 6.223223232203782128E-16, 0.000000000000000000 ) ) ;
#244 = MECHANICAL_DESIGN_GEOMETRIC_PRESENTATION_REPRESENTATION (  '', ( #1027 ), #717 ) ;
#245 = ORIENTED_EDGE ( 'NONE', *, *, #475, .T. ) ;
#246 = DIRECTION ( 'NONE',  ( 0.9848077530122079093, 0.000000000000000000, -0.1736481776669314692 ) ) ;
#247 = FACE_OUTER_BOUND ( 'NONE', #730, .T. ) ;
#248 = CARTESIAN_POINT ( 'NONE',  ( 86.70801074614404058, 140.6700000000000443, 19.27178353216594076 ) ) ;
#249 = EDGE_CURVE ( 'NONE', #582, #442, #662, .T. ) ;
#250 = EDGE_LOOP ( 'NONE', ( #682, #351, #695, #399 ) ) ;
#251 = DIRECTION ( 'NONE',  ( -1.836970198721029194E-16, 1.000000000000000000, 0.000000000000000000 ) ) ;
#252 = CARTESIAN_POINT ( 'NONE',  ( -17.40000000000001279, 128.7199999999999989, 6.349999999999999645 ) ) ;
#253 = CARTESIAN_POINT ( 'NONE',  ( 0.000000000000000000, 128.7199999999999989, 6.349999999999999645 ) ) ;
#254 = EDGE_CURVE ( 'NONE', #795, #549, #210, .T. ) ;
#255 = ORIENTED_EDGE ( 'NONE', *, *, #333, .F. ) ;
#256 = CYLINDRICAL_SURFACE ( 'NONE', #899, 2.574999999999999734 ) ;
#257 = DIRECTION ( 'NONE',  ( -1.000000000000000000, -6.223223232203783114E-16, 0.000000000000000000 ) ) ;
#258 = AXIS2_PLACEMENT_3D ( 'NONE', #590, #929, #161 ) ;
#259 = ORIENTED_EDGE ( 'NONE', *, *, #512, .F. ) ;
#260 = CIRCLE ( 'NONE', #541, 17.40000000000001279 ) ;
#261 = DIRECTION ( 'NONE',  ( -0.1736481776669314692, 0.000000000000000000, -0.9848077530122079093 ) ) ;
#262 = EDGE_CURVE ( 'NONE', #212, #813, #1067, .T. ) ;
#263 = FACE_OUTER_BOUND ( 'NONE', #331, .T. ) ;
#264 = ORIENTED_EDGE ( 'NONE', *, *, #90, .F. ) ;
#265 = CARTESIAN_POINT ( 'NONE',  ( 84.17213078213761435, 140.6700000000000443, 18.82463947467359588 ) ) ;
#266 = DIRECTION ( 'NONE',  ( -0.000000000000000000, -0.000000000000000000, -1.000000000000000000 ) ) ;
#267 = VERTEX_POINT ( 'NONE', #548 ) ;
#268 = CARTESIAN_POINT ( 'NONE',  ( 83.37273259480051024, 140.6700000000000443, 8.529417887059173253 ) ) ;
#269 = CARTESIAN_POINT ( 'NONE',  ( 50.27674510445820033, 85.33507945024761909, 9.043702339321955108 ) ) ;
#270 = EDGE_CURVE ( 'NONE', #546, #455, #896, .T. ) ;
#271 = VERTEX_POINT ( 'NONE', #135 ) ;
#272 = VECTOR ( 'NONE', #1050, 1000.000000000000114 ) ;
#273 = LINE ( 'NONE', #785, #828 ) ;
#274 =( GEOMETRIC_REPRESENTATION_CONTEXT ( 3 ) GLOBAL_UNCERTAINTY_ASSIGNED_CONTEXT ( ( #517 ) ) GLOBAL_UNIT_ASSIGNED_CONTEXT ( ( #318, #237, #681 ) ) REPRESENTATION_CONTEXT ( 'NONE', 'WORKASPACE' ) );
#275 = DIRECTION ( 'NONE',  ( 1.000000000000000000, 0.000000000000000000, 0.000000000000000000 ) ) ;
#276 = VECTOR ( 'NONE', #745, 1000.000000000000114 ) ;
#277 = ORIENTED_EDGE ( 'NONE', *, *, #303, .T. ) ;
#278 = EDGE_CURVE ( 'NONE', #212, #483, #469, .T. ) ;
#279 = DIRECTION ( 'NONE',  ( -3.693758853222004749E-16, 1.000000000000000000, 0.000000000000000000 ) ) ;
#280 = DIRECTION ( 'NONE',  ( 0.1736481776669313859, 0.000000000000000000, -0.9848077530122079093 ) ) ;
#281 = ORIENTED_EDGE ( 'NONE', *, *, #1085, .T. ) ;
#282 = DIRECTION ( 'NONE',  ( 0.1736481776669313859, 0.000000000000000000, -0.9848077530122079093 ) ) ;
#283 = DIRECTION ( 'NONE',  ( 0.7124982932086736387, 0.7016738431598593673, 0.000000000000000000 ) ) ;
#284 = ORIENTED_EDGE ( 'NONE', *, *, #426, .F. ) ;
#285 = PLANE ( 'NONE',  #32 ) ;
#286 = EDGE_LOOP ( 'NONE', ( #440, #412, #806, #819, #149, #310 ) ) ;
#287 = AXIS2_PLACEMENT_3D ( 'NONE', #180, #96, #505 ) ;
#288 = DIRECTION ( 'NONE',  ( -0.9848077530122079093, 0.000000000000000000, 0.1736481776669313859 ) ) ;
#289 = ADVANCED_FACE ( 'NONE', ( #263 ), #10, .F. ) ;
#290 = AXIS2_PLACEMENT_3D ( 'NONE', #509, #261, #342 ) ;
#291 = ORIENTED_EDGE ( 'NONE', *, *, #788, .T. ) ;
#292 = CARTESIAN_POINT ( 'NONE',  ( 0.000000000000000000, 154.1200000000000045, 6.349999999999999645 ) ) ;
#293 = VERTEX_POINT ( 'NONE', #1092 ) ;
#294 = CARTESIAN_POINT ( 'NONE',  ( -12.69999999999999751, 0.000000000000000000, 0.000000000000000000 ) ) ;
#295 = DIRECTION ( 'NONE',  ( -0.1736481776669313581, -0.000000000000000000, -0.9848077530122079093 ) ) ;
#296 = ADVANCED_FACE ( 'NONE', ( #247 ), #494, .T. ) ;
#297 = ORIENTED_EDGE ( 'NONE', *, *, #934, .F. ) ;
#298 = DIRECTION ( 'NONE',  ( 0.9848077530122079093, 0.000000000000000000, 0.1736481776669313859 ) ) ;
#299 = VERTEX_POINT ( 'NONE', #500 ) ;
#300 = CARTESIAN_POINT ( 'NONE',  ( -0.000000000000000000, 154.1200000000000045, 0.000000000000000000 ) ) ;
#301 = DIRECTION ( 'NONE',  ( 0.000000000000000000, 1.000000000000000000, 0.000000000000000000 ) ) ;
#302 = EDGE_LOOP ( 'NONE', ( #8, #910, #592, #417 ) ) ;
#303 = EDGE_CURVE ( 'NONE', #710, #479, #771, .T. ) ;
#304 = CARTESIAN_POINT ( 'NONE',  ( -94.08846518073249854, 154.1200000000000045, 10.41889066001588482 ) ) ;
#305 = ORIENTED_EDGE ( 'NONE', *, *, #987, .T. ) ;
#306 = CARTESIAN_POINT ( 'NONE',  ( 7.699999999999995737, 5.000000000000004441, 0.000000000000000000 ) ) ;
#307 = CIRCLE ( 'NONE', #154, 2.574999999999999734 ) ;
#308 = DIRECTION ( 'NONE',  ( -1.000000000000000000, 0.000000000000000000, 0.000000000000000000 ) ) ;
#309 = CIRCLE ( 'NONE', #328, 2.574999999999999734 ) ;
#310 = ORIENTED_EDGE ( 'NONE', *, *, #379, .F. ) ;
#311 = LINE ( 'NONE', #800, #158 ) ;
#312 = EDGE_CURVE ( 'NONE', #150, #407, #673, .T. ) ;
#313 = ORIENTED_EDGE ( 'NONE', *, *, #908, .F. ) ;
#314 = DIRECTION ( 'NONE',  ( -0.9848077530122079093, 0.000000000000000000, 0.1736481776669313859 ) ) ;
#315 = AXIS2_PLACEMENT_3D ( 'NONE', #316, #567, #235 ) ;
#316 = CARTESIAN_POINT ( 'NONE',  ( 0.000000000000000000, 0.000000000000000000, 6.349999999999999645 ) ) ;
#317 = EDGE_LOOP ( 'NONE', ( #377, #178 ) ) ;
#318 =( LENGTH_UNIT ( ) NAMED_UNIT ( * ) SI_UNIT ( .MILLI., .METRE. ) );
#319 = EDGE_LOOP ( 'NONE', ( #473, #677, #97, #562, #231, #297, #946, #323 ) ) ;
#320 = CARTESIAN_POINT ( 'NONE',  ( -7.699999999999996625, 9.184850993605147944E-16, 0.000000000000000000 ) ) ;
#321 = FACE_OUTER_BOUND ( 'NONE', #43, .T. ) ;
#322 = DIRECTION ( 'NONE',  ( 0.1736481776669314692, 0.000000000000000000, -0.9848077530122079093 ) ) ;
#323 = ORIENTED_EDGE ( 'NONE', *, *, #1041, .F. ) ;
#324 = FACE_OUTER_BOUND ( 'NONE', #941, .T. ) ;
#325 = DIRECTION ( 'NONE',  ( -0.1736481776669313581, -0.000000000000000000, -0.9848077530122079093 ) ) ;
#326 = EDGE_CURVE ( 'NONE', #722, #960, #1014, .T. ) ;
#327 = VECTOR ( 'NONE', #325, 1000.000000000000114 ) ;
#328 = AXIS2_PLACEMENT_3D ( 'NONE', #840, #403, #678 ) ;
#329 = DIRECTION ( 'NONE',  ( 0.000000000000000000, 1.000000000000000000, -0.000000000000000000 ) ) ;
#330 = VECTOR ( 'NONE', #298, 1000.000000000000114 ) ;
#331 = EDGE_LOOP ( 'NONE', ( #1032, #619, #797, #431 ) ) ;
#332 = CYLINDRICAL_SURFACE ( 'NONE', #48, 2.574999999999999734 ) ;
#333 = EDGE_CURVE ( 'NONE', #962, #116, #737, .T. ) ;
#334 = LINE ( 'NONE', #1015, #35 ) ;
#335 = CARTESIAN_POINT ( 'NONE',  ( -17.69999999999999574, 103.3199999999999932, 0.000000000000000000 ) ) ;
#336 = ORIENTED_EDGE ( 'NONE', *, *, #1003, .T. ) ;
#337 = DIRECTION ( 'NONE',  ( 0.1736481776669313859, 0.000000000000000000, -0.9848077530122079093 ) ) ;
#338 = LINE ( 'NONE', #511, #187 ) ;
#339 = LINE ( 'NONE', #1021, #470 ) ;
#340 = EDGE_LOOP ( 'NONE', ( #915, #775, #880, #513 ) ) ;
#341 = EDGE_CURVE ( 'NONE', #1042, #901, #600, .T. ) ;
#342 = DIRECTION ( 'NONE',  ( 0.9848077530122079093, 0.000000000000000000, -0.1736481776669311639 ) ) ;
#343 = CYLINDRICAL_SURFACE ( 'NONE', #627, 5.000000000000000888 ) ;
#344 = AXIS2_PLACEMENT_3D ( 'NONE', #52, #208, #656 ) ;
#345 = EDGE_LOOP ( 'NONE', ( #1089, #654 ) ) ;
#346 = AXIS2_PLACEMENT_3D ( 'NONE', #530, #867, #961 ) ;
#347 = EDGE_CURVE ( 'NONE', #137, #551, #669, .T. ) ;
#348 = VECTOR ( 'NONE', #986, 1000.000000000000227 ) ;
#349 = CYLINDRICAL_SURFACE ( 'NONE', #846, 2.574999999999985079 ) ;
#350 = CARTESIAN_POINT ( 'NONE',  ( 55.22936012031473751, 140.6700000000000443, 3.566981991679345931 ) ) ;
#351 = ORIENTED_EDGE ( 'NONE', *, *, #107, .T. ) ;
#352 = DIRECTION ( 'NONE',  ( -0.9848077530122080203, 0.000000000000000000, -0.1736481776669308030 ) ) ;
#353 = ORIENTED_EDGE ( 'NONE', *, *, #83, .T. ) ;
#354 = CARTESIAN_POINT ( 'NONE',  ( -4.285563578956254529E-31, 2.332952152375706466E-15, 6.349999999999999645 ) ) ;
#355 = VERTEX_POINT ( 'NONE', #762 ) ;
#356 = DIRECTION ( 'NONE',  ( 0.1736481776669314414, -0.000000000000000000, 0.9848077530122079093 ) ) ;
#357 = DIRECTION ( 'NONE',  ( 0.6963642403200149822, -0.7071067811865514585, 0.1227878039689729306 ) ) ;
#358 = EDGE_CURVE ( 'NONE', #201, #63, #13, .T. ) ;
#359 = ORIENTED_EDGE ( 'NONE', *, *, #140, .F. ) ;
#360 = AXIS2_PLACEMENT_3D ( 'NONE', #713, #811, #141 ) ;
#361 = CARTESIAN_POINT ( 'NONE',  ( -55.22936012031473751, 140.6700000000000443, 3.566981991679345931 ) ) ;
#362 = VECTOR ( 'NONE', #44, 1000.000000000000000 ) ;
#363 = ORIENTED_EDGE ( 'NONE', *, *, #1003, .F. ) ;
#364 = CYLINDRICAL_SURFACE ( 'NONE', #933, 17.40000000000001279 ) ;
#365 = VECTOR ( 'NONE', #422, 1000.000000000000114 ) ;
#366 = AXIS2_PLACEMENT_3D ( 'NONE', #641, #65, #1087 ) ;
#367 = ORIENTED_EDGE ( 'NONE', *, *, #181, .F. ) ;
#368 = DIRECTION ( 'NONE',  ( 0.1736481776669313859, -0.000000000000000000, 0.9848077530122079093 ) ) ;
#369 = CARTESIAN_POINT ( 'NONE',  ( -50.15760019230186373, 140.6700000000000443, 2.672693876694648640 ) ) ;
#370 = VERTEX_POINT ( 'NONE', #4 ) ;
#371 = LINE ( 'NONE', #550, #330 ) ;
#372 = EDGE_CURVE ( 'NONE', #993, #1035, #338, .T. ) ;
#373 = EDGE_LOOP ( 'NONE', ( #388, #427, #575, #71 ) ) ;
#374 = PLANE ( 'NONE',  #789 ) ;
#375 = VERTEX_POINT ( 'NONE', #350 ) ;
#376 = CARTESIAN_POINT ( 'NONE',  ( 87.35857856775434982, 140.6700000000000443, 15.58223007303912588 ) ) ;
#377 = ORIENTED_EDGE ( 'NONE', *, *, #358, .T. ) ;
#378 = VECTOR ( 'NONE', #560, 1000.000000000000000 ) ;
#379 = EDGE_CURVE ( 'NONE', #137, #455, #240, .T. ) ;
#380 = VECTOR ( 'NONE', #356, 1000.000000000000114 ) ;
#381 = VECTOR ( 'NONE', #164, 1000.000000000000000 ) ;
#382 = CARTESIAN_POINT ( 'NONE',  ( -4.285563578956254529E-31, 2.332952152375706466E-15, 0.000000000000000000 ) ) ;
#383 = ORIENTED_EDGE ( 'NONE', *, *, #908, .T. ) ;
#384 = CARTESIAN_POINT ( 'NONE',  ( -95.87020041914907154, 128.7199999999999989, 0.3141679950118720921 ) ) ;
#385 = ORIENTED_EDGE ( 'NONE', *, *, #53, .T. ) ;
#386 = DIRECTION ( 'NONE',  ( -0.000000000000000000, 0.000000000000000000, 1.000000000000000000 ) ) ;
#387 = CARTESIAN_POINT ( 'NONE',  ( 0.000000000000000000, 154.1200000000000045, 6.349999999999999645 ) ) ;
#388 = ORIENTED_EDGE ( 'NONE', *, *, #926, .T. ) ;
#389 = DIRECTION ( 'NONE',  ( -0.9848077530122079093, 0.000000000000000000, -0.1736481776669314692 ) ) ;
#390 = ORIENTED_EDGE ( 'NONE', *, *, #438, .F. ) ;
#391 = SURFACE_STYLE_USAGE ( .BOTH. , #738 ) ;
#392 = CARTESIAN_POINT ( 'NONE',  ( 0.000000000000000000, 12.69999999999999929, 6.349999999999999645 ) ) ;
#393 = ADVANCED_FACE ( 'NONE', ( #595 ), #836, .T. ) ;
#394 = EDGE_LOOP ( 'NONE', ( #484, #106, #81, #969, #146 ) ) ;
#395 = FACE_OUTER_BOUND ( 'NONE', #554, .T. ) ;
#396 = VERTEX_POINT ( 'NONE', #429 ) ;
#397 = LINE ( 'NONE', #657, #276 ) ;
#398 = AXIS2_PLACEMENT_3D ( 'NONE', #860, #368, #436 ) ;
#399 = ORIENTED_EDGE ( 'NONE', *, *, #971, .F. ) ;
#400 = PRODUCT_DEFINITION ( 'UNKNOWN', '', #1040, #194 ) ;
#401 = CARTESIAN_POINT ( 'NONE',  ( -35.00000000000001421, 154.1200000000000045, 0.000000000000000000 ) ) ;
#402 = ORIENTED_EDGE ( 'NONE', *, *, #845, .T. ) ;
#403 = DIRECTION ( 'NONE',  ( 0.1736481776669314692, 0.000000000000000000, -0.9848077530122079093 ) ) ;
#404 = CARTESIAN_POINT ( 'NONE',  ( 3.265000000000001013, 12.69999999999999929, 6.349999999999999645 ) ) ;
#405 = FACE_OUTER_BOUND ( 'NONE', #373, .T. ) ;
#406 = PRODUCT_CONTEXT ( 'NONE', #482, 'mechanical' ) ;
#407 = VERTEX_POINT ( 'NONE', #1009 ) ;
#408 = EDGE_CURVE ( 'NONE', #1042, #795, #241, .T. ) ;
#409 = DIRECTION ( 'NONE',  ( -0.9848077530122079093, 0.000000000000000000, 0.1736481776669311639 ) ) ;
#410 = CARTESIAN_POINT ( 'NONE',  ( -6.429834243512947478E-14, 103.3199999999999790, 6.349999999999999645 ) ) ;
#411 = CARTESIAN_POINT ( 'NONE',  ( 17.69999999999996376, 98.31999999999999318, 0.000000000000000000 ) ) ;
#412 = ORIENTED_EDGE ( 'NONE', *, *, #19, .T. ) ;
#413 = CARTESIAN_POINT ( 'NONE',  ( -93.00255122567349986, 128.7199999999999989, 16.57741473101114593 ) ) ;
#414 = ADVANCED_FACE ( 'NONE', ( #767 ), #343, .F. ) ;
#415 = VECTOR ( 'NONE', #295, 1000.000000000000114 ) ;
#416 = DIRECTION ( 'NONE',  ( -0.1736481776669314414, -0.000000000000000000, 0.9848077530122079093 ) ) ;
#417 = ORIENTED_EDGE ( 'NONE', *, *, #312, .F. ) ;
#418 = CARTESIAN_POINT ( 'NONE',  ( -3.265000000000001013, 12.69999999999999929, 6.349999999999999645 ) ) ;
#419 = AXIS2_PLACEMENT_3D ( 'NONE', #930, #322, #999 ) ;
#420 = DIRECTION ( 'NONE',  ( -0.000000000000000000, -0.000000000000000000, -1.000000000000000000 ) ) ;
#421 = EDGE_CURVE ( 'NONE', #111, #546, #919, .T. ) ;
#422 = DIRECTION ( 'NONE',  ( 0.1736481776669313581, -0.000000000000000000, -0.9848077530122079093 ) ) ;
#423 = ORIENTED_EDGE ( 'NONE', *, *, #216, .T. ) ;
#424 = LINE ( 'NONE', #160, #949 ) ;
#425 = DIRECTION ( 'NONE',  ( 0.9848077530122079093, 0.000000000000000000, -0.1736481776669311639 ) ) ;
#426 = EDGE_CURVE ( 'NONE', #1071, #163, #134, .T. ) ;
#427 = ORIENTED_EDGE ( 'NONE', *, *, #181, .T. ) ;
#428 = CARTESIAN_POINT ( 'NONE',  ( -7.699999999999997513, 5.000000000000000888, 0.000000000000000000 ) ) ;
#429 = CARTESIAN_POINT ( 'NONE',  ( -35.00000000000000711, 103.3199999999999932, 0.000000000000000000 ) ) ;
#430 = VECTOR ( 'NONE', #84, 1000.000000000000000 ) ;
#431 = ORIENTED_EDGE ( 'NONE', *, *, #1018, .T. ) ;
#432 = CIRCLE ( 'NONE', #579, 2.574999999999985523 ) ;
#433 = LINE ( 'NONE', #876, #14 ) ;
#434 = CARTESIAN_POINT ( 'NONE',  ( 0.000000000000000000, 0.000000000000000000, 0.000000000000000000 ) ) ;
#435 = VERTEX_POINT ( 'NONE', #709 ) ;
#436 = DIRECTION ( 'NONE',  ( 0.9848077530122079093, 0.000000000000000000, -0.1736481776669311639 ) ) ;
#437 = ORIENTED_EDGE ( 'NONE', *, *, #535, .T. ) ;
#438 = EDGE_CURVE ( 'NONE', #483, #565, #531, .T. ) ;
#439 = CARTESIAN_POINT ( 'NONE',  ( -84.82269860374792358, 140.6700000000000443, 15.13508601554678101 ) ) ;
#440 = ORIENTED_EDGE ( 'NONE', *, *, #347, .T. ) ;
#441 = DIRECTION ( 'NONE',  ( -0.9848077530122077983, 0.000000000000000000, -0.1736481776669323851 ) ) ;
#442 = VERTEX_POINT ( 'NONE', #24 ) ;
#443 = FACE_OUTER_BOUND ( 'NONE', #855, .T. ) ;
#444 = ADVANCED_FACE ( 'NONE', ( #443 ), #110, .T. ) ;
#445 = EDGE_LOOP ( 'NONE', ( #218, #313, #956, #905 ) ) ;
#446 = AXIS2_PLACEMENT_3D ( 'NONE', #778, #608, #118 ) ;
#447 = DIRECTION ( 'NONE',  ( -0.9848077530122079093, 0.000000000000000000, -0.1736481776669314692 ) ) ;
#448 = CIRCLE ( 'NONE', #156, 2.574999999999985523 ) ;
#449 = DIRECTION ( 'NONE',  ( -0.9848077530122079093, 0.000000000000000000, -0.1736481776669311639 ) ) ;
#450 = EDGE_CURVE ( 'NONE', #483, #665, #613, .T. ) ;
#451 = EDGE_CURVE ( 'NONE', #518, #205, #862, .T. ) ;
#452 = AXIS2_PLACEMENT_3D ( 'NONE', #585, #1004, #166 ) ;
#453 = ORIENTED_EDGE ( 'NONE', *, *, #504, .F. ) ;
#454 = CYLINDRICAL_SURFACE ( 'NONE', #774, 2.574999999999985079 ) ;
#455 = VERTEX_POINT ( 'NONE', #105 ) ;
#456 = DIRECTION ( 'NONE',  ( 0.000000000000000000, 1.000000000000000000, 0.000000000000000000 ) ) ;
#457 = LINE ( 'NONE', #799, #831 ) ;
#458 = ADVANCED_FACE ( 'NONE', ( #184, #534, #955 ), #374, .F. ) ;
#459 = LINE ( 'NONE', #1077, #87 ) ;
#460 = EDGE_LOOP ( 'NONE', ( #363, #568, #911, #437 ) ) ;
#461 = CARTESIAN_POINT ( 'NONE',  ( 12.69999999999996199, 98.31999999999999318, 6.349999999999999645 ) ) ;
#462 = CARTESIAN_POINT ( 'NONE',  ( 94.08846518073251275, 128.7199999999999989, 10.41889066001588482 ) ) ;
#463 = EDGE_LOOP ( 'NONE', ( #536, #712, #954, #931 ) ) ;
#464 = FACE_OUTER_BOUND ( 'NONE', #2, .T. ) ;
#465 = EDGE_LOOP ( 'NONE', ( #875, #634 ) ) ;
#466 = VECTOR ( 'NONE', #761, 1000.000000000000000 ) ;
#467 = CARTESIAN_POINT ( 'NONE',  ( -7.699999999999996625, 9.184850993605147944E-16, 0.000000000000000000 ) ) ;
#468 = VECTOR ( 'NONE', #496, 1000.000000000000000 ) ;
#469 = LINE ( 'NONE', #812, #521 ) ;
#470 = VECTOR ( 'NONE', #501, 1000.000000000000114 ) ;
#471 = ORIENTED_EDGE ( 'NONE', *, *, #693, .T. ) ;
#472 = LINE ( 'NONE', #887, #70 ) ;
#473 = ORIENTED_EDGE ( 'NONE', *, *, #604, .F. ) ;
#474 = FACE_BOUND ( 'NONE', #951, .T. ) ;
#475 = EDGE_CURVE ( 'NONE', #370, #479, #697, .T. ) ;
#476 = FACE_OUTER_BOUND ( 'NONE', #1059, .T. ) ;
#477 = ORIENTED_EDGE ( 'NONE', *, *, #408, .T. ) ;
#478 = CARTESIAN_POINT ( 'NONE',  ( 34.99999999999999289, 154.1200000000000045, 6.349999999999999645 ) ) ;
#479 = VERTEX_POINT ( 'NONE', #798 ) ;
#480 =( NAMED_UNIT ( * ) SI_UNIT ( $, .STERADIAN. ) SOLID_ANGLE_UNIT ( ) );
#481 = CARTESIAN_POINT ( 'NONE',  ( 94.08846518073249854, 41.95015890049428009, 10.41889066001588482 ) ) ;
#482 = APPLICATION_CONTEXT ( 'automotive_design' ) ;
#483 = VERTEX_POINT ( 'NONE', #959 ) ;
#484 = ORIENTED_EDGE ( 'NONE', *, *, #987, .F. ) ;
#485 = DIRECTION ( 'NONE',  ( 0.1736481776669313859, 0.000000000000000000, -0.9848077530122079093 ) ) ;
#486 = VECTOR ( 'NONE', #301, 1000.000000000000000 ) ;
#487 = CARTESIAN_POINT ( 'NONE',  ( 17.69999999999996021, 103.3199999999999932, 6.349999999999999645 ) ) ;
#488 = AXIS2_PLACEMENT_3D ( 'NONE', #12, #441, #27 ) ;
#489 = LINE ( 'NONE', #248, #365 ) ;
#490 = EDGE_CURVE ( 'NONE', #626, #546, #1026, .T. ) ;
#491 = CARTESIAN_POINT ( 'NONE',  ( 0.000000000000000000, 0.000000000000000000, 0.000000000000000000 ) ) ;
#492 = ORIENTED_EDGE ( 'NONE', *, *, #76, .F. ) ;
#493 = CARTESIAN_POINT ( 'NONE',  ( -7.699999999999997513, 5.000000000000000888, 6.349999999999999645 ) ) ;
#494 = CYLINDRICAL_SURFACE ( 'NONE', #117, 5.000000000000000000 ) ;
#495 = LINE ( 'NONE', #1088, #970 ) ;
#496 = DIRECTION ( 'NONE',  ( 1.365923996832131609E-16, -1.000000000000000000, 0.000000000000000000 ) ) ;
#497 = ADVANCED_FACE ( 'NONE', ( #30 ), #364, .F. ) ;
#498 = EDGE_LOOP ( 'NONE', ( #607, #728 ) ) ;
#499 = CARTESIAN_POINT ( 'NONE',  ( 7.699999999999996625, 3.747419205390897742E-15, 6.349999999999999645 ) ) ;
#500 = CARTESIAN_POINT ( 'NONE',  ( -94.08846518073251275, 128.7199999999999989, 10.41889066001588482 ) ) ;
#501 = DIRECTION ( 'NONE',  ( 0.1736481776669313581, -0.000000000000000000, -0.9848077530122079093 ) ) ;
#502 = ORIENTED_EDGE ( 'NONE', *, *, #504, .T. ) ;
#503 = LINE ( 'NONE', #1097, #1056 ) ;
#504 = EDGE_CURVE ( 'NONE', #1075, #779, #782, .T. ) ;
#505 = DIRECTION ( 'NONE',  ( 1.000000000000000000, 0.000000000000000000, 0.000000000000000000 ) ) ;
#506 = PRESENTATION_LAYER_ASSIGNMENT (  '', '', ( #1027 ) ) ;
#507 = DIRECTION ( 'NONE',  ( -0.000000000000000000, 0.000000000000000000, 1.000000000000000000 ) ) ;
#508 = EDGE_LOOP ( 'NONE', ( #944, #616, #748, #601 ) ) ;
#509 = CARTESIAN_POINT ( 'NONE',  ( -51.60756620124930549, 140.6700000000000443, 9.278362005182259509 ) ) ;
#510 = AXIS2_PLACEMENT_3D ( 'NONE', #909, #998, #976 ) ;
#511 = CARTESIAN_POINT ( 'NONE',  ( 48.42111841563255581, 140.6700000000000443, 12.52077140681672951 ) ) ;
#512 = EDGE_CURVE ( 'NONE', #768, #1075, #947, .T. ) ;
#513 = ORIENTED_EDGE ( 'NONE', *, *, #823, .F. ) ;
#514 = CARTESIAN_POINT ( 'NONE',  ( 52.69348015630830417, 140.6700000000000443, 3.119837934186997952 ) ) ;
#515 = CARTESIAN_POINT ( 'NONE',  ( 35.00000000000001421, 103.3199999999999932, 0.000000000000000000 ) ) ;
#516 = PRODUCT ( 'Hub_Plate', 'Hub_Plate', '', ( #406 ) ) ;
#517 = UNCERTAINTY_MEASURE_WITH_UNIT (LENGTH_MEASURE( 1.000000000000000082E-05 ), #318, 'distance_accuracy_value', 'NONE');
#518 = VERTEX_POINT ( 'NONE', #1038 ) ;
#519 = DIRECTION ( 'NONE',  ( 0.1736481776669313859, -0.000000000000000000, -0.9848077530122080203 ) ) ;
#520 = CARTESIAN_POINT ( 'NONE',  ( 12.69999999999999574, 5.000000000000006217, 6.349999999999999645 ) ) ;
#521 = VECTOR ( 'NONE', #54, 1000.000000000000114 ) ;
#522 = VECTOR ( 'NONE', #1033, 1000.000000000000000 ) ;
#523 = ORIENTED_EDGE ( 'NONE', *, *, #727, .F. ) ;
#524 = AXIS2_PLACEMENT_3D ( 'NONE', #716, #217, #1058 ) ;
#525 = CARTESIAN_POINT ( 'NONE',  ( 94.08846518073249854, 154.1200000000000045, 10.41889066001588482 ) ) ;
#526 = DIRECTION ( 'NONE',  ( -1.000000000000000000, 0.000000000000000000, 0.000000000000000000 ) ) ;
#527 = VECTOR ( 'NONE', #125, 1000.000000000000000 ) ;
#528 = ORIENTED_EDGE ( 'NONE', *, *, #53, .F. ) ;
#529 = EDGE_CURVE ( 'NONE', #868, #733, #897, .T. ) ;
#530 = CARTESIAN_POINT ( 'NONE',  ( -17.69999999999999574, 98.31999999999999318, 6.349999999999999645 ) ) ;
#531 = LINE ( 'NONE', #269, #272 ) ;
#532 = ORIENTED_EDGE ( 'NONE', *, *, #618, .T. ) ;
#533 = DIRECTION ( 'NONE',  ( 0.1736481776669314692, 0.000000000000000000, -0.9848077530122079093 ) ) ;
#534 = FACE_BOUND ( 'NONE', #45, .T. ) ;
#535 = EDGE_CURVE ( 'NONE', #1035, #375, #307, .T. ) ;
#536 = ORIENTED_EDGE ( 'NONE', *, *, #636, .F. ) ;
#537 = AXIS2_PLACEMENT_3D ( 'NONE', #948, #203, #275 ) ;
#538 = CARTESIAN_POINT ( 'NONE',  ( -86.70801074614404058, 140.6700000000000443, 19.27178353216594076 ) ) ;
#539 = CIRCLE ( 'NONE', #646, 2.574999999999999734 ) ;
#540 = ORIENTED_EDGE ( 'NONE', *, *, #810, .T. ) ;
#541 = AXIS2_PLACEMENT_3D ( 'NONE', #545, #62, #131 ) ;
#542 = CARTESIAN_POINT ( 'NONE',  ( 69.07434825422213009, 103.3199999999999932, 6.008226947275775665 ) ) ;
#543 = EDGE_CURVE ( 'NONE', #722, #1000, #596, .T. ) ;
#544 = ORIENTED_EDGE ( 'NONE', *, *, #618, .F. ) ;
#545 = CARTESIAN_POINT ( 'NONE',  ( 0.000000000000000000, 128.7199999999999989, 0.000000000000000000 ) ) ;
#546 = VERTEX_POINT ( 'NONE', #793 ) ;
#547 = CARTESIAN_POINT ( 'NONE',  ( 0.000000000000000000, 128.7199999999999989, 0.000000000000000000 ) ) ;
#548 = CARTESIAN_POINT ( 'NONE',  ( -93.00255122567348565, 154.1200000000000045, 16.57741473101114593 ) ) ;
#549 = VERTEX_POINT ( 'NONE', #369 ) ;
#550 = CARTESIAN_POINT ( 'NONE',  ( 35.00000000000001421, 154.1200000000000045, 0.000000000000000000 ) ) ;
#551 = VERTEX_POINT ( 'NONE', #542 ) ;
#552 = CARTESIAN_POINT ( 'NONE',  ( 93.00255122567348565, 154.1200000000000045, 16.57741473101114593 ) ) ;
#553 = CARTESIAN_POINT ( 'NONE',  ( 50.95699837963898915, 140.6700000000000443, 12.96791546430907793 ) ) ;
#554 = EDGE_LOOP ( 'NONE', ( #390, #23, #238, #402, #100 ) ) ;
#555 = LINE ( 'NONE', #292, #703 ) ;
#556 = ADVANCED_FACE ( 'NONE', ( #883 ), #42, .F. ) ;
#557 = ORIENTED_EDGE ( 'NONE', *, *, #421, .F. ) ;
#558 = AXIS2_PLACEMENT_3D ( 'NONE', #306, #647, #64 ) ;
#559 = AXIS2_PLACEMENT_3D ( 'NONE', #17, #617, #958 ) ;
#560 = DIRECTION ( 'NONE',  ( 1.000000000000000000, 0.000000000000000000, 0.000000000000000000 ) ) ;
#561 = DIRECTION ( 'NONE',  ( 0.000000000000000000, 1.000000000000000000, 0.000000000000000000 ) ) ;
#562 = ORIENTED_EDGE ( 'NONE', *, *, #153, .T. ) ;
#563 = CIRCLE ( 'NONE', #142, 5.000000000000000888 ) ;
#564 = DIRECTION ( 'NONE',  ( 1.000000000000000000, 0.000000000000000000, 0.000000000000000000 ) ) ;
#565 = VERTEX_POINT ( 'NONE', #731 ) ;
#566 = EDGE_CURVE ( 'NONE', #407, #1084, #827, .T. ) ;
#567 = DIRECTION ( 'NONE',  ( -0.000000000000000000, 0.000000000000000000, 1.000000000000000000 ) ) ;
#568 = ORIENTED_EDGE ( 'NONE', *, *, #720, .F. ) ;
#569 = ORIENTED_EDGE ( 'NONE', *, *, #971, .T. ) ;
#570 = LINE ( 'NONE', #1066, #29 ) ;
#571 = CYLINDRICAL_SURFACE ( 'NONE', #37, 2.574999999999999734 ) ;
#572 = EDGE_CURVE ( 'NONE', #396, #293, #570, .T. ) ;
#573 = DIRECTION ( 'NONE',  ( -0.000000000000000000, 0.000000000000000000, 1.000000000000000000 ) ) ;
#574 = CARTESIAN_POINT ( 'NONE',  ( 94.08846518073249854, 154.1200000000000045, 10.41889066001588482 ) ) ;
#575 = ORIENTED_EDGE ( 'NONE', *, *, #358, .F. ) ;
#576 = DIRECTION ( 'NONE',  ( -0.1736481776669313859, -0.000000000000000000, -0.9848077530122080203 ) ) ;
#577 = VECTOR ( 'NONE', #725, 1000.000000000000114 ) ;
#578 = DIRECTION ( 'NONE',  ( -0.9848077530122077983, 0.000000000000000000, 0.1736481776669323851 ) ) ;
#579 = AXIS2_PLACEMENT_3D ( 'NONE', #704, #533, #98 ) ;
#580 = EDGE_CURVE ( 'NONE', #63, #201, #1094, .T. ) ;
#581 = CARTESIAN_POINT ( 'NONE',  ( 35.00000000000001421, 103.3199999999999932, 0.000000000000000000 ) ) ;
#582 = VERTEX_POINT ( 'NONE', #467 ) ;
#583 = CARTESIAN_POINT ( 'NONE',  ( -93.00255122567348565, 41.95015890049428009, 16.57741473101114593 ) ) ;
#584 = DIRECTION ( 'NONE',  ( 0.000000000000000000, 0.000000000000000000, -1.000000000000000000 ) ) ;
#585 = CARTESIAN_POINT ( 'NONE',  ( 0.000000000000000000, 12.69999999999999929, 6.349999999999999645 ) ) ;
#586 = APPLICATION_PROTOCOL_DEFINITION ( 'draft international standard', 'automotive_design', 1998, #615 ) ;
#587 = ORIENTED_EDGE ( 'NONE', *, *, #698, .T. ) ;
#588 = EDGE_CURVE ( 'NONE', #960, #271, #609, .T. ) ;
#589 = DIRECTION ( 'NONE',  ( -1.000000000000000000, -1.836970198721029194E-16, 0.000000000000000000 ) ) ;
#590 = CARTESIAN_POINT ( 'NONE',  ( 84.82269860374792358, 140.6700000000000443, 15.13508601554678101 ) ) ;
#591 = CARTESIAN_POINT ( 'NONE',  ( 7.699999999999996625, 3.747419205390897742E-15, 6.349999999999999645 ) ) ;
#592 = ORIENTED_EDGE ( 'NONE', *, *, #566, .F. ) ;
#593 = EDGE_CURVE ( 'NONE', #299, #760, #128, .T. ) ;
#594 = DIRECTION ( 'NONE',  ( -0.000000000000000000, -0.000000000000000000, -1.000000000000000000 ) ) ;
#595 = FACE_OUTER_BOUND ( 'NONE', #637, .T. ) ;
#596 = CIRCLE ( 'NONE', #805, 17.40000000000001279 ) ;
#597 = AXIS2_PLACEMENT_3D ( 'NONE', #224, #145, #729 ) ;
#598 = ORIENTED_EDGE ( 'NONE', *, *, #698, .F. ) ;
#599 = DIRECTION ( 'NONE',  ( 0.000000000000000000, 0.000000000000000000, 1.000000000000000000 ) ) ;
#600 = LINE ( 'NONE', #175, #327 ) ;
#601 = ORIENTED_EDGE ( 'NONE', *, *, #788, .F. ) ;
#602 = CARTESIAN_POINT ( 'NONE',  ( -21.81842646915065131, 55.33507945024761199, -2.324267061681303037 ) ) ;
#603 = DIRECTION ( 'NONE',  ( -1.000000000000000000, 0.000000000000000000, 0.000000000000000000 ) ) ;
#604 = EDGE_CURVE ( 'NONE', #86, #1096, #1072, .T. ) ;
#605 = ORIENTED_EDGE ( 'NONE', *, *, #818, .T. ) ;
#606 = FACE_OUTER_BOUND ( 'NONE', #815, .T. ) ;
#607 = ORIENTED_EDGE ( 'NONE', *, *, #675, .T. ) ;
#608 = DIRECTION ( 'NONE',  ( 0.000000000000000000, -0.000000000000000000, -1.000000000000000000 ) ) ;
#609 = CIRCLE ( 'NONE', #754, 17.40000000000001279 ) ;
#610 = ORIENTED_EDGE ( 'NONE', *, *, #707, .T. ) ;
#611 = LINE ( 'NONE', #687, #668 ) ;
#612 = EDGE_LOOP ( 'NONE', ( #367, #423, #195, #190 ) ) ;
#613 = LINE ( 'NONE', #189, #1055 ) ;
#614 = VECTOR ( 'NONE', #129, 1000.000000000000114 ) ;
#615 = APPLICATION_CONTEXT ( 'automotive_design' ) ;
#616 = ORIENTED_EDGE ( 'NONE', *, *, #197, .T. ) ;
#617 = DIRECTION ( 'NONE',  ( -0.000000000000000000, 0.000000000000000000, 1.000000000000000000 ) ) ;
#618 = EDGE_CURVE ( 'NONE', #205, #442, #1037, .T. ) ;
#619 = ORIENTED_EDGE ( 'NONE', *, *, #451, .T. ) ;
#620 = DIRECTION ( 'NONE',  ( 0.9848077530122079093, 0.000000000000000000, -0.1736481776669314692 ) ) ;
#621 = EDGE_LOOP ( 'NONE', ( #598, #1023, #186, #977 ) ) ;
#622 = CARTESIAN_POINT ( 'NONE',  ( 12.69999999999996199, 98.31999999999999318, 0.000000000000000000 ) ) ;
#623 = ORIENTED_EDGE ( 'NONE', *, *, #1018, .F. ) ;
#624 = ADVANCED_FACE ( 'NONE', ( #640 ), #889, .F. ) ;
#625 = DIRECTION ( 'NONE',  ( -0.000000000000000000, -0.000000000000000000, -1.000000000000000000 ) ) ;
#626 = VERTEX_POINT ( 'NONE', #461 ) ;
#627 = AXIS2_PLACEMENT_3D ( 'NONE', #1028, #684, #15 ) ;
#628 = DIRECTION ( 'NONE',  ( -0.000000000000000000, -0.000000000000000000, 1.000000000000000000 ) ) ;
#629 = VECTOR ( 'NONE', #708, 1000.000000000000000 ) ;
#630 = VECTOR ( 'NONE', #1083, 1000.000000000000114 ) ;
#631 = FILL_AREA_STYLE_COLOUR ( '', #31 ) ;
#632 = LINE ( 'NONE', #886, #527 ) ;
#633 = DIRECTION ( 'NONE',  ( 0.1736481776669313581, -0.000000000000000000, -0.9848077530122079093 ) ) ;
#634 = ORIENTED_EDGE ( 'NONE', *, *, #107, .F. ) ;
#635 = LINE ( 'NONE', #817, #614 ) ;
#636 = EDGE_CURVE ( 'NONE', #94, #407, #975, .T. ) ;
#637 = EDGE_LOOP ( 'NONE', ( #724, #765, #16, #967 ) ) ;
#638 = FACE_BOUND ( 'NONE', #1012, .T. ) ;
#639 = ORIENTED_EDGE ( 'NONE', *, *, #90, .T. ) ;
#640 = FACE_OUTER_BOUND ( 'NONE', #508, .T. ) ;
#641 = CARTESIAN_POINT ( 'NONE',  ( 50.95699837963898915, 140.6700000000000443, 12.96791546430907793 ) ) ;
#642 = ORIENTED_EDGE ( 'NONE', *, *, #655, .F. ) ;
#643 = ADVANCED_FACE ( 'NONE', ( #474, #151, #219 ), #803, .T. ) ;
#644 = DIRECTION ( 'NONE',  ( -0.9848077530122080203, 0.000000000000000000, 0.1736481776669308030 ) ) ;
#645 = EDGE_LOOP ( 'NONE', ( #1029, #623, #359, #907 ) ) ;
#646 = AXIS2_PLACEMENT_3D ( 'NONE', #72, #133, #856 ) ;
#647 = DIRECTION ( 'NONE',  ( 0.000000000000000000, -0.000000000000000000, -1.000000000000000000 ) ) ;
#648 = VECTOR ( 'NONE', #759, 1000.000000000000227 ) ;
#649 = FACE_BOUND ( 'NONE', #345, .T. ) ;
#650 = VECTOR ( 'NONE', #751, 1000.000000000000000 ) ;
#651 = EDGE_LOOP ( 'NONE', ( #826, #61, #291, #284 ) ) ;
#652 = AXIS2_PLACEMENT_3D ( 'NONE', #392, #804, #732 ) ;
#653 = FACE_BOUND ( 'NONE', #28, .T. ) ;
#654 = ORIENTED_EDGE ( 'NONE', *, *, #216, .F. ) ;
#655 = EDGE_CURVE ( 'NONE', #34, #894, #242, .T. ) ;
#656 = DIRECTION ( 'NONE',  ( 1.000000000000000000, 0.000000000000000000, 0.000000000000000000 ) ) ;
#657 = CARTESIAN_POINT ( 'NONE',  ( -93.00255122567348565, 154.1200000000000045, 16.57741473101114593 ) ) ;
#658 = CARTESIAN_POINT ( 'NONE',  ( -12.69999999999999751, 0.000000000000000000, 6.349999999999999645 ) ) ;
#659 = MANIFOLD_SOLID_BREP ( 'Mirror2', #869 ) ;
#660 = VERTEX_POINT ( 'NONE', #213 ) ;
#661 = CARTESIAN_POINT ( 'NONE',  ( -12.69999999999999751, 5.000000000000000888, 6.349999999999999645 ) ) ;
#662 = LINE ( 'NONE', #382, #904 ) ;
#663 = DIRECTION ( 'NONE',  ( 1.000000000000000000, 0.000000000000000000, 0.000000000000000000 ) ) ;
#664 = LINE ( 'NONE', #574, #648 ) ;
#665 = VERTEX_POINT ( 'NONE', #552 ) ;
#666 = DIRECTION ( 'NONE',  ( 0.1736481776669314692, -0.000000000000000000, 0.9848077530122079093 ) ) ;
#667 = VECTOR ( 'NONE', #620, 1000.000000000000000 ) ;
#668 = VECTOR ( 'NONE', #102, 1000.000000000000000 ) ;
#669 = LINE ( 'NONE', #515, #878 ) ;
#670 = CARTESIAN_POINT ( 'NONE',  ( 34.99999999999999289, 103.3200000000000074, 6.349999999999999645 ) ) ;
#671 = ORIENTED_EDGE ( 'NONE', *, *, #333, .T. ) ;
#672 = CARTESIAN_POINT ( 'NONE',  ( -4.285563578956254529E-31, 2.332952152375706466E-15, 6.349999999999999645 ) ) ;
#673 = LINE ( 'NONE', #847, #220 ) ;
#674 = DIRECTION ( 'NONE',  ( -0.6963642403200226427, 0.7071067811865435759, 0.1227878039689743322 ) ) ;
#675 = EDGE_CURVE ( 'NONE', #901, #549, #539, .T. ) ;
#676 = LINE ( 'NONE', #1, #468 ) ;
#677 = ORIENTED_EDGE ( 'NONE', *, *, #1099, .T. ) ;
#678 = DIRECTION ( 'NONE',  ( -0.9848077530122079093, 0.000000000000000000, -0.1736481776669311639 ) ) ;
#679 = CARTESIAN_POINT ( 'NONE',  ( 12.69999999999999751, 4.691073743591945641E-15, 6.349999999999999645 ) ) ;
#680 = FACE_OUTER_BOUND ( 'NONE', #286, .T. ) ;
#681 =( NAMED_UNIT ( * ) SI_UNIT ( $, .STERADIAN. ) SOLID_ANGLE_UNIT ( ) );
#682 = ORIENTED_EDGE ( 'NONE', *, *, #707, .F. ) ;
#683 = CARTESIAN_POINT ( 'NONE',  ( -17.40000000000001279, 128.7199999999999989, 6.349999999999999645 ) ) ;
#684 = DIRECTION ( 'NONE',  ( 0.000000000000000000, 0.000000000000000000, -1.000000000000000000 ) ) ;
#685 = AXIS2_PLACEMENT_3D ( 'NONE', #38, #20, #943 ) ;
#686 = ORIENTED_EDGE ( 'NONE', *, *, #451, .F. ) ;
#687 = CARTESIAN_POINT ( 'NONE',  ( 12.69999999999999751, 4.691073743591945641E-15, 0.000000000000000000 ) ) ;
#688 = ADVANCED_FACE ( 'NONE', ( #1090 ), #3, .T. ) ;
#689 = CARTESIAN_POINT ( 'NONE',  ( 7.699999999999995737, 5.000000000000004441, 6.349999999999999645 ) ) ;
#690 = ORIENTED_EDGE ( 'NONE', *, *, #810, .F. ) ;
#691 = LINE ( 'NONE', #770, #380 ) ;
#692 = DIRECTION ( 'NONE',  ( 1.000000000000000000, 1.836970198721029194E-16, 0.000000000000000000 ) ) ;
#693 = EDGE_CURVE ( 'NONE', #1084, #396, #753, .T. ) ;
#694 = UNCERTAINTY_MEASURE_WITH_UNIT (LENGTH_MEASURE( 1.000000000000000082E-05 ), #989, 'distance_accuracy_value', 'NONE');
#695 = ORIENTED_EDGE ( 'NONE', *, *, #326, .T. ) ;
#696 = DIRECTION ( 'NONE',  ( -0.1736481776669313581, -0.000000000000000000, -0.9848077530122079093 ) ) ;
#697 = LINE ( 'NONE', #787, #667 ) ;
#698 = EDGE_CURVE ( 'NONE', #795, #1042, #701, .T. ) ;
#699 = VECTOR ( 'NONE', #257, 1000.000000000000000 ) ;
#700 = EDGE_CURVE ( 'NONE', #375, #1035, #985, .T. ) ;
#701 = CIRCLE ( 'NONE', #290, 2.574999999999999734 ) ;
#702 = ORIENTED_EDGE ( 'NONE', *, *, #978, .F. ) ;
#703 = VECTOR ( 'NONE', #564, 1000.000000000000000 ) ;
#704 = CARTESIAN_POINT ( 'NONE',  ( 84.82269860374792358, 140.6700000000000443, 15.13508601554678101 ) ) ;
#705 = DIRECTION ( 'NONE',  ( 0.000000000000000000, 0.000000000000000000, -1.000000000000000000 ) ) ;
#706 = ORIENTED_EDGE ( 'NONE', *, *, #845, .F. ) ;
#707 = EDGE_CURVE ( 'NONE', #1000, #271, #503, .T. ) ;
#708 = DIRECTION ( 'NONE',  ( -0.000000000000000000, -0.000000000000000000, -1.000000000000000000 ) ) ;
#709 = CARTESIAN_POINT ( 'NONE',  ( -3.265000000000001013, 12.69999999999999929, 6.349999999999999645 ) ) ;
#710 = VERTEX_POINT ( 'NONE', #766 ) ;
#711 = DIRECTION ( 'NONE',  ( 0.1736481776669314692, 0.000000000000000000, -0.9848077530122079093 ) ) ;
#712 = ORIENTED_EDGE ( 'NONE', *, *, #952, .T. ) ;
#713 = CARTESIAN_POINT ( 'NONE',  ( -17.69999999999999574, 98.31999999999999318, 0.000000000000000000 ) ) ;
#714 = ORIENTED_EDGE ( 'NONE', *, *, #512, .T. ) ;
#715 = AXIS2_PLACEMENT_3D ( 'NONE', #997, #829, #314 ) ;
#716 = CARTESIAN_POINT ( 'NONE',  ( -84.82269860374792358, 140.6700000000000443, 15.13508601554678101 ) ) ;
#717 =( GEOMETRIC_REPRESENTATION_CONTEXT ( 3 ) GLOBAL_UNCERTAINTY_ASSIGNED_CONTEXT ( ( #694 ) ) GLOBAL_UNIT_ASSIGNED_CONTEXT ( ( #989, #1060, #480 ) ) REPRESENTATION_CONTEXT ( 'NONE', 'WORKASPACE' ) );
#718 = ORIENTED_EDGE ( 'NONE', *, *, #727, .T. ) ;
#719 = PRESENTATION_STYLE_ASSIGNMENT (( #391 ) ) ;
#720 = EDGE_CURVE ( 'NONE', #993, #972, #309, .T. ) ;
#721 = DIRECTION ( 'NONE',  ( -0.000000000000000000, -0.000000000000000000, -1.000000000000000000 ) ) ;
#722 = VERTEX_POINT ( 'NONE', #683 ) ;
#723 = PLANE ( 'NONE',  #865 ) ;
#724 = ORIENTED_EDGE ( 'NONE', *, *, #593, .T. ) ;
#725 = DIRECTION ( 'NONE',  ( 0.1736481776669314414, -0.000000000000000000, 0.9848077530122079093 ) ) ;
#726 = PLANE ( 'NONE',  #794 ) ;
#727 = EDGE_CURVE ( 'NONE', #86, #396, #424, .T. ) ;
#728 = ORIENTED_EDGE ( 'NONE', *, *, #823, .T. ) ;
#729 = DIRECTION ( 'NONE',  ( 1.000000000000000000, 0.000000000000000000, 0.000000000000000000 ) ) ;
#730 = EDGE_LOOP ( 'NONE', ( #123, #736, #544, #686 ) ) ;
#731 = CARTESIAN_POINT ( 'NONE',  ( 67.98843429916313141, 103.3199999999999932, 12.16675101827103767 ) ) ;
#732 = DIRECTION ( 'NONE',  ( 1.000000000000000000, 0.000000000000000000, 0.000000000000000000 ) ) ;
#733 = VERTEX_POINT ( 'NONE', #1001 ) ;
#734 = ADVANCED_FACE ( 'NONE', ( #744 ), #256, .F. ) ;
#735 = CARTESIAN_POINT ( 'NONE',  ( 54.14344616525573883, 140.6700000000000443, 9.725506062674606156 ) ) ;
#736 = ORIENTED_EDGE ( 'NONE', *, *, #83, .F. ) ;
#737 = CIRCLE ( 'NONE', #258, 2.574999999999985523 ) ;
#738 = SURFACE_SIDE_STYLE ('',( #58 ) ) ;
#739 = CARTESIAN_POINT ( 'NONE',  ( 12.69999999999999574, 5.000000000000006217, 0.000000000000000000 ) ) ;
#740 = VERTEX_POINT ( 'NONE', #843 ) ;
#741 = DIRECTION ( 'NONE',  ( -0.9848077530122080203, 0.000000000000000000, -0.1736481776669308030 ) ) ;
#742 = EDGE_CURVE ( 'NONE', #1075, #582, #174, .T. ) ;
#743 = ORIENTED_EDGE ( 'NONE', *, *, #636, .T. ) ;
#744 = FACE_OUTER_BOUND ( 'NONE', #621, .T. ) ;
#745 = DIRECTION ( 'NONE',  ( 0.9848077530122079093, 0.000000000000000000, -0.1736481776669314692 ) ) ;
#746 = DIRECTION ( 'NONE',  ( 0.000000000000000000, 0.000000000000000000, 1.000000000000000000 ) ) ;
#747 = SHAPE_DEFINITION_REPRESENTATION ( #884, #234 ) ;
#748 = ORIENTED_EDGE ( 'NONE', *, *, #873, .F. ) ;
#749 = FACE_BOUND ( 'NONE', #1082, .T. ) ;
#750 = DIRECTION ( 'NONE',  ( -1.000000000000000000, -6.223223232203783114E-16, 0.000000000000000000 ) ) ;
#751 = DIRECTION ( 'NONE',  ( -0.000000000000000000, -0.000000000000000000, 1.000000000000000000 ) ) ;
#752 = ORIENTED_EDGE ( 'NONE', *, *, #839, .T. ) ;
#753 = LINE ( 'NONE', #179, #773 ) ;
#754 = AXIS2_PLACEMENT_3D ( 'NONE', #547, #386, #227 ) ;
#755 = AXIS2_PLACEMENT_3D ( 'NONE', #428, #22, #183 ) ;
#756 = DIRECTION ( 'NONE',  ( -1.000000000000000000, -3.693758853222004255E-16, 0.000000000000000000 ) ) ;
#757 = EDGE_CURVE ( 'NONE', #660, #479, #1025, .T. ) ;
#758 = DIRECTION ( 'NONE',  ( -1.000000000000000000, 0.000000000000000000, 0.000000000000000000 ) ) ;
#759 = DIRECTION ( 'NONE',  ( -0.1736481776669323851, 0.000000000000000000, 0.9848077530122075762 ) ) ;
#760 = VERTEX_POINT ( 'NONE', #413 ) ;
#761 = DIRECTION ( 'NONE',  ( 0.000000000000000000, 0.000000000000000000, -1.000000000000000000 ) ) ;
#762 = CARTESIAN_POINT ( 'NONE',  ( 3.265000000000001013, 12.69999999999999929, 6.349999999999999645 ) ) ;
#763 = ADVANCED_FACE ( 'NONE', ( #1008 ), #332, .F. ) ;
#764 = DIRECTION ( 'NONE',  ( 0.000000000000000000, -0.000000000000000000, -1.000000000000000000 ) ) ;
#765 = ORIENTED_EDGE ( 'NONE', *, *, #776, .T. ) ;
#766 = CARTESIAN_POINT ( 'NONE',  ( -35.00000000000001421, 154.1200000000000045, 6.349999999999999645 ) ) ;
#767 = FACE_OUTER_BOUND ( 'NONE', #645, .T. ) ;
#768 = VERTEX_POINT ( 'NONE', #661 ) ;
#769 = ADVANCED_FACE ( 'NONE', ( #749, #95, #324 ), #939, .T. ) ;
#770 = CARTESIAN_POINT ( 'NONE',  ( -70.85608349263868888, 103.3199999999999932, -4.096495717728240393 ) ) ;
#771 = LINE ( 'NONE', #165, #430 ) ;
#772 = AXIS2_PLACEMENT_3D ( 'NONE', #1031, #266, #603 ) ;
#773 = VECTOR ( 'NONE', #239, 1000.000000000000000 ) ;
#774 = AXIS2_PLACEMENT_3D ( 'NONE', #93, #1006, #741 ) ;
#775 = ORIENTED_EDGE ( 'NONE', *, *, #408, .F. ) ;
#776 = EDGE_CURVE ( 'NONE', #760, #267, #923, .T. ) ;
#777 = CYLINDRICAL_SURFACE ( 'NONE', #346, 5.000000000000000888 ) ;
#778 = CARTESIAN_POINT ( 'NONE',  ( 17.69999999999996376, 98.31999999999999318, 6.349999999999999645 ) ) ;
#779 = VERTEX_POINT ( 'NONE', #499 ) ;
#780 = LINE ( 'NONE', #36, #522 ) ;
#781 = ADVANCED_FACE ( 'NONE', ( #88 ), #82, .F. ) ;
#782 = LINE ( 'NONE', #354, #863 ) ;
#783 = EDGE_CURVE ( 'NONE', #435, #201, #928, .T. ) ;
#784 = ORIENTED_EDGE ( 'NONE', *, *, #529, .T. ) ;
#785 = CARTESIAN_POINT ( 'NONE',  ( 35.00000000000000711, 4.780733988912462111E-15, 6.349999999999999645 ) ) ;
#786 = ORIENTED_EDGE ( 'NONE', *, *, #818, .F. ) ;
#787 = CARTESIAN_POINT ( 'NONE',  ( -93.00255122567348565, 103.3199999999999932, 16.57741473101114593 ) ) ;
#788 = EDGE_CURVE ( 'NONE', #733, #163, #200, .T. ) ;
#789 = AXIS2_PLACEMENT_3D ( 'NONE', #434, #1034, #113 ) ;
#790 = AXIS2_PLACEMENT_3D ( 'NONE', #672, #251, #589 ) ;
#791 = ORIENTED_EDGE ( 'NONE', *, *, #952, .F. ) ;
#792 = FACE_OUTER_BOUND ( 'NONE', #445, .T. ) ;
#793 = CARTESIAN_POINT ( 'NONE',  ( 17.69999999999996021, 103.3199999999999932, 6.349999999999999645 ) ) ;
#794 = AXIS2_PLACEMENT_3D ( 'NONE', #387, #561, #152 ) ;
#795 = VERTEX_POINT ( 'NONE', #196 ) ;
#796 = DIRECTION ( 'NONE',  ( -0.1736481776669313859, -0.000000000000000000, -0.9848077530122080203 ) ) ;
#797 = ORIENTED_EDGE ( 'NONE', *, *, #801, .T. ) ;
#798 = CARTESIAN_POINT ( 'NONE',  ( -35.00000000000000711, 103.3199999999999932, 6.349999999999999645 ) ) ;
#799 = CARTESIAN_POINT ( 'NONE',  ( 70.85608349263868888, 103.3199999999999932, -4.096495717728240393 ) ) ;
#800 = CARTESIAN_POINT ( 'NONE',  ( 12.69999999999996199, 98.31999999999999318, 6.349999999999999645 ) ) ;
#801 = EDGE_CURVE ( 'NONE', #205, #882, #611, .T. ) ;
#802 = ORIENTED_EDGE ( 'NONE', *, *, #757, .T. ) ;
#803 = PLANE ( 'NONE',  #715 ) ;
#804 = DIRECTION ( 'NONE',  ( -0.000000000000000000, 0.000000000000000000, 1.000000000000000000 ) ) ;
#805 = AXIS2_PLACEMENT_3D ( 'NONE', #874, #198, #124 ) ;
#806 = ORIENTED_EDGE ( 'NONE', *, *, #40, .T. ) ;
#807 = AXIS2_PLACEMENT_3D ( 'NONE', #493, #599, #1086 ) ;
#808 = CARTESIAN_POINT ( 'NONE',  ( -12.69999999999999751, 5.000000000000000888, 6.349999999999999645 ) ) ;
#809 = ORIENTED_EDGE ( 'NONE', *, *, #693, .F. ) ;
#810 = EDGE_CURVE ( 'NONE', #293, #370, #691, .T. ) ;
#811 = DIRECTION ( 'NONE',  ( -0.000000000000000000, 0.000000000000000000, 1.000000000000000000 ) ) ;
#812 = CARTESIAN_POINT ( 'NONE',  ( 95.87020041914907154, 128.7199999999999989, 0.3141679950118720921 ) ) ;
#813 = VERTEX_POINT ( 'NONE', #525 ) ;
#814 = CARTESIAN_POINT ( 'NONE',  ( 50.15760019230186373, 140.6700000000000443, 2.672693876694648640 ) ) ;
#815 = EDGE_LOOP ( 'NONE', ( #199, #172, #281, #114 ) ) ;
#816 = DIRECTION ( 'NONE',  ( -0.9848077530122077983, 0.000000000000000000, -0.1736481776669314414 ) ) ;
#817 = CARTESIAN_POINT ( 'NONE',  ( -81.63625081813120232, 140.6700000000000443, 18.37749541718125101 ) ) ;
#818 = EDGE_CURVE ( 'NONE', #299, #293, #108, .T. ) ;
#819 = ORIENTED_EDGE ( 'NONE', *, *, #421, .T. ) ;
#820 = PLANE ( 'NONE',  #848 ) ;
#821 = ORIENTED_EDGE ( 'NONE', *, *, #996, .T. ) ;
#822 = DIRECTION ( 'NONE',  ( -0.9848077530122079093, 0.000000000000000000, -0.1736481776669311639 ) ) ;
#823 = EDGE_CURVE ( 'NONE', #549, #901, #136, .T. ) ;
#824 = ORIENTED_EDGE ( 'NONE', *, *, #101, .T. ) ;
#825 = LINE ( 'NONE', #401, #630 ) ;
#826 = ORIENTED_EDGE ( 'NONE', *, *, #197, .F. ) ;
#827 = CIRCLE ( 'NONE', #360, 5.000000000000000888 ) ;
#828 = VECTOR ( 'NONE', #953, 1000.000000000000000 ) ;
#829 = DIRECTION ( 'NONE',  ( -0.1736481776669313859, 0.000000000000000000, -0.9848077530122079093 ) ) ;
#830 = DIRECTION ( 'NONE',  ( 0.000000000000000000, 0.000000000000000000, -1.000000000000000000 ) ) ;
#831 = VECTOR ( 'NONE', #416, 1000.000000000000114 ) ;
#832 = CARTESIAN_POINT ( 'NONE',  ( -17.69999999999999574, 98.31999999999999318, 6.349999999999999645 ) ) ;
#833 = DIRECTION ( 'NONE',  ( 1.000000000000000000, 0.000000000000000000, 0.000000000000000000 ) ) ;
#834 = ORIENTED_EDGE ( 'NONE', *, *, #921, .T. ) ;
#835 = CARTESIAN_POINT ( 'NONE',  ( 0.000000000000000000, 103.3199999999999932, 6.349999999999999645 ) ) ;
#836 = PLANE ( 'NONE',  #983 ) ;
#837 = FACE_OUTER_BOUND ( 'NONE', #463, .T. ) ;
#838 = ORIENTED_EDGE ( 'NONE', *, *, #566, .T. ) ;
#839 = EDGE_CURVE ( 'NONE', #299, #740, #780, .T. ) ;
#840 = CARTESIAN_POINT ( 'NONE',  ( 51.60756620124930549, 140.6700000000000443, 9.278362005182259509 ) ) ;
#841 = CARTESIAN_POINT ( 'NONE',  ( 3.265000000000001013, 12.69999999999999929, 0.000000000000000000 ) ) ;
#842 = EDGE_LOOP ( 'NONE', ( #182, #610, #1057, #159 ) ) ;
#843 = CARTESIAN_POINT ( 'NONE',  ( -94.08846518073249854, 154.1200000000000045, 10.41889066001588482 ) ) ;
#844 = AXIS2_PLACEMENT_3D ( 'NONE', #439, #1045, #963 ) ;
#845 = EDGE_CURVE ( 'NONE', #1007, #111, #273, .T. ) ;
#846 = AXIS2_PLACEMENT_3D ( 'NONE', #265, #519, #352 ) ;
#847 = CARTESIAN_POINT ( 'NONE',  ( -12.69999999999999751, 98.31999999999999318, 0.000000000000000000 ) ) ;
#848 = AXIS2_PLACEMENT_3D ( 'NONE', #384, #973, #138 ) ;
#849 = CARTESIAN_POINT ( 'NONE',  ( 88.44449252281334850, 140.6700000000000443, 9.423706002043862995 ) ) ;
#850 = VECTOR ( 'NONE', #1101, 1000.000000000000000 ) ;
#851 = EDGE_LOOP ( 'NONE', ( #690, #121, #809, #11, #802, #1065 ) ) ;
#852 = DIRECTION ( 'NONE',  ( -0.1736481776669313859, -0.000000000000000000, -0.9848077530122080203 ) ) ;
#853 = DIRECTION ( 'NONE',  ( -0.1736481776669314692, 0.000000000000000000, -0.9848077530122079093 ) ) ;
#854 = EDGE_CURVE ( 'NONE', #582, #94, #935, .T. ) ;
#855 = EDGE_LOOP ( 'NONE', ( #305, #223, #77, #974 ) ) ;
#856 = DIRECTION ( 'NONE',  ( 0.9848077530122079093, 0.000000000000000000, -0.1736481776669311639 ) ) ;
#857 = CARTESIAN_POINT ( 'NONE',  ( -94.08846518073249854, 41.95015890049428009, 10.41889066001588482 ) ) ;
#858 = ADVANCED_FACE ( 'NONE', ( #191 ), #777, .F. ) ;
#859 = EDGE_LOOP ( 'NONE', ( #49, #51, #743, #838, #471, #523, #225, #927, #1069, #988, #39, #532 ) ) ;
#860 = CARTESIAN_POINT ( 'NONE',  ( -52.69348015630830417, 140.6700000000000443, 3.119837934186997952 ) ) ;
#861 = AXIS2_PLACEMENT_3D ( 'NONE', #232, #485, #816 ) ;
#862 = LINE ( 'NONE', #520, #916 ) ;
#863 = VECTOR ( 'NONE', #692, 1000.000000000000000 ) ;
#864 = VECTOR ( 'NONE', #78, 1000.000000000000000 ) ;
#865 = AXIS2_PLACEMENT_3D ( 'NONE', #122, #1064, #211 ) ;
#866 = ORIENTED_EDGE ( 'NONE', *, *, #572, .T. ) ;
#867 = DIRECTION ( 'NONE',  ( 0.000000000000000000, 0.000000000000000000, 1.000000000000000000 ) ) ;
#868 = VERTEX_POINT ( 'NONE', #872 ) ;
#869 = CLOSED_SHELL ( 'NONE', ( #624, #734, #1068, #185, #120, #497, #25, #1024, #892, #1048, #226, #192, #68, #781, #289, #209, #556, #233, #458, #688, #296, #414, #858, #643, #393, #769, #1010, #444, #148, #940, #763, #964 ) ) ;
#870 = CARTESIAN_POINT ( 'NONE',  ( 95.87020041914907154, 128.7199999999999989, 0.3141679950118720921 ) ) ;
#871 = ORIENTED_EDGE ( 'NONE', *, *, #655, .T. ) ;
#872 = CARTESIAN_POINT ( 'NONE',  ( -82.28681863974151156, 140.6700000000000443, 14.68794195805443614 ) ) ;
#873 = EDGE_CURVE ( 'NONE', #163, #1071, #1039, .T. ) ;
#874 = CARTESIAN_POINT ( 'NONE',  ( 0.000000000000000000, 128.7199999999999989, 6.349999999999999645 ) ) ;
#875 = ORIENTED_EDGE ( 'NONE', *, *, #543, .F. ) ;
#876 = CARTESIAN_POINT ( 'NONE',  ( 93.00255122567348565, 154.1200000000000045, 16.57741473101114593 ) ) ;
#877 = CARTESIAN_POINT ( 'NONE',  ( 0.000000000000000000, 128.7199999999999989, 6.349999999999999645 ) ) ;
#878 = VECTOR ( 'NONE', #169, 1000.000000000000000 ) ;
#879 = AXIS2_PLACEMENT_3D ( 'NONE', #881, #796, #644 ) ;
#880 = ORIENTED_EDGE ( 'NONE', *, *, #341, .T. ) ;
#881 = CARTESIAN_POINT ( 'NONE',  ( -84.17213078213761435, 140.6700000000000443, 18.82463947467359588 ) ) ;
#882 = VERTEX_POINT ( 'NONE', #622 ) ;
#883 = FACE_OUTER_BOUND ( 'NONE', #612, .T. ) ;
#884 = PRODUCT_DEFINITION_SHAPE ( 'NONE', 'NONE',  #400 ) ;
#885 = EDGE_CURVE ( 'NONE', #894, #34, #448, .T. ) ;
#886 = CARTESIAN_POINT ( 'NONE',  ( -17.69999999999999574, 103.3199999999999932, 6.349999999999999645 ) ) ;
#887 = CARTESIAN_POINT ( 'NONE',  ( 21.81842646915065131, 55.33507945024761199, -2.324267061681303037 ) ) ;
#888 = ORIENTED_EDGE ( 'NONE', *, *, #885, .F. ) ;
#889 = CYLINDRICAL_SURFACE ( 'NONE', #103, 2.574999999999985079 ) ;
#890 = CARTESIAN_POINT ( 'NONE',  ( -88.44449252281334850, 140.6700000000000443, 9.423706002043862995 ) ) ;
#891 = ORIENTED_EDGE ( 'NONE', *, *, #742, .T. ) ;
#892 = ADVANCED_FACE ( 'NONE', ( #606 ), #188, .F. ) ;
#893 = CARTESIAN_POINT ( 'NONE',  ( -54.14344616525573883, 140.6700000000000443, 9.725506062674606156 ) ) ;
#894 = VERTEX_POINT ( 'NONE', #268 ) ;
#895 = FILL_AREA_STYLE ('',( #631 ) ) ;
#896 = LINE ( 'NONE', #487, #171 ) ;
#897 = CIRCLE ( 'NONE', #844, 2.574999999999985523 ) ;
#898 = EDGE_LOOP ( 'NONE', ( #786, #752, #21, #718, #866 ) ) ;
#899 = AXIS2_PLACEMENT_3D ( 'NONE', #932, #576, #168 ) ;
#900 = CARTESIAN_POINT ( 'NONE',  ( 17.40000000000001279, 128.7199999999999989, 6.349999999999999645 ) ) ;
#901 = VERTEX_POINT ( 'NONE', #361 ) ;
#902 = CARTESIAN_POINT ( 'NONE',  ( -84.17213078213761435, 140.6700000000000443, 18.82463947467359588 ) ) ;
#903 = CARTESIAN_POINT ( 'NONE',  ( -48.42111841563255581, 140.6700000000000443, 12.52077140681672951 ) ) ;
#904 = VECTOR ( 'NONE', #214, 1000.000000000000000 ) ;
#905 = ORIENTED_EDGE ( 'NONE', *, *, #885, .T. ) ;
#906 = FACE_OUTER_BOUND ( 'NONE', #26, .T. ) ;
#907 = ORIENTED_EDGE ( 'NONE', *, *, #270, .F. ) ;
#908 = EDGE_CURVE ( 'NONE', #116, #962, #432, .T. ) ;
#909 = CARTESIAN_POINT ( 'NONE',  ( 0.000000000000000000, 103.3199999999999932, 6.349999999999999645 ) ) ;
#910 = ORIENTED_EDGE ( 'NONE', *, *, #6, .F. ) ;
#911 = ORIENTED_EDGE ( 'NONE', *, *, #372, .T. ) ;
#912 = CARTESIAN_POINT ( 'NONE',  ( -95.87020041914907154, 128.7199999999999989, 0.3141679950118720921 ) ) ;
#913 = CARTESIAN_POINT ( 'NONE',  ( -3.265000000000001013, 12.69999999999999929, 0.000000000000000000 ) ) ;
#914 = LINE ( 'NONE', #1093, #850 ) ;
#915 = ORIENTED_EDGE ( 'NONE', *, *, #254, .F. ) ;
#916 = VECTOR ( 'NONE', #705, 1000.000000000000000 ) ;
#917 = AXIS2_PLACEMENT_3D ( 'NONE', #942, #1030, #945 ) ;
#918 = DIRECTION ( 'NONE',  ( -0.9848077530122079093, 0.000000000000000000, -0.1736481776669311639 ) ) ;
#919 = LINE ( 'NONE', #410, #1005 ) ;
#920 = FACE_OUTER_BOUND ( 'NONE', #460, .T. ) ;
#921 = EDGE_CURVE ( 'NONE', #518, #626, #115, .T. ) ;
#922 = ORIENTED_EDGE ( 'NONE', *, *, #535, .F. ) ;
#923 = LINE ( 'NONE', #583, #381 ) ;
#924 = DIRECTION ( 'NONE',  ( 0.000000000000000000, 0.000000000000000000, -1.000000000000000000 ) ) ;
#925 = DIRECTION ( 'NONE',  ( 1.000000000000000000, 0.000000000000000000, 0.000000000000000000 ) ) ;
#926 = EDGE_CURVE ( 'NONE', #435, #355, #104, .T. ) ;
#927 = ORIENTED_EDGE ( 'NONE', *, *, #1091, .T. ) ;
#928 = LINE ( 'NONE', #418, #629 ) ;
#929 = DIRECTION ( 'NONE',  ( 0.1736481776669314692, 0.000000000000000000, -0.9848077530122079093 ) ) ;
#930 = CARTESIAN_POINT ( 'NONE',  ( 51.60756620124930549, 140.6700000000000443, 9.278362005182259509 ) ) ;
#931 = ORIENTED_EDGE ( 'NONE', *, *, #312, .T. ) ;
#932 = CARTESIAN_POINT ( 'NONE',  ( -50.95699837963898915, 140.6700000000000443, 12.96791546430907793 ) ) ;
#933 = AXIS2_PLACEMENT_3D ( 'NONE', #877, #625, #526 ) ;
#934 = EDGE_CURVE ( 'NONE', #665, #1007, #433, .T. ) ;
#935 = CIRCLE ( 'NONE', #755, 5.000000000000000000 ) ;
#936 = CARTESIAN_POINT ( 'NONE',  ( -51.60756620124930549, 140.6700000000000443, 9.278362005182259509 ) ) ;
#937 = ORIENTED_EDGE ( 'NONE', *, *, #372, .F. ) ;
#938 = VECTOR ( 'NONE', #982, 1000.000000000000000 ) ;
#939 = PLANE ( 'NONE',  #966 ) ;
#940 = ADVANCED_FACE ( 'NONE', ( #792 ), #349, .F. ) ;
#941 = EDGE_LOOP ( 'NONE', ( #528, #245, #1046, #67, #167 ) ) ;
#942 = CARTESIAN_POINT ( 'NONE',  ( -85.90861255880692227, 140.6700000000000443, 8.976561944551518124 ) ) ;
#943 = DIRECTION ( 'NONE',  ( 0.9848077530122077983, 0.000000000000000000, -0.1736481776669314414 ) ) ;
#944 = ORIENTED_EDGE ( 'NONE', *, *, #529, .F. ) ;
#945 = DIRECTION ( 'NONE',  ( 0.9848077530122077983, 0.000000000000000000, -0.1736481776669314414 ) ) ;
#946 = ORIENTED_EDGE ( 'NONE', *, *, #1085, .F. ) ;
#947 = CIRCLE ( 'NONE', #537, 5.000000000000000000 ) ;
#948 = CARTESIAN_POINT ( 'NONE',  ( -7.699999999999997513, 5.000000000000000888, 6.349999999999999645 ) ) ;
#949 = VECTOR ( 'NONE', #1019, 1000.000000000000000 ) ;
#950 = AXIS2_PLACEMENT_3D ( 'NONE', #491, #7, #833 ) ;
#951 = EDGE_LOOP ( 'NONE', ( #132, #55 ) ) ;
#952 = EDGE_CURVE ( 'NONE', #94, #768, #1052, .T. ) ;
#953 = DIRECTION ( 'NONE',  ( 1.365923996832131609E-16, -1.000000000000000000, 0.000000000000000000 ) ) ;
#954 = ORIENTED_EDGE ( 'NONE', *, *, #76, .T. ) ;
#955 = FACE_OUTER_BOUND ( 'NONE', #859, .T. ) ;
#956 = ORIENTED_EDGE ( 'NONE', *, *, #33, .T. ) ;
#957 = EDGE_CURVE ( 'NONE', #779, #518, #1076, .T. ) ;
#958 = DIRECTION ( 'NONE',  ( 1.000000000000000000, 0.000000000000000000, 0.000000000000000000 ) ) ;
#959 = CARTESIAN_POINT ( 'NONE',  ( 93.00255122567348565, 128.7199999999999989, 16.57741473101114593 ) ) ;
#960 = VERTEX_POINT ( 'NONE', #230 ) ;
#961 = DIRECTION ( 'NONE',  ( 1.000000000000000000, 0.000000000000000000, 0.000000000000000000 ) ) ;
#962 = VERTEX_POINT ( 'NONE', #376 ) ;
#963 = DIRECTION ( 'NONE',  ( 0.9848077530122077983, 0.000000000000000000, -0.1736481776669314414 ) ) ;
#964 = ADVANCED_FACE ( 'NONE', ( #994 ), #206, .F. ) ;
#965 = VECTOR ( 'NONE', #1079, 1000.000000000000000 ) ;
#966 = AXIS2_PLACEMENT_3D ( 'NONE', #9, #666, #246 ) ;
#967 = ORIENTED_EDGE ( 'NONE', *, *, #839, .F. ) ;
#968 = FACE_BOUND ( 'NONE', #144, .T. ) ;
#969 = ORIENTED_EDGE ( 'NONE', *, *, #1041, .T. ) ;
#970 = VECTOR ( 'NONE', #674, 1000.000000000000114 ) ;
#971 = EDGE_CURVE ( 'NONE', #271, #960, #260, .T. ) ;
#972 = VERTEX_POINT ( 'NONE', #735 ) ;
#973 = DIRECTION ( 'NONE',  ( 0.6963642403200149822, 0.7071067811865514585, -0.1227878039689729306 ) ) ;
#974 = ORIENTED_EDGE ( 'NONE', *, *, #19, .F. ) ;
#975 = LINE ( 'NONE', #294, #965 ) ;
#976 = DIRECTION ( 'NONE',  ( 0.000000000000000000, -0.000000000000000000, -1.000000000000000000 ) ) ;
#977 = ORIENTED_EDGE ( 'NONE', *, *, #341, .F. ) ;
#978 = EDGE_CURVE ( 'NONE', #710, #1007, #555, .T. ) ;
#979 = CARTESIAN_POINT ( 'NONE',  ( 93.00255122567348565, 41.95015890049428009, 16.57741473101114593 ) ) ;
#980 = ORIENTED_EDGE ( 'NONE', *, *, #33, .F. ) ;
#981 = DIRECTION ( 'NONE',  ( -0.9848077530122080203, 0.000000000000000000, 0.1736481776669308030 ) ) ;
#982 = DIRECTION ( 'NONE',  ( -0.000000000000000000, -0.000000000000000000, -1.000000000000000000 ) ) ;
#983 = AXIS2_PLACEMENT_3D ( 'NONE', #857, #578, #99 ) ;
#984 = ORIENTED_EDGE ( 'NONE', *, *, #700, .F. ) ;
#985 = CIRCLE ( 'NONE', #119, 2.574999999999999734 ) ;
#986 = DIRECTION ( 'NONE',  ( 0.1736481776669323851, 0.000000000000000000, 0.9848077530122075762 ) ) ;
#987 = EDGE_CURVE ( 'NONE', #551, #212, #472, .T. ) ;
#988 = ORIENTED_EDGE ( 'NONE', *, *, #140, .T. ) ;
#989 =( LENGTH_UNIT ( ) NAMED_UNIT ( * ) SI_UNIT ( .MILLI., .METRE. ) );
#990 = AXIS2_PLACEMENT_3D ( 'NONE', #658, #758, #746 ) ;
#991 = FACE_BOUND ( 'NONE', #465, .T. ) ;
#992 = CIRCLE ( 'NONE', #1081, 5.000000000000000888 ) ;
#993 = VERTEX_POINT ( 'NONE', #41 ) ;
#994 = FACE_OUTER_BOUND ( 'NONE', #651, .T. ) ;
#995 = ORIENTED_EDGE ( 'NONE', *, *, #60, .T. ) ;
#996 = EDGE_CURVE ( 'NONE', #733, #868, #173, .T. ) ;
#997 = CARTESIAN_POINT ( 'NONE',  ( -35.00000000000001421, 41.95015890049428009, 0.000000000000000000 ) ) ;
#998 = DIRECTION ( 'NONE',  ( 0.000000000000000000, -1.000000000000000000, 0.000000000000000000 ) ) ;
#999 = DIRECTION ( 'NONE',  ( -0.9848077530122079093, 0.000000000000000000, -0.1736481776669311639 ) ) ;
#1000 = VERTEX_POINT ( 'NONE', #900 ) ;
#1001 = CARTESIAN_POINT ( 'NONE',  ( -87.35857856775434982, 140.6700000000000443, 15.58223007303912588 ) ) ;
#1002 = PLANE ( 'NONE',  #315 ) ;
#1003 = EDGE_CURVE ( 'NONE', #972, #375, #459, .T. ) ;
#1004 = DIRECTION ( 'NONE',  ( -0.000000000000000000, -0.000000000000000000, -1.000000000000000000 ) ) ;
#1005 = VECTOR ( 'NONE', #750, 1000.000000000000000 ) ;
#1006 = DIRECTION ( 'NONE',  ( 0.1736481776669313859, -0.000000000000000000, -0.9848077530122080203 ) ) ;
#1007 = VERTEX_POINT ( 'NONE', #478 ) ;
#1008 = FACE_OUTER_BOUND ( 'NONE', #340, .T. ) ;
#1009 = CARTESIAN_POINT ( 'NONE',  ( -12.69999999999999751, 98.31999999999999318, 0.000000000000000000 ) ) ;
#1010 = ADVANCED_FACE ( 'NONE', ( #464 ), #820, .F. ) ;
#1011 = PLANE ( 'NONE',  #73 ) ;
#1012 = EDGE_LOOP ( 'NONE', ( #383, #671 ) ) ;
#1013 = CARTESIAN_POINT ( 'NONE',  ( -50.95699837963898915, 140.6700000000000443, 12.96791546430907793 ) ) ;
#1014 = LINE ( 'NONE', #252, #1074 ) ;
#1015 = CARTESIAN_POINT ( 'NONE',  ( -12.69999999999999751, 0.000000000000000000, 6.349999999999999645 ) ) ;
#1016 = CARTESIAN_POINT ( 'NONE',  ( -7.699999999999996625, 9.184850993605147944E-16, 6.349999999999999645 ) ) ;
#1017 = EDGE_LOOP ( 'NONE', ( #888, #642 ) ) ;
#1018 = EDGE_CURVE ( 'NONE', #882, #626, #311, .T. ) ;
#1019 = DIRECTION ( 'NONE',  ( 1.365923996832131116E-16, -1.000000000000000000, 0.000000000000000000 ) ) ;
#1020 = DIRECTION ( 'NONE',  ( 0.1736481776669313581, -0.000000000000000000, -0.9848077530122079093 ) ) ;
#1021 = CARTESIAN_POINT ( 'NONE',  ( 81.63625081813120232, 140.6700000000000443, 18.37749541718125101 ) ) ;
#1022 = APPLICATION_PROTOCOL_DEFINITION ( 'draft international standard', 'automotive_design', 1998, #482 ) ;
#1023 = ORIENTED_EDGE ( 'NONE', *, *, #254, .T. ) ;
#1024 = ADVANCED_FACE ( 'NONE', ( #50, #968, #56 ), #723, .F. ) ;
#1025 = LINE ( 'NONE', #835, #864 ) ;
#1026 = CIRCLE ( 'NONE', #446, 5.000000000000000888 ) ;
#1027 = STYLED_ITEM ( 'NONE', ( #719 ), #659 ) ;
#1028 = CARTESIAN_POINT ( 'NONE',  ( 17.69999999999996376, 98.31999999999999318, 6.349999999999999645 ) ) ;
#1029 = ORIENTED_EDGE ( 'NONE', *, *, #490, .F. ) ;
#1030 = DIRECTION ( 'NONE',  ( 0.1736481776669313859, -0.000000000000000000, 0.9848077530122079093 ) ) ;
#1031 = CARTESIAN_POINT ( 'NONE',  ( 0.000000000000000000, 12.69999999999999929, 6.349999999999999645 ) ) ;
#1032 = ORIENTED_EDGE ( 'NONE', *, *, #921, .F. ) ;
#1033 = DIRECTION ( 'NONE',  ( 0.000000000000000000, 1.000000000000000000, 0.000000000000000000 ) ) ;
#1034 = DIRECTION ( 'NONE',  ( -0.000000000000000000, 0.000000000000000000, 1.000000000000000000 ) ) ;
#1035 = VERTEX_POINT ( 'NONE', #814 ) ;
#1036 = DIRECTION ( 'NONE',  ( 0.6963642403200226427, -0.7071067811865435759, -0.1227878039689742767 ) ) ;
#1037 = CIRCLE ( 'NONE', #558, 5.000000000000000000 ) ;
#1038 = CARTESIAN_POINT ( 'NONE',  ( 12.69999999999999574, 5.000000000000006217, 6.349999999999999645 ) ) ;
#1039 = CIRCLE ( 'NONE', #917, 2.574999999999985523 ) ;
#1040 = PRODUCT_DEFINITION_FORMATION_WITH_SPECIFIED_SOURCE ( 'ANY', '', #516, .NOT_KNOWN. ) ;
#1041 = EDGE_CURVE ( 'NONE', #1096, #813, #371, .T. ) ;
#1042 = VERTEX_POINT ( 'NONE', #893 ) ;
#1043 = CARTESIAN_POINT ( 'NONE',  ( 12.69999999999999751, 4.691073743591945641E-15, 6.349999999999999645 ) ) ;
#1044 = CIRCLE ( 'NONE', #652, 3.265000000000001013 ) ;
#1045 = DIRECTION ( 'NONE',  ( -0.1736481776669314692, 0.000000000000000000, -0.9848077530122079093 ) ) ;
#1046 = ORIENTED_EDGE ( 'NONE', *, *, #303, .F. ) ;
#1047 = CARTESIAN_POINT ( 'NONE',  ( 85.90861255880692227, 140.6700000000000443, 8.976561944551518124 ) ) ;
#1048 = ADVANCED_FACE ( 'NONE', ( #638, #653, #395 ), #285, .F. ) ;
#1049 = ORIENTED_EDGE ( 'NONE', *, *, #757, .F. ) ;
#1050 = DIRECTION ( 'NONE',  ( -0.6963642403200226427, -0.7071067811865435759, -0.1227878039689743322 ) ) ;
#1051 = ORIENTED_EDGE ( 'NONE', *, *, #742, .F. ) ;
#1052 = LINE ( 'NONE', #808, #362 ) ;
#1053 = EDGE_CURVE ( 'NONE', #740, #267, #1070, .T. ) ;
#1054 = DIRECTION ( 'NONE',  ( -0.1736481776669313859, -0.000000000000000000, -0.9848077530122080203 ) ) ;
#1055 = VECTOR ( 'NONE', #456, 1000.000000000000000 ) ;
#1056 = VECTOR ( 'NONE', #594, 1000.000000000000000 ) ;
#1057 = ORIENTED_EDGE ( 'NONE', *, *, #588, .F. ) ;
#1058 = DIRECTION ( 'NONE',  ( 0.9848077530122077983, 0.000000000000000000, -0.1736481776669314414 ) ) ;
#1059 = EDGE_LOOP ( 'NONE', ( #264, #336, #57, #937 ) ) ;
#1060 =( NAMED_UNIT ( * ) PLANE_ANGLE_UNIT ( ) SI_UNIT ( $, .RADIAN. ) );
#1061 = PRODUCT_RELATED_PRODUCT_CATEGORY ( 'part', '', ( #516 ) ) ;
#1062 = LINE ( 'NONE', #404, #938 ) ;
#1063 = EDGE_LOOP ( 'NONE', ( #453, #891, #207, #353 ) ) ;
#1064 = DIRECTION ( 'NONE',  ( -0.1736481776669313859, 0.000000000000000000, 0.9848077530122079093 ) ) ;
#1065 = ORIENTED_EDGE ( 'NONE', *, *, #475, .F. ) ;
#1066 = CARTESIAN_POINT ( 'NONE',  ( -35.00000000000001421, 103.3199999999999932, 0.000000000000000000 ) ) ;
#1067 = LINE ( 'NONE', #481, #486 ) ;
#1068 = ADVANCED_FACE ( 'NONE', ( #906 ), #454, .F. ) ;
#1069 = ORIENTED_EDGE ( 'NONE', *, *, #379, .T. ) ;
#1070 = LINE ( 'NONE', #304, #348 ) ;
#1071 = VERTEX_POINT ( 'NONE', #1095 ) ;
#1072 = LINE ( 'NONE', #300, #378 ) ;
#1073 = FACE_OUTER_BOUND ( 'NONE', #319, .T. ) ;
#1074 = VECTOR ( 'NONE', #420, 1000.000000000000000 ) ;
#1075 = VERTEX_POINT ( 'NONE', #1016 ) ;
#1076 = CIRCLE ( 'NONE', #597, 5.000000000000000000 ) ;
#1077 = CARTESIAN_POINT ( 'NONE',  ( 53.49287834364542249, 140.6700000000000443, 13.41505952180142458 ) ) ;
#1078 = EDGE_LOOP ( 'NONE', ( #477, #587 ) ) ;
#1079 = DIRECTION ( 'NONE',  ( 0.000000000000000000, 1.000000000000000000, -0.000000000000000000 ) ) ;
#1080 = CARTESIAN_POINT ( 'NONE',  ( 0.000000000000000000, 128.7199999999999989, 6.349999999999999645 ) ) ;
#1081 = AXIS2_PLACEMENT_3D ( 'NONE', #411, #507, #925 ) ;
#1082 = EDGE_LOOP ( 'NONE', ( #821, #784 ) ) ;
#1083 = DIRECTION ( 'NONE',  ( -0.9848077530122079093, 0.000000000000000000, 0.1736481776669313859 ) ) ;
#1084 = VERTEX_POINT ( 'NONE', #335 ) ;
#1085 = EDGE_CURVE ( 'NONE', #813, #665, #664, .T. ) ;
#1086 = DIRECTION ( 'NONE',  ( 1.000000000000000000, 0.000000000000000000, 0.000000000000000000 ) ) ;
#1087 = DIRECTION ( 'NONE',  ( -0.9848077530122079093, 0.000000000000000000, -0.1736481776669311639 ) ) ;
#1088 = CARTESIAN_POINT ( 'NONE',  ( -50.27674510445820033, 85.33507945024761909, 9.043702339321955108 ) ) ;
#1089 = ORIENTED_EDGE ( 'NONE', *, *, #926, .F. ) ;
#1090 = FACE_OUTER_BOUND ( 'NONE', #127, .T. ) ;
#1091 = EDGE_CURVE ( 'NONE', #1096, #137, #676, .T. ) ;
#1092 = CARTESIAN_POINT ( 'NONE',  ( -69.07434825422213009, 103.3199999999999932, 6.008226947275775665 ) ) ;
#1093 = CARTESIAN_POINT ( 'NONE',  ( 93.00255122567348565, 103.3199999999999932, 16.57741473101114593 ) ) ;
#1094 = CIRCLE ( 'NONE', #344, 3.265000000000001013 ) ;
#1095 = CARTESIAN_POINT ( 'NONE',  ( -83.37273259480051024, 140.6700000000000443, 8.529417887059173253 ) ) ;
#1096 = VERTEX_POINT ( 'NONE', #157 ) ;
#1097 = CARTESIAN_POINT ( 'NONE',  ( 17.40000000000001279, 128.7199999999999989, 6.349999999999999645 ) ) ;
#1098 = DIRECTION ( 'NONE',  ( 3.693758853222004255E-16, -1.000000000000000000, 0.000000000000000000 ) ) ;
#1099 = EDGE_CURVE ( 'NONE', #86, #740, #825, .T. ) ;
#1100 = AXIS2_PLACEMENT_3D ( 'NONE', #253, #573, #663 ) ;
#1101 = DIRECTION ( 'NONE',  ( -0.9848077530122079093, 0.000000000000000000, -0.1736481776669314692 ) ) ;
ENDSEC;
END-ISO-10303-21;
