ISO-10303-21;
HEADER;
FILE_DESCRIPTION (( 'STEP AP214' ),
    '1' );
FILE_NAME ('Swivel_Housing_Cap.STEP',
    '2026-06-26T06:45:27',
    ( '' ),
    ( '' ),
    'SwSTEP 2.0',
    'SolidWorks 2025',
    '' );
FILE_SCHEMA (( 'AUTOMOTIVE_DESIGN' ));
ENDSEC;

DATA;
#1 = AXIS2_PLACEMENT_3D ( 'NONE', #777, #506, #849 ) ;
#2 = DIRECTION ( 'NONE',  ( -0.000000000000000000, 1.000000000000000000, -0.000000000000000000 ) ) ;
#3 = ORIENTED_EDGE ( 'NONE', *, *, #734, .F. ) ;
#4 = ADVANCED_FACE ( 'NONE', ( #458 ), #620, .T. ) ;
#5 = CARTESIAN_POINT ( 'NONE',  ( 0.000000000000000000, 22.50000000000000000, 0.000000000000000000 ) ) ;
#6 = ORIENTED_EDGE ( 'NONE', *, *, #128, .T. ) ;
#7 = DIRECTION ( 'NONE',  ( 0.000000000000000000, 1.000000000000000000, 0.000000000000000000 ) ) ;
#8 = DIRECTION ( 'NONE',  ( -0.9408807689542241226, 0.000000000000000000, -0.3387379202452954208 ) ) ;
#9 = CARTESIAN_POINT ( 'NONE',  ( -48.78466787027657858, 22.50000000000000000, -17.56356116471839357 ) ) ;
#10 = EDGE_CURVE ( 'NONE', #573, #434, #1081, .T. ) ;
#11 = ORIENTED_EDGE ( 'NONE', *, *, #1009, .T. ) ;
#12 = DIRECTION ( 'NONE',  ( 0.000000000000000000, -0.000000000000000000, 1.000000000000000000 ) ) ;
#13 = ORIENTED_EDGE ( 'NONE', *, *, #1085, .T. ) ;
#14 = FACE_OUTER_BOUND ( 'NONE', #1095, .T. ) ;
#15 = ORIENTED_EDGE ( 'NONE', *, *, #362, .T. ) ;
#16 = CARTESIAN_POINT ( 'NONE',  ( -50.52529729284189131, 12.69999999999999751, 18.19022631717218630 ) ) ;
#17 = CIRCLE ( 'NONE', #467, 53.69999999999999574 ) ;
#18 = CYLINDRICAL_SURFACE ( 'NONE', #337, 53.69999999999999574 ) ;
#19 = DIRECTION ( 'NONE',  ( -0.9408807689542252328, 0.000000000000000000, 0.3387379202452920901 ) ) ;
#20 = DIRECTION ( 'NONE',  ( 0.000000000000000000, -1.000000000000000000, -0.000000000000000000 ) ) ;
#21 = EDGE_LOOP ( 'NONE', ( #925, #239, #99, #345 ) ) ;
#22 = ADVANCED_BREP_SHAPE_REPRESENTATION ( 'Swivel_Housing_Cap', ( #537, #428 ), #1019 ) ;
#23 = CARTESIAN_POINT ( 'NONE',  ( 0.000000000000000000, 22.50000000000000000, 0.000000000000000000 ) ) ;
#24 = EDGE_CURVE ( 'NONE', #986, #445, #185, .T. ) ;
#25 = AXIS2_PLACEMENT_3D ( 'NONE', #112, #101, #544 ) ;
#26 = CARTESIAN_POINT ( 'NONE',  ( -50.52529729284189131, 12.69999999999999751, 18.19022631717218630 ) ) ;
#27 = CARTESIAN_POINT ( 'NONE',  ( 50.52529729284189131, 22.50000000000000000, -18.19022631717218630 ) ) ;
#28 = CARTESIAN_POINT ( 'NONE',  ( 53.69999999999999574, 12.69999999999999751, 0.000000000000000000 ) ) ;
#29 = AXIS2_PLACEMENT_3D ( 'NONE', #106, #444, #529 ) ;
#30 = ORIENTED_EDGE ( 'NONE', *, *, #1078, .T. ) ;
#31 = CARTESIAN_POINT ( 'NONE',  ( 0.000000000000000000, -0.5000000000000000000, 0.000000000000000000 ) ) ;
#32 = CIRCLE ( 'NONE', #660, 30.00000000000000711 ) ;
#33 = DIRECTION ( 'NONE',  ( 0.000000000000000000, 0.000000000000000000, -1.000000000000000000 ) ) ;
#34 = VECTOR ( 'NONE', #645, 1000.000000000000000 ) ;
#35 = CYLINDRICAL_SURFACE ( 'NONE', #629, 30.00000000000000000 ) ;
#36 = VERTEX_POINT ( 'NONE', #179 ) ;
#37 = DIRECTION ( 'NONE',  ( 1.000000000000000000, 0.000000000000000000, 3.491481338843133750E-15 ) ) ;
#38 = AXIS2_PLACEMENT_3D ( 'NONE', #102, #958, #779 ) ;
#39 = DIRECTION ( 'NONE',  ( 0.000000000000000000, 1.000000000000000000, 0.000000000000000000 ) ) ;
#40 = VECTOR ( 'NONE', #928, 1000.000000000000000 ) ;
#41 = DIRECTION ( 'NONE',  ( -0.000000000000000000, -1.000000000000000000, -0.000000000000000000 ) ) ;
#42 = EDGE_CURVE ( 'NONE', #895, #508, #1038, .T. ) ;
#43 = ORIENTED_EDGE ( 'NONE', *, *, #81, .T. ) ;
#44 = DIRECTION ( 'NONE',  ( -1.000000000000000000, 0.000000000000000000, -3.491481338843133355E-15 ) ) ;
#45 = CARTESIAN_POINT ( 'NONE',  ( 0.000000000000000000, 0.000000000000000000, 0.000000000000000000 ) ) ;
#46 = CARTESIAN_POINT ( 'NONE',  ( -48.78466787027657858, 22.50000000000000000, -17.56356116471839357 ) ) ;
#47 = CARTESIAN_POINT ( 'NONE',  ( 18.19022631717200866, 12.69999999999999751, 50.52529729284195525 ) ) ;
#48 = ORIENTED_EDGE ( 'NONE', *, *, #368, .F. ) ;
#49 = ORIENTED_EDGE ( 'NONE', *, *, #806, .F. ) ;
#50 = CARTESIAN_POINT ( 'NONE',  ( 5.970153145843348728E-15, -0.5000000000000000000, -48.75000000000001421 ) ) ;
#51 = CARTESIAN_POINT ( 'NONE',  ( 0.000000000000000000, 2.500000000000000000, 0.000000000000000000 ) ) ;
#52 = VECTOR ( 'NONE', #988, 1000.000000000000000 ) ;
#53 = ORIENTED_EDGE ( 'NONE', *, *, #781, .T. ) ;
#54 = VECTOR ( 'NONE', #111, 1000.000000000000114 ) ;
#55 = EDGE_CURVE ( 'NONE', #1001, #159, #906, .T. ) ;
#56 = LINE ( 'NONE', #46, #661 ) ;
#57 = CARTESIAN_POINT ( 'NONE',  ( 50.52529729284189131, 22.50000000000000000, -18.19022631717218630 ) ) ;
#58 = ORIENTED_EDGE ( 'NONE', *, *, #89, .F. ) ;
#59 = EDGE_CURVE ( 'NONE', #133, #120, #971, .T. ) ;
#60 = LINE ( 'NONE', #901, #847 ) ;
#61 = EDGE_CURVE ( 'NONE', #187, #252, #778, .T. ) ;
#62 = CARTESIAN_POINT ( 'NONE',  ( -50.52529729284189131, 22.50000000000000000, 18.19022631717218630 ) ) ;
#63 = VERTEX_POINT ( 'NONE', #27 ) ;
#64 = DIRECTION ( 'NONE',  ( 0.000000000000000000, 1.000000000000000000, 0.000000000000000000 ) ) ;
#65 = DIRECTION ( 'NONE',  ( 0.3387379202452887594, 0.000000000000000000, 0.9408807689542263430 ) ) ;
#66 = ORIENTED_EDGE ( 'NONE', *, *, #950, .T. ) ;
#67 = EDGE_CURVE ( 'NONE', #359, #332, #618, .T. ) ;
#68 = ORIENTED_EDGE ( 'NONE', *, *, #632, .F. ) ;
#69 = LINE ( 'NONE', #953, #429 ) ;
#70 = CARTESIAN_POINT ( 'NONE',  ( -39.99999999999995737, 2.499999999999944489, -32.99124883965447452 ) ) ;
#71 = DIRECTION ( 'NONE',  ( -0.000000000000000000, -1.000000000000000000, -0.000000000000000000 ) ) ;
#72 = ORIENTED_EDGE ( 'NONE', *, *, #817, .T. ) ;
#73 = ADVANCED_FACE ( 'NONE', ( #369 ), #697, .T. ) ;
#74 = EDGE_LOOP ( 'NONE', ( #832, #53, #1025, #3 ) ) ;
#75 = AXIS2_PLACEMENT_3D ( 'NONE', #582, #855, #334 ) ;
#76 = DIRECTION ( 'NONE',  ( 1.000000000000000000, 0.000000000000000000, 3.491481338843133355E-15 ) ) ;
#77 = DIRECTION ( 'NONE',  ( -0.3387379202452920901, 0.000000000000000000, 0.9408807689542252328 ) ) ;
#78 = ORIENTED_EDGE ( 'NONE', *, *, #59, .F. ) ;
#79 = EDGE_LOOP ( 'NONE', ( #861, #686, #1033, #844, #1031, #497 ) ) ;
#80 = VECTOR ( 'NONE', #558, 1000.000000000000000 ) ;
#81 = EDGE_CURVE ( 'NONE', #332, #359, #1049, .T. ) ;
#82 = DIRECTION ( 'NONE',  ( 0.000000000000000000, 1.000000000000000000, 0.000000000000000000 ) ) ;
#83 = FACE_OUTER_BOUND ( 'NONE', #674, .T. ) ;
#84 = ORIENTED_EDGE ( 'NONE', *, *, #695, .T. ) ;
#85 = CIRCLE ( 'NONE', #795, 51.85000000000000142 ) ;
#86 = ORIENTED_EDGE ( 'NONE', *, *, #404, .F. ) ;
#87 = AXIS2_PLACEMENT_3D ( 'NONE', #552, #44, #273 ) ;
#88 = VECTOR ( 'NONE', #912, 1000.000000000000000 ) ;
#89 = EDGE_CURVE ( 'NONE', #215, #133, #286, .T. ) ;
#90 = CARTESIAN_POINT ( 'NONE',  ( 39.99999999999999289, 17.49999999999998934, -51.85000000000000142 ) ) ;
#91 = VERTEX_POINT ( 'NONE', #525 ) ;
#92 = ORIENTED_EDGE ( 'NONE', *, *, #587, .F. ) ;
#93 = VECTOR ( 'NONE', #465, 1000.000000000000000 ) ;
#94 = ADVANCED_FACE ( 'NONE', ( #265 ), #784, .T. ) ;
#95 = CARTESIAN_POINT ( 'NONE',  ( 48.78466787027657858, 22.50000000000000000, 17.56356116471839357 ) ) ;
#96 = CARTESIAN_POINT ( 'NONE',  ( 0.000000000000000000, 3.499999999999999556, 0.000000000000000000 ) ) ;
#97 = EDGE_CURVE ( 'NONE', #659, #546, #294, .T. ) ;
#98 = CARTESIAN_POINT ( 'NONE',  ( 6.349793653579025951E-15, 2.600000000000005418, 51.85000000000000142 ) ) ;
#99 = ORIENTED_EDGE ( 'NONE', *, *, #251, .F. ) ;
#100 = CARTESIAN_POINT ( 'NONE',  ( 0.000000000000000000, 2.600000000000005418, 0.000000000000000000 ) ) ;
#101 = DIRECTION ( 'NONE',  ( 1.000000000000000000, -1.387778780781445873E-15, 0.000000000000000000 ) ) ;
#102 = CARTESIAN_POINT ( 'NONE',  ( 0.000000000000000000, 22.50000000000000000, 0.000000000000000000 ) ) ;
#103 = ORIENTED_EDGE ( 'NONE', *, *, #922, .F. ) ;
#104 = CYLINDRICAL_SURFACE ( 'NONE', #534, 49.85000000000000142 ) ;
#105 = PRESENTATION_LAYER_ASSIGNMENT (  '', '', ( #964 ) ) ;
#106 = CARTESIAN_POINT ( 'NONE',  ( 0.000000000000000000, 0.000000000000000000, 0.000000000000000000 ) ) ;
#107 = DIRECTION ( 'NONE',  ( 0.000000000000000000, 0.000000000000000000, 1.000000000000000000 ) ) ;
#108 = VERTEX_POINT ( 'NONE', #628 ) ;
#109 = APPLICATION_CONTEXT ( 'automotive_design' ) ;
#110 = ADVANCED_FACE ( 'NONE', ( #203 ), #562, .F. ) ;
#111 = DIRECTION ( 'NONE',  ( 0.000000000000000000, 0.7071067811865499042, 0.7071067811865451302 ) ) ;
#112 = CARTESIAN_POINT ( 'NONE',  ( 40.00000000000000000, 22.49999999999998934, -51.85000000000000142 ) ) ;
#113 = CARTESIAN_POINT ( 'NONE',  ( 0.000000000000000000, 2.500000000000000000, 0.000000000000000000 ) ) ;
#114 = ORIENTED_EDGE ( 'NONE', *, *, #242, .T. ) ;
#115 = FACE_BOUND ( 'NONE', #296, .T. ) ;
#116 = ADVANCED_FACE ( 'NONE', ( #774 ), #882, .F. ) ;
#117 = DIRECTION ( 'NONE',  ( -0.000000000000000000, -1.000000000000000000, -0.000000000000000000 ) ) ;
#118 = DIRECTION ( 'NONE',  ( 0.000000000000000000, 0.000000000000000000, 1.000000000000000000 ) ) ;
#119 = VECTOR ( 'NONE', #117, 1000.000000000000000 ) ;
#120 = VERTEX_POINT ( 'NONE', #452 ) ;
#121 = DIRECTION ( 'NONE',  ( 0.000000000000000000, 1.000000000000000000, 0.000000000000000000 ) ) ;
#122 = EDGE_CURVE ( 'NONE', #664, #434, #693, .T. ) ;
#123 = CARTESIAN_POINT ( 'NONE',  ( 6.349793653579025951E-15, 2.500000000000000000, 51.85000000000000142 ) ) ;
#124 = CARTESIAN_POINT ( 'NONE',  ( 0.000000000000000000, -49.14999999999957936, 0.000000000000000000 ) ) ;
#125 = ORIENTED_EDGE ( 'NONE', *, *, #89, .T. ) ;
#126 = DIRECTION ( 'NONE',  ( 0.3387379202452920901, 0.000000000000000000, -0.9408807689542252328 ) ) ;
#127 = DIRECTION ( 'NONE',  ( 0.9408807689542252328, -0.000000000000000000, 0.3387379202452920901 ) ) ;
#128 = EDGE_CURVE ( 'NONE', #798, #843, #1045, .T. ) ;
#129 = CIRCLE ( 'NONE', #932, 53.69999999999999574 ) ;
#130 = DIRECTION ( 'NONE',  ( 0.000000000000000000, 0.000000000000000000, -1.000000000000000000 ) ) ;
#131 = EDGE_LOOP ( 'NONE', ( #910, #43 ) ) ;
#132 = EDGE_CURVE ( 'NONE', #454, #843, #60, .T. ) ;
#133 = VERTEX_POINT ( 'NONE', #1066 ) ;
#134 = LINE ( 'NONE', #50, #965 ) ;
#135 = LINE ( 'NONE', #646, #173 ) ;
#136 = ORIENTED_EDGE ( 'NONE', *, *, #879, .T. ) ;
#137 = EDGE_CURVE ( 'NONE', #332, #594, #134, .T. ) ;
#138 = CIRCLE ( 'NONE', #425, 1.500000000000001332 ) ;
#139 = DIRECTION ( 'NONE',  ( 8.659560562354903276E-17, 0.7071067811865499042, -0.7071067811865451302 ) ) ;
#140 = DIRECTION ( 'NONE',  ( -0.000000000000000000, 0.000000000000000000, 1.000000000000000000 ) ) ;
#141 = ORIENTED_EDGE ( 'NONE', *, *, #879, .F. ) ;
#142 = AXIS2_PLACEMENT_3D ( 'NONE', #23, #360, #535 ) ;
#143 = VECTOR ( 'NONE', #216, 1000.000000000000000 ) ;
#144 = EDGE_LOOP ( 'NONE', ( #815, #647 ) ) ;
#145 = EDGE_CURVE ( 'NONE', #153, #585, #473, .T. ) ;
#146 = CIRCLE ( 'NONE', #344, 51.85000000000000142 ) ;
#147 = LINE ( 'NONE', #220, #1056 ) ;
#148 = LINE ( 'NONE', #667, #437 ) ;
#149 = VERTEX_POINT ( 'NONE', #403 ) ;
#150 = EDGE_CURVE ( 'NONE', #402, #159, #641, .T. ) ;
#151 = PLANE ( 'NONE',  #1002 ) ;
#152 = DIRECTION ( 'NONE',  ( 0.000000000000000000, -1.000000000000000000, 0.000000000000000000 ) ) ;
#153 = VERTEX_POINT ( 'NONE', #300 ) ;
#154 = ORIENTED_EDGE ( 'NONE', *, *, #67, .F. ) ;
#155 = CARTESIAN_POINT ( 'NONE',  ( 0.000000000000000000, -0.5000000000000000000, 48.75000000000001421 ) ) ;
#156 = EDGE_CURVE ( 'NONE', #986, #192, #479, .T. ) ;
#157 = DIRECTION ( 'NONE',  ( 0.000000000000000000, 0.000000000000000000, -1.000000000000000000 ) ) ;
#158 = ORIENTED_EDGE ( 'NONE', *, *, #890, .F. ) ;
#159 = VERTEX_POINT ( 'NONE', #384 ) ;
#160 = DIRECTION ( 'NONE',  ( 0.000000000000000000, 1.000000000000000000, 0.000000000000000000 ) ) ;
#161 = ORIENTED_EDGE ( 'NONE', *, *, #671, .F. ) ;
#162 = EDGE_CURVE ( 'NONE', #1035, #1001, #813, .T. ) ;
#163 = VERTEX_POINT ( 'NONE', #396 ) ;
#164 = VECTOR ( 'NONE', #750, 1000.000000000000000 ) ;
#165 = CARTESIAN_POINT ( 'NONE',  ( 50.52529729284189131, 22.50000000000000000, 18.19022631717218630 ) ) ;
#166 = FACE_OUTER_BOUND ( 'NONE', #631, .T. ) ;
#167 = VERTEX_POINT ( 'NONE', #724 ) ;
#168 = ORIENTED_EDGE ( 'NONE', *, *, #781, .F. ) ;
#169 = VECTOR ( 'NONE', #1042, 1000.000000000000000 ) ;
#170 = DIRECTION ( 'NONE',  ( 0.000000000000000000, 0.000000000000000000, 1.000000000000000000 ) ) ;
#171 = DIRECTION ( 'NONE',  ( 0.000000000000000000, 0.000000000000000000, -1.000000000000000000 ) ) ;
#172 = ORIENTED_EDGE ( 'NONE', *, *, #394, .T. ) ;
#173 = VECTOR ( 'NONE', #204, 1000.000000000000000 ) ;
#174 = DIRECTION ( 'NONE',  ( 0.000000000000000000, 1.000000000000000000, 0.000000000000000000 ) ) ;
#175 = EDGE_LOOP ( 'NONE', ( #589, #450, #852, #172 ) ) ;
#176 = EDGE_CURVE ( 'NONE', #163, #706, #213, .T. ) ;
#177 = AXIS2_PLACEMENT_3D ( 'NONE', #480, #39, #1082 ) ;
#178 = CARTESIAN_POINT ( 'NONE',  ( 0.000000000000000000, 2.600000000000005418, 0.000000000000000000 ) ) ;
#179 = CARTESIAN_POINT ( 'NONE',  ( 0.000000000000000000, 17.49999999999998934, -51.85000000000000142 ) ) ;
#180 = DIRECTION ( 'NONE',  ( -1.000000000000000000, 0.000000000000000000, 0.000000000000000000 ) ) ;
#181 = ORIENTED_EDGE ( 'NONE', *, *, #1036, .T. ) ;
#182 = CIRCLE ( 'NONE', #1060, 30.00000000000000711 ) ;
#183 = EDGE_CURVE ( 'NONE', #120, #658, #763, .T. ) ;
#184 = FACE_OUTER_BOUND ( 'NONE', #336, .T. ) ;
#185 = LINE ( 'NONE', #448, #119 ) ;
#186 = PLANE ( 'NONE',  #678 ) ;
#187 = VERTEX_POINT ( 'NONE', #897 ) ;
#188 = CARTESIAN_POINT ( 'NONE',  ( -1.874925478958762549E-13, 4.549999999999988276, 53.69999999999999574 ) ) ;
#189 = CARTESIAN_POINT ( 'NONE',  ( 0.000000000000000000, 2.699999999999997513, 0.000000000000000000 ) ) ;
#190 = EDGE_CURVE ( 'NONE', #573, #521, #56, .T. ) ;
#191 =( NAMED_UNIT ( * ) PLANE_ANGLE_UNIT ( ) SI_UNIT ( $, .RADIAN. ) );
#192 = VERTEX_POINT ( 'NONE', #819 ) ;
#193 = PLANE ( 'NONE',  #87 ) ;
#194 = CIRCLE ( 'NONE', #282, 51.85000000000000142 ) ;
#195 = VECTOR ( 'NONE', #180, 1000.000000000000000 ) ;
#196 = CARTESIAN_POINT ( 'NONE',  ( -53.69999999999999574, 12.69999999999999751, 0.000000000000000000 ) ) ;
#197 = CARTESIAN_POINT ( 'NONE',  ( 0.000000000000000000, -0.5000000000000000000, 0.000000000000000000 ) ) ;
#198 = DIRECTION ( 'NONE',  ( 0.000000000000000000, -1.000000000000000000, 0.000000000000000000 ) ) ;
#199 = VERTEX_POINT ( 'NONE', #399 ) ;
#200 = CIRCLE ( 'NONE', #822, 1.500000000000001332 ) ;
#201 = CYLINDRICAL_SURFACE ( 'NONE', #142, 49.85000000000000142 ) ;
#202 = AXIS2_PLACEMENT_3D ( 'NONE', #269, #952, #433 ) ;
#203 = FACE_OUTER_BOUND ( 'NONE', #351, .T. ) ;
#204 = DIRECTION ( 'NONE',  ( -3.491481338843133355E-15, 0.000000000000000000, 1.000000000000000000 ) ) ;
#205 = ORIENTED_EDGE ( 'NONE', *, *, #42, .F. ) ;
#206 = CARTESIAN_POINT ( 'NONE',  ( 0.000000000000000000, 0.000000000000000000, 0.000000000000000000 ) ) ;
#207 = DIRECTION ( 'NONE',  ( 0.000000000000000000, 0.000000000000000000, 1.000000000000000000 ) ) ;
#208 = DIRECTION ( 'NONE',  ( -0.000000000000000000, -1.000000000000000000, -0.000000000000000000 ) ) ;
#209 = DIRECTION ( 'NONE',  ( -0.000000000000000000, -1.000000000000000000, -0.000000000000000000 ) ) ;
#210 = ORIENTED_EDGE ( 'NONE', *, *, #605, .T. ) ;
#211 = DIRECTION ( 'NONE',  ( -0.000000000000000000, 1.000000000000000000, -0.000000000000000000 ) ) ;
#212 = EDGE_CURVE ( 'NONE', #159, #509, #317, .T. ) ;
#213 = LINE ( 'NONE', #984, #340 ) ;
#214 = DIRECTION ( 'NONE',  ( -1.000000000000000000, 0.000000000000000000, 0.000000000000000000 ) ) ;
#215 = VERTEX_POINT ( 'NONE', #390 ) ;
#216 = DIRECTION ( 'NONE',  ( -0.7071067811865502373, -0.7071067811865447972, -0.000000000000000000 ) ) ;
#217 = CIRCLE ( 'NONE', #840, 51.85000000000000142 ) ;
#218 = FACE_OUTER_BOUND ( 'NONE', #355, .T. ) ;
#219 = EDGE_LOOP ( 'NONE', ( #1039, #410, #1068, #551 ) ) ;
#220 = CARTESIAN_POINT ( 'NONE',  ( 39.99999999999999289, 17.49999999999998934, -51.85000000000000142 ) ) ;
#221 = CARTESIAN_POINT ( 'NONE',  ( 0.000000000000000000, -49.14999999999957936, 0.000000000000000000 ) ) ;
#222 = ADVANCED_FACE ( 'NONE', ( #570 ), #911, .F. ) ;
#223 = ORIENTED_EDGE ( 'NONE', *, *, #977, .T. ) ;
#224 = CIRCLE ( 'NONE', #316, 48.34999999999999432 ) ;
#225 = DIRECTION ( 'NONE',  ( -0.3387379202452887594, 0.000000000000000000, -0.9408807689542263430 ) ) ;
#226 = DIRECTION ( 'NONE',  ( 1.000000000000000000, 0.000000000000000000, 3.491481338843133355E-15 ) ) ;
#227 = AXIS2_PLACEMENT_3D ( 'NONE', #90, #419, #1032 ) ;
#228 = ORIENTED_EDGE ( 'NONE', *, *, #320, .T. ) ;
#229 = AXIS2_PLACEMENT_3D ( 'NONE', #654, #826, #312 ) ;
#230 = LINE ( 'NONE', #782, #1090 ) ;
#231 = DIRECTION ( 'NONE',  ( 0.000000000000000000, 1.000000000000000000, 0.000000000000000000 ) ) ;
#232 = ORIENTED_EDGE ( 'NONE', *, *, #639, .F. ) ;
#233 = AXIS2_PLACEMENT_3D ( 'NONE', #524, #249, #1028 ) ;
#234 = ORIENTED_EDGE ( 'NONE', *, *, #1096, .T. ) ;
#235 = DIRECTION ( 'NONE',  ( 0.000000000000000000, 1.000000000000000000, 0.000000000000000000 ) ) ;
#236 = EDGE_CURVE ( 'NONE', #706, #504, #650, .T. ) ;
#237 = CARTESIAN_POINT ( 'NONE',  ( 0.000000000000000000, 4.549999999999981171, 0.000000000000000000 ) ) ;
#238 = CARTESIAN_POINT ( 'NONE',  ( 0.000000000000000000, 17.49999999999998934, 0.000000000000000000 ) ) ;
#239 = ORIENTED_EDGE ( 'NONE', *, *, #55, .T. ) ;
#240 = ORIENTED_EDGE ( 'NONE', *, *, #936, .F. ) ;
#241 = CARTESIAN_POINT ( 'NONE',  ( 0.000000000000000000, 2.500000000000000000, 0.000000000000000000 ) ) ;
#242 = EDGE_CURVE ( 'NONE', #895, #187, #147, .T. ) ;
#243 = CARTESIAN_POINT ( 'NONE',  ( 0.000000000000000000, 0.000000000000000000, 0.000000000000000000 ) ) ;
#244 = ORIENTED_EDGE ( 'NONE', *, *, #183, .F. ) ;
#245 = CIRCLE ( 'NONE', #532, 51.85000000000000142 ) ;
#246 = AXIS2_PLACEMENT_3D ( 'NONE', #455, #121, #381 ) ;
#247 = ORIENTED_EDGE ( 'NONE', *, *, #1030, .T. ) ;
#248 = DIRECTION ( 'NONE',  ( 0.000000000000000000, 0.000000000000000000, -1.000000000000000000 ) ) ;
#249 = DIRECTION ( 'NONE',  ( 0.000000000000000000, 1.000000000000000000, 0.000000000000000000 ) ) ;
#250 = ORIENTED_EDGE ( 'NONE', *, *, #10, .F. ) ;
#251 = EDGE_CURVE ( 'NONE', #935, #159, #979, .T. ) ;
#252 = VERTEX_POINT ( 'NONE', #907 ) ;
#253 = UNCERTAINTY_MEASURE_WITH_UNIT (LENGTH_MEASURE( 1.000000000000000082E-05 ), #640, 'distance_accuracy_value', 'NONE');
#254 = CARTESIAN_POINT ( 'NONE',  ( -50.52529729284189131, 4.550000000000008704, -18.19022631717218630 ) ) ;
#255 = CARTESIAN_POINT ( 'NONE',  ( 50.52529729284189131, 22.50000000000000000, -18.19022631717218630 ) ) ;
#256 = ORIENTED_EDGE ( 'NONE', *, *, #987, .T. ) ;
#257 = SURFACE_STYLE_USAGE ( .BOTH. , #860 ) ;
#258 = ADVANCED_FACE ( 'NONE', ( #1077 ), #374, .T. ) ;
#259 = ORIENTED_EDGE ( 'NONE', *, *, #190, .T. ) ;
#260 = CARTESIAN_POINT ( 'NONE',  ( -17.56356116471856410, 22.50000000000000000, 48.78466787027651463 ) ) ;
#261 = EDGE_LOOP ( 'NONE', ( #141, #635, #411, #244, #733, #279 ) ) ;
#262 = DIRECTION ( 'NONE',  ( -0.000000000000000000, 1.000000000000000000, -0.000000000000000000 ) ) ;
#263 = ORIENTED_EDGE ( 'NONE', *, *, #516, .T. ) ;
#264 = DIRECTION ( 'NONE',  ( 0.000000000000000000, 1.000000000000000000, 0.000000000000000000 ) ) ;
#265 = FACE_OUTER_BOUND ( 'NONE', #732, .T. ) ;
#266 = EDGE_LOOP ( 'NONE', ( #415, #393, #689, #11 ) ) ;
#267 = VECTOR ( 'NONE', #829, 1000.000000000000000 ) ;
#268 = ADVANCED_FACE ( 'NONE', ( #998 ), #917, .F. ) ;
#269 = CARTESIAN_POINT ( 'NONE',  ( 0.000000000000000000, 3.499999999999999556, 0.000000000000000000 ) ) ;
#270 = CARTESIAN_POINT ( 'NONE',  ( 0.000000000000000000, -0.5000000000000000000, 0.000000000000000000 ) ) ;
#271 = DIRECTION ( 'NONE',  ( 0.000000000000000000, 0.000000000000000000, 1.000000000000000000 ) ) ;
#272 = EDGE_LOOP ( 'NONE', ( #868, #154, #1029, #850 ) ) ;
#273 = DIRECTION ( 'NONE',  ( -3.491481338843133355E-15, 0.000000000000000000, 1.000000000000000000 ) ) ;
#274 = AXIS2_PLACEMENT_3D ( 'NONE', #703, #8, #710 ) ;
#275 = LINE ( 'NONE', #468, #624 ) ;
#276 = CARTESIAN_POINT ( 'NONE',  ( 48.78466787027657858, 22.50000000000000000, -17.56356116471839357 ) ) ;
#277 = ADVANCED_FACE ( 'NONE', ( #927 ), #569, .T. ) ;
#278 = CARTESIAN_POINT ( 'NONE',  ( -50.52529729284189131, 12.69999999999999751, 18.19022631717218630 ) ) ;
#279 = ORIENTED_EDGE ( 'NONE', *, *, #342, .F. ) ;
#280 = AXIS2_PLACEMENT_3D ( 'NONE', #243, #140, #746 ) ;
#281 = CARTESIAN_POINT ( 'NONE',  ( 17.56356116471822304, 12.69999999999999751, 48.78466787027664253 ) ) ;
#282 = AXIS2_PLACEMENT_3D ( 'NONE', #801, #881, #457 ) ;
#283 = VECTOR ( 'NONE', #211, 1000.000000000000000 ) ;
#284 = VECTOR ( 'NONE', #469, 1000.000000000000000 ) ;
#285 = APPLICATION_PROTOCOL_DEFINITION ( 'draft international standard', 'automotive_design', 1998, #321 ) ;
#286 = LINE ( 'NONE', #276, #939 ) ;
#287 = DIRECTION ( 'NONE',  ( 0.7071067811865502373, -0.7071067811865447972, -0.000000000000000000 ) ) ;
#288 = ADVANCED_FACE ( 'NONE', ( #683 ), #151, .T. ) ;
#289 = ORIENTED_EDGE ( 'NONE', *, *, #122, .T. ) ;
#290 = VECTOR ( 'NONE', #470, 1000.000000000000000 ) ;
#291 = CARTESIAN_POINT ( 'NONE',  ( -50.52529729284189131, 22.50000000000000000, 18.19022631717218630 ) ) ;
#292 = CIRCLE ( 'NONE', #1, 51.85000000000000142 ) ;
#293 = CARTESIAN_POINT ( 'NONE',  ( 0.000000000000000000, 4.549999999999981171, 0.000000000000000000 ) ) ;
#294 = LINE ( 'NONE', #608, #791 ) ;
#295 = CARTESIAN_POINT ( 'NONE',  ( 0.000000000000000000, 2.000000000000000000, 0.000000000000000000 ) ) ;
#296 = EDGE_LOOP ( 'NONE', ( #68, #981 ) ) ;
#297 = EDGE_CURVE ( 'NONE', #192, #442, #230, .T. ) ;
#298 = FACE_OUTER_BOUND ( 'NONE', #821, .T. ) ;
#299 = EDGE_CURVE ( 'NONE', #466, #199, #1040, .T. ) ;
#300 = CARTESIAN_POINT ( 'NONE',  ( 53.69999999999999574, 4.550000000000008704, 0.000000000000000000 ) ) ;
#301 = CARTESIAN_POINT ( 'NONE',  ( 0.000000000000000000, 22.50000000000000000, -49.85000000000000142 ) ) ;
#302 = ORIENTED_EDGE ( 'NONE', *, *, #404, .T. ) ;
#303 = EDGE_CURVE ( 'NONE', #546, #163, #951, .T. ) ;
#304 = DIRECTION ( 'NONE',  ( -0.000000000000000000, -0.000000000000000000, 1.000000000000000000 ) ) ;
#305 = DIRECTION ( 'NONE',  ( 1.000000000000000000, -0.000000000000000000, 1.224646799147353207E-16 ) ) ;
#306 = VERTEX_POINT ( 'NONE', #254 ) ;
#307 = EDGE_CURVE ( 'NONE', #306, #573, #505, .T. ) ;
#308 = CARTESIAN_POINT ( 'NONE',  ( 0.000000000000000000, 3.499999999999999556, 0.000000000000000000 ) ) ;
#309 = AXIS2_PLACEMENT_3D ( 'NONE', #595, #577, #491 ) ;
#310 = CARTESIAN_POINT ( 'NONE',  ( -39.99999999999998579, 22.49999999999994316, -29.74932772349654897 ) ) ;
#311 = ORIENTED_EDGE ( 'NONE', *, *, #803, .T. ) ;
#312 = DIRECTION ( 'NONE',  ( 0.000000000000000000, 0.000000000000000000, 1.000000000000000000 ) ) ;
#313 = PLANE ( 'NONE',  #619 ) ;
#314 = ORIENTED_EDGE ( 'NONE', *, *, #307, .T. ) ;
#315 = VECTOR ( 'NONE', #789, 1000.000000000000000 ) ;
#316 = AXIS2_PLACEMENT_3D ( 'NONE', #295, #630, #1063 ) ;
#317 = LINE ( 'NONE', #123, #284 ) ;
#318 = CARTESIAN_POINT ( 'NONE',  ( 48.78466787027657858, 22.50000000000000000, 17.56356116471839357 ) ) ;
#319 = ORIENTED_EDGE ( 'NONE', *, *, #838, .F. ) ;
#320 = EDGE_CURVE ( 'NONE', #747, #585, #413, .T. ) ;
#321 = APPLICATION_CONTEXT ( 'automotive_design' ) ;
#322 = CARTESIAN_POINT ( 'NONE',  ( 0.000000000000000000, 22.50000000000000000, 0.000000000000000000 ) ) ;
#323 = CARTESIAN_POINT ( 'NONE',  ( 18.19022631717200866, 12.69999999999999751, 50.52529729284195525 ) ) ;
#324 = VERTEX_POINT ( 'NONE', #165 ) ;
#325 = CIRCLE ( 'NONE', #75, 51.85000000000000142 ) ;
#326 = ORIENTED_EDGE ( 'NONE', *, *, #212, .F. ) ;
#327 = EDGE_CURVE ( 'NONE', #91, #1035, #217, .T. ) ;
#328 = CARTESIAN_POINT ( 'NONE',  ( 50.52529729284189131, 12.69999999999999751, -18.19022631717218630 ) ) ;
#329 = DIRECTION ( 'NONE',  ( 0.000000000000000000, 0.000000000000000000, 1.000000000000000000 ) ) ;
#330 = FACE_OUTER_BOUND ( 'NONE', #175, .T. ) ;
#331 = ORIENTED_EDGE ( 'NONE', *, *, #950, .F. ) ;
#332 = VERTEX_POINT ( 'NONE', #672 ) ;
#333 = EDGE_CURVE ( 'NONE', #108, #959, #129, .T. ) ;
#334 = DIRECTION ( 'NONE',  ( 0.000000000000000000, 0.000000000000000000, -1.000000000000000000 ) ) ;
#335 = DIRECTION ( 'NONE',  ( -0.000000000000000000, -0.000000000000000000, 1.000000000000000000 ) ) ;
#336 = EDGE_LOOP ( 'NONE', ( #572, #720 ) ) ;
#337 = AXIS2_PLACEMENT_3D ( 'NONE', #783, #447, #543 ) ;
#338 = CIRCLE ( 'NONE', #246, 30.00000000000000000 ) ;
#339 = ORIENTED_EDGE ( 'NONE', *, *, #297, .F. ) ;
#340 = VECTOR ( 'NONE', #225, 1000.000000000000114 ) ;
#341 = FACE_OUTER_BOUND ( 'NONE', #21, .T. ) ;
#342 = EDGE_CURVE ( 'NONE', #324, #63, #17, .T. ) ;
#343 = PLANE ( 'NONE',  #962 ) ;
#344 = AXIS2_PLACEMENT_3D ( 'NONE', #581, #235, #943 ) ;
#345 = ORIENTED_EDGE ( 'NONE', *, *, #1078, .F. ) ;
#346 = ORIENTED_EDGE ( 'NONE', *, *, #803, .F. ) ;
#347 = AXIS2_PLACEMENT_3D ( 'NONE', #696, #2, #864 ) ;
#348 = DIRECTION ( 'NONE',  ( 0.000000000000000000, 1.000000000000000000, 0.000000000000000000 ) ) ;
#349 = ORIENTED_EDGE ( 'NONE', *, *, #1096, .F. ) ;
#350 = FACE_OUTER_BOUND ( 'NONE', #475, .T. ) ;
#351 = EDGE_LOOP ( 'NONE', ( #232, #839, #726, #765 ) ) ;
#352 = DIRECTION ( 'NONE',  ( 0.000000000000000000, 0.000000000000000000, -1.000000000000000000 ) ) ;
#353 = CARTESIAN_POINT ( 'NONE',  ( 39.99999999999998579, 22.49999999999994316, -29.74932772349654897 ) ) ;
#354 = CARTESIAN_POINT ( 'NONE',  ( 0.000000000000000000, 0.000000000000000000, 0.000000000000000000 ) ) ;
#355 = EDGE_LOOP ( 'NONE', ( #326, #766, #584, #560, #914, #84, #234, #92, #759, #240, #302, #494, #944, #792 ) ) ;
#356 = DIRECTION ( 'NONE',  ( 0.3387379202452953098, -0.000000000000000000, -0.9408807689542240116 ) ) ;
#357 = DIRECTION ( 'NONE',  ( 0.000000000000000000, 1.000000000000000000, 0.000000000000000000 ) ) ;
#358 = CARTESIAN_POINT ( 'NONE',  ( 0.000000000000000000, -0.5000000000000000000, 0.000000000000000000 ) ) ;
#359 = VERTEX_POINT ( 'NONE', #155 ) ;
#360 = DIRECTION ( 'NONE',  ( -0.000000000000000000, -1.000000000000000000, -0.000000000000000000 ) ) ;
#361 = CIRCLE ( 'NONE', #749, 49.85000000000000142 ) ;
#362 = EDGE_CURVE ( 'NONE', #420, #454, #361, .T. ) ;
#363 = DIRECTION ( 'NONE',  ( -0.9408807689542252328, 0.000000000000000000, 0.3387379202452920901 ) ) ;
#364 = DIRECTION ( 'NONE',  ( -1.000000000000000000, 0.000000000000000000, -3.491481338843133750E-15 ) ) ;
#365 = CARTESIAN_POINT ( 'NONE',  ( 51.85000000000000142, 2.699999999999997513, 0.000000000000000000 ) ) ;
#366 = ORIENTED_EDGE ( 'NONE', *, *, #936, .T. ) ;
#367 = PLANE ( 'NONE',  #876 ) ;
#368 = EDGE_CURVE ( 'NONE', #643, #585, #416, .T. ) ;
#369 = FACE_OUTER_BOUND ( 'NONE', #266, .T. ) ;
#370 = CARTESIAN_POINT ( 'NONE',  ( -48.78466787027657858, 2.699999999999997513, -17.56356116471839357 ) ) ;
#371 = ORIENTED_EDGE ( 'NONE', *, *, #307, .F. ) ;
#372 = CIRCLE ( 'NONE', #1100, 51.85000000000000142 ) ;
#373 = DIRECTION ( 'NONE',  ( 0.000000000000000000, -1.000000000000000000, 0.000000000000000000 ) ) ;
#374 = CONICAL_SURFACE ( 'NONE', #229, 48.75000000000001421, 0.7853981633974449483 ) ;
#375 = CARTESIAN_POINT ( 'NONE',  ( 50.52529729284189131, 12.69999999999999751, -18.19022631717218630 ) ) ;
#376 = EDGE_CURVE ( 'NONE', #133, #747, #325, .T. ) ;
#377 = CARTESIAN_POINT ( 'NONE',  ( 51.85000000000000142, 12.69999999999999751, 0.000000000000000000 ) ) ;
#378 = ORIENTED_EDGE ( 'NONE', *, *, #1009, .F. ) ;
#379 = PRODUCT_RELATED_PRODUCT_CATEGORY ( 'part', '', ( #1024 ) ) ;
#380 = AXIS2_PLACEMENT_3D ( 'NONE', #1048, #41, #797 ) ;
#381 = DIRECTION ( 'NONE',  ( 0.000000000000000000, 0.000000000000000000, 1.000000000000000000 ) ) ;
#382 = VECTOR ( 'NONE', #500, 999.9999999999998863 ) ;
#383 = CARTESIAN_POINT ( 'NONE',  ( -53.69999999999999574, 4.550000000000008704, 0.000000000000000000 ) ) ;
#384 = CARTESIAN_POINT ( 'NONE',  ( -1.810333074190164866E-13, 2.699999999999997513, 51.85000000000000142 ) ) ;
#385 = CARTESIAN_POINT ( 'NONE',  ( 0.000000000000000000, 12.69999999999999751, 0.000000000000000000 ) ) ;
#386 = ORIENTED_EDGE ( 'NONE', *, *, #376, .T. ) ;
#387 = ADVANCED_FACE ( 'NONE', ( #341 ), #502, .T. ) ;
#388 = DIRECTION ( 'NONE',  ( -0.9408807689542252328, 0.000000000000000000, -0.3387379202452920901 ) ) ;
#389 = DIRECTION ( 'NONE',  ( 0.000000000000000000, 0.000000000000000000, 1.000000000000000000 ) ) ;
#390 = CARTESIAN_POINT ( 'NONE',  ( 48.78466787027657858, 22.50000000000000000, -17.56356116471839357 ) ) ;
#391 = CARTESIAN_POINT ( 'NONE',  ( 0.000000000000000000, 4.550000000000001599, 0.000000000000000000 ) ) ;
#392 = EDGE_LOOP ( 'NONE', ( #430, #611, #593, #805 ) ) ;
#393 = ORIENTED_EDGE ( 'NONE', *, *, #621, .T. ) ;
#394 = EDGE_CURVE ( 'NONE', #747, #658, #676, .T. ) ;
#395 = AXIS2_PLACEMENT_3D ( 'NONE', #31, #373, #722 ) ;
#396 = CARTESIAN_POINT ( 'NONE',  ( 18.19022631717200866, 22.50000000000000000, 50.52529729284195525 ) ) ;
#397 = LINE ( 'NONE', #124, #970 ) ;
#398 = ORIENTED_EDGE ( 'NONE', *, *, #212, .T. ) ;
#399 = CARTESIAN_POINT ( 'NONE',  ( 6.013015783813504294E-15, 2.000000000000000000, -48.34999999999999432 ) ) ;
#400 = CARTESIAN_POINT ( 'NONE',  ( 0.000000000000000000, 12.69999999999999751, 0.000000000000000000 ) ) ;
#401 = ORIENTED_EDGE ( 'NONE', *, *, #922, .T. ) ;
#402 = VERTEX_POINT ( 'NONE', #495 ) ;
#403 = CARTESIAN_POINT ( 'NONE',  ( 0.000000000000000000, 17.49999999999998934, -49.85000000000000142 ) ) ;
#404 = EDGE_CURVE ( 'NONE', #968, #531, #835, .T. ) ;
#405 = LINE ( 'NONE', #318, #578 ) ;
#406 = ORIENTED_EDGE ( 'NONE', *, *, #10, .T. ) ;
#407 = DIRECTION ( 'NONE',  ( 0.000000000000000000, 1.000000000000000000, 0.000000000000000000 ) ) ;
#408 = LINE ( 'NONE', #310, #908 ) ;
#409 = ADVANCED_FACE ( 'NONE', ( #1092 ), #104, .F. ) ;
#410 = ORIENTED_EDGE ( 'NONE', *, *, #587, .T. ) ;
#411 = ORIENTED_EDGE ( 'NONE', *, *, #503, .T. ) ;
#412 = FACE_OUTER_BOUND ( 'NONE', #501, .T. ) ;
#413 = LINE ( 'NONE', #940, #610 ) ;
#414 = LINE ( 'NONE', #751, #567 ) ;
#415 = ORIENTED_EDGE ( 'NONE', *, *, #162, .T. ) ;
#416 = CIRCLE ( 'NONE', #556, 51.85000000000000142 ) ;
#417 = EDGE_LOOP ( 'NONE', ( #974, #168, #599, #769 ) ) ;
#418 = DIRECTION ( 'NONE',  ( 0.000000000000000000, 0.000000000000000000, 1.000000000000000000 ) ) ;
#419 = DIRECTION ( 'NONE',  ( 0.000000000000000000, -1.000000000000000000, -0.000000000000000000 ) ) ;
#420 = VERTEX_POINT ( 'NONE', #896 ) ;
#421 = ORIENTED_EDGE ( 'NONE', *, *, #368, .T. ) ;
#422 = AXIS2_PLACEMENT_3D ( 'NONE', #875, #963, #519 ) ;
#423 = EDGE_CURVE ( 'NONE', #192, #986, #338, .T. ) ;
#424 = DIRECTION ( 'NONE',  ( 0.000000000000000000, 0.000000000000000000, 1.000000000000000000 ) ) ;
#425 = AXIS2_PLACEMENT_3D ( 'NONE', #719, #214, #898 ) ;
#426 = DIRECTION ( 'NONE',  ( 1.387778780781445873E-15, -1.000000000000000000, 0.000000000000000000 ) ) ;
#427 = ORIENTED_EDGE ( 'NONE', *, *, #1065, .T. ) ;
#428 = AXIS2_PLACEMENT_3D ( 'NONE', #45, #389, #729 ) ;
#429 = VECTOR ( 'NONE', #867, 1000.000000000000000 ) ;
#430 = ORIENTED_EDGE ( 'NONE', *, *, #695, .F. ) ;
#431 = VECTOR ( 'NONE', #994, 1000.000000000000000 ) ;
#432 = EDGE_CURVE ( 'NONE', #91, #604, #626, .T. ) ;
#433 = DIRECTION ( 'NONE',  ( 0.000000000000000000, 0.000000000000000000, 1.000000000000000000 ) ) ;
#434 = VERTEX_POINT ( 'NONE', #291 ) ;
#435 = CARTESIAN_POINT ( 'NONE',  ( 0.000000000000000000, 2.600000000000005418, -51.85000000000000142 ) ) ;
#436 = ORIENTED_EDGE ( 'NONE', *, *, #362, .F. ) ;
#437 = VECTOR ( 'NONE', #827, 1000.000000000000000 ) ;
#438 = DIRECTION ( 'NONE',  ( -0.9408807689542252328, -0.000000000000000000, -0.3387379202452920901 ) ) ;
#439 = DIRECTION ( 'NONE',  ( 0.000000000000000000, 0.000000000000000000, 1.000000000000000000 ) ) ;
#440 = ADVANCED_FACE ( 'NONE', ( #462 ), #885, .T. ) ;
#441 = FILL_AREA_STYLE_COLOUR ( '', #818 ) ;
#442 = VERTEX_POINT ( 'NONE', #617 ) ;
#443 = LINE ( 'NONE', #1023, #52 ) ;
#444 = DIRECTION ( 'NONE',  ( 0.3387379202452920901, -0.000000000000000000, 0.9408807689542252328 ) ) ;
#445 = VERTEX_POINT ( 'NONE', #634 ) ;
#446 = DIRECTION ( 'NONE',  ( 0.000000000000000000, 0.000000000000000000, 1.000000000000000000 ) ) ;
#447 = DIRECTION ( 'NONE',  ( 0.000000000000000000, 1.000000000000000000, 0.000000000000000000 ) ) ;
#448 = CARTESIAN_POINT ( 'NONE',  ( 3.673940397442059178E-15, 2.500000000000000000, 30.00000000000000000 ) ) ;
#449 = DIRECTION ( 'NONE',  ( 0.000000000000000000, 0.000000000000000000, 1.000000000000000000 ) ) ;
#450 = ORIENTED_EDGE ( 'NONE', *, *, #145, .T. ) ;
#451 = FACE_OUTER_BOUND ( 'NONE', #744, .T. ) ;
#452 = CARTESIAN_POINT ( 'NONE',  ( 50.52529729284189131, 12.69999999999999751, -18.19022631717218630 ) ) ;
#453 = CARTESIAN_POINT ( 'NONE',  ( -18.19022631717236038, 4.549999999999988276, 50.52529729284182736 ) ) ;
#454 = VERTEX_POINT ( 'NONE', #1044 ) ;
#455 = CARTESIAN_POINT ( 'NONE',  ( 0.000000000000000000, 2.000000000000000000, 0.000000000000000000 ) ) ;
#456 = ADVANCED_FACE ( 'NONE', ( #451 ), #193, .F. ) ;
#457 = DIRECTION ( 'NONE',  ( 0.000000000000000000, 0.000000000000000000, -1.000000000000000000 ) ) ;
#458 = FACE_OUTER_BOUND ( 'NONE', #996, .T. ) ;
#459 = LINE ( 'NONE', #550, #290 ) ;
#460 = ORIENTED_EDGE ( 'NONE', *, *, #156, .T. ) ;
#461 = CIRCLE ( 'NONE', #1083, 53.69999999999999574 ) ;
#462 = FACE_OUTER_BOUND ( 'NONE', #489, .T. ) ;
#463 = CARTESIAN_POINT ( 'NONE',  ( 0.000000000000000000, 3.499999999999999556, 0.000000000000000000 ) ) ;
#464 = EDGE_CURVE ( 'NONE', #504, #402, #1103, .T. ) ;
#465 = DIRECTION ( 'NONE',  ( 0.000000000000000000, 1.000000000000000000, 0.000000000000000000 ) ) ;
#466 = VERTEX_POINT ( 'NONE', #976 ) ;
#467 = AXIS2_PLACEMENT_3D ( 'NONE', #761, #64, #170 ) ;
#468 = CARTESIAN_POINT ( 'NONE',  ( -51.85000000000000142, 22.50000000000000000, 0.000000000000000000 ) ) ;
#469 = DIRECTION ( 'NONE',  ( -0.000000000000000000, -1.000000000000000000, -0.000000000000000000 ) ) ;
#470 = DIRECTION ( 'NONE',  ( -0.000000000000000000, -0.000000000000000000, 1.000000000000000000 ) ) ;
#471 = ADVANCED_FACE ( 'NONE', ( #787, #115 ), #638, .T. ) ;
#472 = ORIENTED_EDGE ( 'NONE', *, *, #61, .F. ) ;
#473 = LINE ( 'NONE', #802, #143 ) ;
#474 = DIRECTION ( 'NONE',  ( -0.000000000000000000, -1.000000000000000000, -0.000000000000000000 ) ) ;
#475 = EDGE_LOOP ( 'NONE', ( #13, #929, #436, #753, #366, #1058, #406, #899, #937, #378, #1101, #648, #311, #823, #539, #991, #247 ) ) ;
#476 = VECTOR ( 'NONE', #65, 1000.000000000000114 ) ;
#477 = VECTOR ( 'NONE', #356, 1000.000000000000227 ) ;
#478 = AXIS2_PLACEMENT_3D ( 'NONE', #807, #800, #37 ) ;
#479 = CIRCLE ( 'NONE', #177, 30.00000000000000000 ) ;
#480 = CARTESIAN_POINT ( 'NONE',  ( 0.000000000000000000, 2.000000000000000000, 0.000000000000000000 ) ) ;
#481 = FACE_OUTER_BOUND ( 'NONE', #74, .T. ) ;
#482 = ORIENTED_EDGE ( 'NONE', *, *, #137, .T. ) ;
#483 = ORIENTED_EDGE ( 'NONE', *, *, #767, .F. ) ;
#484 = VECTOR ( 'NONE', #804, 1000.000000000000000 ) ;
#485 = ADVANCED_FACE ( 'NONE', ( #298 ), #201, .F. ) ;
#486 = CARTESIAN_POINT ( 'NONE',  ( 0.000000000000000000, 12.69999999999999751, 0.000000000000000000 ) ) ;
#487 = VECTOR ( 'NONE', #438, 1000.000000000000000 ) ;
#488 = DIRECTION ( 'NONE',  ( 0.000000000000000000, 1.000000000000000000, 0.000000000000000000 ) ) ;
#489 = EDGE_LOOP ( 'NONE', ( #1018, #72, #314, #259 ) ) ;
#490 = ADVANCED_FACE ( 'NONE', ( #982 ), #367, .T. ) ;
#491 = DIRECTION ( 'NONE',  ( -1.000000000000000000, 0.000000000000000000, -3.491481338843133355E-15 ) ) ;
#492 = EDGE_CURVE ( 'NONE', #359, #509, #716, .T. ) ;
#493 = FACE_OUTER_BOUND ( 'NONE', #919, .T. ) ;
#494 = ORIENTED_EDGE ( 'NONE', *, *, #788, .T. ) ;
#495 = CARTESIAN_POINT ( 'NONE',  ( -1.810333074190164866E-13, 12.69999999999999751, 51.85000000000000142 ) ) ;
#496 = CARTESIAN_POINT ( 'NONE',  ( 0.000000000000000000, 22.50000000000000000, 0.000000000000000000 ) ) ;
#497 = ORIENTED_EDGE ( 'NONE', *, *, #1065, .F. ) ;
#498 = ORIENTED_EDGE ( 'NONE', *, *, #606, .F. ) ;
#499 = DIRECTION ( 'NONE',  ( 0.000000000000000000, 1.000000000000000000, 0.000000000000000000 ) ) ;
#500 = DIRECTION ( 'NONE',  ( 0.6653031720155484496, 0.7071067811865449082, 0.2395238804504748742 ) ) ;
#501 = EDGE_LOOP ( 'NONE', ( #49, #741, #349, #905 ) ) ;
#502 = CONICAL_SURFACE ( 'NONE', #649, 53.69999999999999574, 0.7853981633974501664 ) ;
#503 = EDGE_CURVE ( 'NONE', #153, #658, #1051, .T. ) ;
#504 = VERTEX_POINT ( 'NONE', #281 ) ;
#505 = LINE ( 'NONE', #1015, #267 ) ;
#506 = DIRECTION ( 'NONE',  ( 0.000000000000000000, 1.000000000000000000, 0.000000000000000000 ) ) ;
#507 = AXIS2_PLACEMENT_3D ( 'NONE', #870, #1054, #19 ) ;
#508 = VERTEX_POINT ( 'NONE', #889 ) ;
#509 = VERTEX_POINT ( 'NONE', #98 ) ;
#510 = UNCERTAINTY_MEASURE_WITH_UNIT (LENGTH_MEASURE( 1.000000000000000082E-05 ), #775, 'distance_accuracy_value', 'NONE');
#511 = DIRECTION ( 'NONE',  ( 1.000000000000000000, -0.000000000000000000, -0.000000000000000000 ) ) ;
#512 = CIRCLE ( 'NONE', #709, 49.85000000000000142 ) ;
#513 = CARTESIAN_POINT ( 'NONE',  ( -1.874925478958762549E-13, 12.69999999999999751, 53.69999999999999574 ) ) ;
#514 = ORIENTED_EDGE ( 'NONE', *, *, #812, .F. ) ;
#515 = VECTOR ( 'NONE', #563, 1000.000000000000000 ) ;
#516 = EDGE_CURVE ( 'NONE', #108, #163, #69, .T. ) ;
#517 = DIRECTION ( 'NONE',  ( -0.000000000000000000, -1.000000000000000000, -0.000000000000000000 ) ) ;
#518 = AXIS2_PLACEMENT_3D ( 'NONE', #328, #20, #877 ) ;
#519 = DIRECTION ( 'NONE',  ( 0.000000000000000000, 0.000000000000000000, -1.000000000000000000 ) ) ;
#520 = FILL_AREA_STYLE ('',( #441 ) ) ;
#521 = VERTEX_POINT ( 'NONE', #9 ) ;
#522 = AXIS2_PLACEMENT_3D ( 'NONE', #592, #517, #596 ) ;
#523 = ADVANCED_FACE ( 'NONE', ( #412 ), #186, .F. ) ;
#524 = CARTESIAN_POINT ( 'NONE',  ( -0.000000000000000000, -6.249194117641132529, 0.000000000000000000 ) ) ;
#525 = CARTESIAN_POINT ( 'NONE',  ( -48.78466787027657858, 22.50000000000000000, 17.56356116471839357 ) ) ;
#526 = LINE ( 'NONE', #948, #195 ) ;
#527 = ORIENTED_EDGE ( 'NONE', *, *, #738, .F. ) ;
#528 = CARTESIAN_POINT ( 'NONE',  ( -40.00000000000000000, 22.49999999999998934, -32.99124883965443900 ) ) ;
#529 = DIRECTION ( 'NONE',  ( 0.9408807689542252328, 0.000000000000000000, -0.3387379202452920901 ) ) ;
#530 = EDGE_CURVE ( 'NONE', #811, #1094, #526, .T. ) ;
#531 = VERTEX_POINT ( 'NONE', #785 ) ;
#532 = AXIS2_PLACEMENT_3D ( 'NONE', #178, #7, #352 ) ;
#533 = PRODUCT_DEFINITION_FORMATION_WITH_SPECIFIED_SOURCE ( 'ANY', '', #1024, .NOT_KNOWN. ) ;
#534 = AXIS2_PLACEMENT_3D ( 'NONE', #960, #700, #1059 ) ;
#535 = DIRECTION ( 'NONE',  ( 0.000000000000000000, 0.000000000000000000, -1.000000000000000000 ) ) ;
#536 = DIRECTION ( 'NONE',  ( 0.000000000000000000, -1.000000000000000000, 0.000000000000000000 ) ) ;
#537 = MANIFOLD_SOLID_BREP ( 'Chamfer2', #851 ) ;
#538 = DIRECTION ( 'NONE',  ( 0.000000000000000000, 0.000000000000000000, 1.000000000000000000 ) ) ;
#539 = ORIENTED_EDGE ( 'NONE', *, *, #342, .T. ) ;
#540 = ADVANCED_FACE ( 'NONE', ( #834 ), #609, .T. ) ;
#541 = CIRCLE ( 'NONE', #202, 49.85000000000000142 ) ;
#542 = DIRECTION ( 'NONE',  ( -0.3387379202452887594, 0.000000000000000000, -0.9408807689542263430 ) ) ;
#543 = DIRECTION ( 'NONE',  ( 0.000000000000000000, 0.000000000000000000, 1.000000000000000000 ) ) ;
#544 = DIRECTION ( 'NONE',  ( 1.387778780781445873E-15, 1.000000000000000000, 0.000000000000000000 ) ) ;
#545 = CARTESIAN_POINT ( 'NONE',  ( 0.000000000000000000, -0.5000000000000000000, 0.000000000000000000 ) ) ;
#546 = VERTEX_POINT ( 'NONE', #670 ) ;
#547 = CARTESIAN_POINT ( 'NONE',  ( 53.69999999999999574, 22.50000000000000000, 0.000000000000000000 ) ) ;
#548 = LINE ( 'NONE', #708, #1102 ) ;
#549 = CARTESIAN_POINT ( 'NONE',  ( 0.000000000000000000, -49.14999999999980673, 0.000000000000000000 ) ) ;
#550 = CARTESIAN_POINT ( 'NONE',  ( -39.99999999999999289, 17.49999999999998934, -51.85000000000000142 ) ) ;
#551 = ORIENTED_EDGE ( 'NONE', *, *, #605, .F. ) ;
#552 = CARTESIAN_POINT ( 'NONE',  ( 0.000000000000000000, 0.000000000000000000, 0.000000000000000000 ) ) ;
#553 = DIRECTION ( 'NONE',  ( -0.000000000000000000, -1.000000000000000000, -0.000000000000000000 ) ) ;
#554 = DIRECTION ( 'NONE',  ( 1.224646799147354440E-16, 0.000000000000000000, -1.000000000000000000 ) ) ;
#555 = ORIENTED_EDGE ( 'NONE', *, *, #297, .T. ) ;
#556 = AXIS2_PLACEMENT_3D ( 'NONE', #848, #82, #424 ) ;
#557 = APPLICATION_PROTOCOL_DEFINITION ( 'draft international standard', 'automotive_design', 1998, #109 ) ;
#558 = DIRECTION ( 'NONE',  ( 0.000000000000000000, 1.000000000000000000, 0.000000000000000000 ) ) ;
#559 = CYLINDRICAL_SURFACE ( 'NONE', #1006, 51.85000000000000142 ) ;
#560 = ORIENTED_EDGE ( 'NONE', *, *, #327, .F. ) ;
#561 = EDGE_CURVE ( 'NONE', #454, #252, #575, .T. ) ;
#562 = TOROIDAL_SURFACE ( 'NONE', #754, 48.34999999999999432, 1.500000000000000000 ) ;
#563 = DIRECTION ( 'NONE',  ( 2.468850131082270471E-15, -0.7071067811865462405, -0.7071067811865489050 ) ) ;
#564 = AXIS2_PLACEMENT_3D ( 'NONE', #270, #1061, #614 ) ;
#565 = DIRECTION ( 'NONE',  ( 0.000000000000000000, 1.000000000000000000, 0.000000000000000000 ) ) ;
#566 = ORIENTED_EDGE ( 'NONE', *, *, #251, .T. ) ;
#567 = VECTOR ( 'NONE', #1093, 999.9999999999998863 ) ;
#568 =( GEOMETRIC_REPRESENTATION_CONTEXT ( 3 ) GLOBAL_UNCERTAINTY_ASSIGNED_CONTEXT ( ( #510 ) ) GLOBAL_UNIT_ASSIGNED_CONTEXT ( ( #775, #191, #615 ) ) REPRESENTATION_CONTEXT ( 'NONE', 'WORKASPACE' ) );
#569 = CONICAL_SURFACE ( 'NONE', #857, 53.69999999999999574, 0.7853981633974520538 ) ;
#570 = FACE_OUTER_BOUND ( 'NONE', #828, .T. ) ;
#571 = CARTESIAN_POINT ( 'NONE',  ( 39.99999999999997868, 17.49999999999998934, -32.99124883965444610 ) ) ;
#572 = ORIENTED_EDGE ( 'NONE', *, *, #299, .T. ) ;
#573 = VERTEX_POINT ( 'NONE', #1014 ) ;
#574 = ADVANCED_FACE ( 'NONE', ( #350 ), #704, .T. ) ;
#575 = CIRCLE ( 'NONE', #718, 49.85000000000000142 ) ;
#576 = ADVANCED_FACE ( 'NONE', ( #14 ), #682, .T. ) ;
#577 = DIRECTION ( 'NONE',  ( 0.000000000000000000, 1.000000000000000000, 0.000000000000000000 ) ) ;
#578 = VECTOR ( 'NONE', #152, 1000.000000000000000 ) ;
#579 = CYLINDRICAL_SURFACE ( 'NONE', #1008, 53.69999999999999574 ) ;
#580 = ORIENTED_EDGE ( 'NONE', *, *, #236, .T. ) ;
#581 = CARTESIAN_POINT ( 'NONE',  ( 0.000000000000000000, 2.699999999999997513, 0.000000000000000000 ) ) ;
#582 = CARTESIAN_POINT ( 'NONE',  ( 0.000000000000000000, 12.69999999999999751, 0.000000000000000000 ) ) ;
#583 = DIRECTION ( 'NONE',  ( -0.000000000000000000, -1.000000000000000000, -0.000000000000000000 ) ) ;
#584 = ORIENTED_EDGE ( 'NONE', *, *, #162, .F. ) ;
#585 = VERTEX_POINT ( 'NONE', #365 ) ;
#586 = DIRECTION ( 'NONE',  ( -0.000000000000000000, -1.000000000000000000, -0.000000000000000000 ) ) ;
#587 = EDGE_CURVE ( 'NONE', #681, #637, #146, .T. ) ;
#588 = CARTESIAN_POINT ( 'NONE',  ( 6.104864293749555655E-15, 3.499999999999999556, 49.85000000000000142 ) ) ;
#589 = ORIENTED_EDGE ( 'NONE', *, *, #503, .F. ) ;
#590 = ORIENTED_EDGE ( 'NONE', *, *, #727, .F. ) ;
#591 = DIRECTION ( 'NONE',  ( -0.000000000000000000, -1.000000000000000000, -0.000000000000000000 ) ) ;
#592 = CARTESIAN_POINT ( 'NONE',  ( 0.000000000000000000, 2.500000000000000000, 0.000000000000000000 ) ) ;
#593 = ORIENTED_EDGE ( 'NONE', *, *, #871, .T. ) ;
#594 = VERTEX_POINT ( 'NONE', #435 ) ;
#595 = CARTESIAN_POINT ( 'NONE',  ( 0.000000000000000000, 22.50000000000000000, 0.000000000000000000 ) ) ;
#596 = DIRECTION ( 'NONE',  ( 0.000000000000000000, 0.000000000000000000, -1.000000000000000000 ) ) ;
#597 = EDGE_LOOP ( 'NONE', ( #158, #421, #780, #527 ) ) ;
#598 = DIRECTION ( 'NONE',  ( 0.000000000000000000, 1.000000000000000000, 0.000000000000000000 ) ) ;
#599 = ORIENTED_EDGE ( 'NONE', *, *, #236, .F. ) ;
#600 = VECTOR ( 'NONE', #796, 1000.000000000000000 ) ;
#601 = DIRECTION ( 'NONE',  ( 0.000000000000000000, 0.000000000000000000, 1.000000000000000000 ) ) ;
#602 = ORIENTED_EDGE ( 'NONE', *, *, #24, .F. ) ;
#603 = PRESENTATION_STYLE_ASSIGNMENT (( #257 ) ) ;
#604 = VERTEX_POINT ( 'NONE', #771 ) ;
#605 = EDGE_CURVE ( 'NONE', #306, #1076, #1109, .T. ) ;
#606 = EDGE_CURVE ( 'NONE', #935, #959, #698, .T. ) ;
#607 = CARTESIAN_POINT ( 'NONE',  ( -40.00000000000000000, 22.49999999999998934, -51.85000000000000142 ) ) ;
#608 = CARTESIAN_POINT ( 'NONE',  ( -18.19022631717236038, 22.50000000000000000, 50.52529729284182736 ) ) ;
#609 = PLANE ( 'NONE',  #518 ) ;
#610 = VECTOR ( 'NONE', #933, 1000.000000000000000 ) ;
#611 = ORIENTED_EDGE ( 'NONE', *, *, #1074, .T. ) ;
#612 = EDGE_CURVE ( 'NONE', #1076, #637, #397, .T. ) ;
#613 = LINE ( 'NONE', #95, #487 ) ;
#614 = DIRECTION ( 'NONE',  ( 0.000000000000000000, 0.000000000000000000, -1.000000000000000000 ) ) ;
#615 =( NAMED_UNIT ( * ) SI_UNIT ( $, .STERADIAN. ) SOLID_ANGLE_UNIT ( ) );
#616 = ORIENTED_EDGE ( 'NONE', *, *, #1074, .F. ) ;
#617 = CARTESIAN_POINT ( 'NONE',  ( 0.000000000000000000, -0.5000000000000000000, -30.00000000000000711 ) ) ;
#618 = CIRCLE ( 'NONE', #758, 48.75000000000001421 ) ;
#619 = AXIS2_PLACEMENT_3D ( 'NONE', #1084, #77, #1011 ) ;
#620 = PLANE ( 'NONE',  #29 ) ;
#621 = EDGE_CURVE ( 'NONE', #1001, #659, #883, .T. ) ;
#622 = FACE_OUTER_BOUND ( 'NONE', #888, .T. ) ;
#623 = ORIENTED_EDGE ( 'NONE', *, *, #690, .T. ) ;
#624 = VECTOR ( 'NONE', #808, 1000.000000000000000 ) ;
#625 = MECHANICAL_DESIGN_GEOMETRIC_PRESENTATION_REPRESENTATION (  '', ( #964 ), #568 ) ;
#626 = LINE ( 'NONE', #969, #1020 ) ;
#627 = PRODUCT_CONTEXT ( 'NONE', #321, 'mechanical' ) ;
#628 = CARTESIAN_POINT ( 'NONE',  ( 18.19022631717200866, 12.69999999999999751, 50.52529729284195525 ) ) ;
#629 = AXIS2_PLACEMENT_3D ( 'NONE', #113, #474, #973 ) ;
#630 = DIRECTION ( 'NONE',  ( 0.000000000000000000, 1.000000000000000000, 0.000000000000000000 ) ) ;
#631 = EDGE_LOOP ( 'NONE', ( #920, #30, #653, #947, #263, #669 ) ) ;
#632 = EDGE_CURVE ( 'NONE', #442, #445, #182, .T. ) ;
#633 = AXIS2_PLACEMENT_3D ( 'NONE', #100, #348, #171 ) ;
#634 = CARTESIAN_POINT ( 'NONE',  ( 3.673940397442059967E-15, -0.5000000000000000000, 30.00000000000000711 ) ) ;
#635 = ORIENTED_EDGE ( 'NONE', *, *, #738, .T. ) ;
#636 = CARTESIAN_POINT ( 'NONE',  ( 5.921167273877452144E-15, 3.499999999999999556, -48.34999999999999432 ) ) ;
#637 = VERTEX_POINT ( 'NONE', #790 ) ;
#638 = PLANE ( 'NONE',  #395 ) ;
#639 = EDGE_CURVE ( 'NONE', #199, #798, #200, .T. ) ;
#640 =( LENGTH_UNIT ( ) NAMED_UNIT ( * ) SI_UNIT ( .MILLI., .METRE. ) );
#641 = LINE ( 'NONE', #809, #34 ) ;
#642 = DIRECTION ( 'NONE',  ( 0.000000000000000000, -1.000000000000000000, 0.000000000000000000 ) ) ;
#643 = VERTEX_POINT ( 'NONE', #1057 ) ;
#644 = ADVANCED_FACE ( 'NONE', ( #218 ), #559, .T. ) ;
#645 = DIRECTION ( 'NONE',  ( -0.000000000000000000, -1.000000000000000000, 0.000000000000000000 ) ) ;
#646 = CARTESIAN_POINT ( 'NONE',  ( -1.874925478958762549E-13, 12.69999999999999751, 53.69999999999999574 ) ) ;
#647 = ORIENTED_EDGE ( 'NONE', *, *, #156, .F. ) ;
#648 = ORIENTED_EDGE ( 'NONE', *, *, #176, .T. ) ;
#649 = AXIS2_PLACEMENT_3D ( 'NONE', #237, #923, #418 ) ;
#650 = LINE ( 'NONE', #730, #431 ) ;
#651 = ADVANCED_FACE ( 'NONE', ( #622 ), #35, .F. ) ;
#652 = DIRECTION ( 'NONE',  ( 0.9408807689542252328, 0.000000000000000000, -0.3387379202452920901 ) ) ;
#653 = ORIENTED_EDGE ( 'NONE', *, *, #606, .T. ) ;
#654 = CARTESIAN_POINT ( 'NONE',  ( 0.000000000000000000, -0.5000000000000000000, 0.000000000000000000 ) ) ;
#655 = AXIS2_PLACEMENT_3D ( 'NONE', #189, #357, #364 ) ;
#656 = DIRECTION ( 'NONE',  ( 0.000000000000000000, 0.000000000000000000, -1.000000000000000000 ) ) ;
#657 = EDGE_CURVE ( 'NONE', #531, #942, #459, .T. ) ;
#658 = VERTEX_POINT ( 'NONE', #28 ) ;
#659 = VERTEX_POINT ( 'NONE', #453 ) ;
#660 = AXIS2_PLACEMENT_3D ( 'NONE', #545, #642, #130 ) ;
#661 = VECTOR ( 'NONE', #127, 1000.000000000000000 ) ;
#662 = CARTESIAN_POINT ( 'NONE',  ( 0.000000000000000000, 2.000000000000000000, 0.000000000000000000 ) ) ;
#663 = LINE ( 'NONE', #62, #760 ) ;
#664 = VERTEX_POINT ( 'NONE', #278 ) ;
#665 = AXIS2_PLACEMENT_3D ( 'NONE', #358, #598, #449 ) ;
#666 = DIRECTION ( 'NONE',  ( 0.000000000000000000, 0.000000000000000000, 1.000000000000000000 ) ) ;
#667 = CARTESIAN_POINT ( 'NONE',  ( 0.000000000000000000, 2.500000000000000000, -51.85000000000000142 ) ) ;
#668 = ORIENTED_EDGE ( 'NONE', *, *, #423, .T. ) ;
#669 = ORIENTED_EDGE ( 'NONE', *, *, #303, .F. ) ;
#670 = CARTESIAN_POINT ( 'NONE',  ( -18.19022631717236038, 22.50000000000000000, 50.52529729284182736 ) ) ;
#671 = EDGE_CURVE ( 'NONE', #942, #149, #862, .T. ) ;
#672 = CARTESIAN_POINT ( 'NONE',  ( 6.159973399711187734E-15, -0.5000000000000000000, -48.75000000000001421 ) ) ;
#673 = PLANE ( 'NONE',  #280 ) ;
#674 = EDGE_LOOP ( 'NONE', ( #181, #1005, #786, #86 ) ) ;
#675 = ORIENTED_EDGE ( 'NONE', *, *, #492, .F. ) ;
#676 = LINE ( 'NONE', #1021, #992 ) ;
#677 = VECTOR ( 'NONE', #768, 1000.000000000000000 ) ;
#678 = AXIS2_PLACEMENT_3D ( 'NONE', #354, #748, #921 ) ;
#679 = FACE_BOUND ( 'NONE', #144, .T. ) ;
#680 = ORIENTED_EDGE ( 'NONE', *, *, #770, .F. ) ;
#681 = VERTEX_POINT ( 'NONE', #370 ) ;
#682 = CONICAL_SURFACE ( 'NONE', #665, 48.75000000000001421, 0.7853981633974449483 ) ;
#683 = FACE_OUTER_BOUND ( 'NONE', #392, .T. ) ;
#684 = CARTESIAN_POINT ( 'NONE',  ( 0.000000000000000000, 2.000000000000000000, 0.000000000000000000 ) ) ;
#685 = CIRCLE ( 'NONE', #633, 51.85000000000000142 ) ;
#686 = ORIENTED_EDGE ( 'NONE', *, *, #657, .T. ) ;
#687 = ORIENTED_EDGE ( 'NONE', *, *, #183, .T. ) ;
#688 = LINE ( 'NONE', #255, #677 ) ;
#689 = ORIENTED_EDGE ( 'NONE', *, *, #97, .T. ) ;
#690 = EDGE_CURVE ( 'NONE', #445, #442, #32, .T. ) ;
#691 = ORIENTED_EDGE ( 'NONE', *, *, #806, .T. ) ;
#692 = DIRECTION ( 'NONE',  ( 0.000000000000000000, 1.000000000000000000, 0.000000000000000000 ) ) ;
#693 = LINE ( 'NONE', #886, #80 ) ;
#694 = ORIENTED_EDGE ( 'NONE', *, *, #59, .T. ) ;
#695 = EDGE_CURVE ( 'NONE', #604, #811, #85, .T. ) ;
#696 = CARTESIAN_POINT ( 'NONE',  ( 0.000000000000000000, 4.550000000000001599, 0.000000000000000000 ) ) ;
#697 = PLANE ( 'NONE',  #274 ) ;
#698 = LINE ( 'NONE', #1067, #93 ) ;
#699 = ORIENTED_EDGE ( 'NONE', *, *, #132, .T. ) ;
#700 = DIRECTION ( 'NONE',  ( -0.000000000000000000, -1.000000000000000000, -0.000000000000000000 ) ) ;
#701 = EDGE_CURVE ( 'NONE', #199, #466, #224, .T. ) ;
#702 = DIRECTION ( 'NONE',  ( -0.000000000000000000, -0.000000000000000000, 1.000000000000000000 ) ) ;
#703 = CARTESIAN_POINT ( 'NONE',  ( 0.000000000000000000, 0.000000000000000000, 0.000000000000000000 ) ) ;
#704 = PLANE ( 'NONE',  #38 ) ;
#705 = AXIS2_PLACEMENT_3D ( 'NONE', #308, #208, #742 ) ;
#706 = VERTEX_POINT ( 'NONE', #902 ) ;
#707 = CARTESIAN_POINT ( 'NONE',  ( 0.000000000000000000, -0.5000000000000000000, 48.75000000000001421 ) ) ;
#708 = CARTESIAN_POINT ( 'NONE',  ( 40.00000000000000000, 22.49999999999998934, -51.85000000000000142 ) ) ;
#709 = AXIS2_PLACEMENT_3D ( 'NONE', #1071, #209, #894 ) ;
#710 = DIRECTION ( 'NONE',  ( -0.3387379202452954208, 0.000000000000000000, 0.9408807689542241226 ) ) ;
#711 = DIRECTION ( 'NONE',  ( 0.000000000000000000, 0.000000000000000000, -1.000000000000000000 ) ) ;
#712 = ORIENTED_EDGE ( 'NONE', *, *, #639, .T. ) ;
#713 = VECTOR ( 'NONE', #363, 1000.000000000000000 ) ;
#714 = AXIS2_PLACEMENT_3D ( 'NONE', #793, #126, #388 ) ;
#715 = AXIS2_PLACEMENT_3D ( 'NONE', #241, #586, #248 ) ;
#716 = LINE ( 'NONE', #707, #54 ) ;
#717 = CARTESIAN_POINT ( 'NONE',  ( 39.99999999999995737, 2.499999999999944489, -32.99124883965447452 ) ) ;
#718 = AXIS2_PLACEMENT_3D ( 'NONE', #5, #174, #107 ) ;
#719 = CARTESIAN_POINT ( 'NONE',  ( 0.000000000000000000, 3.499999999999999556, 48.34999999999999432 ) ) ;
#720 = ORIENTED_EDGE ( 'NONE', *, *, #701, .T. ) ;
#721 = AXIS2_PLACEMENT_3D ( 'NONE', #934, #941, #426 ) ;
#722 = DIRECTION ( 'NONE',  ( 0.000000000000000000, -0.000000000000000000, -1.000000000000000000 ) ) ;
#723 =( NAMED_UNIT ( * ) PLANE_ANGLE_UNIT ( ) SI_UNIT ( $, .RADIAN. ) );
#724 = CARTESIAN_POINT ( 'NONE',  ( 48.78466787027657858, 22.50000000000000000, 17.56356116471839357 ) ) ;
#725 = LINE ( 'NONE', #301, #945 ) ;
#726 = ORIENTED_EDGE ( 'NONE', *, *, #770, .T. ) ;
#727 = EDGE_CURVE ( 'NONE', #149, #187, #512, .T. ) ;
#728 = DIRECTION ( 'NONE',  ( 0.000000000000000000, -1.000000000000000000, 0.000000000000000000 ) ) ;
#729 = DIRECTION ( 'NONE',  ( 1.000000000000000000, 0.000000000000000000, 0.000000000000000000 ) ) ;
#730 = CARTESIAN_POINT ( 'NONE',  ( 17.56356116471822304, 22.50000000000000000, 48.78466787027664253 ) ) ;
#731 = DIRECTION ( 'NONE',  ( -0.000000000000000000, -1.000000000000000000, -0.000000000000000000 ) ) ;
#732 = EDGE_LOOP ( 'NONE', ( #1108, #78, #58, #752 ) ) ;
#733 = ORIENTED_EDGE ( 'NONE', *, *, #863, .T. ) ;
#734 = EDGE_CURVE ( 'NONE', #402, #959, #135, .T. ) ;
#735 = DIRECTION ( 'NONE',  ( 0.000000000000000000, 0.000000000000000000, -1.000000000000000000 ) ) ;
#736 = CARTESIAN_POINT ( 'NONE',  ( 0.000000000000000000, -6.249194117641132529, 0.000000000000000000 ) ) ;
#737 = ORIENTED_EDGE ( 'NONE', *, *, #61, .T. ) ;
#738 = EDGE_CURVE ( 'NONE', #1086, #153, #461, .T. ) ;
#739 = DIRECTION ( 'NONE',  ( 0.000000000000000000, 1.000000000000000000, 0.000000000000000000 ) ) ;
#740 = LINE ( 'NONE', #221, #382 ) ;
#741 = ORIENTED_EDGE ( 'NONE', *, *, #612, .T. ) ;
#742 = DIRECTION ( 'NONE',  ( 0.000000000000000000, 0.000000000000000000, 1.000000000000000000 ) ) ;
#743 = CARTESIAN_POINT ( 'NONE',  ( -51.85000000000000142, 12.69999999999999751, 0.000000000000000000 ) ) ;
#744 = EDGE_LOOP ( 'NONE', ( #498, #566, #926, #1012 ) ) ;
#745 = CARTESIAN_POINT ( 'NONE',  ( 0.000000000000000000, 12.69999999999999751, 0.000000000000000000 ) ) ;
#746 = DIRECTION ( 'NONE',  ( 1.000000000000000000, 0.000000000000000000, 0.000000000000000000 ) ) ;
#747 = VERTEX_POINT ( 'NONE', #377 ) ;
#748 = DIRECTION ( 'NONE',  ( 0.000000000000000000, 0.000000000000000000, -1.000000000000000000 ) ) ;
#749 = AXIS2_PLACEMENT_3D ( 'NONE', #1010, #407, #666 ) ;
#750 = DIRECTION ( 'NONE',  ( -0.000000000000000000, -1.000000000000000000, -0.000000000000000000 ) ) ;
#751 = CARTESIAN_POINT ( 'NONE',  ( 0.000000000000000000, -49.14999999999957936, 0.000000000000000000 ) ) ;
#752 = ORIENTED_EDGE ( 'NONE', *, *, #1007, .F. ) ;
#753 = ORIENTED_EDGE ( 'NONE', *, *, #1036, .F. ) ;
#754 = AXIS2_PLACEMENT_3D ( 'NONE', #96, #866, #439 ) ;
#755 = DIRECTION ( 'NONE',  ( 0.000000000000000000, -1.000000000000000000, 0.000000000000000000 ) ) ;
#756 = CARTESIAN_POINT ( 'NONE',  ( 0.000000000000000000, 22.50000000000000000, 0.000000000000000000 ) ) ;
#757 = EDGE_LOOP ( 'NONE', ( #602, #460, #555, #993 ) ) ;
#758 = AXIS2_PLACEMENT_3D ( 'NONE', #197, #536, #33 ) ;
#759 = ORIENTED_EDGE ( 'NONE', *, *, #1055, .F. ) ;
#760 = VECTOR ( 'NONE', #652, 1000.000000000000000 ) ;
#761 = CARTESIAN_POINT ( 'NONE',  ( 0.000000000000000000, 22.50000000000000000, 0.000000000000000000 ) ) ;
#762 = VECTOR ( 'NONE', #335, 1000.000000000000000 ) ;
#763 = CIRCLE ( 'NONE', #1104, 53.69999999999999574 ) ;
#764 = FACE_OUTER_BOUND ( 'NONE', #597, .T. ) ;
#765 = ORIENTED_EDGE ( 'NONE', *, *, #128, .F. ) ;
#766 = ORIENTED_EDGE ( 'NONE', *, *, #55, .F. ) ;
#767 = EDGE_CURVE ( 'NONE', #149, #798, #725, .T. ) ;
#768 = DIRECTION ( 'NONE',  ( -0.9408807689542252328, 0.000000000000000000, 0.3387379202452920901 ) ) ;
#769 = ORIENTED_EDGE ( 'NONE', *, *, #176, .F. ) ;
#770 = EDGE_CURVE ( 'NONE', #466, #843, #138, .T. ) ;
#771 = CARTESIAN_POINT ( 'NONE',  ( -48.78466787027657858, 12.69999999999999751, 17.56356116471839357 ) ) ;
#772 = EDGE_LOOP ( 'NONE', ( #401, #1073, #136, #223 ) ) ;
#773 = CARTESIAN_POINT ( 'NONE',  ( 3.673940397442059178E-15, 2.000000000000000000, 30.00000000000000000 ) ) ;
#774 = FACE_OUTER_BOUND ( 'NONE', #837, .T. ) ;
#775 =( LENGTH_UNIT ( ) NAMED_UNIT ( * ) SI_UNIT ( .MILLI., .METRE. ) );
#776 = EDGE_LOOP ( 'NONE', ( #371, #210, #691, #1072, #289, #250 ) ) ;
#777 = CARTESIAN_POINT ( 'NONE',  ( 0.000000000000000000, 22.50000000000000000, 0.000000000000000000 ) ) ;
#778 = LINE ( 'NONE', #353, #600 ) ;
#779 = DIRECTION ( 'NONE',  ( 0.000000000000000000, -0.000000000000000000, 1.000000000000000000 ) ) ;
#780 = ORIENTED_EDGE ( 'NONE', *, *, #145, .F. ) ;
#781 = EDGE_CURVE ( 'NONE', #504, #108, #810, .T. ) ;
#782 = CARTESIAN_POINT ( 'NONE',  ( 0.000000000000000000, 2.500000000000000000, -30.00000000000000000 ) ) ;
#783 = CARTESIAN_POINT ( 'NONE',  ( 0.000000000000000000, -6.249194117641132529, 0.000000000000000000 ) ) ;
#784 = PLANE ( 'NONE',  #507 ) ;
#785 = CARTESIAN_POINT ( 'NONE',  ( -39.99999999999999289, 17.49999999999998934, -32.99124883965448163 ) ) ;
#786 = ORIENTED_EDGE ( 'NONE', *, *, #657, .F. ) ;
#787 = FACE_OUTER_BOUND ( 'NONE', #131, .T. ) ;
#788 = EDGE_CURVE ( 'NONE', #531, #36, #999, .T. ) ;
#789 = DIRECTION ( 'NONE',  ( 0.000000000000000000, 1.000000000000000000, 0.000000000000000000 ) ) ;
#790 = CARTESIAN_POINT ( 'NONE',  ( -51.85000000000000142, 2.699999999999997513, 0.000000000000000000 ) ) ;
#791 = VECTOR ( 'NONE', #1047, 1000.000000000000000 ) ;
#792 = ORIENTED_EDGE ( 'NONE', *, *, #975, .T. ) ;
#793 = CARTESIAN_POINT ( 'NONE',  ( 0.000000000000000000, 0.000000000000000000, 0.000000000000000000 ) ) ;
#794 = SHAPE_DEFINITION_REPRESENTATION ( #846, #22 ) ;
#795 = AXIS2_PLACEMENT_3D ( 'NONE', #385, #966, #538 ) ;
#796 = DIRECTION ( 'NONE',  ( 0.000000000000000000, 1.000000000000000000, 0.000000000000000000 ) ) ;
#797 = DIRECTION ( 'NONE',  ( 0.000000000000000000, 0.000000000000000000, -1.000000000000000000 ) ) ;
#798 = VERTEX_POINT ( 'NONE', #1000 ) ;
#799 = AXIS2_PLACEMENT_3D ( 'NONE', #463, #739, #1070 ) ;
#800 = DIRECTION ( 'NONE',  ( 0.000000000000000000, -1.000000000000000000, 0.000000000000000000 ) ) ;
#801 = CARTESIAN_POINT ( 'NONE',  ( 0.000000000000000000, 17.49999999999998934, 0.000000000000000000 ) ) ;
#802 = CARTESIAN_POINT ( 'NONE',  ( 0.000000000000000000, -49.14999999999957936, 0.000000000000000000 ) ) ;
#803 = EDGE_CURVE ( 'NONE', #706, #167, #372, .T. ) ;
#804 = DIRECTION ( 'NONE',  ( -0.2395238804504766783, 0.7071067811865462405, 0.6653031720155463402 ) ) ;
#805 = ORIENTED_EDGE ( 'NONE', *, *, #530, .F. ) ;
#806 = EDGE_CURVE ( 'NONE', #1076, #1094, #1075, .T. ) ;
#807 = CARTESIAN_POINT ( 'NONE',  ( 0.000000000000000000, 12.69999999999999751, 0.000000000000000000 ) ) ;
#808 = DIRECTION ( 'NONE',  ( 0.000000000000000000, -1.000000000000000000, 0.000000000000000000 ) ) ;
#809 = CARTESIAN_POINT ( 'NONE',  ( -1.810333074190164866E-13, 22.50000000000000000, 51.85000000000000142 ) ) ;
#810 = LINE ( 'NONE', #47, #476 ) ;
#811 = VERTEX_POINT ( 'NONE', #743 ) ;
#812 = EDGE_CURVE ( 'NONE', #420, #942, #408, .T. ) ;
#813 = LINE ( 'NONE', #989, #88 ) ;
#814 = CARTESIAN_POINT ( 'NONE',  ( 0.000000000000000000, -0.5000000000000000000, 0.000000000000000000 ) ) ;
#815 = ORIENTED_EDGE ( 'NONE', *, *, #423, .F. ) ;
#816 = AXIS2_PLACEMENT_3D ( 'NONE', #756, #264, #601 ) ;
#817 = EDGE_CURVE ( 'NONE', #681, #306, #414, .T. ) ;
#818 = COLOUR_RGB ( '',0.7921568627450980005, 0.8196078431372548767, 0.9333333333333333481 ) ;
#819 = CARTESIAN_POINT ( 'NONE',  ( 0.000000000000000000, 2.000000000000000000, -30.00000000000000000 ) ) ;
#820 = LINE ( 'NONE', #57, #40 ) ;
#821 = EDGE_LOOP ( 'NONE', ( #1080, #1026, #472, #590, #1107, #6 ) ) ;
#822 = AXIS2_PLACEMENT_3D ( 'NONE', #636, #305, #554 ) ;
#823 = ORIENTED_EDGE ( 'NONE', *, *, #977, .F. ) ;
#824 = CONICAL_SURFACE ( 'NONE', #347, 53.69999999999999574, 0.7853981633974520538 ) ;
#825 = PRODUCT_DEFINITION ( 'UNKNOWN', '', #533, #938 ) ;
#826 = DIRECTION ( 'NONE',  ( 0.000000000000000000, 1.000000000000000000, 0.000000000000000000 ) ) ;
#827 = DIRECTION ( 'NONE',  ( -0.000000000000000000, -1.000000000000000000, -0.000000000000000000 ) ) ;
#828 = EDGE_LOOP ( 'NONE', ( #954, #712, #331, #680 ) ) ;
#829 = DIRECTION ( 'NONE',  ( 0.000000000000000000, 1.000000000000000000, 0.000000000000000000 ) ) ;
#830 = ADVANCED_FACE ( 'NONE', ( #330 ), #673, .F. ) ;
#831 = CYLINDRICAL_SURFACE ( 'NONE', #522, 51.85000000000000142 ) ;
#832 = ORIENTED_EDGE ( 'NONE', *, *, #464, .F. ) ;
#833 = ORIENTED_EDGE ( 'NONE', *, *, #376, .F. ) ;
#834 = FACE_OUTER_BOUND ( 'NONE', #931, .T. ) ;
#835 = LINE ( 'NONE', #70, #164 ) ;
#836 = DIRECTION ( 'NONE',  ( 0.000000000000000000, 0.000000000000000000, 1.000000000000000000 ) ) ;
#837 = EDGE_LOOP ( 'NONE', ( #114, #737, #1064, #205 ) ) ;
#838 = EDGE_CURVE ( 'NONE', #434, #91, #663, .T. ) ;
#839 = ORIENTED_EDGE ( 'NONE', *, *, #299, .F. ) ;
#840 = AXIS2_PLACEMENT_3D ( 'NONE', #322, #841, #329 ) ;
#841 = DIRECTION ( 'NONE',  ( 0.000000000000000000, 1.000000000000000000, 0.000000000000000000 ) ) ;
#842 = CARTESIAN_POINT ( 'NONE',  ( 50.52529729284189131, 22.50000000000000000, 18.19022631717218630 ) ) ;
#843 = VERTEX_POINT ( 'NONE', #588 ) ;
#844 = ORIENTED_EDGE ( 'NONE', *, *, #727, .T. ) ;
#845 = ADVANCED_FACE ( 'NONE', ( #913 ), #313, .T. ) ;
#846 = PRODUCT_DEFINITION_SHAPE ( 'NONE', 'NONE',  #825 ) ;
#847 = VECTOR ( 'NONE', #893, 1000.000000000000000 ) ;
#848 = CARTESIAN_POINT ( 'NONE',  ( 0.000000000000000000, 2.699999999999997513, 0.000000000000000000 ) ) ;
#849 = DIRECTION ( 'NONE',  ( 0.000000000000000000, 0.000000000000000000, 1.000000000000000000 ) ) ;
#850 = ORIENTED_EDGE ( 'NONE', *, *, #975, .F. ) ;
#851 = CLOSED_SHELL ( 'NONE', ( #576, #222, #409, #924, #651, #268, #644, #574, #485, #1069, #845, #830, #540, #94, #957, #73, #456, #892, #440, #523, #854, #490, #288, #4, #116, #1022, #930, #471, #997, #110, #258, #387, #967, #277 ) ) ;
#852 = ORIENTED_EDGE ( 'NONE', *, *, #320, .F. ) ;
#853 = AXIS2_PLACEMENT_3D ( 'NONE', #238, #583, #157 ) ;
#854 = ADVANCED_FACE ( 'NONE', ( #481 ), #1088, .T. ) ;
#855 = DIRECTION ( 'NONE',  ( -0.000000000000000000, -1.000000000000000000, -0.000000000000000000 ) ) ;
#856 = CIRCLE ( 'NONE', #874, 53.69999999999999574 ) ;
#857 = AXIS2_PLACEMENT_3D ( 'NONE', #1097, #1003, #446 ) ;
#858 = CARTESIAN_POINT ( 'NONE',  ( -17.56356116471856410, 2.699999999999997513, 48.78466787027651463 ) ) ;
#859 = ORIENTED_EDGE ( 'NONE', *, *, #1030, .F. ) ;
#860 = SURFACE_SIDE_STYLE ('',( #1091 ) ) ;
#861 = ORIENTED_EDGE ( 'NONE', *, *, #788, .F. ) ;
#862 = CIRCLE ( 'NONE', #380, 49.85000000000000142 ) ;
#863 = EDGE_CURVE ( 'NONE', #120, #63, #820, .T. ) ;
#864 = DIRECTION ( 'NONE',  ( 0.000000000000000000, 0.000000000000000000, 1.000000000000000000 ) ) ;
#865 = VECTOR ( 'NONE', #160, 1000.000000000000000 ) ;
#866 = DIRECTION ( 'NONE',  ( 0.000000000000000000, 1.000000000000000000, 0.000000000000000000 ) ) ;
#867 = DIRECTION ( 'NONE',  ( 0.000000000000000000, 1.000000000000000000, 0.000000000000000000 ) ) ;
#868 = ORIENTED_EDGE ( 'NONE', *, *, #137, .F. ) ;
#869 = LINE ( 'NONE', #1041, #477 ) ;
#870 = CARTESIAN_POINT ( 'NONE',  ( 0.000000000000000000, 0.000000000000000000, 0.000000000000000000 ) ) ;
#871 = EDGE_CURVE ( 'NONE', #664, #1094, #916, .T. ) ;
#872 = ORIENTED_EDGE ( 'NONE', *, *, #903, .F. ) ;
#873 = FACE_OUTER_BOUND ( 'NONE', #79, .T. ) ;
#874 = AXIS2_PLACEMENT_3D ( 'NONE', #293, #961, #207 ) ;
#875 = CARTESIAN_POINT ( 'NONE',  ( 0.000000000000000000, 22.50000000000000000, 0.000000000000000000 ) ) ;
#876 = AXIS2_PLACEMENT_3D ( 'NONE', #206, #880, #542 ) ;
#877 = DIRECTION ( 'NONE',  ( 0.000000000000000000, 0.000000000000000000, -1.000000000000000000 ) ) ;
#878 = ORIENTED_EDGE ( 'NONE', *, *, #394, .F. ) ;
#879 = EDGE_CURVE ( 'NONE', #1086, #324, #1004, .T. ) ;
#880 = DIRECTION ( 'NONE',  ( 0.9408807689542264541, 0.000000000000000000, -0.3387379202452888149 ) ) ;
#881 = DIRECTION ( 'NONE',  ( -0.000000000000000000, -1.000000000000000000, -0.000000000000000000 ) ) ;
#882 = PLANE ( 'NONE',  #25 ) ;
#883 = LINE ( 'NONE', #990, #484 ) ;
#884 = ORIENTED_EDGE ( 'NONE', *, *, #122, .F. ) ;
#885 = PLANE ( 'NONE',  #714 ) ;
#886 = CARTESIAN_POINT ( 'NONE',  ( -50.52529729284189131, 22.50000000000000000, 18.19022631717218630 ) ) ;
#887 = DIRECTION ( 'NONE',  ( -0.000000000000000000, 1.000000000000000000, -0.000000000000000000 ) ) ;
#888 = EDGE_LOOP ( 'NONE', ( #668, #1089, #623, #339 ) ) ;
#889 = CARTESIAN_POINT ( 'NONE',  ( 40.00000000000000000, 22.49999999999998934, -32.99124883965443900 ) ) ;
#890 = EDGE_CURVE ( 'NONE', #643, #1086, #740, .T. ) ;
#891 = CARTESIAN_POINT ( 'NONE',  ( 50.52529729284189131, 4.550000000000008704, 18.19022631717218630 ) ) ;
#892 = ADVANCED_FACE ( 'NONE', ( #1079 ), #579, .T. ) ;
#893 = DIRECTION ( 'NONE',  ( -0.000000000000000000, -1.000000000000000000, -0.000000000000000000 ) ) ;
#894 = DIRECTION ( 'NONE',  ( 0.000000000000000000, 0.000000000000000000, -1.000000000000000000 ) ) ;
#895 = VERTEX_POINT ( 'NONE', #571 ) ;
#896 = CARTESIAN_POINT ( 'NONE',  ( -39.99999999999999289, 22.50000000000000000, -29.74932772349654897 ) ) ;
#897 = CARTESIAN_POINT ( 'NONE',  ( 39.99999999999997868, 17.49999999999998934, -29.74932772349654897 ) ) ;
#898 = DIRECTION ( 'NONE',  ( 0.000000000000000000, 0.000000000000000000, 1.000000000000000000 ) ) ;
#899 = ORIENTED_EDGE ( 'NONE', *, *, #838, .T. ) ;
#900 = AXIS2_PLACEMENT_3D ( 'NONE', #662, #499, #1027 ) ;
#901 = CARTESIAN_POINT ( 'NONE',  ( 6.104864293749555655E-15, 22.50000000000000000, 49.85000000000000142 ) ) ;
#902 = CARTESIAN_POINT ( 'NONE',  ( 17.56356116471822304, 22.50000000000000000, 48.78466787027664253 ) ) ;
#903 = EDGE_CURVE ( 'NONE', #36, #594, #148, .T. ) ;
#904 = ORIENTED_EDGE ( 'NONE', *, *, #432, .F. ) ;
#905 = ORIENTED_EDGE ( 'NONE', *, *, #530, .T. ) ;
#906 = CIRCLE ( 'NONE', #655, 51.85000000000000142 ) ;
#907 = CARTESIAN_POINT ( 'NONE',  ( 39.99999999999998579, 22.49999999999998934, -29.74932772349654186 ) ) ;
#908 = VECTOR ( 'NONE', #71, 1000.000000000000000 ) ;
#909 = CARTESIAN_POINT ( 'NONE',  ( -53.69999999999999574, 22.50000000000000000, 0.000000000000000000 ) ) ;
#910 = ORIENTED_EDGE ( 'NONE', *, *, #67, .T. ) ;
#911 = TOROIDAL_SURFACE ( 'NONE', #799, 48.34999999999999432, 1.500000000000000000 ) ;
#912 = DIRECTION ( 'NONE',  ( -0.000000000000000000, -1.000000000000000000, 0.000000000000000000 ) ) ;
#913 = FACE_OUTER_BOUND ( 'NONE', #772, .T. ) ;
#914 = ORIENTED_EDGE ( 'NONE', *, *, #432, .T. ) ;
#915 = AXIS2_PLACEMENT_3D ( 'NONE', #1034, #262, #271 ) ;
#916 = CIRCLE ( 'NONE', #972, 53.69999999999999574 ) ;
#917 = CYLINDRICAL_SURFACE ( 'NONE', #715, 30.00000000000000000 ) ;
#918 = DIRECTION ( 'NONE',  ( 0.000000000000000000, 0.000000000000000000, 1.000000000000000000 ) ) ;
#919 = EDGE_LOOP ( 'NONE', ( #1050, #398, #256, #872, #427, #1013, #859, #125, #386, #228, #48, #103, #346, #580, #1099 ) ) ;
#920 = ORIENTED_EDGE ( 'NONE', *, *, #97, .F. ) ;
#921 = DIRECTION ( 'NONE',  ( -1.000000000000000000, 0.000000000000000000, 0.000000000000000000 ) ) ;
#922 = EDGE_CURVE ( 'NONE', #167, #643, #405, .T. ) ;
#923 = DIRECTION ( 'NONE',  ( -0.000000000000000000, 1.000000000000000000, -0.000000000000000000 ) ) ;
#924 = ADVANCED_FACE ( 'NONE', ( #493 ), #831, .T. ) ;
#925 = ORIENTED_EDGE ( 'NONE', *, *, #621, .F. ) ;
#926 = ORIENTED_EDGE ( 'NONE', *, *, #150, .F. ) ;
#927 = FACE_OUTER_BOUND ( 'NONE', #219, .T. ) ;
#928 = DIRECTION ( 'NONE',  ( 0.000000000000000000, 1.000000000000000000, 0.000000000000000000 ) ) ;
#929 = ORIENTED_EDGE ( 'NONE', *, *, #561, .F. ) ;
#930 = ADVANCED_FACE ( 'NONE', ( #83 ), #955, .F. ) ;
#931 = EDGE_LOOP ( 'NONE', ( #833, #694, #687, #878 ) ) ;
#932 = AXIS2_PLACEMENT_3D ( 'NONE', #745, #1105, #76 ) ;
#933 = DIRECTION ( 'NONE',  ( 0.000000000000000000, -1.000000000000000000, 0.000000000000000000 ) ) ;
#934 = CARTESIAN_POINT ( 'NONE',  ( -40.00000000000000000, 22.49999999999998934, -51.85000000000000142 ) ) ;
#935 = VERTEX_POINT ( 'NONE', #188 ) ;
#936 = EDGE_CURVE ( 'NONE', #968, #521, #292, .T. ) ;
#937 = ORIENTED_EDGE ( 'NONE', *, *, #327, .T. ) ;
#938 = PRODUCT_DEFINITION_CONTEXT ( 'detailed design', #109, 'design' ) ;
#939 = VECTOR ( 'NONE', #956, 1000.000000000000000 ) ;
#940 = CARTESIAN_POINT ( 'NONE',  ( 51.85000000000000142, 22.50000000000000000, 0.000000000000000000 ) ) ;
#941 = DIRECTION ( 'NONE',  ( -1.000000000000000000, -1.387778780781445873E-15, 0.000000000000000000 ) ) ;
#942 = VERTEX_POINT ( 'NONE', #1098 ) ;
#943 = DIRECTION ( 'NONE',  ( 0.000000000000000000, 0.000000000000000000, -1.000000000000000000 ) ) ;
#944 = ORIENTED_EDGE ( 'NONE', *, *, #903, .T. ) ;
#945 = VECTOR ( 'NONE', #985, 1000.000000000000000 ) ;
#946 = LINE ( 'NONE', #607, #762 ) ;
#947 = ORIENTED_EDGE ( 'NONE', *, *, #333, .F. ) ;
#948 = CARTESIAN_POINT ( 'NONE',  ( -53.69999999999999574, 12.69999999999999751, 0.000000000000000000 ) ) ;
#949 = EDGE_LOOP ( 'NONE', ( #15, #699, #66, #483, #161, #514 ) ) ;
#950 = EDGE_CURVE ( 'NONE', #843, #798, #541, .T. ) ;
#951 = CIRCLE ( 'NONE', #309, 53.69999999999999574 ) ;
#952 = DIRECTION ( 'NONE',  ( -0.000000000000000000, -1.000000000000000000, -0.000000000000000000 ) ) ;
#953 = CARTESIAN_POINT ( 'NONE',  ( 18.19022631717200866, 22.50000000000000000, 50.52529729284195525 ) ) ;
#954 = ORIENTED_EDGE ( 'NONE', *, *, #701, .F. ) ;
#955 = PLANE ( 'NONE',  #721 ) ;
#956 = DIRECTION ( 'NONE',  ( 0.000000000000000000, -1.000000000000000000, 0.000000000000000000 ) ) ;
#957 = ADVANCED_FACE ( 'NONE', ( #166 ), #1106, .T. ) ;
#958 = DIRECTION ( 'NONE',  ( 0.000000000000000000, 1.000000000000000000, 0.000000000000000000 ) ) ;
#959 = VERTEX_POINT ( 'NONE', #513 ) ;
#960 = CARTESIAN_POINT ( 'NONE',  ( 0.000000000000000000, 22.50000000000000000, 0.000000000000000000 ) ) ;
#961 = DIRECTION ( 'NONE',  ( -0.000000000000000000, 1.000000000000000000, -0.000000000000000000 ) ) ;
#962 = AXIS2_PLACEMENT_3D ( 'NONE', #684, #692, #12 ) ;
#963 = DIRECTION ( 'NONE',  ( 0.000000000000000000, 1.000000000000000000, 0.000000000000000000 ) ) ;
#964 = STYLED_ITEM ( 'NONE', ( #603 ), #537 ) ;
#965 = VECTOR ( 'NONE', #139, 1000.000000000000114 ) ;
#966 = DIRECTION ( 'NONE',  ( 0.000000000000000000, -1.000000000000000000, 0.000000000000000000 ) ) ;
#967 = ADVANCED_FACE ( 'NONE', ( #764 ), #824, .T. ) ;
#968 = VERTEX_POINT ( 'NONE', #528 ) ;
#969 = CARTESIAN_POINT ( 'NONE',  ( -48.78466787027657858, 22.50000000000000000, 17.56356116471839357 ) ) ;
#970 = VECTOR ( 'NONE', #287, 1000.000000000000000 ) ;
#971 = LINE ( 'NONE', #375, #169 ) ;
#972 = AXIS2_PLACEMENT_3D ( 'NONE', #400, #995, #918 ) ;
#973 = DIRECTION ( 'NONE',  ( 0.000000000000000000, 0.000000000000000000, -1.000000000000000000 ) ) ;
#974 = ORIENTED_EDGE ( 'NONE', *, *, #516, .F. ) ;
#975 = EDGE_CURVE ( 'NONE', #594, #509, #685, .T. ) ;
#976 = CARTESIAN_POINT ( 'NONE',  ( 0.000000000000000000, 2.000000000000000000, 48.34999999999999432 ) ) ;
#977 = EDGE_CURVE ( 'NONE', #324, #167, #613, .T. ) ;
#978 = LINE ( 'NONE', #26, #713 ) ;
#979 = LINE ( 'NONE', #549, #515 ) ;
#980 = DIRECTION ( 'NONE',  ( 0.000000000000000000, 0.000000000000000000, -1.000000000000000000 ) ) ;
#981 = ORIENTED_EDGE ( 'NONE', *, *, #690, .F. ) ;
#982 = FACE_OUTER_BOUND ( 'NONE', #417, .T. ) ;
#983 =( NAMED_UNIT ( * ) SI_UNIT ( $, .STERADIAN. ) SOLID_ANGLE_UNIT ( ) );
#984 = CARTESIAN_POINT ( 'NONE',  ( 18.19022631717200866, 22.50000000000000000, 50.52529729284195525 ) ) ;
#985 = DIRECTION ( 'NONE',  ( -0.000000000000000000, -1.000000000000000000, -0.000000000000000000 ) ) ;
#986 = VERTEX_POINT ( 'NONE', #773 ) ;
#987 = EDGE_CURVE ( 'NONE', #509, #594, #245, .T. ) ;
#988 = DIRECTION ( 'NONE',  ( 0.000000000000000000, -1.000000000000000000, 0.000000000000000000 ) ) ;
#989 = CARTESIAN_POINT ( 'NONE',  ( -17.56356116471856410, 22.50000000000000000, 48.78466787027651463 ) ) ;
#990 = CARTESIAN_POINT ( 'NONE',  ( 0.000000000000000000, -49.14999999999980673, 0.000000000000000000 ) ) ;
#991 = ORIENTED_EDGE ( 'NONE', *, *, #1007, .T. ) ;
#992 = VECTOR ( 'NONE', #511, 1000.000000000000000 ) ;
#993 = ORIENTED_EDGE ( 'NONE', *, *, #632, .T. ) ;
#994 = DIRECTION ( 'NONE',  ( -0.000000000000000000, -1.000000000000000000, 0.000000000000000000 ) ) ;
#995 = DIRECTION ( 'NONE',  ( 0.000000000000000000, -1.000000000000000000, 0.000000000000000000 ) ) ;
#996 = EDGE_LOOP ( 'NONE', ( #884, #616, #904, #319 ) ) ;
#997 = ADVANCED_FACE ( 'NONE', ( #184, #679 ), #343, .T. ) ;
#998 = FACE_OUTER_BOUND ( 'NONE', #757, .T. ) ;
#999 = CIRCLE ( 'NONE', #853, 51.85000000000000142 ) ;
#1000 = CARTESIAN_POINT ( 'NONE',  ( 0.000000000000000000, 3.499999999999999556, -49.85000000000000142 ) ) ;
#1001 = VERTEX_POINT ( 'NONE', #858 ) ;
#1002 = AXIS2_PLACEMENT_3D ( 'NONE', #16, #755, #1087 ) ;
#1003 = DIRECTION ( 'NONE',  ( -0.000000000000000000, 1.000000000000000000, -0.000000000000000000 ) ) ;
#1004 = LINE ( 'NONE', #842, #865 ) ;
#1005 = ORIENTED_EDGE ( 'NONE', *, *, #812, .T. ) ;
#1006 = AXIS2_PLACEMENT_3D ( 'NONE', #51, #731, #980 ) ;
#1007 = EDGE_CURVE ( 'NONE', #63, #215, #688, .T. ) ;
#1008 = AXIS2_PLACEMENT_3D ( 'NONE', #736, #488, #656 ) ;
#1009 = EDGE_CURVE ( 'NONE', #546, #1035, #869, .T. ) ;
#1010 = CARTESIAN_POINT ( 'NONE',  ( 0.000000000000000000, 22.50000000000000000, 0.000000000000000000 ) ) ;
#1011 = DIRECTION ( 'NONE',  ( 0.9408807689542252328, 0.000000000000000000, 0.3387379202452920901 ) ) ;
#1012 = ORIENTED_EDGE ( 'NONE', *, *, #734, .T. ) ;
#1013 = ORIENTED_EDGE ( 'NONE', *, *, #42, .T. ) ;
#1014 = CARTESIAN_POINT ( 'NONE',  ( -50.52529729284189131, 22.50000000000000000, -18.19022631717218630 ) ) ;
#1015 = CARTESIAN_POINT ( 'NONE',  ( -50.52529729284189131, 22.50000000000000000, -18.19022631717218630 ) ) ;
#1016 = DIRECTION ( 'NONE',  ( 0.000000000000000000, -1.000000000000000000, 0.000000000000000000 ) ) ;
#1017 = ORIENTED_EDGE ( 'NONE', *, *, #987, .F. ) ;
#1018 = ORIENTED_EDGE ( 'NONE', *, *, #1055, .T. ) ;
#1019 =( GEOMETRIC_REPRESENTATION_CONTEXT ( 3 ) GLOBAL_UNCERTAINTY_ASSIGNED_CONTEXT ( ( #253 ) ) GLOBAL_UNIT_ASSIGNED_CONTEXT ( ( #640, #723, #983 ) ) REPRESENTATION_CONTEXT ( 'NONE', 'WORKASPACE' ) );
#1020 = VECTOR ( 'NONE', #728, 1000.000000000000000 ) ;
#1021 = CARTESIAN_POINT ( 'NONE',  ( 53.69999999999999574, 12.69999999999999751, 0.000000000000000000 ) ) ;
#1022 = ADVANCED_FACE ( 'NONE', ( #873 ), #1037, .F. ) ;
#1023 = CARTESIAN_POINT ( 'NONE',  ( -48.78466787027657858, 22.50000000000000000, -17.56356116471839357 ) ) ;
#1024 = PRODUCT ( 'Swivel_Housing_Cap', 'Swivel_Housing_Cap', '', ( #627 ) ) ;
#1025 = ORIENTED_EDGE ( 'NONE', *, *, #333, .T. ) ;
#1026 = ORIENTED_EDGE ( 'NONE', *, *, #561, .T. ) ;
#1027 = DIRECTION ( 'NONE',  ( 0.000000000000000000, 0.000000000000000000, 1.000000000000000000 ) ) ;
#1028 = DIRECTION ( 'NONE',  ( -1.000000000000000000, 0.000000000000000000, -3.491481338843133355E-15 ) ) ;
#1029 = ORIENTED_EDGE ( 'NONE', *, *, #492, .T. ) ;
#1030 = EDGE_CURVE ( 'NONE', #215, #508, #1053, .T. ) ;
#1031 = ORIENTED_EDGE ( 'NONE', *, *, #242, .F. ) ;
#1032 = DIRECTION ( 'NONE',  ( 0.000000000000000000, 0.000000000000000000, -1.000000000000000000 ) ) ;
#1033 = ORIENTED_EDGE ( 'NONE', *, *, #671, .T. ) ;
#1034 = CARTESIAN_POINT ( 'NONE',  ( 0.000000000000000000, 4.550000000000001599, 0.000000000000000000 ) ) ;
#1035 = VERTEX_POINT ( 'NONE', #260 ) ;
#1036 = EDGE_CURVE ( 'NONE', #968, #420, #946, .T. ) ;
#1037 = PLANE ( 'NONE',  #227 ) ;
#1038 = LINE ( 'NONE', #717, #315 ) ;
#1039 = ORIENTED_EDGE ( 'NONE', *, *, #817, .F. ) ;
#1040 = CIRCLE ( 'NONE', #900, 48.34999999999999432 ) ;
#1041 = CARTESIAN_POINT ( 'NONE',  ( -17.56356116471856410, 22.50000000000000000, 48.78466787027651463 ) ) ;
#1042 = DIRECTION ( 'NONE',  ( 0.9408807689542252328, 0.000000000000000000, -0.3387379202452920901 ) ) ;
#1043 = ORIENTED_EDGE ( 'NONE', *, *, #81, .F. ) ;
#1044 = CARTESIAN_POINT ( 'NONE',  ( 6.104864293749555655E-15, 22.50000000000000000, 49.85000000000000142 ) ) ;
#1045 = CIRCLE ( 'NONE', #705, 49.85000000000000142 ) ;
#1046 = FACE_OUTER_BOUND ( 'NONE', #261, .T. ) ;
#1047 = DIRECTION ( 'NONE',  ( 0.000000000000000000, 1.000000000000000000, 0.000000000000000000 ) ) ;
#1048 = CARTESIAN_POINT ( 'NONE',  ( 0.000000000000000000, 17.49999999999998934, 0.000000000000000000 ) ) ;
#1049 = CIRCLE ( 'NONE', #564, 48.75000000000001421 ) ;
#1050 = ORIENTED_EDGE ( 'NONE', *, *, #150, .T. ) ;
#1051 = LINE ( 'NONE', #547, #283 ) ;
#1052 = VECTOR ( 'NONE', #565, 1000.000000000000000 ) ;
#1053 = CIRCLE ( 'NONE', #816, 51.85000000000000142 ) ;
#1054 = DIRECTION ( 'NONE',  ( -0.3387379202452920901, 0.000000000000000000, -0.9408807689542252328 ) ) ;
#1055 = EDGE_CURVE ( 'NONE', #521, #681, #443, .T. ) ;
#1056 = VECTOR ( 'NONE', #304, 1000.000000000000000 ) ;
#1057 = CARTESIAN_POINT ( 'NONE',  ( 48.78466787027657858, 2.699999999999997513, 17.56356116471839357 ) ) ;
#1058 = ORIENTED_EDGE ( 'NONE', *, *, #190, .F. ) ;
#1059 = DIRECTION ( 'NONE',  ( 0.000000000000000000, 0.000000000000000000, -1.000000000000000000 ) ) ;
#1060 = AXIS2_PLACEMENT_3D ( 'NONE', #814, #198, #711 ) ;
#1061 = DIRECTION ( 'NONE',  ( 0.000000000000000000, -1.000000000000000000, 0.000000000000000000 ) ) ;
#1062 = AXIS2_PLACEMENT_3D ( 'NONE', #323, #1016, #226 ) ;
#1063 = DIRECTION ( 'NONE',  ( 0.000000000000000000, 0.000000000000000000, 1.000000000000000000 ) ) ;
#1064 = ORIENTED_EDGE ( 'NONE', *, *, #1085, .F. ) ;
#1065 = EDGE_CURVE ( 'NONE', #36, #895, #194, .T. ) ;
#1066 = CARTESIAN_POINT ( 'NONE',  ( 48.78466787027657858, 12.69999999999999751, -17.56356116471839357 ) ) ;
#1067 = CARTESIAN_POINT ( 'NONE',  ( -1.874925478958762549E-13, 22.50000000000000000, 53.69999999999999574 ) ) ;
#1068 = ORIENTED_EDGE ( 'NONE', *, *, #612, .F. ) ;
#1069 = ADVANCED_FACE ( 'NONE', ( #1046 ), #18, .T. ) ;
#1070 = DIRECTION ( 'NONE',  ( 0.000000000000000000, 0.000000000000000000, 1.000000000000000000 ) ) ;
#1071 = CARTESIAN_POINT ( 'NONE',  ( 0.000000000000000000, 17.49999999999998934, 0.000000000000000000 ) ) ;
#1072 = ORIENTED_EDGE ( 'NONE', *, *, #871, .F. ) ;
#1073 = ORIENTED_EDGE ( 'NONE', *, *, #890, .T. ) ;
#1074 = EDGE_CURVE ( 'NONE', #604, #664, #978, .T. ) ;
#1075 = LINE ( 'NONE', #909, #1052 ) ;
#1076 = VERTEX_POINT ( 'NONE', #383 ) ;
#1077 = FACE_OUTER_BOUND ( 'NONE', #272, .T. ) ;
#1078 = EDGE_CURVE ( 'NONE', #659, #935, #856, .T. ) ;
#1079 = FACE_OUTER_BOUND ( 'NONE', #776, .T. ) ;
#1080 = ORIENTED_EDGE ( 'NONE', *, *, #132, .F. ) ;
#1081 = CIRCLE ( 'NONE', #422, 53.69999999999999574 ) ;
#1082 = DIRECTION ( 'NONE',  ( 0.000000000000000000, 0.000000000000000000, 1.000000000000000000 ) ) ;
#1083 = AXIS2_PLACEMENT_3D ( 'NONE', #391, #887, #118 ) ;
#1084 = CARTESIAN_POINT ( 'NONE',  ( 0.000000000000000000, 0.000000000000000000, 0.000000000000000000 ) ) ;
#1085 = EDGE_CURVE ( 'NONE', #508, #252, #548, .T. ) ;
#1086 = VERTEX_POINT ( 'NONE', #891 ) ;
#1087 = DIRECTION ( 'NONE',  ( 0.000000000000000000, 0.000000000000000000, 1.000000000000000000 ) ) ;
#1088 = PLANE ( 'NONE',  #1062 ) ;
#1089 = ORIENTED_EDGE ( 'NONE', *, *, #24, .T. ) ;
#1090 = VECTOR ( 'NONE', #591, 1000.000000000000000 ) ;
#1091 = SURFACE_STYLE_FILL_AREA ( #520 ) ;
#1092 = FACE_OUTER_BOUND ( 'NONE', #949, .T. ) ;
#1093 = DIRECTION ( 'NONE',  ( -0.6653031720155484496, 0.7071067811865449082, -0.2395238804504748742 ) ) ;
#1094 = VERTEX_POINT ( 'NONE', #196 ) ;
#1095 = EDGE_LOOP ( 'NONE', ( #1043, #482, #1017, #675 ) ) ;
#1096 = EDGE_CURVE ( 'NONE', #811, #637, #275, .T. ) ;
#1097 = CARTESIAN_POINT ( 'NONE',  ( 0.000000000000000000, 4.550000000000001599, 0.000000000000000000 ) ) ;
#1098 = CARTESIAN_POINT ( 'NONE',  ( -39.99999999999999289, 17.49999999999998934, -29.74932772349655608 ) ) ;
#1099 = ORIENTED_EDGE ( 'NONE', *, *, #464, .T. ) ;
#1100 = AXIS2_PLACEMENT_3D ( 'NONE', #496, #231, #836 ) ;
#1101 = ORIENTED_EDGE ( 'NONE', *, *, #303, .T. ) ;
#1102 = VECTOR ( 'NONE', #702, 1000.000000000000000 ) ;
#1103 = CIRCLE ( 'NONE', #478, 51.85000000000000142 ) ;
#1104 = AXIS2_PLACEMENT_3D ( 'NONE', #486, #553, #735 ) ;
#1105 = DIRECTION ( 'NONE',  ( 0.000000000000000000, -1.000000000000000000, 0.000000000000000000 ) ) ;
#1106 = CYLINDRICAL_SURFACE ( 'NONE', #233, 53.69999999999999574 ) ;
#1107 = ORIENTED_EDGE ( 'NONE', *, *, #767, .T. ) ;
#1108 = ORIENTED_EDGE ( 'NONE', *, *, #863, .F. ) ;
#1109 = CIRCLE ( 'NONE', #915, 53.69999999999999574 ) ;
ENDSEC;
END-ISO-10303-21;
