ISO-10303-21;
HEADER;
FILE_DESCRIPTION (( 'STEP AP214' ),
    '1' );
FILE_NAME ('Swivel_Bracket.STEP',
    '2026-06-26T01:00:30',
    ( '' ),
    ( '' ),
    'SwSTEP 2.0',
    'SolidWorks 2025',
    '' );
FILE_SCHEMA (( 'AUTOMOTIVE_DESIGN' ));
ENDSEC;

DATA;
#1 = CARTESIAN_POINT ( 'NONE',  ( 17.28069999987390659, 38.10000000000098197, 5.000000000000000000 ) ) ;
#2 = ORIENTED_EDGE ( 'NONE', *, *, #224, .T. ) ;
#3 = CARTESIAN_POINT ( 'NONE',  ( 25.76021717500003660, 175.0000000000000000, 5.000000000000000000 ) ) ;
#4 = EDGE_CURVE ( 'NONE', #335, #99, #209, .T. ) ;
#5 = DIRECTION ( 'NONE',  ( -1.000000000000000000, 0.000000000000000000, 0.000000000000000000 ) ) ;
#6 = DIRECTION ( 'NONE',  ( -0.000000000000000000, -1.000000000000000000, -0.000000000000000000 ) ) ;
#7 = ORIENTED_EDGE ( 'NONE', *, *, #317, .F. ) ;
#8 = VERTEX_POINT ( 'NONE', #1063 ) ;
#9 = DIRECTION ( 'NONE',  ( -1.000000000000000000, 0.000000000000000000, 0.000000000000000000 ) ) ;
#10 = VECTOR ( 'NONE', #18, 1000.000000000000000 ) ;
#11 = PRODUCT ( 'Swivel_Bracket', 'Swivel_Bracket', '', ( #386 ) ) ;
#12 = CARTESIAN_POINT ( 'NONE',  ( -12.50000000000000355, 115.0000000000000000, 5.000000000000000000 ) ) ;
#13 = EDGE_CURVE ( 'NONE', #802, #231, #268, .T. ) ;
#14 = VECTOR ( 'NONE', #165, 1000.000000000000000 ) ;
#15 = FACE_OUTER_BOUND ( 'NONE', #578, .T. ) ;
#16 = ORIENTED_EDGE ( 'NONE', *, *, #825, .T. ) ;
#17 = ORIENTED_EDGE ( 'NONE', *, *, #79, .T. ) ;
#18 = DIRECTION ( 'NONE',  ( -0.000000000000000000, -0.000000000000000000, -1.000000000000000000 ) ) ;
#19 = DIRECTION ( 'NONE',  ( 0.000000000000000000, 0.000000000000000000, 1.000000000000000000 ) ) ;
#20 = DIRECTION ( 'NONE',  ( 0.000000000000000000, 0.000000000000000000, -1.000000000000000000 ) ) ;
#21 = ORIENTED_EDGE ( 'NONE', *, *, #359, .F. ) ;
#22 = LINE ( 'NONE', #1029, #1049 ) ;
#23 = LINE ( 'NONE', #581, #1160 ) ;
#24 = ORIENTED_EDGE ( 'NONE', *, *, #894, .T. ) ;
#25 = EDGE_CURVE ( 'NONE', #168, #1086, #889, .T. ) ;
#26 = DIRECTION ( 'NONE',  ( -0.000000000000000000, -0.000000000000000000, -1.000000000000000000 ) ) ;
#27 = ADVANCED_FACE ( 'NONE', ( #240 ), #326, .T. ) ;
#28 = AXIS2_PLACEMENT_3D ( 'NONE', #221, #600, #1075 ) ;
#29 = STYLED_ITEM ( 'NONE', ( #938 ), #150 ) ;
#30 = AXIS2_PLACEMENT_3D ( 'NONE', #659, #469, #842 ) ;
#31 = EDGE_LOOP ( 'NONE', ( #407, #1026, #104, #1134 ) ) ;
#32 = ORIENTED_EDGE ( 'NONE', *, *, #962, .F. ) ;
#33 = ORIENTED_EDGE ( 'NONE', *, *, #272, .T. ) ;
#34 = CARTESIAN_POINT ( 'NONE',  ( -19.74261636709696077, 170.2175496967186064, 0.000000000000000000 ) ) ;
#35 = ORIENTED_EDGE ( 'NONE', *, *, #810, .F. ) ;
#36 = ORIENTED_EDGE ( 'NONE', *, *, #675, .T. ) ;
#37 = CARTESIAN_POINT ( 'NONE',  ( -28.22809069556068806, 133.4250871616178529, -5.000000000000000000 ) ) ;
#38 = EDGE_CURVE ( 'NONE', #927, #114, #880, .T. ) ;
#39 = AXIS2_PLACEMENT_3D ( 'NONE', #295, #211, #753 ) ;
#40 = DIRECTION ( 'NONE',  ( 0.000000000000000000, 0.000000000000000000, 1.000000000000000000 ) ) ;
#41 = CARTESIAN_POINT ( 'NONE',  ( 25.76021717500003660, 132.8012981810152837, 0.000000000000000000 ) ) ;
#42 = ORIENTED_EDGE ( 'NONE', *, *, #133, .F. ) ;
#43 = CARTESIAN_POINT ( 'NONE',  ( 59.02043435000057769, 189.9999999999997158, 5.000000000000000000 ) ) ;
#44 = AXIS2_PLACEMENT_3D ( 'NONE', #593, #1133, #855 ) ;
#45 = FACE_OUTER_BOUND ( 'NONE', #963, .T. ) ;
#46 = CIRCLE ( 'NONE', #699, 2.549999999999996714 ) ;
#47 = FACE_BOUND ( 'NONE', #573, .T. ) ;
#48 = VECTOR ( 'NONE', #368, 1000.000000000000000 ) ;
#49 = EDGE_CURVE ( 'NONE', #437, #856, #309, .T. ) ;
#50 = EDGE_LOOP ( 'NONE', ( #148, #571, #671, #32 ) ) ;
#51 = VERTEX_POINT ( 'NONE', #973 ) ;
#52 = DIRECTION ( 'NONE',  ( 0.000000000000000000, -0.000000000000000000, -1.000000000000000000 ) ) ;
#53 = FACE_OUTER_BOUND ( 'NONE', #530, .T. ) ;
#54 = CARTESIAN_POINT ( 'NONE',  ( 64.02043435000004479, 175.0000000000000000, 5.000000000000000000 ) ) ;
#55 = EDGE_LOOP ( 'NONE', ( #154, #442 ) ) ;
#56 = VERTEX_POINT ( 'NONE', #703 ) ;
#57 = DIRECTION ( 'NONE',  ( -1.000000000000000000, -4.625929269271485914E-16, 0.000000000000000000 ) ) ;
#58 = CARTESIAN_POINT ( 'NONE',  ( 64.02043435000004479, 194.9999999999999716, 5.000000000000000000 ) ) ;
#59 = CARTESIAN_POINT ( 'NONE',  ( 56.47043435000058054, 189.9999999999997158, 5.000000000000000000 ) ) ;
#60 = ORIENTED_EDGE ( 'NONE', *, *, #299, .T. ) ;
#61 = ADVANCED_FACE ( 'NONE', ( #538 ), #448, .T. ) ;
#62 = EDGE_LOOP ( 'NONE', ( #682, #638, #17, #1189 ) ) ;
#63 = CARTESIAN_POINT ( 'NONE',  ( 59.02043435000057769, 189.9999999999997158, 5.000000000000000000 ) ) ;
#64 = ADVANCED_FACE ( 'NONE', ( #45 ), #1069, .T. ) ;
#65 = DIRECTION ( 'NONE',  ( 0.000000000000000000, 0.000000000000000000, -1.000000000000000000 ) ) ;
#66 = DIRECTION ( 'NONE',  ( -0.000000000000000000, -0.000000000000000000, 1.000000000000000000 ) ) ;
#67 = VECTOR ( 'NONE', #157, 1000.000000000000000 ) ;
#68 = CARTESIAN_POINT ( 'NONE',  ( 19.29999999987390069, 38.10000000000098197, 5.000000000000000000 ) ) ;
#69 = PRESENTATION_LAYER_ASSIGNMENT (  '', '', ( #29 ) ) ;
#70 = AXIS2_PLACEMENT_3D ( 'NONE', #137, #65, #446 ) ;
#71 = CARTESIAN_POINT ( 'NONE',  ( 25.76021717500003660, 132.8012981810152837, 5.000000000000000000 ) ) ;
#72 = CARTESIAN_POINT ( 'NONE',  ( 64.02043435000004479, 205.0000000000000000, 5.000000000000000000 ) ) ;
#73 = UNCERTAINTY_MEASURE_WITH_UNIT (LENGTH_MEASURE( 1.000000000000000082E-05 ), #467, 'distance_accuracy_value', 'NONE');
#74 = CARTESIAN_POINT ( 'NONE',  ( 30.00000000000001421, 10.00000000000000711, 5.000000000000000000 ) ) ;
#75 = EDGE_LOOP ( 'NONE', ( #254, #107 ) ) ;
#76 = EDGE_LOOP ( 'NONE', ( #1172, #868, #751, #304 ) ) ;
#77 = CARTESIAN_POINT ( 'NONE',  ( 25.76021717500003305, 205.0000000000000284, 5.000000000000000000 ) ) ;
#78 = FACE_BOUND ( 'NONE', #318, .T. ) ;
#79 = EDGE_CURVE ( 'NONE', #114, #995, #719, .T. ) ;
#80 = FACE_OUTER_BOUND ( 'NONE', #277, .T. ) ;
#81 = ORIENTED_EDGE ( 'NONE', *, *, #599, .T. ) ;
#82 = CARTESIAN_POINT ( 'NONE',  ( 9.999999999999998224, 9.999999999999998224, 5.000000000000000000 ) ) ;
#83 = PLANE ( 'NONE',  #449 ) ;
#84 = SURFACE_SIDE_STYLE ('',( #285 ) ) ;
#85 = DIRECTION ( 'NONE',  ( -4.625929269271485914E-16, 1.000000000000000000, 0.000000000000000000 ) ) ;
#86 = ORIENTED_EDGE ( 'NONE', *, *, #720, .T. ) ;
#87 = VECTOR ( 'NONE', #341, 1000.000000000000000 ) ;
#88 = CIRCLE ( 'NONE', #226, 2.019299999999994544 ) ;
#89 = ORIENTED_EDGE ( 'NONE', *, *, #1159, .T. ) ;
#90 = DIRECTION ( 'NONE',  ( -0.000000000000000000, -0.000000000000000000, -1.000000000000000000 ) ) ;
#91 = MECHANICAL_DESIGN_GEOMETRIC_PRESENTATION_REPRESENTATION (  '', ( #29 ), #590 ) ;
#92 = CARTESIAN_POINT ( 'NONE',  ( 0.000000000000000000, 9.999999999999998224, 5.000000000000000000 ) ) ;
#93 = CARTESIAN_POINT ( 'NONE',  ( 74.02043435000005900, 194.9999999999999716, 5.000000000000000000 ) ) ;
#94 = DIRECTION ( 'NONE',  ( -1.000000000000000000, 0.000000000000000000, 0.000000000000000000 ) ) ;
#95 = DIRECTION ( 'NONE',  ( 1.000000000000000000, 0.000000000000000000, 0.000000000000000000 ) ) ;
#96 = CARTESIAN_POINT ( 'NONE',  ( 19.29999999987390069, 12.70000000000097806, 5.000000000000000000 ) ) ;
#97 = CARTESIAN_POINT ( 'NONE',  ( 30.00000000000000000, 40.00000000000001421, 0.000000000000000000 ) ) ;
#98 = DIRECTION ( 'NONE',  ( -1.000000000000000000, 0.000000000000000000, 0.000000000000000000 ) ) ;
#99 = VERTEX_POINT ( 'NONE', #709 ) ;
#100 = ORIENTED_EDGE ( 'NONE', *, *, #785, .T. ) ;
#101 = ADVANCED_FACE ( 'NONE', ( #513 ), #804, .F. ) ;
#102 = DIRECTION ( 'NONE',  ( 0.000000000000000000, 0.000000000000000000, 1.000000000000000000 ) ) ;
#103 = EDGE_CURVE ( 'NONE', #731, #287, #189, .T. ) ;
#104 = ORIENTED_EDGE ( 'NONE', *, *, #311, .F. ) ;
#105 = LINE ( 'NONE', #1129, #490 ) ;
#106 = ORIENTED_EDGE ( 'NONE', *, *, #197, .F. ) ;
#107 = ORIENTED_EDGE ( 'NONE', *, *, #696, .T. ) ;
#108 = VECTOR ( 'NONE', #637, 1000.000000000000000 ) ;
#109 = CYLINDRICAL_SURFACE ( 'NONE', #698, 2.549999999999996714 ) ;
#111 = AXIS2_PLACEMENT_3D ( 'NONE', #1185, #144, #695 ) ;
#110 = CARTESIAN_POINT ( 'NONE',  ( 19.29999999987390069, 38.10000000000098197, 10.00000000000000000 ) ) ;
#112 = CIRCLE ( 'NONE', #799, 2.019299999999994544 ) ;
#113 = CARTESIAN_POINT ( 'NONE',  ( 30.00000000000001421, 10.00000000000000711, 0.000000000000000000 ) ) ;
#114 = VERTEX_POINT ( 'NONE', #518 ) ;
#115 = DIRECTION ( 'NONE',  ( -0.000000000000000000, -0.000000000000000000, -1.000000000000000000 ) ) ;
#116 = CARTESIAN_POINT ( 'NONE',  ( 19.29999999987390069, 25.40000000000097913, 0.000000000000000000 ) ) ;
#117 = DIRECTION ( 'NONE',  ( -0.000000000000000000, -0.000000000000000000, -1.000000000000000000 ) ) ;
#118 = EDGE_CURVE ( 'NONE', #828, #147, #791, .T. ) ;
#119 = ORIENTED_EDGE ( 'NONE', *, *, #135, .F. ) ;
#120 = ADVANCED_FACE ( 'NONE', ( #53 ), #1158, .F. ) ;
#121 = CARTESIAN_POINT ( 'NONE',  ( -33.32809069556068238, 133.4250871616178529, 5.000000000000000000 ) ) ;
#122 = ORIENTED_EDGE ( 'NONE', *, *, #790, .F. ) ;
#123 = ORIENTED_EDGE ( 'NONE', *, *, #4, .F. ) ;
#124 = CARTESIAN_POINT ( 'NONE',  ( -45.12565642932312926, 134.1141263956768626, 5.000000000000000000 ) ) ;
#125 = VECTOR ( 'NONE', #1164, 1000.000000000000000 ) ;
#126 = AXIS2_PLACEMENT_3D ( 'NONE', #651, #750, #1118 ) ;
#127 = ORIENTED_EDGE ( 'NONE', *, *, #1050, .F. ) ;
#128 = ORIENTED_EDGE ( 'NONE', *, *, #319, .T. ) ;
#129 = EDGE_CURVE ( 'NONE', #1072, #731, #245, .T. ) ;
#130 = CYLINDRICAL_SURFACE ( 'NONE', #929, 2.549999999999996714 ) ;
#131 = CARTESIAN_POINT ( 'NONE',  ( -19.74261636709696077, 170.2175496967186064, -5.000000000000000000 ) ) ;
#132 = LINE ( 'NONE', #1171, #525 ) ;
#133 = EDGE_CURVE ( 'NONE', #901, #752, #658, .T. ) ;
#134 = CARTESIAN_POINT ( 'NONE',  ( 20.03611610838946433, 81.07962055621433706, 0.000000000000000000 ) ) ;
#135 = EDGE_CURVE ( 'NONE', #168, #715, #1176, .T. ) ;
#136 = PRODUCT_DEFINITION_FORMATION_WITH_SPECIFIED_SOURCE ( 'ANY', '', #11, .NOT_KNOWN. ) ;
#137 = CARTESIAN_POINT ( 'NONE',  ( -17.19261636709696006, 170.2175496967186064, 0.000000000000000000 ) ) ;
#138 = CARTESIAN_POINT ( 'NONE',  ( -17.19261636709696006, 170.2175496967186064, -5.000000000000000000 ) ) ;
#139 = ORIENTED_EDGE ( 'NONE', *, *, #178, .F. ) ;
#140 = VERTEX_POINT ( 'NONE', #1022 ) ;
#141 = CARTESIAN_POINT ( 'NONE',  ( 17.28069999987390304, 12.70000000000097806, 0.000000000000000000 ) ) ;
#142 = CIRCLE ( 'NONE', #837, 10.00000000000000888 ) ;
#143 = VECTOR ( 'NONE', #175, 1000.000000000000000 ) ;
#144 = DIRECTION ( 'NONE',  ( -0.000000000000000000, -0.000000000000000000, -1.000000000000000000 ) ) ;
#145 = FACE_BOUND ( 'NONE', #843, .T. ) ;
#146 = VECTOR ( 'NONE', #346, 1000.000000000000000 ) ;
#147 = VERTEX_POINT ( 'NONE', #1211 ) ;
#148 = ORIENTED_EDGE ( 'NONE', *, *, #559, .T. ) ;
#149 = CARTESIAN_POINT ( 'NONE',  ( 30.00000000000000000, 40.00000000000000711, 5.000000000000000000 ) ) ;
#150 = MANIFOLD_SOLID_BREP ( 'Cut-Extrude8', #684 ) ;
#151 = DIRECTION ( 'NONE',  ( 1.000000000000000000, 2.449293598294724657E-16, 0.000000000000000000 ) ) ;
#152 = EDGE_CURVE ( 'NONE', #140, #99, #257, .T. ) ;
#153 = FACE_BOUND ( 'NONE', #934, .T. ) ;
#154 = ORIENTED_EDGE ( 'NONE', *, *, #541, .T. ) ;
#155 = PRODUCT_DEFINITION ( 'UNKNOWN', '', #136, #920 ) ;
#156 = ORIENTED_EDGE ( 'NONE', *, *, #959, .T. ) ;
#157 = DIRECTION ( 'NONE',  ( -0.000000000000000000, -0.000000000000000000, -1.000000000000000000 ) ) ;
#158 = CARTESIAN_POINT ( 'NONE',  ( 19.29999999987390069, 12.70000000000097806, 0.000000000000000000 ) ) ;
#159 = FACE_BOUND ( 'NONE', #887, .T. ) ;
#160 = EDGE_LOOP ( 'NONE', ( #1147, #1099 ) ) ;
#161 = ORIENTED_EDGE ( 'NONE', *, *, #200, .F. ) ;
#162 = PLANE ( 'NONE',  #813 ) ;
#163 = DIRECTION ( 'NONE',  ( 0.000000000000000000, 0.000000000000000000, -1.000000000000000000 ) ) ;
#164 = AXIS2_PLACEMENT_3D ( 'NONE', #876, #336, #1156 ) ;
#165 = DIRECTION ( 'NONE',  ( -0.000000000000000000, -0.000000000000000000, -1.000000000000000000 ) ) ;
#166 = AXIS2_PLACEMENT_3D ( 'NONE', #297, #217, #1038 ) ;
#167 = AXIS2_PLACEMENT_3D ( 'NONE', #138, #520, #974 ) ;
#168 = VERTEX_POINT ( 'NONE', #756 ) ;
#169 = DIRECTION ( 'NONE',  ( -1.000000000000000000, 0.000000000000000000, 0.000000000000000000 ) ) ;
#170 = ADVANCED_FACE ( 'NONE', ( #547 ), #477, .F. ) ;
#171 = DIRECTION ( 'NONE',  ( -1.000000000000000000, 0.000000000000000000, 0.000000000000000000 ) ) ;
#172 = CARTESIAN_POINT ( 'NONE',  ( -12.50000000000000888, 114.9999999999999858, 5.000000000000000000 ) ) ;
#173 = CARTESIAN_POINT ( 'NONE',  ( 17.28069999987390659, 38.10000000000098197, 10.00000000000000000 ) ) ;
#174 = ORIENTED_EDGE ( 'NONE', *, *, #178, .T. ) ;
#175 = DIRECTION ( 'NONE',  ( -0.000000000000000000, -0.000000000000000000, -1.000000000000000000 ) ) ;
#176 = DIRECTION ( 'NONE',  ( -0.000000000000000000, -0.000000000000000000, 1.000000000000000000 ) ) ;
#177 = CARTESIAN_POINT ( 'NONE',  ( 26.47043435000059830, 189.9999999999997158, 0.000000000000000000 ) ) ;
#178 = EDGE_CURVE ( 'NONE', #1091, #693, #343, .T. ) ;
#179 = DIRECTION ( 'NONE',  ( -1.000000000000000000, 0.000000000000000000, 0.000000000000000000 ) ) ;
#180 = ORIENTED_EDGE ( 'NONE', *, *, #197, .T. ) ;
#181 = DIRECTION ( 'NONE',  ( 1.000000000000000000, 0.000000000000000000, 0.000000000000000000 ) ) ;
#182 = FILL_AREA_STYLE ('',( #657 ) ) ;
#183 = ADVANCED_FACE ( 'NONE', ( #194 ), #390, .F. ) ;
#184 = UNCERTAINTY_MEASURE_WITH_UNIT (LENGTH_MEASURE( 1.000000000000000082E-05 ), #574, 'distance_accuracy_value', 'NONE');
#185 = LINE ( 'NONE', #74, #1055 ) ;
#186 = VERTEX_POINT ( 'NONE', #461 ) ;
#187 = AXIS2_PLACEMENT_3D ( 'NONE', #1168, #798, #52 ) ;
#188 = APPLICATION_CONTEXT ( 'automotive_design' ) ;
#189 = CIRCLE ( 'NONE', #426, 10.00000000000000178 ) ;
#190 = ORIENTED_EDGE ( 'NONE', *, *, #272, .F. ) ;
#191 = LINE ( 'NONE', #1027, #10 ) ;
#192 = AXIS2_PLACEMENT_3D ( 'NONE', #820, #827, #744 ) ;
#193 = FACE_OUTER_BOUND ( 'NONE', #1173, .T. ) ;
#194 = FACE_OUTER_BOUND ( 'NONE', #652, .T. ) ;
#195 = CARTESIAN_POINT ( 'NONE',  ( 17.28069999987389949, 25.40000000000097913, 5.000000000000000000 ) ) ;
#196 = ORIENTED_EDGE ( 'NONE', *, *, #761, .F. ) ;
#197 = EDGE_CURVE ( 'NONE', #1103, #402, #506, .T. ) ;
#198 = ORIENTED_EDGE ( 'NONE', *, *, #736, .F. ) ;
#199 = DIRECTION ( 'NONE',  ( 0.000000000000000000, 0.000000000000000000, 1.000000000000000000 ) ) ;
#200 = EDGE_CURVE ( 'NONE', #752, #564, #743, .T. ) ;
#201 = DIRECTION ( 'NONE',  ( -1.000000000000000000, 0.000000000000000000, 0.000000000000000000 ) ) ;
#202 = CARTESIAN_POINT ( 'NONE',  ( 25.76021717500003305, 205.0000000000000284, 5.000000000000000000 ) ) ;
#203 = B_SPLINE_SURFACE_WITH_KNOTS ( 'NONE', 3, 1, ( 
 ( #405, #381 ),
 ( #1127, #755 ),
 ( #585, #387 ),
 ( #662, #776 ),
 ( #1048, #1056 ) ),
 .UNSPECIFIED., .F., .F., .F.,
 ( 4, 1, 4 ),
 ( 2, 2 ),
 ( 0.000000000000000000, 0.5142613833358897768, 1.000000000000000000 ),
 ( 0.000000000000000000, 1.000000000000000000 ),
 .UNSPECIFIED. ) ;
#204 = ORIENTED_EDGE ( 'NONE', *, *, #444, .T. ) ;
#205 = VERTEX_POINT ( 'NONE', #177 ) ;
#206 =( NAMED_UNIT ( * ) PLANE_ANGLE_UNIT ( ) SI_UNIT ( $, .RADIAN. ) );
#207 = DIRECTION ( 'NONE',  ( 0.000000000000000000, 0.000000000000000000, -1.000000000000000000 ) ) ;
#208 = CARTESIAN_POINT ( 'NONE',  ( 19.29999999987390069, 12.70000000000097806, 0.000000000000000000 ) ) ;
#209 = LINE ( 'NONE', #904, #666 ) ;
#210 = VECTOR ( 'NONE', #1210, 1000.000000000000000 ) ;
#211 = DIRECTION ( 'NONE',  ( 0.000000000000000000, 0.000000000000000000, -1.000000000000000000 ) ) ;
#212 = AXIS2_PLACEMENT_3D ( 'NONE', #71, #908, #373 ) ;
#213 = ADVANCED_FACE ( 'NONE', ( #560 ), #841, .F. ) ;
#215 = AXIS2_PLACEMENT_3D ( 'NONE', #769, #1077, #1066 ) ;
#214 = CYLINDRICAL_SURFACE ( 'NONE', #522, 2.019299999999994544 ) ;
#216 = VECTOR ( 'NONE', #478, 1000.000000000000000 ) ;
#217 = DIRECTION ( 'NONE',  ( -2.449293598294724657E-16, 1.000000000000000000, 0.000000000000000000 ) ) ;
#218 = ORIENTED_EDGE ( 'NONE', *, *, #761, .T. ) ;
#219 = LINE ( 'NONE', #486, #950 ) ;
#220 = ORIENTED_EDGE ( 'NONE', *, *, #152, .T. ) ;
#221 = CARTESIAN_POINT ( 'NONE',  ( 19.29999999987390069, 38.10000000000098197, 0.000000000000000000 ) ) ;
#222 = VECTOR ( 'NONE', #565, 1000.000000000000000 ) ;
#223 = EDGE_LOOP ( 'NONE', ( #196, #436 ) ) ;
#224 = EDGE_CURVE ( 'NONE', #856, #437, #764, .T. ) ;
#225 = DIRECTION ( 'NONE',  ( -0.000000000000000000, -0.000000000000000000, -1.000000000000000000 ) ) ;
#226 = AXIS2_PLACEMENT_3D ( 'NONE', #634, #628, #718 ) ;
#227 = AXIS2_PLACEMENT_3D ( 'NONE', #496, #1141, #957 ) ;
#228 = CIRCLE ( 'NONE', #911, 2.549999999999996714 ) ;
#229 = DIRECTION ( 'NONE',  ( -0.000000000000000000, -0.000000000000000000, -1.000000000000000000 ) ) ;
#230 = CARTESIAN_POINT ( 'NONE',  ( -17.19261636709696006, 170.2175496967186064, -5.000000000000000000 ) ) ;
#231 = VERTEX_POINT ( 'NONE', #762 ) ;
#232 = ORIENTED_EDGE ( 'NONE', *, *, #559, .F. ) ;
#233 = DIRECTION ( 'NONE',  ( -1.000000000000000000, 0.000000000000000000, 0.000000000000000000 ) ) ;
#234 = CARTESIAN_POINT ( 'NONE',  ( 29.02043435000059546, 189.9999999999997158, 5.000000000000000000 ) ) ;
#235 = CARTESIAN_POINT ( 'NONE',  ( -30.77809069556068522, 133.4250871616178529, 0.000000000000000000 ) ) ;
#236 = DIRECTION ( 'NONE',  ( -1.000000000000000000, 0.000000000000000000, 0.000000000000000000 ) ) ;
#237 = EDGE_LOOP ( 'NONE', ( #806, #488 ) ) ;
#238 = ORIENTED_EDGE ( 'NONE', *, *, #25, .T. ) ;
#239 = CARTESIAN_POINT ( 'NONE',  ( -12.50000000000000355, 115.0000000000000000, 0.000000000000000000 ) ) ;
#240 = FACE_OUTER_BOUND ( 'NONE', #1112, .T. ) ;
#241 = FACE_BOUND ( 'NONE', #510, .T. ) ;
#242 = CARTESIAN_POINT ( 'NONE',  ( 20.00000000000001776, 0.000000000000000000, 5.000000000000000000 ) ) ;
#243 = EDGE_CURVE ( 'NONE', #1074, #372, #105, .T. ) ;
#244 = CIRCLE ( 'NONE', #796, 2.549999999999996714 ) ;
#245 = LINE ( 'NONE', #884, #967 ) ;
#246 = AXIS2_PLACEMENT_3D ( 'NONE', #158, #344, #617 ) ;
#247 = EDGE_CURVE ( 'NONE', #564, #395, #447, .T. ) ;
#248 = LINE ( 'NONE', #989, #370 ) ;
#249 = ORIENTED_EDGE ( 'NONE', *, *, #785, .F. ) ;
#250 = CARTESIAN_POINT ( 'NONE',  ( 20.00000000000001776, 0.000000000000000000, 5.000000000000000000 ) ) ;
#251 = CARTESIAN_POINT ( 'NONE',  ( 59.02043435000057769, 189.9999999999997158, 0.000000000000000000 ) ) ;
#252 = CARTESIAN_POINT ( 'NONE',  ( 25.76021717500003660, 134.1141263956768626, 0.000000000000000000 ) ) ;
#253 = ORIENTED_EDGE ( 'NONE', *, *, #623, .T. ) ;
#254 = ORIENTED_EDGE ( 'NONE', *, *, #409, .T. ) ;
#255 = DIRECTION ( 'NONE',  ( 1.000000000000000000, 0.000000000000000000, 0.000000000000000000 ) ) ;
#256 = CARTESIAN_POINT ( 'NONE',  ( -37.47927857497023041, 97.07003931264038954, 5.000000000000000000 ) ) ;
#257 = LINE ( 'NONE', #93, #1007 ) ;
#258 = LINE ( 'NONE', #1193, #108 ) ;
#259 = ADVANCED_FACE ( 'NONE', ( #15 ), #594, .F. ) ;
#260 = ORIENTED_EDGE ( 'NONE', *, *, #623, .F. ) ;
#261 = CARTESIAN_POINT ( 'NONE',  ( -14.64261636709696113, 170.2175496967186064, -5.000000000000000000 ) ) ;
#262 = DIRECTION ( 'NONE',  ( -1.000000000000000000, 0.000000000000000000, 0.000000000000000000 ) ) ;
#263 = CIRCLE ( 'NONE', #30, 2.549999999999996714 ) ;
#264 = DIRECTION ( 'NONE',  ( 1.000000000000000000, 0.000000000000000000, 0.000000000000000000 ) ) ;
#265 = CIRCLE ( 'NONE', #164, 2.019299999999998096 ) ;
#266 = FACE_OUTER_BOUND ( 'NONE', #1208, .T. ) ;
#267 = ORIENTED_EDGE ( 'NONE', *, *, #314, .F. ) ;
#268 = CIRCLE ( 'NONE', #840, 2.549999999999996714 ) ;
#269 = CIRCLE ( 'NONE', #739, 2.019300000000001649 ) ;
#270 = VERTEX_POINT ( 'NONE', #586 ) ;
#271 = CYLINDRICAL_SURFACE ( 'NONE', #212, 42.19870181898473049 ) ;
#272 = EDGE_CURVE ( 'NONE', #231, #802, #46, .T. ) ;
#273 = DIRECTION ( 'NONE',  ( 1.387778780781448042E-15, -1.000000000000000000, 0.000000000000000000 ) ) ;
#274 = DIRECTION ( 'NONE',  ( 0.000000000000000000, 0.000000000000000000, 1.000000000000000000 ) ) ;
#275 = CYLINDRICAL_SURFACE ( 'NONE', #126, 2.549999999999996714 ) ;
#276 = VERTEX_POINT ( 'NONE', #1045 ) ;
#277 = EDGE_LOOP ( 'NONE', ( #1120, #89, #483, #388 ) ) ;
#278 = DIRECTION ( 'NONE',  ( -1.000000000000000000, 0.000000000000000000, 0.000000000000000000 ) ) ;
#279 = CARTESIAN_POINT ( 'NONE',  ( 5.703481184926020548E-15, 60.59271032088794584, 5.000000000000000000 ) ) ;
#280 = FACE_OUTER_BOUND ( 'NONE', #786, .T. ) ;
#281 = ORIENTED_EDGE ( 'NONE', *, *, #103, .T. ) ;
#282 = ORIENTED_EDGE ( 'NONE', *, *, #1114, .T. ) ;
#283 = CARTESIAN_POINT ( 'NONE',  ( -16.43848464398469389, 132.8012981810152837, 5.000000000000000000 ) ) ;
#284 = LINE ( 'NONE', #676, #210 ) ;
#285 = SURFACE_STYLE_FILL_AREA ( #182 ) ;
#286 = DIRECTION ( 'NONE',  ( -1.000000000000000000, -0.000000000000000000, -0.000000000000000000 ) ) ;
#287 = VERTEX_POINT ( 'NONE', #113 ) ;
#288 = ADVANCED_FACE ( 'NONE', ( #1135 ), #680, .F. ) ;
#289 = AXIS2_PLACEMENT_3D ( 'NONE', #208, #20, #773 ) ;
#290 = ORIENTED_EDGE ( 'NONE', *, *, #748, .T. ) ;
#291 = VECTOR ( 'NONE', #456, 1000.000000000000000 ) ;
#292 = DIRECTION ( 'NONE',  ( 1.000000000000000000, 2.449293598294724657E-16, 0.000000000000000000 ) ) ;
#293 = LINE ( 'NONE', #202, #643 ) ;
#294 = ORIENTED_EDGE ( 'NONE', *, *, #962, .T. ) ;
#295 = CARTESIAN_POINT ( 'NONE',  ( -15.95272258738149596, 94.30084613085278988, 0.000000000000000000 ) ) ;
#296 = CARTESIAN_POINT ( 'NONE',  ( 19.29999999987390069, 38.10000000000098197, 5.000000000000000000 ) ) ;
#297 = CARTESIAN_POINT ( 'NONE',  ( 10.00000000000007105, 0.000000000000000000, 5.000000000000000000 ) ) ;
#298 = ORIENTED_EDGE ( 'NONE', *, *, #597, .T. ) ;
#299 = EDGE_CURVE ( 'NONE', #995, #114, #858, .T. ) ;
#300 = ORIENTED_EDGE ( 'NONE', *, *, #790, .T. ) ;
#301 = FACE_OUTER_BOUND ( 'NONE', #50, .T. ) ;
#302 = CARTESIAN_POINT ( 'NONE',  ( 64.02043435000004479, 185.0000000000000000, 0.000000000000000000 ) ) ;
#303 = DIRECTION ( 'NONE',  ( -1.000000000000000000, 0.000000000000000000, 0.000000000000000000 ) ) ;
#304 = ORIENTED_EDGE ( 'NONE', *, *, #1073, .F. ) ;
#305 = ORIENTED_EDGE ( 'NONE', *, *, #319, .F. ) ;
#306 = CARTESIAN_POINT ( 'NONE',  ( 0.000000000000000000, 0.000000000000000000, 0.000000000000000000 ) ) ;
#307 = CIRCLE ( 'NONE', #663, 2.019300000000001649 ) ;
#309 = CIRCLE ( 'NONE', #246, 2.019299999999998096 ) ;
#308 = DIRECTION ( 'NONE',  ( -1.000000000000000000, 0.000000000000000000, 0.000000000000000000 ) ) ;
#310 = CIRCLE ( 'NONE', #1162, 2.019300000000001649 ) ;
#311 = EDGE_CURVE ( 'NONE', #778, #588, #23, .T. ) ;
#312 = ORIENTED_EDGE ( 'NONE', *, *, #317, .T. ) ;
#313 = CARTESIAN_POINT ( 'NONE',  ( 64.02043435000004479, 175.0000000000000000, 5.000000000000000000 ) ) ;
#314 = EDGE_CURVE ( 'NONE', #1103, #677, #293, .T. ) ;
#315 = ORIENTED_EDGE ( 'NONE', *, *, #909, .T. ) ;
#316 = FACE_OUTER_BOUND ( 'NONE', #322, .T. ) ;
#317 = EDGE_CURVE ( 'NONE', #56, #715, #742, .T. ) ;
#318 = EDGE_LOOP ( 'NONE', ( #384, #501 ) ) ;
#319 = EDGE_CURVE ( 'NONE', #270, #928, #248, .T. ) ;
#320 = DIRECTION ( 'NONE',  ( 0.000000000000000000, 0.000000000000000000, -1.000000000000000000 ) ) ;
#321 = EDGE_CURVE ( 'NONE', #355, #354, #132, .T. ) ;
#322 = EDGE_LOOP ( 'NONE', ( #1018, #267, #487, #1084 ) ) ;
#323 = CARTESIAN_POINT ( 'NONE',  ( 30.00000000000000000, 40.00000000000000711, 0.000000000000000000 ) ) ;
#324 = AXIS2_PLACEMENT_3D ( 'NONE', #500, #944, #867 ) ;
#325 = CIRCLE ( 'NONE', #949, 2.549999999999996714 ) ;
#326 = CYLINDRICAL_SURFACE ( 'NONE', #952, 10.00000000000000178 ) ;
#327 = DIRECTION ( 'NONE',  ( 0.000000000000000000, 0.000000000000000000, -1.000000000000000000 ) ) ;
#328 = CARTESIAN_POINT ( 'NONE',  ( -13.40272258738149702, 94.30084613085278988, 0.000000000000000000 ) ) ;
#329 = ORIENTED_EDGE ( 'NONE', *, *, #1137, .F. ) ;
#330 = ORIENTED_EDGE ( 'NONE', *, *, #597, .F. ) ;
#331 = CARTESIAN_POINT ( 'NONE',  ( 30.00000000000000000, 58.99687226322747335, 0.000000000000000000 ) ) ;
#332 = DIRECTION ( 'NONE',  ( -1.000000000000000000, 0.000000000000000000, 0.000000000000000000 ) ) ;
#333 = CYLINDRICAL_SURFACE ( 'NONE', #167, 2.550000000000000266 ) ;
#334 = ADVANCED_FACE ( 'NONE', ( #241, #886, #47, #801, #159, #145, #625, #153, #533 ), #430, .T. ) ;
#335 = VERTEX_POINT ( 'NONE', #435 ) ;
#336 = DIRECTION ( 'NONE',  ( 0.000000000000000000, 0.000000000000000000, -1.000000000000000000 ) ) ;
#337 = DIRECTION ( 'NONE',  ( 0.000000000000000000, 0.000000000000000000, -1.000000000000000000 ) ) ;
#338 = DIRECTION ( 'NONE',  ( -0.000000000000000000, -0.000000000000000000, -1.000000000000000000 ) ) ;
#339 = VERTEX_POINT ( 'NONE', #899 ) ;
#340 = VERTEX_POINT ( 'NONE', #59 ) ;
#341 = DIRECTION ( 'NONE',  ( -0.000000000000000000, -0.000000000000000000, -1.000000000000000000 ) ) ;
#342 = CIRCLE ( 'NONE', #683, 70.88587360432316586 ) ;
#343 = CIRCLE ( 'NONE', #1030, 10.00000000000000178 ) ;
#344 = DIRECTION ( 'NONE',  ( 0.000000000000000000, 0.000000000000000000, -1.000000000000000000 ) ) ;
#345 = AXIS2_PLACEMENT_3D ( 'NONE', #68, #1161, #881 ) ;
#346 = DIRECTION ( 'NONE',  ( -0.000000000000000000, -0.000000000000000000, -1.000000000000000000 ) ) ;
#347 = ORIENTED_EDGE ( 'NONE', *, *, #968, .F. ) ;
#348 = ORIENTED_EDGE ( 'NONE', *, *, #517, .F. ) ;
#349 = CARTESIAN_POINT ( 'NONE',  ( -15.95272258738149596, 94.30084613085278988, 5.000000000000000000 ) ) ;
#350 = DIRECTION ( 'NONE',  ( -0.000000000000000000, -0.000000000000000000, -1.000000000000000000 ) ) ;
#351 = EDGE_CURVE ( 'NONE', #677, #745, #509, .T. ) ;
#352 = DIRECTION ( 'NONE',  ( 0.000000000000000000, 0.000000000000000000, -1.000000000000000000 ) ) ;
#353 = LINE ( 'NONE', #939, #48 ) ;
#354 = VERTEX_POINT ( 'NONE', #722 ) ;
#355 = VERTEX_POINT ( 'NONE', #793 ) ;
#356 = CARTESIAN_POINT ( 'NONE',  ( -42.50000000000000711, 114.9999999999999858, 5.000000000000000000 ) ) ;
#357 = CARTESIAN_POINT ( 'NONE',  ( 74.02043435000004479, 194.9999999999999716, 5.000000000000000000 ) ) ;
#358 = CARTESIAN_POINT ( 'NONE',  ( -33.32809069556068238, 133.4250871616178529, -5.000000000000000000 ) ) ;
#359 = EDGE_CURVE ( 'NONE', #186, #850, #450, .T. ) ;
#360 = AXIS2_PLACEMENT_3D ( 'NONE', #379, #1047, #95 ) ;
#361 = LINE ( 'NONE', #1001, #14 ) ;
#362 = ADVANCED_FACE ( 'NONE', ( #697 ), #714, .F. ) ;
#363 = CARTESIAN_POINT ( 'NONE',  ( 25.76021717500003660, 132.8012981810152837, 5.000000000000000000 ) ) ;
#364 = DIRECTION ( 'NONE',  ( -1.000000000000000000, -1.387778780781448042E-15, 0.000000000000000000 ) ) ;
#365 = AXIS2_PLACEMENT_3D ( 'NONE', #1122, #207, #201 ) ;
#366 = DIRECTION ( 'NONE',  ( 0.000000000000000000, 0.000000000000000000, 1.000000000000000000 ) ) ;
#367 = AXIS2_PLACEMENT_3D ( 'NONE', #942, #102, #960 ) ;
#368 = DIRECTION ( 'NONE',  ( -0.000000000000000000, -0.000000000000000000, -1.000000000000000000 ) ) ;
#369 = ORIENTED_EDGE ( 'NONE', *, *, #1139, .F. ) ;
#370 = VECTOR ( 'NONE', #421, 1000.000000000000000 ) ;
#371 = AXIS2_PLACEMENT_3D ( 'NONE', #667, #913, #179 ) ;
#372 = VERTEX_POINT ( 'NONE', #812 ) ;
#373 = DIRECTION ( 'NONE',  ( -1.000000000000000000, 0.000000000000000000, 0.000000000000000000 ) ) ;
#374 = DIRECTION ( 'NONE',  ( 1.000000000000000000, 0.000000000000000000, 0.000000000000000000 ) ) ;
#375 = DIRECTION ( 'NONE',  ( -0.000000000000000000, -0.000000000000000000, -1.000000000000000000 ) ) ;
#376 = CARTESIAN_POINT ( 'NONE',  ( 56.47043435000058054, 189.9999999999997158, 5.000000000000000000 ) ) ;
#377 = ORIENTED_EDGE ( 'NONE', *, *, #4, .T. ) ;
#378 = ORIENTED_EDGE ( 'NONE', *, *, #894, .F. ) ;
#379 = CARTESIAN_POINT ( 'NONE',  ( -15.95272258738149596, 94.30084613085278988, -5.000000000000000000 ) ) ;
#380 = ADVANCED_FACE ( 'NONE', ( #905 ), #333, .F. ) ;
#381 = CARTESIAN_POINT ( 'NONE',  ( -42.50000000000000711, 114.9999999999999858, 8.673617379884035472E-16 ) ) ;
#382 = EDGE_CURVE ( 'NONE', #1143, #395, #1178, .T. ) ;
#383 = CARTESIAN_POINT ( 'NONE',  ( 19.29999999987390069, 25.40000000000097913, 10.00000000000000000 ) ) ;
#384 = ORIENTED_EDGE ( 'NONE', *, *, #299, .F. ) ;
#385 = ORIENTED_EDGE ( 'NONE', *, *, #504, .T. ) ;
#386 = PRODUCT_CONTEXT ( 'NONE', #188, 'mechanical' ) ;
#387 = CARTESIAN_POINT ( 'NONE',  ( -19.83026070344552494, 77.20773862054215897, 8.673617379884035472E-16 ) ) ;
#388 = ORIENTED_EDGE ( 'NONE', *, *, #444, .F. ) ;
#389 = CIRCLE ( 'NONE', #445, 10.00000000000000178 ) ;
#390 = B_SPLINE_SURFACE_WITH_KNOTS ( 'NONE', 3, 1, ( 
 ( #734, #97 ),
 ( #728, #1000 ),
 ( #455, #1192 ),
 ( #644, #1011 ),
 ( #172, #919 ) ),
 .UNSPECIFIED., .F., .F., .F.,
 ( 4, 1, 4 ),
 ( 2, 2 ),
 ( 0.000000000000000000, 0.4476169876909239509, 1.000000000000000000 ),
 ( 0.000000000000000000, 1.000000000000000000 ),
 .UNSPECIFIED. ) ;
#391 = AXIS2_PLACEMENT_3D ( 'NONE', #1165, #610, #977 ) ;
#392 = ORIENTED_EDGE ( 'NONE', *, *, #498, .F. ) ;
#393 = CIRCLE ( 'NONE', #702, 2.549999999999996714 ) ;
#394 = CARTESIAN_POINT ( 'NONE',  ( 0.000000000000000000, 39.99999999999999289, 0.000000000000000000 ) ) ;
#395 = VERTEX_POINT ( 'NONE', #1090 ) ;
#396 = CARTESIAN_POINT ( 'NONE',  ( 59.02043435000057769, 189.9999999999997158, 0.000000000000000000 ) ) ;
#397 = EDGE_CURVE ( 'NONE', #398, #8, #1083, .T. ) ;
#398 = VERTEX_POINT ( 'NONE', #328 ) ;
#399 = DIRECTION ( 'NONE',  ( -0.000000000000000000, -0.000000000000000000, 1.000000000000000000 ) ) ;
#400 = CARTESIAN_POINT ( 'NONE',  ( 9.999999999999998224, 9.999999999999998224, 0.000000000000000000 ) ) ;
#401 = DIRECTION ( 'NONE',  ( 1.000000000000000000, 0.000000000000000000, 0.000000000000000000 ) ) ;
#402 = VERTEX_POINT ( 'NONE', #514 ) ;
#403 =( NAMED_UNIT ( * ) SI_UNIT ( $, .STERADIAN. ) SOLID_ANGLE_UNIT ( ) );
#404 = EDGE_CURVE ( 'NONE', #205, #147, #427, .T. ) ;
#405 = CARTESIAN_POINT ( 'NONE',  ( -42.50000000000000711, 114.9999999999999858, 5.000000000000000000 ) ) ;
#406 = DIRECTION ( 'NONE',  ( -0.000000000000000000, -0.000000000000000000, -1.000000000000000000 ) ) ;
#407 = ORIENTED_EDGE ( 'NONE', *, *, #359, .T. ) ;
#408 = VECTOR ( 'NONE', #883, 1000.000000000000000 ) ;
#409 = EDGE_CURVE ( 'NONE', #431, #961, #721, .T. ) ;
#411 = CIRCLE ( 'NONE', #192, 2.549999999999996714 ) ;
#410 = LINE ( 'NONE', #1061, #716 ) ;
#412 = ORIENTED_EDGE ( 'NONE', *, *, #545, .F. ) ;
#413 = EDGE_CURVE ( 'NONE', #395, #521, #792, .T. ) ;
#414 = DIRECTION ( 'NONE',  ( -0.000000000000000000, -0.000000000000000000, -1.000000000000000000 ) ) ;
#415 = ADVANCED_FACE ( 'NONE', ( #984 ), #895, .F. ) ;
#416 = ADVANCED_FACE ( 'NONE', ( #1033 ), #1017, .F. ) ;
#417 = ORIENTED_EDGE ( 'NONE', *, *, #535, .T. ) ;
#418 = VERTEX_POINT ( 'NONE', #195 ) ;
#419 = DIRECTION ( 'NONE',  ( -1.000000000000000000, 0.000000000000000000, 0.000000000000000000 ) ) ;
#420 = DIRECTION ( 'NONE',  ( 1.000000000000000000, 0.000000000000000000, 0.000000000000000000 ) ) ;
#421 = DIRECTION ( 'NONE',  ( -0.000000000000000000, -0.000000000000000000, 1.000000000000000000 ) ) ;
#422 = ORIENTED_EDGE ( 'NONE', *, *, #118, .F. ) ;
#423 = CIRCLE ( 'NONE', #1085, 9.999999999999998224 ) ;
#424 = ORIENTED_EDGE ( 'NONE', *, *, #577, .T. ) ;
#425 = PLANE ( 'NONE',  #187 ) ;
#426 = AXIS2_PLACEMENT_3D ( 'NONE', #526, #1081, #420 ) ;
#427 = CIRCLE ( 'NONE', #1180, 2.549999999999996714 ) ;
#428 = CARTESIAN_POINT ( 'NONE',  ( -4.052238464249745320, 96.84327975893818063, 5.000000000000000000 ) ) ;
#429 = ADVANCED_FACE ( 'NONE', ( #280 ), #576, .F. ) ;
#430 = PLANE ( 'NONE',  #1203 ) ;
#431 = VERTEX_POINT ( 'NONE', #1 ) ;
#432 = ORIENTED_EDGE ( 'NONE', *, *, #982, .T. ) ;
#433 = DIRECTION ( 'NONE',  ( -0.000000000000000000, -0.000000000000000000, 1.000000000000000000 ) ) ;
#434 = CARTESIAN_POINT ( 'NONE',  ( 30.00000000000000000, 40.00000000000000711, 5.000000000000000000 ) ) ;
#435 = CARTESIAN_POINT ( 'NONE',  ( 74.02043435000005900, 185.0000000000000000, 0.000000000000000000 ) ) ;
#436 = ORIENTED_EDGE ( 'NONE', *, *, #1184, .F. ) ;
#437 = VERTEX_POINT ( 'NONE', #1096 ) ;
#438 = CARTESIAN_POINT ( 'NONE',  ( 64.02043435000004479, 175.0000000000000000, 0.000000000000000000 ) ) ;
#439 = CARTESIAN_POINT ( 'NONE',  ( 20.03611610838946433, 81.07962055621433706, 5.000000000000000000 ) ) ;
#440 = DIRECTION ( 'NONE',  ( -0.000000000000000000, -1.000000000000000000, -0.000000000000000000 ) ) ;
#441 = ORIENTED_EDGE ( 'NONE', *, *, #807, .F. ) ;
#442 = ORIENTED_EDGE ( 'NONE', *, *, #874, .T. ) ;
#443 = CARTESIAN_POINT ( 'NONE',  ( 17.28069999987390659, 38.10000000000098197, 0.000000000000000000 ) ) ;
#444 = EDGE_CURVE ( 'NONE', #340, #231, #1199, .T. ) ;
#446 = DIRECTION ( 'NONE',  ( -1.000000000000000000, 0.000000000000000000, 0.000000000000000000 ) ) ;
#445 = AXIS2_PLACEMENT_3D ( 'NONE', #747, #1113, #278 ) ;
#447 = CIRCLE ( 'NONE', #1128, 42.19870181898472339 ) ;
#448 = CYLINDRICAL_SURFACE ( 'NONE', #471, 70.88587360432316586 ) ;
#449 = AXIS2_PLACEMENT_3D ( 'NONE', #925, #1204, #727 ) ;
#450 = LINE ( 'NONE', #1166, #686 ) ;
#451 = ORIENTED_EDGE ( 'NONE', *, *, #13, .F. ) ;
#452 = CARTESIAN_POINT ( 'NONE',  ( 64.02043435000004479, 185.0000000000000000, 5.000000000000000000 ) ) ;
#453 = EDGE_CURVE ( 'NONE', #669, #515, #353, .T. ) ;
#454 = DIRECTION ( 'NONE',  ( 0.000000000000000000, 0.000000000000000000, -1.000000000000000000 ) ) ;
#455 = CARTESIAN_POINT ( 'NONE',  ( 20.03611610838946433, 81.07962055621433706, 5.000000000000000000 ) ) ;
#456 = DIRECTION ( 'NONE',  ( -0.000000000000000000, -0.000000000000000000, -1.000000000000000000 ) ) ;
#457 = EDGE_LOOP ( 'NONE', ( #156, #966, #529, #497 ) ) ;
#458 = EDGE_LOOP ( 'NONE', ( #717, #563, #315, #1188 ) ) ;
#459 = CARTESIAN_POINT ( 'NONE',  ( 30.00000000000001421, 10.00000000000000711, 5.000000000000000000 ) ) ;
#460 = CARTESIAN_POINT ( 'NONE',  ( 0.000000000000000000, 9.999999999999998224, 5.000000000000000000 ) ) ;
#461 = CARTESIAN_POINT ( 'NONE',  ( 0.000000000000000000, 39.99999999999999289, 0.000000000000000000 ) ) ;
#462 = CIRCLE ( 'NONE', #39, 2.550000000000000266 ) ;
#463 = CYLINDRICAL_SURFACE ( 'NONE', #371, 2.019299999999994544 ) ;
#464 = EDGE_LOOP ( 'NONE', ( #347, #523, #473, #953, #35, #21, #598, #758, #550, #829, #441, #123, #198, #127, #503, #707 ) ) ;
#465 = CARTESIAN_POINT ( 'NONE',  ( 10.00000000000007105, 0.000000000000000000, 0.000000000000000000 ) ) ;
#466 = FACE_BOUND ( 'NONE', #237, .T. ) ;
#467 =( LENGTH_UNIT ( ) NAMED_UNIT ( * ) SI_UNIT ( .MILLI., .METRE. ) );
#468 = AXIS2_PLACEMENT_3D ( 'NONE', #1196, #1190, #169 ) ;
#469 = DIRECTION ( 'NONE',  ( 0.000000000000000000, 0.000000000000000000, -1.000000000000000000 ) ) ;
#470 = ADVANCED_FACE ( 'NONE', ( #570 ), #921, .F. ) ;
#471 = AXIS2_PLACEMENT_3D ( 'NONE', #819, #983, #332 ) ;
#472 = CIRCLE ( 'NONE', #70, 2.550000000000000266 ) ;
#473 = ORIENTED_EDGE ( 'NONE', *, *, #103, .F. ) ;
#474 = CARTESIAN_POINT ( 'NONE',  ( -15.95272258738149596, 94.30084613085278988, 5.000000000000000000 ) ) ;
#475 = EDGE_CURVE ( 'NONE', #669, #1103, #926, .T. ) ;
#476 = FACE_BOUND ( 'NONE', #160, .T. ) ;
#477 = PLANE ( 'NONE',  #931 ) ;
#478 = DIRECTION ( 'NONE',  ( -0.000000000000000000, -0.000000000000000000, -1.000000000000000000 ) ) ;
#479 = ORIENTED_EDGE ( 'NONE', *, *, #397, .F. ) ;
#480 = ORIENTED_EDGE ( 'NONE', *, *, #844, .F. ) ;
#481 = DIRECTION ( 'NONE',  ( 0.000000000000000000, 0.000000000000000000, -1.000000000000000000 ) ) ;
#482 = ORIENTED_EDGE ( 'NONE', *, *, #351, .T. ) ;
#483 = ORIENTED_EDGE ( 'NONE', *, *, #13, .T. ) ;
#484 = APPLICATION_PROTOCOL_DEFINITION ( 'draft international standard', 'automotive_design', 1998, #188 ) ;
#485 = EDGE_CURVE ( 'NONE', #715, #56, #411, .T. ) ;
#486 = CARTESIAN_POINT ( 'NONE',  ( 25.76021717500003660, 205.0000000000000000, 0.000000000000000000 ) ) ;
#487 = ORIENTED_EDGE ( 'NONE', *, *, #475, .F. ) ;
#488 = ORIENTED_EDGE ( 'NONE', *, *, #844, .T. ) ;
#489 = CIRCLE ( 'NONE', #1051, 2.549999999999996714 ) ;
#490 = VECTOR ( 'NONE', #406, 1000.000000000000000 ) ;
#491 = VERTEX_POINT ( 'NONE', #1102 ) ;
#492 = CARTESIAN_POINT ( 'NONE',  ( 0.000000000000000000, 39.99999999999999289, 5.000000000000000000 ) ) ;
#493 = AXIS2_PLACEMENT_3D ( 'NONE', #1197, #364, #273 ) ;
#494 = DIRECTION ( 'NONE',  ( -0.000000000000000000, -0.000000000000000000, -1.000000000000000000 ) ) ;
#495 = ADVANCED_FACE ( 'NONE', ( #266 ), #463, .F. ) ;
#496 = CARTESIAN_POINT ( 'NONE',  ( 29.02043435000059546, 189.9999999999997158, 5.000000000000000000 ) ) ;
#497 = ORIENTED_EDGE ( 'NONE', *, *, #1060, .T. ) ;
#498 = EDGE_CURVE ( 'NONE', #276, #856, #1187, .T. ) ;
#499 = CARTESIAN_POINT ( 'NONE',  ( -45.12565642932312926, 134.1141263956768626, 0.000000000000000000 ) ) ;
#500 = CARTESIAN_POINT ( 'NONE',  ( -17.19261636709696006, 170.2175496967186064, 5.000000000000000000 ) ) ;
#501 = ORIENTED_EDGE ( 'NONE', *, *, #79, .F. ) ;
#502 = CARTESIAN_POINT ( 'NONE',  ( -19.83026070344552494, 77.20773862054215897, 0.000000000000000000 ) ) ;
#503 = ORIENTED_EDGE ( 'NONE', *, *, #413, .F. ) ;
#504 = EDGE_CURVE ( 'NONE', #595, #774, #258, .T. ) ;
#505 = VECTOR ( 'NONE', #225, 1000.000000000000000 ) ;
#506 = CIRCLE ( 'NONE', #1179, 70.88587360432316586 ) ;
#507 = ORIENTED_EDGE ( 'NONE', *, *, #705, .F. ) ;
#509 = CIRCLE ( 'NONE', #1148, 70.88587360432316586 ) ;
#508 = CYLINDRICAL_SURFACE ( 'NONE', #1145, 10.00000000000000178 ) ;
#510 = EDGE_LOOP ( 'NONE', ( #190, #451 ) ) ;
#511 = ORIENTED_EDGE ( 'NONE', *, *, #1184, .T. ) ;
#512 = LINE ( 'NONE', #313, #408 ) ;
#513 = FACE_OUTER_BOUND ( 'NONE', #76, .T. ) ;
#514 = CARTESIAN_POINT ( 'NONE',  ( -45.12565642932312926, 134.1141263956768626, 5.000000000000000000 ) ) ;
#515 = VERTEX_POINT ( 'NONE', #646 ) ;
#516 = CARTESIAN_POINT ( 'NONE',  ( -4.052238464249745320, 96.84327975893818063, 0.000000000000000000 ) ) ;
#517 = EDGE_CURVE ( 'NONE', #961, #491, #361, .T. ) ;
#518 = CARTESIAN_POINT ( 'NONE',  ( -19.74261636709696077, 170.2175496967186064, 5.000000000000000000 ) ) ;
#519 = DIRECTION ( 'NONE',  ( 0.000000000000000000, 0.000000000000000000, 1.000000000000000000 ) ) ;
#520 = DIRECTION ( 'NONE',  ( -0.000000000000000000, -0.000000000000000000, 1.000000000000000000 ) ) ;
#521 = VERTEX_POINT ( 'NONE', #549 ) ;
#522 = AXIS2_PLACEMENT_3D ( 'NONE', #110, #494, #862 ) ;
#523 = ORIENTED_EDGE ( 'NONE', *, *, #959, .F. ) ;
#524 = CARTESIAN_POINT ( 'NONE',  ( -30.77809069556068522, 133.4250871616178529, -5.000000000000000000 ) ) ;
#525 = VECTOR ( 'NONE', #338, 1000.000000000000000 ) ;
#526 = CARTESIAN_POINT ( 'NONE',  ( 20.00000000000001066, 10.00000000000000178, 0.000000000000000000 ) ) ;
#527 = DIRECTION ( 'NONE',  ( -0.000000000000000000, -0.000000000000000000, 1.000000000000000000 ) ) ;
#528 = EDGE_CURVE ( 'NONE', #693, #901, #185, .T. ) ;
#529 = ORIENTED_EDGE ( 'NONE', *, *, #528, .F. ) ;
#530 = EDGE_LOOP ( 'NONE', ( #1037, #412, #620, #555 ) ) ;
#531 = DIRECTION ( 'NONE',  ( -0.000000000000000000, -0.000000000000000000, -1.000000000000000000 ) ) ;
#532 = DIRECTION ( 'NONE',  ( -1.000000000000000000, 0.000000000000000000, 0.000000000000000000 ) ) ;
#533 = FACE_OUTER_BOUND ( 'NONE', #464, .T. ) ;
#534 = EDGE_LOOP ( 'NONE', ( #377, #1092, #330, #613 ) ) ;
#535 = EDGE_CURVE ( 'NONE', #431, #1044, #1012, .T. ) ;
#536 = ORIENTED_EDGE ( 'NONE', *, *, #129, .T. ) ;
#537 = FACE_OUTER_BOUND ( 'NONE', #997, .T. ) ;
#538 = FACE_OUTER_BOUND ( 'NONE', #608, .T. ) ;
#539 = DIRECTION ( 'NONE',  ( -1.000000000000000000, 0.000000000000000000, 0.000000000000000000 ) ) ;
#540 = ORIENTED_EDGE ( 'NONE', *, *, #825, .F. ) ;
#541 = EDGE_CURVE ( 'NONE', #340, #339, #263, .T. ) ;
#542 = EDGE_LOOP ( 'NONE', ( #305, #511, #1181, #821 ) ) ;
#543 = ADVANCED_FACE ( 'NONE', ( #80 ), #275, .F. ) ;
#544 = DIRECTION ( 'NONE',  ( -0.000000000000000000, -0.000000000000000000, -1.000000000000000000 ) ) ;
#545 = EDGE_CURVE ( 'NONE', #752, #1143, #572, .T. ) ;
#546 = DIRECTION ( 'NONE',  ( -1.000000000000000000, 0.000000000000000000, 0.000000000000000000 ) ) ;
#547 = FACE_OUTER_BOUND ( 'NONE', #31, .T. ) ;
#548 = AXIS2_PLACEMENT_3D ( 'NONE', #383, #933, #94 ) ;
#549 = CARTESIAN_POINT ( 'NONE',  ( 25.76021717500003660, 175.0000000000000000, 0.000000000000000000 ) ) ;
#550 = ORIENTED_EDGE ( 'NONE', *, *, #351, .F. ) ;
#551 = CARTESIAN_POINT ( 'NONE',  ( 74.02043435000005900, 185.0000000000000000, 5.000000000000000000 ) ) ;
#552 = FACE_BOUND ( 'NONE', #849, .T. ) ;
#553 = DIRECTION ( 'NONE',  ( -0.000000000000000000, -0.000000000000000000, -1.000000000000000000 ) ) ;
#554 = DIRECTION ( 'NONE',  ( -0.000000000000000000, -0.000000000000000000, -1.000000000000000000 ) ) ;
#555 = ORIENTED_EDGE ( 'NONE', *, *, #247, .T. ) ;
#556 = ORIENTED_EDGE ( 'NONE', *, *, #243, .T. ) ;
#557 = CYLINDRICAL_SURFACE ( 'NONE', #965, 9.999999999999998224 ) ;
#558 = CARTESIAN_POINT ( 'NONE',  ( 9.999999999999998224, 9.999999999999998224, 5.000000000000000000 ) ) ;
#559 = EDGE_CURVE ( 'NONE', #1086, #168, #325, .T. ) ;
#560 = FACE_OUTER_BOUND ( 'NONE', #614, .T. ) ;
#561 = AXIS2_PLACEMENT_3D ( 'NONE', #306, #199, #941 ) ;
#562 = CARTESIAN_POINT ( 'NONE',  ( 19.29999999987390069, 12.70000000000097806, 10.00000000000000000 ) ) ;
#563 = ORIENTED_EDGE ( 'NONE', *, *, #517, .T. ) ;
#564 = VERTEX_POINT ( 'NONE', #1115 ) ;
#565 = DIRECTION ( 'NONE',  ( -0.000000000000000000, -0.000000000000000000, -1.000000000000000000 ) ) ;
#566 = CARTESIAN_POINT ( 'NONE',  ( -42.50000000000000711, 114.9999999999999858, 5.000000000000000000 ) ) ;
#567 = AXIS2_PLACEMENT_3D ( 'NONE', #891, #964, #1068 ) ;
#568 =( NAMED_UNIT ( * ) PLANE_ANGLE_UNIT ( ) SI_UNIT ( $, .RADIAN. ) );
#569 = VECTOR ( 'NONE', #66, 1000.000000000000000 ) ;
#570 = FACE_OUTER_BOUND ( 'NONE', #1034, .T. ) ;
#571 = ORIENTED_EDGE ( 'NONE', *, *, #135, .T. ) ;
#572 = CIRCLE ( 'NONE', #645, 42.19870181898472339 ) ;
#573 = EDGE_LOOP ( 'NONE', ( #1195, #1046 ) ) ;
#574 =( LENGTH_UNIT ( ) NAMED_UNIT ( * ) SI_UNIT ( .MILLI., .METRE. ) );
#575 = FACE_OUTER_BOUND ( 'NONE', #458, .T. ) ;
#576 = CYLINDRICAL_SURFACE ( 'NONE', #548, 2.019300000000001649 ) ;
#577 = EDGE_CURVE ( 'NONE', #588, #850, #1070, .T. ) ;
#578 = EDGE_LOOP ( 'NONE', ( #422, #633, #591, #1207 ) ) ;
#579 = SHAPE_DEFINITION_REPRESENTATION ( #1065, #655 ) ;
#580 = CARTESIAN_POINT ( 'NONE',  ( 61.57043435000057485, 189.9999999999997158, 0.000000000000000000 ) ) ;
#581 = CARTESIAN_POINT ( 'NONE',  ( 0.000000000000000000, 10.00000000000007105, 5.000000000000000000 ) ) ;
#582 = VERTEX_POINT ( 'NONE', #1108 ) ;
#583 = ORIENTED_EDGE ( 'NONE', *, *, #453, .F. ) ;
#584 = ADVANCED_FACE ( 'NONE', ( #930, #1015, #1183, #466, #839, #78, #476, #552, #978 ), #83, .F. ) ;
#585 = CARTESIAN_POINT ( 'NONE',  ( -19.83026070344552494, 77.20773862054215897, 5.000000000000000000 ) ) ;
#586 = CARTESIAN_POINT ( 'NONE',  ( -18.50272258738149844, 94.30084613085278988, 0.000000000000000000 ) ) ;
#587 = CIRCLE ( 'NONE', #44, 70.88587360432316586 ) ;
#588 = VERTEX_POINT ( 'NONE', #460 ) ;
#589 = CIRCLE ( 'NONE', #367, 10.00000000000000178 ) ;
#590 =( GEOMETRIC_REPRESENTATION_CONTEXT ( 3 ) GLOBAL_UNCERTAINTY_ASSIGNED_CONTEXT ( ( #73 ) ) GLOBAL_UNIT_ASSIGNED_CONTEXT ( ( #467, #568, #847 ) ) REPRESENTATION_CONTEXT ( 'NONE', 'WORKASPACE' ) );
#591 = ORIENTED_EDGE ( 'NONE', *, *, #1073, .T. ) ;
#592 = LINE ( 'NONE', #851, #222 ) ;
#593 = CARTESIAN_POINT ( 'NONE',  ( 25.76021717500003660, 134.1141263956768626, 5.000000000000000000 ) ) ;
#594 = CYLINDRICAL_SURFACE ( 'NONE', #227, 2.549999999999996714 ) ;
#595 = VERTEX_POINT ( 'NONE', #999 ) ;
#596 = DIRECTION ( 'NONE',  ( -1.000000000000000000, -0.000000000000000000, -0.000000000000000000 ) ) ;
#597 = EDGE_CURVE ( 'NONE', #691, #140, #749, .T. ) ;
#598 = ORIENTED_EDGE ( 'NONE', *, *, #754, .F. ) ;
#599 = EDGE_CURVE ( 'NONE', #588, #51, #423, .T. ) ;
#600 = DIRECTION ( 'NONE',  ( 0.000000000000000000, 0.000000000000000000, -1.000000000000000000 ) ) ;
#601 = EDGE_LOOP ( 'NONE', ( #660, #16, #1163, #1152 ) ) ;
#602 = AXIS2_PLACEMENT_3D ( 'NONE', #363, #531, #255 ) ;
#604 = CIRCLE ( 'NONE', #1008, 2.019300000000001649 ) ;
#603 = CARTESIAN_POINT ( 'NONE',  ( 21.31929999987389479, 38.10000000000098197, 5.000000000000000000 ) ) ;
#605 = DIRECTION ( 'NONE',  ( -1.000000000000000000, 0.000000000000000000, 0.000000000000000000 ) ) ;
#606 = CARTESIAN_POINT ( 'NONE',  ( -16.43848464398469389, 132.8012981810152837, 5.000000000000000000 ) ) ;
#607 = EDGE_CURVE ( 'NONE', #774, #890, #310, .T. ) ;
#608 = EDGE_LOOP ( 'NONE', ( #540, #106, #865, #482 ) ) ;
#609 = LINE ( 'NONE', #869, #125 ) ;
#610 = DIRECTION ( 'NONE',  ( -0.000000000000000000, -0.000000000000000000, -1.000000000000000000 ) ) ;
#611 = DIRECTION ( 'NONE',  ( -1.000000000000000000, 0.000000000000000000, 0.000000000000000000 ) ) ;
#612 = DIRECTION ( 'NONE',  ( -1.000000000000000000, 0.000000000000000000, -0.000000000000000000 ) ) ;
#613 = ORIENTED_EDGE ( 'NONE', *, *, #970, .T. ) ;
#614 = EDGE_LOOP ( 'NONE', ( #122, #882, #1013, #392 ) ) ;
#615 = LINE ( 'NONE', #551, #888 ) ;
#616 = VECTOR ( 'NONE', #115, 1000.000000000000000 ) ;
#617 = DIRECTION ( 'NONE',  ( -1.000000000000000000, 0.000000000000000000, 0.000000000000000000 ) ) ;
#618 = DIRECTION ( 'NONE',  ( 1.000000000000000000, 0.000000000000000000, 0.000000000000000000 ) ) ;
#619 = ORIENTED_EDGE ( 'NONE', *, *, #1021, .F. ) ;
#620 = ORIENTED_EDGE ( 'NONE', *, *, #200, .T. ) ;
#621 = FACE_OUTER_BOUND ( 'NONE', #711, .T. ) ;
#622 = CIRCLE ( 'NONE', #602, 42.19870181898472339 ) ;
#623 = EDGE_CURVE ( 'NONE', #1074, #778, #687, .T. ) ;
#624 = CARTESIAN_POINT ( 'NONE',  ( -30.77809069556068522, 133.4250871616178529, 0.000000000000000000 ) ) ;
#625 = FACE_BOUND ( 'NONE', #223, .T. ) ;
#626 = ORIENTED_EDGE ( 'NONE', *, *, #404, .F. ) ;
#627 = ORIENTED_EDGE ( 'NONE', *, *, #1116, .T. ) ;
#628 = DIRECTION ( 'NONE',  ( 0.000000000000000000, 0.000000000000000000, -1.000000000000000000 ) ) ;
#629 = DIRECTION ( 'NONE',  ( 0.000000000000000000, 0.000000000000000000, -1.000000000000000000 ) ) ;
#630 = ADVANCED_FACE ( 'NONE', ( #1020 ), #846, .F. ) ;
#631 = CARTESIAN_POINT ( 'NONE',  ( 29.02043435000059546, 189.9999999999997158, 0.000000000000000000 ) ) ;
#632 = ORIENTED_EDGE ( 'NONE', *, *, #413, .T. ) ;
#633 = ORIENTED_EDGE ( 'NONE', *, *, #688, .F. ) ;
#634 = CARTESIAN_POINT ( 'NONE',  ( 19.29999999987390069, 38.10000000000098197, 0.000000000000000000 ) ) ;
#635 =( GEOMETRIC_REPRESENTATION_CONTEXT ( 3 ) GLOBAL_UNCERTAINTY_ASSIGNED_CONTEXT ( ( #184 ) ) GLOBAL_UNIT_ASSIGNED_CONTEXT ( ( #574, #206, #403 ) ) REPRESENTATION_CONTEXT ( 'NONE', 'WORKASPACE' ) );
#636 = CARTESIAN_POINT ( 'NONE',  ( 19.29999999987390069, 25.40000000000097913, 5.000000000000000000 ) ) ;
#637 = DIRECTION ( 'NONE',  ( -0.000000000000000000, -0.000000000000000000, -1.000000000000000000 ) ) ;
#638 = ORIENTED_EDGE ( 'NONE', *, *, #38, .T. ) ;
#639 = DIRECTION ( 'NONE',  ( 1.000000000000000000, -0.000000000000000000, -0.000000000000000000 ) ) ;
#640 = AXIS2_PLACEMENT_3D ( 'NONE', #230, #1071, #1155 ) ;
#642 = CARTESIAN_POINT ( 'NONE',  ( 29.02043435000059546, 189.9999999999997158, 5.000000000000000000 ) ) ;
#641 = CIRCLE ( 'NONE', #468, 2.550000000000000266 ) ;
#643 = VECTOR ( 'NONE', #672, 1000.000000000000000 ) ;
#644 = CARTESIAN_POINT ( 'NONE',  ( -4.052238464249745320, 96.84327975893818063, 5.000000000000000000 ) ) ;
#645 = AXIS2_PLACEMENT_3D ( 'NONE', #1023, #350, #374 ) ;
#646 = CARTESIAN_POINT ( 'NONE',  ( 64.02043435000004479, 205.0000000000000000, 0.000000000000000000 ) ) ;
#647 = LINE ( 'NONE', #459, #143 ) ;
#648 = EDGE_CURVE ( 'NONE', #418, #595, #604, .T. ) ;
#649 = CARTESIAN_POINT ( 'NONE',  ( 74.02043435000005900, 185.0000000000000000, 5.000000000000000000 ) ) ;
#650 = DIRECTION ( 'NONE',  ( -1.000000000000000000, 0.000000000000000000, 0.000000000000000000 ) ) ;
#651 = CARTESIAN_POINT ( 'NONE',  ( 59.02043435000057769, 189.9999999999997158, 5.000000000000000000 ) ) ;
#652 = EDGE_LOOP ( 'NONE', ( #1119, #161, #42, #780 ) ) ;
#653 = ORIENTED_EDGE ( 'NONE', *, *, #810, .T. ) ;
#654 = DIRECTION ( 'NONE',  ( -1.000000000000000000, 0.000000000000000000, 0.000000000000000000 ) ) ;
#655 = ADVANCED_BREP_SHAPE_REPRESENTATION ( 'Swivel_Bracket', ( #150, #561 ), #635 ) ;
#656 = CARTESIAN_POINT ( 'NONE',  ( 0.000000000000000000, 39.99999999999999289, 5.000000000000000000 ) ) ;
#657 = FILL_AREA_STYLE_COLOUR ( '', #1106 ) ;
#658 = B_SPLINE_CURVE_WITH_KNOTS ( 'NONE', 3,
 ( #434, #898, #439, #428, #811 ),
 .UNSPECIFIED., .F., .F.,
 ( 4, 1, 4 ),
 ( 0.000000000000000000, 0.4476169876909239509, 1.000000000000000000 ),
 .UNSPECIFIED. ) ;
#659 = CARTESIAN_POINT ( 'NONE',  ( 59.02043435000057769, 189.9999999999997158, 5.000000000000000000 ) ) ;
#660 = ORIENTED_EDGE ( 'NONE', *, *, #720, .F. ) ;
#661 = ORIENTED_EDGE ( 'NONE', *, *, #852, .T. ) ;
#662 = CARTESIAN_POINT ( 'NONE',  ( 5.703481184926020548E-15, 60.59271032088794584, 5.000000000000000000 ) ) ;
#663 = AXIS2_PLACEMENT_3D ( 'NONE', #1058, #1150, #233 ) ;
#664 = CARTESIAN_POINT ( 'NONE',  ( 0.000000000000000000, 10.00000000000007105, 5.000000000000000000 ) ) ;
#665 = EDGE_CURVE ( 'NONE', #940, #927, #472, .T. ) ;
#666 = VECTOR ( 'NONE', #1170, 1000.000000000000000 ) ;
#667 = CARTESIAN_POINT ( 'NONE',  ( 19.29999999987390069, 38.10000000000098197, 10.00000000000000000 ) ) ;
#668 = ORIENTED_EDGE ( 'NONE', *, *, #970, .F. ) ;
#669 = VERTEX_POINT ( 'NONE', #72 ) ;
#670 = DIRECTION ( 'NONE',  ( 0.000000000000000000, 0.000000000000000000, -1.000000000000000000 ) ) ;
#671 = ORIENTED_EDGE ( 'NONE', *, *, #485, .T. ) ;
#672 = DIRECTION ( 'NONE',  ( -0.000000000000000000, -0.000000000000000000, -1.000000000000000000 ) ) ;
#673 = ORIENTED_EDGE ( 'NONE', *, *, #599, .F. ) ;
#674 = ORIENTED_EDGE ( 'NONE', *, *, #485, .F. ) ;
#675 = EDGE_CURVE ( 'NONE', #828, #767, #228, .T. ) ;
#676 = CARTESIAN_POINT ( 'NONE',  ( 17.28069999987389949, 25.40000000000097913, 10.00000000000000000 ) ) ;
#677 = VERTEX_POINT ( 'NONE', #741 ) ;
#678 = CYLINDRICAL_SURFACE ( 'NONE', #360, 2.550000000000000266 ) ;
#679 = CARTESIAN_POINT ( 'NONE',  ( -42.50000000000000711, 114.9999999999999858, 0.000000000000000000 ) ) ;
#680 = PLANE ( 'NONE',  #166 ) ;
#681 = CIRCLE ( 'NONE', #1104, 2.019299999999998096 ) ;
#682 = ORIENTED_EDGE ( 'NONE', *, *, #665, .T. ) ;
#683 = AXIS2_PLACEMENT_3D ( 'NONE', #809, #924, #1006 ) ;
#684 = CLOSED_SHELL ( 'NONE', ( #543, #101, #213, #429, #775, #380, #1175, #1149, #917, #1088, #183, #120, #415, #64, #690, #27, #935, #61, #763, #170, #1003, #288, #878, #972, #584, #334, #864, #630, #362, #495, #470, #416, #259, #1130 ) ) ;
#685 = CARTESIAN_POINT ( 'NONE',  ( -30.77809069556068522, 133.4250871616178529, -5.000000000000000000 ) ) ;
#686 = VECTOR ( 'NONE', #440, 1000.000000000000000 ) ;
#687 = B_SPLINE_CURVE_WITH_KNOTS ( 'NONE', 3,
 ( #566, #256, #733, #279, #656 ),
 .UNSPECIFIED., .F., .F.,
 ( 4, 1, 4 ),
 ( 0.000000000000000000, 0.5142613833358897768, 1.000000000000000000 ),
 .UNSPECIFIED. ) ;
#688 = EDGE_CURVE ( 'NONE', #767, #828, #393, .T. ) ;
#689 = CARTESIAN_POINT ( 'NONE',  ( 5.703481184926020548E-15, 60.59271032088794584, 0.000000000000000000 ) ) ;
#690 = ADVANCED_FACE ( 'NONE', ( #918 ), #831, .F. ) ;
#691 = VERTEX_POINT ( 'NONE', #649 ) ;
#692 = CARTESIAN_POINT ( 'NONE',  ( 20.00000000000001066, 10.00000000000000178, 5.000000000000000000 ) ) ;
#693 = VERTEX_POINT ( 'NONE', #1043 ) ;
#694 = CARTESIAN_POINT ( 'NONE',  ( -14.64261636709696113, 170.2175496967186064, 0.000000000000000000 ) ) ;
#695 = DIRECTION ( 'NONE',  ( -1.000000000000000000, 0.000000000000000000, 0.000000000000000000 ) ) ;
#696 = EDGE_CURVE ( 'NONE', #961, #431, #112, .T. ) ;
#697 = FACE_OUTER_BOUND ( 'NONE', #822, .T. ) ;
#698 = AXIS2_PLACEMENT_3D ( 'NONE', #685, #399, #771 ) ;
#699 = AXIS2_PLACEMENT_3D ( 'NONE', #396, #951, #303 ) ;
#700 = EDGE_LOOP ( 'NONE', ( #626, #369 ) ) ;
#702 = AXIS2_PLACEMENT_3D ( 'NONE', #642, #1010, #171 ) ;
#701 = DIRECTION ( 'NONE',  ( 1.000000000000000000, 0.000000000000000000, 0.000000000000000000 ) ) ;
#703 = CARTESIAN_POINT ( 'NONE',  ( -28.22809069556068806, 133.4250871616178529, 5.000000000000000000 ) ) ;
#704 = CARTESIAN_POINT ( 'NONE',  ( 19.29999999987390069, 25.40000000000097913, 0.000000000000000000 ) ) ;
#705 = EDGE_CURVE ( 'NONE', #890, #774, #269, .T. ) ;
#706 = DIRECTION ( 'NONE',  ( -0.000000000000000000, -0.000000000000000000, -1.000000000000000000 ) ) ;
#707 = ORIENTED_EDGE ( 'NONE', *, *, #247, .F. ) ;
#708 = FACE_OUTER_BOUND ( 'NONE', #1078, .T. ) ;
#709 = CARTESIAN_POINT ( 'NONE',  ( 74.02043435000005900, 194.9999999999999716, 0.000000000000000000 ) ) ;
#710 = CARTESIAN_POINT ( 'NONE',  ( -13.40272258738149702, 94.30084613085278988, -5.000000000000000000 ) ) ;
#711 = EDGE_LOOP ( 'NONE', ( #281, #914, #139, #923 ) ) ;
#712 = DIRECTION ( 'NONE',  ( -4.625929269271485914E-16, 1.000000000000000000, 0.000000000000000000 ) ) ;
#713 = CARTESIAN_POINT ( 'NONE',  ( 31.57043435000059262, 189.9999999999997158, 5.000000000000000000 ) ) ;
#714 = CYLINDRICAL_SURFACE ( 'NONE', #640, 2.550000000000000266 ) ;
#715 = VERTEX_POINT ( 'NONE', #121 ) ;
#716 = VECTOR ( 'NONE', #712, 1000.000000000000000 ) ;
#717 = ORIENTED_EDGE ( 'NONE', *, *, #696, .F. ) ;
#718 = DIRECTION ( 'NONE',  ( -1.000000000000000000, 0.000000000000000000, 0.000000000000000000 ) ) ;
#719 = CIRCLE ( 'NONE', #797, 2.550000000000000266 ) ;
#720 = EDGE_CURVE ( 'NONE', #402, #1074, #587, .T. ) ;
#721 = CIRCLE ( 'NONE', #345, 2.019299999999994544 ) ;
#722 = CARTESIAN_POINT ( 'NONE',  ( 64.02043435000004479, 175.0000000000000000, 0.000000000000000000 ) ) ;
#723 = EDGE_LOOP ( 'NONE', ( #507, #770 ) ) ;
#724 = EDGE_LOOP ( 'NONE', ( #653, #730, #673, #424 ) ) ;
#725 = DIRECTION ( 'NONE',  ( 1.000000000000000000, 0.000000000000000000, 0.000000000000000000 ) ) ;
#726 = B_SPLINE_CURVE_WITH_KNOTS ( 'NONE', 3,
 ( #679, #760, #502, #689, #394 ),
 .UNSPECIFIED., .F., .F.,
 ( 4, 1, 4 ),
 ( 0.000000000000000000, 0.5142613833358897768, 1.000000000000000000 ),
 .UNSPECIFIED. ) ;
#727 = DIRECTION ( 'NONE',  ( -1.000000000000000000, 0.000000000000000000, -0.000000000000000000 ) ) ;
#728 = CARTESIAN_POINT ( 'NONE',  ( 30.00000000000000000, 58.99687226322747335, 5.000000000000000000 ) ) ;
#729 = CARTESIAN_POINT ( 'NONE',  ( 17.28069999987390304, 12.70000000000097806, 10.00000000000000000 ) ) ;
#730 = ORIENTED_EDGE ( 'NONE', *, *, #1116, .F. ) ;
#731 = VERTEX_POINT ( 'NONE', #772 ) ;
#732 = FACE_OUTER_BOUND ( 'NONE', #724, .T. ) ;
#733 = CARTESIAN_POINT ( 'NONE',  ( -19.83026070344552494, 77.20773862054215897, 5.000000000000000000 ) ) ;
#734 = CARTESIAN_POINT ( 'NONE',  ( 30.00000000000000000, 40.00000000000001421, 5.000000000000000000 ) ) ;
#735 = CARTESIAN_POINT ( 'NONE',  ( 19.29999999987390069, 25.40000000000097913, 10.00000000000000000 ) ) ;
#736 = EDGE_CURVE ( 'NONE', #354, #335, #142, .T. ) ;
#737 = ORIENTED_EDGE ( 'NONE', *, *, #736, .T. ) ;
#738 = CARTESIAN_POINT ( 'NONE',  ( 10.00000000000007105, 0.000000000000000000, 5.000000000000000000 ) ) ;
#739 = AXIS2_PLACEMENT_3D ( 'NONE', #116, #768, #308 ) ;
#741 = CARTESIAN_POINT ( 'NONE',  ( 25.76021717500003305, 205.0000000000000284, 0.000000000000000000 ) ) ;
#740 = AXIS2_PLACEMENT_3D ( 'NONE', #349, #815, #725 ) ;
#742 = CIRCLE ( 'NONE', #215, 2.549999999999996714 ) ;
#743 = LINE ( 'NONE', #1016, #1064 ) ;
#744 = DIRECTION ( 'NONE',  ( 1.000000000000000000, 0.000000000000000000, 0.000000000000000000 ) ) ;
#745 = VERTEX_POINT ( 'NONE', #499 ) ;
#746 = ORIENTED_EDGE ( 'NONE', *, *, #1200, .T. ) ;
#747 = CARTESIAN_POINT ( 'NONE',  ( 64.02043435000004479, 194.9999999999999716, 5.000000000000000000 ) ) ;
#748 = EDGE_CURVE ( 'NONE', #418, #890, #284, .T. ) ;
#749 = LINE ( 'NONE', #357, #969 ) ;
#750 = DIRECTION ( 'NONE',  ( -0.000000000000000000, -0.000000000000000000, -1.000000000000000000 ) ) ;
#751 = ORIENTED_EDGE ( 'NONE', *, *, #1139, .T. ) ;
#752 = VERTEX_POINT ( 'NONE', #12 ) ;
#753 = DIRECTION ( 'NONE',  ( -1.000000000000000000, 0.000000000000000000, 0.000000000000000000 ) ) ;
#754 = EDGE_CURVE ( 'NONE', #372, #186, #726, .T. ) ;
#755 = CARTESIAN_POINT ( 'NONE',  ( -37.47927857497023041, 97.07003931264038954, 8.673617379884035472E-16 ) ) ;
#756 = CARTESIAN_POINT ( 'NONE',  ( -33.32809069556068238, 133.4250871616178529, 0.000000000000000000 ) ) ;
#757 = DIRECTION ( 'NONE',  ( -0.000000000000000000, -0.000000000000000000, -1.000000000000000000 ) ) ;
#758 = ORIENTED_EDGE ( 'NONE', *, *, #996, .F. ) ;
#759 = APPLICATION_PROTOCOL_DEFINITION ( 'draft international standard', 'automotive_design', 1998, #789 ) ;
#760 = CARTESIAN_POINT ( 'NONE',  ( -37.47927857497023041, 97.07003931264038954, 0.000000000000000000 ) ) ;
#761 = EDGE_CURVE ( 'NONE', #398, #270, #885, .T. ) ;
#762 = CARTESIAN_POINT ( 'NONE',  ( 56.47043435000058054, 189.9999999999997158, 0.000000000000000000 ) ) ;
#763 = ADVANCED_FACE ( 'NONE', ( #193 ), #203, .F. ) ;
#764 = CIRCLE ( 'NONE', #289, 2.019299999999998096 ) ;
#765 = ORIENTED_EDGE ( 'NONE', *, *, #1095, .T. ) ;
#766 = AXIS2_PLACEMENT_3D ( 'NONE', #562, #833, #1110 ) ;
#767 = VERTEX_POINT ( 'NONE', #948 ) ;
#768 = DIRECTION ( 'NONE',  ( 0.000000000000000000, 0.000000000000000000, -1.000000000000000000 ) ) ;
#769 = CARTESIAN_POINT ( 'NONE',  ( -30.77809069556068522, 133.4250871616178529, 5.000000000000000000 ) ) ;
#770 = ORIENTED_EDGE ( 'NONE', *, *, #607, .F. ) ;
#771 = DIRECTION ( 'NONE',  ( 1.000000000000000000, 0.000000000000000000, 0.000000000000000000 ) ) ;
#772 = CARTESIAN_POINT ( 'NONE',  ( 20.00000000000001776, 0.000000000000000000, 0.000000000000000000 ) ) ;
#773 = DIRECTION ( 'NONE',  ( -1.000000000000000000, 0.000000000000000000, 0.000000000000000000 ) ) ;
#774 = VERTEX_POINT ( 'NONE', #866 ) ;
#775 = ADVANCED_FACE ( 'NONE', ( #575 ), #214, .F. ) ;
#776 = CARTESIAN_POINT ( 'NONE',  ( 5.703481184926020548E-15, 60.59271032088794584, 8.673617379884035472E-16 ) ) ;
#777 = VECTOR ( 'NONE', #1131, 1000.000000000000000 ) ;
#778 = VERTEX_POINT ( 'NONE', #937 ) ;
#779 = VECTOR ( 'NONE', #916, 1000.000000000000000 ) ;
#780 = ORIENTED_EDGE ( 'NONE', *, *, #947, .T. ) ;
#781 = DIRECTION ( 'NONE',  ( -0.000000000000000000, -0.000000000000000000, 1.000000000000000000 ) ) ;
#782 = ORIENTED_EDGE ( 'NONE', *, *, #25, .F. ) ;
#783 = ORIENTED_EDGE ( 'NONE', *, *, #1200, .F. ) ;
#784 = CARTESIAN_POINT ( 'NONE',  ( -18.50272258738149844, 94.30084613085278988, 5.000000000000000000 ) ) ;
#785 = EDGE_CURVE ( 'NONE', #51, #1091, #22, .T. ) ;
#786 = EDGE_LOOP ( 'NONE', ( #480, #385, #1054, #900 ) ) ;
#787 = ORIENTED_EDGE ( 'NONE', *, *, #528, .T. ) ;
#788 = LINE ( 'NONE', #242, #1177 ) ;
#789 = APPLICATION_CONTEXT ( 'automotive_design' ) ;
#790 = EDGE_CURVE ( 'NONE', #1111, #276, #681, .T. ) ;
#791 = LINE ( 'NONE', #713, #932 ) ;
#792 = CIRCLE ( 'NONE', #1067, 42.19870181898472339 ) ;
#793 = CARTESIAN_POINT ( 'NONE',  ( 64.02043435000004479, 175.0000000000000000, 5.000000000000000000 ) ) ;
#794 = EDGE_CURVE ( 'NONE', #515, #677, #219, .T. ) ;
#795 = ORIENTED_EDGE ( 'NONE', *, *, #475, .T. ) ;
#796 = AXIS2_PLACEMENT_3D ( 'NONE', #861, #1125, #9 ) ;
#797 = AXIS2_PLACEMENT_3D ( 'NONE', #893, #40, #800 ) ;
#799 = AXIS2_PLACEMENT_3D ( 'NONE', #296, #481, #853 ) ;
#798 = DIRECTION ( 'NONE',  ( 0.000000000000000000, -1.000000000000000000, 0.000000000000000000 ) ) ;
#800 = DIRECTION ( 'NONE',  ( 1.000000000000000000, 0.000000000000000000, 0.000000000000000000 ) ) ;
#801 = FACE_BOUND ( 'NONE', #723, .T. ) ;
#802 = VERTEX_POINT ( 'NONE', #580 ) ;
#803 = CARTESIAN_POINT ( 'NONE',  ( 0.000000000000000000, 9.999999999999998224, 0.000000000000000000 ) ) ;
#804 = CYLINDRICAL_SURFACE ( 'NONE', #1146, 2.549999999999996714 ) ;
#805 = CARTESIAN_POINT ( 'NONE',  ( 15.58218028392130350, 80.48346585126842001, 0.000000000000000000 ) ) ;
#806 = ORIENTED_EDGE ( 'NONE', *, *, #648, .T. ) ;
#807 = EDGE_CURVE ( 'NONE', #99, #515, #589, .T. ) ;
#808 = EDGE_LOOP ( 'NONE', ( #975, #980, #282, #661, #990, #298, #765, #795, #180, #86, #253, #1024, #81, #100, #174, #787 ) ) ;
#809 = CARTESIAN_POINT ( 'NONE',  ( 25.76021717500003660, 134.1141263956768626, 0.000000000000000000 ) ) ;
#810 = EDGE_CURVE ( 'NONE', #850, #1072, #1028, .T. ) ;
#811 = CARTESIAN_POINT ( 'NONE',  ( -12.50000000000000355, 115.0000000000000000, 5.000000000000000000 ) ) ;
#812 = CARTESIAN_POINT ( 'NONE',  ( -42.50000000000000711, 114.9999999999999858, 0.000000000000000000 ) ) ;
#813 = AXIS2_PLACEMENT_3D ( 'NONE', #830, #57, #1105 ) ;
#814 = ORIENTED_EDGE ( 'NONE', *, *, #852, .F. ) ;
#815 = DIRECTION ( 'NONE',  ( 0.000000000000000000, 0.000000000000000000, 1.000000000000000000 ) ) ;
#816 = AXIS2_PLACEMENT_3D ( 'NONE', #1205, #375, #1052 ) ;
#817 = VECTOR ( 'NONE', #286, 1000.000000000000000 ) ;
#818 = CARTESIAN_POINT ( 'NONE',  ( 29.02043435000059546, 189.9999999999997158, 5.000000000000000000 ) ) ;
#819 = CARTESIAN_POINT ( 'NONE',  ( 25.76021717500003660, 134.1141263956768626, 5.000000000000000000 ) ) ;
#820 = CARTESIAN_POINT ( 'NONE',  ( -30.77809069556068522, 133.4250871616178529, 5.000000000000000000 ) ) ;
#821 = ORIENTED_EDGE ( 'NONE', *, *, #1169, .T. ) ;
#822 = EDGE_LOOP ( 'NONE', ( #873, #432, #834, #60 ) ) ;
#823 = DIRECTION ( 'NONE',  ( 0.000000000000000000, 0.000000000000000000, 1.000000000000000000 ) ) ;
#824 = DIRECTION ( 'NONE',  ( -1.000000000000000000, 0.000000000000000000, 0.000000000000000000 ) ) ;
#825 = EDGE_CURVE ( 'NONE', #402, #745, #956, .T. ) ;
#826 = SURFACE_STYLE_USAGE ( .BOTH. , #84 ) ;
#827 = DIRECTION ( 'NONE',  ( 0.000000000000000000, 0.000000000000000000, 1.000000000000000000 ) ) ;
#828 = VERTEX_POINT ( 'NONE', #1080 ) ;
#829 = ORIENTED_EDGE ( 'NONE', *, *, #794, .F. ) ;
#830 = CARTESIAN_POINT ( 'NONE',  ( 30.00000000000001421, 10.00000000000000711, 5.000000000000000000 ) ) ;
#831 = PLANE ( 'NONE',  #493 ) ;
#832 = CARTESIAN_POINT ( 'NONE',  ( 25.76021717500003660, 134.1141263956768626, 5.000000000000000000 ) ) ;
#833 = DIRECTION ( 'NONE',  ( -0.000000000000000000, -0.000000000000000000, -1.000000000000000000 ) ) ;
#834 = ORIENTED_EDGE ( 'NONE', *, *, #1040, .T. ) ;
#835 = EDGE_CURVE ( 'NONE', #1091, #731, #788, .T. ) ;
#836 = CARTESIAN_POINT ( 'NONE',  ( -28.22809069556068806, 133.4250871616178529, 0.000000000000000000 ) ) ;
#837 = AXIS2_PLACEMENT_3D ( 'NONE', #302, #1144, #5 ) ;
#839 = FACE_BOUND ( 'NONE', #75, .T. ) ;
#838 = CIRCLE ( 'NONE', #740, 2.550000000000000266 ) ;
#840 = AXIS2_PLACEMENT_3D ( 'NONE', #251, #337, #532 ) ;
#841 = CYLINDRICAL_SURFACE ( 'NONE', #816, 2.019299999999998096 ) ;
#842 = DIRECTION ( 'NONE',  ( -1.000000000000000000, 0.000000000000000000, 0.000000000000000000 ) ) ;
#843 = EDGE_LOOP ( 'NONE', ( #922, #871 ) ) ;
#844 = EDGE_CURVE ( 'NONE', #595, #418, #307, .T. ) ;
#845 = DIRECTION ( 'NONE',  ( 0.000000000000000000, 0.000000000000000000, 1.000000000000000000 ) ) ;
#846 = CYLINDRICAL_SURFACE ( 'NONE', #872, 2.550000000000000266 ) ;
#847 =( NAMED_UNIT ( * ) SI_UNIT ( $, .STERADIAN. ) SOLID_ANGLE_UNIT ( ) );
#848 = DIRECTION ( 'NONE',  ( 0.000000000000000000, 0.000000000000000000, 1.000000000000000000 ) ) ;
#849 = EDGE_LOOP ( 'NONE', ( #7, #674 ) ) ;
#850 = VERTEX_POINT ( 'NONE', #803 ) ;
#851 = CARTESIAN_POINT ( 'NONE',  ( 21.31929999987389834, 12.70000000000097806, 10.00000000000000000 ) ) ;
#852 = EDGE_CURVE ( 'NONE', #1194, #355, #512, .T. ) ;
#853 = DIRECTION ( 'NONE',  ( -1.000000000000000000, 0.000000000000000000, 0.000000000000000000 ) ) ;
#854 = EDGE_LOOP ( 'NONE', ( #536, #1142, #249, #627 ) ) ;
#855 = DIRECTION ( 'NONE',  ( -1.000000000000000000, 0.000000000000000000, 0.000000000000000000 ) ) ;
#856 = VERTEX_POINT ( 'NONE', #141 ) ;
#857 = VECTOR ( 'NONE', #639, 1000.000000000000000 ) ;
#858 = CIRCLE ( 'NONE', #324, 2.550000000000000266 ) ;
#859 = ORIENTED_EDGE ( 'NONE', *, *, #1098, .F. ) ;
#860 = VECTOR ( 'NONE', #554, 1000.000000000000000 ) ;
#861 = CARTESIAN_POINT ( 'NONE',  ( 29.02043435000059546, 189.9999999999997158, 0.000000000000000000 ) ) ;
#862 = DIRECTION ( 'NONE',  ( -1.000000000000000000, 0.000000000000000000, 0.000000000000000000 ) ) ;
#863 = CARTESIAN_POINT ( 'NONE',  ( 25.76021717500003660, 132.8012981810152837, 0.000000000000000000 ) ) ;
#864 = ADVANCED_FACE ( 'NONE', ( #708 ), #130, .F. ) ;
#865 = ORIENTED_EDGE ( 'NONE', *, *, #314, .T. ) ;
#866 = CARTESIAN_POINT ( 'NONE',  ( 21.31929999987390190, 25.40000000000097913, 0.000000000000000000 ) ) ;
#867 = DIRECTION ( 'NONE',  ( 1.000000000000000000, 0.000000000000000000, 0.000000000000000000 ) ) ;
#868 = ORIENTED_EDGE ( 'NONE', *, *, #118, .T. ) ;
#869 = CARTESIAN_POINT ( 'NONE',  ( 30.00000000000000000, 40.00000000000000711, 5.000000000000000000 ) ) ;
#870 = VECTOR ( 'NONE', #433, 1000.000000000000000 ) ;
#871 = ORIENTED_EDGE ( 'NONE', *, *, #982, .F. ) ;
#872 = AXIS2_PLACEMENT_3D ( 'NONE', #912, #176, #181 ) ;
#873 = ORIENTED_EDGE ( 'NONE', *, *, #38, .F. ) ;
#874 = EDGE_CURVE ( 'NONE', #339, #340, #489, .T. ) ;
#875 = EDGE_LOOP ( 'NONE', ( #1035, #36 ) ) ;
#876 = CARTESIAN_POINT ( 'NONE',  ( 19.29999999987390069, 12.70000000000097806, 5.000000000000000000 ) ) ;
#877 = ORIENTED_EDGE ( 'NONE', *, *, #321, .T. ) ;
#878 = ADVANCED_FACE ( 'NONE', ( #621 ), #508, .T. ) ;
#879 = CYLINDRICAL_SURFACE ( 'NONE', #567, 70.88587360432316586 ) ;
#880 = LINE ( 'NONE', #131, #569 ) ;
#881 = DIRECTION ( 'NONE',  ( -1.000000000000000000, 0.000000000000000000, 0.000000000000000000 ) ) ;
#882 = ORIENTED_EDGE ( 'NONE', *, *, #1186, .T. ) ;
#883 = DIRECTION ( 'NONE',  ( 1.000000000000000000, -0.000000000000000000, -0.000000000000000000 ) ) ;
#884 = CARTESIAN_POINT ( 'NONE',  ( 10.00000000000007105, 0.000000000000000000, 0.000000000000000000 ) ) ;
#885 = CIRCLE ( 'NONE', #365, 2.550000000000000266 ) ;
#886 = FACE_BOUND ( 'NONE', #700, .T. ) ;
#887 = EDGE_LOOP ( 'NONE', ( #619, #906 ) ) ;
#888 = VECTOR ( 'NONE', #998, 1000.000000000000000 ) ;
#889 = CIRCLE ( 'NONE', #1053, 2.549999999999996714 ) ;
#890 = VERTEX_POINT ( 'NONE', #987 ) ;
#892 = VECTOR ( 'NONE', #1101, 1000.000000000000000 ) ;
#891 = CARTESIAN_POINT ( 'NONE',  ( 25.76021717500003660, 134.1141263956768626, 5.000000000000000000 ) ) ;
#893 = CARTESIAN_POINT ( 'NONE',  ( -17.19261636709696006, 170.2175496967186064, 5.000000000000000000 ) ) ;
#894 = EDGE_CURVE ( 'NONE', #276, #1111, #265, .T. ) ;
#895 = PLANE ( 'NONE',  #1107 ) ;
#896 = ORIENTED_EDGE ( 'NONE', *, *, #1025, .T. ) ;
#897 = FACE_OUTER_BOUND ( 'NONE', #457, .T. ) ;
#898 = CARTESIAN_POINT ( 'NONE',  ( 30.00000000000000000, 58.99687226322747335, 5.000000000000000000 ) ) ;
#899 = CARTESIAN_POINT ( 'NONE',  ( 61.57043435000057485, 189.9999999999997158, 5.000000000000000000 ) ) ;
#900 = ORIENTED_EDGE ( 'NONE', *, *, #748, .F. ) ;
#901 = VERTEX_POINT ( 'NONE', #149 ) ;
#902 = CYLINDRICAL_SURFACE ( 'NONE', #1062, 2.549999999999996714 ) ;
#903 = DIRECTION ( 'NONE',  ( -1.000000000000000000, 0.000000000000000000, 0.000000000000000000 ) ) ;
#904 = CARTESIAN_POINT ( 'NONE',  ( 74.02043435000004479, 194.9999999999999716, 0.000000000000000000 ) ) ;
#905 = FACE_OUTER_BOUND ( 'NONE', #62, .T. ) ;
#906 = ORIENTED_EDGE ( 'NONE', *, *, #909, .F. ) ;
#907 = AXIS2_PLACEMENT_3D ( 'NONE', #452, #823, #654 ) ;
#908 = DIRECTION ( 'NONE',  ( -0.000000000000000000, -0.000000000000000000, -1.000000000000000000 ) ) ;
#909 = EDGE_CURVE ( 'NONE', #491, #1044, #1082, .T. ) ;
#910 = VECTOR ( 'NONE', #1109, 1000.000000000000000 ) ;
#911 = AXIS2_PLACEMENT_3D ( 'NONE', #818, #454, #824 ) ;
#912 = CARTESIAN_POINT ( 'NONE',  ( -15.95272258738149596, 94.30084613085278988, -5.000000000000000000 ) ) ;
#913 = DIRECTION ( 'NONE',  ( -0.000000000000000000, -0.000000000000000000, -1.000000000000000000 ) ) ;
#914 = ORIENTED_EDGE ( 'NONE', *, *, #1060, .F. ) ;
#915 = ORIENTED_EDGE ( 'NONE', *, *, #1021, .T. ) ;
#916 = DIRECTION ( 'NONE',  ( -0.000000000000000000, -0.000000000000000000, 1.000000000000000000 ) ) ;
#917 = ADVANCED_FACE ( 'NONE', ( #1153 ), #879, .T. ) ;
#918 = FACE_OUTER_BOUND ( 'NONE', #534, .T. ) ;
#919 = CARTESIAN_POINT ( 'NONE',  ( -12.50000000000000888, 114.9999999999999858, 0.000000000000000000 ) ) ;
#920 = PRODUCT_DEFINITION_CONTEXT ( 'detailed design', #789, 'design' ) ;
#921 = CYLINDRICAL_SURFACE ( 'NONE', #1031, 2.019300000000001649 ) ;
#922 = ORIENTED_EDGE ( 'NONE', *, *, #665, .F. ) ;
#923 = ORIENTED_EDGE ( 'NONE', *, *, #835, .T. ) ;
#924 = DIRECTION ( 'NONE',  ( 0.000000000000000000, 0.000000000000000000, 1.000000000000000000 ) ) ;
#925 = CARTESIAN_POINT ( 'NONE',  ( 15.58218028392130350, 80.48346585126842001, 5.000000000000000000 ) ) ;
#926 = LINE ( 'NONE', #1123, #817 ) ;
#927 = VERTEX_POINT ( 'NONE', #34 ) ;
#928 = VERTEX_POINT ( 'NONE', #784 ) ;
#929 = AXIS2_PLACEMENT_3D ( 'NONE', #524, #781, #701 ) ;
#931 = AXIS2_PLACEMENT_3D ( 'NONE', #664, #264, #352 ) ;
#930 = FACE_BOUND ( 'NONE', #55, .T. ) ;
#932 = VECTOR ( 'NONE', #1076, 1000.000000000000000 ) ;
#933 = DIRECTION ( 'NONE',  ( -0.000000000000000000, -0.000000000000000000, -1.000000000000000000 ) ) ;
#934 = EDGE_LOOP ( 'NONE', ( #232, #782 ) ) ;
#935 = ADVANCED_FACE ( 'NONE', ( #316 ), #425, .F. ) ;
#936 = DIRECTION ( 'NONE',  ( -1.000000000000000000, 0.000000000000000000, 0.000000000000000000 ) ) ;
#937 = CARTESIAN_POINT ( 'NONE',  ( 0.000000000000000000, 39.99999999999999289, 5.000000000000000000 ) ) ;
#938 = PRESENTATION_STYLE_ASSIGNMENT (( #826 ) ) ;
#939 = CARTESIAN_POINT ( 'NONE',  ( 64.02043435000004479, 205.0000000000000000, 5.000000000000000000 ) ) ;
#940 = VERTEX_POINT ( 'NONE', #694 ) ;
#941 = DIRECTION ( 'NONE',  ( 1.000000000000000000, 0.000000000000000000, 0.000000000000000000 ) ) ;
#942 = CARTESIAN_POINT ( 'NONE',  ( 64.02043435000004479, 194.9999999999999716, 0.000000000000000000 ) ) ;
#943 = ORIENTED_EDGE ( 'NONE', *, *, #1050, .T. ) ;
#944 = DIRECTION ( 'NONE',  ( 0.000000000000000000, 0.000000000000000000, 1.000000000000000000 ) ) ;
#945 = ORIENTED_EDGE ( 'NONE', *, *, #1095, .F. ) ;
#946 = EDGE_LOOP ( 'NONE', ( #218, #128, #896, #479 ) ) ;
#947 = EDGE_CURVE ( 'NONE', #901, #582, #609, .T. ) ;
#948 = CARTESIAN_POINT ( 'NONE',  ( 26.47043435000059830, 189.9999999999997158, 5.000000000000000000 ) ) ;
#949 = AXIS2_PLACEMENT_3D ( 'NONE', #235, #1094, #611 ) ;
#950 = VECTOR ( 'NONE', #596, 1000.000000000000000 ) ;
#951 = DIRECTION ( 'NONE',  ( 0.000000000000000000, 0.000000000000000000, -1.000000000000000000 ) ) ;
#952 = AXIS2_PLACEMENT_3D ( 'NONE', #58, #988, #993 ) ;
#953 = ORIENTED_EDGE ( 'NONE', *, *, #129, .F. ) ;
#954 = VECTOR ( 'NONE', #527, 1000.000000000000000 ) ;
#955 = LINE ( 'NONE', #1121, #616 ) ;
#956 = LINE ( 'NONE', #124, #505 ) ;
#957 = DIRECTION ( 'NONE',  ( -1.000000000000000000, 0.000000000000000000, 0.000000000000000000 ) ) ;
#958 = ORIENTED_EDGE ( 'NONE', *, *, #409, .F. ) ;
#959 = EDGE_CURVE ( 'NONE', #287, #582, #410, .T. ) ;
#960 = DIRECTION ( 'NONE',  ( -1.000000000000000000, 0.000000000000000000, 0.000000000000000000 ) ) ;
#961 = VERTEX_POINT ( 'NONE', #603 ) ;
#962 = EDGE_CURVE ( 'NONE', #1086, #56, #971, .T. ) ;
#963 = EDGE_LOOP ( 'NONE', ( #737, #668, #859, #877 ) ) ;
#964 = DIRECTION ( 'NONE',  ( -0.000000000000000000, -0.000000000000000000, -1.000000000000000000 ) ) ;
#965 = AXIS2_PLACEMENT_3D ( 'NONE', #82, #544, #1014 ) ;
#966 = ORIENTED_EDGE ( 'NONE', *, *, #947, .F. ) ;
#967 = VECTOR ( 'NONE', #151, 1000.000000000000000 ) ;
#968 = EDGE_CURVE ( 'NONE', #582, #564, #1132, .T. ) ;
#969 = VECTOR ( 'NONE', #1191, 1000.000000000000000 ) ;
#970 = EDGE_CURVE ( 'NONE', #691, #335, #615, .T. ) ;
#971 = LINE ( 'NONE', #37, #870 ) ;
#972 = ADVANCED_FACE ( 'NONE', ( #897 ), #162, .F. ) ;
#973 = CARTESIAN_POINT ( 'NONE',  ( 10.00000000000007105, 0.000000000000000000, 5.000000000000000000 ) ) ;
#974 = DIRECTION ( 'NONE',  ( 1.000000000000000000, 0.000000000000000000, 0.000000000000000000 ) ) ;
#975 = ORIENTED_EDGE ( 'NONE', *, *, #133, .T. ) ;
#976 = DIRECTION ( 'NONE',  ( -1.000000000000000000, 0.000000000000000000, 0.000000000000000000 ) ) ;
#977 = DIRECTION ( 'NONE',  ( -1.000000000000000000, 0.000000000000000000, 0.000000000000000000 ) ) ;
#978 = FACE_OUTER_BOUND ( 'NONE', #808, .T. ) ;
#979 = DIRECTION ( 'NONE',  ( 0.000000000000000000, 0.000000000000000000, 1.000000000000000000 ) ) ;
#980 = ORIENTED_EDGE ( 'NONE', *, *, #545, .T. ) ;
#981 = DIRECTION ( 'NONE',  ( 0.000000000000000000, 0.000000000000000000, -1.000000000000000000 ) ) ;
#982 = EDGE_CURVE ( 'NONE', #927, #940, #641, .T. ) ;
#983 = DIRECTION ( 'NONE',  ( -0.000000000000000000, -0.000000000000000000, -1.000000000000000000 ) ) ;
#984 = FACE_OUTER_BOUND ( 'NONE', #1059, .T. ) ;
#985 = CIRCLE ( 'NONE', #907, 10.00000000000000888 ) ;
#986 = ORIENTED_EDGE ( 'NONE', *, *, #1186, .F. ) ;
#987 = CARTESIAN_POINT ( 'NONE',  ( 17.28069999987389949, 25.40000000000097913, 0.000000000000000000 ) ) ;
#988 = DIRECTION ( 'NONE',  ( -0.000000000000000000, -0.000000000000000000, -1.000000000000000000 ) ) ;
#989 = CARTESIAN_POINT ( 'NONE',  ( -18.50272258738149844, 94.30084613085278988, -5.000000000000000000 ) ) ;
#990 = ORIENTED_EDGE ( 'NONE', *, *, #1098, .T. ) ;
#991 = ORIENTED_EDGE ( 'NONE', *, *, #705, .T. ) ;
#992 = LINE ( 'NONE', #738, #67 ) ;
#993 = DIRECTION ( 'NONE',  ( -1.000000000000000000, 0.000000000000000000, 0.000000000000000000 ) ) ;
#994 = DIRECTION ( 'NONE',  ( 0.000000000000000000, 0.000000000000000000, -1.000000000000000000 ) ) ;
#995 = VERTEX_POINT ( 'NONE', #1182 ) ;
#996 = EDGE_CURVE ( 'NONE', #745, #372, #342, .T. ) ;
#997 = EDGE_LOOP ( 'NONE', ( #1201, #1097, #204, #33 ) ) ;
#998 = DIRECTION ( 'NONE',  ( -0.000000000000000000, -0.000000000000000000, -1.000000000000000000 ) ) ;
#999 = CARTESIAN_POINT ( 'NONE',  ( 21.31929999987390190, 25.40000000000097913, 5.000000000000000000 ) ) ;
#1000 = CARTESIAN_POINT ( 'NONE',  ( 30.00000000000000000, 58.99687226322747335, 0.000000000000000000 ) ) ;
#1001 = CARTESIAN_POINT ( 'NONE',  ( 21.31929999987389479, 38.10000000000098197, 10.00000000000000000 ) ) ;
#1002 = ORIENTED_EDGE ( 'NONE', *, *, #1114, .F. ) ;
#1003 = ADVANCED_FACE ( 'NONE', ( #732 ), #557, .T. ) ;
#1004 = CIRCLE ( 'NONE', #1157, 2.550000000000000266 ) ;
#1005 = ORIENTED_EDGE ( 'NONE', *, *, #754, .T. ) ;
#1006 = DIRECTION ( 'NONE',  ( -1.000000000000000000, 0.000000000000000000, 0.000000000000000000 ) ) ;
#1007 = VECTOR ( 'NONE', #553, 1000.000000000000000 ) ;
#1008 = AXIS2_PLACEMENT_3D ( 'NONE', #636, #327, #546 ) ;
#1009 = PRODUCT_RELATED_PRODUCT_CATEGORY ( 'part', '', ( #11 ) ) ;
#1010 = DIRECTION ( 'NONE',  ( 0.000000000000000000, 0.000000000000000000, -1.000000000000000000 ) ) ;
#1011 = CARTESIAN_POINT ( 'NONE',  ( -4.052238464249745320, 96.84327975893818063, 0.000000000000000000 ) ) ;
#1012 = LINE ( 'NONE', #173, #860 ) ;
#1013 = ORIENTED_EDGE ( 'NONE', *, *, #49, .T. ) ;
#1014 = DIRECTION ( 'NONE',  ( -1.000000000000000000, 0.000000000000000000, 0.000000000000000000 ) ) ;
#1015 = FACE_BOUND ( 'NONE', #875, .T. ) ;
#1016 = CARTESIAN_POINT ( 'NONE',  ( -12.50000000000000355, 115.0000000000000000, 5.000000000000000000 ) ) ;
#1017 = CYLINDRICAL_SURFACE ( 'NONE', #766, 2.019299999999998096 ) ;
#1018 = ORIENTED_EDGE ( 'NONE', *, *, #794, .T. ) ;
#1019 = CARTESIAN_POINT ( 'NONE',  ( 21.31929999987389834, 12.70000000000097806, 5.000000000000000000 ) ) ;
#1020 = FACE_OUTER_BOUND ( 'NONE', #542, .T. ) ;
#1021 = EDGE_CURVE ( 'NONE', #1044, #491, #88, .T. ) ;
#1022 = CARTESIAN_POINT ( 'NONE',  ( 74.02043435000005900, 194.9999999999999716, 5.000000000000000000 ) ) ;
#1023 = CARTESIAN_POINT ( 'NONE',  ( 25.76021717500003660, 132.8012981810152837, 5.000000000000000000 ) ) ;
#1024 = ORIENTED_EDGE ( 'NONE', *, *, #311, .T. ) ;
#1025 = EDGE_CURVE ( 'NONE', #928, #8, #838, .T. ) ;
#1026 = ORIENTED_EDGE ( 'NONE', *, *, #577, .F. ) ;
#1027 = CARTESIAN_POINT ( 'NONE',  ( 61.57043435000057485, 189.9999999999997158, 5.000000000000000000 ) ) ;
#1028 = CIRCLE ( 'NONE', #1126, 9.999999999999998224 ) ;
#1030 = AXIS2_PLACEMENT_3D ( 'NONE', #1032, #274, #1198 ) ;
#1029 = CARTESIAN_POINT ( 'NONE',  ( 10.00000000000007105, 0.000000000000000000, 5.000000000000000000 ) ) ;
#1031 = AXIS2_PLACEMENT_3D ( 'NONE', #735, #757, #98 ) ;
#1032 = CARTESIAN_POINT ( 'NONE',  ( 20.00000000000001066, 10.00000000000000178, 5.000000000000000000 ) ) ;
#1033 = FACE_OUTER_BOUND ( 'NONE', #1057, .T. ) ;
#1034 = EDGE_LOOP ( 'NONE', ( #1136, #1167, #290, #991 ) ) ;
#1035 = ORIENTED_EDGE ( 'NONE', *, *, #688, .T. ) ;
#1036 = DIRECTION ( 'NONE',  ( -1.000000000000000000, 0.000000000000000000, 0.000000000000000000 ) ) ;
#1037 = ORIENTED_EDGE ( 'NONE', *, *, #382, .F. ) ;
#1038 = DIRECTION ( 'NONE',  ( -1.000000000000000000, -2.449293598294724657E-16, 0.000000000000000000 ) ) ;
#1039 = EDGE_LOOP ( 'NONE', ( #24, #300 ) ) ;
#1040 = EDGE_CURVE ( 'NONE', #940, #995, #1100, .T. ) ;
#1041 = ORIENTED_EDGE ( 'NONE', *, *, #807, .T. ) ;
#1042 = LINE ( 'NONE', #492, #777 ) ;
#1043 = CARTESIAN_POINT ( 'NONE',  ( 30.00000000000001421, 10.00000000000000711, 5.000000000000000000 ) ) ;
#1044 = VERTEX_POINT ( 'NONE', #443 ) ;
#1045 = CARTESIAN_POINT ( 'NONE',  ( 17.28069999987390304, 12.70000000000097806, 5.000000000000000000 ) ) ;
#1046 = ORIENTED_EDGE ( 'NONE', *, *, #49, .F. ) ;
#1047 = DIRECTION ( 'NONE',  ( -0.000000000000000000, -0.000000000000000000, 1.000000000000000000 ) ) ;
#1048 = CARTESIAN_POINT ( 'NONE',  ( -1.266427226404247838E-30, 39.99999999999998579, 5.000000000000000000 ) ) ;
#1049 = VECTOR ( 'NONE', #292, 1000.000000000000000 ) ;
#1050 = EDGE_CURVE ( 'NONE', #521, #354, #1202, .T. ) ;
#1051 = AXIS2_PLACEMENT_3D ( 'NONE', #43, #981, #419 ) ;
#1052 = DIRECTION ( 'NONE',  ( -1.000000000000000000, 0.000000000000000000, 0.000000000000000000 ) ) ;
#1053 = AXIS2_PLACEMENT_3D ( 'NONE', #624, #629, #1089 ) ;
#1054 = ORIENTED_EDGE ( 'NONE', *, *, #607, .T. ) ;
#1055 = VECTOR ( 'NONE', #85, 1000.000000000000000 ) ;
#1056 = CARTESIAN_POINT ( 'NONE',  ( -1.266427226404247838E-30, 39.99999999999998579, 8.673617379884035472E-16 ) ) ;
#1057 = EDGE_LOOP ( 'NONE', ( #986, #378, #1154, #2 ) ) ;
#1058 = CARTESIAN_POINT ( 'NONE',  ( 19.29999999987390069, 25.40000000000097913, 5.000000000000000000 ) ) ;
#1059 = EDGE_LOOP ( 'NONE', ( #943, #1079, #814, #746 ) ) ;
#1060 = EDGE_CURVE ( 'NONE', #693, #287, #647, .T. ) ;
#1061 = CARTESIAN_POINT ( 'NONE',  ( 30.00000000000001421, 10.00000000000000711, 0.000000000000000000 ) ) ;
#1062 = AXIS2_PLACEMENT_3D ( 'NONE', #63, #90, #936 ) ;
#1063 = CARTESIAN_POINT ( 'NONE',  ( -13.40272258738149702, 94.30084613085278988, 5.000000000000000000 ) ) ;
#1064 = VECTOR ( 'NONE', #1117, 1000.000000000000000 ) ;
#1065 = PRODUCT_DEFINITION_SHAPE ( 'NONE', 'NONE',  #155 ) ;
#1066 = DIRECTION ( 'NONE',  ( 1.000000000000000000, 0.000000000000000000, 0.000000000000000000 ) ) ;
#1067 = AXIS2_PLACEMENT_3D ( 'NONE', #41, #706, #618 ) ;
#1068 = DIRECTION ( 'NONE',  ( -1.000000000000000000, 0.000000000000000000, 0.000000000000000000 ) ) ;
#1069 = CYLINDRICAL_SURFACE ( 'NONE', #111, 10.00000000000000888 ) ;
#1070 = LINE ( 'NONE', #92, #892 ) ;
#1071 = DIRECTION ( 'NONE',  ( -0.000000000000000000, -0.000000000000000000, 1.000000000000000000 ) ) ;
#1072 = VERTEX_POINT ( 'NONE', #465 ) ;
#1073 = EDGE_CURVE ( 'NONE', #767, #205, #1174, .T. ) ;
#1074 = VERTEX_POINT ( 'NONE', #356 ) ;
#1075 = DIRECTION ( 'NONE',  ( -1.000000000000000000, 0.000000000000000000, 0.000000000000000000 ) ) ;
#1076 = DIRECTION ( 'NONE',  ( -0.000000000000000000, -0.000000000000000000, -1.000000000000000000 ) ) ;
#1077 = DIRECTION ( 'NONE',  ( 0.000000000000000000, 0.000000000000000000, 1.000000000000000000 ) ) ;
#1078 = EDGE_LOOP ( 'NONE', ( #119, #238, #294, #312 ) ) ;
#1079 = ORIENTED_EDGE ( 'NONE', *, *, #321, .F. ) ;
#1080 = CARTESIAN_POINT ( 'NONE',  ( 31.57043435000059262, 189.9999999999997158, 5.000000000000000000 ) ) ;
#1081 = DIRECTION ( 'NONE',  ( 0.000000000000000000, 0.000000000000000000, 1.000000000000000000 ) ) ;
#1082 = CIRCLE ( 'NONE', #28, 2.019299999999994544 ) ;
#1083 = LINE ( 'NONE', #710, #954 ) ;
#1084 = ORIENTED_EDGE ( 'NONE', *, *, #453, .T. ) ;
#1085 = AXIS2_PLACEMENT_3D ( 'NONE', #558, #519, #262 ) ;
#1086 = VERTEX_POINT ( 'NONE', #836 ) ;
#1087 = CARTESIAN_POINT ( 'NONE',  ( 26.47043435000059830, 189.9999999999997158, 5.000000000000000000 ) ) ;
#1088 = ADVANCED_FACE ( 'NONE', ( #1093 ), #271, .F. ) ;
#1089 = DIRECTION ( 'NONE',  ( -1.000000000000000000, 0.000000000000000000, 0.000000000000000000 ) ) ;
#1090 = CARTESIAN_POINT ( 'NONE',  ( -16.43848464398469389, 132.8012981810152837, 0.000000000000000000 ) ) ;
#1091 = VERTEX_POINT ( 'NONE', #250 ) ;
#1092 = ORIENTED_EDGE ( 'NONE', *, *, #152, .F. ) ;
#1093 = FACE_OUTER_BOUND ( 'NONE', #1151, .T. ) ;
#1094 = DIRECTION ( 'NONE',  ( 0.000000000000000000, 0.000000000000000000, -1.000000000000000000 ) ) ;
#1095 = EDGE_CURVE ( 'NONE', #140, #669, #389, .T. ) ;
#1096 = CARTESIAN_POINT ( 'NONE',  ( 21.31929999987389834, 12.70000000000097806, 0.000000000000000000 ) ) ;
#1097 = ORIENTED_EDGE ( 'NONE', *, *, #541, .F. ) ;
#1098 = EDGE_CURVE ( 'NONE', #355, #691, #985, .T. ) ;
#1099 = ORIENTED_EDGE ( 'NONE', *, *, #1025, .F. ) ;
#1100 = LINE ( 'NONE', #261, #779 ) ;
#1101 = DIRECTION ( 'NONE',  ( -0.000000000000000000, -0.000000000000000000, -1.000000000000000000 ) ) ;
#1102 = CARTESIAN_POINT ( 'NONE',  ( 21.31929999987389479, 38.10000000000098197, 0.000000000000000000 ) ) ;
#1103 = VERTEX_POINT ( 'NONE', #77 ) ;
#1104 = AXIS2_PLACEMENT_3D ( 'NONE', #96, #670, #1036 ) ;
#1105 = DIRECTION ( 'NONE',  ( 4.625929269271485914E-16, -1.000000000000000000, 0.000000000000000000 ) ) ;
#1106 = COLOUR_RGB ( '',0.7921568627450980005, 0.8196078431372548767, 0.9333333333333333481 ) ;
#1107 = AXIS2_PLACEMENT_3D ( 'NONE', #54, #1206, #848 ) ;
#1108 = CARTESIAN_POINT ( 'NONE',  ( 30.00000000000000000, 40.00000000000000711, 0.000000000000000000 ) ) ;
#1109 = DIRECTION ( 'NONE',  ( -0.000000000000000000, -0.000000000000000000, 1.000000000000000000 ) ) ;
#1110 = DIRECTION ( 'NONE',  ( -1.000000000000000000, 0.000000000000000000, 0.000000000000000000 ) ) ;
#1111 = VERTEX_POINT ( 'NONE', #1019 ) ;
#1112 = EDGE_LOOP ( 'NONE', ( #1041, #583, #945, #220 ) ) ;
#1113 = DIRECTION ( 'NONE',  ( 0.000000000000000000, 0.000000000000000000, 1.000000000000000000 ) ) ;
#1114 = EDGE_CURVE ( 'NONE', #1143, #1194, #622, .T. ) ;
#1115 = CARTESIAN_POINT ( 'NONE',  ( -12.50000000000000355, 115.0000000000000000, 0.000000000000000000 ) ) ;
#1116 = EDGE_CURVE ( 'NONE', #51, #1072, #992, .T. ) ;
#1117 = DIRECTION ( 'NONE',  ( -0.000000000000000000, -0.000000000000000000, -1.000000000000000000 ) ) ;
#1118 = DIRECTION ( 'NONE',  ( -1.000000000000000000, 0.000000000000000000, 0.000000000000000000 ) ) ;
#1119 = ORIENTED_EDGE ( 'NONE', *, *, #968, .T. ) ;
#1120 = ORIENTED_EDGE ( 'NONE', *, *, #874, .F. ) ;
#1121 = CARTESIAN_POINT ( 'NONE',  ( 25.76021717500003660, 175.0000000000000000, 5.000000000000000000 ) ) ;
#1122 = CARTESIAN_POINT ( 'NONE',  ( -15.95272258738149596, 94.30084613085278988, 0.000000000000000000 ) ) ;
#1123 = CARTESIAN_POINT ( 'NONE',  ( 25.76021717500003660, 205.0000000000000000, 5.000000000000000000 ) ) ;
#1124 = ORIENTED_EDGE ( 'NONE', *, *, #382, .T. ) ;
#1125 = DIRECTION ( 'NONE',  ( 0.000000000000000000, 0.000000000000000000, -1.000000000000000000 ) ) ;
#1126 = AXIS2_PLACEMENT_3D ( 'NONE', #400, #19, #1140 ) ;
#1128 = AXIS2_PLACEMENT_3D ( 'NONE', #863, #117, #401 ) ;
#1127 = CARTESIAN_POINT ( 'NONE',  ( -37.47927857497023041, 97.07003931264038954, 5.000000000000000000 ) ) ;
#1129 = CARTESIAN_POINT ( 'NONE',  ( -42.50000000000000711, 114.9999999999999858, 5.000000000000000000 ) ) ;
#1130 = ADVANCED_FACE ( 'NONE', ( #537 ), #902, .F. ) ;
#1131 = DIRECTION ( 'NONE',  ( -0.000000000000000000, -0.000000000000000000, -1.000000000000000000 ) ) ;
#1132 = B_SPLINE_CURVE_WITH_KNOTS ( 'NONE', 3,
 ( #323, #331, #134, #516, #239 ),
 .UNSPECIFIED., .F., .F.,
 ( 4, 1, 4 ),
 ( 0.000000000000000000, 0.4476169876909239509, 1.000000000000000000 ),
 .UNSPECIFIED. ) ;
#1133 = DIRECTION ( 'NONE',  ( 0.000000000000000000, 0.000000000000000000, 1.000000000000000000 ) ) ;
#1134 = ORIENTED_EDGE ( 'NONE', *, *, #1137, .T. ) ;
#1135 = FACE_OUTER_BOUND ( 'NONE', #854, .T. ) ;
#1136 = ORIENTED_EDGE ( 'NONE', *, *, #504, .F. ) ;
#1137 = EDGE_CURVE ( 'NONE', #778, #186, #1042, .T. ) ;
#1138 = FACE_OUTER_BOUND ( 'NONE', #946, .T. ) ;
#1139 = EDGE_CURVE ( 'NONE', #147, #205, #244, .T. ) ;
#1140 = DIRECTION ( 'NONE',  ( -1.000000000000000000, 0.000000000000000000, 0.000000000000000000 ) ) ;
#1141 = DIRECTION ( 'NONE',  ( -0.000000000000000000, -0.000000000000000000, -1.000000000000000000 ) ) ;
#1142 = ORIENTED_EDGE ( 'NONE', *, *, #835, .F. ) ;
#1143 = VERTEX_POINT ( 'NONE', #283 ) ;
#1144 = DIRECTION ( 'NONE',  ( 0.000000000000000000, 0.000000000000000000, 1.000000000000000000 ) ) ;
#1145 = AXIS2_PLACEMENT_3D ( 'NONE', #692, #26, #976 ) ;
#1146 = AXIS2_PLACEMENT_3D ( 'NONE', #234, #229, #605 ) ;
#1147 = ORIENTED_EDGE ( 'NONE', *, *, #1169, .F. ) ;
#1148 = AXIS2_PLACEMENT_3D ( 'NONE', #252, #979, #236 ) ;
#1149 = ADVANCED_FACE ( 'NONE', ( #301 ), #109, .F. ) ;
#1150 = DIRECTION ( 'NONE',  ( 0.000000000000000000, 0.000000000000000000, -1.000000000000000000 ) ) ;
#1151 = EDGE_LOOP ( 'NONE', ( #1002, #1124, #632, #783 ) ) ;
#1152 = ORIENTED_EDGE ( 'NONE', *, *, #243, .F. ) ;
#1153 = FACE_OUTER_BOUND ( 'NONE', #601, .T. ) ;
#1154 = ORIENTED_EDGE ( 'NONE', *, *, #498, .T. ) ;
#1155 = DIRECTION ( 'NONE',  ( 1.000000000000000000, 0.000000000000000000, 0.000000000000000000 ) ) ;
#1156 = DIRECTION ( 'NONE',  ( -1.000000000000000000, 0.000000000000000000, 0.000000000000000000 ) ) ;
#1157 = AXIS2_PLACEMENT_3D ( 'NONE', #474, #845, #1209 ) ;
#1158 = CYLINDRICAL_SURFACE ( 'NONE', #391, 42.19870181898473049 ) ;
#1159 = EDGE_CURVE ( 'NONE', #339, #802, #191, .T. ) ;
#1160 = VECTOR ( 'NONE', #6, 1000.000000000000000 ) ;
#1161 = DIRECTION ( 'NONE',  ( 0.000000000000000000, 0.000000000000000000, -1.000000000000000000 ) ) ;
#1162 = AXIS2_PLACEMENT_3D ( 'NONE', #704, #163, #903 ) ;
#1163 = ORIENTED_EDGE ( 'NONE', *, *, #996, .T. ) ;
#1164 = DIRECTION ( 'NONE',  ( -0.000000000000000000, -0.000000000000000000, -1.000000000000000000 ) ) ;
#1165 = CARTESIAN_POINT ( 'NONE',  ( 25.76021717500003660, 132.8012981810152837, 5.000000000000000000 ) ) ;
#1166 = CARTESIAN_POINT ( 'NONE',  ( 0.000000000000000000, 10.00000000000007105, 0.000000000000000000 ) ) ;
#1167 = ORIENTED_EDGE ( 'NONE', *, *, #648, .F. ) ;
#1168 = CARTESIAN_POINT ( 'NONE',  ( 25.76021717500003660, 205.0000000000000000, 5.000000000000000000 ) ) ;
#1169 = EDGE_CURVE ( 'NONE', #8, #928, #1004, .T. ) ;
#1170 = DIRECTION ( 'NONE',  ( -1.387778780781448239E-15, 1.000000000000000000, -0.000000000000000000 ) ) ;
#1171 = CARTESIAN_POINT ( 'NONE',  ( 64.02043435000004479, 175.0000000000000000, 5.000000000000000000 ) ) ;
#1172 = ORIENTED_EDGE ( 'NONE', *, *, #675, .F. ) ;
#1173 = EDGE_LOOP ( 'NONE', ( #1005, #329, #260, #556 ) ) ;
#1174 = LINE ( 'NONE', #1087, #87 ) ;
#1175 = ADVANCED_FACE ( 'NONE', ( #1138 ), #678, .F. ) ;
#1176 = LINE ( 'NONE', #358, #910 ) ;
#1177 = VECTOR ( 'NONE', #414, 1000.000000000000000 ) ;
#1178 = LINE ( 'NONE', #606, #146 ) ;
#1179 = AXIS2_PLACEMENT_3D ( 'NONE', #832, #366, #650 ) ;
#1180 = AXIS2_PLACEMENT_3D ( 'NONE', #631, #994, #539 ) ;
#1181 = ORIENTED_EDGE ( 'NONE', *, *, #397, .T. ) ;
#1182 = CARTESIAN_POINT ( 'NONE',  ( -14.64261636709696113, 170.2175496967186064, 5.000000000000000000 ) ) ;
#1183 = FACE_BOUND ( 'NONE', #1039, .T. ) ;
#1184 = EDGE_CURVE ( 'NONE', #270, #398, #462, .T. ) ;
#1185 = CARTESIAN_POINT ( 'NONE',  ( 64.02043435000004479, 185.0000000000000000, 5.000000000000000000 ) ) ;
#1186 = EDGE_CURVE ( 'NONE', #1111, #437, #592, .T. ) ;
#1187 = LINE ( 'NONE', #729, #291 ) ;
#1188 = ORIENTED_EDGE ( 'NONE', *, *, #535, .F. ) ;
#1189 = ORIENTED_EDGE ( 'NONE', *, *, #1040, .F. ) ;
#1190 = DIRECTION ( 'NONE',  ( 0.000000000000000000, 0.000000000000000000, -1.000000000000000000 ) ) ;
#1191 = DIRECTION ( 'NONE',  ( -1.387778780781448239E-15, 1.000000000000000000, -0.000000000000000000 ) ) ;
#1192 = CARTESIAN_POINT ( 'NONE',  ( 20.03611610838946433, 81.07962055621433706, 0.000000000000000000 ) ) ;
#1193 = CARTESIAN_POINT ( 'NONE',  ( 21.31929999987390190, 25.40000000000097913, 10.00000000000000000 ) ) ;
#1194 = VERTEX_POINT ( 'NONE', #3 ) ;
#1195 = ORIENTED_EDGE ( 'NONE', *, *, #224, .F. ) ;
#1196 = CARTESIAN_POINT ( 'NONE',  ( -17.19261636709696006, 170.2175496967186064, 0.000000000000000000 ) ) ;
#1197 = CARTESIAN_POINT ( 'NONE',  ( 74.02043435000004479, 194.9999999999999716, 5.000000000000000000 ) ) ;
#1198 = DIRECTION ( 'NONE',  ( 1.000000000000000000, 0.000000000000000000, 0.000000000000000000 ) ) ;
#1199 = LINE ( 'NONE', #376, #216 ) ;
#1200 = EDGE_CURVE ( 'NONE', #1194, #521, #955, .T. ) ;
#1201 = ORIENTED_EDGE ( 'NONE', *, *, #1159, .F. ) ;
#1202 = LINE ( 'NONE', #438, #857 ) ;
#1203 = AXIS2_PLACEMENT_3D ( 'NONE', #805, #320, #612 ) ;
#1204 = DIRECTION ( 'NONE',  ( 0.000000000000000000, 0.000000000000000000, -1.000000000000000000 ) ) ;
#1205 = CARTESIAN_POINT ( 'NONE',  ( 19.29999999987390069, 12.70000000000097806, 10.00000000000000000 ) ) ;
#1206 = DIRECTION ( 'NONE',  ( 0.000000000000000000, 1.000000000000000000, -0.000000000000000000 ) ) ;
#1207 = ORIENTED_EDGE ( 'NONE', *, *, #404, .T. ) ;
#1208 = EDGE_LOOP ( 'NONE', ( #348, #958, #417, #915 ) ) ;
#1209 = DIRECTION ( 'NONE',  ( 1.000000000000000000, 0.000000000000000000, 0.000000000000000000 ) ) ;
#1210 = DIRECTION ( 'NONE',  ( -0.000000000000000000, -0.000000000000000000, -1.000000000000000000 ) ) ;
#1211 = CARTESIAN_POINT ( 'NONE',  ( 31.57043435000059262, 189.9999999999997158, 0.000000000000000000 ) ) ;
ENDSEC;
END-ISO-10303-21;
