ISO-10303-21;
HEADER;
FILE_DESCRIPTION (( 'STEP AP214' ),
    '1' );
FILE_NAME ('Swivel_U_Channel.STEP',
    '2026-06-26T01:00:45',
    ( '' ),
    ( '' ),
    'SwSTEP 2.0',
    'SolidWorks 2025',
    '' );
FILE_SCHEMA (( 'AUTOMOTIVE_DESIGN' ));
ENDSEC;

DATA;
#1 = EDGE_LOOP ( 'NONE', ( #602, #682, #193, #926 ) ) ;
#2 = VERTEX_POINT ( 'NONE', #563 ) ;
#3 = DIRECTION ( 'NONE',  ( 2.721134864277344261E-15, -1.000000000000000000, 0.000000000000000000 ) ) ;
#4 = LINE ( 'NONE', #17, #594 ) ;
#5 = ORIENTED_EDGE ( 'NONE', *, *, #131, .T. ) ;
#6 = VERTEX_POINT ( 'NONE', #1274 ) ;
#7 = EDGE_CURVE ( 'NONE', #846, #949, #893, .T. ) ;
#8 = CARTESIAN_POINT ( 'NONE',  ( 0.000000000000000000, 0.000000000000000000, -22.50000000000000355 ) ) ;
#9 = EDGE_CURVE ( 'NONE', #469, #1222, #132, .T. ) ;
#10 = DIRECTION ( 'NONE',  ( 0.000000000000000000, 0.000000000000000000, 1.000000000000000000 ) ) ;
#11 = PLANE ( 'NONE',  #1053 ) ;
#12 = ORIENTED_EDGE ( 'NONE', *, *, #1116, .F. ) ;
#13 = ORIENTED_EDGE ( 'NONE', *, *, #1034, .T. ) ;
#14 = CARTESIAN_POINT ( 'NONE',  ( -15.90990257669712449, 0.000000000000000000, -17.95990257669751955 ) ) ;
#15 = AXIS2_PLACEMENT_3D ( 'NONE', #165, #863, #676 ) ;
#16 = CARTESIAN_POINT ( 'NONE',  ( -34.50000000000006395, 18.00000000000000355, -15.00000000000000000 ) ) ;
#17 = CARTESIAN_POINT ( 'NONE',  ( -34.50000000000001421, 2.999999999999974687, -30.00000000000000000 ) ) ;
#18 = AXIS2_PLACEMENT_3D ( 'NONE', #130, #1145, #650 ) ;
#19 = ORIENTED_EDGE ( 'NONE', *, *, #929, .T. ) ;
#20 = VERTEX_POINT ( 'NONE', #749 ) ;
#21 = EDGE_CURVE ( 'NONE', #1020, #921, #169, .T. ) ;
#22 = CARTESIAN_POINT ( 'NONE',  ( 15.90990257669735009, 0.000000000000000000, -13.85990257669729431 ) ) ;
#23 = AXIS2_PLACEMENT_3D ( 'NONE', #190, #976, #500 ) ;
#24 = EDGE_LOOP ( 'NONE', ( #1148, #1223, #939, #1218 ) ) ;
#25 = DIRECTION ( 'NONE',  ( 2.721134864277344261E-15, -1.000000000000000000, 0.000000000000000000 ) ) ;
#26 = VECTOR ( 'NONE', #445, 1000.000000000000000 ) ;
#27 = DIRECTION ( 'NONE',  ( 0.000000000000000000, 1.000000000000000000, 0.000000000000000000 ) ) ;
#28 = DIRECTION ( 'NONE',  ( 0.000000000000000000, 1.000000000000000000, 0.000000000000000000 ) ) ;
#29 = ORIENTED_EDGE ( 'NONE', *, *, #145, .F. ) ;
#30 = CARTESIAN_POINT ( 'NONE',  ( -27.50000000000001421, 2.999999999999999556, 30.00000000000000000 ) ) ;
#31 = EDGE_CURVE ( 'NONE', #255, #161, #515, .T. ) ;
#32 = ORIENTED_EDGE ( 'NONE', *, *, #941, .F. ) ;
#33 = CARTESIAN_POINT ( 'NONE',  ( 27.50000000000001421, 2.999999999999999556, -30.00000000000000000 ) ) ;
#34 = ORIENTED_EDGE ( 'NONE', *, *, #1226, .F. ) ;
#35 = AXIS2_PLACEMENT_3D ( 'NONE', #807, #315, #1216 ) ;
#36 = DIRECTION ( 'NONE',  ( 0.000000000000000000, 0.000000000000000000, 1.000000000000000000 ) ) ;
#37 = EDGE_LOOP ( 'NONE', ( #65, #1263, #714, #1227 ) ) ;
#38 = EDGE_CURVE ( 'NONE', #1131, #6, #536, .T. ) ;
#39 = MANIFOLD_SOLID_BREP ( 'Cut-Extrude2', #951 ) ;
#40 = CARTESIAN_POINT ( 'NONE',  ( -30.50000000000001421, 2.999999999999988898, -30.00000000000000000 ) ) ;
#41 = CARTESIAN_POINT ( 'NONE',  ( 27.50000000000001421, -4.000000000000000000, -30.00000000000000000 ) ) ;
#42 = ORIENTED_EDGE ( 'NONE', *, *, #776, .T. ) ;
#43 = CARTESIAN_POINT ( 'NONE',  ( 30.50000000000012079, 33.00000000000001421, 30.00000000000000000 ) ) ;
#44 = VECTOR ( 'NONE', #971, 1000.000000000000000 ) ;
#45 = DIRECTION ( 'NONE',  ( -0.000000000000000000, -0.000000000000000000, 1.000000000000000000 ) ) ;
#46 = ORIENTED_EDGE ( 'NONE', *, *, #952, .T. ) ;
#47 = AXIS2_PLACEMENT_3D ( 'NONE', #8, #1240, #722 ) ;
#48 = VECTOR ( 'NONE', #327, 1000.000000000000000 ) ;
#49 = CARTESIAN_POINT ( 'NONE',  ( -15.90990257669712449, 0.000000000000000000, -13.85990257669751990 ) ) ;
#50 = DIRECTION ( 'NONE',  ( -4.081702296416022308E-15, -1.000000000000000000, 0.000000000000000000 ) ) ;
#51 = DIRECTION ( 'NONE',  ( -0.000000000000000000, 1.000000000000000000, -0.000000000000000000 ) ) ;
#52 = EDGE_CURVE ( 'NONE', #326, #435, #497, .T. ) ;
#53 = ORIENTED_EDGE ( 'NONE', *, *, #575, .F. ) ;
#54 = CARTESIAN_POINT ( 'NONE',  ( -34.50000000000005684, 15.45000000000000107, -15.00000000000000000 ) ) ;
#55 = LINE ( 'NONE', #769, #591 ) ;
#56 = EDGE_CURVE ( 'NONE', #1187, #20, #275, .T. ) ;
#57 = EDGE_LOOP ( 'NONE', ( #223, #334 ) ) ;
#58 = CARTESIAN_POINT ( 'NONE',  ( 15.90990257669723817, -4.000000000000000000, 15.90990257669740160 ) ) ;
#59 = ORIENTED_EDGE ( 'NONE', *, *, #707, .T. ) ;
#60 = FACE_OUTER_BOUND ( 'NONE', #103, .T. ) ;
#61 = CYLINDRICAL_SURFACE ( 'NONE', #420, 7.000000000000002665 ) ;
#62 =( NAMED_UNIT ( * ) SI_UNIT ( $, .STERADIAN. ) SOLID_ANGLE_UNIT ( ) );
#63 = EDGE_CURVE ( 'NONE', #765, #359, #339, .T. ) ;
#64 = CARTESIAN_POINT ( 'NONE',  ( 15.90990257669723817, -4.000000000000000000, 15.90990257669740160 ) ) ;
#65 = ORIENTED_EDGE ( 'NONE', *, *, #284, .F. ) ;
#66 = ADVANCED_FACE ( 'NONE', ( #95 ), #474, .T. ) ;
#67 = CIRCLE ( 'NONE', #1236, 2.049999999999999822 ) ;
#68 = EDGE_CURVE ( 'NONE', #123, #752, #182, .T. ) ;
#69 = DIRECTION ( 'NONE',  ( 0.000000000000000000, 1.000000000000000000, 0.000000000000000000 ) ) ;
#70 = CARTESIAN_POINT ( 'NONE',  ( 34.50000000000017053, 20.55000000000024585, 14.99999999999999467 ) ) ;
#71 = CARTESIAN_POINT ( 'NONE',  ( 34.50000000000018474, 15.45000000000024798, -15.00000000000000000 ) ) ;
#72 = CARTESIAN_POINT ( 'NONE',  ( 34.50000000000017053, 20.55000000000024940, -15.00000000000000000 ) ) ;
#73 = CARTESIAN_POINT ( 'NONE',  ( -15.90990257669746022, -4.000000000000000000, 17.95990257669718204 ) ) ;
#74 = ORIENTED_EDGE ( 'NONE', *, *, #131, .F. ) ;
#75 = EDGE_CURVE ( 'NONE', #565, #741, #704, .T. ) ;
#76 = UNCERTAINTY_MEASURE_WITH_UNIT (LENGTH_MEASURE( 1.000000000000000082E-05 ), #1279, 'distance_accuracy_value', 'NONE');
#77 = CARTESIAN_POINT ( 'NONE',  ( -1.571166602479410136E-13, -4.000000000000000000, 24.55000000000000071 ) ) ;
#78 = PLANE ( 'NONE',  #278 ) ;
#79 = CARTESIAN_POINT ( 'NONE',  ( -30.50000000000008527, 20.55000000000001492, -15.00000000000000000 ) ) ;
#80 = DIRECTION ( 'NONE',  ( 2.721134864277347811E-15, -1.000000000000000000, 0.000000000000000000 ) ) ;
#81 = ORIENTED_EDGE ( 'NONE', *, *, #7, .F. ) ;
#82 = ORIENTED_EDGE ( 'NONE', *, *, #747, .T. ) ;
#83 = CIRCLE ( 'NONE', #1225, 2.550000000000000266 ) ;
#84 = VECTOR ( 'NONE', #832, 1000.000000000000000 ) ;
#85 = CARTESIAN_POINT ( 'NONE',  ( -1.571166602479410136E-13, -4.000000000000000000, 22.50000000000000355 ) ) ;
#86 = CARTESIAN_POINT ( 'NONE',  ( 0.000000000000000000, -4.000000000000000000, -22.50000000000000355 ) ) ;
#87 = DIRECTION ( 'NONE',  ( 0.000000000000000000, 1.000000000000000000, 0.000000000000000000 ) ) ;
#88 = CYLINDRICAL_SURFACE ( 'NONE', #1142, 2.049999999999999822 ) ;
#89 = ORIENTED_EDGE ( 'NONE', *, *, #811, .F. ) ;
#90 = CARTESIAN_POINT ( 'NONE',  ( 15.90990257669723817, 0.000000000000000000, 13.85990257669740267 ) ) ;
#91 = DIRECTION ( 'NONE',  ( 0.000000000000000000, 0.000000000000000000, -1.000000000000000000 ) ) ;
#92 = AXIS2_PLACEMENT_3D ( 'NONE', #581, #69, #289 ) ;
#93 = VECTOR ( 'NONE', #1245, 1000.000000000000000 ) ;
#94 = EDGE_CURVE ( 'NONE', #435, #1064, #67, .T. ) ;
#95 = FACE_OUTER_BOUND ( 'NONE', #37, .T. ) ;
#96 = FACE_BOUND ( 'NONE', #57, .T. ) ;
#97 = ORIENTED_EDGE ( 'NONE', *, *, #523, .T. ) ;
#98 = CARTESIAN_POINT ( 'NONE',  ( -27.50000000000001421, 4.336808689942017736E-16, -30.00000000000000000 ) ) ;
#99 = FACE_BOUND ( 'NONE', #1112, .T. ) ;
#100 = DIRECTION ( 'NONE',  ( 1.000000000000000000, 0.000000000000000000, 0.000000000000000000 ) ) ;
#101 = DIRECTION ( 'NONE',  ( -0.000000000000000000, 1.000000000000000000, -0.000000000000000000 ) ) ;
#102 = DIRECTION ( 'NONE',  ( 0.000000000000000000, 1.000000000000000000, 0.000000000000000000 ) ) ;
#103 = EDGE_LOOP ( 'NONE', ( #104, #527, #553, #5 ) ) ;
#104 = ORIENTED_EDGE ( 'NONE', *, *, #56, .F. ) ;
#105 = DIRECTION ( 'NONE',  ( 0.000000000000000000, 0.000000000000000000, 1.000000000000000000 ) ) ;
#106 = FACE_OUTER_BOUND ( 'NONE', #1119, .T. ) ;
#107 = AXIS2_PLACEMENT_3D ( 'NONE', #276, #1076, #680 ) ;
#108 = AXIS2_PLACEMENT_3D ( 'NONE', #351, #87, #666 ) ;
#109 = CARTESIAN_POINT ( 'NONE',  ( -34.50000000000000000, 0.000000000000000000, 30.00000000000000000 ) ) ;
#110 = DIRECTION ( 'NONE',  ( -0.000000000000000000, -0.000000000000000000, -1.000000000000000000 ) ) ;
#111 = EDGE_CURVE ( 'NONE', #395, #2, #503, .T. ) ;
#112 = VERTEX_POINT ( 'NONE', #708 ) ;
#113 = EDGE_CURVE ( 'NONE', #395, #469, #715, .T. ) ;
#114 = DIRECTION ( 'NONE',  ( 2.721134864277347811E-15, -1.000000000000000000, 0.000000000000000000 ) ) ;
#115 = VECTOR ( 'NONE', #197, 1000.000000000000000 ) ;
#116 = CYLINDRICAL_SURFACE ( 'NONE', #127, 2.549999999999996714 ) ;
#117 = PRODUCT ( 'Swivel_U_Channel', 'Swivel_U_Channel', '', ( #904 ) ) ;
#118 = ORIENTED_EDGE ( 'NONE', *, *, #983, .T. ) ;
#119 = ORIENTED_EDGE ( 'NONE', *, *, #1143, .F. ) ;
#120 = DIRECTION ( 'NONE',  ( -0.000000000000000000, -0.000000000000000000, 1.000000000000000000 ) ) ;
#121 = CARTESIAN_POINT ( 'NONE',  ( 27.50000000000001421, 2.999999999999999556, -30.00000000000000000 ) ) ;
#122 = ORIENTED_EDGE ( 'NONE', *, *, #324, .T. ) ;
#123 = VERTEX_POINT ( 'NONE', #905 ) ;
#124 = LINE ( 'NONE', #510, #448 ) ;
#125 = EDGE_CURVE ( 'NONE', #949, #846, #1130, .T. ) ;
#126 = CARTESIAN_POINT ( 'NONE',  ( 34.50000000000017764, 18.00000000000024869, -15.00000000000000000 ) ) ;
#127 = AXIS2_PLACEMENT_3D ( 'NONE', #320, #630, #906 ) ;
#128 = ORIENTED_EDGE ( 'NONE', *, *, #506, .T. ) ;
#129 = DIRECTION ( 'NONE',  ( -0.000000000000000000, 1.000000000000000000, -0.000000000000000000 ) ) ;
#130 = CARTESIAN_POINT ( 'NONE',  ( -30.50000000000007461, 18.00000000000001421, 14.99999999999999467 ) ) ;
#131 = EDGE_CURVE ( 'NONE', #485, #20, #654, .T. ) ;
#132 = CIRCLE ( 'NONE', #412, 2.999999999999999112 ) ;
#133 = CARTESIAN_POINT ( 'NONE',  ( 27.50000000000001421, 2.999999999999999556, 30.00000000000000000 ) ) ;
#134 = CARTESIAN_POINT ( 'NONE',  ( 27.50000000000001421, 2.999999999999999556, -30.00000000000000000 ) ) ;
#135 = DIRECTION ( 'NONE',  ( 2.721134864277344261E-15, -1.000000000000000000, 0.000000000000000000 ) ) ;
#136 = ORIENTED_EDGE ( 'NONE', *, *, #1244, .F. ) ;
#137 = LINE ( 'NONE', #241, #529 ) ;
#138 = ORIENTED_EDGE ( 'NONE', *, *, #111, .F. ) ;
#139 = DIRECTION ( 'NONE',  ( 3.574581708073418934E-15, -1.000000000000000000, -0.000000000000000000 ) ) ;
#140 = FACE_BOUND ( 'NONE', #383, .T. ) ;
#141 = EDGE_LOOP ( 'NONE', ( #29, #1152, #1163, #202 ) ) ;
#142 = AXIS2_PLACEMENT_3D ( 'NONE', #121, #110, #1102 ) ;
#143 = DIRECTION ( 'NONE',  ( -1.000000000000000000, 0.000000000000000000, -0.000000000000000000 ) ) ;
#144 = ADVANCED_FACE ( 'NONE', ( #806 ), #610, .F. ) ;
#145 = EDGE_CURVE ( 'NONE', #359, #765, #1019, .T. ) ;
#146 = DIRECTION ( 'NONE',  ( -1.000000000000000000, -3.574581708073418934E-15, -0.000000000000000000 ) ) ;
#147 = DIRECTION ( 'NONE',  ( -1.000000000000000000, 0.000000000000000000, 0.000000000000000000 ) ) ;
#148 = ORIENTED_EDGE ( 'NONE', *, *, #679, .F. ) ;
#149 = DIRECTION ( 'NONE',  ( -1.000000000000000000, 0.000000000000000000, -0.000000000000000000 ) ) ;
#150 = AXIS2_PLACEMENT_3D ( 'NONE', #700, #692, #1308 ) ;
#151 = ORIENTED_EDGE ( 'NONE', *, *, #240, .T. ) ;
#152 = CIRCLE ( 'NONE', #1039, 2.049999999999999822 ) ;
#153 = VERTEX_POINT ( 'NONE', #414 ) ;
#154 = DIRECTION ( 'NONE',  ( -1.000000000000000000, -3.593355771666241915E-15, 0.000000000000000000 ) ) ;
#155 = ORIENTED_EDGE ( 'NONE', *, *, #300, .T. ) ;
#156 = CARTESIAN_POINT ( 'NONE',  ( -15.90990257669712449, -4.000000000000000000, -13.85990257669751990 ) ) ;
#157 = EDGE_LOOP ( 'NONE', ( #1022, #734 ) ) ;
#158 = EDGE_CURVE ( 'NONE', #825, #841, #1190, .T. ) ;
#159 = DIRECTION ( 'NONE',  ( 0.000000000000000000, 1.000000000000000000, 0.000000000000000000 ) ) ;
#160 = DIRECTION ( 'NONE',  ( 1.000000000000000000, 0.000000000000000000, 0.000000000000000000 ) ) ;
#161 = VERTEX_POINT ( 'NONE', #309 ) ;
#162 = VERTEX_POINT ( 'NONE', #1214 ) ;
#163 = AXIS2_PLACEMENT_3D ( 'NONE', #345, #928, #1048 ) ;
#164 = CARTESIAN_POINT ( 'NONE',  ( 15.90990257669723817, -4.000000000000000000, 15.90990257669740160 ) ) ;
#165 = CARTESIAN_POINT ( 'NONE',  ( 15.90990257669723817, 0.000000000000000000, 15.90990257669740160 ) ) ;
#166 = EDGE_CURVE ( 'NONE', #239, #841, #211, .T. ) ;
#167 = DIRECTION ( 'NONE',  ( -1.000000000000000000, -3.574581708073418934E-15, -0.000000000000000000 ) ) ;
#168 = ORIENTED_EDGE ( 'NONE', *, *, #1085, .F. ) ;
#169 = CIRCLE ( 'NONE', #1255, 2.549999999999996714 ) ;
#170 = AXIS2_PLACEMENT_3D ( 'NONE', #369, #880, #582 ) ;
#171 = DIRECTION ( 'NONE',  ( 1.000000000000000000, -3.574581708073418934E-15, -0.000000000000000000 ) ) ;
#172 = DIRECTION ( 'NONE',  ( 3.574581708073418934E-15, 1.000000000000000000, 2.102695122396128930E-16 ) ) ;
#173 = FACE_OUTER_BOUND ( 'NONE', #1206, .T. ) ;
#174 = DIRECTION ( 'NONE',  ( 0.000000000000000000, 0.000000000000000000, 1.000000000000000000 ) ) ;
#175 = CARTESIAN_POINT ( 'NONE',  ( -15.90990257669746022, -4.000000000000000000, 15.90990257669718311 ) ) ;
#176 = ORIENTED_EDGE ( 'NONE', *, *, #1085, .T. ) ;
#177 = EDGE_LOOP ( 'NONE', ( #298, #118 ) ) ;
#178 = ORIENTED_EDGE ( 'NONE', *, *, #717, .T. ) ;
#179 = FACE_OUTER_BOUND ( 'NONE', #588, .T. ) ;
#180 = CARTESIAN_POINT ( 'NONE',  ( 34.50000000000017053, 20.55000000000024585, 14.99999999999999467 ) ) ;
#181 = PLANE ( 'NONE',  #312 ) ;
#182 = LINE ( 'NONE', #883, #913 ) ;
#183 = DIRECTION ( 'NONE',  ( -4.081702296416022308E-15, -1.000000000000000000, 0.000000000000000000 ) ) ;
#184 = EDGE_LOOP ( 'NONE', ( #993, #1256, #1103, #249 ) ) ;
#185 = VERTEX_POINT ( 'NONE', #90 ) ;
#186 = VECTOR ( 'NONE', #660, 1000.000000000000000 ) ;
#187 = VERTEX_POINT ( 'NONE', #879 ) ;
#188 = AXIS2_PLACEMENT_3D ( 'NONE', #230, #946, #244 ) ;
#189 = EDGE_CURVE ( 'NONE', #871, #228, #294, .T. ) ;
#190 = CARTESIAN_POINT ( 'NONE',  ( -34.50000000000006395, 18.00000000000000355, 14.99999999999999467 ) ) ;
#191 = CARTESIAN_POINT ( 'NONE',  ( -27.50000000000001421, 2.999999999999999556, 30.00000000000000000 ) ) ;
#192 = CARTESIAN_POINT ( 'NONE',  ( -30.50000000000001066, 2.999999999999988898, 30.00000000000000000 ) ) ;
#193 = ORIENTED_EDGE ( 'NONE', *, *, #308, .T. ) ;
#194 = EDGE_LOOP ( 'NONE', ( #634, #795, #651, #32 ) ) ;
#195 = PRODUCT_DEFINITION_CONTEXT ( 'detailed design', #1093, 'design' ) ;
#196 = PLANE ( 'NONE',  #760 ) ;
#197 = DIRECTION ( 'NONE',  ( -1.000000000000000000, -3.574581708073418934E-15, -0.000000000000000000 ) ) ;
#198 = VECTOR ( 'NONE', #1313, 1000.000000000000000 ) ;
#199 = DIRECTION ( 'NONE',  ( 1.000000000000000000, 0.000000000000000000, 0.000000000000000000 ) ) ;
#200 = DIRECTION ( 'NONE',  ( 2.721134864277347811E-15, -1.000000000000000000, 0.000000000000000000 ) ) ;
#201 = EDGE_LOOP ( 'NONE', ( #933, #548, #311, #930 ) ) ;
#202 = ORIENTED_EDGE ( 'NONE', *, *, #538, .F. ) ;
#203 = FACE_OUTER_BOUND ( 'NONE', #1126, .T. ) ;
#204 = FACE_OUTER_BOUND ( 'NONE', #1317, .T. ) ;
#205 = EDGE_CURVE ( 'NONE', #314, #416, #572, .T. ) ;
#206 = LINE ( 'NONE', #611, #1010 ) ;
#207 = EDGE_CURVE ( 'NONE', #1031, #112, #1302, .T. ) ;
#208 = ORIENTED_EDGE ( 'NONE', *, *, #189, .T. ) ;
#209 = ORIENTED_EDGE ( 'NONE', *, *, #462, .T. ) ;
#210 = AXIS2_PLACEMENT_3D ( 'NONE', #1208, #1109, #200 ) ;
#211 = LINE ( 'NONE', #1017, #996 ) ;
#212 = CARTESIAN_POINT ( 'NONE',  ( 34.50000000000017764, 18.00000000000024869, -15.00000000000000000 ) ) ;
#213 = ORIENTED_EDGE ( 'NONE', *, *, #94, .F. ) ;
#214 = ORIENTED_EDGE ( 'NONE', *, *, #1168, .F. ) ;
#215 = LINE ( 'NONE', #1219, #342 ) ;
#216 = ORIENTED_EDGE ( 'NONE', *, *, #679, .T. ) ;
#217 = CIRCLE ( 'NONE', #1278, 6.999999999999999112 ) ;
#218 = DIRECTION ( 'NONE',  ( 0.000000000000000000, 1.000000000000000000, -2.102695122396128930E-16 ) ) ;
#219 = ORIENTED_EDGE ( 'NONE', *, *, #737, .F. ) ;
#220 = ADVANCED_FACE ( 'NONE', ( #1091 ), #1293, .F. ) ;
#221 = FACE_OUTER_BOUND ( 'NONE', #1098, .T. ) ;
#222 = CARTESIAN_POINT ( 'NONE',  ( 34.50000000000017053, 20.55000000000024940, -15.00000000000000000 ) ) ;
#223 = ORIENTED_EDGE ( 'NONE', *, *, #1213, .T. ) ;
#224 = ORIENTED_EDGE ( 'NONE', *, *, #811, .T. ) ;
#225 = DIRECTION ( 'NONE',  ( 0.000000000000000000, 0.000000000000000000, 1.000000000000000000 ) ) ;
#226 = ADVANCED_FACE ( 'NONE', ( #873 ), #1204, .F. ) ;
#227 = LINE ( 'NONE', #1035, #1162 ) ;
#228 = VERTEX_POINT ( 'NONE', #376 ) ;
#229 = CARTESIAN_POINT ( 'NONE',  ( 34.50000000000000000, -1.396592535537253342E-14, 30.00000000000000000 ) ) ;
#230 = CARTESIAN_POINT ( 'NONE',  ( -15.90990257669712449, -4.000000000000000000, -15.90990257669751884 ) ) ;
#231 = AXIS2_PLACEMENT_3D ( 'NONE', #406, #918, #1025 ) ;
#232 = DIRECTION ( 'NONE',  ( 0.000000000000000000, 0.000000000000000000, 1.000000000000000000 ) ) ;
#233 = CARTESIAN_POINT ( 'NONE',  ( 34.50000000000018474, 15.45000000000025153, 14.99999999999999467 ) ) ;
#234 = CIRCLE ( 'NONE', #605, 2.049999999999999822 ) ;
#235 = ORIENTED_EDGE ( 'NONE', *, *, #929, .F. ) ;
#236 = CARTESIAN_POINT ( 'NONE',  ( -34.50000000000011369, 33.00000000000000000, 29.99999999999999289 ) ) ;
#237 = ADVANCED_FACE ( 'NONE', ( #804, #782, #179 ), #796, .F. ) ;
#238 = DIRECTION ( 'NONE',  ( 1.000000000000000000, -3.593355771666241915E-15, 0.000000000000000000 ) ) ;
#239 = VERTEX_POINT ( 'NONE', #589 ) ;
#240 = EDGE_CURVE ( 'NONE', #352, #153, #829, .T. ) ;
#241 = CARTESIAN_POINT ( 'NONE',  ( 34.50000000000018474, 15.45000000000025153, 14.99999999999999467 ) ) ;
#242 = ORIENTED_EDGE ( 'NONE', *, *, #547, .T. ) ;
#243 = DIRECTION ( 'NONE',  ( 0.000000000000000000, 0.000000000000000000, 1.000000000000000000 ) ) ;
#244 = DIRECTION ( 'NONE',  ( 0.000000000000000000, 0.000000000000000000, 1.000000000000000000 ) ) ;
#245 = ORIENTED_EDGE ( 'NONE', *, *, #9, .T. ) ;
#246 = CIRCLE ( 'NONE', #18, 2.549999999999996714 ) ;
#247 = CARTESIAN_POINT ( 'NONE',  ( -30.50000000000012079, 33.00000000000001421, -30.00000000000000000 ) ) ;
#248 = VECTOR ( 'NONE', #273, 1000.000000000000000 ) ;
#249 = ORIENTED_EDGE ( 'NONE', *, *, #986, .T. ) ;
#250 = VERTEX_POINT ( 'NONE', #902 ) ;
#251 = CARTESIAN_POINT ( 'NONE',  ( 34.50000000000017053, 20.55000000000024940, -15.00000000000000000 ) ) ;
#252 = EDGE_LOOP ( 'NONE', ( #970, #595 ) ) ;
#253 = CARTESIAN_POINT ( 'NONE',  ( -34.50000000000000000, 0.000000000000000000, -30.00000000000000000 ) ) ;
#254 = AXIS2_PLACEMENT_3D ( 'NONE', #1300, #393, #1181 ) ;
#255 = VERTEX_POINT ( 'NONE', #1188 ) ;
#256 = VECTOR ( 'NONE', #146, 1000.000000000000000 ) ;
#257 = ADVANCED_FACE ( 'NONE', ( #1106 ), #196, .T. ) ;
#258 = CARTESIAN_POINT ( 'NONE',  ( 27.50000000000001421, 4.336808689942017736E-16, -30.00000000000000000 ) ) ;
#259 = DIRECTION ( 'NONE',  ( 1.000000000000000000, 0.000000000000000000, -0.000000000000000000 ) ) ;
#260 = CARTESIAN_POINT ( 'NONE',  ( 34.50000000000001421, 2.999999999999974687, -30.00000000000000000 ) ) ;
#261 = VERTEX_POINT ( 'NONE', #98 ) ;
#262 = VERTEX_POINT ( 'NONE', #684 ) ;
#263 = CARTESIAN_POINT ( 'NONE',  ( -30.50000000000000355, 3.324014769211422669E-16, -30.00000000000000000 ) ) ;
#264 = EDGE_CURVE ( 'NONE', #663, #710, #402, .T. ) ;
#265 = LINE ( 'NONE', #258, #819 ) ;
#266 = SURFACE_SIDE_STYLE ('',( #770 ) ) ;
#267 = CARTESIAN_POINT ( 'NONE',  ( 30.50000000000007816, 20.55000000000023164, 14.99999999999999467 ) ) ;
#268 = VECTOR ( 'NONE', #997, 1000.000000000000000 ) ;
#269 = VERTEX_POINT ( 'NONE', #1211 ) ;
#270 = VECTOR ( 'NONE', #784, 1000.000000000000000 ) ;
#271 = CARTESIAN_POINT ( 'NONE',  ( -34.50000000000000000, -4.000000000000000000, 30.00000000000000000 ) ) ;
#272 = DIRECTION ( 'NONE',  ( -1.000000000000000000, -0.000000000000000000, -0.000000000000000000 ) ) ;
#273 = DIRECTION ( 'NONE',  ( -1.000000000000000000, -3.574581708073418934E-15, -0.000000000000000000 ) ) ;
#274 = EDGE_LOOP ( 'NONE', ( #698, #816 ) ) ;
#275 = LINE ( 'NONE', #72, #577 ) ;
#276 = CARTESIAN_POINT ( 'NONE',  ( -15.90990257669712449, 0.000000000000000000, -15.90990257669751884 ) ) ;
#277 = EDGE_LOOP ( 'NONE', ( #1247, #492, #1120, #773 ) ) ;
#278 = AXIS2_PLACEMENT_3D ( 'NONE', #783, #1189, #693 ) ;
#279 = VECTOR ( 'NONE', #757, 1000.000000000000000 ) ;
#280 = DIRECTION ( 'NONE',  ( 1.000000000000000000, 0.000000000000000000, -0.000000000000000000 ) ) ;
#281 = LINE ( 'NONE', #903, #1239 ) ;
#282 = CARTESIAN_POINT ( 'NONE',  ( 15.90990257669723817, -4.000000000000000000, 13.85990257669740267 ) ) ;
#283 = DIRECTION ( 'NONE',  ( -1.000000000000000000, 3.491481338843133355E-15, 0.000000000000000000 ) ) ;
#284 = EDGE_CURVE ( 'NONE', #1222, #1014, #888, .T. ) ;
#285 = DIRECTION ( 'NONE',  ( -0.000000000000000000, 1.000000000000000000, -0.000000000000000000 ) ) ;
#286 = ORIENTED_EDGE ( 'NONE', *, *, #1201, .T. ) ;
#287 = ORIENTED_EDGE ( 'NONE', *, *, #538, .T. ) ;
#288 = ORIENTED_EDGE ( 'NONE', *, *, #853, .F. ) ;
#289 = DIRECTION ( 'NONE',  ( 0.000000000000000000, 0.000000000000000000, 1.000000000000000000 ) ) ;
#290 = DIRECTION ( 'NONE',  ( -1.000000000000000000, -3.574581708073418934E-15, -0.000000000000000000 ) ) ;
#291 = ORIENTED_EDGE ( 'NONE', *, *, #567, .F. ) ;
#292 = FACE_OUTER_BOUND ( 'NONE', #194, .T. ) ;
#293 = EDGE_LOOP ( 'NONE', ( #1170, #1261, #559, #97 ) ) ;
#294 = LINE ( 'NONE', #1286, #625 ) ;
#295 = CARTESIAN_POINT ( 'NONE',  ( 15.90990257669723817, 0.000000000000000000, 15.90990257669740160 ) ) ;
#296 = CARTESIAN_POINT ( 'NONE',  ( 15.90990257669735009, -4.000000000000000000, -15.90990257669729502 ) ) ;
#297 = DIRECTION ( 'NONE',  ( 0.000000000000000000, 1.000000000000000000, 0.000000000000000000 ) ) ;
#298 = ORIENTED_EDGE ( 'NONE', *, *, #38, .T. ) ;
#299 = ORIENTED_EDGE ( 'NONE', *, *, #1238, .T. ) ;
#300 = EDGE_CURVE ( 'NONE', #153, #352, #603, .T. ) ;
#301 = CARTESIAN_POINT ( 'NONE',  ( -27.50000000000001421, 2.999999999999999556, 30.00000000000000000 ) ) ;
#302 = DIRECTION ( 'NONE',  ( -0.000000000000000000, 1.000000000000000000, -0.000000000000000000 ) ) ;
#303 = AXIS2_PLACEMENT_3D ( 'NONE', #687, #661, #592 ) ;
#304 = AXIS2_PLACEMENT_3D ( 'NONE', #1028, #120, #1121 ) ;
#305 = CARTESIAN_POINT ( 'NONE',  ( 34.50000000000017764, 18.00000000000024869, 14.99999999999999467 ) ) ;
#306 = ORIENTED_EDGE ( 'NONE', *, *, #1267, .T. ) ;
#307 = FACE_OUTER_BOUND ( 'NONE', #1157, .T. ) ;
#308 = EDGE_CURVE ( 'NONE', #112, #483, #486, .T. ) ;
#309 = CARTESIAN_POINT ( 'NONE',  ( 30.50000000000005684, 15.45000000000023377, -15.00000000000000000 ) ) ;
#310 = DIRECTION ( 'NONE',  ( 2.721134864277347811E-15, -1.000000000000000000, 0.000000000000000000 ) ) ;
#311 = ORIENTED_EDGE ( 'NONE', *, *, #439, .T. ) ;
#312 = AXIS2_PLACEMENT_3D ( 'NONE', #480, #370, #777 ) ;
#313 = CIRCLE ( 'NONE', #618, 2.550000000000000266 ) ;
#314 = VERTEX_POINT ( 'NONE', #479 ) ;
#315 = DIRECTION ( 'NONE',  ( 0.000000000000000000, 1.000000000000000000, 0.000000000000000000 ) ) ;
#316 = ORIENTED_EDGE ( 'NONE', *, *, #1043, .T. ) ;
#317 = LINE ( 'NONE', #824, #93 ) ;
#318 = AXIS2_PLACEMENT_3D ( 'NONE', #396, #979, #259 ) ;
#319 = AXIS2_PLACEMENT_3D ( 'NONE', #1113, #1033, #516 ) ;
#320 = CARTESIAN_POINT ( 'NONE',  ( 34.50000000000017764, 18.00000000000024869, 14.99999999999999467 ) ) ;
#321 = ORIENTED_EDGE ( 'NONE', *, *, #826, .T. ) ;
#322 = EDGE_CURVE ( 'NONE', #314, #2, #361, .T. ) ;
#323 = FACE_OUTER_BOUND ( 'NONE', #543, .T. ) ;
#324 = EDGE_CURVE ( 'NONE', #408, #483, #868, .T. ) ;
#325 = CARTESIAN_POINT ( 'NONE',  ( -34.50000000000000000, -4.000000000000000000, 30.00000000000000000 ) ) ;
#326 = VERTEX_POINT ( 'NONE', #598 ) ;
#327 = DIRECTION ( 'NONE',  ( 0.000000000000000000, 0.000000000000000000, -1.000000000000000000 ) ) ;
#328 = ORIENTED_EDGE ( 'NONE', *, *, #1201, .F. ) ;
#329 = LINE ( 'NONE', #1271, #681 ) ;
#330 = AXIS2_PLACEMENT_3D ( 'NONE', #792, #167, #80 ) ;
#331 = CARTESIAN_POINT ( 'NONE',  ( 0.000000000000000000, 0.000000000000000000, 0.000000000000000000 ) ) ;
#332 = DIRECTION ( 'NONE',  ( -4.081702296416015997E-15, -1.000000000000000000, 0.000000000000000000 ) ) ;
#333 = LINE ( 'NONE', #1249, #1248 ) ;
#334 = ORIENTED_EDGE ( 'NONE', *, *, #207, .T. ) ;
#335 = EDGE_CURVE ( 'NONE', #262, #250, #1021, .T. ) ;
#336 = MECHANICAL_DESIGN_GEOMETRIC_PRESENTATION_REPRESENTATION (  '', ( #1149 ), #1215 ) ;
#337 = CARTESIAN_POINT ( 'NONE',  ( -27.50000000000001421, 4.336808689942017736E-16, 30.00000000000000000 ) ) ;
#338 = ORIENTED_EDGE ( 'NONE', *, *, #437, .F. ) ;
#339 = CIRCLE ( 'NONE', #678, 2.049999999999999822 ) ;
#340 = ORIENTED_EDGE ( 'NONE', *, *, #1099, .F. ) ;
#341 = FACE_OUTER_BOUND ( 'NONE', #1140, .T. ) ;
#342 = VECTOR ( 'NONE', #632, 1000.000000000000000 ) ;
#343 = ORIENTED_EDGE ( 'NONE', *, *, #1058, .T. ) ;
#344 = DIRECTION ( 'NONE',  ( -1.000000000000000000, -3.574581708073418934E-15, -0.000000000000000000 ) ) ;
#345 = CARTESIAN_POINT ( 'NONE',  ( -34.50000000000011369, 33.00000000000000000, -30.00000000000000000 ) ) ;
#346 = DIRECTION ( 'NONE',  ( -1.000000000000000000, 0.000000000000000000, 0.000000000000000000 ) ) ;
#347 = CARTESIAN_POINT ( 'NONE',  ( -15.90990257669746022, -4.000000000000000000, 15.90990257669718311 ) ) ;
#348 = ORIENTED_EDGE ( 'NONE', *, *, #1099, .T. ) ;
#349 = CARTESIAN_POINT ( 'NONE',  ( -34.50000000000012079, 33.00000000000000000, 29.99999999999999289 ) ) ;
#350 = VECTOR ( 'NONE', #1273, 1000.000000000000000 ) ;
#351 = CARTESIAN_POINT ( 'NONE',  ( -1.571166602479410136E-13, -4.000000000000000000, 22.50000000000000355 ) ) ;
#352 = VERTEX_POINT ( 'NONE', #411 ) ;
#353 = EDGE_CURVE ( 'NONE', #1136, #568, #1060, .T. ) ;
#354 = AXIS2_PLACEMENT_3D ( 'NONE', #539, #455, #738 ) ;
#355 = FACE_OUTER_BOUND ( 'NONE', #1097, .T. ) ;
#356 = CARTESIAN_POINT ( 'NONE',  ( 30.50000000000012079, 33.00000000000001421, -29.99999999999999289 ) ) ;
#357 = ORIENTED_EDGE ( 'NONE', *, *, #865, .T. ) ;
#358 = CARTESIAN_POINT ( 'NONE',  ( -15.90990257669746022, -4.000000000000000000, 13.85990257669718417 ) ) ;
#359 = VERTEX_POINT ( 'NONE', #635 ) ;
#360 = DIRECTION ( 'NONE',  ( 0.000000000000000000, 0.000000000000000000, -1.000000000000000000 ) ) ;
#361 = CIRCLE ( 'NONE', #1108, 6.999999999999999112 ) ;
#362 = ORIENTED_EDGE ( 'NONE', *, *, #579, .T. ) ;
#363 = AXIS2_PLACEMENT_3D ( 'NONE', #86, #889, #1001 ) ;
#364 = ADVANCED_FACE ( 'NONE', ( #221 ), #712, .T. ) ;
#365 = FACE_OUTER_BOUND ( 'NONE', #1027, .T. ) ;
#366 = DIRECTION ( 'NONE',  ( -0.000000000000000000, 1.000000000000000000, -0.000000000000000000 ) ) ;
#367 = ORIENTED_EDGE ( 'NONE', *, *, #113, .T. ) ;
#368 = CARTESIAN_POINT ( 'NONE',  ( 0.000000000000000000, -4.000000000000000000, -22.50000000000000355 ) ) ;
#369 = CARTESIAN_POINT ( 'NONE',  ( -15.90990257669746022, -4.000000000000000000, 15.90990257669718311 ) ) ;
#370 = DIRECTION ( 'NONE',  ( 0.000000000000000000, 0.000000000000000000, 1.000000000000000000 ) ) ;
#371 = CARTESIAN_POINT ( 'NONE',  ( 15.90990257669735009, -4.000000000000000000, -15.90990257669729502 ) ) ;
#372 = CARTESIAN_POINT ( 'NONE',  ( 0.000000000000000000, -4.000000000000000000, -20.45000000000000284 ) ) ;
#373 = AXIS2_PLACEMENT_3D ( 'NONE', #616, #818, #218 ) ;
#374 = ORIENTED_EDGE ( 'NONE', *, *, #439, .F. ) ;
#375 = VECTOR ( 'NONE', #1063, 1000.000000000000000 ) ;
#376 = CARTESIAN_POINT ( 'NONE',  ( -30.50000000000012079, 33.00000000000001421, 29.99999999999999289 ) ) ;
#377 = CARTESIAN_POINT ( 'NONE',  ( -30.50000000000007461, 18.00000000000001421, -15.00000000000000000 ) ) ;
#378 = EDGE_CURVE ( 'NONE', #441, #1014, #215, .T. ) ;
#379 = FACE_BOUND ( 'NONE', #419, .T. ) ;
#380 = ADVANCED_FACE ( 'NONE', ( #323 ), #1007, .F. ) ;
#381 = DIRECTION ( 'NONE',  ( 2.721134864277344261E-15, -1.000000000000000000, 0.000000000000000000 ) ) ;
#382 = ORIENTED_EDGE ( 'NONE', *, *, #166, .F. ) ;
#383 = EDGE_LOOP ( 'NONE', ( #876, #1012 ) ) ;
#384 = PRESENTATION_LAYER_ASSIGNMENT (  '', '', ( #1149 ) ) ;
#385 = ORIENTED_EDGE ( 'NONE', *, *, #865, .F. ) ;
#386 = AXIS2_PLACEMENT_3D ( 'NONE', #977, #1309, #685 ) ;
#387 = DIRECTION ( 'NONE',  ( -0.000000000000000000, -0.000000000000000000, 1.000000000000000000 ) ) ;
#388 = FACE_BOUND ( 'NONE', #476, .T. ) ;
#389 = DIRECTION ( 'NONE',  ( 0.000000000000000000, 1.000000000000000000, 0.000000000000000000 ) ) ;
#390 = CARTESIAN_POINT ( 'NONE',  ( 34.50000000000012079, 33.00000000000000000, 30.00000000000000000 ) ) ;
#391 = ORIENTED_EDGE ( 'NONE', *, *, #404, .F. ) ;
#392 = ORIENTED_EDGE ( 'NONE', *, *, #597, .F. ) ;
#393 = DIRECTION ( 'NONE',  ( -1.000000000000000000, -3.574581708073418934E-15, 0.000000000000000000 ) ) ;
#394 = CARTESIAN_POINT ( 'NONE',  ( -15.90990257669746022, -4.000000000000000000, 17.95990257669718204 ) ) ;
#395 = VERTEX_POINT ( 'NONE', #1138 ) ;
#396 = CARTESIAN_POINT ( 'NONE',  ( 27.50000000000001421, 2.999999999999999556, 30.00000000000000000 ) ) ;
#397 = FACE_OUTER_BOUND ( 'NONE', #981, .T. ) ;
#398 = EDGE_CURVE ( 'NONE', #441, #963, #317, .T. ) ;
#399 = ORIENTED_EDGE ( 'NONE', *, *, #1089, .T. ) ;
#400 = ORIENTED_EDGE ( 'NONE', *, *, #1276, .F. ) ;
#401 = VECTOR ( 'NONE', #968, 1000.000000000000000 ) ;
#402 = LINE ( 'NONE', #674, #428 ) ;
#403 = DIRECTION ( 'NONE',  ( 1.000000000000000000, 3.574581708073418934E-15, -0.000000000000000000 ) ) ;
#404 = EDGE_CURVE ( 'NONE', #798, #896, #1217, .T. ) ;
#405 = EDGE_LOOP ( 'NONE', ( #1299, #961 ) ) ;
#406 = CARTESIAN_POINT ( 'NONE',  ( -15.90990257669746022, 0.000000000000000000, 15.90990257669718311 ) ) ;
#407 = FACE_BOUND ( 'NONE', #177, .T. ) ;
#408 = VERTEX_POINT ( 'NONE', #427 ) ;
#409 = VERTEX_POINT ( 'NONE', #626 ) ;
#410 = ADVANCED_FACE ( 'NONE', ( #307 ), #1024, .F. ) ;
#411 = CARTESIAN_POINT ( 'NONE',  ( -34.50000000000007105, 20.54999999999999716, 14.99999999999999467 ) ) ;
#412 = AXIS2_PLACEMENT_3D ( 'NONE', #133, #1036, #346 ) ;
#413 = AXIS2_PLACEMENT_3D ( 'NONE', #753, #344, #645 ) ;
#414 = CARTESIAN_POINT ( 'NONE',  ( -34.50000000000005684, 15.45000000000000462, 14.99999999999999467 ) ) ;
#415 = CARTESIAN_POINT ( 'NONE',  ( 0.000000000000000000, 0.000000000000000000, -22.50000000000000355 ) ) ;
#416 = VERTEX_POINT ( 'NONE', #934 ) ;
#417 = DIRECTION ( 'NONE',  ( -1.000000000000000000, 0.000000000000000000, 0.000000000000000000 ) ) ;
#418 = FACE_OUTER_BOUND ( 'NONE', #584, .T. ) ;
#419 = EDGE_LOOP ( 'NONE', ( #870, #514 ) ) ;
#420 = AXIS2_PLACEMENT_3D ( 'NONE', #1288, #1094, #154 ) ;
#421 = CIRCLE ( 'NONE', #1270, 2.549999999999996714 ) ;
#422 = AXIS2_PLACEMENT_3D ( 'NONE', #1192, #159, #965 ) ;
#423 = ORIENTED_EDGE ( 'NONE', *, *, #713, .F. ) ;
#424 = CARTESIAN_POINT ( 'NONE',  ( 30.50000000000000355, 3.324014769211422669E-16, 30.00000000000000000 ) ) ;
#425 = ADVANCED_FACE ( 'NONE', ( #922 ), #535, .F. ) ;
#426 = ORIENTED_EDGE ( 'NONE', *, *, #335, .T. ) ;
#427 = CARTESIAN_POINT ( 'NONE',  ( -1.568656076541158204E-13, 0.000000000000000000, 20.45000000000000284 ) ) ;
#428 = VECTOR ( 'NONE', #994, 1000.000000000000000 ) ;
#429 = DIRECTION ( 'NONE',  ( 1.000000000000000000, -3.491481338843133355E-15, 0.000000000000000000 ) ) ;
#430 = ORIENTED_EDGE ( 'NONE', *, *, #477, .T. ) ;
#431 = ADVANCED_FACE ( 'NONE', ( #203 ), #1233, .F. ) ;
#432 = DIRECTION ( 'NONE',  ( -1.000000000000000000, -3.574581708073418934E-15, -0.000000000000000000 ) ) ;
#433 = CARTESIAN_POINT ( 'NONE',  ( 34.50000000000017764, 18.00000000000024869, 14.99999999999999467 ) ) ;
#434 = DIRECTION ( 'NONE',  ( 0.000000000000000000, -0.000000000000000000, 1.000000000000000000 ) ) ;
#435 = VERTEX_POINT ( 'NONE', #14 ) ;
#436 = CARTESIAN_POINT ( 'NONE',  ( 34.50000000000000000, -1.309809089167170840E-13, -30.00000000000000000 ) ) ;
#437 = EDGE_CURVE ( 'NONE', #6, #1136, #124, .T. ) ;
#438 = ORIENTED_EDGE ( 'NONE', *, *, #63, .F. ) ;
#439 = EDGE_CURVE ( 'NONE', #825, #1014, #329, .T. ) ;
#440 = DIRECTION ( 'NONE',  ( -0.000000000000000000, -0.000000000000000000, -1.000000000000000000 ) ) ;
#441 = VERTEX_POINT ( 'NONE', #390 ) ;
#442 = DIRECTION ( 'NONE',  ( 0.000000000000000000, 0.000000000000000000, 1.000000000000000000 ) ) ;
#443 = EDGE_LOOP ( 'NONE', ( #136, #920, #828, #772 ) ) ;
#444 = EDGE_CURVE ( 'NONE', #161, #255, #1303, .T. ) ;
#445 = DIRECTION ( 'NONE',  ( 0.000000000000000000, 0.000000000000000000, 1.000000000000000000 ) ) ;
#446 = AXIS2_PLACEMENT_3D ( 'NONE', #1117, #1122, #620 ) ;
#447 = DIRECTION ( 'NONE',  ( 2.721134864277344261E-15, -1.000000000000000000, 0.000000000000000000 ) ) ;
#448 = VECTOR ( 'NONE', #728, 1000.000000000000000 ) ;
#449 = ORIENTED_EDGE ( 'NONE', *, *, #444, .T. ) ;
#450 = CARTESIAN_POINT ( 'NONE',  ( 15.90990257669735009, 0.000000000000000000, -15.90990257669729502 ) ) ;
#451 = VECTOR ( 'NONE', #658, 1000.000000000000000 ) ;
#452 = ORIENTED_EDGE ( 'NONE', *, *, #38, .F. ) ;
#453 = CARTESIAN_POINT ( 'NONE',  ( 15.90990257669723817, -4.000000000000000000, 15.90990257669740160 ) ) ;
#454 = EDGE_CURVE ( 'NONE', #409, #1128, #152, .T. ) ;
#455 = DIRECTION ( 'NONE',  ( 1.000000000000000000, 3.574581708073418934E-15, -0.000000000000000000 ) ) ;
#456 = DIRECTION ( 'NONE',  ( -1.000000000000000000, 3.574581708073418934E-15, 0.000000000000000000 ) ) ;
#457 = CARTESIAN_POINT ( 'NONE',  ( 27.50000000000001421, 2.999999999999999556, 30.00000000000000000 ) ) ;
#458 = ORIENTED_EDGE ( 'NONE', *, *, #907, .T. ) ;
#459 = LINE ( 'NONE', #1177, #186 ) ;
#460 = ORIENTED_EDGE ( 'NONE', *, *, #158, .T. ) ;
#461 = AXIS2_PLACEMENT_3D ( 'NONE', #1044, #432, #25 ) ;
#462 = EDGE_CURVE ( 'NONE', #565, #921, #874, .T. ) ;
#463 = DIRECTION ( 'NONE',  ( -1.000000000000000000, -3.574581708073418934E-15, -0.000000000000000000 ) ) ;
#464 = ORIENTED_EDGE ( 'NONE', *, *, #776, .F. ) ;
#465 = DIRECTION ( 'NONE',  ( 0.000000000000000000, 1.000000000000000000, 0.000000000000000000 ) ) ;
#466 = CARTESIAN_POINT ( 'NONE',  ( -27.50000000000001421, -4.000000000000000000, -30.00000000000000000 ) ) ;
#467 = DIRECTION ( 'NONE',  ( -0.000000000000000000, 1.000000000000000000, -0.000000000000000000 ) ) ;
#468 = COLOUR_RGB ( '',0.7921568627450980005, 0.8196078431372548767, 0.9333333333333333481 ) ;
#469 = VERTEX_POINT ( 'NONE', #768 ) ;
#470 = AXIS2_PLACEMENT_3D ( 'NONE', #706, #290, #1101 ) ;
#471 = DIRECTION ( 'NONE',  ( 0.000000000000000000, 0.000000000000000000, 1.000000000000000000 ) ) ;
#472 = CARTESIAN_POINT ( 'NONE',  ( 15.90990257669735009, 0.000000000000000000, -15.90990257669729502 ) ) ;
#473 = LINE ( 'NONE', #686, #1268 ) ;
#474 = PLANE ( 'NONE',  #318 ) ;
#475 = FACE_OUTER_BOUND ( 'NONE', #141, .T. ) ;
#476 = EDGE_LOOP ( 'NONE', ( #74, #235 ) ) ;
#477 = EDGE_CURVE ( 'NONE', #250, #262, #234, .T. ) ;
#478 = ADVANCED_FACE ( 'NONE', ( #957 ), #1176, .F. ) ;
#479 = CARTESIAN_POINT ( 'NONE',  ( -34.50000000000001421, 2.999999999999974687, 30.00000000000000000 ) ) ;
#480 = CARTESIAN_POINT ( 'NONE',  ( -34.50000000000000000, -1.396592535537253342E-14, -30.00000000000000000 ) ) ;
#481 = AXIS2_PLACEMENT_3D ( 'NONE', #641, #1054, #429 ) ;
#482 = DIRECTION ( 'NONE',  ( -1.000000000000000000, 3.574581708073418934E-15, 0.000000000000000000 ) ) ;
#483 = VERTEX_POINT ( 'NONE', #653 ) ;
#484 = AXIS2_PLACEMENT_3D ( 'NONE', #175, #1305, #1186 ) ;
#485 = VERTEX_POINT ( 'NONE', #54 ) ;
#486 = LINE ( 'NONE', #77, #198 ) ;
#487 = DIRECTION ( 'NONE',  ( 0.000000000000000000, -1.000000000000000000, 0.000000000000000000 ) ) ;
#488 = PLANE ( 'NONE',  #649 ) ;
#489 = DIRECTION ( 'NONE',  ( 0.000000000000000000, 0.000000000000000000, 1.000000000000000000 ) ) ;
#490 = ORIENTED_EDGE ( 'NONE', *, *, #21, .F. ) ;
#491 = VECTOR ( 'NONE', #199, 1000.000000000000000 ) ;
#492 = ORIENTED_EDGE ( 'NONE', *, *, #52, .T. ) ;
#493 = AXIS2_PLACEMENT_3D ( 'NONE', #433, #1015, #114 ) ;
#494 = DIRECTION ( 'NONE',  ( -0.000000000000000000, 1.000000000000000000, -0.000000000000000000 ) ) ;
#495 = DIRECTION ( 'NONE',  ( -1.000000000000000000, 0.000000000000000000, -0.000000000000000000 ) ) ;
#496 = ADVANCED_FACE ( 'NONE', ( #60 ), #867, .F. ) ;
#497 = LINE ( 'NONE', #574, #1277 ) ;
#498 = FACE_BOUND ( 'NONE', #274, .T. ) ;
#499 = EDGE_LOOP ( 'NONE', ( #723, #245, #42, #1154 ) ) ;
#500 = DIRECTION ( 'NONE',  ( 2.721134864277347811E-15, -1.000000000000000000, 0.000000000000000000 ) ) ;
#501 = FACE_OUTER_BOUND ( 'NONE', #1250, .T. ) ;
#502 = DIRECTION ( 'NONE',  ( 0.000000000000000000, 0.000000000000000000, 1.000000000000000000 ) ) ;
#503 = LINE ( 'NONE', #724, #809 ) ;
#504 = DIRECTION ( 'NONE',  ( -1.000000000000000000, -3.574581708073418934E-15, 0.000000000000000000 ) ) ;
#505 = ORIENTED_EDGE ( 'NONE', *, *, #523, .F. ) ;
#506 = EDGE_CURVE ( 'NONE', #528, #228, #1073, .T. ) ;
#507 = CIRCLE ( 'NONE', #667, 2.049999999999999822 ) ;
#508 = ORIENTED_EDGE ( 'NONE', *, *, #707, .F. ) ;
#509 = VECTOR ( 'NONE', #573, 1000.000000000000000 ) ;
#510 = CARTESIAN_POINT ( 'NONE',  ( 2.510525938252073693E-16, -4.000000000000000000, -24.55000000000000071 ) ) ;
#511 = FACE_OUTER_BOUND ( 'NONE', #1311, .T. ) ;
#512 = DIRECTION ( 'NONE',  ( 0.000000000000000000, -1.000000000000000000, 0.000000000000000000 ) ) ;
#513 = DIRECTION ( 'NONE',  ( -3.574581708073418934E-15, 1.000000000000000000, -2.102695122396128930E-16 ) ) ;
#514 = ORIENTED_EDGE ( 'NONE', *, *, #31, .F. ) ;
#515 = CIRCLE ( 'NONE', #1038, 2.550000000000000266 ) ;
#516 = DIRECTION ( 'NONE',  ( -4.081702296416022308E-15, 1.000000000000000000, 0.000000000000000000 ) ) ;
#517 = AXIS2_PLACEMENT_3D ( 'NONE', #295, #701, #225 ) ;
#518 = VECTOR ( 'NONE', #139, 1000.000000000000000 ) ;
#519 = CARTESIAN_POINT ( 'NONE',  ( 0.000000000000000000, 0.000000000000000000, 0.000000000000000000 ) ) ;
#520 = EDGE_LOOP ( 'NONE', ( #328, #119, #306, #449 ) ) ;
#521 = CARTESIAN_POINT ( 'NONE',  ( 30.50000000000012079, 33.00000000000001421, 30.00000000000000000 ) ) ;
#522 = ORIENTED_EDGE ( 'NONE', *, *, #125, .T. ) ;
#523 = EDGE_CURVE ( 'NONE', #710, #859, #1287, .T. ) ;
#524 = CARTESIAN_POINT ( 'NONE',  ( -1.571166602479410136E-13, -4.000000000000000000, 22.50000000000000355 ) ) ;
#525 = EDGE_CURVE ( 'NONE', #859, #871, #1264, .T. ) ;
#526 = CARTESIAN_POINT ( 'NONE',  ( 34.50000000000001421, 2.999999999999974687, 30.00000000000000000 ) ) ;
#527 = ORIENTED_EDGE ( 'NONE', *, *, #1116, .T. ) ;
#528 = VERTEX_POINT ( 'NONE', #349 ) ;
#529 = VECTOR ( 'NONE', #648, 1000.000000000000000 ) ;
#530 = PRODUCT_DEFINITION_FORMATION_WITH_SPECIFIED_SOURCE ( 'ANY', '', #117, .NOT_KNOWN. ) ;
#531 = EDGE_CURVE ( 'NONE', #1160, #752, #1061, .T. ) ;
#532 = FACE_BOUND ( 'NONE', #578, .T. ) ;
#533 = ORIENTED_EDGE ( 'NONE', *, *, #525, .F. ) ;
#534 = DIRECTION ( 'NONE',  ( 1.000000000000000000, 0.000000000000000000, -0.000000000000000000 ) ) ;
#535 = CYLINDRICAL_SURFACE ( 'NONE', #810, 2.049999999999999822 ) ;
#536 = CIRCLE ( 'NONE', #915, 2.049999999999999822 ) ;
#537 = CIRCLE ( 'NONE', #517, 2.049999999999999822 ) ;
#538 = EDGE_CURVE ( 'NONE', #765, #1128, #281, .T. ) ;
#539 = CARTESIAN_POINT ( 'NONE',  ( -30.50000000000007461, 18.00000000000001421, -15.00000000000000000 ) ) ;
#540 = ORIENTED_EDGE ( 'NONE', *, *, #308, .F. ) ;
#541 = CARTESIAN_POINT ( 'NONE',  ( 30.50000000000006750, 18.00000000000023448, -15.00000000000000000 ) ) ;
#542 = DIRECTION ( 'NONE',  ( 0.000000000000000000, 0.000000000000000000, 1.000000000000000000 ) ) ;
#543 = EDGE_LOOP ( 'NONE', ( #288, #348, #878, #155 ) ) ;
#544 = CARTESIAN_POINT ( 'NONE',  ( 27.50000000000001421, 2.999999999999999556, -30.00000000000000000 ) ) ;
#545 = VERTEX_POINT ( 'NONE', #675 ) ;
#546 = CARTESIAN_POINT ( 'NONE',  ( 30.50000000000001066, 2.999999999999988898, -30.00000000000000000 ) ) ;
#547 = EDGE_CURVE ( 'NONE', #261, #859, #953, .T. ) ;
#548 = ORIENTED_EDGE ( 'NONE', *, *, #158, .F. ) ;
#549 = CIRCLE ( 'NONE', #1292, 2.550000000000000266 ) ;
#550 = DIRECTION ( 'NONE',  ( 0.000000000000000000, 0.000000000000000000, -1.000000000000000000 ) ) ;
#551 = VERTEX_POINT ( 'NONE', #394 ) ;
#552 = CARTESIAN_POINT ( 'NONE',  ( -30.50000000000006395, 15.45000000000001705, 14.99999999999999467 ) ) ;
#553 = ORIENTED_EDGE ( 'NONE', *, *, #1168, .T. ) ;
#554 = AXIS2_PLACEMENT_3D ( 'NONE', #1318, #814, #417 ) ;
#555 = CARTESIAN_POINT ( 'NONE',  ( 30.50000000000001421, 2.999999999999988898, -30.00000000000000000 ) ) ;
#556 = AXIS2_PLACEMENT_3D ( 'NONE', #898, #797, #1205 ) ;
#557 = DIRECTION ( 'NONE',  ( -1.000000000000000000, 3.574581708073418934E-15, 0.000000000000000000 ) ) ;
#558 = CYLINDRICAL_SURFACE ( 'NONE', #789, 2.049999999999999822 ) ;
#559 = ORIENTED_EDGE ( 'NONE', *, *, #264, .T. ) ;
#560 = DIRECTION ( 'NONE',  ( -4.081702296416015997E-15, -1.000000000000000000, 0.000000000000000000 ) ) ;
#561 = ADVANCED_FACE ( 'NONE', ( #106 ), #1079, .F. ) ;
#562 = FACE_OUTER_BOUND ( 'NONE', #293, .T. ) ;
#563 = CARTESIAN_POINT ( 'NONE',  ( -27.50000000000001421, -4.000000000000000000, 30.00000000000000000 ) ) ;
#564 = LINE ( 'NONE', #1096, #1071 ) ;
#565 = VERTEX_POINT ( 'NONE', #180 ) ;
#566 = DIRECTION ( 'NONE',  ( -1.000000000000000000, 3.574581708073418934E-15, 0.000000000000000000 ) ) ;
#567 = EDGE_CURVE ( 'NONE', #261, #1196, #988, .T. ) ;
#568 = VERTEX_POINT ( 'NONE', #599 ) ;
#569 = AXIS2_PLACEMENT_3D ( 'NONE', #58, #285, #671 ) ;
#570 = LINE ( 'NONE', #156, #1161 ) ;
#571 = ORIENTED_EDGE ( 'NONE', *, *, #353, .T. ) ;
#572 = LINE ( 'NONE', #897, #44 ) ;
#573 = DIRECTION ( 'NONE',  ( -0.000000000000000000, 1.000000000000000000, -0.000000000000000000 ) ) ;
#574 = CARTESIAN_POINT ( 'NONE',  ( -15.90990257669712449, -4.000000000000000000, -17.95990257669751955 ) ) ;
#575 = EDGE_CURVE ( 'NONE', #798, #153, #1008, .T. ) ;
#576 = DIRECTION ( 'NONE',  ( -0.000000000000000000, 1.000000000000000000, -0.000000000000000000 ) ) ;
#577 = VECTOR ( 'NONE', #1280, 1000.000000000000000 ) ;
#578 = EDGE_LOOP ( 'NONE', ( #1087, #213 ) ) ;
#579 = EDGE_CURVE ( 'NONE', #162, #1187, #656, .T. ) ;
#580 = VECTOR ( 'NONE', #172, 1000.000000000000000 ) ;
#581 = CARTESIAN_POINT ( 'NONE',  ( -1.571166602479410136E-13, -4.000000000000000000, 22.50000000000000355 ) ) ;
#582 = DIRECTION ( 'NONE',  ( 0.000000000000000000, 0.000000000000000000, 1.000000000000000000 ) ) ;
#583 = DIRECTION ( 'NONE',  ( -0.000000000000000000, 1.000000000000000000, -0.000000000000000000 ) ) ;
#584 = EDGE_LOOP ( 'NONE', ( #1266, #208, #969, #822 ) ) ;
#585 = CARTESIAN_POINT ( 'NONE',  ( -34.50000000000006395, 18.00000000000000355, -15.00000000000000000 ) ) ;
#586 = EDGE_LOOP ( 'NONE', ( #81, #788 ) ) ;
#587 = ORIENTED_EDGE ( 'NONE', *, *, #1058, .F. ) ;
#588 = EDGE_LOOP ( 'NONE', ( #374, #59, #299, #1067 ) ) ;
#589 = CARTESIAN_POINT ( 'NONE',  ( 27.50000000000001421, 4.336808689942017736E-16, -30.00000000000000000 ) ) ;
#590 = CARTESIAN_POINT ( 'NONE',  ( -30.50000000000000355, -1.233230689285329584E-13, 0.000000000000000000 ) ) ;
#591 = VECTOR ( 'NONE', #1171, 1000.000000000000000 ) ;
#592 = DIRECTION ( 'NONE',  ( 2.721134864277347811E-15, -1.000000000000000000, 0.000000000000000000 ) ) ;
#593 = CARTESIAN_POINT ( 'NONE',  ( -30.50000000000001421, 2.999999999999988898, -30.00000000000000000 ) ) ;
#594 = VECTOR ( 'NONE', #504, 1000.000000000000000 ) ;
#595 = ORIENTED_EDGE ( 'NONE', *, *, #145, .T. ) ;
#596 = ORIENTED_EDGE ( 'NONE', *, *, #1285, .T. ) ;
#597 = EDGE_CURVE ( 'NONE', #841, #1196, #1182, .T. ) ;
#598 = CARTESIAN_POINT ( 'NONE',  ( -15.90990257669712449, -4.000000000000000000, -17.95990257669751955 ) ) ;
#599 = CARTESIAN_POINT ( 'NONE',  ( 0.000000000000000000, 0.000000000000000000, -20.45000000000000284 ) ) ;
#600 = APPLICATION_PROTOCOL_DEFINITION ( 'draft international standard', 'automotive_design', 1998, #950 ) ;
#601 = LINE ( 'NONE', #919, #268 ) ;
#602 = ORIENTED_EDGE ( 'NONE', *, *, #1285, .F. ) ;
#603 = CIRCLE ( 'NONE', #23, 2.549999999999996714 ) ;
#604 = ORIENTED_EDGE ( 'NONE', *, *, #322, .F. ) ;
#605 = AXIS2_PLACEMENT_3D ( 'NONE', #453, #465, #1047 ) ;
#606 = DIRECTION ( 'NONE',  ( 0.000000000000000000, 0.000000000000000000, 1.000000000000000000 ) ) ;
#607 = CARTESIAN_POINT ( 'NONE',  ( -34.50000000000000000, -4.000000000000000000, -30.00000000000000000 ) ) ;
#608 =( NAMED_UNIT ( * ) PLANE_ANGLE_UNIT ( ) SI_UNIT ( $, .RADIAN. ) );
#609 = ADVANCED_FACE ( 'NONE', ( #1107 ), #1301, .F. ) ;
#610 = CYLINDRICAL_SURFACE ( 'NONE', #849, 2.049999999999999822 ) ;
#611 = CARTESIAN_POINT ( 'NONE',  ( -34.50000000000000000, -1.309809089167170840E-13, 30.00000000000000000 ) ) ;
#612 = EDGE_LOOP ( 'NONE', ( #955, #1231 ) ) ;
#613 = DIRECTION ( 'NONE',  ( -1.000000000000000000, 0.000000000000000000, -0.000000000000000000 ) ) ;
#614 = PLANE ( 'NONE',  #1110 ) ;
#615 = ADVANCED_FACE ( 'NONE', ( #388, #1294, #511 ), #78, .F. ) ;
#616 = CARTESIAN_POINT ( 'NONE',  ( -34.50000000000011369, 33.00000000000000000, 29.99999999999999289 ) ) ;
#617 = ORIENTED_EDGE ( 'NONE', *, *, #835, .T. ) ;
#618 = AXIS2_PLACEMENT_3D ( 'NONE', #585, #980, #381 ) ;
#619 = CIRCLE ( 'NONE', #422, 2.049999999999999822 ) ;
#620 = DIRECTION ( 'NONE',  ( 0.000000000000000000, 0.000000000000000000, 1.000000000000000000 ) ) ;
#621 = ADVANCED_BREP_SHAPE_REPRESENTATION ( 'Swivel_U_Channel', ( #39, #925 ), #1158 ) ;
#622 = DIRECTION ( 'NONE',  ( -1.000000000000000000, -3.574581708073418934E-15, 0.000000000000000000 ) ) ;
#623 = ADVANCED_FACE ( 'NONE', ( #995, #99, #501 ), #1314, .T. ) ;
#624 = EDGE_LOOP ( 'NONE', ( #1049, #168, #82, #392 ) ) ;
#625 = VECTOR ( 'NONE', #1078, 1000.000000000000000 ) ;
#626 = CARTESIAN_POINT ( 'NONE',  ( 15.90990257669735009, 0.000000000000000000, -17.95990257669729218 ) ) ;
#627 = VECTOR ( 'NONE', #860, 1000.000000000000000 ) ;
#628 = AXIS2_PLACEMENT_3D ( 'NONE', #30, #834, #1050 ) ;
#629 = PRODUCT_DEFINITION_SHAPE ( 'NONE', 'NONE',  #1046 ) ;
#630 = DIRECTION ( 'NONE',  ( -1.000000000000000000, -3.574581708073418934E-15, -0.000000000000000000 ) ) ;
#631 = ORIENTED_EDGE ( 'NONE', *, *, #437, .T. ) ;
#632 = DIRECTION ( 'NONE',  ( -3.574581708073418934E-15, -1.000000000000000000, 0.000000000000000000 ) ) ;
#633 = LINE ( 'NONE', #337, #861 ) ;
#634 = ORIENTED_EDGE ( 'NONE', *, *, #477, .F. ) ;
#635 = CARTESIAN_POINT ( 'NONE',  ( 15.90990257669735009, -4.000000000000000000, -17.95990257669729218 ) ) ;
#636 = ADVANCED_FACE ( 'NONE', ( #1212 ), #1198, .F. ) ;
#637 = FACE_OUTER_BOUND ( 'NONE', #887, .T. ) ;
#638 = DIRECTION ( 'NONE',  ( 0.000000000000000000, 0.000000000000000000, 1.000000000000000000 ) ) ;
#639 = CARTESIAN_POINT ( 'NONE',  ( 27.50000000000001421, 4.336808689942017736E-16, 30.00000000000000000 ) ) ;
#640 = AXIS2_PLACEMENT_3D ( 'NONE', #1100, #1072, #1197 ) ;
#641 = CARTESIAN_POINT ( 'NONE',  ( 34.50000000000011369, 33.00000000000000000, 30.00000000000000000 ) ) ;
#642 = CARTESIAN_POINT ( 'NONE',  ( -15.90990257669746022, 0.000000000000000000, 15.90990257669718311 ) ) ;
#643 = DIRECTION ( 'NONE',  ( 3.574581708073418934E-15, 1.000000000000000000, 2.102695122396128930E-16 ) ) ;
#644 = ORIENTED_EDGE ( 'NONE', *, *, #842, .T. ) ;
#645 = DIRECTION ( 'NONE',  ( 2.721134864277344261E-15, -1.000000000000000000, 0.000000000000000000 ) ) ;
#646 = LINE ( 'NONE', #41, #375 ) ;
#647 = ORIENTED_EDGE ( 'NONE', *, *, #462, .F. ) ;
#648 = DIRECTION ( 'NONE',  ( -1.000000000000000000, -3.574581708073418934E-15, -0.000000000000000000 ) ) ;
#649 = AXIS2_PLACEMENT_3D ( 'NONE', #973, #566, #1164 ) ;
#650 = DIRECTION ( 'NONE',  ( -4.081702296416022308E-15, 1.000000000000000000, 0.000000000000000000 ) ) ;
#651 = ORIENTED_EDGE ( 'NONE', *, *, #1210, .T. ) ;
#652 = LINE ( 'NONE', #253, #451 ) ;
#653 = CARTESIAN_POINT ( 'NONE',  ( -1.571166602479410136E-13, 0.000000000000000000, 24.55000000000000071 ) ) ;
#654 = CIRCLE ( 'NONE', #1080, 2.550000000000000266 ) ;
#655 = CARTESIAN_POINT ( 'NONE',  ( 15.90990257669735009, -4.000000000000000000, -17.95990257669729218 ) ) ;
#656 = CIRCLE ( 'NONE', #916, 2.550000000000000266 ) ;
#657 = EDGE_LOOP ( 'NONE', ( #647, #1111, #1195, #947 ) ) ;
#658 = DIRECTION ( 'NONE',  ( -1.000000000000000000, -0.000000000000000000, -0.000000000000000000 ) ) ;
#659 = EDGE_LOOP ( 'NONE', ( #1306, #343 ) ) ;
#660 = DIRECTION ( 'NONE',  ( 0.000000000000000000, 0.000000000000000000, 1.000000000000000000 ) ) ;
#661 = DIRECTION ( 'NONE',  ( -1.000000000000000000, -3.574581708073418934E-15, 0.000000000000000000 ) ) ;
#662 = CARTESIAN_POINT ( 'NONE',  ( 30.50000000000006750, 18.00000000000023448, 14.99999999999999467 ) ) ;
#663 = VERTEX_POINT ( 'NONE', #1114 ) ;
#664 = DIRECTION ( 'NONE',  ( 0.000000000000000000, -1.000000000000000000, -2.102695122396128930E-16 ) ) ;
#665 = ADVANCED_FACE ( 'NONE', ( #204 ), #614, .F. ) ;
#666 = DIRECTION ( 'NONE',  ( 0.000000000000000000, 0.000000000000000000, 1.000000000000000000 ) ) ;
#667 = AXIS2_PLACEMENT_3D ( 'NONE', #894, #771, #1178 ) ;
#668 = EDGE_CURVE ( 'NONE', #483, #408, #1081, .T. ) ;
#669 = ORIENTED_EDGE ( 'NONE', *, *, #1210, .F. ) ;
#670 = SURFACE_STYLE_USAGE ( .BOTH. , #266 ) ;
#671 = DIRECTION ( 'NONE',  ( 0.000000000000000000, 0.000000000000000000, 1.000000000000000000 ) ) ;
#672 = ORIENTED_EDGE ( 'NONE', *, *, #872, .F. ) ;
#673 = EDGE_CURVE ( 'NONE', #269, #185, #537, .T. ) ;
#674 = CARTESIAN_POINT ( 'NONE',  ( -34.50000000000012079, 33.00000000000000000, -30.00000000000000000 ) ) ;
#675 = CARTESIAN_POINT ( 'NONE',  ( 27.50000000000001421, -4.000000000000000000, 30.00000000000000000 ) ) ;
#676 = DIRECTION ( 'NONE',  ( 0.000000000000000000, 0.000000000000000000, 1.000000000000000000 ) ) ;
#677 = PRESENTATION_STYLE_ASSIGNMENT (( #670 ) ) ;
#678 = AXIS2_PLACEMENT_3D ( 'NONE', #371, #1084, #174 ) ;
#679 = EDGE_CURVE ( 'NONE', #1160, #825, #751, .T. ) ;
#680 = DIRECTION ( 'NONE',  ( 0.000000000000000000, 0.000000000000000000, 1.000000000000000000 ) ) ;
#681 = VECTOR ( 'NONE', #45, 1000.000000000000000 ) ;
#682 = ORIENTED_EDGE ( 'NONE', *, *, #1213, .F. ) ;
#683 = AXIS2_PLACEMENT_3D ( 'NONE', #134, #542, #534 ) ;
#684 = CARTESIAN_POINT ( 'NONE',  ( 15.90990257669723817, -4.000000000000000000, 17.95990257669740231 ) ) ;
#685 = DIRECTION ( 'NONE',  ( 1.000000000000000000, 0.000000000000000000, 0.000000000000000000 ) ) ;
#686 = CARTESIAN_POINT ( 'NONE',  ( -1.568656076541158204E-13, -4.000000000000000000, 20.45000000000000284 ) ) ;
#687 = CARTESIAN_POINT ( 'NONE',  ( 34.50000000000017764, 18.00000000000024869, 14.99999999999999467 ) ) ;
#688 = FACE_OUTER_BOUND ( 'NONE', #657, .T. ) ;
#689 = EDGE_CURVE ( 'NONE', #545, #1014, #217, .T. ) ;
#690 = ORIENTED_EDGE ( 'NONE', *, *, #850, .T. ) ;
#691 = EDGE_LOOP ( 'NONE', ( #426, #430 ) ) ;
#692 = DIRECTION ( 'NONE',  ( -1.000000000000000000, 3.574581708073418934E-15, 0.000000000000000000 ) ) ;
#693 = DIRECTION ( 'NONE',  ( -3.574581708073418934E-15, 1.000000000000000000, 0.000000000000000000 ) ) ;
#694 =( NAMED_UNIT ( * ) SI_UNIT ( $, .STERADIAN. ) SOLID_ANGLE_UNIT ( ) );
#695 = FILL_AREA_STYLE_COLOUR ( '', #468 ) ;
#696 = CARTESIAN_POINT ( 'NONE',  ( -15.90990257669746022, 0.000000000000000000, 17.95990257669718204 ) ) ;
#697 = AXIS2_PLACEMENT_3D ( 'NONE', #1200, #360, #160 ) ;
#698 = ORIENTED_EDGE ( 'NONE', *, *, #1276, .T. ) ;
#699 = ADVANCED_FACE ( 'NONE', ( #355 ), #1159, .T. ) ;
#700 = CARTESIAN_POINT ( 'NONE',  ( 34.50000000000000000, -1.372889942839054918E-13, 0.000000000000000000 ) ) ;
#701 = DIRECTION ( 'NONE',  ( 0.000000000000000000, 1.000000000000000000, 0.000000000000000000 ) ) ;
#702 = LINE ( 'NONE', #192, #1180 ) ;
#703 = ORIENTED_EDGE ( 'NONE', *, *, #668, .F. ) ;
#704 = CIRCLE ( 'NONE', #303, 2.549999999999996714 ) ;
#705 = ORIENTED_EDGE ( 'NONE', *, *, #52, .F. ) ;
#706 = CARTESIAN_POINT ( 'NONE',  ( 34.50000000000017764, 18.00000000000024869, -15.00000000000000000 ) ) ;
#707 = EDGE_CURVE ( 'NONE', #825, #123, #1147, .T. ) ;
#708 = CARTESIAN_POINT ( 'NONE',  ( -1.571166602479410136E-13, -4.000000000000000000, 24.55000000000000071 ) ) ;
#709 = FACE_OUTER_BOUND ( 'NONE', #624, .T. ) ;
#710 = VERTEX_POINT ( 'NONE', #247 ) ;
#711 = ORIENTED_EDGE ( 'NONE', *, *, #794, .F. ) ;
#712 = PLANE ( 'NONE',  #787 ) ;
#713 = EDGE_CURVE ( 'NONE', #469, #545, #1037, .T. ) ;
#714 = ORIENTED_EDGE ( 'NONE', *, *, #713, .T. ) ;
#715 = LINE ( 'NONE', #109, #491 ) ;
#716 = FACE_BOUND ( 'NONE', #766, .T. ) ;
#717 = EDGE_CURVE ( 'NONE', #1128, #409, #1257, .T. ) ;
#718 = CIRCLE ( 'NONE', #779, 2.999999999999999112 ) ;
#719 = ORIENTED_EDGE ( 'NONE', *, *, #802, .T. ) ;
#720 = CIRCLE ( 'NONE', #697, 6.999999999999999112 ) ;
#721 = EDGE_CURVE ( 'NONE', #239, #261, #652, .T. ) ;
#722 = DIRECTION ( 'NONE',  ( 0.000000000000000000, 0.000000000000000000, 1.000000000000000000 ) ) ;
#723 = ORIENTED_EDGE ( 'NONE', *, *, #1230, .T. ) ;
#724 = CARTESIAN_POINT ( 'NONE',  ( -27.50000000000001421, 4.336808689942017736E-16, 30.00000000000000000 ) ) ;
#725 = FACE_OUTER_BOUND ( 'NONE', #1202, .T. ) ;
#726 = ORIENTED_EDGE ( 'NONE', *, *, #721, .F. ) ;
#727 = AXIS2_PLACEMENT_3D ( 'NONE', #85, #1000, #471 ) ;
#728 = DIRECTION ( 'NONE',  ( -0.000000000000000000, 1.000000000000000000, -0.000000000000000000 ) ) ;
#729 = AXIS2_PLACEMENT_3D ( 'NONE', #1056, #937, #149 ) ;
#730 = DIRECTION ( 'NONE',  ( -1.000000000000000000, -3.574581708073418934E-15, -0.000000000000000000 ) ) ;
#731 = ORIENTED_EDGE ( 'NONE', *, *, #673, .F. ) ;
#732 = ADVANCED_FACE ( 'NONE', ( #940 ), #558, .F. ) ;
#733 = LINE ( 'NONE', #325, #84 ) ;
#734 = ORIENTED_EDGE ( 'NONE', *, *, #353, .F. ) ;
#735 = PLANE ( 'NONE',  #843 ) ;
#736 = CIRCLE ( 'NONE', #778, 2.049999999999999822 ) ;
#737 = EDGE_CURVE ( 'NONE', #871, #395, #1193, .T. ) ;
#738 = DIRECTION ( 'NONE',  ( -4.081702296416015997E-15, 1.000000000000000000, 0.000000000000000000 ) ) ;
#739 = CARTESIAN_POINT ( 'NONE',  ( 0.000000000000000000, -4.000000000000000000, -22.50000000000000355 ) ) ;
#740 = DIRECTION ( 'NONE',  ( 0.000000000000000000, 0.000000000000000000, -1.000000000000000000 ) ) ;
#741 = VERTEX_POINT ( 'NONE', #233 ) ;
#742 = AXIS2_PLACEMENT_3D ( 'NONE', #1134, #1155, #560 ) ;
#743 = DIRECTION ( 'NONE',  ( -1.000000000000000000, -3.574581708073418934E-15, -0.000000000000000000 ) ) ;
#744 = ORIENTED_EDGE ( 'NONE', *, *, #853, .T. ) ;
#745 = FACE_OUTER_BOUND ( 'NONE', #1179, .T. ) ;
#746 = ORIENTED_EDGE ( 'NONE', *, *, #205, .T. ) ;
#747 = EDGE_CURVE ( 'NONE', #2, #1196, #1141, .T. ) ;
#748 = FACE_OUTER_BOUND ( 'NONE', #1242, .T. ) ;
#749 = CARTESIAN_POINT ( 'NONE',  ( -34.50000000000007105, 20.55000000000000071, -15.00000000000000000 ) ) ;
#750 = ADVANCED_FACE ( 'NONE', ( #745 ), #1065, .F. ) ;
#751 = LINE ( 'NONE', #546, #627 ) ;
#752 = VERTEX_POINT ( 'NONE', #1254 ) ;
#753 = CARTESIAN_POINT ( 'NONE',  ( 34.50000000000017764, 18.00000000000024869, -15.00000000000000000 ) ) ;
#754 = CIRCLE ( 'NONE', #188, 2.049999999999999822 ) ;
#755 = DIRECTION ( 'NONE',  ( 0.000000000000000000, 0.000000000000000000, 1.000000000000000000 ) ) ;
#756 = ORIENTED_EDGE ( 'NONE', *, *, #1220, .T. ) ;
#757 = DIRECTION ( 'NONE',  ( 0.000000000000000000, -1.000000000000000000, 0.000000000000000000 ) ) ;
#758 = ADVANCED_FACE ( 'NONE', ( #341 ), #931, .F. ) ;
#759 = ORIENTED_EDGE ( 'NONE', *, *, #324, .F. ) ;
#760 = AXIS2_PLACEMENT_3D ( 'NONE', #271, #606, #280 ) ;
#761 = DIRECTION ( 'NONE',  ( 3.574581708073418934E-15, -1.000000000000000000, 0.000000000000000000 ) ) ;
#762 = AXIS2_PLACEMENT_3D ( 'NONE', #1259, #852, #664 ) ;
#763 = DIRECTION ( 'NONE',  ( 0.000000000000000000, 1.000000000000000000, 0.000000000000000000 ) ) ;
#764 = FACE_OUTER_BOUND ( 'NONE', #443, .T. ) ;
#765 = VERTEX_POINT ( 'NONE', #1243 ) ;
#766 = EDGE_LOOP ( 'NONE', ( #458, #224 ) ) ;
#767 = ADVANCED_FACE ( 'NONE', ( #840 ), #735, .F. ) ;
#768 = CARTESIAN_POINT ( 'NONE',  ( 27.50000000000001421, 4.336808689942017736E-16, 30.00000000000000000 ) ) ;
#769 = CARTESIAN_POINT ( 'NONE',  ( -30.50000000000012079, 33.00000000000001421, -30.00000000000000000 ) ) ;
#770 = SURFACE_STYLE_FILL_AREA ( #1296 ) ;
#771 = DIRECTION ( 'NONE',  ( 0.000000000000000000, 1.000000000000000000, 0.000000000000000000 ) ) ;
#772 = ORIENTED_EDGE ( 'NONE', *, *, #673, .T. ) ;
#773 = ORIENTED_EDGE ( 'NONE', *, *, #850, .F. ) ;
#774 = DIRECTION ( 'NONE',  ( 0.000000000000000000, 0.000000000000000000, 1.000000000000000000 ) ) ;
#775 = CARTESIAN_POINT ( 'NONE',  ( 34.50000000000018474, 15.45000000000025153, 14.99999999999999467 ) ) ;
#776 = EDGE_CURVE ( 'NONE', #1222, #1160, #333, .T. ) ;
#777 = DIRECTION ( 'NONE',  ( 1.000000000000000000, 0.000000000000000000, -0.000000000000000000 ) ) ;
#778 = AXIS2_PLACEMENT_3D ( 'NONE', #415, #102, #1319 ) ;
#779 = AXIS2_PLACEMENT_3D ( 'NONE', #544, #1135, #147 ) ;
#780 = CYLINDRICAL_SURFACE ( 'NONE', #484, 2.049999999999999822 ) ;
#781 = EDGE_LOOP ( 'NONE', ( #367, #998, #1199, #1088 ) ) ;
#782 = FACE_BOUND ( 'NONE', #405, .T. ) ;
#783 = CARTESIAN_POINT ( 'NONE',  ( -34.50000000000000000, -1.372889942839054918E-13, 0.000000000000000000 ) ) ;
#784 = DIRECTION ( 'NONE',  ( -1.000000000000000000, -3.574581708073418934E-15, -0.000000000000000000 ) ) ;
#785 =( NAMED_UNIT ( * ) PLANE_ANGLE_UNIT ( ) SI_UNIT ( $, .RADIAN. ) );
#786 = DIRECTION ( 'NONE',  ( 0.000000000000000000, 0.000000000000000000, 1.000000000000000000 ) ) ;
#787 = AXIS2_PLACEMENT_3D ( 'NONE', #1127, #812, #613 ) ;
#788 = ORIENTED_EDGE ( 'NONE', *, *, #125, .F. ) ;
#789 = AXIS2_PLACEMENT_3D ( 'NONE', #956, #51, #847 ) ;
#790 = DIRECTION ( 'NONE',  ( 1.000000000000000000, 0.000000000000000000, 0.000000000000000000 ) ) ;
#791 = DIRECTION ( 'NONE',  ( 1.000000000000000000, 3.574581708073418934E-15, -0.000000000000000000 ) ) ;
#792 = CARTESIAN_POINT ( 'NONE',  ( 34.50000000000017764, 18.00000000000024869, 14.99999999999999467 ) ) ;
#793 = ORIENTED_EDGE ( 'NONE', *, *, #986, .F. ) ;
#794 = EDGE_CURVE ( 'NONE', #741, #1020, #137, .T. ) ;
#795 = ORIENTED_EDGE ( 'NONE', *, *, #1244, .T. ) ;
#796 = PLANE ( 'NONE',  #150 ) ;
#797 = DIRECTION ( 'NONE',  ( 0.000000000000000000, 1.000000000000000000, 0.000000000000000000 ) ) ;
#798 = VERTEX_POINT ( 'NONE', #552 ) ;
#799 = CYLINDRICAL_SURFACE ( 'NONE', #210, 2.549999999999996714 ) ;
#800 = VECTOR ( 'NONE', #992, 1000.000000000000000 ) ;
#801 = ORIENTED_EDGE ( 'NONE', *, *, #68, .T. ) ;
#802 = EDGE_CURVE ( 'NONE', #752, #963, #948, .T. ) ;
#803 = ORIENTED_EDGE ( 'NONE', *, *, #531, .T. ) ;
#804 = FACE_BOUND ( 'NONE', #659, .T. ) ;
#805 = DIRECTION ( 'NONE',  ( -3.574581708073418934E-15, 1.000000000000000000, 0.000000000000000000 ) ) ;
#806 = FACE_OUTER_BOUND ( 'NONE', #864, .T. ) ;
#807 = CARTESIAN_POINT ( 'NONE',  ( 0.000000000000000000, -4.000000000000000000, -22.50000000000000355 ) ) ;
#808 = ORIENTED_EDGE ( 'NONE', *, *, #579, .F. ) ;
#809 = VECTOR ( 'NONE', #512, 1000.000000000000000 ) ;
#810 = AXIS2_PLACEMENT_3D ( 'NONE', #830, #129, #917 ) ;
#811 = EDGE_CURVE ( 'NONE', #187, #551, #882, .T. ) ;
#812 = DIRECTION ( 'NONE',  ( 0.000000000000000000, 0.000000000000000000, -1.000000000000000000 ) ) ;
#813 = ADVANCED_FACE ( 'NONE', ( #688 ), #869, .F. ) ;
#814 = DIRECTION ( 'NONE',  ( -0.000000000000000000, -0.000000000000000000, -1.000000000000000000 ) ) ;
#815 = DIRECTION ( 'NONE',  ( -3.574581708073418934E-15, -1.000000000000000000, -0.000000000000000000 ) ) ;
#816 = ORIENTED_EDGE ( 'NONE', *, *, #1105, .T. ) ;
#817 = DIRECTION ( 'NONE',  ( 0.000000000000000000, -1.000000000000000000, 0.000000000000000000 ) ) ;
#818 = DIRECTION ( 'NONE',  ( 7.341520781122562581E-31, -2.102695122396128930E-16, -1.000000000000000000 ) ) ;
#819 = VECTOR ( 'NONE', #755, 1000.000000000000000 ) ;
#820 = ORIENTED_EDGE ( 'NONE', *, *, #1029, .F. ) ;
#821 = AXIS2_PLACEMENT_3D ( 'NONE', #331, #28, #434 ) ;
#822 = ORIENTED_EDGE ( 'NONE', *, *, #952, .F. ) ;
#823 = AXIS2_PLACEMENT_3D ( 'NONE', #33, #440, #238 ) ;
#824 = CARTESIAN_POINT ( 'NONE',  ( 34.50000000000012079, 33.00000000000000000, 30.00000000000000000 ) ) ;
#825 = VERTEX_POINT ( 'NONE', #260 ) ;
#826 = EDGE_CURVE ( 'NONE', #921, #1020, #421, .T. ) ;
#827 = FACE_BOUND ( 'NONE', #691, .T. ) ;
#828 = ORIENTED_EDGE ( 'NONE', *, *, #941, .T. ) ;
#829 = CIRCLE ( 'NONE', #254, 2.549999999999996714 ) ;
#830 = CARTESIAN_POINT ( 'NONE',  ( -15.90990257669712449, -4.000000000000000000, -15.90990257669751884 ) ) ;
#831 = AXIS2_PLACEMENT_3D ( 'NONE', #164, #27, #1224 ) ;
#832 = DIRECTION ( 'NONE',  ( 1.000000000000000000, 0.000000000000000000, 0.000000000000000000 ) ) ;
#833 = ORIENTED_EDGE ( 'NONE', *, *, #111, .T. ) ;
#834 = DIRECTION ( 'NONE',  ( -0.000000000000000000, -0.000000000000000000, 1.000000000000000000 ) ) ;
#835 = EDGE_CURVE ( 'NONE', #1196, #416, #720, .T. ) ;
#836 = DIRECTION ( 'NONE',  ( -0.000000000000000000, 1.000000000000000000, -0.000000000000000000 ) ) ;
#837 = ADVANCED_FACE ( 'NONE', ( #292 ), #1070, .F. ) ;
#838 = PLANE ( 'NONE',  #821 ) ;
#839 = ORIENTED_EDGE ( 'NONE', *, *, #1267, .F. ) ;
#840 = FACE_OUTER_BOUND ( 'NONE', #184, .T. ) ;
#841 = VERTEX_POINT ( 'NONE', #1290 ) ;
#842 = EDGE_CURVE ( 'NONE', #1131, #568, #884, .T. ) ;
#843 = AXIS2_PLACEMENT_3D ( 'NONE', #229, #1153, #143 ) ;
#844 = CIRCLE ( 'NONE', #108, 2.049999999999999822 ) ;
#845 = FACE_BOUND ( 'NONE', #157, .T. ) ;
#846 = VERTEX_POINT ( 'NONE', #696 ) ;
#847 = DIRECTION ( 'NONE',  ( 0.000000000000000000, 0.000000000000000000, 1.000000000000000000 ) ) ;
#848 = ORIENTED_EDGE ( 'NONE', *, *, #597, .T. ) ;
#849 = AXIS2_PLACEMENT_3D ( 'NONE', #296, #101, #10 ) ;
#850 = EDGE_CURVE ( 'NONE', #975, #1064, #570, .T. ) ;
#851 = VECTOR ( 'NONE', #272, 1000.000000000000000 ) ;
#852 = DIRECTION ( 'NONE',  ( -7.341520781122562581E-31, -2.102695122396128930E-16, 1.000000000000000000 ) ) ;
#853 = EDGE_CURVE ( 'NONE', #896, #352, #564, .T. ) ;
#854 = FACE_BOUND ( 'NONE', #1232, .T. ) ;
#855 = ORIENTED_EDGE ( 'NONE', *, *, #68, .F. ) ;
#856 = CARTESIAN_POINT ( 'NONE',  ( -27.50000000000001421, -4.000000000000000000, 30.00000000000000000 ) ) ;
#857 = DIRECTION ( 'NONE',  ( 1.000000000000000000, 3.491481338843133355E-15, 0.000000000000000000 ) ) ;
#858 = DIRECTION ( 'NONE',  ( 2.721134864277344261E-15, -1.000000000000000000, 0.000000000000000000 ) ) ;
#859 = VERTEX_POINT ( 'NONE', #593 ) ;
#860 = DIRECTION ( 'NONE',  ( 1.000000000000000000, -3.574581708073418934E-15, -1.747347410498382386E-32 ) ) ;
#861 = VECTOR ( 'NONE', #550, 1000.000000000000000 ) ;
#862 = EDGE_LOOP ( 'NONE', ( #703, #759 ) ) ;
#863 = DIRECTION ( 'NONE',  ( 0.000000000000000000, 1.000000000000000000, 0.000000000000000000 ) ) ;
#864 = EDGE_LOOP ( 'NONE', ( #1282, #438, #287, #178 ) ) ;
#865 = EDGE_CURVE ( 'NONE', #528, #663, #1281, .T. ) ;
#866 = CYLINDRICAL_SURFACE ( 'NONE', #1032, 2.049999999999999822 ) ;
#867 = CYLINDRICAL_SURFACE ( 'NONE', #413, 2.550000000000000266 ) ;
#868 = CIRCLE ( 'NONE', #640, 2.049999999999999822 ) ;
#869 = CYLINDRICAL_SURFACE ( 'NONE', #330, 2.549999999999996714 ) ;
#870 = ORIENTED_EDGE ( 'NONE', *, *, #444, .F. ) ;
#871 = VERTEX_POINT ( 'NONE', #974 ) ;
#872 = EDGE_CURVE ( 'NONE', #551, #846, #1173, .T. ) ;
#873 = FACE_OUTER_BOUND ( 'NONE', #1209, .T. ) ;
#874 = LINE ( 'NONE', #70, #256 ) ;
#875 = DIRECTION ( 'NONE',  ( -0.000000000000000000, 1.000000000000000000, -0.000000000000000000 ) ) ;
#876 = ORIENTED_EDGE ( 'NONE', *, *, #717, .F. ) ;
#877 = CARTESIAN_POINT ( 'NONE',  ( 15.90990257669735009, -4.000000000000000000, -15.90990257669729502 ) ) ;
#878 = ORIENTED_EDGE ( 'NONE', *, *, #575, .T. ) ;
#879 = CARTESIAN_POINT ( 'NONE',  ( -15.90990257669746022, -4.000000000000000000, 13.85990257669718417 ) ) ;
#880 = DIRECTION ( 'NONE',  ( -0.000000000000000000, 1.000000000000000000, -0.000000000000000000 ) ) ;
#881 = LINE ( 'NONE', #71, #270 ) ;
#882 = CIRCLE ( 'NONE', #1074, 2.049999999999999822 ) ;
#883 = CARTESIAN_POINT ( 'NONE',  ( 34.50000000000011369, 33.00000000000000000, -29.99999999999999289 ) ) ;
#884 = LINE ( 'NONE', #372, #908 ) ;
#885 = ORIENTED_EDGE ( 'NONE', *, *, #264, .F. ) ;
#886 = ORIENTED_EDGE ( 'NONE', *, *, #525, .T. ) ;
#887 = EDGE_LOOP ( 'NONE', ( #901, #885, #385, #128 ) ) ;
#888 = LINE ( 'NONE', #987, #1169 ) ;
#889 = DIRECTION ( 'NONE',  ( -0.000000000000000000, 1.000000000000000000, -0.000000000000000000 ) ) ;
#890 = CARTESIAN_POINT ( 'NONE',  ( -34.50000000000000000, -1.372889942839054918E-13, -30.00000000000000000 ) ) ;
#891 = ADVANCED_FACE ( 'NONE', ( #475 ), #866, .F. ) ;
#892 = CARTESIAN_POINT ( 'NONE',  ( -15.90990257669712449, 0.000000000000000000, -15.90990257669751884 ) ) ;
#893 = CIRCLE ( 'NONE', #972, 2.049999999999999822 ) ;
#894 = CARTESIAN_POINT ( 'NONE',  ( -15.90990257669746022, -4.000000000000000000, 15.90990257669718311 ) ) ;
#895 = VECTOR ( 'NONE', #643, 1000.000000000000000 ) ;
#896 = VERTEX_POINT ( 'NONE', #1086 ) ;
#897 = CARTESIAN_POINT ( 'NONE',  ( -34.50000000000001421, 2.999999999999974687, -30.00000000000000000 ) ) ;
#898 = CARTESIAN_POINT ( 'NONE',  ( -1.571166602479410136E-13, 0.000000000000000000, 22.50000000000000355 ) ) ;
#899 = ADVANCED_FACE ( 'NONE', ( #764 ), #88, .F. ) ;
#900 = FACE_BOUND ( 'NONE', #252, .T. ) ;
#901 = ORIENTED_EDGE ( 'NONE', *, *, #1226, .T. ) ;
#902 = CARTESIAN_POINT ( 'NONE',  ( 15.90990257669723817, -4.000000000000000000, 13.85990257669740267 ) ) ;
#903 = CARTESIAN_POINT ( 'NONE',  ( 15.90990257669735009, -4.000000000000000000, -13.85990257669729431 ) ) ;
#904 = PRODUCT_CONTEXT ( 'NONE', #950, 'mechanical' ) ;
#905 = CARTESIAN_POINT ( 'NONE',  ( 34.50000000000012079, 33.00000000000000000, -29.99999999999999289 ) ) ;
#906 = DIRECTION ( 'NONE',  ( 2.721134864277347811E-15, -1.000000000000000000, 0.000000000000000000 ) ) ;
#907 = EDGE_CURVE ( 'NONE', #551, #187, #507, .T. ) ;
#908 = VECTOR ( 'NONE', #576, 1000.000000000000000 ) ;
#909 = ORIENTED_EDGE ( 'NONE', *, *, #737, .T. ) ;
#910 = ADVANCED_FACE ( 'NONE', ( #1297 ), #780, .F. ) ;
#911 = DIRECTION ( 'NONE',  ( -4.081702296416015997E-15, 1.000000000000000000, 0.000000000000000000 ) ) ;
#912 = CARTESIAN_POINT ( 'NONE',  ( -1.568656076541158204E-13, -4.000000000000000000, 20.45000000000000284 ) ) ;
#913 = VECTOR ( 'NONE', #283, 1000.000000000000000 ) ;
#914 = ORIENTED_EDGE ( 'NONE', *, *, #75, .F. ) ;
#915 = AXIS2_PLACEMENT_3D ( 'NONE', #739, #1146, #232 ) ;
#916 = AXIS2_PLACEMENT_3D ( 'NONE', #377, #403, #911 ) ;
#917 = DIRECTION ( 'NONE',  ( 0.000000000000000000, 0.000000000000000000, 1.000000000000000000 ) ) ;
#918 = DIRECTION ( 'NONE',  ( 0.000000000000000000, 1.000000000000000000, 0.000000000000000000 ) ) ;
#919 = CARTESIAN_POINT ( 'NONE',  ( 15.90990257669723817, -4.000000000000000000, 17.95990257669740231 ) ) ;
#920 = ORIENTED_EDGE ( 'NONE', *, *, #335, .F. ) ;
#921 = VERTEX_POINT ( 'NONE', #267 ) ;
#922 = FACE_OUTER_BOUND ( 'NONE', #1203, .T. ) ;
#923 = EDGE_CURVE ( 'NONE', #1064, #435, #1316, .T. ) ;
#924 = CARTESIAN_POINT ( 'NONE',  ( 30.50000000000005684, 15.45000000000023732, 14.99999999999999467 ) ) ;
#925 = AXIS2_PLACEMENT_3D ( 'NONE', #519, #502, #100 ) ;
#926 = ORIENTED_EDGE ( 'NONE', *, *, #668, .T. ) ;
#927 = CIRCLE ( 'NONE', #354, 2.550000000000000266 ) ;
#928 = DIRECTION ( 'NONE',  ( 3.491481338843133355E-15, -1.000000000000000000, 0.000000000000000000 ) ) ;
#929 = EDGE_CURVE ( 'NONE', #20, #485, #313, .T. ) ;
#930 = ORIENTED_EDGE ( 'NONE', *, *, #689, .F. ) ;
#931 = CYLINDRICAL_SURFACE ( 'NONE', #461, 2.550000000000000266 ) ;
#932 = PRODUCT_RELATED_PRODUCT_CATEGORY ( 'part', '', ( #117 ) ) ;
#933 = ORIENTED_EDGE ( 'NONE', *, *, #1185, .F. ) ;
#934 = CARTESIAN_POINT ( 'NONE',  ( -34.50000000000001421, 2.999999999999974687, -30.00000000000000000 ) ) ;
#935 = PLANE ( 'NONE',  #481 ) ;
#936 = ORIENTED_EDGE ( 'NONE', *, *, #531, .F. ) ;
#937 = DIRECTION ( 'NONE',  ( 0.000000000000000000, 0.000000000000000000, -1.000000000000000000 ) ) ;
#938 = CYLINDRICAL_SURFACE ( 'NONE', #823, 7.000000000000002665 ) ;
#939 = ORIENTED_EDGE ( 'NONE', *, *, #872, .T. ) ;
#940 = FACE_OUTER_BOUND ( 'NONE', #277, .T. ) ;
#941 = EDGE_CURVE ( 'NONE', #262, #269, #601, .T. ) ;
#942 = ORIENTED_EDGE ( 'NONE', *, *, #31, .T. ) ;
#943 = CIRCLE ( 'NONE', #1125, 2.549999999999996714 ) ;
#944 = CIRCLE ( 'NONE', #15, 2.049999999999999822 ) ;
#945 = DIRECTION ( 'NONE',  ( 0.000000000000000000, 1.000000000000000000, 0.000000000000000000 ) ) ;
#946 = DIRECTION ( 'NONE',  ( 0.000000000000000000, 1.000000000000000000, 0.000000000000000000 ) ) ;
#947 = ORIENTED_EDGE ( 'NONE', *, *, #21, .T. ) ;
#948 = LINE ( 'NONE', #43, #990 ) ;
#949 = VERTEX_POINT ( 'NONE', #1129 ) ;
#950 = APPLICATION_CONTEXT ( 'automotive_design' ) ;
#951 = CLOSED_SHELL ( 'NONE', ( #758, #1002, #1123, #1040, #226, #732, #561, #431, #837, #891, #958, #1068, #699, #257, #364, #665, #1304, #410, #967, #1312, #615, #623, #1090, #66, #750, #1183, #1013, #478, #767, #237, #1258, #1133, #144, #899, #220, #910, #425, #609, #813, #636, #380, #496 ) ) ;
#952 = EDGE_CURVE ( 'NONE', #314, #528, #206, .T. ) ;
#953 = CIRCLE ( 'NONE', #386, 2.999999999999999112 ) ;
#954 = FACE_BOUND ( 'NONE', #586, .T. ) ;
#955 = ORIENTED_EDGE ( 'NONE', *, *, #300, .F. ) ;
#956 = CARTESIAN_POINT ( 'NONE',  ( -15.90990257669712449, -4.000000000000000000, -15.90990257669751884 ) ) ;
#957 = FACE_OUTER_BOUND ( 'NONE', #1234, .T. ) ;
#958 = ADVANCED_FACE ( 'NONE', ( #407, #498, #716, #96, #827, #900, #709 ), #11, .F. ) ;
#959 = ORIENTED_EDGE ( 'NONE', *, *, #205, .F. ) ;
#960 = LINE ( 'NONE', #655, #509 ) ;
#961 = ORIENTED_EDGE ( 'NONE', *, *, #75, .T. ) ;
#962 = CARTESIAN_POINT ( 'NONE',  ( -34.50000000000012079, 33.00000000000000000, 0.000000000000000000 ) ) ;
#963 = VERTEX_POINT ( 'NONE', #521 ) ;
#964 = VECTOR ( 'NONE', #815, 1000.000000000000000 ) ;
#965 = DIRECTION ( 'NONE',  ( 0.000000000000000000, 0.000000000000000000, 1.000000000000000000 ) ) ;
#966 =( LENGTH_UNIT ( ) NAMED_UNIT ( * ) SI_UNIT ( .MILLI., .METRE. ) );
#967 = ADVANCED_FACE ( 'NONE', ( #418 ), #1221, .F. ) ;
#968 = DIRECTION ( 'NONE',  ( -0.000000000000000000, 1.000000000000000000, -0.000000000000000000 ) ) ;
#969 = ORIENTED_EDGE ( 'NONE', *, *, #506, .F. ) ;
#970 = ORIENTED_EDGE ( 'NONE', *, *, #63, .T. ) ;
#971 = DIRECTION ( 'NONE',  ( -0.000000000000000000, -0.000000000000000000, -1.000000000000000000 ) ) ;
#972 = AXIS2_PLACEMENT_3D ( 'NONE', #642, #763, #638 ) ;
#973 = CARTESIAN_POINT ( 'NONE',  ( 30.50000000000000355, -1.233230689285329584E-13, 0.000000000000000000 ) ) ;
#974 = CARTESIAN_POINT ( 'NONE',  ( -30.50000000000001421, 2.999999999999988898, 30.00000000000000000 ) ) ;
#975 = VERTEX_POINT ( 'NONE', #1009 ) ;
#976 = DIRECTION ( 'NONE',  ( -1.000000000000000000, -3.574581708073418934E-15, 0.000000000000000000 ) ) ;
#977 = CARTESIAN_POINT ( 'NONE',  ( -27.50000000000001421, 2.999999999999999556, -30.00000000000000000 ) ) ;
#978 = LINE ( 'NONE', #890, #991 ) ;
#979 = DIRECTION ( 'NONE',  ( 0.000000000000000000, 0.000000000000000000, 1.000000000000000000 ) ) ;
#980 = DIRECTION ( 'NONE',  ( -1.000000000000000000, -3.574581708073418934E-15, 0.000000000000000000 ) ) ;
#981 = EDGE_LOOP ( 'NONE', ( #914, #209, #321, #711 ) ) ;
#982 = VERTEX_POINT ( 'NONE', #1235 ) ;
#983 = EDGE_CURVE ( 'NONE', #6, #1131, #1229, .T. ) ;
#984 = ORIENTED_EDGE ( 'NONE', *, *, #1238, .F. ) ;
#985 = UNCERTAINTY_MEASURE_WITH_UNIT (LENGTH_MEASURE( 1.000000000000000082E-05 ), #966, 'distance_accuracy_value', 'NONE');
#986 = EDGE_CURVE ( 'NONE', #963, #1222, #1018, .T. ) ;
#987 = CARTESIAN_POINT ( 'NONE',  ( 34.50000000000001421, 2.999999999999974687, 30.00000000000000000 ) ) ;
#988 = LINE ( 'NONE', #1092, #1191 ) ;
#989 = LINE ( 'NONE', #251, #248 ) ;
#990 = VECTOR ( 'NONE', #1262, 1000.000000000000000 ) ;
#991 = VECTOR ( 'NONE', #761, 1000.000000000000000 ) ;
#992 = DIRECTION ( 'NONE',  ( 0.000000000000000000, 0.000000000000000000, -1.000000000000000000 ) ) ;
#993 = ORIENTED_EDGE ( 'NONE', *, *, #284, .T. ) ;
#994 = DIRECTION ( 'NONE',  ( 1.000000000000000000, 3.491481338843133355E-15, -0.000000000000000000 ) ) ;
#995 = FACE_BOUND ( 'NONE', #999, .T. ) ;
#996 = VECTOR ( 'NONE', #817, 1000.000000000000000 ) ;
#997 = DIRECTION ( 'NONE',  ( -0.000000000000000000, 1.000000000000000000, -0.000000000000000000 ) ) ;
#998 = ORIENTED_EDGE ( 'NONE', *, *, #1230, .F. ) ;
#999 = EDGE_LOOP ( 'NONE', ( #808, #12 ) ) ;
#1000 = DIRECTION ( 'NONE',  ( -0.000000000000000000, 1.000000000000000000, -0.000000000000000000 ) ) ;
#1001 = DIRECTION ( 'NONE',  ( 0.000000000000000000, 0.000000000000000000, 1.000000000000000000 ) ) ;
#1002 = ADVANCED_FACE ( 'NONE', ( #725 ), #116, .F. ) ;
#1003 = DIRECTION ( 'NONE',  ( -1.000000000000000000, -3.574581708073418934E-15, 0.000000000000000000 ) ) ;
#1004 = DIRECTION ( 'NONE',  ( 0.000000000000000000, -0.000000000000000000, 1.000000000000000000 ) ) ;
#1005 = ORIENTED_EDGE ( 'NONE', *, *, #189, .F. ) ;
#1006 = ORIENTED_EDGE ( 'NONE', *, *, #56, .T. ) ;
#1007 = CYLINDRICAL_SURFACE ( 'NONE', #493, 2.549999999999996714 ) ;
#1008 = LINE ( 'NONE', #775, #115 ) ;
#1009 = CARTESIAN_POINT ( 'NONE',  ( -15.90990257669712449, -4.000000000000000000, -13.85990257669751990 ) ) ;
#1010 = VECTOR ( 'NONE', #513, 1000.000000000000000 ) ;
#1011 = VECTOR ( 'NONE', #583, 1000.000000000000000 ) ;
#1012 = ORIENTED_EDGE ( 'NONE', *, *, #454, .F. ) ;
#1013 = ADVANCED_FACE ( 'NONE', ( #1026 ), #1124, .F. ) ;
#1014 = VERTEX_POINT ( 'NONE', #526 ) ;
#1015 = DIRECTION ( 'NONE',  ( -1.000000000000000000, -3.574581708073418934E-15, -0.000000000000000000 ) ) ;
#1016 = ORIENTED_EDGE ( 'NONE', *, *, #826, .F. ) ;
#1017 = CARTESIAN_POINT ( 'NONE',  ( 27.50000000000001421, 4.336808689942017736E-16, -30.00000000000000000 ) ) ;
#1018 = LINE ( 'NONE', #424, #964 ) ;
#1019 = CIRCLE ( 'NONE', #446, 2.049999999999999822 ) ;
#1020 = VERTEX_POINT ( 'NONE', #924 ) ;
#1021 = CIRCLE ( 'NONE', #831, 2.049999999999999822 ) ;
#1022 = ORIENTED_EDGE ( 'NONE', *, *, #1043, .F. ) ;
#1023 = AXIS2_PLACEMENT_3D ( 'NONE', #450, #1166, #36 ) ;
#1024 = CYLINDRICAL_SURFACE ( 'NONE', #304, 2.999999999999999112 ) ;
#1025 = DIRECTION ( 'NONE',  ( 0.000000000000000000, 0.000000000000000000, 1.000000000000000000 ) ) ;
#1026 = FACE_OUTER_BOUND ( 'NONE', #499, .T. ) ;
#1027 = EDGE_LOOP ( 'NONE', ( #1057, #604, #746, #1062 ) ) ;
#1028 = CARTESIAN_POINT ( 'NONE',  ( -27.50000000000001421, 2.999999999999999556, 30.00000000000000000 ) ) ;
#1029 = EDGE_CURVE ( 'NONE', #859, #416, #4, .T. ) ;
#1030 = FACE_OUTER_BOUND ( 'NONE', #781, .T. ) ;
#1031 = VERTEX_POINT ( 'NONE', #912 ) ;
#1032 = AXIS2_PLACEMENT_3D ( 'NONE', #877, #366, #1275 ) ;
#1033 = DIRECTION ( 'NONE',  ( 1.000000000000000000, 3.574581708073418934E-15, -0.000000000000000000 ) ) ;
#1034 = EDGE_CURVE ( 'NONE', #871, #314, #702, .T. ) ;
#1035 = CARTESIAN_POINT ( 'NONE',  ( 34.50000000000018474, 15.45000000000024798, -15.00000000000000000 ) ) ;
#1036 = DIRECTION ( 'NONE',  ( 0.000000000000000000, 0.000000000000000000, 1.000000000000000000 ) ) ;
#1037 = LINE ( 'NONE', #639, #279 ) ;
#1038 = AXIS2_PLACEMENT_3D ( 'NONE', #541, #456, #332 ) ;
#1039 = AXIS2_PLACEMENT_3D ( 'NONE', #472, #945, #243 ) ;
#1040 = ADVANCED_FACE ( 'NONE', ( #397 ), #799, .F. ) ;
#1041 = DIRECTION ( 'NONE',  ( -1.000000000000000000, -3.574581708073418934E-15, 0.000000000000000000 ) ) ;
#1042 = ORIENTED_EDGE ( 'NONE', *, *, #547, .F. ) ;
#1043 = EDGE_CURVE ( 'NONE', #568, #1136, #736, .T. ) ;
#1044 = CARTESIAN_POINT ( 'NONE',  ( 34.50000000000017764, 18.00000000000024869, -15.00000000000000000 ) ) ;
#1045 = EDGE_LOOP ( 'NONE', ( #490, #1016 ) ) ;
#1046 = PRODUCT_DEFINITION ( 'UNKNOWN', '', #530, #195 ) ;
#1047 = DIRECTION ( 'NONE',  ( 0.000000000000000000, 0.000000000000000000, 1.000000000000000000 ) ) ;
#1048 = DIRECTION ( 'NONE',  ( 1.000000000000000000, 3.491481338843133355E-15, 0.000000000000000000 ) ) ;
#1049 = ORIENTED_EDGE ( 'NONE', *, *, #1185, .T. ) ;
#1050 = DIRECTION ( 'NONE',  ( 1.000000000000000000, 0.000000000000000000, 0.000000000000000000 ) ) ;
#1051 = EDGE_CURVE ( 'NONE', #741, #565, #943, .T. ) ;
#1052 = ORIENTED_EDGE ( 'NONE', *, *, #802, .F. ) ;
#1053 = AXIS2_PLACEMENT_3D ( 'NONE', #1228, #297, #1004 ) ;
#1054 = DIRECTION ( 'NONE',  ( -3.491481338843133355E-15, -1.000000000000000000, 0.000000000000000000 ) ) ;
#1055 = CARTESIAN_POINT ( 'NONE',  ( 30.50000000000006750, 18.00000000000023448, 14.99999999999999467 ) ) ;
#1056 = CARTESIAN_POINT ( 'NONE',  ( -34.50000000000000000, -4.000000000000000000, -30.00000000000000000 ) ) ;
#1057 = ORIENTED_EDGE ( 'NONE', *, *, #747, .F. ) ;
#1058 = EDGE_CURVE ( 'NONE', #1066, #982, #549, .T. ) ;
#1059 = AXIS2_PLACEMENT_3D ( 'NONE', #368, #494, #774 ) ;
#1060 = CIRCLE ( 'NONE', #47, 2.049999999999999822 ) ;
#1061 = LINE ( 'NONE', #356, #580 ) ;
#1062 = ORIENTED_EDGE ( 'NONE', *, *, #835, .F. ) ;
#1063 = DIRECTION ( 'NONE',  ( 0.000000000000000000, 0.000000000000000000, 1.000000000000000000 ) ) ;
#1064 = VERTEX_POINT ( 'NONE', #49 ) ;
#1065 = PLANE ( 'NONE',  #683 ) ;
#1066 = VERTEX_POINT ( 'NONE', #222 ) ;
#1067 = ORIENTED_EDGE ( 'NONE', *, *, #378, .T. ) ;
#1068 = ADVANCED_FACE ( 'NONE', ( #845, #532, #954, #1156, #854, #140, #1030 ), #838, .T. ) ;
#1069 = FACE_BOUND ( 'NONE', #1045, .T. ) ;
#1070 = CYLINDRICAL_SURFACE ( 'NONE', #569, 2.049999999999999822 ) ;
#1071 = VECTOR ( 'NONE', #463, 1000.000000000000000 ) ;
#1072 = DIRECTION ( 'NONE',  ( 0.000000000000000000, 1.000000000000000000, 0.000000000000000000 ) ) ;
#1073 = LINE ( 'NONE', #236, #1150 ) ;
#1074 = AXIS2_PLACEMENT_3D ( 'NONE', #347, #389, #786 ) ;
#1075 = LINE ( 'NONE', #282, #350 ) ;
#1076 = DIRECTION ( 'NONE',  ( 0.000000000000000000, 1.000000000000000000, 0.000000000000000000 ) ) ;
#1077 = ORIENTED_EDGE ( 'NONE', *, *, #1144, .F. ) ;
#1078 = DIRECTION ( 'NONE',  ( -3.574581708073418934E-15, 1.000000000000000000, -2.102695122396128930E-16 ) ) ;
#1079 = CYLINDRICAL_SURFACE ( 'NONE', #170, 2.049999999999999822 ) ;
#1080 = AXIS2_PLACEMENT_3D ( 'NONE', #16, #1003, #3 ) ;
#1081 = CIRCLE ( 'NONE', #556, 2.049999999999999822 ) ;
#1082 = LINE ( 'NONE', #358, #1011 ) ;
#1083 = AXIS2_PLACEMENT_3D ( 'NONE', #590, #791, #805 ) ;
#1084 = DIRECTION ( 'NONE',  ( 0.000000000000000000, 1.000000000000000000, 0.000000000000000000 ) ) ;
#1085 = EDGE_CURVE ( 'NONE', #2, #545, #733, .T. ) ;
#1086 = CARTESIAN_POINT ( 'NONE',  ( -30.50000000000008527, 20.55000000000001137, 14.99999999999999467 ) ) ;
#1087 = ORIENTED_EDGE ( 'NONE', *, *, #923, .F. ) ;
#1088 = ORIENTED_EDGE ( 'NONE', *, *, #1089, .F. ) ;
#1089 = EDGE_CURVE ( 'NONE', #395, #261, #633, .T. ) ;
#1090 = ADVANCED_FACE ( 'NONE', ( #637 ), #1260, .F. ) ;
#1091 = FACE_OUTER_BOUND ( 'NONE', #1, .T. ) ;
#1092 = CARTESIAN_POINT ( 'NONE',  ( -27.50000000000001421, 4.336808689942017736E-16, -30.00000000000000000 ) ) ;
#1093 = APPLICATION_CONTEXT ( 'automotive_design' ) ;
#1094 = DIRECTION ( 'NONE',  ( -0.000000000000000000, -0.000000000000000000, 1.000000000000000000 ) ) ;
#1095 = DIRECTION ( 'NONE',  ( -0.000000000000000000, 1.000000000000000000, -0.000000000000000000 ) ) ;
#1096 = CARTESIAN_POINT ( 'NONE',  ( 34.50000000000017053, 20.55000000000024585, 14.99999999999999467 ) ) ;
#1097 = EDGE_LOOP ( 'NONE', ( #726, #1104, #848, #291 ) ) ;
#1098 = EDGE_LOOP ( 'NONE', ( #820, #1042, #1272, #617 ) ) ;
#1099 = EDGE_CURVE ( 'NONE', #896, #798, #246, .T. ) ;
#1100 = CARTESIAN_POINT ( 'NONE',  ( -1.571166602479410136E-13, 0.000000000000000000, 22.50000000000000355 ) ) ;
#1101 = DIRECTION ( 'NONE',  ( 2.721134864277344261E-15, -1.000000000000000000, 0.000000000000000000 ) ) ;
#1102 = DIRECTION ( 'NONE',  ( 1.000000000000000000, -3.614007241618349165E-15, 0.000000000000000000 ) ) ;
#1103 = ORIENTED_EDGE ( 'NONE', *, *, #398, .T. ) ;
#1104 = ORIENTED_EDGE ( 'NONE', *, *, #166, .T. ) ;
#1105 = EDGE_CURVE ( 'NONE', #326, #975, #754, .T. ) ;
#1106 = FACE_OUTER_BOUND ( 'NONE', #1291, .T. ) ;
#1107 = FACE_OUTER_BOUND ( 'NONE', #1167, .T. ) ;
#1108 = AXIS2_PLACEMENT_3D ( 'NONE', #301, #387, #790 ) ;
#1109 = DIRECTION ( 'NONE',  ( -1.000000000000000000, -3.574581708073418934E-15, -0.000000000000000000 ) ) ;
#1110 = AXIS2_PLACEMENT_3D ( 'NONE', #191, #91, #495 ) ;
#1111 = ORIENTED_EDGE ( 'NONE', *, *, #1051, .F. ) ;
#1112 = EDGE_LOOP ( 'NONE', ( #391, #340 ) ) ;
#1113 = CARTESIAN_POINT ( 'NONE',  ( -30.50000000000007461, 18.00000000000001421, 14.99999999999999467 ) ) ;
#1114 = CARTESIAN_POINT ( 'NONE',  ( -34.50000000000012079, 33.00000000000000000, -30.00000000000000000 ) ) ;
#1115 = APPLICATION_PROTOCOL_DEFINITION ( 'draft international standard', 'automotive_design', 1998, #1093 ) ;
#1116 = EDGE_CURVE ( 'NONE', #1187, #162, #927, .T. ) ;
#1117 = CARTESIAN_POINT ( 'NONE',  ( 15.90990257669735009, -4.000000000000000000, -15.90990257669729502 ) ) ;
#1118 = DIRECTION ( 'NONE',  ( -1.000000000000000000, -3.574581708073418934E-15, 0.000000000000000000 ) ) ;
#1119 = EDGE_LOOP ( 'NONE', ( #89, #1172, #522, #672 ) ) ;
#1120 = ORIENTED_EDGE ( 'NONE', *, *, #94, .T. ) ;
#1121 = DIRECTION ( 'NONE',  ( -1.000000000000000000, -3.614007241618349165E-15, 0.000000000000000000 ) ) ;
#1122 = DIRECTION ( 'NONE',  ( 0.000000000000000000, 1.000000000000000000, 0.000000000000000000 ) ) ;
#1123 = ADVANCED_FACE ( 'NONE', ( #748 ), #1151, .F. ) ;
#1124 = CYLINDRICAL_SURFACE ( 'NONE', #142, 2.999999999999999112 ) ;
#1125 = AXIS2_PLACEMENT_3D ( 'NONE', #305, #1118, #310 ) ;
#1126 = EDGE_LOOP ( 'NONE', ( #1165, #596, #122, #540 ) ) ;
#1127 = CARTESIAN_POINT ( 'NONE',  ( -27.50000000000001421, 2.999999999999999556, -30.00000000000000000 ) ) ;
#1128 = VERTEX_POINT ( 'NONE', #22 ) ;
#1129 = CARTESIAN_POINT ( 'NONE',  ( -15.90990257669746022, 0.000000000000000000, 13.85990257669718417 ) ) ;
#1130 = CIRCLE ( 'NONE', #231, 2.049999999999999822 ) ;
#1131 = VERTEX_POINT ( 'NONE', #1252 ) ;
#1132 = AXIS2_PLACEMENT_3D ( 'NONE', #524, #836, #105 ) ;
#1133 = ADVANCED_FACE ( 'NONE', ( #1265 ), #935, .F. ) ;
#1134 = CARTESIAN_POINT ( 'NONE',  ( 30.50000000000006750, 18.00000000000023448, -15.00000000000000000 ) ) ;
#1135 = DIRECTION ( 'NONE',  ( -0.000000000000000000, -0.000000000000000000, -1.000000000000000000 ) ) ;
#1136 = VERTEX_POINT ( 'NONE', #1241 ) ;
#1137 = ORIENTED_EDGE ( 'NONE', *, *, #923, .T. ) ;
#1138 = CARTESIAN_POINT ( 'NONE',  ( -27.50000000000001421, 0.000000000000000000, 30.00000000000000000 ) ) ;
#1139 = FACE_OUTER_BOUND ( 'NONE', #201, .T. ) ;
#1140 = EDGE_LOOP ( 'NONE', ( #362, #1006, #19, #214 ) ) ;
#1141 = LINE ( 'NONE', #856, #48 ) ;
#1142 = AXIS2_PLACEMENT_3D ( 'NONE', #64, #467, #489 ) ;
#1143 = EDGE_CURVE ( 'NONE', #982, #1066, #83, .T. ) ;
#1144 = EDGE_CURVE ( 'NONE', #1160, #239, #718, .T. ) ;
#1145 = DIRECTION ( 'NONE',  ( 1.000000000000000000, 3.574581708073418934E-15, -0.000000000000000000 ) ) ;
#1146 = DIRECTION ( 'NONE',  ( 0.000000000000000000, 1.000000000000000000, 0.000000000000000000 ) ) ;
#1147 = LINE ( 'NONE', #436, #895 ) ;
#1148 = ORIENTED_EDGE ( 'NONE', *, *, #1284, .F. ) ;
#1149 = STYLED_ITEM ( 'NONE', ( #677 ), #39 ) ;
#1150 = VECTOR ( 'NONE', #857, 1000.000000000000000 ) ;
#1151 = CYLINDRICAL_SURFACE ( 'NONE', #1184, 2.550000000000000266 ) ;
#1152 = ORIENTED_EDGE ( 'NONE', *, *, #1251, .T. ) ;
#1153 = DIRECTION ( 'NONE',  ( 0.000000000000000000, 0.000000000000000000, -1.000000000000000000 ) ) ;
#1154 = ORIENTED_EDGE ( 'NONE', *, *, #1144, .T. ) ;
#1155 = DIRECTION ( 'NONE',  ( -1.000000000000000000, 3.574581708073418934E-15, 0.000000000000000000 ) ) ;
#1156 = FACE_BOUND ( 'NONE', #862, .T. ) ;
#1157 = EDGE_LOOP ( 'NONE', ( #399, #242, #886, #909 ) ) ;
#1158 =( GEOMETRIC_REPRESENTATION_CONTEXT ( 3 ) GLOBAL_UNCERTAINTY_ASSIGNED_CONTEXT ( ( #76 ) ) GLOBAL_UNIT_ASSIGNED_CONTEXT ( ( #1279, #608, #694 ) ) REPRESENTATION_CONTEXT ( 'NONE', 'WORKASPACE' ) );
#1159 = PLANE ( 'NONE',  #729 ) ;
#1160 = VERTEX_POINT ( 'NONE', #555 ) ;
#1161 = VECTOR ( 'NONE', #1194, 1000.000000000000000 ) ;
#1162 = VECTOR ( 'NONE', #743, 1000.000000000000000 ) ;
#1163 = ORIENTED_EDGE ( 'NONE', *, *, #454, .T. ) ;
#1164 = DIRECTION ( 'NONE',  ( -3.574581708073418934E-15, -1.000000000000000000, 0.000000000000000000 ) ) ;
#1165 = ORIENTED_EDGE ( 'NONE', *, *, #207, .F. ) ;
#1166 = DIRECTION ( 'NONE',  ( 0.000000000000000000, 1.000000000000000000, 0.000000000000000000 ) ) ;
#1167 = EDGE_LOOP ( 'NONE', ( #338, #452, #644, #316 ) ) ;
#1168 = EDGE_CURVE ( 'NONE', #162, #485, #227, .T. ) ;
#1169 = VECTOR ( 'NONE', #171, 1000.000000000000000 ) ;
#1170 = ORIENTED_EDGE ( 'NONE', *, *, #1029, .T. ) ;
#1171 = DIRECTION ( 'NONE',  ( -0.000000000000000000, -0.000000000000000000, -1.000000000000000000 ) ) ;
#1172 = ORIENTED_EDGE ( 'NONE', *, *, #1284, .T. ) ;
#1173 = LINE ( 'NONE', #73, #401 ) ;
#1174 = ORIENTED_EDGE ( 'NONE', *, *, #113, .F. ) ;
#1175 = EDGE_LOOP ( 'NONE', ( #719, #1307, #984, #801 ) ) ;
#1176 = PLANE ( 'NONE',  #762 ) ;
#1177 = CARTESIAN_POINT ( 'NONE',  ( 34.50000000000012079, 33.00000000000000000, 0.000000000000000000 ) ) ;
#1178 = DIRECTION ( 'NONE',  ( 0.000000000000000000, 0.000000000000000000, 1.000000000000000000 ) ) ;
#1179 = EDGE_LOOP ( 'NONE', ( #1077, #216, #460, #382 ) ) ;
#1180 = VECTOR ( 'NONE', #1310, 1000.000000000000000 ) ;
#1181 = DIRECTION ( 'NONE',  ( 2.721134864277347811E-15, -1.000000000000000000, 0.000000000000000000 ) ) ;
#1182 = LINE ( 'NONE', #607, #851 ) ;
#1183 = ADVANCED_FACE ( 'NONE', ( #1139 ), #938, .T. ) ;
#1184 = AXIS2_PLACEMENT_3D ( 'NONE', #126, #730, #858 ) ;
#1185 = EDGE_CURVE ( 'NONE', #841, #545, #646, .T. ) ;
#1186 = DIRECTION ( 'NONE',  ( 0.000000000000000000, 0.000000000000000000, 1.000000000000000000 ) ) ;
#1187 = VERTEX_POINT ( 'NONE', #79 ) ;
#1188 = CARTESIAN_POINT ( 'NONE',  ( 30.50000000000007816, 20.55000000000023519, -15.00000000000000000 ) ) ;
#1189 = DIRECTION ( 'NONE',  ( 1.000000000000000000, 3.574581708073418934E-15, -0.000000000000000000 ) ) ;
#1190 = CIRCLE ( 'NONE', #554, 6.999999999999999112 ) ;
#1191 = VECTOR ( 'NONE', #487, 1000.000000000000000 ) ;
#1192 = CARTESIAN_POINT ( 'NONE',  ( -15.90990257669712449, -4.000000000000000000, -15.90990257669751884 ) ) ;
#1193 = CIRCLE ( 'NONE', #628, 2.999999999999999112 ) ;
#1194 = DIRECTION ( 'NONE',  ( -0.000000000000000000, 1.000000000000000000, -0.000000000000000000 ) ) ;
#1195 = ORIENTED_EDGE ( 'NONE', *, *, #794, .T. ) ;
#1196 = VERTEX_POINT ( 'NONE', #466 ) ;
#1197 = DIRECTION ( 'NONE',  ( 0.000000000000000000, 0.000000000000000000, 1.000000000000000000 ) ) ;
#1198 = CYLINDRICAL_SURFACE ( 'NONE', #470, 2.550000000000000266 ) ;
#1199 = ORIENTED_EDGE ( 'NONE', *, *, #721, .T. ) ;
#1200 = CARTESIAN_POINT ( 'NONE',  ( -27.50000000000001421, 2.999999999999999556, -30.00000000000000000 ) ) ;
#1201 = EDGE_CURVE ( 'NONE', #1066, #255, #989, .T. ) ;
#1202 = EDGE_LOOP ( 'NONE', ( #1253, #744, #151, #53 ) ) ;
#1203 = EDGE_LOOP ( 'NONE', ( #705, #400, #690, #1137 ) ) ;
#1204 = CYLINDRICAL_SURFACE ( 'NONE', #1059, 2.049999999999999822 ) ;
#1205 = DIRECTION ( 'NONE',  ( 0.000000000000000000, 0.000000000000000000, 1.000000000000000000 ) ) ;
#1206 = EDGE_LOOP ( 'NONE', ( #936, #464, #793, #1052 ) ) ;
#1207 = DIRECTION ( 'NONE',  ( 0.000000000000000000, 0.000000000000000000, 1.000000000000000000 ) ) ;
#1208 = CARTESIAN_POINT ( 'NONE',  ( 34.50000000000017764, 18.00000000000024869, 14.99999999999999467 ) ) ;
#1209 = EDGE_LOOP ( 'NONE', ( #1237, #631, #571, #1283 ) ) ;
#1210 = EDGE_CURVE ( 'NONE', #185, #269, #944, .T. ) ;
#1211 = CARTESIAN_POINT ( 'NONE',  ( 15.90990257669723817, 0.000000000000000000, 17.95990257669740231 ) ) ;
#1212 = FACE_OUTER_BOUND ( 'NONE', #520, .T. ) ;
#1213 = EDGE_CURVE ( 'NONE', #112, #1031, #844, .T. ) ;
#1214 = CARTESIAN_POINT ( 'NONE',  ( -30.50000000000006395, 15.45000000000001528, -15.00000000000000000 ) ) ;
#1215 =( GEOMETRIC_REPRESENTATION_CONTEXT ( 3 ) GLOBAL_UNCERTAINTY_ASSIGNED_CONTEXT ( ( #985 ) ) GLOBAL_UNIT_ASSIGNED_CONTEXT ( ( #966, #785, #62 ) ) REPRESENTATION_CONTEXT ( 'NONE', 'WORKASPACE' ) );
#1216 = DIRECTION ( 'NONE',  ( 0.000000000000000000, 0.000000000000000000, 1.000000000000000000 ) ) ;
#1217 = CIRCLE ( 'NONE', #319, 2.549999999999996714 ) ;
#1218 = ORIENTED_EDGE ( 'NONE', *, *, #7, .T. ) ;
#1219 = CARTESIAN_POINT ( 'NONE',  ( 34.50000000000000000, -1.372889942839054918E-13, 30.00000000000000000 ) ) ;
#1220 = EDGE_CURVE ( 'NONE', #663, #416, #978, .T. ) ;
#1221 = PLANE ( 'NONE',  #373 ) ;
#1222 = VERTEX_POINT ( 'NONE', #1295 ) ;
#1223 = ORIENTED_EDGE ( 'NONE', *, *, #907, .F. ) ;
#1224 = DIRECTION ( 'NONE',  ( 0.000000000000000000, 0.000000000000000000, 1.000000000000000000 ) ) ;
#1225 = AXIS2_PLACEMENT_3D ( 'NONE', #1246, #1041, #135 ) ;
#1226 = EDGE_CURVE ( 'NONE', #228, #710, #55, .T. ) ;
#1227 = ORIENTED_EDGE ( 'NONE', *, *, #689, .T. ) ;
#1228 = CARTESIAN_POINT ( 'NONE',  ( 0.000000000000000000, -4.000000000000000000, 0.000000000000000000 ) ) ;
#1229 = CIRCLE ( 'NONE', #35, 2.049999999999999822 ) ;
#1230 = EDGE_CURVE ( 'NONE', #239, #469, #265, .T. ) ;
#1231 = ORIENTED_EDGE ( 'NONE', *, *, #240, .F. ) ;
#1232 = EDGE_LOOP ( 'NONE', ( #731, #669 ) ) ;
#1233 = CYLINDRICAL_SURFACE ( 'NONE', #1132, 2.049999999999999822 ) ;
#1234 = EDGE_LOOP ( 'NONE', ( #148, #803, #855, #508 ) ) ;
#1235 = CARTESIAN_POINT ( 'NONE',  ( 34.50000000000018474, 15.45000000000024798, -15.00000000000000000 ) ) ;
#1236 = AXIS2_PLACEMENT_3D ( 'NONE', #892, #1289, #1207 ) ;
#1237 = ORIENTED_EDGE ( 'NONE', *, *, #983, .F. ) ;
#1238 = EDGE_CURVE ( 'NONE', #123, #441, #459, .T. ) ;
#1239 = VECTOR ( 'NONE', #302, 1000.000000000000000 ) ;
#1240 = DIRECTION ( 'NONE',  ( 0.000000000000000000, 1.000000000000000000, 0.000000000000000000 ) ) ;
#1241 = CARTESIAN_POINT ( 'NONE',  ( 2.510525938252073693E-16, 0.000000000000000000, -24.55000000000000071 ) ) ;
#1242 = EDGE_LOOP ( 'NONE', ( #587, #286, #942, #839 ) ) ;
#1243 = CARTESIAN_POINT ( 'NONE',  ( 15.90990257669735009, -4.000000000000000000, -13.85990257669729431 ) ) ;
#1244 = EDGE_CURVE ( 'NONE', #250, #185, #1075, .T. ) ;
#1245 = DIRECTION ( 'NONE',  ( -1.000000000000000000, 3.491481338843133355E-15, 0.000000000000000000 ) ) ;
#1246 = CARTESIAN_POINT ( 'NONE',  ( 34.50000000000017764, 18.00000000000024869, -15.00000000000000000 ) ) ;
#1247 = ORIENTED_EDGE ( 'NONE', *, *, #1105, .F. ) ;
#1248 = VECTOR ( 'NONE', #740, 1000.000000000000000 ) ;
#1249 = CARTESIAN_POINT ( 'NONE',  ( 30.50000000000001421, 2.999999999999988898, 30.00000000000000000 ) ) ;
#1250 = EDGE_LOOP ( 'NONE', ( #1005, #533, #505, #34 ) ) ;
#1251 = EDGE_CURVE ( 'NONE', #359, #409, #960, .T. ) ;
#1252 = CARTESIAN_POINT ( 'NONE',  ( 0.000000000000000000, -4.000000000000000000, -20.45000000000000284 ) ) ;
#1253 = ORIENTED_EDGE ( 'NONE', *, *, #404, .T. ) ;
#1254 = CARTESIAN_POINT ( 'NONE',  ( 30.50000000000012079, 33.00000000000001421, -29.99999999999999289 ) ) ;
#1255 = AXIS2_PLACEMENT_3D ( 'NONE', #1055, #557, #50 ) ;
#1256 = ORIENTED_EDGE ( 'NONE', *, *, #378, .F. ) ;
#1257 = CIRCLE ( 'NONE', #1023, 2.049999999999999822 ) ;
#1258 = ADVANCED_FACE ( 'NONE', ( #379, #1069, #173 ), #488, .T. ) ;
#1259 = CARTESIAN_POINT ( 'NONE',  ( 34.50000000000011369, 33.00000000000000000, -29.99999999999999289 ) ) ;
#1260 = PLANE ( 'NONE',  #163 ) ;
#1261 = ORIENTED_EDGE ( 'NONE', *, *, #1220, .F. ) ;
#1262 = DIRECTION ( 'NONE',  ( -0.000000000000000000, -0.000000000000000000, 1.000000000000000000 ) ) ;
#1263 = ORIENTED_EDGE ( 'NONE', *, *, #9, .F. ) ;
#1264 = LINE ( 'NONE', #40, #26 ) ;
#1265 = FACE_OUTER_BOUND ( 'NONE', #1175, .T. ) ;
#1266 = ORIENTED_EDGE ( 'NONE', *, *, #1034, .F. ) ;
#1267 = EDGE_CURVE ( 'NONE', #982, #161, #881, .T. ) ;
#1268 = VECTOR ( 'NONE', #875, 1000.000000000000000 ) ;
#1269 = DIRECTION ( 'NONE',  ( -1.000000000000000000, 0.000000000000000000, 0.000000000000000000 ) ) ;
#1270 = AXIS2_PLACEMENT_3D ( 'NONE', #662, #482, #183 ) ;
#1271 = CARTESIAN_POINT ( 'NONE',  ( 34.50000000000001421, 2.999999999999974687, 30.00000000000000000 ) ) ;
#1272 = ORIENTED_EDGE ( 'NONE', *, *, #567, .T. ) ;
#1273 = DIRECTION ( 'NONE',  ( -0.000000000000000000, 1.000000000000000000, -0.000000000000000000 ) ) ;
#1274 = CARTESIAN_POINT ( 'NONE',  ( 2.510525938252073693E-16, -4.000000000000000000, -24.55000000000000071 ) ) ;
#1275 = DIRECTION ( 'NONE',  ( 0.000000000000000000, 0.000000000000000000, 1.000000000000000000 ) ) ;
#1276 = EDGE_CURVE ( 'NONE', #975, #326, #619, .T. ) ;
#1277 = VECTOR ( 'NONE', #1095, 1000.000000000000000 ) ;
#1278 = AXIS2_PLACEMENT_3D ( 'NONE', #457, #442, #1269 ) ;
#1279 =( LENGTH_UNIT ( ) NAMED_UNIT ( * ) SI_UNIT ( .MILLI., .METRE. ) );
#1280 = DIRECTION ( 'NONE',  ( -1.000000000000000000, -3.574581708073418934E-15, -0.000000000000000000 ) ) ;
#1281 = LINE ( 'NONE', #962, #800 ) ;
#1282 = ORIENTED_EDGE ( 'NONE', *, *, #1251, .F. ) ;
#1283 = ORIENTED_EDGE ( 'NONE', *, *, #842, .F. ) ;
#1284 = EDGE_CURVE ( 'NONE', #187, #949, #1082, .T. ) ;
#1285 = EDGE_CURVE ( 'NONE', #1031, #408, #473, .T. ) ;
#1286 = CARTESIAN_POINT ( 'NONE',  ( -30.50000000000012079, 33.00000000000001421, 29.99999999999999289 ) ) ;
#1287 = LINE ( 'NONE', #263, #518 ) ;
#1288 = CARTESIAN_POINT ( 'NONE',  ( -27.50000000000001421, 2.999999999999999556, 30.00000000000000000 ) ) ;
#1289 = DIRECTION ( 'NONE',  ( 0.000000000000000000, 1.000000000000000000, 0.000000000000000000 ) ) ;
#1290 = CARTESIAN_POINT ( 'NONE',  ( 27.50000000000001421, -4.000000000000000000, -30.00000000000000000 ) ) ;
#1291 = EDGE_LOOP ( 'NONE', ( #423, #1174, #833, #176 ) ) ;
#1292 = AXIS2_PLACEMENT_3D ( 'NONE', #212, #622, #447 ) ;
#1293 = CYLINDRICAL_SURFACE ( 'NONE', #727, 2.049999999999999822 ) ;
#1294 = FACE_BOUND ( 'NONE', #612, .T. ) ;
#1295 = CARTESIAN_POINT ( 'NONE',  ( 30.50000000000001421, 2.999999999999988898, 30.00000000000000000 ) ) ;
#1296 = FILL_AREA_STYLE ('',( #695 ) ) ;
#1297 = FACE_OUTER_BOUND ( 'NONE', #24, .T. ) ;
#1298 = ORIENTED_EDGE ( 'NONE', *, *, #322, .T. ) ;
#1299 = ORIENTED_EDGE ( 'NONE', *, *, #1051, .T. ) ;
#1300 = CARTESIAN_POINT ( 'NONE',  ( -34.50000000000006395, 18.00000000000000355, 14.99999999999999467 ) ) ;
#1301 = CYLINDRICAL_SURFACE ( 'NONE', #363, 2.049999999999999822 ) ;
#1302 = CIRCLE ( 'NONE', #92, 2.049999999999999822 ) ;
#1303 = CIRCLE ( 'NONE', #742, 2.550000000000000266 ) ;
#1304 = ADVANCED_FACE ( 'NONE', ( #365 ), #61, .T. ) ;
#1305 = DIRECTION ( 'NONE',  ( -0.000000000000000000, 1.000000000000000000, -0.000000000000000000 ) ) ;
#1306 = ORIENTED_EDGE ( 'NONE', *, *, #1143, .T. ) ;
#1307 = ORIENTED_EDGE ( 'NONE', *, *, #398, .F. ) ;
#1308 = DIRECTION ( 'NONE',  ( -3.574581708073418934E-15, -1.000000000000000000, 0.000000000000000000 ) ) ;
#1309 = DIRECTION ( 'NONE',  ( 0.000000000000000000, 0.000000000000000000, -1.000000000000000000 ) ) ;
#1310 = DIRECTION ( 'NONE',  ( -1.000000000000000000, -3.574581708073418934E-15, 1.747347410498382386E-32 ) ) ;
#1311 = EDGE_LOOP ( 'NONE', ( #959, #46, #357, #756 ) ) ;
#1312 = ADVANCED_FACE ( 'NONE', ( #562 ), #181, .F. ) ;
#1313 = DIRECTION ( 'NONE',  ( -0.000000000000000000, 1.000000000000000000, -0.000000000000000000 ) ) ;
#1314 = PLANE ( 'NONE',  #1083 ) ;
#1315 = SHAPE_DEFINITION_REPRESENTATION ( #629, #621 ) ;
#1316 = CIRCLE ( 'NONE', #107, 2.049999999999999822 ) ;
#1317 = EDGE_LOOP ( 'NONE', ( #219, #13, #1298, #138 ) ) ;
#1318 = CARTESIAN_POINT ( 'NONE',  ( 27.50000000000001421, 2.999999999999999556, -30.00000000000000000 ) ) ;
#1319 = DIRECTION ( 'NONE',  ( 0.000000000000000000, 0.000000000000000000, 1.000000000000000000 ) ) ;
ENDSEC;
END-ISO-10303-21;
